<?xml version="1.0" encoding="UTF-8" standalone="no"?>
<svg width="24px" height="24px" viewBox="0 0 24 24" version="1.1" xmlns="http://www.w3.org/2000/svg" xmlns:xlink="http://www.w3.org/1999/xlink" xmlns:sketch="http://www.bohemiancoding.com/sketch/ns">
    <!-- Generator: Sketch 3.5.2 (25235) - http://www.bohemiancoding.com/sketch -->
    <title>arrow-down</title>
    <desc>Created with Sketch.</desc>
    <defs></defs>
    <g id="Page-1" stroke="none" stroke-width="1" fill="none" fill-rule="evenodd" sketch:type="MSPage">
        <g id="arrow-down" sketch:type="MSArtboardGroup" fill="#000000">
            <path d="M18.3826189,11.9664535 C18.4578506,11.8912218 18.4728969,11.7708511 18.4428043,11.6655267 C18.3976653,11.5602024 18.2923409,11.500017 18.1870166,11.500017 L14.666174,11.500017 L14.666174,5.27083404 C14.666174,5.12037069 14.5458033,5 14.3953399,5 L10.0619952,5 C9.91153189,5 9.7911612,5.12037069 9.7911612,5.27083404 L9.7911612,11.500017 L6.27031864,11.500017 C6.16499429,11.500017 6.05966994,11.5602024 6.01453093,11.6655267 C5.98443826,11.7708511 5.99948459,11.8912218 6.07471627,11.9664535 L12.0330652,17.9248024 C12.0932506,17.9699414 12.1534359,18.0000341 12.2286676,18.0000341 C12.3038993,18.0000341 12.3640846,17.9699414 12.42427,17.9248024 L18.3826189,11.9664535 Z" id="down" sketch:type="MSShapeGroup"></path>
        </g>
    </g>
</svg>