<?xml version="1.0" encoding="UTF-8" standalone="no"?>
<svg width="24px" height="24px" viewBox="0 0 24 24" version="1.1" xmlns="http://www.w3.org/2000/svg" xmlns:xlink="http://www.w3.org/1999/xlink" xmlns:sketch="http://www.bohemiancoding.com/sketch/ns">
    <!-- Generator: Sketch 3.5.2 (25235) - http://www.bohemiancoding.com/sketch -->
    <title>facebook</title>
    <desc>Created with Sketch.</desc>
    <defs></defs>
    <g id="Page-1" stroke="none" stroke-width="1" fill="none" fill-rule="evenodd" sketch:type="MSPage">
        <g id="facebook" sketch:type="MSArtboardGroup" fill="#000000">
            <path d="M19.2976533,3.796875 L4.70234672,3.796875 C4.20215504,3.796875 3.796875,4.20221651 3.796875,4.70234672 L3.796875,19.2977148 C3.796875,19.7977835 4.20215504,20.2032479 4.70234672,20.2032479 L12.5599725,20.2032479 L12.5599725,13.849824 L10.4219405,13.849824 L10.4219405,11.3737615 L12.5599725,11.3737615 L12.5599725,9.54775761 C12.5599725,7.42872021 13.8541885,6.27484311 15.7445528,6.27484311 C16.6500245,6.27484311 17.4283122,6.34221562 17.6551411,6.37233654 L17.6551411,8.58690029 L16.3440205,8.587515 C15.3159751,8.587515 15.1168697,9.07602713 15.1168697,9.79290501 L15.1168697,11.3737615 L17.568774,11.3737615 L17.2494922,13.849824 L15.1168697,13.849824 L15.1168697,20.2032479 L19.2976533,20.2032479 C19.7976605,20.2032479 20.203125,19.7977835 20.203125,19.2977148 L20.203125,4.70234672 C20.203125,4.20221651 19.7976605,3.796875 19.2976533,3.796875" id="Fill-1" sketch:type="MSShapeGroup"></path>
        </g>
    </g>
</svg>