<?xml version="1.0" encoding="UTF-8" standalone="no"?>
<svg width="24px" height="24px" viewBox="0 0 24 24" version="1.1" xmlns="http://www.w3.org/2000/svg" xmlns:xlink="http://www.w3.org/1999/xlink" xmlns:sketch="http://www.bohemiancoding.com/sketch/ns">
    <!-- Generator: Sketch 3.5.2 (25235) - http://www.bohemiancoding.com/sketch -->
    <title>github</title>
    <desc>Created with Sketch.</desc>
    <defs></defs>
    <g id="Page-1" stroke="none" stroke-width="1" fill="none" fill-rule="evenodd" sketch:type="MSPage">
        <g id="github" sketch:type="MSArtboardGroup" fill="#000000">
            <path d="M18.4086914,9.30712891 C18.5625,8.49414062 18.7163086,7.03662109 18.2475586,5.90869141 C16.7753906,6.02587891 15.6254883,6.72167969 14.9663086,7.22705078 C14.0800781,6.98535156 13.0766602,6.84619141 12,6.84619141 C10.9233398,6.84619141 9.91992188,6.98535156 9.01171875,7.22705078 C8.37451172,6.72167969 7.22460938,6.02587891 5.75244141,5.90869141 C5.28369141,7.05126953 5.4375,8.49414062 5.59130859,9.32910156 C4.90283203,10.1787109 4.5,11.2553711 4.5,12.4711914 C4.5,16.84375 7.3125,18.4038086 12,18.4038086 C16.6875,18.4038086 19.5,16.84375 19.5,12.4492188 C19.5,11.2333984 19.097168,10.1787109 18.4086914,9.30712891 L18.4086914,9.30712891 Z M12,17.4663086 C7.93505859,17.4663086 6.47753906,16.2211914 6.47753906,14.3461914 C6.47753906,12.15625 8.25,11.6875 9.1875,11.6875 C10.125,11.6875 10.125,11.8413086 12,11.8413086 C13.875,11.8413086 13.875,11.6875 14.8125,11.6875 C15.75,11.6875 17.5224609,12.15625 17.5224609,14.3461914 C17.5224609,16.2211914 16.0649414,17.4663086 12,17.4663086 L12,17.4663086 Z M15.1274414,14.5 C15.1274414,13.4086914 14.7758789,13.09375 14.34375,13.09375 C13.9116211,13.09375 13.5600586,13.4086914 13.5600586,14.5 C13.5600586,15.5913086 13.9116211,15.90625 14.34375,15.90625 C14.7758789,15.90625 15.1274414,15.5913086 15.1274414,14.5 L15.1274414,14.5 Z M10.4399414,14.5 C10.4399414,13.4086914 10.0883789,13.09375 9.65625,13.09375 C9.22412109,13.09375 8.87255859,13.4086914 8.87255859,14.5 C8.87255859,15.5913086 9.22412109,15.90625 9.65625,15.90625 C10.0883789,15.90625 10.4399414,15.5913086 10.4399414,14.5 L10.4399414,14.5 Z" id="octocat" sketch:type="MSShapeGroup"></path>
        </g>
    </g>
</svg>