<?xml version="1.0" encoding="UTF-8" standalone="no"?>
<svg width="24px" height="24px" viewBox="0 0 24 24" version="1.1" xmlns="http://www.w3.org/2000/svg" xmlns:xlink="http://www.w3.org/1999/xlink" xmlns:sketch="http://www.bohemiancoding.com/sketch/ns">
    <!-- Generator: Sketch 3.5.2 (25235) - http://www.bohemiancoding.com/sketch -->
    <title>globe</title>
    <desc>Created with Sketch.</desc>
    <defs></defs>
    <g id="Page-1" stroke="none" stroke-width="1" fill="none" fill-rule="evenodd" sketch:type="MSPage">
        <g id="globe" sketch:type="MSArtboardGroup" fill="#000000">
            <path d="M12.2343996,2.51557583 C7.04775404,2.51557583 2.859375,6.70395487 2.859375,11.8906004 C2.859375,17.077246 7.04775404,21.265625 12.2343996,21.265625 C17.4210451,21.265625 21.6094242,17.077246 21.6094242,11.8906004 C21.6094242,6.70395487 17.4210451,2.51557583 12.2343996,2.51557583 L12.2343996,2.51557583 Z M13.4062777,19.3124949 C13.1892632,19.3124949 13.0156516,19.1388833 13.0156516,18.9218689 L13.0156516,16.1223823 C11.8871765,15.861965 11.0625215,14.841997 11.0625215,13.6484175 C11.0625215,13.4531045 11.084223,13.2577915 11.1276259,13.0624785 L11.0625215,13.0624785 C8.71876537,13.0624785 6.76563524,11.1093484 6.76563524,8.76559222 C6.76563524,6.13971728 8.93577982,4.57721318 12.2343996,4.46870595 C12.6467271,4.46870595 13.0590545,4.51210884 13.471382,4.57721318 C13.666695,4.59891462 13.7969037,4.77252619 13.7969037,4.9678392 C13.7752022,6.5303433 13.276069,7.61541559 13.0590545,8.02774306 C13.4279791,8.39666764 13.7969037,8.78729366 13.7969037,9.54684427 C13.7969037,9.98087318 13.4496806,10.3280963 13.0156516,10.3280963 C12.451414,10.3280963 12.4297126,9.54684427 11.6484606,9.54684427 C11.1059244,9.54684427 10.6718955,9.98087318 10.6718955,10.5234093 C10.6718955,11.3046614 11.4531475,11.8906004 12.6250256,11.8906004 L14.1875297,11.8906004 C15.7066309,11.8906004 16.9219119,13.1058814 16.9219119,14.6249826 C16.9219119,17.3593648 14.5781557,19.3124949 13.4062777,19.3124949 L13.4062777,19.3124949 Z" id="world" sketch:type="MSShapeGroup"></path>
        </g>
    </g>
</svg>