<?xml version="1.0" encoding="UTF-8" standalone="no"?>
<svg width="24px" height="24px" viewBox="0 0 24 24" version="1.1" xmlns="http://www.w3.org/2000/svg" xmlns:xlink="http://www.w3.org/1999/xlink" xmlns:sketch="http://www.bohemiancoding.com/sketch/ns">
    <!-- Generator: Sketch 3.5.1 (25234) - http://www.bohemiancoding.com/sketch -->
    <title>instagram</title>
    <desc>Created with Sketch.</desc>
    <defs></defs>
    <g id="Page-1" stroke="none" stroke-width="1" fill="none" fill-rule="evenodd" sketch:type="MSPage">
        <g id="instagram" sketch:type="MSArtboardGroup" fill="#000000">
            <path d="M17.3531799,4.59375 L7.39682007,4.59375 C6.26385498,4.59375 5.34375,5.51385498 5.34375,6.64682007 L5.34375,16.6031799 C5.34375,17.736145 6.26385498,18.65625 7.39682007,18.65625 L17.3531799,18.65625 C18.486145,18.65625 19.40625,17.736145 19.40625,16.6031799 L19.40625,6.64682007 C19.40625,5.51385498 18.486145,4.59375 17.3531799,4.59375 L17.3531799,4.59375 Z M12.375,8.98828125 C13.8306885,8.98828125 15.0117188,10.1693115 15.0117188,11.625 C15.0117188,13.0806885 13.8306885,14.2617188 12.375,14.2617188 C10.9193115,14.2617188 9.73828125,13.0806885 9.73828125,11.625 C9.73828125,10.1693115 10.9193115,8.98828125 12.375,8.98828125 L12.375,8.98828125 Z M17.9436951,16.8984375 C17.9436951,17.0632324 17.8132324,17.1936951 17.6484375,17.1936951 L7.1015625,17.1936951 C6.93676758,17.1936951 6.80630493,17.0632324 6.80630493,16.8984375 L6.80630493,10.7460938 L8.36499023,10.7460938 C8.30319214,11.0276184 8.27572632,11.322876 8.27572632,11.625 C8.27572632,13.8909302 10.1090698,15.7242737 12.375,15.7242737 C14.6409302,15.7242737 16.4742737,13.8909302 16.4742737,11.625 C16.4742737,11.322876 16.4468079,11.0276184 16.3850098,10.7460938 L17.9436951,10.7460938 L17.9436951,16.8984375 Z M17.9436951,8.109375 C17.9436951,8.27416992 17.8132324,8.40463257 17.6484375,8.40463257 L15.890625,8.40463257 C15.7258301,8.40463257 15.5953674,8.27416992 15.5953674,8.109375 L15.5953674,6.3515625 C15.5953674,6.18676758 15.7258301,6.05630493 15.890625,6.05630493 L17.6484375,6.05630493 C17.8132324,6.05630493 17.9436951,6.18676758 17.9436951,6.3515625 L17.9436951,8.109375 Z" sketch:type="MSShapeGroup"></path>
        </g>
    </g>
</svg>