<?xml version="1.0" encoding="UTF-8" standalone="no"?>
<svg width="24px" height="24px" viewBox="0 0 24 24" version="1.1" xmlns="http://www.w3.org/2000/svg" xmlns:xlink="http://www.w3.org/1999/xlink" xmlns:sketch="http://www.bohemiancoding.com/sketch/ns">
    <!-- Generator: Sketch 3.5.2 (25235) - http://www.bohemiancoding.com/sketch -->
    <title>instagram</title>
    <desc>Created with Sketch.</desc>
    <defs></defs>
    <g id="Page-1" stroke="none" stroke-width="1" fill="none" fill-rule="evenodd" sketch:type="MSPage">
        <g id="instagram" sketch:type="MSArtboardGroup" fill="#000000">
            <path d="M17.8100586,5 L7.18994141,5 C5.98144531,5 5,5.98144531 5,7.18994141 L5,17.8100586 C5,19.0185547 5.98144531,20 7.18994141,20 L17.8100586,20 C19.0185547,20 20,19.0185547 20,17.8100586 L20,7.18994141 C20,5.98144531 19.0185547,5 17.8100586,5 L17.8100586,5 Z M12.5,9.6875 C14.0527344,9.6875 15.3125,10.9472656 15.3125,12.5 C15.3125,14.0527344 14.0527344,15.3125 12.5,15.3125 C10.9472656,15.3125 9.6875,14.0527344 9.6875,12.5 C9.6875,10.9472656 10.9472656,9.6875 12.5,9.6875 L12.5,9.6875 Z M18.4399414,18.125 C18.4399414,18.3007812 18.3007812,18.4399414 18.125,18.4399414 L6.875,18.4399414 C6.69921875,18.4399414 6.56005859,18.3007812 6.56005859,18.125 L6.56005859,11.5625 L8.22265625,11.5625 C8.15673828,11.862793 8.12744141,12.1777344 8.12744141,12.5 C8.12744141,14.9169922 10.0830078,16.8725586 12.5,16.8725586 C14.9169922,16.8725586 16.8725586,14.9169922 16.8725586,12.5 C16.8725586,12.1777344 16.8432617,11.862793 16.7773438,11.5625 L18.4399414,11.5625 L18.4399414,18.125 Z M18.4399414,8.75 C18.4399414,8.92578125 18.3007812,9.06494141 18.125,9.06494141 L16.25,9.06494141 C16.0742188,9.06494141 15.9350586,8.92578125 15.9350586,8.75 L15.9350586,6.875 C15.9350586,6.69921875 16.0742188,6.56005859 16.25,6.56005859 L18.125,6.56005859 C18.3007812,6.56005859 18.4399414,6.69921875 18.4399414,6.875 L18.4399414,8.75 Z" sketch:type="MSShapeGroup"></path>
        </g>
    </g>
</svg>