<?xml version="1.0" encoding="UTF-8" standalone="no"?>
<svg width="24px" height="24px" viewBox="0 0 24 24" version="1.1" xmlns="http://www.w3.org/2000/svg" xmlns:xlink="http://www.w3.org/1999/xlink" xmlns:sketch="http://www.bohemiancoding.com/sketch/ns">
    <!-- Generator: Sketch 3.5.1 (25234) - http://www.bohemiancoding.com/sketch -->
    <title>linkedin</title>
    <desc>Created with Sketch.</desc>
    <defs></defs>
    <g id="Page-1" stroke="none" stroke-width="1" fill="none" fill-rule="evenodd" sketch:type="MSPage">
        <g id="linkedin" sketch:type="MSArtboardGroup" fill="#000000">
            <path d="M5.63900757,9.19692993 L5.63900757,18.28125 L8.56411743,18.28125 L8.56411743,9.19692993 L5.63900757,9.19692993 Z M13.2539062,13.0078125 C13.2539062,11.8336487 14.0023499,11.25 14.8812561,11.25 C15.7601624,11.25 16.4742737,11.8336487 16.4742737,13.3030701 L16.4742737,18.28125 L19.40625,18.28125 L19.40625,13.0078125 C19.40625,10.3710938 17.9436951,8.90853882 15.890625,8.90853882 C14.7164612,8.90853882 13.8375549,9.57458496 13.2539062,10.4534912 L13.1577759,9.19692993 L10.2738647,9.19692993 C10.2738647,9.50592041 10.3219299,11.25 10.3219299,11.25 L10.3219299,18.28125 L13.2539062,18.28125 L13.2539062,13.0078125 Z M7.08782959,7.734375 C8.17272949,7.734375 8.859375,7.02026367 8.859375,6.12075806 C8.84564209,5.21438599 8.17272949,4.51400757 7.11529541,4.51400757 C6.04412842,4.51400757 5.34375,5.21438599 5.34375,6.12075806 C5.34375,7.02026367 6.03039551,7.734375 7.06723022,7.734375 L7.08782959,7.734375 L7.08782959,7.734375 Z" sketch:type="MSShapeGroup"></path>
        </g>
    </g>
</svg>