<?xml version="1.0" encoding="UTF-8" standalone="no"?>
<svg width="24px" height="24px" viewBox="0 0 24 24" version="1.1" xmlns="http://www.w3.org/2000/svg" xmlns:xlink="http://www.w3.org/1999/xlink">
    <!-- Generator: Sketch 3.6.1 (26313) - http://www.bohemiancoding.com/sketch -->
    <title>new-window</title>
    <desc>Created with Sketch.</desc>
    <defs></defs>
    <g id="Page-1" stroke="none" stroke-width="1" fill="none" fill-rule="evenodd">
        <g id="new-window" fill="#000000">
            <path d="M11.312802,11.4448625 C10.9696953,11.7879693 10.9691983,12.3456514 11.3128597,12.6893128 C11.6558219,13.0322749 12.2136805,13.033 12.5573099,12.6893705 L18.4,6.84668047 L18.4,9.8006322 C18.4,10.2411759 18.7581722,10.6 19.2,10.6 C19.6409287,10.6 20,10.2421109 20,9.8006322 L20,4.79936778 C20,4.57920098 19.9105423,4.37944461 19.7658925,4.23468719 C19.6210225,4.08968204 19.4212661,4 19.2006322,4 L14.1993678,4 C13.7588241,4 13.4,4.3581722 13.4,4.8 C13.4,5.24092876 13.7578891,5.6 14.1993678,5.6 L17.1576645,5.6 L11.312802,11.4448625 L11.312802,11.4448625 Z M20,9.79703013 L20,18.0059397 C20,19.1072288 19.2065575,20 18.2265873,20 L5.77341273,20 C4.79398392,20 4,19.1054863 4,18.0059397 L4,5.99406027 C4,4.8927712 4.79344248,4 5.77341273,4 L14.3132937,4 L9.6,4 C10.0418278,4 10.4,4.3581722 10.4,4.8 C10.4,5.2418278 10.0418278,5.6 9.6,5.6 L6.0555588,5.6 C5.80105747,5.6 5.6,5.83894733 5.6,6.1337038 L5.6,17.8662962 C5.6,18.1557327 5.8039606,18.4 6.0555588,18.4 L17.9444412,18.4 C18.1989425,18.4 18.4,18.1610527 18.4,17.8662962 L18.4,14.4 C18.4,13.9581722 18.7581722,13.6 19.2,13.6 C19.6418278,13.6 20,13.9581722 20,14.4 L20,9.79703013 L20,9.79703013 Z" id="Shape"></path>
        </g>
    </g>
</svg>