<?xml version="1.0" encoding="UTF-8" standalone="no"?>
<svg width="24px" height="24px" viewBox="0 0 24 24" version="1.1" xmlns="http://www.w3.org/2000/svg" xmlns:xlink="http://www.w3.org/1999/xlink">
    <!-- Generator: Sketch 3.6.1 (26313) - http://www.bohemiancoding.com/sketch -->
    <title>search</title>
    <desc>Created with Sketch.</desc>
    <defs></defs>
    <g id="Page-1" stroke="none" stroke-width="1" fill="none" fill-rule="evenodd">
        <g id="search" fill="#20221D">
            <path d="M19.9317866,21.375 C19.5499574,21.375 19.1782206,21.2168857 18.9175002,20.9460729 L15.0537925,17.0924576 C13.735052,18.00582 12.1572733,18.4902552 10.5576276,18.4902552 C6.17416121,18.4902552 2.625,14.941094 2.625,10.5576276 C2.625,6.17416121 6.17416121,2.625 10.5576276,2.625 C14.941094,2.625 18.4902552,6.17416121 18.4902552,10.5576276 C18.4902552,12.1572733 18.00582,13.735052 17.0924576,15.0537925 L20.9578474,18.9175002 C21.2168857,19.1765385 21.375,19.5499574 21.375,19.9317866 C21.375,20.720676 20.720676,21.375 19.9317866,21.375 M10.5576276,5.50974477 C7.77380685,5.50974477 5.50974477,7.77380685 5.50974477,10.5576276 C5.50974477,13.3414484 7.77380685,15.6055105 10.5576276,15.6055105 C13.3414484,15.6055105 15.6055105,13.3414484 15.6055105,10.5576276 C15.6055105,7.77380685 13.3414484,5.50974477 10.5576276,5.50974477" id="Fill-1"></path>
        </g>
    </g>
</svg>