<?xml version="1.0" encoding="UTF-8" standalone="no"?>
<svg width="24px" height="24px" viewBox="0 0 24 24" version="1.1" xmlns="http://www.w3.org/2000/svg" xmlns:xlink="http://www.w3.org/1999/xlink" xmlns:sketch="http://www.bohemiancoding.com/sketch/ns">
    <!-- Generator: Sketch 3.5.1 (25234) - http://www.bohemiancoding.com/sketch -->
    <title>twitter</title>
    <desc>Created with Sketch.</desc>
    <defs></defs>
    <g id="Page-1" stroke="none" stroke-width="1" fill="none" fill-rule="evenodd" sketch:type="MSPage">
        <g id="twitter" sketch:type="MSArtboardGroup" fill="#000000">
            <path d="M20.203125,6.87161255 C19.6116943,7.13619995 18.9891357,7.31518555 18.3198853,7.39300537 C19.0046997,6.98834229 19.5183105,6.34243774 19.759552,5.57980347 C19.1369934,5.95333862 18.428833,6.22570801 17.6973267,6.37356567 C17.08255,5.75100708 16.234314,5.34634399 15.2926941,5.34634399 C13.4872742,5.34634399 12.0320435,6.80157471 12.0320435,8.60699463 C12.0320435,8.86380005 12.0476074,9.12838745 12.1020813,9.36184692 C9.39395142,9.21398926 6.99710083,7.98443604 5.3706665,6.0078125 C5.09829712,6.49029541 4.92709351,6.98834229 4.92709351,7.59533691 C4.92709351,8.71594238 5.50296021,9.71203613 6.3901062,10.3034668 C5.85314941,10.2879028 5.35510254,10.1400452 4.91152954,9.89880371 L4.91152954,9.93771362 C4.91152954,11.525238 6.03991699,12.848175 7.53405762,13.1438904 C7.25390625,13.2217102 6.95819092,13.2606201 6.66247559,13.2606201 C6.46014404,13.2606201 6.2578125,13.2372742 6.05548096,13.1983643 C6.46014404,14.4901733 7.68191528,15.4551392 9.09823608,15.4707031 C7.99319458,16.3578491 6.5690918,17.0193176 5.04382324,17.0193176 C4.77923584,17.0193176 4.52243042,17.0037537 4.265625,16.9648438 C5.70529175,17.8908997 7.44067383,18.2955627 9.28500366,18.2955627 C15.2926941,18.2955627 18.5766907,13.315094 18.5766907,8.99609375 L18.5766907,8.56808472 C19.2070312,8.10894775 19.759552,7.54086304 20.203125,6.87161255 L20.203125,6.87161255 Z" sketch:type="MSShapeGroup"></path>
        </g>
    </g>
</svg>