<?xml version="1.0" encoding="UTF-8" standalone="no"?>
<svg width="244px" height="164px" viewBox="0 0 244 164" version="1.1" xmlns="http://www.w3.org/2000/svg" xmlns:xlink="http://www.w3.org/1999/xlink">
    <!-- Generator: Sketch 3.6.1 (26313) - http://www.bohemiancoding.com/sketch -->
    <title>all-mobile</title>
    <desc>Created with Sketch.</desc>
    <defs></defs>
    <g id="Page-1-Copy" stroke="none" stroke-width="1" fill="none" fill-rule="evenodd">
        <g id="all-mobile">
            <g id="Group-2">
                <g id="Group-12-Copy" transform="translate(0.500000, 0.500000)">
                    <g id="Dot-Copy-946" transform="translate(240.000000, 160.000000)">
                        <rect id="Grid-Unit" x="0" y="0" width="20" height="20"></rect>
                        <circle id="Dot" fill="#000000" cx="1.5" cy="1.5" r="1.25"></circle>
                    </g>
                    <g id="Dot-Copy-945" transform="translate(220.000000, 160.000000)">
                        <rect id="Grid-Unit" x="0" y="0" width="20" height="20"></rect>
                        <circle id="Dot" fill="#000000" cx="1.5" cy="1.5" r="1.25"></circle>
                    </g>
                    <g id="Dot-Copy-944" transform="translate(200.000000, 160.000000)">
                        <rect id="Grid-Unit" x="0" y="0" width="20" height="20"></rect>
                        <circle id="Dot" fill="#000000" cx="1.5" cy="1.5" r="1.25"></circle>
                    </g>
                    <g id="Dot-Copy-943" transform="translate(180.000000, 160.000000)">
                        <rect id="Grid-Unit" x="0" y="0" width="20" height="20"></rect>
                        <circle id="Dot" fill="#000000" cx="1.5" cy="1.5" r="1.25"></circle>
                    </g>
                    <g id="Dot-Copy-942" transform="translate(160.000000, 160.000000)">
                        <rect id="Grid-Unit" x="0" y="0" width="20" height="20"></rect>
                        <circle id="Dot" fill="#000000" cx="1.5" cy="1.5" r="1.25"></circle>
                    </g>
                    <g id="Dot-Copy-941" transform="translate(140.000000, 160.000000)">
                        <rect id="Grid-Unit" x="0" y="0" width="20" height="20"></rect>
                        <circle id="Dot" fill="#000000" cx="1.5" cy="1.5" r="1.25"></circle>
                    </g>
                    <g id="Dot-Copy-940" transform="translate(120.000000, 160.000000)">
                        <rect id="Grid-Unit" x="0" y="0" width="20" height="20"></rect>
                        <circle id="Dot" fill="#000000" cx="1.5" cy="1.5" r="1.25"></circle>
                    </g>
                    <g id="Dot-Copy-939" transform="translate(100.000000, 160.000000)">
                        <rect id="Grid-Unit" x="0" y="0" width="20" height="20"></rect>
                        <circle id="Dot" fill="#000000" cx="1.5" cy="1.5" r="1.25"></circle>
                    </g>
                    <g id="Dot-Copy-938" transform="translate(80.000000, 160.000000)">
                        <rect id="Grid-Unit" x="0" y="0" width="20" height="20"></rect>
                        <circle id="Dot" fill="#000000" cx="1.5" cy="1.5" r="1.25"></circle>
                    </g>
                    <g id="Dot-Copy-937" transform="translate(60.000000, 160.000000)">
                        <rect id="Grid-Unit" x="0" y="0" width="20" height="20"></rect>
                        <circle id="Dot" fill="#000000" cx="1.5" cy="1.5" r="1.25"></circle>
                    </g>
                    <g id="Dot-Copy-936" transform="translate(40.000000, 160.000000)">
                        <rect id="Grid-Unit" x="0" y="0" width="20" height="20"></rect>
                        <circle id="Dot" fill="#000000" cx="1.5" cy="1.5" r="1.25"></circle>
                    </g>
                    <g id="Dot-Copy-935" transform="translate(20.000000, 160.000000)">
                        <rect id="Grid-Unit" x="0" y="0" width="20" height="20"></rect>
                        <circle id="Dot" fill="#000000" cx="1.5" cy="1.5" r="1.25"></circle>
                    </g>
                    <g id="Dot-Copy-934" transform="translate(0.000000, 160.000000)">
                        <rect id="Grid-Unit" x="0" y="0" width="20" height="20"></rect>
                        <circle id="Dot" fill="#000000" cx="1.5" cy="1.5" r="1.25"></circle>
                    </g>
                    <g id="Dot-Copy-932" transform="translate(240.000000, 140.000000)">
                        <rect id="Grid-Unit" x="0" y="0" width="20" height="20"></rect>
                        <circle id="Dot" fill="#000000" cx="1.5" cy="1.5" r="1.25"></circle>
                    </g>
                    <g id="Dot-Copy-931" transform="translate(220.000000, 140.000000)">
                        <rect id="Grid-Unit" x="0" y="0" width="20" height="20"></rect>
                        <circle id="Dot" fill="#000000" cx="1.5" cy="1.5" r="1.25"></circle>
                    </g>
                    <g id="Dot-Copy-930" transform="translate(200.000000, 140.000000)">
                        <rect id="Grid-Unit" x="0" y="0" width="20" height="20"></rect>
                        <circle id="Dot" fill="#000000" cx="1.5" cy="1.5" r="1.25"></circle>
                    </g>
                    <g id="Dot-Copy-929" transform="translate(180.000000, 140.000000)">
                        <rect id="Grid-Unit" x="0" y="0" width="20" height="20"></rect>
                        <circle id="Dot" fill="#000000" cx="1.5" cy="1.5" r="1.25"></circle>
                    </g>
                    <g id="Dot-Copy-928" transform="translate(160.000000, 140.000000)">
                        <rect id="Grid-Unit" x="0" y="0" width="20" height="20"></rect>
                        <circle id="Dot" fill="#000000" cx="1.5" cy="1.5" r="1.25"></circle>
                    </g>
                    <g id="Dot-Copy-927" transform="translate(140.000000, 140.000000)">
                        <rect id="Grid-Unit" x="0" y="0" width="20" height="20"></rect>
                        <circle id="Dot" fill="#000000" cx="1.5" cy="1.5" r="1.25"></circle>
                    </g>
                    <g id="Dot-Copy-926" transform="translate(120.000000, 140.000000)">
                        <rect id="Grid-Unit" x="0" y="0" width="20" height="20"></rect>
                        <circle id="Dot" fill="#000000" cx="1.5" cy="1.5" r="1.25"></circle>
                    </g>
                    <g id="Dot-Copy-925" transform="translate(100.000000, 140.000000)">
                        <rect id="Grid-Unit" x="0" y="0" width="20" height="20"></rect>
                        <circle id="Dot" fill="#000000" cx="1.5" cy="1.5" r="1.25"></circle>
                    </g>
                    <g id="Dot-Copy-924" transform="translate(80.000000, 140.000000)">
                        <rect id="Grid-Unit" x="0" y="0" width="20" height="20"></rect>
                        <circle id="Dot" fill="#000000" cx="1.5" cy="1.5" r="1.25"></circle>
                    </g>
                    <g id="Dot-Copy-923" transform="translate(60.000000, 140.000000)">
                        <rect id="Grid-Unit" x="0" y="0" width="20" height="20"></rect>
                        <circle id="Dot" fill="#000000" cx="1.5" cy="1.5" r="1.25"></circle>
                    </g>
                    <g id="Dot-Copy-922" transform="translate(40.000000, 140.000000)">
                        <rect id="Grid-Unit" x="0" y="0" width="20" height="20"></rect>
                        <circle id="Dot" fill="#000000" cx="1.5" cy="1.5" r="1.25"></circle>
                    </g>
                    <g id="Dot-Copy-921" transform="translate(20.000000, 140.000000)">
                        <rect id="Grid-Unit" x="0" y="0" width="20" height="20"></rect>
                        <circle id="Dot" fill="#000000" cx="1.5" cy="1.5" r="1.25"></circle>
                    </g>
                    <g id="Dot-Copy-920" transform="translate(0.000000, 140.000000)">
                        <rect id="Grid-Unit" x="0" y="0" width="20" height="20"></rect>
                        <circle id="Dot" fill="#000000" cx="1.5" cy="1.5" r="1.25"></circle>
                    </g>
                    <g id="Dot-Copy-918" transform="translate(240.000000, 120.000000)">
                        <rect id="Grid-Unit" x="0" y="0" width="20" height="20"></rect>
                        <circle id="Dot" fill="#000000" cx="1.5" cy="1.5" r="1.25"></circle>
                    </g>
                    <g id="Dot-Copy-917" transform="translate(220.000000, 120.000000)">
                        <rect id="Grid-Unit" x="0" y="0" width="20" height="20"></rect>
                        <circle id="Dot" fill="#000000" cx="1.5" cy="1.5" r="1.25"></circle>
                    </g>
                    <g id="Dot-Copy-916" transform="translate(200.000000, 120.000000)">
                        <rect id="Grid-Unit" x="0" y="0" width="20" height="20"></rect>
                        <circle id="Dot" fill="#000000" cx="1.5" cy="1.5" r="1.25"></circle>
                    </g>
                    <g id="Dot-Copy-915" transform="translate(180.000000, 120.000000)">
                        <rect id="Grid-Unit" x="0" y="0" width="20" height="20"></rect>
                        <circle id="Dot" fill="#000000" cx="1.5" cy="1.5" r="1.25"></circle>
                    </g>
                    <g id="Dot-Copy-914" transform="translate(160.000000, 120.000000)">
                        <rect id="Grid-Unit" x="0" y="0" width="20" height="20"></rect>
                        <circle id="Dot" fill="#000000" cx="1.5" cy="1.5" r="1.25"></circle>
                    </g>
                    <g id="Dot-Copy-913" transform="translate(140.000000, 120.000000)">
                        <rect id="Grid-Unit" x="0" y="0" width="20" height="20"></rect>
                        <circle id="Dot" fill="#000000" cx="1.5" cy="1.5" r="1.25"></circle>
                    </g>
                    <g id="Dot-Copy-912" transform="translate(120.000000, 120.000000)">
                        <rect id="Grid-Unit" x="0" y="0" width="20" height="20"></rect>
                        <circle id="Dot" fill="#000000" cx="1.5" cy="1.5" r="1.25"></circle>
                    </g>
                    <g id="Dot-Copy-911" transform="translate(100.000000, 120.000000)">
                        <rect id="Grid-Unit" x="0" y="0" width="20" height="20"></rect>
                        <circle id="Dot" fill="#000000" cx="1.5" cy="1.5" r="1.25"></circle>
                    </g>
                    <g id="Dot-Copy-910" transform="translate(80.000000, 120.000000)">
                        <rect id="Grid-Unit" x="0" y="0" width="20" height="20"></rect>
                        <circle id="Dot" fill="#000000" cx="1.5" cy="1.5" r="1.25"></circle>
                    </g>
                    <g id="Dot-Copy-909" transform="translate(60.000000, 120.000000)">
                        <rect id="Grid-Unit" x="0" y="0" width="20" height="20"></rect>
                        <circle id="Dot" fill="#000000" cx="1.5" cy="1.5" r="1.25"></circle>
                    </g>
                    <g id="Dot-Copy-908" transform="translate(40.000000, 120.000000)">
                        <rect id="Grid-Unit" x="0" y="0" width="20" height="20"></rect>
                        <circle id="Dot" fill="#000000" cx="1.5" cy="1.5" r="1.25"></circle>
                    </g>
                    <g id="Dot-Copy-907" transform="translate(20.000000, 120.000000)">
                        <rect id="Grid-Unit" x="0" y="0" width="20" height="20"></rect>
                        <circle id="Dot" fill="#000000" cx="1.5" cy="1.5" r="1.25"></circle>
                    </g>
                    <g id="Dot-Copy-906" transform="translate(0.000000, 120.000000)">
                        <rect id="Grid-Unit" x="0" y="0" width="20" height="20"></rect>
                        <circle id="Dot" fill="#000000" cx="1.5" cy="1.5" r="1.25"></circle>
                    </g>
                    <g id="Dot-Copy-904" transform="translate(240.000000, 100.000000)">
                        <rect id="Grid-Unit" x="0" y="0" width="20" height="20"></rect>
                        <circle id="Dot" fill="#000000" cx="1.5" cy="1.5" r="1.25"></circle>
                    </g>
                    <g id="Dot-Copy-903" transform="translate(220.000000, 100.000000)">
                        <rect id="Grid-Unit" x="0" y="0" width="20" height="20"></rect>
                        <circle id="Dot" fill="#000000" cx="1.5" cy="1.5" r="1.25"></circle>
                    </g>
                    <g id="Dot-Copy-902" transform="translate(200.000000, 100.000000)">
                        <rect id="Grid-Unit" x="0" y="0" width="20" height="20"></rect>
                        <circle id="Dot" fill="#000000" cx="1.5" cy="1.5" r="1.25"></circle>
                    </g>
                    <g id="Dot-Copy-901" transform="translate(180.000000, 100.000000)">
                        <rect id="Grid-Unit" x="0" y="0" width="20" height="20"></rect>
                        <circle id="Dot" fill="#000000" cx="1.5" cy="1.5" r="1.25"></circle>
                    </g>
                    <g id="Dot-Copy-900" transform="translate(160.000000, 100.000000)">
                        <rect id="Grid-Unit" x="0" y="0" width="20" height="20"></rect>
                        <circle id="Dot" fill="#000000" cx="1.5" cy="1.5" r="1.25"></circle>
                    </g>
                    <g id="Dot-Copy-899" transform="translate(140.000000, 100.000000)">
                        <rect id="Grid-Unit" x="0" y="0" width="20" height="20"></rect>
                        <circle id="Dot" fill="#000000" cx="1.5" cy="1.5" r="1.25"></circle>
                    </g>
                    <g id="Dot-Copy-898" transform="translate(120.000000, 100.000000)">
                        <rect id="Grid-Unit" x="0" y="0" width="20" height="20"></rect>
                        <circle id="Dot" fill="#000000" cx="1.5" cy="1.5" r="1.25"></circle>
                    </g>
                    <g id="Dot-Copy-897" transform="translate(100.000000, 100.000000)">
                        <rect id="Grid-Unit" x="0" y="0" width="20" height="20"></rect>
                        <circle id="Dot" fill="#000000" cx="1.5" cy="1.5" r="1.25"></circle>
                    </g>
                    <g id="Dot-Copy-896" transform="translate(80.000000, 100.000000)">
                        <rect id="Grid-Unit" x="0" y="0" width="20" height="20"></rect>
                        <circle id="Dot" fill="#000000" cx="1.5" cy="1.5" r="1.25"></circle>
                    </g>
                    <g id="Dot-Copy-895" transform="translate(60.000000, 100.000000)">
                        <rect id="Grid-Unit" x="0" y="0" width="20" height="20"></rect>
                        <circle id="Dot" fill="#000000" cx="1.5" cy="1.5" r="1.25"></circle>
                    </g>
                    <g id="Dot-Copy-894" transform="translate(40.000000, 100.000000)">
                        <rect id="Grid-Unit" x="0" y="0" width="20" height="20"></rect>
                        <circle id="Dot" fill="#000000" cx="1.5" cy="1.5" r="1.25"></circle>
                    </g>
                    <g id="Dot-Copy-893" transform="translate(20.000000, 100.000000)">
                        <rect id="Grid-Unit" x="0" y="0" width="20" height="20"></rect>
                        <circle id="Dot" fill="#000000" cx="1.5" cy="1.5" r="1.25"></circle>
                    </g>
                    <g id="Dot-Copy-892" transform="translate(0.000000, 100.000000)">
                        <rect id="Grid-Unit" x="0" y="0" width="20" height="20"></rect>
                        <circle id="Dot" fill="#000000" cx="1.5" cy="1.5" r="1.25"></circle>
                    </g>
                    <g id="Dot-Copy-890" transform="translate(240.000000, 80.000000)">
                        <rect id="Grid-Unit" x="0" y="0" width="20" height="20"></rect>
                        <circle id="Dot" fill="#000000" cx="1.5" cy="1.5" r="1.25"></circle>
                    </g>
                    <g id="Dot-Copy-889" transform="translate(220.000000, 80.000000)">
                        <rect id="Grid-Unit" x="0" y="0" width="20" height="20"></rect>
                        <circle id="Dot" fill="#000000" cx="1.5" cy="1.5" r="1.25"></circle>
                    </g>
                    <g id="Dot-Copy-888" transform="translate(200.000000, 80.000000)">
                        <rect id="Grid-Unit" x="0" y="0" width="20" height="20"></rect>
                        <circle id="Dot" fill="#000000" cx="1.5" cy="1.5" r="1.25"></circle>
                    </g>
                    <g id="Dot-Copy-887" transform="translate(180.000000, 80.000000)">
                        <rect id="Grid-Unit" x="0" y="0" width="20" height="20"></rect>
                        <circle id="Dot" fill="#000000" cx="1.5" cy="1.5" r="1.25"></circle>
                    </g>
                    <g id="Dot-Copy-886" transform="translate(160.000000, 80.000000)">
                        <rect id="Grid-Unit" x="0" y="0" width="20" height="20"></rect>
                        <circle id="Dot" fill="#000000" cx="1.5" cy="1.5" r="1.25"></circle>
                    </g>
                    <g id="Dot-Copy-885" transform="translate(140.000000, 80.000000)">
                        <rect id="Grid-Unit" x="0" y="0" width="20" height="20"></rect>
                        <circle id="Dot" fill="#000000" cx="1.5" cy="1.5" r="1.25"></circle>
                    </g>
                    <g id="Dot-Copy-884" transform="translate(120.000000, 80.000000)">
                        <rect id="Grid-Unit" x="0" y="0" width="20" height="20"></rect>
                        <circle id="Dot" fill="#000000" cx="1.5" cy="1.5" r="1.25"></circle>
                    </g>
                    <g id="Dot-Copy-883" transform="translate(100.000000, 80.000000)">
                        <rect id="Grid-Unit" x="0" y="0" width="20" height="20"></rect>
                        <circle id="Dot" fill="#000000" cx="1.5" cy="1.5" r="1.25"></circle>
                    </g>
                    <g id="Dot-Copy-882" transform="translate(80.000000, 80.000000)">
                        <rect id="Grid-Unit" x="0" y="0" width="20" height="20"></rect>
                        <circle id="Dot" fill="#000000" cx="1.5" cy="1.5" r="1.25"></circle>
                    </g>
                    <g id="Dot-Copy-881" transform="translate(60.000000, 80.000000)">
                        <rect id="Grid-Unit" x="0" y="0" width="20" height="20"></rect>
                        <circle id="Dot" fill="#000000" cx="1.5" cy="1.5" r="1.25"></circle>
                    </g>
                    <g id="Dot-Copy-880" transform="translate(40.000000, 80.000000)">
                        <rect id="Grid-Unit" x="0" y="0" width="20" height="20"></rect>
                        <circle id="Dot" fill="#000000" cx="1.5" cy="1.5" r="1.25"></circle>
                    </g>
                    <g id="Dot-Copy-879" transform="translate(20.000000, 80.000000)">
                        <rect id="Grid-Unit" x="0" y="0" width="20" height="20"></rect>
                        <circle id="Dot" fill="#000000" cx="1.5" cy="1.5" r="1.25"></circle>
                    </g>
                    <g id="Dot-Copy-878" transform="translate(0.000000, 80.000000)">
                        <rect id="Grid-Unit" x="0" y="0" width="20" height="20"></rect>
                        <circle id="Dot" fill="#000000" cx="1.5" cy="1.5" r="1.25"></circle>
                    </g>
                    <g id="Dot-Copy-876" transform="translate(240.000000, 60.000000)">
                        <rect id="Grid-Unit" x="0" y="0" width="20" height="20"></rect>
                        <circle id="Dot" fill="#000000" cx="1.5" cy="1.5" r="1.25"></circle>
                    </g>
                    <g id="Dot-Copy-875" transform="translate(220.000000, 60.000000)">
                        <rect id="Grid-Unit" x="0" y="0" width="20" height="20"></rect>
                        <circle id="Dot" fill="#000000" cx="1.5" cy="1.5" r="1.25"></circle>
                    </g>
                    <g id="Dot-Copy-874" transform="translate(200.000000, 60.000000)">
                        <rect id="Grid-Unit" x="0" y="0" width="20" height="20"></rect>
                        <circle id="Dot" fill="#000000" cx="1.5" cy="1.5" r="1.25"></circle>
                    </g>
                    <g id="Dot-Copy-873" transform="translate(180.000000, 60.000000)">
                        <rect id="Grid-Unit" x="0" y="0" width="20" height="20"></rect>
                        <circle id="Dot" fill="#000000" cx="1.5" cy="1.5" r="1.25"></circle>
                    </g>
                    <g id="Dot-Copy-872" transform="translate(160.000000, 60.000000)">
                        <rect id="Grid-Unit" x="0" y="0" width="20" height="20"></rect>
                        <circle id="Dot" fill="#000000" cx="1.5" cy="1.5" r="1.25"></circle>
                    </g>
                    <g id="Dot-Copy-871" transform="translate(140.000000, 60.000000)">
                        <rect id="Grid-Unit" x="0" y="0" width="20" height="20"></rect>
                        <circle id="Dot" fill="#000000" cx="1.5" cy="1.5" r="1.25"></circle>
                    </g>
                    <g id="Dot-Copy-870" transform="translate(120.000000, 60.000000)">
                        <rect id="Grid-Unit" x="0" y="0" width="20" height="20"></rect>
                        <circle id="Dot" fill="#000000" cx="1.5" cy="1.5" r="1.25"></circle>
                    </g>
                    <g id="Dot-Copy-869" transform="translate(100.000000, 60.000000)">
                        <rect id="Grid-Unit" x="0" y="0" width="20" height="20"></rect>
                        <circle id="Dot" fill="#000000" cx="1.5" cy="1.5" r="1.25"></circle>
                    </g>
                    <g id="Dot-Copy-868" transform="translate(80.000000, 60.000000)">
                        <rect id="Grid-Unit" x="0" y="0" width="20" height="20"></rect>
                        <circle id="Dot" fill="#000000" cx="1.5" cy="1.5" r="1.25"></circle>
                    </g>
                    <g id="Dot-Copy-867" transform="translate(60.000000, 60.000000)">
                        <rect id="Grid-Unit" x="0" y="0" width="20" height="20"></rect>
                        <circle id="Dot" fill="#000000" cx="1.5" cy="1.5" r="1.25"></circle>
                    </g>
                    <g id="Dot-Copy-866" transform="translate(40.000000, 60.000000)">
                        <rect id="Grid-Unit" x="0" y="0" width="20" height="20"></rect>
                        <circle id="Dot" fill="#000000" cx="1.5" cy="1.5" r="1.25"></circle>
                    </g>
                    <g id="Dot-Copy-865" transform="translate(20.000000, 60.000000)">
                        <rect id="Grid-Unit" x="0" y="0" width="20" height="20"></rect>
                        <circle id="Dot" fill="#000000" cx="1.5" cy="1.5" r="1.25"></circle>
                    </g>
                    <g id="Dot-Copy-864" transform="translate(0.000000, 60.000000)">
                        <rect id="Grid-Unit" x="0" y="0" width="20" height="20"></rect>
                        <circle id="Dot" fill="#000000" cx="1.5" cy="1.5" r="1.25"></circle>
                    </g>
                    <g id="Dot-Copy-862" transform="translate(240.000000, 40.000000)">
                        <rect id="Grid-Unit" x="0" y="0" width="20" height="20"></rect>
                        <circle id="Dot" fill="#000000" cx="1.5" cy="1.5" r="1.25"></circle>
                    </g>
                    <g id="Dot-Copy-861" transform="translate(220.000000, 40.000000)">
                        <rect id="Grid-Unit" x="0" y="0" width="20" height="20"></rect>
                        <circle id="Dot" fill="#000000" cx="1.5" cy="1.5" r="1.25"></circle>
                    </g>
                    <g id="Dot-Copy-860" transform="translate(200.000000, 40.000000)">
                        <rect id="Grid-Unit" x="0" y="0" width="20" height="20"></rect>
                        <circle id="Dot" fill="#000000" cx="1.5" cy="1.5" r="1.25"></circle>
                    </g>
                    <g id="Dot-Copy-859" transform="translate(180.000000, 40.000000)">
                        <rect id="Grid-Unit" x="0" y="0" width="20" height="20"></rect>
                        <circle id="Dot" fill="#000000" cx="1.5" cy="1.5" r="1.25"></circle>
                    </g>
                    <g id="Dot-Copy-858" transform="translate(160.000000, 40.000000)">
                        <rect id="Grid-Unit" x="0" y="0" width="20" height="20"></rect>
                        <circle id="Dot" fill="#000000" cx="1.5" cy="1.5" r="1.25"></circle>
                    </g>
                    <g id="Dot-Copy-857" transform="translate(140.000000, 40.000000)">
                        <rect id="Grid-Unit" x="0" y="0" width="20" height="20"></rect>
                        <circle id="Dot" fill="#000000" cx="1.5" cy="1.5" r="1.25"></circle>
                    </g>
                    <g id="Dot-Copy-856" transform="translate(120.000000, 40.000000)">
                        <rect id="Grid-Unit" x="0" y="0" width="20" height="20"></rect>
                        <circle id="Dot" fill="#000000" cx="1.5" cy="1.5" r="1.25"></circle>
                    </g>
                    <g id="Dot-Copy-855" transform="translate(100.000000, 40.000000)">
                        <rect id="Grid-Unit" x="0" y="0" width="20" height="20"></rect>
                        <circle id="Dot" fill="#000000" cx="1.5" cy="1.5" r="1.25"></circle>
                    </g>
                    <g id="Dot-Copy-854" transform="translate(80.000000, 40.000000)">
                        <rect id="Grid-Unit" x="0" y="0" width="20" height="20"></rect>
                        <circle id="Dot" fill="#000000" cx="1.5" cy="1.5" r="1.25"></circle>
                    </g>
                    <g id="Dot-Copy-853" transform="translate(60.000000, 40.000000)">
                        <rect id="Grid-Unit" x="0" y="0" width="20" height="20"></rect>
                        <circle id="Dot" fill="#000000" cx="1.5" cy="1.5" r="1.25"></circle>
                    </g>
                    <g id="Dot-Copy-852" transform="translate(40.000000, 40.000000)">
                        <rect id="Grid-Unit" x="0" y="0" width="20" height="20"></rect>
                        <circle id="Dot" fill="#000000" cx="1.5" cy="1.5" r="1.25"></circle>
                    </g>
                    <g id="Dot-Copy-851" transform="translate(20.000000, 40.000000)">
                        <rect id="Grid-Unit" x="0" y="0" width="20" height="20"></rect>
                        <circle id="Dot" fill="#000000" cx="1.5" cy="1.5" r="1.25"></circle>
                    </g>
                    <g id="Dot-Copy-850" transform="translate(0.000000, 40.000000)">
                        <rect id="Grid-Unit" x="0" y="0" width="20" height="20"></rect>
                        <circle id="Dot" fill="#000000" cx="1.5" cy="1.5" r="1.25"></circle>
                    </g>
                    <g id="Dot-Copy-848" transform="translate(240.000000, 20.000000)">
                        <rect id="Grid-Unit" x="0" y="0" width="20" height="20"></rect>
                        <circle id="Dot" fill="#000000" cx="1.5" cy="1.5" r="1.25"></circle>
                    </g>
                    <g id="Dot-Copy-847" transform="translate(220.000000, 20.000000)">
                        <rect id="Grid-Unit" x="0" y="0" width="20" height="20"></rect>
                        <circle id="Dot" fill="#000000" cx="1.5" cy="1.5" r="1.25"></circle>
                    </g>
                    <g id="Dot-Copy-846" transform="translate(200.000000, 20.000000)">
                        <rect id="Grid-Unit" x="0" y="0" width="20" height="20"></rect>
                        <circle id="Dot" fill="#000000" cx="1.5" cy="1.5" r="1.25"></circle>
                    </g>
                    <g id="Dot-Copy-845" transform="translate(180.000000, 20.000000)">
                        <rect id="Grid-Unit" x="0" y="0" width="20" height="20"></rect>
                        <circle id="Dot" fill="#000000" cx="1.5" cy="1.5" r="1.25"></circle>
                    </g>
                    <g id="Dot-Copy-844" transform="translate(160.000000, 20.000000)">
                        <rect id="Grid-Unit" x="0" y="0" width="20" height="20"></rect>
                        <circle id="Dot" fill="#000000" cx="1.5" cy="1.5" r="1.25"></circle>
                    </g>
                    <g id="Dot-Copy-843" transform="translate(140.000000, 20.000000)">
                        <rect id="Grid-Unit" x="0" y="0" width="20" height="20"></rect>
                        <circle id="Dot" fill="#000000" cx="1.5" cy="1.5" r="1.25"></circle>
                    </g>
                    <g id="Dot-Copy-842" transform="translate(120.000000, 20.000000)">
                        <rect id="Grid-Unit" x="0" y="0" width="20" height="20"></rect>
                        <circle id="Dot" fill="#000000" cx="1.5" cy="1.5" r="1.25"></circle>
                    </g>
                    <g id="Dot-Copy-841" transform="translate(100.000000, 20.000000)">
                        <rect id="Grid-Unit" x="0" y="0" width="20" height="20"></rect>
                        <circle id="Dot" fill="#000000" cx="1.5" cy="1.5" r="1.25"></circle>
                    </g>
                    <g id="Dot-Copy-840" transform="translate(80.000000, 20.000000)">
                        <rect id="Grid-Unit" x="0" y="0" width="20" height="20"></rect>
                        <circle id="Dot" fill="#000000" cx="1.5" cy="1.5" r="1.25"></circle>
                    </g>
                    <g id="Dot-Copy-839" transform="translate(60.000000, 20.000000)">
                        <rect id="Grid-Unit" x="0" y="0" width="20" height="20"></rect>
                        <circle id="Dot" fill="#000000" cx="1.5" cy="1.5" r="1.25"></circle>
                    </g>
                    <g id="Dot-Copy-838" transform="translate(40.000000, 20.000000)">
                        <rect id="Grid-Unit" x="0" y="0" width="20" height="20"></rect>
                        <circle id="Dot" fill="#000000" cx="1.5" cy="1.5" r="1.25"></circle>
                    </g>
                    <g id="Dot-Copy-837" transform="translate(20.000000, 20.000000)">
                        <rect id="Grid-Unit" x="0" y="0" width="20" height="20"></rect>
                        <circle id="Dot" fill="#000000" cx="1.5" cy="1.5" r="1.25"></circle>
                    </g>
                    <g id="Dot-Copy-836" transform="translate(0.000000, 20.000000)">
                        <rect id="Grid-Unit" x="0" y="0" width="20" height="20"></rect>
                        <circle id="Dot" fill="#000000" cx="1.5" cy="1.5" r="1.25"></circle>
                    </g>
                    <g id="Dot-Copy-834" transform="translate(240.000000, 0.000000)">
                        <rect id="Grid-Unit" x="0" y="0" width="20" height="20"></rect>
                        <circle id="Dot" fill="#000000" cx="1.5" cy="1.5" r="1.25"></circle>
                    </g>
                    <g id="Dot-Copy-833" transform="translate(220.000000, 0.000000)">
                        <rect id="Grid-Unit" x="0" y="0" width="20" height="20"></rect>
                        <circle id="Dot" fill="#000000" cx="1.5" cy="1.5" r="1.25"></circle>
                    </g>
                    <g id="Dot-Copy-832" transform="translate(200.000000, 0.000000)">
                        <rect id="Grid-Unit" x="0" y="0" width="20" height="20"></rect>
                        <circle id="Dot" fill="#000000" cx="1.5" cy="1.5" r="1.25"></circle>
                    </g>
                    <g id="Dot-Copy-831" transform="translate(180.000000, 0.000000)">
                        <rect id="Grid-Unit" x="0" y="0" width="20" height="20"></rect>
                        <circle id="Dot" fill="#000000" cx="1.5" cy="1.5" r="1.25"></circle>
                    </g>
                    <g id="Dot-Copy-830" transform="translate(160.000000, 0.000000)">
                        <rect id="Grid-Unit" x="0" y="0" width="20" height="20"></rect>
                        <circle id="Dot" fill="#000000" cx="1.5" cy="1.5" r="1.25"></circle>
                    </g>
                    <g id="Dot-Copy-829" transform="translate(140.000000, 0.000000)">
                        <rect id="Grid-Unit" x="0" y="0" width="20" height="20"></rect>
                        <circle id="Dot" fill="#000000" cx="1.5" cy="1.5" r="1.25"></circle>
                    </g>
                    <g id="Dot-Copy-828" transform="translate(120.000000, 0.000000)">
                        <rect id="Grid-Unit" x="0" y="0" width="20" height="20"></rect>
                        <circle id="Dot" fill="#000000" cx="1.5" cy="1.5" r="1.25"></circle>
                    </g>
                    <g id="Dot-Copy-827" transform="translate(100.000000, 0.000000)">
                        <rect id="Grid-Unit" x="0" y="0" width="20" height="20"></rect>
                        <circle id="Dot" fill="#000000" cx="1.5" cy="1.5" r="1.25"></circle>
                    </g>
                    <g id="Dot-Copy-826" transform="translate(80.000000, 0.000000)">
                        <rect id="Grid-Unit" x="0" y="0" width="20" height="20"></rect>
                        <circle id="Dot" fill="#000000" cx="1.5" cy="1.5" r="1.25"></circle>
                    </g>
                    <g id="Dot-Copy-825" transform="translate(60.000000, 0.000000)">
                        <rect id="Grid-Unit" x="0" y="0" width="20" height="20"></rect>
                        <circle id="Dot" fill="#000000" cx="1.5" cy="1.5" r="1.25"></circle>
                    </g>
                    <g id="Dot-Copy-824" transform="translate(40.000000, 0.000000)">
                        <rect id="Grid-Unit" x="0" y="0" width="20" height="20"></rect>
                        <circle id="Dot" fill="#000000" cx="1.5" cy="1.5" r="1.25"></circle>
                    </g>
                    <g id="Dot-Copy-823" transform="translate(20.000000, 0.000000)">
                        <rect id="Grid-Unit" x="0" y="0" width="20" height="20"></rect>
                        <circle id="Dot" fill="#000000" cx="1.5" cy="1.5" r="1.25"></circle>
                    </g>
                    <g id="Dot-Copy-822">
                        <rect id="Grid-Unit" x="0" y="0" width="20" height="20"></rect>
                        <circle id="Dot" fill="#000000" cx="1.5" cy="1.5" r="1.25"></circle>
                    </g>
                </g>
                <g id="all-work-copy" transform="translate(2.000000, 2.000000)">
                    <path d="M160,0 L180.026281,0 L180.026281,20.0711744 L160,20.0711739 L160,0 Z" id="Rectangle-path-Copy-22" fill="#5AC2B3" style="mix-blend-mode: darken;"></path>
                    <path d="M30.360313,49.8301363 C16.6363487,36.0754068 16.6363487,13.6873897 30.360313,-0.0673397524 L80.1461834,49.8301363 C66.4222191,63.5848657 44.0842772,63.5848657 30.360313,49.8301363 Z" id="Shape-Copy-32" fill="#F47F50" style="mix-blend-mode: darken;" transform="translate(50.106762, 30.039422) scale(-1, -1) rotate(-90.000000) translate(-50.106762, -30.039422) "></path>
                    <path d="M220.052562,100 L220.052562,140.142347 L180,140.142349 L220.052562,100 Z" id="Shape-Copy-25" fill="#7ABDDF" style="mix-blend-mode: darken;" transform="translate(200.026281, 120.071174) scale(-1, 1) translate(-200.026281, -120.071174) "></path>
                    <rect id="Rectangle-843" fill="#FFFFFF" x="29.0236531" y="92.3309609" width="104.976347" height="36.1281139"></rect>
                    <path d="M45.6428804,114.694064 L47.2268804,118.822064 L49.9148804,118.822064 L43.6748804,102.286064 L40.9148804,102.286064 L34.6748804,118.822064 L37.3868804,118.822064 L38.9708804,114.694064 L45.6428804,114.694064 Z M39.8348804,112.414064 L42.3068804,105.478064 L44.7788804,112.414064 L39.8348804,112.414064 Z M51.7868804,101.518064 L51.7868804,118.822064 L54.2588804,118.822064 L54.2588804,101.518064 L51.7868804,101.518064 Z M57.7148804,101.518064 L57.7148804,118.822064 L60.1868804,118.822064 L60.1868804,101.518064 L57.7148804,101.518064 Z M86.5388804,102.286064 L82.6028804,114.598064 L79.7708804,104.542064 L77.7788804,104.542064 L74.9468804,114.598064 L71.0108804,102.286064 L68.2748804,102.286064 L73.8668804,118.822064 L76.0028804,118.822064 L78.7628804,108.910064 L81.5468804,118.822064 L83.6828804,118.822064 L89.2748804,102.286064 L86.5388804,102.286064 Z M96.3788804,119.062064 C99.5708804,119.062064 102.25888,116.734064 102.25888,113.182064 C102.25888,109.630064 99.5708804,107.374064 96.3788804,107.374064 C93.2108804,107.374064 90.5468804,109.630064 90.5468804,113.182064 C90.5468804,116.734064 93.2108804,119.062064 96.3788804,119.062064 L96.3788804,119.062064 Z M96.3788804,116.662064 C94.5308804,116.662064 92.9948804,115.294064 92.9948804,113.182064 C92.9948804,111.118064 94.5308804,109.798064 96.3788804,109.798064 C98.2508804,109.798064 99.7868804,111.118064 99.7868804,113.182064 C99.7868804,115.294064 98.2508804,116.662064 96.3788804,116.662064 L96.3788804,116.662064 Z M107.46688,114.790064 C107.46688,111.814064 108.35488,109.702064 110.46688,109.702064 C110.94688,109.702064 111.49888,109.774064 112.12288,110.086064 L112.53088,107.806064 C112.17088,107.566064 111.33088,107.374064 110.53888,107.374064 C109.14688,107.374064 108.04288,108.190064 107.46688,110.182064 L107.46688,107.614064 L104.99488,107.614064 L104.99488,118.822064 L107.46688,118.822064 L107.46688,114.790064 Z M117.01888,113.614064 L121.79488,118.822064 L124.96288,118.822064 L119.10688,112.486064 L123.88288,107.614064 L120.57088,107.614064 L117.01888,111.310064 L117.01888,101.518064 L114.57088,101.518064 L114.57088,118.822064 L117.01888,118.822064 L117.01888,113.614064 Z" id="All-Work" fill="#182226"></path>
                    <path d="M40.0525624,140 L0,140 L0,160.071174 L40.0525624,160.071174 L40.0525624,140 Z" id="Fill-6" fill="#FCD319" style="mix-blend-mode: darken;"></path>
                    <path d="M240.078844,50.1067616 C240.078844,33.4794662 226.629527,20 210.039422,20 C193.449317,20 180,33.4794662 180,50.1067616 C180,66.7340569 193.449317,80.2135231 210.039422,80.2135231 C226.629527,80.2135231 240.078844,66.7340569 240.078844,50.1067616" id="Fill-14" fill="#EF4962" style="mix-blend-mode: darken;"></path>
                </g>
            </g>
        </g>
    </g>
</svg>