<?xml version="1.0" encoding="UTF-8" standalone="no"?>
<svg width="290px" height="128px" viewBox="0 0 290 128" version="1.1" xmlns="http://www.w3.org/2000/svg" xmlns:xlink="http://www.w3.org/1999/xlink">
    <!-- Generator: Sketch 3.6.1 (26313) - http://www.bohemiancoding.com/sketch -->
    <title>all-mobile</title>
    <desc>Created with Sketch.</desc>
    <defs></defs>
    <g id="Page-1" stroke="none" stroke-width="1" fill="none" fill-rule="evenodd">
        <g id="all-mobile">
            <g id="Block" transform="translate(1.000000, 1.000000)" stroke="#000000" stroke-width="2" fill="#000000">
                <ellipse id="Oval" cx="89.9070536" cy="90.5079621" rx="0.455061009" ry="0.458102484"></ellipse>
                <ellipse id="Oval" cx="89.9070536" cy="72.5110788" rx="0.455061009" ry="0.458102484"></ellipse>
                <ellipse id="Oval" cx="89.9070536" cy="54.5141956" rx="0.455061009" ry="0.458102484"></ellipse>
                <ellipse id="Oval" cx="89.9070536" cy="36.5173123" rx="0.455061009" ry="0.458102484"></ellipse>
                <ellipse id="Oval" cx="89.9070536" cy="18.520429" rx="0.455061009" ry="0.458102484"></ellipse>
                <ellipse id="Oval" cx="89.9070536" cy="0.458102484" rx="0.455061009" ry="0.458102484"></ellipse>
                <ellipse id="Oval" cx="71.9646481" cy="90.5079621" rx="0.455061009" ry="0.458102484"></ellipse>
                <ellipse id="Oval" cx="71.9646481" cy="72.5110788" rx="0.455061009" ry="0.458102484"></ellipse>
                <ellipse id="Oval" cx="71.9646481" cy="54.5141956" rx="0.455061009" ry="0.458102484"></ellipse>
                <ellipse id="Oval" cx="71.9646481" cy="36.5173123" rx="0.455061009" ry="0.458102484"></ellipse>
                <ellipse id="Oval" cx="71.9646481" cy="18.520429" rx="0.455061009" ry="0.458102484"></ellipse>
                <ellipse id="Oval" cx="71.9646481" cy="0.458102484" rx="0.455061009" ry="0.458102484"></ellipse>
                <ellipse id="Oval" cx="54.0872513" cy="90.5079621" rx="0.455061009" ry="0.458102484"></ellipse>
                <ellipse id="Oval" cx="54.0872513" cy="72.5110788" rx="0.455061009" ry="0.458102484"></ellipse>
                <ellipse id="Oval" cx="54.0872513" cy="54.5141956" rx="0.455061009" ry="0.458102484"></ellipse>
                <ellipse id="Oval" cx="54.0872513" cy="36.5173123" rx="0.455061009" ry="0.458102484"></ellipse>
                <ellipse id="Oval" cx="54.0872513" cy="18.520429" rx="0.455061009" ry="0.458102484"></ellipse>
                <ellipse id="Oval" cx="54.0872513" cy="0.458102484" rx="0.455061009" ry="0.458102484"></ellipse>
                <ellipse id="Oval" cx="36.2098546" cy="90.5079621" rx="0.455061009" ry="0.458102484"></ellipse>
                <ellipse id="Oval" cx="36.2098546" cy="72.5110788" rx="0.455061009" ry="0.458102484"></ellipse>
                <ellipse id="Oval" cx="36.2098546" cy="54.5141956" rx="0.455061009" ry="0.458102484"></ellipse>
                <ellipse id="Oval" cx="36.2098546" cy="36.5173123" rx="0.455061009" ry="0.458102484"></ellipse>
                <ellipse id="Oval" cx="36.2098546" cy="18.520429" rx="0.455061009" ry="0.458102484"></ellipse>
                <ellipse id="Oval" cx="36.2098546" cy="0.458102484" rx="0.455061009" ry="0.458102484"></ellipse>
                <ellipse id="Oval" cx="18.3324578" cy="90.5079621" rx="0.455061009" ry="0.458102484"></ellipse>
                <ellipse id="Oval" cx="18.3324578" cy="72.5110788" rx="0.455061009" ry="0.458102484"></ellipse>
                <ellipse id="Oval" cx="18.3324578" cy="54.5141956" rx="0.455061009" ry="0.458102484"></ellipse>
                <ellipse id="Oval" cx="18.3324578" cy="36.5173123" rx="0.455061009" ry="0.458102484"></ellipse>
                <ellipse id="Oval" cx="18.3324578" cy="18.520429" rx="0.455061009" ry="0.458102484"></ellipse>
                <ellipse id="Oval" cx="18.3324578" cy="0.458102484" rx="0.455061009" ry="0.458102484"></ellipse>
                <ellipse id="Oval" cx="0.455061009" cy="90.5079621" rx="0.455061009" ry="0.458102484"></ellipse>
                <ellipse id="Oval" cx="0.455061009" cy="72.5110788" rx="0.455061009" ry="0.458102484"></ellipse>
                <ellipse id="Oval" cx="0.455061009" cy="54.5141956" rx="0.455061009" ry="0.458102484"></ellipse>
                <ellipse id="Oval" cx="0.455061009" cy="36.5173123" rx="0.455061009" ry="0.458102484"></ellipse>
                <ellipse id="Oval" cx="0.455061009" cy="18.520429" rx="0.455061009" ry="0.458102484"></ellipse>
                <ellipse id="Oval" cx="0.455061009" cy="0.458102484" rx="0.455061009" ry="0.458102484"></ellipse>
                <ellipse id="Oval" cx="198.373319" cy="90.5079621" rx="0.455061009" ry="0.458102484"></ellipse>
                <ellipse id="Oval" cx="198.373319" cy="72.5110788" rx="0.455061009" ry="0.458102484"></ellipse>
                <ellipse id="Oval" cx="198.373319" cy="54.5141956" rx="0.455061009" ry="0.458102484"></ellipse>
                <ellipse id="Oval" cx="198.373319" cy="36.5173123" rx="0.455061009" ry="0.458102484"></ellipse>
                <ellipse id="Oval" cx="198.373319" cy="18.520429" rx="0.455061009" ry="0.458102484"></ellipse>
                <ellipse id="Oval" cx="198.373319" cy="0.458102484" rx="0.455061009" ry="0.458102484"></ellipse>
                <ellipse id="Oval" cx="215.769293" cy="90.5079621" rx="0.455061009" ry="0.458102484"></ellipse>
                <ellipse id="Oval" cx="215.769293" cy="72.5110788" rx="0.455061009" ry="0.458102484"></ellipse>
                <ellipse id="Oval" cx="215.769293" cy="54.5141956" rx="0.455061009" ry="0.458102484"></ellipse>
                <ellipse id="Oval" cx="215.769293" cy="36.5173123" rx="0.455061009" ry="0.458102484"></ellipse>
                <ellipse id="Oval" cx="215.769293" cy="18.520429" rx="0.455061009" ry="0.458102484"></ellipse>
                <ellipse id="Oval" cx="215.769293" cy="0.458102484" rx="0.455061009" ry="0.458102484"></ellipse>
                <ellipse id="Oval" cx="233.165266" cy="90.5079621" rx="0.455061009" ry="0.458102484"></ellipse>
                <ellipse id="Oval" cx="233.165266" cy="72.5110788" rx="0.455061009" ry="0.458102484"></ellipse>
                <ellipse id="Oval" cx="233.165266" cy="54.5141956" rx="0.455061009" ry="0.458102484"></ellipse>
                <ellipse id="Oval" cx="233.165266" cy="36.5173123" rx="0.455061009" ry="0.458102484"></ellipse>
                <ellipse id="Oval" cx="233.165266" cy="18.520429" rx="0.455061009" ry="0.458102484"></ellipse>
                <ellipse id="Oval" cx="233.165266" cy="0.458102484" rx="0.455061009" ry="0.458102484"></ellipse>
                <ellipse id="Oval" cx="250.561239" cy="90.5079621" rx="0.455061009" ry="0.458102484"></ellipse>
                <ellipse id="Oval" cx="250.561239" cy="72.5110788" rx="0.455061009" ry="0.458102484"></ellipse>
                <ellipse id="Oval" cx="250.561239" cy="54.5141956" rx="0.455061009" ry="0.458102484"></ellipse>
                <ellipse id="Oval" cx="250.561239" cy="36.5173123" rx="0.455061009" ry="0.458102484"></ellipse>
                <ellipse id="Oval" cx="250.561239" cy="18.520429" rx="0.455061009" ry="0.458102484"></ellipse>
                <ellipse id="Oval" cx="250.561239" cy="0.458102484" rx="0.455061009" ry="0.458102484"></ellipse>
                <ellipse id="Oval" cx="267.957212" cy="90.5079621" rx="0.455061009" ry="0.458102484"></ellipse>
                <ellipse id="Oval" cx="267.957212" cy="72.5110788" rx="0.455061009" ry="0.458102484"></ellipse>
                <ellipse id="Oval" cx="267.957212" cy="54.5141956" rx="0.455061009" ry="0.458102484"></ellipse>
                <ellipse id="Oval" cx="267.957212" cy="36.5173123" rx="0.455061009" ry="0.458102484"></ellipse>
                <ellipse id="Oval" cx="267.957212" cy="18.520429" rx="0.455061009" ry="0.458102484"></ellipse>
                <ellipse id="Oval" cx="267.957212" cy="0.458102484" rx="0.455061009" ry="0.458102484"></ellipse>
                <ellipse id="Oval" cx="287.286071" cy="90.5079621" rx="0.455061009" ry="0.458102484"></ellipse>
                <ellipse id="Oval" cx="287.286071" cy="72.5110788" rx="0.455061009" ry="0.458102484"></ellipse>
                <ellipse id="Oval" cx="287.286071" cy="54.5141956" rx="0.455061009" ry="0.458102484"></ellipse>
                <ellipse id="Oval" cx="287.286071" cy="36.5173123" rx="0.455061009" ry="0.458102484"></ellipse>
                <ellipse id="Oval" cx="287.286071" cy="18.520429" rx="0.455061009" ry="0.458102484"></ellipse>
                <ellipse id="Oval" cx="287.286071" cy="0.458102484" rx="0.455061009" ry="0.458102484"></ellipse>
                <ellipse id="Oval" cx="180.430914" cy="90.5079621" rx="0.455061009" ry="0.458102484"></ellipse>
                <ellipse id="Oval" cx="180.430914" cy="72.5110788" rx="0.455061009" ry="0.458102484"></ellipse>
                <ellipse id="Oval" cx="180.430914" cy="54.5141956" rx="0.455061009" ry="0.458102484"></ellipse>
                <ellipse id="Oval" cx="180.430914" cy="36.5173123" rx="0.455061009" ry="0.458102484"></ellipse>
                <ellipse id="Oval" cx="180.430914" cy="18.520429" rx="0.455061009" ry="0.458102484"></ellipse>
                <ellipse id="Oval" cx="180.430914" cy="0.458102484" rx="0.455061009" ry="0.458102484"></ellipse>
                <ellipse id="Oval" cx="162.553517" cy="90.5079621" rx="0.455061009" ry="0.458102484"></ellipse>
                <ellipse id="Oval" cx="162.553517" cy="72.5110788" rx="0.455061009" ry="0.458102484"></ellipse>
                <ellipse id="Oval" cx="162.553517" cy="54.5141956" rx="0.455061009" ry="0.458102484"></ellipse>
                <ellipse id="Oval" cx="162.553517" cy="36.5173123" rx="0.455061009" ry="0.458102484"></ellipse>
                <ellipse id="Oval" cx="162.553517" cy="18.520429" rx="0.455061009" ry="0.458102484"></ellipse>
                <ellipse id="Oval" cx="162.553517" cy="0.458102484" rx="0.455061009" ry="0.458102484"></ellipse>
                <ellipse id="Oval" cx="144.67612" cy="90.5079621" rx="0.455061009" ry="0.458102484"></ellipse>
                <ellipse id="Oval" cx="144.67612" cy="72.5110788" rx="0.455061009" ry="0.458102484"></ellipse>
                <ellipse id="Oval" cx="144.67612" cy="54.5141956" rx="0.455061009" ry="0.458102484"></ellipse>
                <ellipse id="Oval" cx="144.67612" cy="36.5173123" rx="0.455061009" ry="0.458102484"></ellipse>
                <ellipse id="Oval" cx="144.67612" cy="18.520429" rx="0.455061009" ry="0.458102484"></ellipse>
                <ellipse id="Oval" cx="144.67612" cy="0.458102484" rx="0.455061009" ry="0.458102484"></ellipse>
                <ellipse id="Oval" cx="126.798724" cy="90.5079621" rx="0.455061009" ry="0.458102484"></ellipse>
                <ellipse id="Oval" cx="126.798724" cy="72.5110788" rx="0.455061009" ry="0.458102484"></ellipse>
                <ellipse id="Oval" cx="126.798724" cy="54.5141956" rx="0.455061009" ry="0.458102484"></ellipse>
                <ellipse id="Oval" cx="126.798724" cy="36.5173123" rx="0.455061009" ry="0.458102484"></ellipse>
                <ellipse id="Oval" cx="126.798724" cy="18.520429" rx="0.455061009" ry="0.458102484"></ellipse>
                <ellipse id="Oval" cx="126.798724" cy="0.458102484" rx="0.455061009" ry="0.458102484"></ellipse>
                <ellipse id="Oval" cx="108.921327" cy="90.5079621" rx="0.455061009" ry="0.458102484"></ellipse>
                <ellipse id="Oval" cx="89.9070536" cy="108.021476" rx="0.455061009" ry="0.458102484"></ellipse>
                <ellipse id="Oval" cx="71.9646481" cy="108.021476" rx="0.455061009" ry="0.458102484"></ellipse>
                <ellipse id="Oval" cx="54.0872513" cy="108.021476" rx="0.455061009" ry="0.458102484"></ellipse>
                <ellipse id="Oval" cx="36.2098546" cy="108.021476" rx="0.455061009" ry="0.458102484"></ellipse>
                <ellipse id="Oval" cx="18.3324578" cy="108.021476" rx="0.455061009" ry="0.458102484"></ellipse>
                <ellipse id="Oval" cx="0.455061009" cy="108.021476" rx="0.455061009" ry="0.458102484"></ellipse>
                <ellipse id="Oval" cx="198.373319" cy="108.021476" rx="0.455061009" ry="0.458102484"></ellipse>
                <ellipse id="Oval" cx="215.769293" cy="108.021476" rx="0.455061009" ry="0.458102484"></ellipse>
                <ellipse id="Oval" cx="233.165266" cy="108.021476" rx="0.455061009" ry="0.458102484"></ellipse>
                <ellipse id="Oval" cx="250.561239" cy="108.021476" rx="0.455061009" ry="0.458102484"></ellipse>
                <ellipse id="Oval" cx="267.957212" cy="108.021476" rx="0.455061009" ry="0.458102484"></ellipse>
                <ellipse id="Oval" cx="287.286071" cy="108.021476" rx="0.455061009" ry="0.458102484"></ellipse>
                <ellipse id="Oval" cx="180.430914" cy="108.021476" rx="0.455061009" ry="0.458102484"></ellipse>
                <ellipse id="Oval" cx="162.553517" cy="108.021476" rx="0.455061009" ry="0.458102484"></ellipse>
                <ellipse id="Oval" cx="144.67612" cy="108.021476" rx="0.455061009" ry="0.458102484"></ellipse>
                <ellipse id="Oval" cx="126.798724" cy="108.021476" rx="0.455061009" ry="0.458102484"></ellipse>
                <ellipse id="Oval" cx="108.921327" cy="108.021476" rx="0.455061009" ry="0.458102484"></ellipse>
                <ellipse id="Oval" cx="89.9070536" cy="125.534989" rx="0.455061009" ry="0.458102484"></ellipse>
                <ellipse id="Oval" cx="71.9646481" cy="125.534989" rx="0.455061009" ry="0.458102484"></ellipse>
                <ellipse id="Oval" cx="54.0872513" cy="125.534989" rx="0.455061009" ry="0.458102484"></ellipse>
                <ellipse id="Oval" cx="36.2098546" cy="125.534989" rx="0.455061009" ry="0.458102484"></ellipse>
                <ellipse id="Oval" cx="18.3324578" cy="125.534989" rx="0.455061009" ry="0.458102484"></ellipse>
                <ellipse id="Oval" cx="0.455061009" cy="125.534989" rx="0.455061009" ry="0.458102484"></ellipse>
                <ellipse id="Oval" cx="198.373319" cy="125.534989" rx="0.455061009" ry="0.458102484"></ellipse>
                <ellipse id="Oval" cx="215.769293" cy="125.534989" rx="0.455061009" ry="0.458102484"></ellipse>
                <ellipse id="Oval" cx="233.165266" cy="125.534989" rx="0.455061009" ry="0.458102484"></ellipse>
                <ellipse id="Oval" cx="250.561239" cy="125.534989" rx="0.455061009" ry="0.458102484"></ellipse>
                <ellipse id="Oval" cx="267.957212" cy="125.534989" rx="0.455061009" ry="0.458102484"></ellipse>
                <ellipse id="Oval" cx="287.286071" cy="125.534989" rx="0.455061009" ry="0.458102484"></ellipse>
                <ellipse id="Oval" cx="180.430914" cy="125.534989" rx="0.455061009" ry="0.458102484"></ellipse>
                <ellipse id="Oval" cx="162.553517" cy="125.534989" rx="0.455061009" ry="0.458102484"></ellipse>
                <ellipse id="Oval" cx="144.67612" cy="125.534989" rx="0.455061009" ry="0.458102484"></ellipse>
                <ellipse id="Oval" cx="126.798724" cy="125.534989" rx="0.455061009" ry="0.458102484"></ellipse>
                <ellipse id="Oval" cx="108.921327" cy="125.534989" rx="0.455061009" ry="0.458102484"></ellipse>
                <ellipse id="Oval" cx="108.921327" cy="72.5110788" rx="0.455061009" ry="0.458102484"></ellipse>
                <ellipse id="Oval" cx="108.921327" cy="54.5141956" rx="0.455061009" ry="0.458102484"></ellipse>
                <ellipse id="Oval" cx="108.921327" cy="36.5173123" rx="0.455061009" ry="0.458102484"></ellipse>
                <ellipse id="Oval" cx="108.921327" cy="18.520429" rx="0.455061009" ry="0.458102484"></ellipse>
                <ellipse id="Oval" cx="108.921327" cy="0.458102484" rx="0.455061009" ry="0.458102484"></ellipse>
            </g>
            <g id="Group-4" transform="translate(19.000000, 1.000000)">
                <path d="M144.506699,0.5 L162.265531,0.5 L162.265531,18.5 L144.506699,18.4999996 L144.506699,0.5 Z" id="Rectangle-path-Copy-22" fill="#5AC2B3" style="mix-blend-mode: darken;"></path>
                <path d="M6.487968,30.347777 C-1.83287652,21.9139339 -1.83287652,8.18650846 6.487968,-0.247334612 L36.6731593,30.347777 C28.3523148,38.78162 14.8088125,38.78162 6.487968,30.347777 Z" id="Shape-Copy-32" fill="#F47F50" style="mix-blend-mode: darken;" transform="translate(18.460247, 18.212912) scale(-1, -1) rotate(-90.000000) translate(-18.460247, -18.212912) "></path>
                <path d="M108.681073,35.9828897 L108.681073,53.8209822 L91.0819785,53.820983 L108.681073,35.9828897 Z" id="Shape-Copy-25" fill="#7ABDDF" style="mix-blend-mode: darken;" transform="translate(99.881526, 44.901936) scale(-1, 1) translate(-99.881526, -44.901936) "></path>
                <path d="M269.619332,18 L232,18 L232,36.8039387 L269.619332,36.8039387 L269.619332,18 Z" id="Fill-6" fill="#FCD319" style="mix-blend-mode: darken;"></path>
                <path d="M250,90.2487667 C250,80.452655 242.164861,72.5111136 232.5,72.5111136 C222.835139,72.5111136 215,80.452655 215,90.2487667 C215,100.044878 222.835139,107.98642 232.5,107.98642 C242.164861,107.98642 250,100.044878 250,90.2487667" id="Fill-14" fill="#EF4962" style="mix-blend-mode: darken;"></path>
            </g>
            <rect id="Rectangle-886" fill="#FFFFFF" x="3.35135135" y="75.9189189" width="100.72973" height="31.1351351"></rect>
            <text id="All-Work" font-family="Sofia, Avenir, Helvetica Neue, Arial, sans-serif" font-size="24" font-weight="bold" line-spacing="32" fill="#182226">
                <tspan x="13.0810811" y="99.8918919">All Work</tspan>
            </text>
        </g>
    </g>
</svg>