<?xml version="1.0" encoding="UTF-8" standalone="no"?>
<svg width="331px" height="133px" viewBox="0 0 331 133" version="1.1" xmlns="http://www.w3.org/2000/svg" xmlns:xlink="http://www.w3.org/1999/xlink">
    <!-- Generator: Sketch 3.6.1 (26313) - http://www.bohemiancoding.com/sketch -->
    <title>all-mobile</title>
    <desc>Created with Sketch.</desc>
    <defs></defs>
    <g id="Page-1" stroke="none" stroke-width="1" fill="none" fill-rule="evenodd">
        <g id="Work-Index/Work-Index-Masonry/Information-Copy-3" transform="translate(-536.000000, -281.000000)">
            <g id="all-mobile" transform="translate(538.000000, 282.000000)">
                <g id="Block">
                    <g id="Group-7">
                        <ellipse id="Oval" stroke="#000000" stroke-width="2.2" fill="#000000" cx="109.15423" cy="1.34295538" rx="0.552479835" ry="0.55343506"></ellipse>
                        <ellipse id="Oval" stroke="#000000" stroke-width="2.2" fill="#000000" cx="87.3707396" cy="1.34295538" rx="0.552479835" ry="0.55343506"></ellipse>
                        <ellipse id="Oval" stroke="#000000" stroke-width="2.2" fill="#000000" cx="65.6661747" cy="1.34295538" rx="0.552479835" ry="0.55343506"></ellipse>
                        <ellipse id="Oval" stroke="#000000" stroke-width="2.2" fill="#000000" cx="43.9616097" cy="1.34295538" rx="0.552479835" ry="0.55343506"></ellipse>
                        <ellipse id="Oval" stroke="#000000" stroke-width="2.2" fill="#000000" cx="22.2570448" cy="1.34295538" rx="0.552479835" ry="0.55343506"></ellipse>
                        <ellipse id="Oval" stroke="#000000" stroke-width="2.2" fill="#000000" cx="0.552479835" cy="1.34295538" rx="0.552479835" ry="0.55343506"></ellipse>
                        <ellipse id="Oval" stroke="#000000" stroke-width="2.2" fill="#000000" cx="240.840803" cy="1.34295538" rx="0.552479835" ry="0.55343506"></ellipse>
                        <ellipse id="Oval" stroke="#000000" stroke-width="2.2" fill="#000000" cx="219.057312" cy="1.34295538" rx="0.552479835" ry="0.55343506"></ellipse>
                        <ellipse id="Oval" stroke="#000000" stroke-width="2.2" fill="#000000" cx="197.352747" cy="1.34295538" rx="0.552479835" ry="0.55343506"></ellipse>
                        <ellipse id="Oval" stroke="#000000" stroke-width="2.2" fill="#000000" cx="175.648182" cy="1.34295538" rx="0.552479835" ry="0.55343506"></ellipse>
                        <ellipse id="Oval" stroke="#000000" stroke-width="2.2" fill="#000000" cx="153.943617" cy="1.34295538" rx="0.552479835" ry="0.55343506"></ellipse>
                        <ellipse id="Oval" stroke="#000000" stroke-width="2.2" fill="#000000" cx="132.239053" cy="1.34295538" rx="0.552479835" ry="0.55343506"></ellipse>
                        <ellipse id="Oval" stroke="#000000" stroke-width="2.2" fill="#000000" cx="109.15423" cy="129.544672" rx="0.552479835" ry="0.55343506"></ellipse>
                        <ellipse id="Oval" stroke="#000000" stroke-width="2.2" fill="#000000" cx="109.15423" cy="107.802581" rx="0.552479835" ry="0.55343506"></ellipse>
                        <ellipse id="Oval" stroke="#000000" stroke-width="2.2" fill="#000000" cx="109.15423" cy="86.060489" rx="0.552479835" ry="0.55343506"></ellipse>
                        <ellipse id="Oval" stroke="#000000" stroke-width="2.2" fill="#000000" cx="109.15423" cy="64.3183973" rx="0.552479835" ry="0.55343506"></ellipse>
                        <ellipse id="Oval" stroke="#000000" stroke-width="2.2" fill="#000000" cx="109.15423" cy="42.5763057" rx="0.552479835" ry="0.55343506"></ellipse>
                        <ellipse id="Oval" stroke="#000000" stroke-width="2.2" fill="#000000" cx="109.15423" cy="20.7551519" rx="0.552479835" ry="0.55343506"></ellipse>
                        <ellipse id="Oval" stroke="#000000" stroke-width="2.2" fill="#000000" cx="87.3707396" cy="129.544672" rx="0.552479835" ry="0.55343506"></ellipse>
                        <ellipse id="Oval" stroke="#000000" stroke-width="2.2" fill="#000000" cx="87.3707396" cy="107.802581" rx="0.552479835" ry="0.55343506"></ellipse>
                        <ellipse id="Oval" stroke="#000000" stroke-width="2.2" fill="#000000" cx="87.3707396" cy="86.060489" rx="0.552479835" ry="0.55343506"></ellipse>
                        <ellipse id="Oval" stroke="#000000" stroke-width="2.2" fill="#000000" cx="87.3707396" cy="64.3183973" rx="0.552479835" ry="0.55343506"></ellipse>
                        <ellipse id="Oval" stroke="#000000" stroke-width="2.2" fill="#000000" cx="87.3707396" cy="42.5763057" rx="0.552479835" ry="0.55343506"></ellipse>
                        <ellipse id="Oval" stroke="#000000" stroke-width="2.2" fill="#000000" cx="87.3707396" cy="20.7551519" rx="0.552479835" ry="0.55343506"></ellipse>
                        <ellipse id="Oval" stroke="#000000" stroke-width="2.2" fill="#000000" cx="65.6661747" cy="129.544672" rx="0.552479835" ry="0.55343506"></ellipse>
                        <ellipse id="Oval" stroke="#000000" stroke-width="2.2" fill="#000000" cx="65.6661747" cy="107.802581" rx="0.552479835" ry="0.55343506"></ellipse>
                        <ellipse id="Oval" stroke="#000000" stroke-width="2.2" fill="#000000" cx="65.6661747" cy="86.060489" rx="0.552479835" ry="0.55343506"></ellipse>
                        <ellipse id="Oval" stroke="#000000" stroke-width="2.2" fill="#000000" cx="65.6661747" cy="64.3183973" rx="0.552479835" ry="0.55343506"></ellipse>
                        <ellipse id="Oval" stroke="#000000" stroke-width="2.2" fill="#000000" cx="65.6661747" cy="42.5763057" rx="0.552479835" ry="0.55343506"></ellipse>
                        <ellipse id="Oval" stroke="#000000" stroke-width="2.2" fill="#000000" cx="65.6661747" cy="20.7551519" rx="0.552479835" ry="0.55343506"></ellipse>
                        <ellipse id="Oval" stroke="#000000" stroke-width="2.2" fill="#000000" cx="43.9616097" cy="129.544672" rx="0.552479835" ry="0.55343506"></ellipse>
                        <ellipse id="Oval" stroke="#000000" stroke-width="2.2" fill="#000000" cx="43.9616097" cy="107.802581" rx="0.552479835" ry="0.55343506"></ellipse>
                        <ellipse id="Oval" stroke="#000000" stroke-width="2.2" fill="#000000" cx="43.9616097" cy="86.060489" rx="0.552479835" ry="0.55343506"></ellipse>
                        <ellipse id="Oval" stroke="#000000" stroke-width="2.2" fill="#000000" cx="43.9616097" cy="64.3183973" rx="0.552479835" ry="0.55343506"></ellipse>
                        <ellipse id="Oval" stroke="#000000" stroke-width="2.2" fill="#000000" cx="43.9616097" cy="42.5763057" rx="0.552479835" ry="0.55343506"></ellipse>
                        <ellipse id="Oval" stroke="#000000" stroke-width="2.2" fill="#000000" cx="43.9616097" cy="20.7551519" rx="0.552479835" ry="0.55343506"></ellipse>
                        <ellipse id="Oval" stroke="#000000" stroke-width="2.2" fill="#000000" cx="22.2570448" cy="129.544672" rx="0.552479835" ry="0.55343506"></ellipse>
                        <ellipse id="Oval" stroke="#000000" stroke-width="2.2" fill="#000000" cx="22.2570448" cy="107.802581" rx="0.552479835" ry="0.55343506"></ellipse>
                        <ellipse id="Oval" stroke="#000000" stroke-width="2.2" fill="#000000" cx="22.2570448" cy="86.060489" rx="0.552479835" ry="0.55343506"></ellipse>
                        <ellipse id="Oval" stroke="#000000" stroke-width="2.2" fill="#000000" cx="22.2570448" cy="64.3183973" rx="0.552479835" ry="0.55343506"></ellipse>
                        <ellipse id="Oval" stroke="#000000" stroke-width="2.2" fill="#000000" cx="22.2570448" cy="42.5763057" rx="0.552479835" ry="0.55343506"></ellipse>
                        <ellipse id="Oval" stroke="#000000" stroke-width="2.2" fill="#000000" cx="22.2570448" cy="20.7551519" rx="0.552479835" ry="0.55343506"></ellipse>
                        <ellipse id="Oval" stroke="#000000" stroke-width="2.2" fill="#000000" cx="0.552479835" cy="129.544672" rx="0.552479835" ry="0.55343506"></ellipse>
                        <ellipse id="Oval" stroke="#000000" stroke-width="2.2" fill="#000000" cx="0.552479835" cy="107.802581" rx="0.552479835" ry="0.55343506"></ellipse>
                        <ellipse id="Oval" stroke="#000000" stroke-width="2.2" fill="#000000" cx="0.552479835" cy="86.060489" rx="0.552479835" ry="0.55343506"></ellipse>
                        <ellipse id="Oval" stroke="#000000" stroke-width="2.2" fill="#000000" cx="0.552479835" cy="64.3183973" rx="0.552479835" ry="0.55343506"></ellipse>
                        <ellipse id="Oval" stroke="#000000" stroke-width="2.2" fill="#000000" cx="0.552479835" cy="42.5763057" rx="0.552479835" ry="0.55343506"></ellipse>
                        <ellipse id="Oval" stroke="#000000" stroke-width="2.2" fill="#000000" cx="0.552479835" cy="20.7551519" rx="0.552479835" ry="0.55343506"></ellipse>
                        <ellipse id="Oval" stroke="#000000" stroke-width="2.2" fill="#000000" cx="240.840803" cy="129.544672" rx="0.552479835" ry="0.55343506"></ellipse>
                        <ellipse id="Oval" stroke="#000000" stroke-width="2.2" fill="#000000" cx="240.840803" cy="107.802581" rx="0.552479835" ry="0.55343506"></ellipse>
                        <ellipse id="Oval" stroke="#000000" stroke-width="2.2" fill="#000000" cx="240.840803" cy="86.060489" rx="0.552479835" ry="0.55343506"></ellipse>
                        <ellipse id="Oval" stroke="#000000" stroke-width="2.2" fill="#000000" cx="240.840803" cy="64.3183973" rx="0.552479835" ry="0.55343506"></ellipse>
                        <ellipse id="Oval" stroke="#000000" stroke-width="2.2" fill="#000000" cx="240.840803" cy="42.5763057" rx="0.552479835" ry="0.55343506"></ellipse>
                        <ellipse id="Oval" stroke="#000000" stroke-width="2.2" fill="#000000" cx="240.840803" cy="20.7551519" rx="0.552479835" ry="0.55343506"></ellipse>
                        <ellipse id="Oval" stroke="#000000" stroke-width="2.2" fill="#000000" cx="219.057312" cy="129.544672" rx="0.552479835" ry="0.55343506"></ellipse>
                        <ellipse id="Oval" stroke="#000000" stroke-width="2.2" fill="#000000" cx="219.057312" cy="107.802581" rx="0.552479835" ry="0.55343506"></ellipse>
                        <ellipse id="Oval" stroke="#000000" stroke-width="2.2" fill="#000000" cx="219.057312" cy="86.060489" rx="0.552479835" ry="0.55343506"></ellipse>
                        <ellipse id="Oval" stroke="#000000" stroke-width="2.2" fill="#000000" cx="219.057312" cy="64.3183973" rx="0.552479835" ry="0.55343506"></ellipse>
                        <ellipse id="Oval" stroke="#000000" stroke-width="2.2" fill="#000000" cx="219.057312" cy="42.5763057" rx="0.552479835" ry="0.55343506"></ellipse>
                        <ellipse id="Oval" stroke="#000000" stroke-width="2.2" fill="#000000" cx="219.057312" cy="20.7551519" rx="0.552479835" ry="0.55343506"></ellipse>
                        <ellipse id="Oval" stroke="#000000" stroke-width="2.2" fill="#000000" cx="197.352747" cy="129.544672" rx="0.552479835" ry="0.55343506"></ellipse>
                        <ellipse id="Oval" stroke="#000000" stroke-width="2.2" fill="#000000" cx="197.352747" cy="107.802581" rx="0.552479835" ry="0.55343506"></ellipse>
                        <ellipse id="Oval" stroke="#000000" stroke-width="2.2" fill="#000000" cx="197.352747" cy="86.060489" rx="0.552479835" ry="0.55343506"></ellipse>
                        <ellipse id="Oval" stroke="#000000" stroke-width="2.2" fill="#000000" cx="197.352747" cy="64.3183973" rx="0.552479835" ry="0.55343506"></ellipse>
                        <ellipse id="Oval" stroke="#000000" stroke-width="2.2" fill="#000000" cx="197.352747" cy="42.5763057" rx="0.552479835" ry="0.55343506"></ellipse>
                        <ellipse id="Oval" stroke="#000000" stroke-width="2.2" fill="#000000" cx="197.352747" cy="20.7551519" rx="0.552479835" ry="0.55343506"></ellipse>
                        <ellipse id="Oval" stroke="#000000" stroke-width="2.2" fill="#000000" cx="175.648182" cy="129.544672" rx="0.552479835" ry="0.55343506"></ellipse>
                        <ellipse id="Oval" stroke="#000000" stroke-width="2.2" fill="#000000" cx="175.648182" cy="107.802581" rx="0.552479835" ry="0.55343506"></ellipse>
                        <ellipse id="Oval" stroke="#000000" stroke-width="2.2" fill="#000000" cx="175.648182" cy="86.060489" rx="0.552479835" ry="0.55343506"></ellipse>
                        <ellipse id="Oval" stroke="#000000" stroke-width="2.2" fill="#000000" cx="175.648182" cy="64.3183973" rx="0.552479835" ry="0.55343506"></ellipse>
                        <ellipse id="Oval" stroke="#000000" stroke-width="2.2" fill="#000000" cx="175.648182" cy="42.5763057" rx="0.552479835" ry="0.55343506"></ellipse>
                        <ellipse id="Oval" stroke="#000000" stroke-width="2.2" fill="#000000" cx="175.648182" cy="20.7551519" rx="0.552479835" ry="0.55343506"></ellipse>
                        <ellipse id="Oval" stroke="#000000" stroke-width="2.2" fill="#000000" cx="153.943617" cy="129.544672" rx="0.552479835" ry="0.55343506"></ellipse>
                        <ellipse id="Oval" stroke="#000000" stroke-width="2.2" fill="#000000" cx="153.943617" cy="107.802581" rx="0.552479835" ry="0.55343506"></ellipse>
                        <ellipse id="Oval" stroke="#000000" stroke-width="2.2" fill="#000000" cx="153.943617" cy="86.060489" rx="0.552479835" ry="0.55343506"></ellipse>
                        <ellipse id="Oval" stroke="#000000" stroke-width="2.2" fill="#000000" cx="153.943617" cy="64.3183973" rx="0.552479835" ry="0.55343506"></ellipse>
                        <ellipse id="Oval" stroke="#000000" stroke-width="2.2" fill="#000000" cx="153.943617" cy="42.5763057" rx="0.552479835" ry="0.55343506"></ellipse>
                        <ellipse id="Oval" stroke="#000000" stroke-width="2.2" fill="#000000" cx="153.943617" cy="20.7551519" rx="0.552479835" ry="0.55343506"></ellipse>
                        <ellipse id="Oval" stroke="#000000" stroke-width="2.2" fill="#000000" cx="132.239053" cy="129.544672" rx="0.552479835" ry="0.55343506"></ellipse>
                        <ellipse id="Oval" stroke="#000000" stroke-width="2.2" fill="#000000" cx="132.239053" cy="107.802581" rx="0.552479835" ry="0.55343506"></ellipse>
                        <ellipse id="Oval" stroke="#000000" stroke-width="2.2" fill="#000000" cx="132.239053" cy="86.060489" rx="0.552479835" ry="0.55343506"></ellipse>
                        <ellipse id="Oval" stroke="#000000" stroke-width="2.2" fill="#000000" cx="132.239053" cy="64.3183973" rx="0.552479835" ry="0.55343506"></ellipse>
                        <ellipse id="Oval" stroke="#000000" stroke-width="2.2" fill="#000000" cx="132.239053" cy="42.5763057" rx="0.552479835" ry="0.55343506"></ellipse>
                        <ellipse id="Oval" stroke="#000000" stroke-width="2.2" fill="#000000" cx="132.239053" cy="20.7551519" rx="0.552479835" ry="0.55343506"></ellipse>
                        <ellipse id="Oval" stroke="#000000" stroke-width="2.2" fill="#000000" cx="327.218768" cy="1.34295538" rx="0.552479835" ry="0.55343506"></ellipse>
                        <ellipse id="Oval" stroke="#000000" stroke-width="2.2" fill="#000000" cx="305.514203" cy="1.34295538" rx="0.552479835" ry="0.55343506"></ellipse>
                        <ellipse id="Oval" stroke="#000000" stroke-width="2.2" fill="#000000" cx="283.809638" cy="1.34295538" rx="0.552479835" ry="0.55343506"></ellipse>
                        <ellipse id="Oval" stroke="#000000" stroke-width="2.2" fill="#000000" cx="262.105074" cy="1.34295538" rx="0.552479835" ry="0.55343506"></ellipse>
                        <ellipse id="Oval" stroke="#000000" stroke-width="2.2" fill="#000000" cx="327.218768" cy="129.544672" rx="0.552479835" ry="0.55343506"></ellipse>
                        <ellipse id="Oval" stroke="#000000" stroke-width="2.2" fill="#000000" cx="327.218768" cy="107.802581" rx="0.552479835" ry="0.55343506"></ellipse>
                        <ellipse id="Oval" stroke="#000000" stroke-width="2.2" fill="#000000" cx="327.218768" cy="86.060489" rx="0.552479835" ry="0.55343506"></ellipse>
                        <ellipse id="Oval" stroke="#000000" stroke-width="2.2" fill="#000000" cx="327.218768" cy="64.3183973" rx="0.552479835" ry="0.55343506"></ellipse>
                        <ellipse id="Oval" stroke="#000000" stroke-width="2.2" fill="#000000" cx="327.218768" cy="42.5763057" rx="0.552479835" ry="0.55343506"></ellipse>
                        <ellipse id="Oval" stroke="#000000" stroke-width="2.2" fill="#000000" cx="327.218768" cy="20.7551519" rx="0.552479835" ry="0.55343506"></ellipse>
                        <ellipse id="Oval" stroke="#000000" stroke-width="2.2" fill="#000000" cx="305.514203" cy="129.544672" rx="0.552479835" ry="0.55343506"></ellipse>
                        <ellipse id="Oval" stroke="#000000" stroke-width="2.2" fill="#000000" cx="305.514203" cy="107.802581" rx="0.552479835" ry="0.55343506"></ellipse>
                        <ellipse id="Oval" stroke="#000000" stroke-width="2.2" fill="#000000" cx="305.514203" cy="86.060489" rx="0.552479835" ry="0.55343506"></ellipse>
                        <ellipse id="Oval" stroke="#000000" stroke-width="2.2" fill="#000000" cx="305.514203" cy="64.3183973" rx="0.552479835" ry="0.55343506"></ellipse>
                        <ellipse id="Oval" stroke="#000000" stroke-width="2.2" fill="#000000" cx="305.514203" cy="42.5763057" rx="0.552479835" ry="0.55343506"></ellipse>
                        <ellipse id="Oval" stroke="#000000" stroke-width="2.2" fill="#000000" cx="305.514203" cy="20.7551519" rx="0.552479835" ry="0.55343506"></ellipse>
                        <ellipse id="Oval" stroke="#000000" stroke-width="2.2" fill="#000000" cx="283.809638" cy="129.544672" rx="0.552479835" ry="0.55343506"></ellipse>
                        <ellipse id="Oval" stroke="#000000" stroke-width="2.2" fill="#000000" cx="283.809638" cy="107.802581" rx="0.552479835" ry="0.55343506"></ellipse>
                        <ellipse id="Oval" stroke="#000000" stroke-width="2.2" fill="#000000" cx="283.809638" cy="86.060489" rx="0.552479835" ry="0.55343506"></ellipse>
                        <ellipse id="Oval" stroke="#000000" stroke-width="2.2" fill="#000000" cx="283.809638" cy="64.3183973" rx="0.552479835" ry="0.55343506"></ellipse>
                        <ellipse id="Oval" stroke="#000000" stroke-width="2.2" fill="#000000" cx="283.809638" cy="42.5763057" rx="0.552479835" ry="0.55343506"></ellipse>
                        <ellipse id="Oval" stroke="#000000" stroke-width="2.2" fill="#000000" cx="283.809638" cy="20.7551519" rx="0.552479835" ry="0.55343506"></ellipse>
                        <ellipse id="Oval" stroke="#000000" stroke-width="2.2" fill="#000000" cx="262.105074" cy="129.544672" rx="0.552479835" ry="0.55343506"></ellipse>
                        <ellipse id="Oval" stroke="#000000" stroke-width="2.2" fill="#000000" cx="262.105074" cy="107.802581" rx="0.552479835" ry="0.55343506"></ellipse>
                        <ellipse id="Oval" stroke="#000000" stroke-width="2.2" fill="#000000" cx="262.105074" cy="86.060489" rx="0.552479835" ry="0.55343506"></ellipse>
                        <ellipse id="Oval" stroke="#000000" stroke-width="2.2" fill="#000000" cx="262.105074" cy="64.3183973" rx="0.552479835" ry="0.55343506"></ellipse>
                        <ellipse id="Oval" stroke="#000000" stroke-width="2.2" fill="#000000" cx="262.105074" cy="42.5763057" rx="0.552479835" ry="0.55343506"></ellipse>
                        <ellipse id="Oval" stroke="#000000" stroke-width="2.2" fill="#000000" cx="262.105074" cy="20.7551519" rx="0.552479835" ry="0.55343506"></ellipse>
                        <path d="M131,43 L151.392202,43 L151.392202,63.4170854 L131,63.417085 L131,43 Z" id="Rectangle-path-Copy-22" fill="#5AC2B3" style="mix-blend-mode: darken;"></path>
                        <path d="M8.21245002,35.9357117 C-1.37002464,26.341544 -1.37002464,10.7255051 8.21245002,1.13133742 L42.974406,35.9357117 C33.3919313,45.5298793 17.7949247,45.5298793 8.21245002,35.9357117 Z" id="Shape-Copy-32" fill="#F47F50" style="mix-blend-mode: darken;" transform="translate(22.000000, 22.131337) scale(-1, -1) rotate(-90.000000) translate(-22.000000, -22.131337) "></path>
                        <path d="M218,1.29145729 L218,21.1907089 L198.125,21.1907098 L218,1.29145729 Z" id="Shape-Copy-25" fill="#7ABDDF" style="mix-blend-mode: darken;" transform="translate(208.062500, 11.241084) scale(-1, 1) translate(-208.062500, -11.241084) "></path>
                        <rect id="Rectangle-843" fill="#FFFFFF" x="74" y="32" width="176.987385" height="64.7752294"></rect>
                        <path d="M111.688,67.912 L115.336,58.12 L118.984,67.912 L111.688,67.912 Z M120.008,70.6 L122.152,76.2 L125.288,76.2 L116.936,54.152 L113.736,54.152 L105.352,76.2 L108.52,76.2 L110.664,70.6 L120.008,70.6 Z M128.072,53.128 L128.072,76.2 L130.984,76.2 L130.984,53.128 L128.072,53.128 Z M135.848,53.128 L135.848,76.2 L138.76,76.2 L138.76,53.128 L135.848,53.128 Z M174.664,54.152 L169.128,71.4 L165.064,57.128 L162.792,57.128 L158.728,71.4 L153.192,54.152 L149.992,54.152 L157.448,76.2 L160.04,76.2 L163.912,62.44 L167.816,76.2 L170.408,76.2 L177.864,54.152 L174.664,54.152 Z M187.592,76.52 C191.848,76.52 195.432,73.416 195.432,68.68 C195.432,63.944 191.848,60.936 187.592,60.936 C183.336,60.936 179.784,63.944 179.784,68.68 C179.784,73.416 183.336,76.52 187.592,76.52 L187.592,76.52 Z M187.592,73.704 C184.904,73.704 182.664,71.72 182.664,68.68 C182.664,65.672 184.904,63.784 187.592,63.784 C190.28,63.784 192.52,65.672 192.52,68.68 C192.52,71.72 190.28,73.704 187.592,73.704 L187.592,73.704 Z M202.216,70.76 C202.216,66.792 203.432,63.72 206.312,63.72 C206.92,63.72 207.72,63.848 208.52,64.232 L208.968,61.512 C208.552,61.224 207.432,60.936 206.376,60.936 C204.424,60.936 202.984,61.992 202.216,64.616 L202.216,61.256 L199.304,61.256 L199.304,76.2 L202.216,76.2 L202.216,70.76 Z M214.824,68.904 L221.64,76.2 L225.48,76.2 L217.544,67.72 L223.944,61.256 L219.976,61.256 L214.824,66.472 L214.824,53.128 L211.944,53.128 L211.944,76.2 L214.824,76.2 L214.824,68.904 Z" id="All-Work" fill="#182226"></path>
                        <path d="M327,21 L284,21 L284,42 L327,42 L327,21 Z" id="Fill-6" fill="#FCD319" style="mix-blend-mode: darken;"></path>
                        <path d="M65.2186545,108.249146 L22.2186545,108.249146 L22.2186545,129.249146 L65.2186545,129.249146 L65.2186545,108.249146 Z" id="Fill-6-Copy" fill="#FCD319" style="mix-blend-mode: darken;"></path>
                        <path d="M327.666289,107.960452 C327.666289,95.8877783 317.891105,86.1006663 305.833144,86.1006663 C293.775184,86.1006663 284,95.8877783 284,107.960452 C284,120.033127 293.775184,129.820239 305.833144,129.820239 C317.891105,129.820239 327.666289,120.033127 327.666289,107.960452" id="Fill-14" fill="#EF4962" style="mix-blend-mode: darken;"></path>
                    </g>
                </g>
                <g id="Block" transform="translate(261.552594, 0.000000)"></g>
            </g>
        </g>
    </g>
</svg>