<?xml version="1.0" encoding="UTF-8" standalone="no"?>
<svg width="875px" height="400px" viewBox="0 0 875 400" version="1.1" xmlns="http://www.w3.org/2000/svg" xmlns:xlink="http://www.w3.org/1999/xlink">
    <!-- Generator: Sketch 3.6.1 (26313) - http://www.bohemiancoding.com/sketch -->
    <title>all-tablet</title>
    <desc>Created with Sketch.</desc>
    <defs></defs>
    <g id="All-Screens" stroke="none" stroke-width="1" fill="none" fill-rule="evenodd">
        <g id="Work-Index/Work-Index-Masonry/Information-Copy-2" transform="translate(-93.000000, -186.000000)">
            <g id="all-tablet" transform="translate(95.000000, 188.000000)">
                <g id="Background-(Grid)" stroke-width="3" stroke="#000000" fill="#000000">
                    <g id="Block">
                        <ellipse id="Oval" cx="181.993286" cy="182.085758" rx="0.921151847" ry="0.92161989"></ellipse>
                        <ellipse id="Oval" cx="181.993286" cy="145.879263" rx="0.921151847" ry="0.92161989"></ellipse>
                        <ellipse id="Oval" cx="181.993286" cy="109.672767" rx="0.921151847" ry="0.92161989"></ellipse>
                        <ellipse id="Oval" cx="181.993286" cy="73.4662713" rx="0.921151847" ry="0.92161989"></ellipse>
                        <ellipse id="Oval" cx="181.993286" cy="37.2597756" rx="0.921151847" ry="0.92161989"></ellipse>
                        <ellipse id="Oval" cx="181.993286" cy="0.92161989" rx="0.921151847" ry="0.92161989"></ellipse>
                        <ellipse id="Oval" cx="145.673585" cy="182.085758" rx="0.921151847" ry="0.92161989"></ellipse>
                        <ellipse id="Oval" cx="145.673585" cy="145.879263" rx="0.921151847" ry="0.92161989"></ellipse>
                        <ellipse id="Oval" cx="145.673585" cy="109.672767" rx="0.921151847" ry="0.92161989"></ellipse>
                        <ellipse id="Oval" cx="145.673585" cy="73.4662713" rx="0.921151847" ry="0.92161989"></ellipse>
                        <ellipse id="Oval" cx="145.673585" cy="37.2597756" rx="0.921151847" ry="0.92161989"></ellipse>
                        <ellipse id="Oval" cx="145.673585" cy="0.92161989" rx="0.921151847" ry="0.92161989"></ellipse>
                        <ellipse id="Oval" cx="109.485477" cy="182.085758" rx="0.921151847" ry="0.92161989"></ellipse>
                        <ellipse id="Oval" cx="109.485477" cy="145.879263" rx="0.921151847" ry="0.92161989"></ellipse>
                        <ellipse id="Oval" cx="109.485477" cy="109.672767" rx="0.921151847" ry="0.92161989"></ellipse>
                        <ellipse id="Oval" cx="109.485477" cy="73.4662713" rx="0.921151847" ry="0.92161989"></ellipse>
                        <ellipse id="Oval" cx="109.485477" cy="37.2597756" rx="0.921151847" ry="0.92161989"></ellipse>
                        <ellipse id="Oval" cx="109.485477" cy="0.92161989" rx="0.921151847" ry="0.92161989"></ellipse>
                        <ellipse id="Oval" cx="73.2973684" cy="182.085758" rx="0.921151847" ry="0.92161989"></ellipse>
                        <ellipse id="Oval" cx="73.2973684" cy="145.879263" rx="0.921151847" ry="0.92161989"></ellipse>
                        <ellipse id="Oval" cx="73.2973684" cy="109.672767" rx="0.921151847" ry="0.92161989"></ellipse>
                        <ellipse id="Oval" cx="73.2973684" cy="73.4662713" rx="0.921151847" ry="0.92161989"></ellipse>
                        <ellipse id="Oval" cx="73.2973684" cy="37.2597756" rx="0.921151847" ry="0.92161989"></ellipse>
                        <ellipse id="Oval" cx="73.2973684" cy="0.92161989" rx="0.921151847" ry="0.92161989"></ellipse>
                        <ellipse id="Oval" cx="37.1092601" cy="182.085758" rx="0.921151847" ry="0.92161989"></ellipse>
                        <ellipse id="Oval" cx="37.1092601" cy="145.879263" rx="0.921151847" ry="0.92161989"></ellipse>
                        <ellipse id="Oval" cx="37.1092601" cy="109.672767" rx="0.921151847" ry="0.92161989"></ellipse>
                        <ellipse id="Oval" cx="37.1092601" cy="73.4662713" rx="0.921151847" ry="0.92161989"></ellipse>
                        <ellipse id="Oval" cx="37.1092601" cy="37.2597756" rx="0.921151847" ry="0.92161989"></ellipse>
                        <ellipse id="Oval" cx="37.1092601" cy="0.92161989" rx="0.921151847" ry="0.92161989"></ellipse>
                        <ellipse id="Oval" cx="0.921151847" cy="182.085758" rx="0.921151847" ry="0.92161989"></ellipse>
                        <ellipse id="Oval" cx="0.921151847" cy="145.879263" rx="0.921151847" ry="0.92161989"></ellipse>
                        <ellipse id="Oval" cx="0.921151847" cy="109.672767" rx="0.921151847" ry="0.92161989"></ellipse>
                        <ellipse id="Oval" cx="0.921151847" cy="73.4662713" rx="0.921151847" ry="0.92161989"></ellipse>
                        <ellipse id="Oval" cx="0.921151847" cy="37.2597756" rx="0.921151847" ry="0.92161989"></ellipse>
                        <ellipse id="Oval" cx="0.921151847" cy="0.92161989" rx="0.921151847" ry="0.92161989"></ellipse>
                        <ellipse id="Oval" cx="401.554838" cy="182.085758" rx="0.921151847" ry="0.92161989"></ellipse>
                        <ellipse id="Oval" cx="401.554838" cy="145.879263" rx="0.921151847" ry="0.92161989"></ellipse>
                        <ellipse id="Oval" cx="401.554838" cy="109.672767" rx="0.921151847" ry="0.92161989"></ellipse>
                        <ellipse id="Oval" cx="401.554838" cy="73.4662713" rx="0.921151847" ry="0.92161989"></ellipse>
                        <ellipse id="Oval" cx="401.554838" cy="37.2597756" rx="0.921151847" ry="0.92161989"></ellipse>
                        <ellipse id="Oval" cx="401.554838" cy="0.92161989" rx="0.921151847" ry="0.92161989"></ellipse>
                        <ellipse id="Oval" cx="365.235136" cy="182.085758" rx="0.921151847" ry="0.92161989"></ellipse>
                        <ellipse id="Oval" cx="365.235136" cy="145.879263" rx="0.921151847" ry="0.92161989"></ellipse>
                        <ellipse id="Oval" cx="365.235136" cy="109.672767" rx="0.921151847" ry="0.92161989"></ellipse>
                        <ellipse id="Oval" cx="365.235136" cy="73.4662713" rx="0.921151847" ry="0.92161989"></ellipse>
                        <ellipse id="Oval" cx="365.235136" cy="37.2597756" rx="0.921151847" ry="0.92161989"></ellipse>
                        <ellipse id="Oval" cx="365.235136" cy="0.92161989" rx="0.921151847" ry="0.92161989"></ellipse>
                        <ellipse id="Oval" cx="329.047028" cy="182.085758" rx="0.921151847" ry="0.92161989"></ellipse>
                        <ellipse id="Oval" cx="329.047028" cy="145.879263" rx="0.921151847" ry="0.92161989"></ellipse>
                        <ellipse id="Oval" cx="329.047028" cy="109.672767" rx="0.921151847" ry="0.92161989"></ellipse>
                        <ellipse id="Oval" cx="329.047028" cy="73.4662713" rx="0.921151847" ry="0.92161989"></ellipse>
                        <ellipse id="Oval" cx="329.047028" cy="37.2597756" rx="0.921151847" ry="0.92161989"></ellipse>
                        <ellipse id="Oval" cx="329.047028" cy="0.92161989" rx="0.921151847" ry="0.92161989"></ellipse>
                        <ellipse id="Oval" cx="292.85892" cy="182.085758" rx="0.921151847" ry="0.92161989"></ellipse>
                        <ellipse id="Oval" cx="292.85892" cy="145.879263" rx="0.921151847" ry="0.92161989"></ellipse>
                        <ellipse id="Oval" cx="292.85892" cy="109.672767" rx="0.921151847" ry="0.92161989"></ellipse>
                        <ellipse id="Oval" cx="292.85892" cy="73.4662713" rx="0.921151847" ry="0.92161989"></ellipse>
                        <ellipse id="Oval" cx="292.85892" cy="37.2597756" rx="0.921151847" ry="0.92161989"></ellipse>
                        <ellipse id="Oval" cx="292.85892" cy="0.92161989" rx="0.921151847" ry="0.92161989"></ellipse>
                        <ellipse id="Oval" cx="256.670812" cy="182.085758" rx="0.921151847" ry="0.92161989"></ellipse>
                        <ellipse id="Oval" cx="256.670812" cy="145.879263" rx="0.921151847" ry="0.92161989"></ellipse>
                        <ellipse id="Oval" cx="256.670812" cy="109.672767" rx="0.921151847" ry="0.92161989"></ellipse>
                        <ellipse id="Oval" cx="256.670812" cy="73.4662713" rx="0.921151847" ry="0.92161989"></ellipse>
                        <ellipse id="Oval" cx="256.670812" cy="37.2597756" rx="0.921151847" ry="0.92161989"></ellipse>
                        <ellipse id="Oval" cx="256.670812" cy="0.92161989" rx="0.921151847" ry="0.92161989"></ellipse>
                        <ellipse id="Oval" cx="220.482703" cy="182.085758" rx="0.921151847" ry="0.92161989"></ellipse>
                        <ellipse id="Oval" cx="220.482703" cy="145.879263" rx="0.921151847" ry="0.92161989"></ellipse>
                        <ellipse id="Oval" cx="220.482703" cy="109.672767" rx="0.921151847" ry="0.92161989"></ellipse>
                        <ellipse id="Oval" cx="220.482703" cy="73.4662713" rx="0.921151847" ry="0.92161989"></ellipse>
                        <ellipse id="Oval" cx="220.482703" cy="37.2597756" rx="0.921151847" ry="0.92161989"></ellipse>
                        <ellipse id="Oval" cx="220.482703" cy="0.92161989" rx="0.921151847" ry="0.92161989"></ellipse>
                    </g>
                    <g id="Block" transform="translate(0.000000, 213.490725)">
                        <ellipse id="Oval" cx="181.993286" cy="182.085758" rx="0.921151847" ry="0.92161989"></ellipse>
                        <ellipse id="Oval" cx="181.993286" cy="145.879263" rx="0.921151847" ry="0.92161989"></ellipse>
                        <ellipse id="Oval" cx="181.993286" cy="109.672767" rx="0.921151847" ry="0.92161989"></ellipse>
                        <ellipse id="Oval" cx="181.993286" cy="73.4662713" rx="0.921151847" ry="0.92161989"></ellipse>
                        <ellipse id="Oval" cx="181.993286" cy="37.2597756" rx="0.921151847" ry="0.92161989"></ellipse>
                        <ellipse id="Oval" cx="181.993286" cy="0.92161989" rx="0.921151847" ry="0.92161989"></ellipse>
                        <ellipse id="Oval" cx="145.673585" cy="182.085758" rx="0.921151847" ry="0.92161989"></ellipse>
                        <ellipse id="Oval" cx="145.673585" cy="145.879263" rx="0.921151847" ry="0.92161989"></ellipse>
                        <ellipse id="Oval" cx="145.673585" cy="109.672767" rx="0.921151847" ry="0.92161989"></ellipse>
                        <ellipse id="Oval" cx="145.673585" cy="73.4662713" rx="0.921151847" ry="0.92161989"></ellipse>
                        <ellipse id="Oval" cx="145.673585" cy="37.2597756" rx="0.921151847" ry="0.92161989"></ellipse>
                        <ellipse id="Oval" cx="145.673585" cy="0.92161989" rx="0.921151847" ry="0.92161989"></ellipse>
                        <ellipse id="Oval" cx="109.485477" cy="182.085758" rx="0.921151847" ry="0.92161989"></ellipse>
                        <ellipse id="Oval" cx="109.485477" cy="145.879263" rx="0.921151847" ry="0.92161989"></ellipse>
                        <ellipse id="Oval" cx="109.485477" cy="109.672767" rx="0.921151847" ry="0.92161989"></ellipse>
                        <ellipse id="Oval" cx="109.485477" cy="73.4662713" rx="0.921151847" ry="0.92161989"></ellipse>
                        <ellipse id="Oval" cx="109.485477" cy="37.2597756" rx="0.921151847" ry="0.92161989"></ellipse>
                        <ellipse id="Oval" cx="109.485477" cy="0.92161989" rx="0.921151847" ry="0.92161989"></ellipse>
                        <ellipse id="Oval" cx="73.2973684" cy="182.085758" rx="0.921151847" ry="0.92161989"></ellipse>
                        <ellipse id="Oval" cx="73.2973684" cy="145.879263" rx="0.921151847" ry="0.92161989"></ellipse>
                        <ellipse id="Oval" cx="73.2973684" cy="109.672767" rx="0.921151847" ry="0.92161989"></ellipse>
                        <ellipse id="Oval" cx="73.2973684" cy="73.4662713" rx="0.921151847" ry="0.92161989"></ellipse>
                        <ellipse id="Oval" cx="73.2973684" cy="37.2597756" rx="0.921151847" ry="0.92161989"></ellipse>
                        <ellipse id="Oval" cx="73.2973684" cy="0.92161989" rx="0.921151847" ry="0.92161989"></ellipse>
                        <ellipse id="Oval" cx="37.1092601" cy="182.085758" rx="0.921151847" ry="0.92161989"></ellipse>
                        <ellipse id="Oval" cx="37.1092601" cy="145.879263" rx="0.921151847" ry="0.92161989"></ellipse>
                        <ellipse id="Oval" cx="37.1092601" cy="109.672767" rx="0.921151847" ry="0.92161989"></ellipse>
                        <ellipse id="Oval" cx="37.1092601" cy="73.4662713" rx="0.921151847" ry="0.92161989"></ellipse>
                        <ellipse id="Oval" cx="37.1092601" cy="37.2597756" rx="0.921151847" ry="0.92161989"></ellipse>
                        <ellipse id="Oval" cx="37.1092601" cy="0.92161989" rx="0.921151847" ry="0.92161989"></ellipse>
                        <ellipse id="Oval" cx="0.921151847" cy="182.085758" rx="0.921151847" ry="0.92161989"></ellipse>
                        <ellipse id="Oval" cx="0.921151847" cy="145.879263" rx="0.921151847" ry="0.92161989"></ellipse>
                        <ellipse id="Oval" cx="0.921151847" cy="109.672767" rx="0.921151847" ry="0.92161989"></ellipse>
                        <ellipse id="Oval" cx="0.921151847" cy="73.4662713" rx="0.921151847" ry="0.92161989"></ellipse>
                        <ellipse id="Oval" cx="0.921151847" cy="37.2597756" rx="0.921151847" ry="0.92161989"></ellipse>
                        <ellipse id="Oval" cx="0.921151847" cy="0.92161989" rx="0.921151847" ry="0.92161989"></ellipse>
                        <ellipse id="Oval" cx="401.554838" cy="182.085758" rx="0.921151847" ry="0.92161989"></ellipse>
                        <ellipse id="Oval" cx="401.554838" cy="145.879263" rx="0.921151847" ry="0.92161989"></ellipse>
                        <ellipse id="Oval" cx="401.554838" cy="109.672767" rx="0.921151847" ry="0.92161989"></ellipse>
                        <ellipse id="Oval" cx="401.554838" cy="73.4662713" rx="0.921151847" ry="0.92161989"></ellipse>
                        <ellipse id="Oval" cx="401.554838" cy="37.2597756" rx="0.921151847" ry="0.92161989"></ellipse>
                        <ellipse id="Oval" cx="401.554838" cy="0.92161989" rx="0.921151847" ry="0.92161989"></ellipse>
                        <ellipse id="Oval" cx="365.235136" cy="182.085758" rx="0.921151847" ry="0.92161989"></ellipse>
                        <ellipse id="Oval" cx="365.235136" cy="145.879263" rx="0.921151847" ry="0.92161989"></ellipse>
                        <ellipse id="Oval" cx="365.235136" cy="109.672767" rx="0.921151847" ry="0.92161989"></ellipse>
                        <ellipse id="Oval" cx="365.235136" cy="73.4662713" rx="0.921151847" ry="0.92161989"></ellipse>
                        <ellipse id="Oval" cx="365.235136" cy="37.2597756" rx="0.921151847" ry="0.92161989"></ellipse>
                        <ellipse id="Oval" cx="365.235136" cy="0.92161989" rx="0.921151847" ry="0.92161989"></ellipse>
                        <ellipse id="Oval" cx="329.047028" cy="182.085758" rx="0.921151847" ry="0.92161989"></ellipse>
                        <ellipse id="Oval" cx="329.047028" cy="145.879263" rx="0.921151847" ry="0.92161989"></ellipse>
                        <ellipse id="Oval" cx="329.047028" cy="109.672767" rx="0.921151847" ry="0.92161989"></ellipse>
                        <ellipse id="Oval" cx="329.047028" cy="73.4662713" rx="0.921151847" ry="0.92161989"></ellipse>
                        <ellipse id="Oval" cx="329.047028" cy="37.2597756" rx="0.921151847" ry="0.92161989"></ellipse>
                        <ellipse id="Oval" cx="329.047028" cy="0.92161989" rx="0.921151847" ry="0.92161989"></ellipse>
                        <ellipse id="Oval" cx="292.85892" cy="182.085758" rx="0.921151847" ry="0.92161989"></ellipse>
                        <ellipse id="Oval" cx="292.85892" cy="145.879263" rx="0.921151847" ry="0.92161989"></ellipse>
                        <ellipse id="Oval" cx="292.85892" cy="109.672767" rx="0.921151847" ry="0.92161989"></ellipse>
                        <ellipse id="Oval" cx="292.85892" cy="73.4662713" rx="0.921151847" ry="0.92161989"></ellipse>
                        <ellipse id="Oval" cx="292.85892" cy="37.2597756" rx="0.921151847" ry="0.92161989"></ellipse>
                        <ellipse id="Oval" cx="292.85892" cy="0.92161989" rx="0.921151847" ry="0.92161989"></ellipse>
                        <ellipse id="Oval" cx="256.670812" cy="182.085758" rx="0.921151847" ry="0.92161989"></ellipse>
                        <ellipse id="Oval" cx="256.670812" cy="145.879263" rx="0.921151847" ry="0.92161989"></ellipse>
                        <ellipse id="Oval" cx="256.670812" cy="109.672767" rx="0.921151847" ry="0.92161989"></ellipse>
                        <ellipse id="Oval" cx="256.670812" cy="73.4662713" rx="0.921151847" ry="0.92161989"></ellipse>
                        <ellipse id="Oval" cx="256.670812" cy="37.2597756" rx="0.921151847" ry="0.92161989"></ellipse>
                        <ellipse id="Oval" cx="256.670812" cy="0.92161989" rx="0.921151847" ry="0.92161989"></ellipse>
                        <ellipse id="Oval" cx="220.482703" cy="182.085758" rx="0.921151847" ry="0.92161989"></ellipse>
                        <ellipse id="Oval" cx="220.482703" cy="145.879263" rx="0.921151847" ry="0.92161989"></ellipse>
                        <ellipse id="Oval" cx="220.482703" cy="109.672767" rx="0.921151847" ry="0.92161989"></ellipse>
                        <ellipse id="Oval" cx="220.482703" cy="73.4662713" rx="0.921151847" ry="0.92161989"></ellipse>
                        <ellipse id="Oval" cx="220.482703" cy="37.2597756" rx="0.921151847" ry="0.92161989"></ellipse>
                        <ellipse id="Oval" cx="220.482703" cy="0.92161989" rx="0.921151847" ry="0.92161989"></ellipse>
                    </g>
                    <g id="Block" transform="translate(436.087690, 0.000000)">
                        <ellipse id="Oval" cx="181.993286" cy="182.085758" rx="0.921151847" ry="0.92161989"></ellipse>
                        <ellipse id="Oval" cx="181.993286" cy="145.879263" rx="0.921151847" ry="0.92161989"></ellipse>
                        <ellipse id="Oval" cx="181.993286" cy="109.672767" rx="0.921151847" ry="0.92161989"></ellipse>
                        <ellipse id="Oval" cx="181.993286" cy="73.4662713" rx="0.921151847" ry="0.92161989"></ellipse>
                        <ellipse id="Oval" cx="181.993286" cy="37.2597756" rx="0.921151847" ry="0.92161989"></ellipse>
                        <ellipse id="Oval" cx="181.993286" cy="0.92161989" rx="0.921151847" ry="0.92161989"></ellipse>
                        <ellipse id="Oval" cx="145.673585" cy="182.085758" rx="0.921151847" ry="0.92161989"></ellipse>
                        <ellipse id="Oval" cx="145.673585" cy="145.879263" rx="0.921151847" ry="0.92161989"></ellipse>
                        <ellipse id="Oval" cx="145.673585" cy="109.672767" rx="0.921151847" ry="0.92161989"></ellipse>
                        <ellipse id="Oval" cx="145.673585" cy="73.4662713" rx="0.921151847" ry="0.92161989"></ellipse>
                        <ellipse id="Oval" cx="145.673585" cy="37.2597756" rx="0.921151847" ry="0.92161989"></ellipse>
                        <ellipse id="Oval" cx="145.673585" cy="0.92161989" rx="0.921151847" ry="0.92161989"></ellipse>
                        <ellipse id="Oval" cx="109.485477" cy="182.085758" rx="0.921151847" ry="0.92161989"></ellipse>
                        <ellipse id="Oval" cx="109.485477" cy="145.879263" rx="0.921151847" ry="0.92161989"></ellipse>
                        <ellipse id="Oval" cx="109.485477" cy="109.672767" rx="0.921151847" ry="0.92161989"></ellipse>
                        <ellipse id="Oval" cx="109.485477" cy="73.4662713" rx="0.921151847" ry="0.92161989"></ellipse>
                        <ellipse id="Oval" cx="109.485477" cy="37.2597756" rx="0.921151847" ry="0.92161989"></ellipse>
                        <ellipse id="Oval" cx="109.485477" cy="0.92161989" rx="0.921151847" ry="0.92161989"></ellipse>
                        <ellipse id="Oval" cx="73.2973684" cy="182.085758" rx="0.921151847" ry="0.92161989"></ellipse>
                        <ellipse id="Oval" cx="73.2973684" cy="145.879263" rx="0.921151847" ry="0.92161989"></ellipse>
                        <ellipse id="Oval" cx="73.2973684" cy="109.672767" rx="0.921151847" ry="0.92161989"></ellipse>
                        <ellipse id="Oval" cx="73.2973684" cy="73.4662713" rx="0.921151847" ry="0.92161989"></ellipse>
                        <ellipse id="Oval" cx="73.2973684" cy="37.2597756" rx="0.921151847" ry="0.92161989"></ellipse>
                        <ellipse id="Oval" cx="73.2973684" cy="0.92161989" rx="0.921151847" ry="0.92161989"></ellipse>
                        <ellipse id="Oval" cx="37.1092601" cy="182.085758" rx="0.921151847" ry="0.92161989"></ellipse>
                        <ellipse id="Oval" cx="37.1092601" cy="145.879263" rx="0.921151847" ry="0.92161989"></ellipse>
                        <ellipse id="Oval" cx="37.1092601" cy="109.672767" rx="0.921151847" ry="0.92161989"></ellipse>
                        <ellipse id="Oval" cx="37.1092601" cy="73.4662713" rx="0.921151847" ry="0.92161989"></ellipse>
                        <ellipse id="Oval" cx="37.1092601" cy="37.2597756" rx="0.921151847" ry="0.92161989"></ellipse>
                        <ellipse id="Oval" cx="37.1092601" cy="0.92161989" rx="0.921151847" ry="0.92161989"></ellipse>
                        <ellipse id="Oval" cx="0.921151847" cy="182.085758" rx="0.921151847" ry="0.92161989"></ellipse>
                        <ellipse id="Oval" cx="0.921151847" cy="145.879263" rx="0.921151847" ry="0.92161989"></ellipse>
                        <ellipse id="Oval" cx="0.921151847" cy="109.672767" rx="0.921151847" ry="0.92161989"></ellipse>
                        <ellipse id="Oval" cx="0.921151847" cy="73.4662713" rx="0.921151847" ry="0.92161989"></ellipse>
                        <ellipse id="Oval" cx="0.921151847" cy="37.2597756" rx="0.921151847" ry="0.92161989"></ellipse>
                        <ellipse id="Oval" cx="0.921151847" cy="0.92161989" rx="0.921151847" ry="0.92161989"></ellipse>
                        <ellipse id="Oval" cx="401.554838" cy="182.085758" rx="0.921151847" ry="0.92161989"></ellipse>
                        <ellipse id="Oval" cx="401.554838" cy="145.879263" rx="0.921151847" ry="0.92161989"></ellipse>
                        <ellipse id="Oval" cx="401.554838" cy="109.672767" rx="0.921151847" ry="0.92161989"></ellipse>
                        <ellipse id="Oval" cx="401.554838" cy="73.4662713" rx="0.921151847" ry="0.92161989"></ellipse>
                        <ellipse id="Oval" cx="401.554838" cy="37.2597756" rx="0.921151847" ry="0.92161989"></ellipse>
                        <ellipse id="Oval" cx="401.554838" cy="0.92161989" rx="0.921151847" ry="0.92161989"></ellipse>
                        <ellipse id="Oval" cx="365.235136" cy="182.085758" rx="0.921151847" ry="0.92161989"></ellipse>
                        <ellipse id="Oval" cx="365.235136" cy="145.879263" rx="0.921151847" ry="0.92161989"></ellipse>
                        <ellipse id="Oval" cx="365.235136" cy="109.672767" rx="0.921151847" ry="0.92161989"></ellipse>
                        <ellipse id="Oval" cx="365.235136" cy="73.4662713" rx="0.921151847" ry="0.92161989"></ellipse>
                        <ellipse id="Oval" cx="365.235136" cy="37.2597756" rx="0.921151847" ry="0.92161989"></ellipse>
                        <ellipse id="Oval" cx="365.235136" cy="0.92161989" rx="0.921151847" ry="0.92161989"></ellipse>
                        <ellipse id="Oval" cx="329.047028" cy="182.085758" rx="0.921151847" ry="0.92161989"></ellipse>
                        <ellipse id="Oval" cx="329.047028" cy="145.879263" rx="0.921151847" ry="0.92161989"></ellipse>
                        <ellipse id="Oval" cx="329.047028" cy="109.672767" rx="0.921151847" ry="0.92161989"></ellipse>
                        <ellipse id="Oval" cx="329.047028" cy="73.4662713" rx="0.921151847" ry="0.92161989"></ellipse>
                        <ellipse id="Oval" cx="329.047028" cy="37.2597756" rx="0.921151847" ry="0.92161989"></ellipse>
                        <ellipse id="Oval" cx="329.047028" cy="0.92161989" rx="0.921151847" ry="0.92161989"></ellipse>
                        <ellipse id="Oval" cx="292.85892" cy="182.085758" rx="0.921151847" ry="0.92161989"></ellipse>
                        <ellipse id="Oval" cx="292.85892" cy="145.879263" rx="0.921151847" ry="0.92161989"></ellipse>
                        <ellipse id="Oval" cx="292.85892" cy="109.672767" rx="0.921151847" ry="0.92161989"></ellipse>
                        <ellipse id="Oval" cx="292.85892" cy="73.4662713" rx="0.921151847" ry="0.92161989"></ellipse>
                        <ellipse id="Oval" cx="292.85892" cy="37.2597756" rx="0.921151847" ry="0.92161989"></ellipse>
                        <ellipse id="Oval" cx="292.85892" cy="0.92161989" rx="0.921151847" ry="0.92161989"></ellipse>
                        <ellipse id="Oval" cx="256.670812" cy="182.085758" rx="0.921151847" ry="0.92161989"></ellipse>
                        <ellipse id="Oval" cx="256.670812" cy="145.879263" rx="0.921151847" ry="0.92161989"></ellipse>
                        <ellipse id="Oval" cx="256.670812" cy="109.672767" rx="0.921151847" ry="0.92161989"></ellipse>
                        <ellipse id="Oval" cx="256.670812" cy="73.4662713" rx="0.921151847" ry="0.92161989"></ellipse>
                        <ellipse id="Oval" cx="256.670812" cy="37.2597756" rx="0.921151847" ry="0.92161989"></ellipse>
                        <ellipse id="Oval" cx="256.670812" cy="0.92161989" rx="0.921151847" ry="0.92161989"></ellipse>
                        <ellipse id="Oval" cx="220.482703" cy="182.085758" rx="0.921151847" ry="0.92161989"></ellipse>
                        <ellipse id="Oval" cx="220.482703" cy="145.879263" rx="0.921151847" ry="0.92161989"></ellipse>
                        <ellipse id="Oval" cx="220.482703" cy="109.672767" rx="0.921151847" ry="0.92161989"></ellipse>
                        <ellipse id="Oval" cx="220.482703" cy="73.4662713" rx="0.921151847" ry="0.92161989"></ellipse>
                        <ellipse id="Oval" cx="220.482703" cy="37.2597756" rx="0.921151847" ry="0.92161989"></ellipse>
                        <ellipse id="Oval" cx="220.482703" cy="0.92161989" rx="0.921151847" ry="0.92161989"></ellipse>
                    </g>
                    <g id="Block" transform="translate(436.087690, 213.490725)">
                        <ellipse id="Oval" cx="181.993286" cy="182.085758" rx="0.921151847" ry="0.92161989"></ellipse>
                        <ellipse id="Oval" cx="181.993286" cy="145.879263" rx="0.921151847" ry="0.92161989"></ellipse>
                        <ellipse id="Oval" cx="181.993286" cy="109.672767" rx="0.921151847" ry="0.92161989"></ellipse>
                        <ellipse id="Oval" cx="181.993286" cy="73.4662713" rx="0.921151847" ry="0.92161989"></ellipse>
                        <ellipse id="Oval" cx="181.993286" cy="37.2597756" rx="0.921151847" ry="0.92161989"></ellipse>
                        <ellipse id="Oval" cx="181.993286" cy="0.92161989" rx="0.921151847" ry="0.92161989"></ellipse>
                        <ellipse id="Oval" cx="145.673585" cy="182.085758" rx="0.921151847" ry="0.92161989"></ellipse>
                        <ellipse id="Oval" cx="145.673585" cy="145.879263" rx="0.921151847" ry="0.92161989"></ellipse>
                        <ellipse id="Oval" cx="145.673585" cy="109.672767" rx="0.921151847" ry="0.92161989"></ellipse>
                        <ellipse id="Oval" cx="145.673585" cy="73.4662713" rx="0.921151847" ry="0.92161989"></ellipse>
                        <ellipse id="Oval" cx="145.673585" cy="37.2597756" rx="0.921151847" ry="0.92161989"></ellipse>
                        <ellipse id="Oval" cx="145.673585" cy="0.92161989" rx="0.921151847" ry="0.92161989"></ellipse>
                        <ellipse id="Oval" cx="109.485477" cy="182.085758" rx="0.921151847" ry="0.92161989"></ellipse>
                        <ellipse id="Oval" cx="109.485477" cy="145.879263" rx="0.921151847" ry="0.92161989"></ellipse>
                        <ellipse id="Oval" cx="109.485477" cy="109.672767" rx="0.921151847" ry="0.92161989"></ellipse>
                        <ellipse id="Oval" cx="109.485477" cy="73.4662713" rx="0.921151847" ry="0.92161989"></ellipse>
                        <ellipse id="Oval" cx="109.485477" cy="37.2597756" rx="0.921151847" ry="0.92161989"></ellipse>
                        <ellipse id="Oval" cx="109.485477" cy="0.92161989" rx="0.921151847" ry="0.92161989"></ellipse>
                        <ellipse id="Oval" cx="73.2973684" cy="182.085758" rx="0.921151847" ry="0.92161989"></ellipse>
                        <ellipse id="Oval" cx="73.2973684" cy="145.879263" rx="0.921151847" ry="0.92161989"></ellipse>
                        <ellipse id="Oval" cx="73.2973684" cy="109.672767" rx="0.921151847" ry="0.92161989"></ellipse>
                        <ellipse id="Oval" cx="73.2973684" cy="73.4662713" rx="0.921151847" ry="0.92161989"></ellipse>
                        <ellipse id="Oval" cx="73.2973684" cy="37.2597756" rx="0.921151847" ry="0.92161989"></ellipse>
                        <ellipse id="Oval" cx="73.2973684" cy="0.92161989" rx="0.921151847" ry="0.92161989"></ellipse>
                        <ellipse id="Oval" cx="37.1092601" cy="182.085758" rx="0.921151847" ry="0.92161989"></ellipse>
                        <ellipse id="Oval" cx="37.1092601" cy="145.879263" rx="0.921151847" ry="0.92161989"></ellipse>
                        <ellipse id="Oval" cx="37.1092601" cy="109.672767" rx="0.921151847" ry="0.92161989"></ellipse>
                        <ellipse id="Oval" cx="37.1092601" cy="73.4662713" rx="0.921151847" ry="0.92161989"></ellipse>
                        <ellipse id="Oval" cx="37.1092601" cy="37.2597756" rx="0.921151847" ry="0.92161989"></ellipse>
                        <ellipse id="Oval" cx="37.1092601" cy="0.92161989" rx="0.921151847" ry="0.92161989"></ellipse>
                        <ellipse id="Oval" cx="0.921151847" cy="182.085758" rx="0.921151847" ry="0.92161989"></ellipse>
                        <ellipse id="Oval" cx="0.921151847" cy="145.879263" rx="0.921151847" ry="0.92161989"></ellipse>
                        <ellipse id="Oval" cx="0.921151847" cy="109.672767" rx="0.921151847" ry="0.92161989"></ellipse>
                        <ellipse id="Oval" cx="0.921151847" cy="73.4662713" rx="0.921151847" ry="0.92161989"></ellipse>
                        <ellipse id="Oval" cx="0.921151847" cy="37.2597756" rx="0.921151847" ry="0.92161989"></ellipse>
                        <ellipse id="Oval" cx="0.921151847" cy="0.92161989" rx="0.921151847" ry="0.92161989"></ellipse>
                        <ellipse id="Oval" cx="401.554838" cy="182.085758" rx="0.921151847" ry="0.92161989"></ellipse>
                        <ellipse id="Oval" cx="401.554838" cy="145.879263" rx="0.921151847" ry="0.92161989"></ellipse>
                        <ellipse id="Oval" cx="401.554838" cy="109.672767" rx="0.921151847" ry="0.92161989"></ellipse>
                        <ellipse id="Oval" cx="401.554838" cy="73.4662713" rx="0.921151847" ry="0.92161989"></ellipse>
                        <ellipse id="Oval" cx="401.554838" cy="37.2597756" rx="0.921151847" ry="0.92161989"></ellipse>
                        <ellipse id="Oval" cx="401.554838" cy="0.92161989" rx="0.921151847" ry="0.92161989"></ellipse>
                        <ellipse id="Oval" cx="365.235136" cy="182.085758" rx="0.921151847" ry="0.92161989"></ellipse>
                        <ellipse id="Oval" cx="365.235136" cy="145.879263" rx="0.921151847" ry="0.92161989"></ellipse>
                        <ellipse id="Oval" cx="365.235136" cy="109.672767" rx="0.921151847" ry="0.92161989"></ellipse>
                        <ellipse id="Oval" cx="365.235136" cy="73.4662713" rx="0.921151847" ry="0.92161989"></ellipse>
                        <ellipse id="Oval" cx="365.235136" cy="37.2597756" rx="0.921151847" ry="0.92161989"></ellipse>
                        <ellipse id="Oval" cx="365.235136" cy="0.92161989" rx="0.921151847" ry="0.92161989"></ellipse>
                        <ellipse id="Oval" cx="329.047028" cy="182.085758" rx="0.921151847" ry="0.92161989"></ellipse>
                        <ellipse id="Oval" cx="329.047028" cy="145.879263" rx="0.921151847" ry="0.92161989"></ellipse>
                        <ellipse id="Oval" cx="329.047028" cy="109.672767" rx="0.921151847" ry="0.92161989"></ellipse>
                        <ellipse id="Oval" cx="329.047028" cy="73.4662713" rx="0.921151847" ry="0.92161989"></ellipse>
                        <ellipse id="Oval" cx="329.047028" cy="37.2597756" rx="0.921151847" ry="0.92161989"></ellipse>
                        <ellipse id="Oval" cx="329.047028" cy="0.92161989" rx="0.921151847" ry="0.92161989"></ellipse>
                        <ellipse id="Oval" cx="292.85892" cy="182.085758" rx="0.921151847" ry="0.92161989"></ellipse>
                        <ellipse id="Oval" cx="292.85892" cy="145.879263" rx="0.921151847" ry="0.92161989"></ellipse>
                        <ellipse id="Oval" cx="292.85892" cy="109.672767" rx="0.921151847" ry="0.92161989"></ellipse>
                        <ellipse id="Oval" cx="292.85892" cy="73.4662713" rx="0.921151847" ry="0.92161989"></ellipse>
                        <ellipse id="Oval" cx="292.85892" cy="37.2597756" rx="0.921151847" ry="0.92161989"></ellipse>
                        <ellipse id="Oval" cx="292.85892" cy="0.92161989" rx="0.921151847" ry="0.92161989"></ellipse>
                        <ellipse id="Oval" cx="256.670812" cy="182.085758" rx="0.921151847" ry="0.92161989"></ellipse>
                        <ellipse id="Oval" cx="256.670812" cy="145.879263" rx="0.921151847" ry="0.92161989"></ellipse>
                        <ellipse id="Oval" cx="256.670812" cy="109.672767" rx="0.921151847" ry="0.92161989"></ellipse>
                        <ellipse id="Oval" cx="256.670812" cy="73.4662713" rx="0.921151847" ry="0.92161989"></ellipse>
                        <ellipse id="Oval" cx="256.670812" cy="37.2597756" rx="0.921151847" ry="0.92161989"></ellipse>
                        <ellipse id="Oval" cx="256.670812" cy="0.92161989" rx="0.921151847" ry="0.92161989"></ellipse>
                        <ellipse id="Oval" cx="220.482703" cy="182.085758" rx="0.921151847" ry="0.92161989"></ellipse>
                        <ellipse id="Oval" cx="220.482703" cy="145.879263" rx="0.921151847" ry="0.92161989"></ellipse>
                        <ellipse id="Oval" cx="220.482703" cy="109.672767" rx="0.921151847" ry="0.92161989"></ellipse>
                        <ellipse id="Oval" cx="220.482703" cy="73.4662713" rx="0.921151847" ry="0.92161989"></ellipse>
                        <ellipse id="Oval" cx="220.482703" cy="37.2597756" rx="0.921151847" ry="0.92161989"></ellipse>
                        <ellipse id="Oval" cx="220.482703" cy="0.92161989" rx="0.921151847" ry="0.92161989"></ellipse>
                    </g>
                    <g id="Block" transform="translate(869.139966, 0.000000)">
                        <ellipse id="Oval" cx="0.921151847" cy="182.085758" rx="0.921151847" ry="0.92161989"></ellipse>
                        <ellipse id="Oval" cx="0.921151847" cy="145.879263" rx="0.921151847" ry="0.92161989"></ellipse>
                        <ellipse id="Oval" cx="0.921151847" cy="109.672767" rx="0.921151847" ry="0.92161989"></ellipse>
                        <ellipse id="Oval" cx="0.921151847" cy="73.4662713" rx="0.921151847" ry="0.92161989"></ellipse>
                        <ellipse id="Oval" cx="0.921151847" cy="37.2597756" rx="0.921151847" ry="0.92161989"></ellipse>
                        <ellipse id="Oval" cx="0.921151847" cy="0.92161989" rx="0.921151847" ry="0.92161989"></ellipse>
                    </g>
                    <g id="Block" transform="translate(869.139966, 213.490725)">
                        <ellipse id="Oval" cx="0.921151847" cy="182.085758" rx="0.921151847" ry="0.92161989"></ellipse>
                        <ellipse id="Oval" cx="0.921151847" cy="145.879263" rx="0.921151847" ry="0.92161989"></ellipse>
                        <ellipse id="Oval" cx="0.921151847" cy="109.672767" rx="0.921151847" ry="0.92161989"></ellipse>
                        <ellipse id="Oval" cx="0.921151847" cy="73.4662713" rx="0.921151847" ry="0.92161989"></ellipse>
                        <ellipse id="Oval" cx="0.921151847" cy="37.2597756" rx="0.921151847" ry="0.92161989"></ellipse>
                        <ellipse id="Oval" cx="0.921151847" cy="0.92161989" rx="0.921151847" ry="0.92161989"></ellipse>
                    </g>
                </g>
                <path d="M547,38 L581,38 L581,72 L547,71.9999993 L547,38 Z" id="Rectangle-path-Copy-22" fill="#5AC2B3" style="mix-blend-mode: darken;"></path>
                <path d="M56.5030377,126.496962 C31.8323208,101.826245 31.8323208,61.6707169 56.5030377,37 L146,126.496962 C121.329283,151.167679 81.1737546,151.167679 56.5030377,126.496962 Z" id="Shape-Copy-32" fill="#F47F50" style="mix-blend-mode: darken;" transform="translate(92.000000, 91.000000) scale(-1, -1) rotate(-90.000000) translate(-92.000000, -91.000000) "></path>
                <path d="M396,182 L396,250.999997 L327,251 L396,182 Z" id="Shape-Copy-25" fill="#7ABDDF" style="mix-blend-mode: darken;" transform="translate(361.500000, 216.500000) scale(-1, 1) translate(-361.500000, -216.500000) "></path>
                <rect id="Rectangle-843" fill="#FFFFFF" x="45" y="263" width="274" height="72"></rect>
                <text id="All-Work" font-family="Sofia, Avenir, Helvetica Neue, Arial, sans-serif" font-size="60" font-weight="bold" line-spacing="72" fill="#182226">
                    <tspan x="71" y="332">All Work</tspan>
                </text>
                <path d="M868,73 L795,73 L795,109 L868,109 L868,73 Z" id="Fill-6" fill="#FCD319" style="mix-blend-mode: darken;"></path>
                <path d="M728,306 C728,275.624722 703.375278,251 673,251 C642.624722,251 618,275.624722 618,306 C618,336.375278 642.624722,361 673,361 C703.375278,361 728,336.375278 728,306" id="Fill-14" fill="#EF4962" style="mix-blend-mode: darken;"></path>
            </g>
        </g>
    </g>
</svg>