<?xml version="1.0" encoding="UTF-8" standalone="no"?>
<svg width="48px" height="48px" viewBox="0 0 48 48" version="1.1" xmlns="http://www.w3.org/2000/svg" xmlns:xlink="http://www.w3.org/1999/xlink" xmlns:sketch="http://www.bohemiancoding.com/sketch/ns">
    <!-- Generator: Sketch 3.5.2 (25235) - http://www.bohemiancoding.com/sketch -->
    <title>arrow-down</title>
    <desc>Created with Sketch.</desc>
    <defs></defs>
    <g id="Page-1" stroke="none" stroke-width="1" fill="none" fill-rule="evenodd" sketch:type="MSPage">
        <g id="arrow-down" sketch:type="MSArtboardGroup" fill="#FFFFFF">
            <path d="M34.8601596,24.8611111 C34.9990485,24.7222222 35.0268263,24.5 34.9712707,24.3055556 C34.8879374,24.1111111 34.6934929,24 34.4990485,24 L27.9990485,24 L27.9990485,12.5 C27.9990485,12.2222222 27.7768263,12 27.4990485,12 L19.4990485,12 C19.2212707,12 18.9990485,12.2222222 18.9990485,12.5 L18.9990485,24 L12.4990485,24 C12.304604,24 12.1101596,24.1111111 12.0268263,24.3055556 C11.9712707,24.5 11.9990485,24.7222222 12.1379374,24.8611111 L23.1379374,35.8611111 C23.2490485,35.9444444 23.3601596,36 23.4990485,36 C23.6379374,36 23.7490485,35.9444444 23.8601596,35.8611111 L34.8601596,24.8611111 Z" id="down" sketch:type="MSShapeGroup"></path>
        </g>
    </g>
</svg>