<?xml version="1.0" encoding="UTF-8" standalone="no"?>
<svg width="48px" height="48px" viewBox="0 0 48 48" version="1.1" xmlns="http://www.w3.org/2000/svg" xmlns:xlink="http://www.w3.org/1999/xlink" xmlns:sketch="http://www.bohemiancoding.com/sketch/ns">
    <!-- Generator: Sketch 3.5.2 (25235) - http://www.bohemiancoding.com/sketch -->
    <title>calendar</title>
    <desc>Created with Sketch.</desc>
    <defs></defs>
    <g id="Page-1" stroke="none" stroke-width="1" fill="none" fill-rule="evenodd" sketch:type="MSPage">
        <g id="calendar" sketch:type="MSArtboardGroup" fill="#EF4862">
            <path d="M37.125,9 L34.625,9 L34.625,12.75 C34.625,13.7916667 33.7916667,14.625 32.75,14.625 C31.7083333,14.625 30.875,13.7916667 30.875,12.75 L30.875,9 L17.125,9 L17.125,12.75 C17.125,13.7916667 16.2916667,14.625 15.25,14.625 C14.2083333,14.625 13.375,13.7916667 13.375,12.75 L13.375,9 L10.875,9 C9.83333333,9 9,9.83333333 9,10.875 L9,37.125 C9,38.1666667 9.83333333,39 10.875,39 L37.125,39 C38.1666667,39 39,38.1666667 39,37.125 L39,10.875 C39,9.83333333 38.1666667,9 37.125,9 L37.125,9 Z M18.375,34.625 L13.375,34.625 L13.375,29.625 L18.375,29.625 L18.375,34.625 Z M18.375,25.875 L13.375,25.875 L13.375,20.875 L18.375,20.875 L18.375,25.875 Z M26.5,34.625 L21.5,34.625 L21.5,29.625 L26.5,29.625 L26.5,34.625 Z M26.5,25.875 L21.5,25.875 L21.5,20.875 L26.5,20.875 L26.5,25.875 Z M34.625,34.625 L29.625,34.625 L29.625,29.625 L34.625,29.625 L34.625,34.625 Z M34.625,25.875 L29.625,25.875 L29.625,20.875 L34.625,20.875 L34.625,25.875 Z" sketch:type="MSShapeGroup"></path>
        </g>
    </g>
</svg>