<?xml version="1.0" encoding="UTF-8" standalone="no"?>
<svg width="290px" height="128px" viewBox="0 0 290 128" version="1.1" xmlns="http://www.w3.org/2000/svg" xmlns:xlink="http://www.w3.org/1999/xlink">
    <!-- Generator: Sketch 3.6.1 (26313) - http://www.bohemiancoding.com/sketch -->
    <title>communication-mobile</title>
    <desc>Created with Sketch.</desc>
    <defs></defs>
    <g id="Page-1" stroke="none" stroke-width="1" fill="none" fill-rule="evenodd">
        <g id="communication-mobile">
            <g id="Communication-Banner" transform="translate(1.000000, 1.000000)">
                <g id="Block" stroke="#000000" stroke-width="2" fill="#000000">
                    <ellipse id="Oval" cx="89.9070536" cy="90.5079621" rx="0.455061009" ry="0.458102484"></ellipse>
                    <ellipse id="Oval" cx="89.9070536" cy="72.5110788" rx="0.455061009" ry="0.458102484"></ellipse>
                    <ellipse id="Oval" cx="89.9070536" cy="54.5141956" rx="0.455061009" ry="0.458102484"></ellipse>
                    <ellipse id="Oval" cx="89.9070536" cy="36.5173123" rx="0.455061009" ry="0.458102484"></ellipse>
                    <ellipse id="Oval" cx="89.9070536" cy="18.520429" rx="0.455061009" ry="0.458102484"></ellipse>
                    <ellipse id="Oval" cx="89.9070536" cy="0.458102484" rx="0.455061009" ry="0.458102484"></ellipse>
                    <ellipse id="Oval" cx="71.9646481" cy="90.5079621" rx="0.455061009" ry="0.458102484"></ellipse>
                    <ellipse id="Oval" cx="71.9646481" cy="72.5110788" rx="0.455061009" ry="0.458102484"></ellipse>
                    <ellipse id="Oval" cx="71.9646481" cy="54.5141956" rx="0.455061009" ry="0.458102484"></ellipse>
                    <ellipse id="Oval" cx="71.9646481" cy="36.5173123" rx="0.455061009" ry="0.458102484"></ellipse>
                    <ellipse id="Oval" cx="71.9646481" cy="18.520429" rx="0.455061009" ry="0.458102484"></ellipse>
                    <ellipse id="Oval" cx="71.9646481" cy="0.458102484" rx="0.455061009" ry="0.458102484"></ellipse>
                    <ellipse id="Oval" cx="54.0872513" cy="90.5079621" rx="0.455061009" ry="0.458102484"></ellipse>
                    <ellipse id="Oval" cx="54.0872513" cy="72.5110788" rx="0.455061009" ry="0.458102484"></ellipse>
                    <ellipse id="Oval" cx="54.0872513" cy="54.5141956" rx="0.455061009" ry="0.458102484"></ellipse>
                    <ellipse id="Oval" cx="54.0872513" cy="36.5173123" rx="0.455061009" ry="0.458102484"></ellipse>
                    <ellipse id="Oval" cx="54.0872513" cy="18.520429" rx="0.455061009" ry="0.458102484"></ellipse>
                    <ellipse id="Oval" cx="54.0872513" cy="0.458102484" rx="0.455061009" ry="0.458102484"></ellipse>
                    <ellipse id="Oval" cx="36.2098546" cy="90.5079621" rx="0.455061009" ry="0.458102484"></ellipse>
                    <ellipse id="Oval" cx="36.2098546" cy="72.5110788" rx="0.455061009" ry="0.458102484"></ellipse>
                    <ellipse id="Oval" cx="36.2098546" cy="54.5141956" rx="0.455061009" ry="0.458102484"></ellipse>
                    <ellipse id="Oval" cx="36.2098546" cy="36.5173123" rx="0.455061009" ry="0.458102484"></ellipse>
                    <ellipse id="Oval" cx="36.2098546" cy="18.520429" rx="0.455061009" ry="0.458102484"></ellipse>
                    <ellipse id="Oval" cx="36.2098546" cy="0.458102484" rx="0.455061009" ry="0.458102484"></ellipse>
                    <ellipse id="Oval" cx="18.3324578" cy="90.5079621" rx="0.455061009" ry="0.458102484"></ellipse>
                    <ellipse id="Oval" cx="18.3324578" cy="72.5110788" rx="0.455061009" ry="0.458102484"></ellipse>
                    <ellipse id="Oval" cx="18.3324578" cy="54.5141956" rx="0.455061009" ry="0.458102484"></ellipse>
                    <ellipse id="Oval" cx="18.3324578" cy="36.5173123" rx="0.455061009" ry="0.458102484"></ellipse>
                    <ellipse id="Oval" cx="18.3324578" cy="18.520429" rx="0.455061009" ry="0.458102484"></ellipse>
                    <ellipse id="Oval" cx="18.3324578" cy="0.458102484" rx="0.455061009" ry="0.458102484"></ellipse>
                    <ellipse id="Oval" cx="0.455061009" cy="90.5079621" rx="0.455061009" ry="0.458102484"></ellipse>
                    <ellipse id="Oval" cx="0.455061009" cy="72.5110788" rx="0.455061009" ry="0.458102484"></ellipse>
                    <ellipse id="Oval" cx="0.455061009" cy="54.5141956" rx="0.455061009" ry="0.458102484"></ellipse>
                    <ellipse id="Oval" cx="0.455061009" cy="36.5173123" rx="0.455061009" ry="0.458102484"></ellipse>
                    <ellipse id="Oval" cx="0.455061009" cy="18.520429" rx="0.455061009" ry="0.458102484"></ellipse>
                    <ellipse id="Oval" cx="0.455061009" cy="0.458102484" rx="0.455061009" ry="0.458102484"></ellipse>
                    <ellipse id="Oval" cx="198.373319" cy="90.5079621" rx="0.455061009" ry="0.458102484"></ellipse>
                    <ellipse id="Oval" cx="198.373319" cy="72.5110788" rx="0.455061009" ry="0.458102484"></ellipse>
                    <ellipse id="Oval" cx="198.373319" cy="54.5141956" rx="0.455061009" ry="0.458102484"></ellipse>
                    <ellipse id="Oval" cx="198.373319" cy="36.5173123" rx="0.455061009" ry="0.458102484"></ellipse>
                    <ellipse id="Oval" cx="198.373319" cy="18.520429" rx="0.455061009" ry="0.458102484"></ellipse>
                    <ellipse id="Oval" cx="198.373319" cy="0.458102484" rx="0.455061009" ry="0.458102484"></ellipse>
                    <ellipse id="Oval" cx="215.769293" cy="90.5079621" rx="0.455061009" ry="0.458102484"></ellipse>
                    <ellipse id="Oval" cx="215.769293" cy="72.5110788" rx="0.455061009" ry="0.458102484"></ellipse>
                    <ellipse id="Oval" cx="215.769293" cy="54.5141956" rx="0.455061009" ry="0.458102484"></ellipse>
                    <ellipse id="Oval" cx="215.769293" cy="36.5173123" rx="0.455061009" ry="0.458102484"></ellipse>
                    <ellipse id="Oval" cx="215.769293" cy="18.520429" rx="0.455061009" ry="0.458102484"></ellipse>
                    <ellipse id="Oval" cx="215.769293" cy="0.458102484" rx="0.455061009" ry="0.458102484"></ellipse>
                    <ellipse id="Oval" cx="233.165266" cy="90.5079621" rx="0.455061009" ry="0.458102484"></ellipse>
                    <ellipse id="Oval" cx="233.165266" cy="72.5110788" rx="0.455061009" ry="0.458102484"></ellipse>
                    <ellipse id="Oval" cx="233.165266" cy="54.5141956" rx="0.455061009" ry="0.458102484"></ellipse>
                    <ellipse id="Oval" cx="233.165266" cy="36.5173123" rx="0.455061009" ry="0.458102484"></ellipse>
                    <ellipse id="Oval" cx="233.165266" cy="18.520429" rx="0.455061009" ry="0.458102484"></ellipse>
                    <ellipse id="Oval" cx="233.165266" cy="0.458102484" rx="0.455061009" ry="0.458102484"></ellipse>
                    <ellipse id="Oval" cx="250.561239" cy="90.5079621" rx="0.455061009" ry="0.458102484"></ellipse>
                    <ellipse id="Oval" cx="250.561239" cy="72.5110788" rx="0.455061009" ry="0.458102484"></ellipse>
                    <ellipse id="Oval" cx="250.561239" cy="54.5141956" rx="0.455061009" ry="0.458102484"></ellipse>
                    <ellipse id="Oval" cx="250.561239" cy="36.5173123" rx="0.455061009" ry="0.458102484"></ellipse>
                    <ellipse id="Oval" cx="250.561239" cy="18.520429" rx="0.455061009" ry="0.458102484"></ellipse>
                    <ellipse id="Oval" cx="250.561239" cy="0.458102484" rx="0.455061009" ry="0.458102484"></ellipse>
                    <ellipse id="Oval" cx="267.957212" cy="90.5079621" rx="0.455061009" ry="0.458102484"></ellipse>
                    <ellipse id="Oval" cx="267.957212" cy="72.5110788" rx="0.455061009" ry="0.458102484"></ellipse>
                    <ellipse id="Oval" cx="267.957212" cy="54.5141956" rx="0.455061009" ry="0.458102484"></ellipse>
                    <ellipse id="Oval" cx="267.957212" cy="36.5173123" rx="0.455061009" ry="0.458102484"></ellipse>
                    <ellipse id="Oval" cx="267.957212" cy="18.520429" rx="0.455061009" ry="0.458102484"></ellipse>
                    <ellipse id="Oval" cx="267.957212" cy="0.458102484" rx="0.455061009" ry="0.458102484"></ellipse>
                    <ellipse id="Oval" cx="287.286071" cy="90.5079621" rx="0.455061009" ry="0.458102484"></ellipse>
                    <ellipse id="Oval" cx="287.286071" cy="72.5110788" rx="0.455061009" ry="0.458102484"></ellipse>
                    <ellipse id="Oval" cx="287.286071" cy="54.5141956" rx="0.455061009" ry="0.458102484"></ellipse>
                    <ellipse id="Oval" cx="287.286071" cy="36.5173123" rx="0.455061009" ry="0.458102484"></ellipse>
                    <ellipse id="Oval" cx="287.286071" cy="18.520429" rx="0.455061009" ry="0.458102484"></ellipse>
                    <ellipse id="Oval" cx="287.286071" cy="0.458102484" rx="0.455061009" ry="0.458102484"></ellipse>
                    <ellipse id="Oval" cx="180.430914" cy="90.5079621" rx="0.455061009" ry="0.458102484"></ellipse>
                    <ellipse id="Oval" cx="180.430914" cy="72.5110788" rx="0.455061009" ry="0.458102484"></ellipse>
                    <ellipse id="Oval" cx="180.430914" cy="54.5141956" rx="0.455061009" ry="0.458102484"></ellipse>
                    <ellipse id="Oval" cx="180.430914" cy="36.5173123" rx="0.455061009" ry="0.458102484"></ellipse>
                    <ellipse id="Oval" cx="180.430914" cy="18.520429" rx="0.455061009" ry="0.458102484"></ellipse>
                    <ellipse id="Oval" cx="180.430914" cy="0.458102484" rx="0.455061009" ry="0.458102484"></ellipse>
                    <ellipse id="Oval" cx="162.553517" cy="90.5079621" rx="0.455061009" ry="0.458102484"></ellipse>
                    <ellipse id="Oval" cx="162.553517" cy="72.5110788" rx="0.455061009" ry="0.458102484"></ellipse>
                    <ellipse id="Oval" cx="162.553517" cy="54.5141956" rx="0.455061009" ry="0.458102484"></ellipse>
                    <ellipse id="Oval" cx="162.553517" cy="36.5173123" rx="0.455061009" ry="0.458102484"></ellipse>
                    <ellipse id="Oval" cx="162.553517" cy="18.520429" rx="0.455061009" ry="0.458102484"></ellipse>
                    <ellipse id="Oval" cx="162.553517" cy="0.458102484" rx="0.455061009" ry="0.458102484"></ellipse>
                    <ellipse id="Oval" cx="144.67612" cy="90.5079621" rx="0.455061009" ry="0.458102484"></ellipse>
                    <ellipse id="Oval" cx="144.67612" cy="72.5110788" rx="0.455061009" ry="0.458102484"></ellipse>
                    <ellipse id="Oval" cx="144.67612" cy="54.5141956" rx="0.455061009" ry="0.458102484"></ellipse>
                    <ellipse id="Oval" cx="144.67612" cy="36.5173123" rx="0.455061009" ry="0.458102484"></ellipse>
                    <ellipse id="Oval" cx="144.67612" cy="18.520429" rx="0.455061009" ry="0.458102484"></ellipse>
                    <ellipse id="Oval" cx="144.67612" cy="0.458102484" rx="0.455061009" ry="0.458102484"></ellipse>
                    <ellipse id="Oval" cx="126.798724" cy="90.5079621" rx="0.455061009" ry="0.458102484"></ellipse>
                    <ellipse id="Oval" cx="126.798724" cy="72.5110788" rx="0.455061009" ry="0.458102484"></ellipse>
                    <ellipse id="Oval" cx="126.798724" cy="54.5141956" rx="0.455061009" ry="0.458102484"></ellipse>
                    <ellipse id="Oval" cx="126.798724" cy="36.5173123" rx="0.455061009" ry="0.458102484"></ellipse>
                    <ellipse id="Oval" cx="126.798724" cy="18.520429" rx="0.455061009" ry="0.458102484"></ellipse>
                    <ellipse id="Oval" cx="126.798724" cy="0.458102484" rx="0.455061009" ry="0.458102484"></ellipse>
                    <ellipse id="Oval" cx="108.921327" cy="90.5079621" rx="0.455061009" ry="0.458102484"></ellipse>
                    <ellipse id="Oval" cx="89.9070536" cy="108.021476" rx="0.455061009" ry="0.458102484"></ellipse>
                    <ellipse id="Oval" cx="71.9646481" cy="108.021476" rx="0.455061009" ry="0.458102484"></ellipse>
                    <ellipse id="Oval" cx="54.0872513" cy="108.021476" rx="0.455061009" ry="0.458102484"></ellipse>
                    <ellipse id="Oval" cx="36.2098546" cy="108.021476" rx="0.455061009" ry="0.458102484"></ellipse>
                    <ellipse id="Oval" cx="18.3324578" cy="108.021476" rx="0.455061009" ry="0.458102484"></ellipse>
                    <ellipse id="Oval" cx="0.455061009" cy="108.021476" rx="0.455061009" ry="0.458102484"></ellipse>
                    <ellipse id="Oval" cx="198.373319" cy="108.021476" rx="0.455061009" ry="0.458102484"></ellipse>
                    <ellipse id="Oval" cx="215.769293" cy="108.021476" rx="0.455061009" ry="0.458102484"></ellipse>
                    <ellipse id="Oval" cx="233.165266" cy="108.021476" rx="0.455061009" ry="0.458102484"></ellipse>
                    <ellipse id="Oval" cx="250.561239" cy="108.021476" rx="0.455061009" ry="0.458102484"></ellipse>
                    <ellipse id="Oval" cx="267.957212" cy="108.021476" rx="0.455061009" ry="0.458102484"></ellipse>
                    <ellipse id="Oval" cx="287.286071" cy="108.021476" rx="0.455061009" ry="0.458102484"></ellipse>
                    <ellipse id="Oval" cx="180.430914" cy="108.021476" rx="0.455061009" ry="0.458102484"></ellipse>
                    <ellipse id="Oval" cx="162.553517" cy="108.021476" rx="0.455061009" ry="0.458102484"></ellipse>
                    <ellipse id="Oval" cx="144.67612" cy="108.021476" rx="0.455061009" ry="0.458102484"></ellipse>
                    <ellipse id="Oval" cx="126.798724" cy="108.021476" rx="0.455061009" ry="0.458102484"></ellipse>
                    <ellipse id="Oval" cx="108.921327" cy="108.021476" rx="0.455061009" ry="0.458102484"></ellipse>
                    <ellipse id="Oval" cx="89.9070536" cy="125.534989" rx="0.455061009" ry="0.458102484"></ellipse>
                    <ellipse id="Oval" cx="71.9646481" cy="125.534989" rx="0.455061009" ry="0.458102484"></ellipse>
                    <ellipse id="Oval" cx="54.0872513" cy="125.534989" rx="0.455061009" ry="0.458102484"></ellipse>
                    <ellipse id="Oval" cx="36.2098546" cy="125.534989" rx="0.455061009" ry="0.458102484"></ellipse>
                    <ellipse id="Oval" cx="18.3324578" cy="125.534989" rx="0.455061009" ry="0.458102484"></ellipse>
                    <ellipse id="Oval" cx="0.455061009" cy="125.534989" rx="0.455061009" ry="0.458102484"></ellipse>
                    <ellipse id="Oval" cx="198.373319" cy="125.534989" rx="0.455061009" ry="0.458102484"></ellipse>
                    <ellipse id="Oval" cx="215.769293" cy="125.534989" rx="0.455061009" ry="0.458102484"></ellipse>
                    <ellipse id="Oval" cx="233.165266" cy="125.534989" rx="0.455061009" ry="0.458102484"></ellipse>
                    <ellipse id="Oval" cx="250.561239" cy="125.534989" rx="0.455061009" ry="0.458102484"></ellipse>
                    <ellipse id="Oval" cx="267.957212" cy="125.534989" rx="0.455061009" ry="0.458102484"></ellipse>
                    <ellipse id="Oval" cx="287.286071" cy="125.534989" rx="0.455061009" ry="0.458102484"></ellipse>
                    <ellipse id="Oval" cx="180.430914" cy="125.534989" rx="0.455061009" ry="0.458102484"></ellipse>
                    <ellipse id="Oval" cx="162.553517" cy="125.534989" rx="0.455061009" ry="0.458102484"></ellipse>
                    <ellipse id="Oval" cx="144.67612" cy="125.534989" rx="0.455061009" ry="0.458102484"></ellipse>
                    <ellipse id="Oval" cx="126.798724" cy="125.534989" rx="0.455061009" ry="0.458102484"></ellipse>
                    <ellipse id="Oval" cx="108.921327" cy="125.534989" rx="0.455061009" ry="0.458102484"></ellipse>
                    <ellipse id="Oval" cx="108.921327" cy="72.5110788" rx="0.455061009" ry="0.458102484"></ellipse>
                    <ellipse id="Oval" cx="108.921327" cy="54.5141956" rx="0.455061009" ry="0.458102484"></ellipse>
                    <ellipse id="Oval" cx="108.921327" cy="36.5173123" rx="0.455061009" ry="0.458102484"></ellipse>
                    <ellipse id="Oval" cx="108.921327" cy="18.520429" rx="0.455061009" ry="0.458102484"></ellipse>
                    <ellipse id="Oval" cx="108.921327" cy="0.458102484" rx="0.455061009" ry="0.458102484"></ellipse>
                </g>
                <path d="M36,36 L36,53.5135127 L18.4864865,53.5135135 L36,36 Z" id="Shape-Copy-25" fill="#5AC2B3" style="mix-blend-mode: darken;" transform="translate(27.243243, 44.756757) scale(-1, 1) translate(-27.243243, -44.756757) "></path>
                <rect id="Rectangle-886" fill="#FFFFFF" x="2.35135135" y="74.9189189" width="187.783784" height="31.1351351"></rect>
                <text id="Communication" font-family="Sofia, Avenir, Helvetica Neue, Arial, sans-serif" font-size="24" font-weight="bold" line-spacing="32" fill="#182226">
                    <tspan x="12.0810811" y="98.8918919">Communication</tspan>
                </text>
                <path d="M233.513514,36 L180,36 L180,54.4864865 L233.513514,54.4864865 L233.513514,36 Z" id="Fill-6" fill="#7CBDDF" style="mix-blend-mode: darken;"></path>
                <path d="M198,18.4864865 C188.059,18.4864865 180,26.5454865 180,36.4864865 C180,46.4274865 188.059,54.4864865 198,54.4864865 C207.941,54.4864865 216,46.4274865 216,36.4864865 C216,26.5454865 207.941,18.4864865 198,18.4864865 Z" id="Fill-14" fill="#EF4962" style="mix-blend-mode: darken;"></path>
                <path d="M250.054054,89.5135135 L268.540541,89.5135135 L268.540541,108 L250.054054,108 L250.054054,89.5135135 Z" id="Rectangle-path-Copy-22" fill="#FCD315" style="mix-blend-mode: darken;"></path>
            </g>
        </g>
    </g>
</svg>