<?xml version="1.0" encoding="UTF-8" standalone="no"?>
<svg width="244px" height="144px" viewBox="0 0 244 144" version="1.1" xmlns="http://www.w3.org/2000/svg" xmlns:xlink="http://www.w3.org/1999/xlink">
    <!-- Generator: Sketch 3.6.1 (26313) - http://www.bohemiancoding.com/sketch -->
    <title>communication-mobile</title>
    <desc>Created with Sketch.</desc>
    <defs></defs>
    <g id="Page-1-Copy" stroke="none" stroke-width="1" fill="none" fill-rule="evenodd">
        <g id="communication-mobile">
            <g id="Dot-Copy-932" transform="translate(240.500000, 140.500000)">
                <rect id="Grid-Unit" x="0" y="0" width="20" height="20"></rect>
                <circle id="Dot" fill="#000000" cx="1.5" cy="1.5" r="1.5"></circle>
            </g>
            <g id="Dot-Copy-931" transform="translate(220.500000, 140.500000)">
                <rect id="Grid-Unit" x="0" y="0" width="20" height="20"></rect>
                <circle id="Dot" fill="#000000" cx="1.5" cy="1.5" r="1.5"></circle>
            </g>
            <g id="Dot-Copy-930" transform="translate(200.500000, 140.500000)">
                <rect id="Grid-Unit" x="0" y="0" width="20" height="20"></rect>
                <circle id="Dot" fill="#000000" cx="1.5" cy="1.5" r="1.5"></circle>
            </g>
            <g id="Dot-Copy-929" transform="translate(180.500000, 140.500000)">
                <rect id="Grid-Unit" x="0" y="0" width="20" height="20"></rect>
                <circle id="Dot" fill="#000000" cx="1.5" cy="1.5" r="1.5"></circle>
            </g>
            <g id="Dot-Copy-928" transform="translate(160.500000, 140.500000)">
                <rect id="Grid-Unit" x="0" y="0" width="20" height="20"></rect>
                <circle id="Dot" fill="#000000" cx="1.5" cy="1.5" r="1.5"></circle>
            </g>
            <g id="Dot-Copy-927" transform="translate(140.500000, 140.500000)">
                <rect id="Grid-Unit" x="0" y="0" width="20" height="20"></rect>
                <circle id="Dot" fill="#000000" cx="1.5" cy="1.5" r="1.5"></circle>
            </g>
            <g id="Dot-Copy-926" transform="translate(120.500000, 140.500000)">
                <rect id="Grid-Unit" x="0" y="0" width="20" height="20"></rect>
                <circle id="Dot" fill="#000000" cx="1.5" cy="1.5" r="1.5"></circle>
            </g>
            <g id="Dot-Copy-925" transform="translate(100.500000, 140.500000)">
                <rect id="Grid-Unit" x="0" y="0" width="20" height="20"></rect>
                <circle id="Dot" fill="#000000" cx="1.5" cy="1.5" r="1.5"></circle>
            </g>
            <g id="Dot-Copy-924" transform="translate(80.500000, 140.500000)">
                <rect id="Grid-Unit" x="0" y="0" width="20" height="20"></rect>
                <circle id="Dot" fill="#000000" cx="1.5" cy="1.5" r="1.5"></circle>
            </g>
            <g id="Dot-Copy-923" transform="translate(60.500000, 140.500000)">
                <rect id="Grid-Unit" x="0" y="0" width="20" height="20"></rect>
                <circle id="Dot" fill="#000000" cx="1.5" cy="1.5" r="1.5"></circle>
            </g>
            <g id="Dot-Copy-922" transform="translate(40.500000, 140.500000)">
                <rect id="Grid-Unit" x="0" y="0" width="20" height="20"></rect>
                <circle id="Dot" fill="#000000" cx="1.5" cy="1.5" r="1.5"></circle>
            </g>
            <g id="Dot-Copy-921" transform="translate(20.500000, 140.500000)">
                <rect id="Grid-Unit" x="0" y="0" width="20" height="20"></rect>
                <circle id="Dot" fill="#000000" cx="1.5" cy="1.5" r="1.5"></circle>
            </g>
            <g id="Dot-Copy-920" transform="translate(0.500000, 140.500000)">
                <rect id="Grid-Unit" x="0" y="0" width="20" height="20"></rect>
                <circle id="Dot" fill="#000000" cx="1.5" cy="1.5" r="1.5"></circle>
            </g>
            <g id="Dot-Copy-918" transform="translate(240.500000, 120.500000)">
                <rect id="Grid-Unit" x="0" y="0" width="20" height="20"></rect>
                <circle id="Dot" fill="#000000" cx="1.5" cy="1.5" r="1.5"></circle>
            </g>
            <g id="Dot-Copy-917" transform="translate(220.500000, 120.500000)">
                <rect id="Grid-Unit" x="0" y="0" width="20" height="20"></rect>
                <circle id="Dot" fill="#000000" cx="1.5" cy="1.5" r="1.5"></circle>
            </g>
            <g id="Dot-Copy-916" transform="translate(200.500000, 120.500000)">
                <rect id="Grid-Unit" x="0" y="0" width="20" height="20"></rect>
                <circle id="Dot" fill="#000000" cx="1.5" cy="1.5" r="1.5"></circle>
            </g>
            <g id="Dot-Copy-915" transform="translate(180.500000, 120.500000)">
                <rect id="Grid-Unit" x="0" y="0" width="20" height="20"></rect>
                <circle id="Dot" fill="#000000" cx="1.5" cy="1.5" r="1.5"></circle>
            </g>
            <g id="Dot-Copy-914" transform="translate(160.500000, 120.500000)">
                <rect id="Grid-Unit" x="0" y="0" width="20" height="20"></rect>
                <circle id="Dot" fill="#000000" cx="1.5" cy="1.5" r="1.5"></circle>
            </g>
            <g id="Dot-Copy-913" transform="translate(140.500000, 120.500000)">
                <rect id="Grid-Unit" x="0" y="0" width="20" height="20"></rect>
                <circle id="Dot" fill="#000000" cx="1.5" cy="1.5" r="1.5"></circle>
            </g>
            <g id="Dot-Copy-912" transform="translate(120.500000, 120.500000)">
                <rect id="Grid-Unit" x="0" y="0" width="20" height="20"></rect>
                <circle id="Dot" fill="#000000" cx="1.5" cy="1.5" r="1.5"></circle>
            </g>
            <g id="Dot-Copy-911" transform="translate(100.500000, 120.500000)">
                <rect id="Grid-Unit" x="0" y="0" width="20" height="20"></rect>
                <circle id="Dot" fill="#000000" cx="1.5" cy="1.5" r="1.5"></circle>
            </g>
            <g id="Dot-Copy-910" transform="translate(80.500000, 120.500000)">
                <rect id="Grid-Unit" x="0" y="0" width="20" height="20"></rect>
                <circle id="Dot" fill="#000000" cx="1.5" cy="1.5" r="1.5"></circle>
            </g>
            <g id="Dot-Copy-909" transform="translate(60.500000, 120.500000)">
                <rect id="Grid-Unit" x="0" y="0" width="20" height="20"></rect>
                <circle id="Dot" fill="#000000" cx="1.5" cy="1.5" r="1.5"></circle>
            </g>
            <g id="Dot-Copy-908" transform="translate(40.500000, 120.500000)">
                <rect id="Grid-Unit" x="0" y="0" width="20" height="20"></rect>
                <circle id="Dot" fill="#000000" cx="1.5" cy="1.5" r="1.5"></circle>
            </g>
            <g id="Dot-Copy-907" transform="translate(20.500000, 120.500000)">
                <rect id="Grid-Unit" x="0" y="0" width="20" height="20"></rect>
                <circle id="Dot" fill="#000000" cx="1.5" cy="1.5" r="1.5"></circle>
            </g>
            <g id="Dot-Copy-906" transform="translate(0.500000, 120.500000)">
                <rect id="Grid-Unit" x="0" y="0" width="20" height="20"></rect>
                <circle id="Dot" fill="#000000" cx="1.5" cy="1.5" r="1.5"></circle>
            </g>
            <g id="Dot-Copy-904" transform="translate(240.500000, 100.500000)">
                <rect id="Grid-Unit" x="0" y="0" width="20" height="20"></rect>
                <circle id="Dot" fill="#000000" cx="1.5" cy="1.5" r="1.5"></circle>
            </g>
            <g id="Dot-Copy-903" transform="translate(220.500000, 100.500000)">
                <rect id="Grid-Unit" x="0" y="0" width="20" height="20"></rect>
                <circle id="Dot" fill="#000000" cx="1.5" cy="1.5" r="1.5"></circle>
            </g>
            <g id="Dot-Copy-902" transform="translate(200.500000, 100.500000)">
                <rect id="Grid-Unit" x="0" y="0" width="20" height="20"></rect>
                <circle id="Dot" fill="#000000" cx="1.5" cy="1.5" r="1.5"></circle>
            </g>
            <g id="Dot-Copy-901" transform="translate(180.500000, 100.500000)">
                <rect id="Grid-Unit" x="0" y="0" width="20" height="20"></rect>
                <circle id="Dot" fill="#000000" cx="1.5" cy="1.5" r="1.5"></circle>
            </g>
            <g id="Dot-Copy-900" transform="translate(160.500000, 100.500000)">
                <rect id="Grid-Unit" x="0" y="0" width="20" height="20"></rect>
                <circle id="Dot" fill="#000000" cx="1.5" cy="1.5" r="1.5"></circle>
            </g>
            <g id="Dot-Copy-899" transform="translate(140.500000, 100.500000)">
                <rect id="Grid-Unit" x="0" y="0" width="20" height="20"></rect>
                <circle id="Dot" fill="#000000" cx="1.5" cy="1.5" r="1.5"></circle>
            </g>
            <g id="Dot-Copy-898" transform="translate(120.500000, 100.500000)">
                <rect id="Grid-Unit" x="0" y="0" width="20" height="20"></rect>
                <circle id="Dot" fill="#000000" cx="1.5" cy="1.5" r="1.5"></circle>
            </g>
            <g id="Dot-Copy-897" transform="translate(100.500000, 100.500000)">
                <rect id="Grid-Unit" x="0" y="0" width="20" height="20"></rect>
                <circle id="Dot" fill="#000000" cx="1.5" cy="1.5" r="1.5"></circle>
            </g>
            <g id="Dot-Copy-896" transform="translate(80.500000, 100.500000)">
                <rect id="Grid-Unit" x="0" y="0" width="20" height="20"></rect>
                <circle id="Dot" fill="#000000" cx="1.5" cy="1.5" r="1.5"></circle>
            </g>
            <g id="Dot-Copy-895" transform="translate(60.500000, 100.500000)">
                <rect id="Grid-Unit" x="0" y="0" width="20" height="20"></rect>
                <circle id="Dot" fill="#000000" cx="1.5" cy="1.5" r="1.5"></circle>
            </g>
            <g id="Dot-Copy-894" transform="translate(40.500000, 100.500000)">
                <rect id="Grid-Unit" x="0" y="0" width="20" height="20"></rect>
                <circle id="Dot" fill="#000000" cx="1.5" cy="1.5" r="1.5"></circle>
            </g>
            <g id="Dot-Copy-893" transform="translate(20.500000, 100.500000)">
                <rect id="Grid-Unit" x="0" y="0" width="20" height="20"></rect>
                <circle id="Dot" fill="#000000" cx="1.5" cy="1.5" r="1.5"></circle>
            </g>
            <g id="Dot-Copy-892" transform="translate(0.500000, 100.500000)">
                <rect id="Grid-Unit" x="0" y="0" width="20" height="20"></rect>
                <circle id="Dot" fill="#000000" cx="1.5" cy="1.5" r="1.5"></circle>
            </g>
            <g id="Dot-Copy-890" transform="translate(240.500000, 80.500000)">
                <rect id="Grid-Unit" x="0" y="0" width="20" height="20"></rect>
                <circle id="Dot" fill="#000000" cx="1.5" cy="1.5" r="1.5"></circle>
            </g>
            <g id="Dot-Copy-889" transform="translate(220.500000, 80.500000)">
                <rect id="Grid-Unit" x="0" y="0" width="20" height="20"></rect>
                <circle id="Dot" fill="#000000" cx="1.5" cy="1.5" r="1.5"></circle>
            </g>
            <g id="Dot-Copy-888" transform="translate(200.500000, 80.500000)">
                <rect id="Grid-Unit" x="0" y="0" width="20" height="20"></rect>
                <circle id="Dot" fill="#000000" cx="1.5" cy="1.5" r="1.5"></circle>
            </g>
            <g id="Dot-Copy-887" transform="translate(180.500000, 80.500000)">
                <rect id="Grid-Unit" x="0" y="0" width="20" height="20"></rect>
                <circle id="Dot" fill="#000000" cx="1.5" cy="1.5" r="1.5"></circle>
            </g>
            <g id="Dot-Copy-886" transform="translate(160.500000, 80.500000)">
                <rect id="Grid-Unit" x="0" y="0" width="20" height="20"></rect>
                <circle id="Dot" fill="#000000" cx="1.5" cy="1.5" r="1.5"></circle>
            </g>
            <g id="Dot-Copy-885" transform="translate(140.500000, 80.500000)">
                <rect id="Grid-Unit" x="0" y="0" width="20" height="20"></rect>
                <circle id="Dot" fill="#000000" cx="1.5" cy="1.5" r="1.5"></circle>
            </g>
            <g id="Dot-Copy-884" transform="translate(120.500000, 80.500000)">
                <rect id="Grid-Unit" x="0" y="0" width="20" height="20"></rect>
                <circle id="Dot" fill="#000000" cx="1.5" cy="1.5" r="1.5"></circle>
            </g>
            <g id="Dot-Copy-883" transform="translate(100.500000, 80.500000)">
                <rect id="Grid-Unit" x="0" y="0" width="20" height="20"></rect>
                <circle id="Dot" fill="#000000" cx="1.5" cy="1.5" r="1.5"></circle>
            </g>
            <g id="Dot-Copy-882" transform="translate(80.500000, 80.500000)">
                <rect id="Grid-Unit" x="0" y="0" width="20" height="20"></rect>
                <circle id="Dot" fill="#000000" cx="1.5" cy="1.5" r="1.5"></circle>
            </g>
            <g id="Dot-Copy-881" transform="translate(60.500000, 80.500000)">
                <rect id="Grid-Unit" x="0" y="0" width="20" height="20"></rect>
                <circle id="Dot" fill="#000000" cx="1.5" cy="1.5" r="1.5"></circle>
            </g>
            <g id="Dot-Copy-880" transform="translate(40.500000, 80.500000)">
                <rect id="Grid-Unit" x="0" y="0" width="20" height="20"></rect>
                <circle id="Dot" fill="#000000" cx="1.5" cy="1.5" r="1.5"></circle>
            </g>
            <g id="Dot-Copy-879" transform="translate(20.500000, 80.500000)">
                <rect id="Grid-Unit" x="0" y="0" width="20" height="20"></rect>
                <circle id="Dot" fill="#000000" cx="1.5" cy="1.5" r="1.5"></circle>
            </g>
            <g id="Dot-Copy-878" transform="translate(0.500000, 80.500000)">
                <rect id="Grid-Unit" x="0" y="0" width="20" height="20"></rect>
                <circle id="Dot" fill="#000000" cx="1.5" cy="1.5" r="1.5"></circle>
            </g>
            <g id="Dot-Copy-876" transform="translate(240.500000, 60.500000)">
                <rect id="Grid-Unit" x="0" y="0" width="20" height="20"></rect>
                <circle id="Dot" fill="#000000" cx="1.5" cy="1.5" r="1.5"></circle>
            </g>
            <g id="Dot-Copy-875" transform="translate(220.500000, 60.500000)">
                <rect id="Grid-Unit" x="0" y="0" width="20" height="20"></rect>
                <circle id="Dot" fill="#000000" cx="1.5" cy="1.5" r="1.5"></circle>
            </g>
            <g id="Dot-Copy-874" transform="translate(200.500000, 60.500000)">
                <rect id="Grid-Unit" x="0" y="0" width="20" height="20"></rect>
                <circle id="Dot" fill="#000000" cx="1.5" cy="1.5" r="1.5"></circle>
            </g>
            <g id="Dot-Copy-873" transform="translate(180.500000, 60.500000)">
                <rect id="Grid-Unit" x="0" y="0" width="20" height="20"></rect>
                <circle id="Dot" fill="#000000" cx="1.5" cy="1.5" r="1.5"></circle>
            </g>
            <g id="Dot-Copy-872" transform="translate(160.500000, 60.500000)">
                <rect id="Grid-Unit" x="0" y="0" width="20" height="20"></rect>
                <circle id="Dot" fill="#000000" cx="1.5" cy="1.5" r="1.5"></circle>
            </g>
            <g id="Dot-Copy-871" transform="translate(140.500000, 60.500000)">
                <rect id="Grid-Unit" x="0" y="0" width="20" height="20"></rect>
                <circle id="Dot" fill="#000000" cx="1.5" cy="1.5" r="1.5"></circle>
            </g>
            <g id="Dot-Copy-870" transform="translate(120.500000, 60.500000)">
                <rect id="Grid-Unit" x="0" y="0" width="20" height="20"></rect>
                <circle id="Dot" fill="#000000" cx="1.5" cy="1.5" r="1.5"></circle>
            </g>
            <g id="Dot-Copy-869" transform="translate(100.500000, 60.500000)">
                <rect id="Grid-Unit" x="0" y="0" width="20" height="20"></rect>
                <circle id="Dot" fill="#000000" cx="1.5" cy="1.5" r="1.5"></circle>
            </g>
            <g id="Dot-Copy-868" transform="translate(80.500000, 60.500000)">
                <rect id="Grid-Unit" x="0" y="0" width="20" height="20"></rect>
                <circle id="Dot" fill="#000000" cx="1.5" cy="1.5" r="1.5"></circle>
            </g>
            <g id="Dot-Copy-867" transform="translate(60.500000, 60.500000)">
                <rect id="Grid-Unit" x="0" y="0" width="20" height="20"></rect>
                <circle id="Dot" fill="#000000" cx="1.5" cy="1.5" r="1.5"></circle>
            </g>
            <g id="Dot-Copy-866" transform="translate(40.500000, 60.500000)">
                <rect id="Grid-Unit" x="0" y="0" width="20" height="20"></rect>
                <circle id="Dot" fill="#000000" cx="1.5" cy="1.5" r="1.5"></circle>
            </g>
            <g id="Dot-Copy-865" transform="translate(20.500000, 60.500000)">
                <rect id="Grid-Unit" x="0" y="0" width="20" height="20"></rect>
                <circle id="Dot" fill="#000000" cx="1.5" cy="1.5" r="1.5"></circle>
            </g>
            <g id="Dot-Copy-864" transform="translate(0.500000, 60.500000)">
                <rect id="Grid-Unit" x="0" y="0" width="20" height="20"></rect>
                <circle id="Dot" fill="#000000" cx="1.5" cy="1.5" r="1.5"></circle>
            </g>
            <g id="Dot-Copy-862" transform="translate(240.500000, 40.500000)">
                <rect id="Grid-Unit" x="0" y="0" width="20" height="20"></rect>
                <circle id="Dot" fill="#000000" cx="1.5" cy="1.5" r="1.5"></circle>
            </g>
            <g id="Dot-Copy-861" transform="translate(220.500000, 40.500000)">
                <rect id="Grid-Unit" x="0" y="0" width="20" height="20"></rect>
                <circle id="Dot" fill="#000000" cx="1.5" cy="1.5" r="1.5"></circle>
            </g>
            <g id="Dot-Copy-860" transform="translate(200.500000, 40.500000)">
                <rect id="Grid-Unit" x="0" y="0" width="20" height="20"></rect>
                <circle id="Dot" fill="#000000" cx="1.5" cy="1.5" r="1.5"></circle>
            </g>
            <g id="Dot-Copy-859" transform="translate(180.500000, 40.500000)">
                <rect id="Grid-Unit" x="0" y="0" width="20" height="20"></rect>
                <circle id="Dot" fill="#000000" cx="1.5" cy="1.5" r="1.5"></circle>
            </g>
            <g id="Dot-Copy-858" transform="translate(160.500000, 40.500000)">
                <rect id="Grid-Unit" x="0" y="0" width="20" height="20"></rect>
                <circle id="Dot" fill="#000000" cx="1.5" cy="1.5" r="1.5"></circle>
            </g>
            <g id="Dot-Copy-857" transform="translate(140.500000, 40.500000)">
                <rect id="Grid-Unit" x="0" y="0" width="20" height="20"></rect>
                <circle id="Dot" fill="#000000" cx="1.5" cy="1.5" r="1.5"></circle>
            </g>
            <g id="Dot-Copy-856" transform="translate(120.500000, 40.500000)">
                <rect id="Grid-Unit" x="0" y="0" width="20" height="20"></rect>
                <circle id="Dot" fill="#000000" cx="1.5" cy="1.5" r="1.5"></circle>
            </g>
            <g id="Dot-Copy-855" transform="translate(100.500000, 40.500000)">
                <rect id="Grid-Unit" x="0" y="0" width="20" height="20"></rect>
                <circle id="Dot" fill="#000000" cx="1.5" cy="1.5" r="1.5"></circle>
            </g>
            <g id="Dot-Copy-854" transform="translate(80.500000, 40.500000)">
                <rect id="Grid-Unit" x="0" y="0" width="20" height="20"></rect>
                <circle id="Dot" fill="#000000" cx="1.5" cy="1.5" r="1.5"></circle>
            </g>
            <g id="Dot-Copy-853" transform="translate(60.500000, 40.500000)">
                <rect id="Grid-Unit" x="0" y="0" width="20" height="20"></rect>
                <circle id="Dot" fill="#000000" cx="1.5" cy="1.5" r="1.5"></circle>
            </g>
            <g id="Dot-Copy-852" transform="translate(40.500000, 40.500000)">
                <rect id="Grid-Unit" x="0" y="0" width="20" height="20"></rect>
                <circle id="Dot" fill="#000000" cx="1.5" cy="1.5" r="1.5"></circle>
            </g>
            <g id="Dot-Copy-851" transform="translate(20.500000, 40.500000)">
                <rect id="Grid-Unit" x="0" y="0" width="20" height="20"></rect>
                <circle id="Dot" fill="#000000" cx="1.5" cy="1.5" r="1.5"></circle>
            </g>
            <g id="Dot-Copy-850" transform="translate(0.500000, 40.500000)">
                <rect id="Grid-Unit" x="0" y="0" width="20" height="20"></rect>
                <circle id="Dot" fill="#000000" cx="1.5" cy="1.5" r="1.5"></circle>
            </g>
            <g id="Dot-Copy-848" transform="translate(240.500000, 20.500000)">
                <rect id="Grid-Unit" x="0" y="0" width="20" height="20"></rect>
                <circle id="Dot" fill="#000000" cx="1.5" cy="1.5" r="1.5"></circle>
            </g>
            <g id="Dot-Copy-847" transform="translate(220.500000, 20.500000)">
                <rect id="Grid-Unit" x="0" y="0" width="20" height="20"></rect>
                <circle id="Dot" fill="#000000" cx="1.5" cy="1.5" r="1.5"></circle>
            </g>
            <g id="Dot-Copy-846" transform="translate(200.500000, 20.500000)">
                <rect id="Grid-Unit" x="0" y="0" width="20" height="20"></rect>
                <circle id="Dot" fill="#000000" cx="1.5" cy="1.5" r="1.5"></circle>
            </g>
            <g id="Dot-Copy-845" transform="translate(180.500000, 20.500000)">
                <rect id="Grid-Unit" x="0" y="0" width="20" height="20"></rect>
                <circle id="Dot" fill="#000000" cx="1.5" cy="1.5" r="1.5"></circle>
            </g>
            <g id="Dot-Copy-844" transform="translate(160.500000, 20.500000)">
                <rect id="Grid-Unit" x="0" y="0" width="20" height="20"></rect>
                <circle id="Dot" fill="#000000" cx="1.5" cy="1.5" r="1.5"></circle>
            </g>
            <g id="Dot-Copy-843" transform="translate(140.500000, 20.500000)">
                <rect id="Grid-Unit" x="0" y="0" width="20" height="20"></rect>
                <circle id="Dot" fill="#000000" cx="1.5" cy="1.5" r="1.5"></circle>
            </g>
            <g id="Dot-Copy-842" transform="translate(120.500000, 20.500000)">
                <rect id="Grid-Unit" x="0" y="0" width="20" height="20"></rect>
                <circle id="Dot" fill="#000000" cx="1.5" cy="1.5" r="1.5"></circle>
            </g>
            <g id="Dot-Copy-841" transform="translate(100.500000, 20.500000)">
                <rect id="Grid-Unit" x="0" y="0" width="20" height="20"></rect>
                <circle id="Dot" fill="#000000" cx="1.5" cy="1.5" r="1.5"></circle>
            </g>
            <g id="Dot-Copy-840" transform="translate(80.500000, 20.500000)">
                <rect id="Grid-Unit" x="0" y="0" width="20" height="20"></rect>
                <circle id="Dot" fill="#000000" cx="1.5" cy="1.5" r="1.5"></circle>
            </g>
            <g id="Dot-Copy-839" transform="translate(60.500000, 20.500000)">
                <rect id="Grid-Unit" x="0" y="0" width="20" height="20"></rect>
                <circle id="Dot" fill="#000000" cx="1.5" cy="1.5" r="1.5"></circle>
            </g>
            <g id="Dot-Copy-838" transform="translate(40.500000, 20.500000)">
                <rect id="Grid-Unit" x="0" y="0" width="20" height="20"></rect>
                <circle id="Dot" fill="#000000" cx="1.5" cy="1.5" r="1.5"></circle>
            </g>
            <g id="Dot-Copy-837" transform="translate(20.500000, 20.500000)">
                <rect id="Grid-Unit" x="0" y="0" width="20" height="20"></rect>
                <circle id="Dot" fill="#000000" cx="1.5" cy="1.5" r="1.5"></circle>
            </g>
            <g id="Dot-Copy-836" transform="translate(0.500000, 20.500000)">
                <rect id="Grid-Unit" x="0" y="0" width="20" height="20"></rect>
                <circle id="Dot" fill="#000000" cx="1.5" cy="1.5" r="1.5"></circle>
            </g>
            <g id="Dot-Copy-834" transform="translate(240.500000, 0.500000)">
                <rect id="Grid-Unit" x="0" y="0" width="20" height="20"></rect>
                <circle id="Dot" fill="#000000" cx="1.5" cy="1.5" r="1.5"></circle>
            </g>
            <g id="Dot-Copy-833" transform="translate(220.500000, 0.500000)">
                <rect id="Grid-Unit" x="0" y="0" width="20" height="20"></rect>
                <circle id="Dot" fill="#000000" cx="1.5" cy="1.5" r="1.5"></circle>
            </g>
            <g id="Dot-Copy-832" transform="translate(200.500000, 0.500000)">
                <rect id="Grid-Unit" x="0" y="0" width="20" height="20"></rect>
                <circle id="Dot" fill="#000000" cx="1.5" cy="1.5" r="1.5"></circle>
            </g>
            <g id="Dot-Copy-831" transform="translate(180.500000, 0.500000)">
                <rect id="Grid-Unit" x="0" y="0" width="20" height="20"></rect>
                <circle id="Dot" fill="#000000" cx="1.5" cy="1.5" r="1.5"></circle>
            </g>
            <g id="Dot-Copy-830" transform="translate(160.500000, 0.500000)">
                <rect id="Grid-Unit" x="0" y="0" width="20" height="20"></rect>
                <circle id="Dot" fill="#000000" cx="1.5" cy="1.5" r="1.5"></circle>
            </g>
            <g id="Dot-Copy-829" transform="translate(140.500000, 0.500000)">
                <rect id="Grid-Unit" x="0" y="0" width="20" height="20"></rect>
                <circle id="Dot" fill="#000000" cx="1.5" cy="1.5" r="1.5"></circle>
            </g>
            <g id="Dot-Copy-828" transform="translate(120.500000, 0.500000)">
                <rect id="Grid-Unit" x="0" y="0" width="20" height="20"></rect>
                <circle id="Dot" fill="#000000" cx="1.5" cy="1.5" r="1.5"></circle>
            </g>
            <g id="Dot-Copy-827" transform="translate(100.500000, 0.500000)">
                <rect id="Grid-Unit" x="0" y="0" width="20" height="20"></rect>
                <circle id="Dot" fill="#000000" cx="1.5" cy="1.5" r="1.5"></circle>
            </g>
            <g id="Dot-Copy-826" transform="translate(80.500000, 0.500000)">
                <rect id="Grid-Unit" x="0" y="0" width="20" height="20"></rect>
                <circle id="Dot" fill="#000000" cx="1.5" cy="1.5" r="1.5"></circle>
            </g>
            <g id="Dot-Copy-825" transform="translate(60.500000, 0.500000)">
                <rect id="Grid-Unit" x="0" y="0" width="20" height="20"></rect>
                <circle id="Dot" fill="#000000" cx="1.5" cy="1.5" r="1.5"></circle>
            </g>
            <g id="Dot-Copy-824" transform="translate(40.500000, 0.500000)">
                <rect id="Grid-Unit" x="0" y="0" width="20" height="20"></rect>
                <circle id="Dot" fill="#000000" cx="1.5" cy="1.5" r="1.5"></circle>
            </g>
            <g id="Dot-Copy-823" transform="translate(20.500000, 0.500000)">
                <rect id="Grid-Unit" x="0" y="0" width="20" height="20"></rect>
                <circle id="Dot" fill="#000000" cx="1.5" cy="1.5" r="1.5"></circle>
            </g>
            <g id="Dot-Copy-822" transform="translate(0.500000, 0.500000)">
                <rect id="Grid-Unit" x="0" y="0" width="20" height="20"></rect>
                <circle id="Dot" fill="#000000" cx="1.5" cy="1.5" r="1.5"></circle>
            </g>
            <g id="communication-copy" transform="translate(14.000000, 2.000000)">
                <path d="M88,0 L108,0 L108,20 L88,19.9999996 L88,0 Z" id="Rectangle-path-Copy-22" fill="#FCD315" style="mix-blend-mode: darken;"></path>
                <rect id="Rectangle-843" fill="#FFFFFF" x="0" y="26" width="182" height="36"></rect>
                <path d="M16.68,54.104 C15.72,55.448 14.16,56.336 12.384,56.336 C9.384,56.336 7.128,53.84 7.128,50.768 C7.128,47.672 9.384,45.176 12.384,45.176 C14.136,45.176 15.624,46.04 16.584,47.288 L19.032,45.536 C17.592,43.544 15.192,42.272 12.384,42.272 C7.68,42.272 4.056,46.064 4.056,50.768 C4.056,55.424 7.68,59.24 12.384,59.24 C15.24,59.24 17.664,57.92 19.104,55.88 L16.68,54.104 Z M26.264,59.216 C29.432,59.216 32.096,56.888 32.096,53.36 C32.096,49.832 29.432,47.552 26.264,47.552 C23.072,47.552 20.432,49.832 20.432,53.36 C20.432,56.888 23.072,59.216 26.264,59.216 L26.264,59.216 Z M26.264,56.36 C24.656,56.36 23.336,55.184 23.336,53.36 C23.336,51.584 24.656,50.432 26.264,50.432 C27.872,50.432 29.192,51.584 29.192,53.36 C29.192,55.184 27.872,56.36 26.264,56.36 L26.264,56.36 Z M47.104,50.408 C48.304,50.408 49.216,51.296 49.216,52.904 L49.216,59 L52.12,59 L52.12,52.592 C52.12,49.304 50.512,47.552 47.8,47.552 C46.912,47.552 45.328,47.816 44.272,49.664 C43.648,48.296 42.472,47.672 40.696,47.576 C39.64,47.576 38.104,48.08 37.48,49.448 L37.48,47.792 L34.552,47.792 L34.552,59 L37.48,59 L37.48,53.024 C37.48,51.104 38.632,50.408 39.832,50.408 C40.984,50.408 41.872,51.272 41.896,52.832 L41.896,59 L44.824,59 L44.824,53.024 C44.824,51.32 45.784,50.408 47.104,50.408 L47.104,50.408 Z M67.68,50.408 C68.88,50.408 69.792,51.296 69.792,52.904 L69.792,59 L72.696,59 L72.696,52.592 C72.696,49.304 71.088,47.552 68.376,47.552 C67.488,47.552 65.904,47.816 64.848,49.664 C64.224,48.296 63.048,47.672 61.272,47.576 C60.216,47.576 58.68,48.08 58.056,49.448 L58.056,47.792 L55.128,47.792 L55.128,59 L58.056,59 L58.056,53.024 C58.056,51.104 59.208,50.408 60.408,50.408 C61.56,50.408 62.448,51.272 62.472,52.832 L62.472,59 L65.4,59 L65.4,53.024 C65.4,51.32 66.36,50.408 67.68,50.408 L67.68,50.408 Z M83.072,47.792 L83.072,53.768 C83.072,55.712 81.872,56.384 80.648,56.384 C79.616,56.384 78.512,55.712 78.512,53.888 L78.512,47.792 L75.56,47.792 L75.56,54.416 C75.56,57.584 77.336,59.24 79.976,59.24 C81.104,59.24 82.448,58.616 83.072,57.416 L83.072,59 L86,59 L86,47.792 L83.072,47.792 Z M92.08,59 L92.08,53.024 C92.08,51.08 93.208,50.408 94.528,50.408 C95.8,50.408 96.664,51.272 96.664,52.904 L96.664,59 L99.592,59 L99.592,52.376 C99.592,49.208 98.032,47.552 95.416,47.552 C94.12,47.552 92.704,48.248 92.08,49.448 L92.08,47.792 L89.152,47.792 L89.152,59 L92.08,59 Z M102.168,43.448 C102.168,44.456 103.032,45.224 104.064,45.224 C105.072,45.224 105.912,44.456 105.912,43.448 C105.912,42.464 105.072,41.696 104.064,41.696 C103.032,41.696 102.168,42.464 102.168,43.448 L102.168,43.448 Z M105.504,59 L105.504,47.792 L102.6,47.792 L102.6,59 L105.504,59 Z M107.936,53.36 C107.936,56.888 110.768,59.24 113.984,59.24 C115.88,59.24 117.608,58.424 118.664,57.032 L116.312,55.304 C115.784,56.024 114.896,56.432 113.984,56.432 C112.352,56.432 110.84,55.184 110.84,53.36 C110.84,51.536 112.352,50.384 113.984,50.384 C114.896,50.384 115.784,50.768 116.312,51.488 L118.64,49.736 C117.584,48.344 115.856,47.552 113.984,47.552 C110.768,47.552 107.936,49.832 107.936,53.36 L107.936,53.36 Z M120.736,49.856 L122.464,51.512 C123.256,50.48 124.576,50.12 125.464,50.12 C127,50.12 127.888,51.128 127.888,52.352 L127.888,52.784 C127.168,52.304 125.728,52.04 125.032,52.04 C121.48,52.04 120.184,53.6 120.184,55.568 C120.184,57.872 121.912,59.24 124.528,59.24 C125.44,59.24 127.048,58.88 127.888,57.848 L127.888,59 L130.768,59 L130.768,52.352 C130.768,49.208 128.824,47.552 125.632,47.552 C124.168,47.552 122.128,47.888 120.736,49.856 L120.736,49.856 Z M124.744,56.672 C123.664,56.672 123.088,56.048 123.088,55.376 C123.088,54.896 123.352,54.128 125.08,54.128 C125.632,54.128 127.144,54.32 127.864,54.824 L127.864,55.352 C127.192,56.264 125.584,56.672 124.744,56.672 L124.744,56.672 Z M137.616,47.792 L137.616,43.52 L134.712,43.52 L134.712,47.792 L132.672,47.792 L132.672,50.144 L134.712,50.144 L134.712,59 L137.616,59 L137.616,50.144 L139.992,50.144 L139.992,47.792 L137.616,47.792 Z M141.608,43.448 C141.608,44.456 142.472,45.224 143.504,45.224 C144.512,45.224 145.352,44.456 145.352,43.448 C145.352,42.464 144.512,41.696 143.504,41.696 C142.472,41.696 141.608,42.464 141.608,43.448 L141.608,43.448 Z M144.944,59 L144.944,47.792 L142.04,47.792 L142.04,59 L144.944,59 Z M153.232,59.216 C156.4,59.216 159.064,56.888 159.064,53.36 C159.064,49.832 156.4,47.552 153.232,47.552 C150.04,47.552 147.4,49.832 147.4,53.36 C147.4,56.888 150.04,59.216 153.232,59.216 L153.232,59.216 Z M153.232,56.36 C151.624,56.36 150.304,55.184 150.304,53.36 C150.304,51.584 151.624,50.432 153.232,50.432 C154.84,50.432 156.16,51.584 156.16,53.36 C156.16,55.184 154.84,56.36 153.232,56.36 L153.232,56.36 Z M164.448,59 L164.448,53.024 C164.448,51.08 165.576,50.408 166.896,50.408 C168.168,50.408 169.032,51.272 169.032,52.904 L169.032,59 L171.96,59 L171.96,52.376 C171.96,49.208 170.4,47.552 167.784,47.552 C166.488,47.552 165.072,48.248 164.448,49.448 L164.448,47.792 L161.52,47.792 L161.52,59 L164.448,59 Z" id="Communication" fill="#182226"></path>
                <path d="M228,100 L108,100 L108,140 L228,140 L228,100 Z" id="Fill-6" fill="#7CBDDF" style="mix-blend-mode: darken;"></path>
                <path d="M138,80 C121.431667,80 108,93.4316667 108,110 C108,126.568333 121.431667,140 138,140 C154.568333,140 168,126.568333 168,110 C168,93.4316667 154.568333,80 138,80 Z" id="Fill-14" fill="#EF4962" style="mix-blend-mode: darken;"></path>
                <path d="M48,80 L48,119.999998 L8,120 L48,80 Z" id="Shape-Copy-25" fill="#5AC2B3" style="mix-blend-mode: darken;" transform="translate(28.000000, 100.000000) scale(-1, 1) translate(-28.000000, -100.000000) "></path>
            </g>
        </g>
    </g>
</svg>