<?xml version="1.0" encoding="UTF-8" standalone="no"?>
<svg width="331px" height="133px" viewBox="0 0 331 133" version="1.1" xmlns="http://www.w3.org/2000/svg" xmlns:xlink="http://www.w3.org/1999/xlink">
    <!-- Generator: Sketch 3.6.1 (26313) - http://www.bohemiancoding.com/sketch -->
    <title>communication-mobile</title>
    <desc>Created with Sketch.</desc>
    <defs></defs>
    <g id="Page-1" stroke="none" stroke-width="1" fill="none" fill-rule="evenodd">
        <g id="Work-Index/Work-Index-Masonry/Information-Copy-3" transform="translate(-536.000000, -538.000000)">
            <g id="communication-mobile" transform="translate(538.000000, 539.000000)">
                <path d="M315.5,107 C309.148806,107 304,112.155088 304,118.514033 C304,124.872977 309.148806,130.028066 315.5,130.028066 C321.851194,130.028066 327,124.872977 327,118.514033 C327,112.155088 321.851194,107 315.5,107 Z" id="Fill-14" fill="#5AC2B3" style="mix-blend-mode: darken;"></path>
                <g id="Background-(Grid)" stroke="#000000" stroke-width="2.2" fill="#000000">
                    <g id="Block">
                        <ellipse id="Oval" cx="109.15423" cy="1.34295538" rx="0.552479835" ry="0.55343506"></ellipse>
                        <ellipse id="Oval" cx="87.3707396" cy="1.34295538" rx="0.552479835" ry="0.55343506"></ellipse>
                        <ellipse id="Oval" cx="65.6661747" cy="1.34295538" rx="0.552479835" ry="0.55343506"></ellipse>
                        <ellipse id="Oval" cx="43.9616097" cy="1.34295538" rx="0.552479835" ry="0.55343506"></ellipse>
                        <ellipse id="Oval" cx="22.2570448" cy="1.34295538" rx="0.552479835" ry="0.55343506"></ellipse>
                        <ellipse id="Oval" cx="0.552479835" cy="1.34295538" rx="0.552479835" ry="0.55343506"></ellipse>
                        <ellipse id="Oval" cx="240.840803" cy="1.34295538" rx="0.552479835" ry="0.55343506"></ellipse>
                        <ellipse id="Oval" cx="219.057312" cy="1.34295538" rx="0.552479835" ry="0.55343506"></ellipse>
                        <ellipse id="Oval" cx="197.352747" cy="1.34295538" rx="0.552479835" ry="0.55343506"></ellipse>
                        <ellipse id="Oval" cx="175.648182" cy="1.34295538" rx="0.552479835" ry="0.55343506"></ellipse>
                        <ellipse id="Oval" cx="153.943617" cy="1.34295538" rx="0.552479835" ry="0.55343506"></ellipse>
                        <ellipse id="Oval" cx="132.239053" cy="1.34295538" rx="0.552479835" ry="0.55343506"></ellipse>
                    </g>
                    <ellipse id="Oval" cx="109.15423" cy="129.544672" rx="0.552479835" ry="0.55343506"></ellipse>
                    <ellipse id="Oval" cx="109.15423" cy="107.802581" rx="0.552479835" ry="0.55343506"></ellipse>
                    <ellipse id="Oval" cx="109.15423" cy="86.060489" rx="0.552479835" ry="0.55343506"></ellipse>
                    <ellipse id="Oval" cx="109.15423" cy="64.3183973" rx="0.552479835" ry="0.55343506"></ellipse>
                    <ellipse id="Oval" cx="109.15423" cy="42.5763057" rx="0.552479835" ry="0.55343506"></ellipse>
                    <ellipse id="Oval" cx="109.15423" cy="20.7551519" rx="0.552479835" ry="0.55343506"></ellipse>
                    <ellipse id="Oval" cx="87.3707396" cy="129.544672" rx="0.552479835" ry="0.55343506"></ellipse>
                    <ellipse id="Oval" cx="87.3707396" cy="107.802581" rx="0.552479835" ry="0.55343506"></ellipse>
                    <ellipse id="Oval" cx="87.3707396" cy="86.060489" rx="0.552479835" ry="0.55343506"></ellipse>
                    <ellipse id="Oval" cx="87.3707396" cy="64.3183973" rx="0.552479835" ry="0.55343506"></ellipse>
                    <ellipse id="Oval" cx="87.3707396" cy="42.5763057" rx="0.552479835" ry="0.55343506"></ellipse>
                    <ellipse id="Oval" cx="87.3707396" cy="20.7551519" rx="0.552479835" ry="0.55343506"></ellipse>
                    <ellipse id="Oval" cx="65.6661747" cy="129.544672" rx="0.552479835" ry="0.55343506"></ellipse>
                    <ellipse id="Oval" cx="65.6661747" cy="107.802581" rx="0.552479835" ry="0.55343506"></ellipse>
                    <ellipse id="Oval" cx="65.6661747" cy="86.060489" rx="0.552479835" ry="0.55343506"></ellipse>
                    <ellipse id="Oval" cx="65.6661747" cy="64.3183973" rx="0.552479835" ry="0.55343506"></ellipse>
                    <ellipse id="Oval" cx="65.6661747" cy="42.5763057" rx="0.552479835" ry="0.55343506"></ellipse>
                    <ellipse id="Oval" cx="65.6661747" cy="20.7551519" rx="0.552479835" ry="0.55343506"></ellipse>
                    <ellipse id="Oval" cx="43.9616097" cy="129.544672" rx="0.552479835" ry="0.55343506"></ellipse>
                    <ellipse id="Oval" cx="43.9616097" cy="107.802581" rx="0.552479835" ry="0.55343506"></ellipse>
                    <ellipse id="Oval" cx="43.9616097" cy="86.060489" rx="0.552479835" ry="0.55343506"></ellipse>
                    <ellipse id="Oval" cx="43.9616097" cy="64.3183973" rx="0.552479835" ry="0.55343506"></ellipse>
                    <ellipse id="Oval" cx="43.9616097" cy="42.5763057" rx="0.552479835" ry="0.55343506"></ellipse>
                    <ellipse id="Oval" cx="43.9616097" cy="20.7551519" rx="0.552479835" ry="0.55343506"></ellipse>
                    <ellipse id="Oval" cx="22.2570448" cy="129.544672" rx="0.552479835" ry="0.55343506"></ellipse>
                    <ellipse id="Oval" cx="22.2570448" cy="107.802581" rx="0.552479835" ry="0.55343506"></ellipse>
                    <ellipse id="Oval" cx="22.2570448" cy="86.060489" rx="0.552479835" ry="0.55343506"></ellipse>
                    <ellipse id="Oval" cx="22.2570448" cy="64.3183973" rx="0.552479835" ry="0.55343506"></ellipse>
                    <ellipse id="Oval" cx="22.2570448" cy="42.5763057" rx="0.552479835" ry="0.55343506"></ellipse>
                    <ellipse id="Oval" cx="22.2570448" cy="20.7551519" rx="0.552479835" ry="0.55343506"></ellipse>
                    <ellipse id="Oval" cx="0.552479835" cy="129.544672" rx="0.552479835" ry="0.55343506"></ellipse>
                    <ellipse id="Oval" cx="0.552479835" cy="107.802581" rx="0.552479835" ry="0.55343506"></ellipse>
                    <ellipse id="Oval" cx="0.552479835" cy="86.060489" rx="0.552479835" ry="0.55343506"></ellipse>
                    <ellipse id="Oval" cx="0.552479835" cy="64.3183973" rx="0.552479835" ry="0.55343506"></ellipse>
                    <ellipse id="Oval" cx="0.552479835" cy="42.5763057" rx="0.552479835" ry="0.55343506"></ellipse>
                    <ellipse id="Oval" cx="0.552479835" cy="20.7551519" rx="0.552479835" ry="0.55343506"></ellipse>
                    <ellipse id="Oval" cx="240.840803" cy="129.544672" rx="0.552479835" ry="0.55343506"></ellipse>
                    <ellipse id="Oval" cx="240.840803" cy="107.802581" rx="0.552479835" ry="0.55343506"></ellipse>
                    <ellipse id="Oval" cx="240.840803" cy="86.060489" rx="0.552479835" ry="0.55343506"></ellipse>
                    <ellipse id="Oval" cx="240.840803" cy="64.3183973" rx="0.552479835" ry="0.55343506"></ellipse>
                    <ellipse id="Oval" cx="240.840803" cy="42.5763057" rx="0.552479835" ry="0.55343506"></ellipse>
                    <ellipse id="Oval" cx="240.840803" cy="20.7551519" rx="0.552479835" ry="0.55343506"></ellipse>
                    <ellipse id="Oval" cx="219.057312" cy="129.544672" rx="0.552479835" ry="0.55343506"></ellipse>
                    <ellipse id="Oval" cx="219.057312" cy="107.802581" rx="0.552479835" ry="0.55343506"></ellipse>
                    <ellipse id="Oval" cx="219.057312" cy="86.060489" rx="0.552479835" ry="0.55343506"></ellipse>
                    <ellipse id="Oval" cx="219.057312" cy="64.3183973" rx="0.552479835" ry="0.55343506"></ellipse>
                    <ellipse id="Oval" cx="219.057312" cy="42.5763057" rx="0.552479835" ry="0.55343506"></ellipse>
                    <ellipse id="Oval" cx="219.057312" cy="20.7551519" rx="0.552479835" ry="0.55343506"></ellipse>
                    <ellipse id="Oval" cx="197.352747" cy="129.544672" rx="0.552479835" ry="0.55343506"></ellipse>
                    <ellipse id="Oval" cx="197.352747" cy="107.802581" rx="0.552479835" ry="0.55343506"></ellipse>
                    <ellipse id="Oval" cx="197.352747" cy="86.060489" rx="0.552479835" ry="0.55343506"></ellipse>
                    <ellipse id="Oval" cx="197.352747" cy="64.3183973" rx="0.552479835" ry="0.55343506"></ellipse>
                    <ellipse id="Oval" cx="197.352747" cy="42.5763057" rx="0.552479835" ry="0.55343506"></ellipse>
                    <ellipse id="Oval" cx="197.352747" cy="20.7551519" rx="0.552479835" ry="0.55343506"></ellipse>
                    <ellipse id="Oval" cx="175.648182" cy="129.544672" rx="0.552479835" ry="0.55343506"></ellipse>
                    <ellipse id="Oval" cx="175.648182" cy="107.802581" rx="0.552479835" ry="0.55343506"></ellipse>
                    <ellipse id="Oval" cx="175.648182" cy="86.060489" rx="0.552479835" ry="0.55343506"></ellipse>
                    <ellipse id="Oval" cx="175.648182" cy="64.3183973" rx="0.552479835" ry="0.55343506"></ellipse>
                    <ellipse id="Oval" cx="175.648182" cy="42.5763057" rx="0.552479835" ry="0.55343506"></ellipse>
                    <ellipse id="Oval" cx="175.648182" cy="20.7551519" rx="0.552479835" ry="0.55343506"></ellipse>
                    <ellipse id="Oval" cx="153.943617" cy="129.544672" rx="0.552479835" ry="0.55343506"></ellipse>
                    <ellipse id="Oval" cx="153.943617" cy="107.802581" rx="0.552479835" ry="0.55343506"></ellipse>
                    <ellipse id="Oval" cx="153.943617" cy="86.060489" rx="0.552479835" ry="0.55343506"></ellipse>
                    <ellipse id="Oval" cx="153.943617" cy="64.3183973" rx="0.552479835" ry="0.55343506"></ellipse>
                    <ellipse id="Oval" cx="153.943617" cy="42.5763057" rx="0.552479835" ry="0.55343506"></ellipse>
                    <ellipse id="Oval" cx="153.943617" cy="20.7551519" rx="0.552479835" ry="0.55343506"></ellipse>
                    <ellipse id="Oval" cx="132.239053" cy="129.544672" rx="0.552479835" ry="0.55343506"></ellipse>
                    <ellipse id="Oval" cx="132.239053" cy="107.802581" rx="0.552479835" ry="0.55343506"></ellipse>
                    <ellipse id="Oval" cx="132.239053" cy="86.060489" rx="0.552479835" ry="0.55343506"></ellipse>
                    <ellipse id="Oval" cx="132.239053" cy="64.3183973" rx="0.552479835" ry="0.55343506"></ellipse>
                    <ellipse id="Oval" cx="132.239053" cy="42.5763057" rx="0.552479835" ry="0.55343506"></ellipse>
                    <ellipse id="Oval" cx="132.239053" cy="20.7551519" rx="0.552479835" ry="0.55343506"></ellipse>
                    <ellipse id="Oval" cx="327.218768" cy="1.34295538" rx="0.552479835" ry="0.55343506"></ellipse>
                    <ellipse id="Oval" cx="305.514203" cy="1.34295538" rx="0.552479835" ry="0.55343506"></ellipse>
                    <ellipse id="Oval" cx="283.809638" cy="1.34295538" rx="0.552479835" ry="0.55343506"></ellipse>
                    <ellipse id="Oval" cx="262.105074" cy="1.34295538" rx="0.552479835" ry="0.55343506"></ellipse>
                    <ellipse id="Oval" cx="327.218768" cy="129.544672" rx="0.552479835" ry="0.55343506"></ellipse>
                    <ellipse id="Oval" cx="327.218768" cy="107.802581" rx="0.552479835" ry="0.55343506"></ellipse>
                    <ellipse id="Oval" cx="327.218768" cy="86.060489" rx="0.552479835" ry="0.55343506"></ellipse>
                    <ellipse id="Oval" cx="327.218768" cy="64.3183973" rx="0.552479835" ry="0.55343506"></ellipse>
                    <ellipse id="Oval" cx="327.218768" cy="42.5763057" rx="0.552479835" ry="0.55343506"></ellipse>
                    <ellipse id="Oval" cx="327.218768" cy="20.7551519" rx="0.552479835" ry="0.55343506"></ellipse>
                    <ellipse id="Oval" cx="305.514203" cy="129.544672" rx="0.552479835" ry="0.55343506"></ellipse>
                    <ellipse id="Oval" cx="305.514203" cy="107.802581" rx="0.552479835" ry="0.55343506"></ellipse>
                    <ellipse id="Oval" cx="305.514203" cy="86.060489" rx="0.552479835" ry="0.55343506"></ellipse>
                    <ellipse id="Oval" cx="305.514203" cy="64.3183973" rx="0.552479835" ry="0.55343506"></ellipse>
                    <ellipse id="Oval" cx="305.514203" cy="42.5763057" rx="0.552479835" ry="0.55343506"></ellipse>
                    <ellipse id="Oval" cx="305.514203" cy="20.7551519" rx="0.552479835" ry="0.55343506"></ellipse>
                    <ellipse id="Oval" cx="283.809638" cy="129.544672" rx="0.552479835" ry="0.55343506"></ellipse>
                    <ellipse id="Oval" cx="283.809638" cy="107.802581" rx="0.552479835" ry="0.55343506"></ellipse>
                    <ellipse id="Oval" cx="283.809638" cy="86.060489" rx="0.552479835" ry="0.55343506"></ellipse>
                    <ellipse id="Oval" cx="283.809638" cy="64.3183973" rx="0.552479835" ry="0.55343506"></ellipse>
                    <ellipse id="Oval" cx="283.809638" cy="42.5763057" rx="0.552479835" ry="0.55343506"></ellipse>
                    <ellipse id="Oval" cx="283.809638" cy="20.7551519" rx="0.552479835" ry="0.55343506"></ellipse>
                    <ellipse id="Oval" cx="262.105074" cy="129.544672" rx="0.552479835" ry="0.55343506"></ellipse>
                    <ellipse id="Oval" cx="262.105074" cy="107.802581" rx="0.552479835" ry="0.55343506"></ellipse>
                    <ellipse id="Oval" cx="262.105074" cy="86.060489" rx="0.552479835" ry="0.55343506"></ellipse>
                    <ellipse id="Oval" cx="262.105074" cy="64.3183973" rx="0.552479835" ry="0.55343506"></ellipse>
                    <ellipse id="Oval" cx="262.105074" cy="42.5763057" rx="0.552479835" ry="0.55343506"></ellipse>
                    <ellipse id="Oval" cx="262.105074" cy="20.7551519" rx="0.552479835" ry="0.55343506"></ellipse>
                </g>
                <path d="M110,1 L131,1 L131,22 L110,22 L110,1 Z" id="Rectangle-path-Copy-22" fill="#FCD315" style="mix-blend-mode: darken;"></path>
                <rect id="Rectangle-843-Copy" fill="#FFFFFF" x="37" y="35" width="264" height="53.2400017"></rect>
                <path d="M62.026,69.488 C60.462,71.324 58.15,72.48 55.532,72.48 C50.636,72.48 46.828,68.502 46.828,63.538 C46.828,58.574 50.636,54.562 55.532,54.562 C58.116,54.562 60.36,55.718 61.958,57.452 L64.338,55.48 C62.264,53.032 59.136,51.502 55.532,51.502 C48.902,51.502 43.666,56.874 43.666,63.538 C43.666,70.168 48.902,75.54 55.532,75.54 C59.17,75.54 62.332,73.976 64.406,71.494 L62.026,69.488 Z M75.048,75.54 C79.57,75.54 83.378,72.242 83.378,67.21 C83.378,62.178 79.57,58.982 75.048,58.982 C70.526,58.982 66.752,62.178 66.752,67.21 C66.752,72.242 70.526,75.54 75.048,75.54 L75.048,75.54 Z M75.048,72.548 C72.192,72.548 69.812,70.44 69.812,67.21 C69.812,64.014 72.192,62.008 75.048,62.008 C77.904,62.008 80.284,64.014 80.284,67.21 C80.284,70.44 77.904,72.548 75.048,72.548 L75.048,72.548 Z M105.75,62.008 C108.028,62.008 109.388,63.606 109.388,66.224 L109.388,75.2 L112.482,75.2 L112.482,66.02 C112.482,61.566 110.34,58.982 106.362,58.982 C104.798,58.982 102.316,59.424 100.854,62.246 C100.106,60.512 98.712,59.458 96.706,59.152 C96.162,59.05 95.584,59.016 94.972,59.05 C93.68,59.152 91.436,59.934 90.586,61.702 L90.586,59.322 L87.492,59.322 L87.492,75.2 L90.586,75.2 L90.586,66.632 C90.586,63.3 92.796,62.008 95.006,62.008 C97.08,62.008 98.44,63.572 98.44,66.19 L98.44,75.2 L101.534,75.2 L101.534,66.632 C101.534,63.98 103.132,61.974 105.75,62.008 L105.75,62.008 Z M135.704,62.008 C137.982,62.008 139.342,63.606 139.342,66.224 L139.342,75.2 L142.436,75.2 L142.436,66.02 C142.436,61.566 140.294,58.982 136.316,58.982 C134.752,58.982 132.27,59.424 130.808,62.246 C130.06,60.512 128.666,59.458 126.66,59.152 C126.116,59.05 125.538,59.016 124.926,59.05 C123.634,59.152 121.39,59.934 120.54,61.702 L120.54,59.322 L117.446,59.322 L117.446,75.2 L120.54,75.2 L120.54,66.632 C120.54,63.3 122.75,62.008 124.96,62.008 C127.034,62.008 128.394,63.572 128.394,66.19 L128.394,75.2 L131.488,75.2 L131.488,66.632 C131.488,63.98 133.086,61.974 135.704,62.008 L135.704,62.008 Z M158.246,67.89 C158.246,71.29 156.002,72.514 153.758,72.514 C151.582,72.514 150.29,70.95 150.29,68.298 L150.29,59.322 L147.196,59.322 L147.196,68.502 C147.162,72.956 149.338,75.54 153.316,75.54 C155.05,75.54 157.294,74.724 158.246,72.82 L158.246,75.2 L161.34,75.2 L161.34,59.322 L158.246,59.322 L158.246,67.89 Z M169.602,66.632 C169.602,63.266 171.846,62.008 174.09,62.008 C176.266,62.008 177.592,63.572 177.592,66.224 L177.592,75.2 L180.686,75.2 L180.686,66.02 C180.686,61.566 178.51,58.982 174.566,58.982 C172.832,58.982 170.554,59.798 169.602,61.702 L169.602,59.322 L166.508,59.322 L166.508,75.2 L169.602,75.2 L169.602,66.632 Z M185.038,53.474 C185.038,54.63 186.024,55.48 187.18,55.48 C188.37,55.48 189.322,54.63 189.322,53.474 C189.322,52.318 188.37,51.468 187.18,51.468 C186.024,51.468 185.038,52.318 185.038,53.474 L185.038,53.474 Z M188.71,59.322 L185.65,59.322 L185.65,75.2 L188.71,75.2 L188.71,59.322 Z M192.824,67.21 C192.824,72.242 196.7,75.54 201.222,75.54 C203.67,75.54 205.88,74.588 207.376,72.956 L204.996,70.984 C204.044,71.97 202.684,72.548 201.222,72.548 C198.366,72.548 195.884,70.406 195.884,67.21 C195.884,64.014 198.366,62.008 201.222,62.008 C202.684,62.008 204.044,62.552 204.996,63.504 L207.342,61.532 C205.846,59.9 203.636,58.982 201.222,58.982 C196.7,58.982 192.824,62.178 192.824,67.21 L192.824,67.21 Z M216.114,72.786 C213.972,72.786 212.986,71.8 212.986,70.61 C212.986,69.556 213.598,68.128 216.862,68.128 C217.848,68.128 219.922,68.366 221.588,68.944 L221.588,70.1 C220.466,71.936 217.746,72.786 216.114,72.786 L216.114,72.786 Z M221.622,73.16 L221.622,75.2 L224.682,75.2 L224.682,65.646 C224.682,61.26 221.962,58.982 217.44,58.982 C215.366,58.982 212.544,59.56 210.844,61.974 L212.748,63.81 C213.87,62.518 215.672,61.77 217.202,61.77 C220.024,61.77 221.622,63.334 221.622,65.646 L221.622,66.462 C219.786,65.884 218.324,65.612 216.862,65.612 C211.898,65.612 210.062,67.89 210.062,70.61 C210.062,73.704 212.442,75.54 216.046,75.54 C218.018,75.54 220.466,74.792 221.622,73.16 L221.622,73.16 Z M233.93,59.322 L233.93,53.338 L230.836,53.338 L230.836,59.322 L227.98,59.322 L227.98,61.94 L230.836,61.94 L230.836,75.2 L233.93,75.2 L233.93,61.94 L237.296,61.94 L237.296,59.322 L233.93,59.322 Z M240.186,53.474 C240.186,54.63 241.172,55.48 242.328,55.48 C243.518,55.48 244.47,54.63 244.47,53.474 C244.47,52.318 243.518,51.468 242.328,51.468 C241.172,51.468 240.186,52.318 240.186,53.474 L240.186,53.474 Z M243.858,59.322 L240.798,59.322 L240.798,75.2 L243.858,75.2 L243.858,59.322 Z M256.268,75.54 C260.79,75.54 264.598,72.242 264.598,67.21 C264.598,62.178 260.79,58.982 256.268,58.982 C251.746,58.982 247.972,62.178 247.972,67.21 C247.972,72.242 251.746,75.54 256.268,75.54 L256.268,75.54 Z M256.268,72.548 C253.412,72.548 251.032,70.44 251.032,67.21 C251.032,64.014 253.412,62.008 256.268,62.008 C259.124,62.008 261.504,64.014 261.504,67.21 C261.504,70.44 259.124,72.548 256.268,72.548 L256.268,72.548 Z M271.806,66.632 C271.806,63.266 274.05,62.008 276.294,62.008 C278.47,62.008 279.796,63.572 279.796,66.224 L279.796,75.2 L282.89,75.2 L282.89,66.02 C282.89,61.566 280.714,58.982 276.77,58.982 C275.036,58.982 272.758,59.798 271.806,61.702 L271.806,59.322 L268.712,59.322 L268.712,75.2 L271.806,75.2 L271.806,66.632 Z" id="Communication" fill="#182226"></path>
                <path d="M176,108 L65,108 L65,130 L176,130 L176,108 Z" id="Fill-6" fill="#7CBDDF" style="mix-blend-mode: darken;"></path>
                <path d="M251.52381,-3.90798505e-14 C244.924944,-3.90798505e-14 240,4.92494444 240,11.5238095 C240,17.0750556 244.924944,22 251.52381,22 C257.075056,22 262,17.0750556 262,11.5238095 C262,4.92494444 257.075056,-3.90798505e-14 251.52381,-3.90798505e-14 Z" id="Fill-14" fill="#EF4962" style="mix-blend-mode: darken;"></path>
                <path d="M22.0008259,42.8919598 L22.0008259,63.9219595 L0.990825688,63.9219605 L22.0008259,42.8919598 Z" id="Shape-Copy-25" fill="#5AC2B3" style="mix-blend-mode: darken;" transform="translate(11.495826, 53.406960) scale(-1, 1) translate(-11.495826, -53.406960) "></path>
            </g>
        </g>
    </g>
</svg>