<?xml version="1.0" encoding="UTF-8" standalone="no"?>
<svg width="244px" height="164px" viewBox="0 0 244 164" version="1.1" xmlns="http://www.w3.org/2000/svg" xmlns:xlink="http://www.w3.org/1999/xlink">
    <!-- Generator: Sketch 3.6.1 (26313) - http://www.bohemiancoding.com/sketch -->
    <title>communication-mobile</title>
    <desc>Created with Sketch.</desc>
    <defs></defs>
    <g id="Page-1-Copy" stroke="none" stroke-width="1" fill="none" fill-rule="evenodd">
        <g id="communication-mobile">
            <g id="Group-3">
                <g id="Group-12" transform="translate(0.500000, 0.500000)">
                    <g id="Dot-Copy-946" transform="translate(240.000000, 160.000000)">
                        <rect id="Grid-Unit" x="0" y="0" width="20" height="20"></rect>
                        <circle id="Dot" fill="#000000" cx="1.5" cy="1.5" r="1.25"></circle>
                    </g>
                    <g id="Dot-Copy-945" transform="translate(220.000000, 160.000000)">
                        <rect id="Grid-Unit" x="0" y="0" width="20" height="20"></rect>
                        <circle id="Dot" fill="#000000" cx="1.5" cy="1.5" r="1.25"></circle>
                    </g>
                    <g id="Dot-Copy-944" transform="translate(200.000000, 160.000000)">
                        <rect id="Grid-Unit" x="0" y="0" width="20" height="20"></rect>
                        <circle id="Dot" fill="#000000" cx="1.5" cy="1.5" r="1.25"></circle>
                    </g>
                    <g id="Dot-Copy-943" transform="translate(180.000000, 160.000000)">
                        <rect id="Grid-Unit" x="0" y="0" width="20" height="20"></rect>
                        <circle id="Dot" fill="#000000" cx="1.5" cy="1.5" r="1.25"></circle>
                    </g>
                    <g id="Dot-Copy-942" transform="translate(160.000000, 160.000000)">
                        <rect id="Grid-Unit" x="0" y="0" width="20" height="20"></rect>
                        <circle id="Dot" fill="#000000" cx="1.5" cy="1.5" r="1.25"></circle>
                    </g>
                    <g id="Dot-Copy-941" transform="translate(140.000000, 160.000000)">
                        <rect id="Grid-Unit" x="0" y="0" width="20" height="20"></rect>
                        <circle id="Dot" fill="#000000" cx="1.5" cy="1.5" r="1.25"></circle>
                    </g>
                    <g id="Dot-Copy-940" transform="translate(120.000000, 160.000000)">
                        <rect id="Grid-Unit" x="0" y="0" width="20" height="20"></rect>
                        <circle id="Dot" fill="#000000" cx="1.5" cy="1.5" r="1.25"></circle>
                    </g>
                    <g id="Dot-Copy-939" transform="translate(100.000000, 160.000000)">
                        <rect id="Grid-Unit" x="0" y="0" width="20" height="20"></rect>
                        <circle id="Dot" fill="#000000" cx="1.5" cy="1.5" r="1.25"></circle>
                    </g>
                    <g id="Dot-Copy-938" transform="translate(80.000000, 160.000000)">
                        <rect id="Grid-Unit" x="0" y="0" width="20" height="20"></rect>
                        <circle id="Dot" fill="#000000" cx="1.5" cy="1.5" r="1.25"></circle>
                    </g>
                    <g id="Dot-Copy-937" transform="translate(60.000000, 160.000000)">
                        <rect id="Grid-Unit" x="0" y="0" width="20" height="20"></rect>
                        <circle id="Dot" fill="#000000" cx="1.5" cy="1.5" r="1.25"></circle>
                    </g>
                    <g id="Dot-Copy-936" transform="translate(40.000000, 160.000000)">
                        <rect id="Grid-Unit" x="0" y="0" width="20" height="20"></rect>
                        <circle id="Dot" fill="#000000" cx="1.5" cy="1.5" r="1.25"></circle>
                    </g>
                    <g id="Dot-Copy-935" transform="translate(20.000000, 160.000000)">
                        <rect id="Grid-Unit" x="0" y="0" width="20" height="20"></rect>
                        <circle id="Dot" fill="#000000" cx="1.5" cy="1.5" r="1.25"></circle>
                    </g>
                    <g id="Dot-Copy-934" transform="translate(0.000000, 160.000000)">
                        <rect id="Grid-Unit" x="0" y="0" width="20" height="20"></rect>
                        <circle id="Dot" fill="#000000" cx="1.5" cy="1.5" r="1.25"></circle>
                    </g>
                    <g id="Dot-Copy-932" transform="translate(240.000000, 140.000000)">
                        <rect id="Grid-Unit" x="0" y="0" width="20" height="20"></rect>
                        <circle id="Dot" fill="#000000" cx="1.5" cy="1.5" r="1.25"></circle>
                    </g>
                    <g id="Dot-Copy-931" transform="translate(220.000000, 140.000000)">
                        <rect id="Grid-Unit" x="0" y="0" width="20" height="20"></rect>
                        <circle id="Dot" fill="#000000" cx="1.5" cy="1.5" r="1.25"></circle>
                    </g>
                    <g id="Dot-Copy-930" transform="translate(200.000000, 140.000000)">
                        <rect id="Grid-Unit" x="0" y="0" width="20" height="20"></rect>
                        <circle id="Dot" fill="#000000" cx="1.5" cy="1.5" r="1.25"></circle>
                    </g>
                    <g id="Dot-Copy-929" transform="translate(180.000000, 140.000000)">
                        <rect id="Grid-Unit" x="0" y="0" width="20" height="20"></rect>
                        <circle id="Dot" fill="#000000" cx="1.5" cy="1.5" r="1.25"></circle>
                    </g>
                    <g id="Dot-Copy-928" transform="translate(160.000000, 140.000000)">
                        <rect id="Grid-Unit" x="0" y="0" width="20" height="20"></rect>
                        <circle id="Dot" fill="#000000" cx="1.5" cy="1.5" r="1.25"></circle>
                    </g>
                    <g id="Dot-Copy-927" transform="translate(140.000000, 140.000000)">
                        <rect id="Grid-Unit" x="0" y="0" width="20" height="20"></rect>
                        <circle id="Dot" fill="#000000" cx="1.5" cy="1.5" r="1.25"></circle>
                    </g>
                    <g id="Dot-Copy-926" transform="translate(120.000000, 140.000000)">
                        <rect id="Grid-Unit" x="0" y="0" width="20" height="20"></rect>
                        <circle id="Dot" fill="#000000" cx="1.5" cy="1.5" r="1.25"></circle>
                    </g>
                    <g id="Dot-Copy-925" transform="translate(100.000000, 140.000000)">
                        <rect id="Grid-Unit" x="0" y="0" width="20" height="20"></rect>
                        <circle id="Dot" fill="#000000" cx="1.5" cy="1.5" r="1.25"></circle>
                    </g>
                    <g id="Dot-Copy-924" transform="translate(80.000000, 140.000000)">
                        <rect id="Grid-Unit" x="0" y="0" width="20" height="20"></rect>
                        <circle id="Dot" fill="#000000" cx="1.5" cy="1.5" r="1.25"></circle>
                    </g>
                    <g id="Dot-Copy-923" transform="translate(60.000000, 140.000000)">
                        <rect id="Grid-Unit" x="0" y="0" width="20" height="20"></rect>
                        <circle id="Dot" fill="#000000" cx="1.5" cy="1.5" r="1.25"></circle>
                    </g>
                    <g id="Dot-Copy-922" transform="translate(40.000000, 140.000000)">
                        <rect id="Grid-Unit" x="0" y="0" width="20" height="20"></rect>
                        <circle id="Dot" fill="#000000" cx="1.5" cy="1.5" r="1.25"></circle>
                    </g>
                    <g id="Dot-Copy-921" transform="translate(20.000000, 140.000000)">
                        <rect id="Grid-Unit" x="0" y="0" width="20" height="20"></rect>
                        <circle id="Dot" fill="#000000" cx="1.5" cy="1.5" r="1.25"></circle>
                    </g>
                    <g id="Dot-Copy-920" transform="translate(0.000000, 140.000000)">
                        <rect id="Grid-Unit" x="0" y="0" width="20" height="20"></rect>
                        <circle id="Dot" fill="#000000" cx="1.5" cy="1.5" r="1.25"></circle>
                    </g>
                    <g id="Dot-Copy-918" transform="translate(240.000000, 120.000000)">
                        <rect id="Grid-Unit" x="0" y="0" width="20" height="20"></rect>
                        <circle id="Dot" fill="#000000" cx="1.5" cy="1.5" r="1.25"></circle>
                    </g>
                    <g id="Dot-Copy-917" transform="translate(220.000000, 120.000000)">
                        <rect id="Grid-Unit" x="0" y="0" width="20" height="20"></rect>
                        <circle id="Dot" fill="#000000" cx="1.5" cy="1.5" r="1.25"></circle>
                    </g>
                    <g id="Dot-Copy-916" transform="translate(200.000000, 120.000000)">
                        <rect id="Grid-Unit" x="0" y="0" width="20" height="20"></rect>
                        <circle id="Dot" fill="#000000" cx="1.5" cy="1.5" r="1.25"></circle>
                    </g>
                    <g id="Dot-Copy-915" transform="translate(180.000000, 120.000000)">
                        <rect id="Grid-Unit" x="0" y="0" width="20" height="20"></rect>
                        <circle id="Dot" fill="#000000" cx="1.5" cy="1.5" r="1.25"></circle>
                    </g>
                    <g id="Dot-Copy-914" transform="translate(160.000000, 120.000000)">
                        <rect id="Grid-Unit" x="0" y="0" width="20" height="20"></rect>
                        <circle id="Dot" fill="#000000" cx="1.5" cy="1.5" r="1.25"></circle>
                    </g>
                    <g id="Dot-Copy-913" transform="translate(140.000000, 120.000000)">
                        <rect id="Grid-Unit" x="0" y="0" width="20" height="20"></rect>
                        <circle id="Dot" fill="#000000" cx="1.5" cy="1.5" r="1.25"></circle>
                    </g>
                    <g id="Dot-Copy-912" transform="translate(120.000000, 120.000000)">
                        <rect id="Grid-Unit" x="0" y="0" width="20" height="20"></rect>
                        <circle id="Dot" fill="#000000" cx="1.5" cy="1.5" r="1.25"></circle>
                    </g>
                    <g id="Dot-Copy-911" transform="translate(100.000000, 120.000000)">
                        <rect id="Grid-Unit" x="0" y="0" width="20" height="20"></rect>
                        <circle id="Dot" fill="#000000" cx="1.5" cy="1.5" r="1.25"></circle>
                    </g>
                    <g id="Dot-Copy-910" transform="translate(80.000000, 120.000000)">
                        <rect id="Grid-Unit" x="0" y="0" width="20" height="20"></rect>
                        <circle id="Dot" fill="#000000" cx="1.5" cy="1.5" r="1.25"></circle>
                    </g>
                    <g id="Dot-Copy-909" transform="translate(60.000000, 120.000000)">
                        <rect id="Grid-Unit" x="0" y="0" width="20" height="20"></rect>
                        <circle id="Dot" fill="#000000" cx="1.5" cy="1.5" r="1.25"></circle>
                    </g>
                    <g id="Dot-Copy-908" transform="translate(40.000000, 120.000000)">
                        <rect id="Grid-Unit" x="0" y="0" width="20" height="20"></rect>
                        <circle id="Dot" fill="#000000" cx="1.5" cy="1.5" r="1.25"></circle>
                    </g>
                    <g id="Dot-Copy-907" transform="translate(20.000000, 120.000000)">
                        <rect id="Grid-Unit" x="0" y="0" width="20" height="20"></rect>
                        <circle id="Dot" fill="#000000" cx="1.5" cy="1.5" r="1.25"></circle>
                    </g>
                    <g id="Dot-Copy-906" transform="translate(0.000000, 120.000000)">
                        <rect id="Grid-Unit" x="0" y="0" width="20" height="20"></rect>
                        <circle id="Dot" fill="#000000" cx="1.5" cy="1.5" r="1.25"></circle>
                    </g>
                    <g id="Dot-Copy-904" transform="translate(240.000000, 100.000000)">
                        <rect id="Grid-Unit" x="0" y="0" width="20" height="20"></rect>
                        <circle id="Dot" fill="#000000" cx="1.5" cy="1.5" r="1.25"></circle>
                    </g>
                    <g id="Dot-Copy-903" transform="translate(220.000000, 100.000000)">
                        <rect id="Grid-Unit" x="0" y="0" width="20" height="20"></rect>
                        <circle id="Dot" fill="#000000" cx="1.5" cy="1.5" r="1.25"></circle>
                    </g>
                    <g id="Dot-Copy-902" transform="translate(200.000000, 100.000000)">
                        <rect id="Grid-Unit" x="0" y="0" width="20" height="20"></rect>
                        <circle id="Dot" fill="#000000" cx="1.5" cy="1.5" r="1.25"></circle>
                    </g>
                    <g id="Dot-Copy-901" transform="translate(180.000000, 100.000000)">
                        <rect id="Grid-Unit" x="0" y="0" width="20" height="20"></rect>
                        <circle id="Dot" fill="#000000" cx="1.5" cy="1.5" r="1.25"></circle>
                    </g>
                    <g id="Dot-Copy-900" transform="translate(160.000000, 100.000000)">
                        <rect id="Grid-Unit" x="0" y="0" width="20" height="20"></rect>
                        <circle id="Dot" fill="#000000" cx="1.5" cy="1.5" r="1.25"></circle>
                    </g>
                    <g id="Dot-Copy-899" transform="translate(140.000000, 100.000000)">
                        <rect id="Grid-Unit" x="0" y="0" width="20" height="20"></rect>
                        <circle id="Dot" fill="#000000" cx="1.5" cy="1.5" r="1.25"></circle>
                    </g>
                    <g id="Dot-Copy-898" transform="translate(120.000000, 100.000000)">
                        <rect id="Grid-Unit" x="0" y="0" width="20" height="20"></rect>
                        <circle id="Dot" fill="#000000" cx="1.5" cy="1.5" r="1.25"></circle>
                    </g>
                    <g id="Dot-Copy-897" transform="translate(100.000000, 100.000000)">
                        <rect id="Grid-Unit" x="0" y="0" width="20" height="20"></rect>
                        <circle id="Dot" fill="#000000" cx="1.5" cy="1.5" r="1.25"></circle>
                    </g>
                    <g id="Dot-Copy-896" transform="translate(80.000000, 100.000000)">
                        <rect id="Grid-Unit" x="0" y="0" width="20" height="20"></rect>
                        <circle id="Dot" fill="#000000" cx="1.5" cy="1.5" r="1.25"></circle>
                    </g>
                    <g id="Dot-Copy-895" transform="translate(60.000000, 100.000000)">
                        <rect id="Grid-Unit" x="0" y="0" width="20" height="20"></rect>
                        <circle id="Dot" fill="#000000" cx="1.5" cy="1.5" r="1.25"></circle>
                    </g>
                    <g id="Dot-Copy-894" transform="translate(40.000000, 100.000000)">
                        <rect id="Grid-Unit" x="0" y="0" width="20" height="20"></rect>
                        <circle id="Dot" fill="#000000" cx="1.5" cy="1.5" r="1.25"></circle>
                    </g>
                    <g id="Dot-Copy-893" transform="translate(20.000000, 100.000000)">
                        <rect id="Grid-Unit" x="0" y="0" width="20" height="20"></rect>
                        <circle id="Dot" fill="#000000" cx="1.5" cy="1.5" r="1.25"></circle>
                    </g>
                    <g id="Dot-Copy-892" transform="translate(0.000000, 100.000000)">
                        <rect id="Grid-Unit" x="0" y="0" width="20" height="20"></rect>
                        <circle id="Dot" fill="#000000" cx="1.5" cy="1.5" r="1.25"></circle>
                    </g>
                    <g id="Dot-Copy-890" transform="translate(240.000000, 80.000000)">
                        <rect id="Grid-Unit" x="0" y="0" width="20" height="20"></rect>
                        <circle id="Dot" fill="#000000" cx="1.5" cy="1.5" r="1.25"></circle>
                    </g>
                    <g id="Dot-Copy-889" transform="translate(220.000000, 80.000000)">
                        <rect id="Grid-Unit" x="0" y="0" width="20" height="20"></rect>
                        <circle id="Dot" fill="#000000" cx="1.5" cy="1.5" r="1.25"></circle>
                    </g>
                    <g id="Dot-Copy-888" transform="translate(200.000000, 80.000000)">
                        <rect id="Grid-Unit" x="0" y="0" width="20" height="20"></rect>
                        <circle id="Dot" fill="#000000" cx="1.5" cy="1.5" r="1.25"></circle>
                    </g>
                    <g id="Dot-Copy-887" transform="translate(180.000000, 80.000000)">
                        <rect id="Grid-Unit" x="0" y="0" width="20" height="20"></rect>
                        <circle id="Dot" fill="#000000" cx="1.5" cy="1.5" r="1.25"></circle>
                    </g>
                    <g id="Dot-Copy-886" transform="translate(160.000000, 80.000000)">
                        <rect id="Grid-Unit" x="0" y="0" width="20" height="20"></rect>
                        <circle id="Dot" fill="#000000" cx="1.5" cy="1.5" r="1.25"></circle>
                    </g>
                    <g id="Dot-Copy-885" transform="translate(140.000000, 80.000000)">
                        <rect id="Grid-Unit" x="0" y="0" width="20" height="20"></rect>
                        <circle id="Dot" fill="#000000" cx="1.5" cy="1.5" r="1.25"></circle>
                    </g>
                    <g id="Dot-Copy-884" transform="translate(120.000000, 80.000000)">
                        <rect id="Grid-Unit" x="0" y="0" width="20" height="20"></rect>
                        <circle id="Dot" fill="#000000" cx="1.5" cy="1.5" r="1.25"></circle>
                    </g>
                    <g id="Dot-Copy-883" transform="translate(100.000000, 80.000000)">
                        <rect id="Grid-Unit" x="0" y="0" width="20" height="20"></rect>
                        <circle id="Dot" fill="#000000" cx="1.5" cy="1.5" r="1.25"></circle>
                    </g>
                    <g id="Dot-Copy-882" transform="translate(80.000000, 80.000000)">
                        <rect id="Grid-Unit" x="0" y="0" width="20" height="20"></rect>
                        <circle id="Dot" fill="#000000" cx="1.5" cy="1.5" r="1.25"></circle>
                    </g>
                    <g id="Dot-Copy-881" transform="translate(60.000000, 80.000000)">
                        <rect id="Grid-Unit" x="0" y="0" width="20" height="20"></rect>
                        <circle id="Dot" fill="#000000" cx="1.5" cy="1.5" r="1.25"></circle>
                    </g>
                    <g id="Dot-Copy-880" transform="translate(40.000000, 80.000000)">
                        <rect id="Grid-Unit" x="0" y="0" width="20" height="20"></rect>
                        <circle id="Dot" fill="#000000" cx="1.5" cy="1.5" r="1.25"></circle>
                    </g>
                    <g id="Dot-Copy-879" transform="translate(20.000000, 80.000000)">
                        <rect id="Grid-Unit" x="0" y="0" width="20" height="20"></rect>
                        <circle id="Dot" fill="#000000" cx="1.5" cy="1.5" r="1.25"></circle>
                    </g>
                    <g id="Dot-Copy-878" transform="translate(0.000000, 80.000000)">
                        <rect id="Grid-Unit" x="0" y="0" width="20" height="20"></rect>
                        <circle id="Dot" fill="#000000" cx="1.5" cy="1.5" r="1.25"></circle>
                    </g>
                    <g id="Dot-Copy-876" transform="translate(240.000000, 60.000000)">
                        <rect id="Grid-Unit" x="0" y="0" width="20" height="20"></rect>
                        <circle id="Dot" fill="#000000" cx="1.5" cy="1.5" r="1.25"></circle>
                    </g>
                    <g id="Dot-Copy-875" transform="translate(220.000000, 60.000000)">
                        <rect id="Grid-Unit" x="0" y="0" width="20" height="20"></rect>
                        <circle id="Dot" fill="#000000" cx="1.5" cy="1.5" r="1.25"></circle>
                    </g>
                    <g id="Dot-Copy-874" transform="translate(200.000000, 60.000000)">
                        <rect id="Grid-Unit" x="0" y="0" width="20" height="20"></rect>
                        <circle id="Dot" fill="#000000" cx="1.5" cy="1.5" r="1.25"></circle>
                    </g>
                    <g id="Dot-Copy-873" transform="translate(180.000000, 60.000000)">
                        <rect id="Grid-Unit" x="0" y="0" width="20" height="20"></rect>
                        <circle id="Dot" fill="#000000" cx="1.5" cy="1.5" r="1.25"></circle>
                    </g>
                    <g id="Dot-Copy-872" transform="translate(160.000000, 60.000000)">
                        <rect id="Grid-Unit" x="0" y="0" width="20" height="20"></rect>
                        <circle id="Dot" fill="#000000" cx="1.5" cy="1.5" r="1.25"></circle>
                    </g>
                    <g id="Dot-Copy-871" transform="translate(140.000000, 60.000000)">
                        <rect id="Grid-Unit" x="0" y="0" width="20" height="20"></rect>
                        <circle id="Dot" fill="#000000" cx="1.5" cy="1.5" r="1.25"></circle>
                    </g>
                    <g id="Dot-Copy-870" transform="translate(120.000000, 60.000000)">
                        <rect id="Grid-Unit" x="0" y="0" width="20" height="20"></rect>
                        <circle id="Dot" fill="#000000" cx="1.5" cy="1.5" r="1.25"></circle>
                    </g>
                    <g id="Dot-Copy-869" transform="translate(100.000000, 60.000000)">
                        <rect id="Grid-Unit" x="0" y="0" width="20" height="20"></rect>
                        <circle id="Dot" fill="#000000" cx="1.5" cy="1.5" r="1.25"></circle>
                    </g>
                    <g id="Dot-Copy-868" transform="translate(80.000000, 60.000000)">
                        <rect id="Grid-Unit" x="0" y="0" width="20" height="20"></rect>
                        <circle id="Dot" fill="#000000" cx="1.5" cy="1.5" r="1.25"></circle>
                    </g>
                    <g id="Dot-Copy-867" transform="translate(60.000000, 60.000000)">
                        <rect id="Grid-Unit" x="0" y="0" width="20" height="20"></rect>
                        <circle id="Dot" fill="#000000" cx="1.5" cy="1.5" r="1.25"></circle>
                    </g>
                    <g id="Dot-Copy-866" transform="translate(40.000000, 60.000000)">
                        <rect id="Grid-Unit" x="0" y="0" width="20" height="20"></rect>
                        <circle id="Dot" fill="#000000" cx="1.5" cy="1.5" r="1.25"></circle>
                    </g>
                    <g id="Dot-Copy-865" transform="translate(20.000000, 60.000000)">
                        <rect id="Grid-Unit" x="0" y="0" width="20" height="20"></rect>
                        <circle id="Dot" fill="#000000" cx="1.5" cy="1.5" r="1.25"></circle>
                    </g>
                    <g id="Dot-Copy-864" transform="translate(0.000000, 60.000000)">
                        <rect id="Grid-Unit" x="0" y="0" width="20" height="20"></rect>
                        <circle id="Dot" fill="#000000" cx="1.5" cy="1.5" r="1.25"></circle>
                    </g>
                    <g id="Dot-Copy-862" transform="translate(240.000000, 40.000000)">
                        <rect id="Grid-Unit" x="0" y="0" width="20" height="20"></rect>
                        <circle id="Dot" fill="#000000" cx="1.5" cy="1.5" r="1.25"></circle>
                    </g>
                    <g id="Dot-Copy-861" transform="translate(220.000000, 40.000000)">
                        <rect id="Grid-Unit" x="0" y="0" width="20" height="20"></rect>
                        <circle id="Dot" fill="#000000" cx="1.5" cy="1.5" r="1.25"></circle>
                    </g>
                    <g id="Dot-Copy-860" transform="translate(200.000000, 40.000000)">
                        <rect id="Grid-Unit" x="0" y="0" width="20" height="20"></rect>
                        <circle id="Dot" fill="#000000" cx="1.5" cy="1.5" r="1.25"></circle>
                    </g>
                    <g id="Dot-Copy-859" transform="translate(180.000000, 40.000000)">
                        <rect id="Grid-Unit" x="0" y="0" width="20" height="20"></rect>
                        <circle id="Dot" fill="#000000" cx="1.5" cy="1.5" r="1.25"></circle>
                    </g>
                    <g id="Dot-Copy-858" transform="translate(160.000000, 40.000000)">
                        <rect id="Grid-Unit" x="0" y="0" width="20" height="20"></rect>
                        <circle id="Dot" fill="#000000" cx="1.5" cy="1.5" r="1.25"></circle>
                    </g>
                    <g id="Dot-Copy-857" transform="translate(140.000000, 40.000000)">
                        <rect id="Grid-Unit" x="0" y="0" width="20" height="20"></rect>
                        <circle id="Dot" fill="#000000" cx="1.5" cy="1.5" r="1.25"></circle>
                    </g>
                    <g id="Dot-Copy-856" transform="translate(120.000000, 40.000000)">
                        <rect id="Grid-Unit" x="0" y="0" width="20" height="20"></rect>
                        <circle id="Dot" fill="#000000" cx="1.5" cy="1.5" r="1.25"></circle>
                    </g>
                    <g id="Dot-Copy-855" transform="translate(100.000000, 40.000000)">
                        <rect id="Grid-Unit" x="0" y="0" width="20" height="20"></rect>
                        <circle id="Dot" fill="#000000" cx="1.5" cy="1.5" r="1.25"></circle>
                    </g>
                    <g id="Dot-Copy-854" transform="translate(80.000000, 40.000000)">
                        <rect id="Grid-Unit" x="0" y="0" width="20" height="20"></rect>
                        <circle id="Dot" fill="#000000" cx="1.5" cy="1.5" r="1.25"></circle>
                    </g>
                    <g id="Dot-Copy-853" transform="translate(60.000000, 40.000000)">
                        <rect id="Grid-Unit" x="0" y="0" width="20" height="20"></rect>
                        <circle id="Dot" fill="#000000" cx="1.5" cy="1.5" r="1.25"></circle>
                    </g>
                    <g id="Dot-Copy-852" transform="translate(40.000000, 40.000000)">
                        <rect id="Grid-Unit" x="0" y="0" width="20" height="20"></rect>
                        <circle id="Dot" fill="#000000" cx="1.5" cy="1.5" r="1.25"></circle>
                    </g>
                    <g id="Dot-Copy-851" transform="translate(20.000000, 40.000000)">
                        <rect id="Grid-Unit" x="0" y="0" width="20" height="20"></rect>
                        <circle id="Dot" fill="#000000" cx="1.5" cy="1.5" r="1.25"></circle>
                    </g>
                    <g id="Dot-Copy-850" transform="translate(0.000000, 40.000000)">
                        <rect id="Grid-Unit" x="0" y="0" width="20" height="20"></rect>
                        <circle id="Dot" fill="#000000" cx="1.5" cy="1.5" r="1.25"></circle>
                    </g>
                    <g id="Dot-Copy-848" transform="translate(240.000000, 20.000000)">
                        <rect id="Grid-Unit" x="0" y="0" width="20" height="20"></rect>
                        <circle id="Dot" fill="#000000" cx="1.5" cy="1.5" r="1.25"></circle>
                    </g>
                    <g id="Dot-Copy-847" transform="translate(220.000000, 20.000000)">
                        <rect id="Grid-Unit" x="0" y="0" width="20" height="20"></rect>
                        <circle id="Dot" fill="#000000" cx="1.5" cy="1.5" r="1.25"></circle>
                    </g>
                    <g id="Dot-Copy-846" transform="translate(200.000000, 20.000000)">
                        <rect id="Grid-Unit" x="0" y="0" width="20" height="20"></rect>
                        <circle id="Dot" fill="#000000" cx="1.5" cy="1.5" r="1.25"></circle>
                    </g>
                    <g id="Dot-Copy-845" transform="translate(180.000000, 20.000000)">
                        <rect id="Grid-Unit" x="0" y="0" width="20" height="20"></rect>
                        <circle id="Dot" fill="#000000" cx="1.5" cy="1.5" r="1.25"></circle>
                    </g>
                    <g id="Dot-Copy-844" transform="translate(160.000000, 20.000000)">
                        <rect id="Grid-Unit" x="0" y="0" width="20" height="20"></rect>
                        <circle id="Dot" fill="#000000" cx="1.5" cy="1.5" r="1.25"></circle>
                    </g>
                    <g id="Dot-Copy-843" transform="translate(140.000000, 20.000000)">
                        <rect id="Grid-Unit" x="0" y="0" width="20" height="20"></rect>
                        <circle id="Dot" fill="#000000" cx="1.5" cy="1.5" r="1.25"></circle>
                    </g>
                    <g id="Dot-Copy-842" transform="translate(120.000000, 20.000000)">
                        <rect id="Grid-Unit" x="0" y="0" width="20" height="20"></rect>
                        <circle id="Dot" fill="#000000" cx="1.5" cy="1.5" r="1.25"></circle>
                    </g>
                    <g id="Dot-Copy-841" transform="translate(100.000000, 20.000000)">
                        <rect id="Grid-Unit" x="0" y="0" width="20" height="20"></rect>
                        <circle id="Dot" fill="#000000" cx="1.5" cy="1.5" r="1.25"></circle>
                    </g>
                    <g id="Dot-Copy-840" transform="translate(80.000000, 20.000000)">
                        <rect id="Grid-Unit" x="0" y="0" width="20" height="20"></rect>
                        <circle id="Dot" fill="#000000" cx="1.5" cy="1.5" r="1.25"></circle>
                    </g>
                    <g id="Dot-Copy-839" transform="translate(60.000000, 20.000000)">
                        <rect id="Grid-Unit" x="0" y="0" width="20" height="20"></rect>
                        <circle id="Dot" fill="#000000" cx="1.5" cy="1.5" r="1.25"></circle>
                    </g>
                    <g id="Dot-Copy-838" transform="translate(40.000000, 20.000000)">
                        <rect id="Grid-Unit" x="0" y="0" width="20" height="20"></rect>
                        <circle id="Dot" fill="#000000" cx="1.5" cy="1.5" r="1.25"></circle>
                    </g>
                    <g id="Dot-Copy-837" transform="translate(20.000000, 20.000000)">
                        <rect id="Grid-Unit" x="0" y="0" width="20" height="20"></rect>
                        <circle id="Dot" fill="#000000" cx="1.5" cy="1.5" r="1.25"></circle>
                    </g>
                    <g id="Dot-Copy-836" transform="translate(0.000000, 20.000000)">
                        <rect id="Grid-Unit" x="0" y="0" width="20" height="20"></rect>
                        <circle id="Dot" fill="#000000" cx="1.5" cy="1.5" r="1.25"></circle>
                    </g>
                    <g id="Dot-Copy-834" transform="translate(240.000000, 0.000000)">
                        <rect id="Grid-Unit" x="0" y="0" width="20" height="20"></rect>
                        <circle id="Dot" fill="#000000" cx="1.5" cy="1.5" r="1.25"></circle>
                    </g>
                    <g id="Dot-Copy-833" transform="translate(220.000000, 0.000000)">
                        <rect id="Grid-Unit" x="0" y="0" width="20" height="20"></rect>
                        <circle id="Dot" fill="#000000" cx="1.5" cy="1.5" r="1.25"></circle>
                    </g>
                    <g id="Dot-Copy-832" transform="translate(200.000000, 0.000000)">
                        <rect id="Grid-Unit" x="0" y="0" width="20" height="20"></rect>
                        <circle id="Dot" fill="#000000" cx="1.5" cy="1.5" r="1.25"></circle>
                    </g>
                    <g id="Dot-Copy-831" transform="translate(180.000000, 0.000000)">
                        <rect id="Grid-Unit" x="0" y="0" width="20" height="20"></rect>
                        <circle id="Dot" fill="#000000" cx="1.5" cy="1.5" r="1.25"></circle>
                    </g>
                    <g id="Dot-Copy-830" transform="translate(160.000000, 0.000000)">
                        <rect id="Grid-Unit" x="0" y="0" width="20" height="20"></rect>
                        <circle id="Dot" fill="#000000" cx="1.5" cy="1.5" r="1.25"></circle>
                    </g>
                    <g id="Dot-Copy-829" transform="translate(140.000000, 0.000000)">
                        <rect id="Grid-Unit" x="0" y="0" width="20" height="20"></rect>
                        <circle id="Dot" fill="#000000" cx="1.5" cy="1.5" r="1.25"></circle>
                    </g>
                    <g id="Dot-Copy-828" transform="translate(120.000000, 0.000000)">
                        <rect id="Grid-Unit" x="0" y="0" width="20" height="20"></rect>
                        <circle id="Dot" fill="#000000" cx="1.5" cy="1.5" r="1.25"></circle>
                    </g>
                    <g id="Dot-Copy-827" transform="translate(100.000000, 0.000000)">
                        <rect id="Grid-Unit" x="0" y="0" width="20" height="20"></rect>
                        <circle id="Dot" fill="#000000" cx="1.5" cy="1.5" r="1.25"></circle>
                    </g>
                    <g id="Dot-Copy-826" transform="translate(80.000000, 0.000000)">
                        <rect id="Grid-Unit" x="0" y="0" width="20" height="20"></rect>
                        <circle id="Dot" fill="#000000" cx="1.5" cy="1.5" r="1.25"></circle>
                    </g>
                    <g id="Dot-Copy-825" transform="translate(60.000000, 0.000000)">
                        <rect id="Grid-Unit" x="0" y="0" width="20" height="20"></rect>
                        <circle id="Dot" fill="#000000" cx="1.5" cy="1.5" r="1.25"></circle>
                    </g>
                    <g id="Dot-Copy-824" transform="translate(40.000000, 0.000000)">
                        <rect id="Grid-Unit" x="0" y="0" width="20" height="20"></rect>
                        <circle id="Dot" fill="#000000" cx="1.5" cy="1.5" r="1.25"></circle>
                    </g>
                    <g id="Dot-Copy-823" transform="translate(20.000000, 0.000000)">
                        <rect id="Grid-Unit" x="0" y="0" width="20" height="20"></rect>
                        <circle id="Dot" fill="#000000" cx="1.5" cy="1.5" r="1.25"></circle>
                    </g>
                    <g id="Dot-Copy-822">
                        <rect id="Grid-Unit" x="0" y="0" width="20" height="20"></rect>
                        <circle id="Dot" fill="#000000" cx="1.5" cy="1.5" r="1.25"></circle>
                    </g>
                </g>
                <g id="communication-copy" transform="translate(14.000000, 2.000000)">
                    <path d="M88,0 L108,0 L108,20 L88,19.9999996 L88,0 Z" id="Rectangle-path-Copy-22" fill="#FCD315" style="mix-blend-mode: darken;"></path>
                    <rect id="Rectangle-843" fill="#FFFFFF" x="0" y="26" width="182" height="36"></rect>
                    <path d="M15.944,54.632 C14.912,55.952 13.304,56.792 11.48,56.792 C8.192,56.792 5.672,54.104 5.672,50.768 C5.672,47.432 8.192,44.72 11.48,44.72 C13.28,44.72 14.816,45.56 15.896,46.784 L17.864,45.248 C16.4,43.424 14.12,42.272 11.48,42.272 C6.8,42.272 3.128,46.064 3.128,50.768 C3.128,55.448 6.8,59.24 11.48,59.24 C14.168,59.24 16.472,58.064 17.912,56.192 L15.944,54.632 Z M25.256,59.24 C28.448,59.24 31.136,56.912 31.136,53.36 C31.136,49.808 28.448,47.552 25.256,47.552 C22.088,47.552 19.424,49.808 19.424,53.36 C19.424,56.912 22.088,59.24 25.256,59.24 L25.256,59.24 Z M25.256,56.84 C23.408,56.84 21.872,55.472 21.872,53.36 C21.872,51.296 23.408,49.976 25.256,49.976 C27.128,49.976 28.664,51.296 28.664,53.36 C28.664,55.472 27.128,56.84 25.256,56.84 L25.256,56.84 Z M46.64,49.976 C48.08,49.976 49.016,51.008 49.016,52.76 L49.016,59 L51.488,59 L51.488,52.544 C51.488,49.352 49.928,47.552 47.168,47.552 C46.136,47.552 44.456,47.84 43.4,49.784 C42.776,48.368 41.648,47.552 39.872,47.552 C38.984,47.552 37.088,47.912 36.344,49.472 L36.344,47.792 L33.872,47.792 L33.872,59 L36.344,59 L36.344,52.976 C36.344,50.792 37.736,49.976 39.176,49.976 C40.496,49.976 41.432,50.984 41.456,52.712 L41.456,59 L43.928,59 L43.928,52.976 C43.928,51.176 45.008,49.976 46.64,49.976 L46.64,49.976 Z M67.592,49.976 C69.032,49.976 69.968,51.008 69.968,52.76 L69.968,59 L72.44,59 L72.44,52.544 C72.44,49.352 70.88,47.552 68.12,47.552 C67.088,47.552 65.408,47.84 64.352,49.784 C63.728,48.368 62.6,47.552 60.824,47.552 C59.936,47.552 58.04,47.912 57.296,49.472 L57.296,47.792 L54.824,47.792 L54.824,59 L57.296,59 L57.296,52.976 C57.296,50.792 58.688,49.976 60.128,49.976 C61.448,49.976 62.384,50.984 62.408,52.712 L62.408,59 L64.88,59 L64.88,52.976 C64.88,51.176 65.96,49.976 67.592,49.976 L67.592,49.976 Z M83.336,47.792 L83.336,53.816 C83.336,56.048 81.896,56.84 80.456,56.84 C79.112,56.84 78.128,55.88 78.128,54.032 L78.128,47.792 L75.656,47.792 L75.656,54.32 C75.632,57.488 77.264,59.24 80,59.24 C81.176,59.24 82.688,58.64 83.336,57.368 L83.336,59 L85.808,59 L85.808,47.792 L83.336,47.792 Z M91.736,59 L91.736,52.976 C91.736,50.768 93.152,49.976 94.616,49.976 C96.056,49.976 96.968,50.984 96.968,52.76 L96.968,59 L99.44,59 L99.44,52.472 C99.44,49.304 97.88,47.552 95.168,47.552 C93.92,47.552 92.384,48.176 91.736,49.472 L91.736,47.792 L89.264,47.792 L89.264,59 L91.736,59 Z M102.344,43.256 C102.344,42.368 103.112,41.696 104,41.696 C104.912,41.696 105.632,42.368 105.632,43.256 C105.632,44.144 104.912,44.816 104,44.816 C103.112,44.816 102.344,44.144 102.344,43.256 L102.344,43.256 Z M105.224,47.792 L105.224,59 L102.776,59 L102.776,47.792 L105.224,47.792 Z M107.96,53.36 C107.96,56.912 110.72,59.24 113.936,59.24 C115.736,59.24 117.344,58.52 118.4,57.272 L116.456,55.76 C115.856,56.456 114.92,56.864 113.936,56.864 C112.064,56.864 110.408,55.448 110.408,53.36 C110.408,51.272 112.064,49.952 113.936,49.952 C114.92,49.952 115.856,50.336 116.456,51.032 L118.376,49.496 C117.32,48.248 115.712,47.552 113.936,47.552 C110.72,47.552 107.96,49.808 107.96,53.36 L107.96,53.36 Z M120.704,49.808 L122.12,51.32 C122.84,50.36 124.136,49.784 125.288,49.784 C127.088,49.784 128.12,50.84 128.12,52.304 L128.12,52.808 C127.04,52.304 126.008,52.088 125.048,52.088 C121.52,52.088 120.224,53.744 120.224,55.688 C120.224,57.92 121.928,59.24 124.496,59.24 C125.768,59.24 127.232,58.904 128.12,57.776 L128.12,59 L130.568,59 L130.568,52.304 C130.568,49.184 128.648,47.552 125.456,47.552 C123.992,47.552 121.976,48.008 120.704,49.808 L120.704,49.808 Z M124.592,56.984 C123.248,56.984 122.648,56.408 122.648,55.688 C122.648,55.064 123.032,54.032 125.096,54.032 C125.72,54.032 126.92,54.2 128.096,54.68 L128.096,55.52 C127.376,56.696 125.552,56.984 124.592,56.984 L124.592,56.984 Z M137.264,47.792 L137.264,43.544 L134.792,43.544 L134.792,47.792 L132.776,47.792 L132.776,49.832 L134.792,49.832 L134.792,59 L137.264,59 L137.264,49.832 L139.64,49.832 L139.64,47.792 L137.264,47.792 Z M141.536,43.256 C141.536,42.368 142.304,41.696 143.192,41.696 C144.104,41.696 144.824,42.368 144.824,43.256 C144.824,44.144 144.104,44.816 143.192,44.816 C142.304,44.816 141.536,44.144 141.536,43.256 L141.536,43.256 Z M144.416,47.792 L144.416,59 L141.968,59 L141.968,47.792 L144.416,47.792 Z M152.984,59.24 C156.176,59.24 158.864,56.912 158.864,53.36 C158.864,49.808 156.176,47.552 152.984,47.552 C149.816,47.552 147.152,49.808 147.152,53.36 C147.152,56.912 149.816,59.24 152.984,59.24 L152.984,59.24 Z M152.984,56.84 C151.136,56.84 149.6,55.472 149.6,53.36 C149.6,51.296 151.136,49.976 152.984,49.976 C154.856,49.976 156.392,51.296 156.392,53.36 C156.392,55.472 154.856,56.84 152.984,56.84 L152.984,56.84 Z M164.072,59 L164.072,52.976 C164.072,50.768 165.488,49.976 166.952,49.976 C168.392,49.976 169.304,50.984 169.304,52.76 L169.304,59 L171.776,59 L171.776,52.472 C171.776,49.304 170.216,47.552 167.504,47.552 C166.256,47.552 164.72,48.176 164.072,49.472 L164.072,47.792 L161.6,47.792 L161.6,59 L164.072,59 Z" id="Communication" fill="#182226"></path>
                    <path d="M228,120 L108,120 L108,160 L228,160 L228,120 Z" id="Fill-6" fill="#7CBDDF" style="mix-blend-mode: darken;"></path>
                    <path d="M148,80 C125.908889,80 108,97.9088889 108,120 C108,142.091111 125.908889,160 148,160 C170.091111,160 188,142.091111 188,120 C188,97.9088889 170.091111,80 148,80 Z" id="Fill-14" fill="#EF4962" style="mix-blend-mode: darken;"></path>
                    <path d="M48,100 L48,139.999998 L8,140 L48,100 Z" id="Shape-Copy-25" fill="#5AC2B3" style="mix-blend-mode: darken;" transform="translate(28.000000, 120.000000) scale(-1, 1) translate(-28.000000, -120.000000) "></path>
                </g>
            </g>
        </g>
    </g>
</svg>