<?xml version="1.0" encoding="UTF-8" standalone="no"?>
<svg width="320px" height="600px" viewBox="0 0 320 600" version="1.1" xmlns="http://www.w3.org/2000/svg" xmlns:xlink="http://www.w3.org/1999/xlink">
    <!-- Generator: Sketch 3.6.1 (26313) - http://www.bohemiancoding.com/sketch -->
    <title>Mobile Portrait</title>
    <desc>Created with Sketch.</desc>
    <defs></defs>
    <g id="Page-1" stroke="none" stroke-width="1" fill="none" fill-rule="evenodd">
        <g id="Mobile-Portrait">
            <g id="Grid" transform="translate(37.000000, 38.000000)">
                <g id="Grid-Unit">
                    <rect x="0" y="0" width="40" height="40"></rect>
                    <circle id="Dot" fill="#000000" cx="3" cy="3" r="3"></circle>
                </g>
                <g id="Grid-Unit" transform="translate(240.000000, 520.000000)">
                    <rect x="0" y="0" width="40" height="40"></rect>
                    <circle id="Dot" fill="#000000" cx="3" cy="3" r="3"></circle>
                </g>
                <g id="Grid-Unit" transform="translate(240.000000, 480.000000)">
                    <rect x="0" y="0" width="40" height="40"></rect>
                    <circle id="Dot" fill="#000000" cx="3" cy="3" r="3"></circle>
                </g>
                <g id="Grid-Unit" transform="translate(240.000000, 440.000000)">
                    <rect x="0" y="0" width="40" height="40"></rect>
                    <circle id="Dot" fill="#000000" cx="3" cy="3" r="3"></circle>
                </g>
                <g id="Grid-Unit" transform="translate(240.000000, 400.000000)">
                    <rect x="0" y="0" width="40" height="40"></rect>
                    <circle id="Dot" fill="#000000" cx="3" cy="3" r="3"></circle>
                </g>
                <g id="Grid-Unit" transform="translate(240.000000, 360.000000)">
                    <rect x="0" y="0" width="40" height="40"></rect>
                    <circle id="Dot" fill="#000000" cx="3" cy="3" r="3"></circle>
                </g>
                <g id="Grid-Unit" transform="translate(240.000000, 320.000000)">
                    <rect x="0" y="0" width="40" height="40"></rect>
                    <circle id="Dot" fill="#000000" cx="3" cy="3" r="3"></circle>
                </g>
                <g id="Grid-Unit" transform="translate(240.000000, 280.000000)">
                    <rect x="0" y="0" width="40" height="40"></rect>
                    <circle id="Dot" fill="#000000" cx="3" cy="3" r="3"></circle>
                </g>
                <g id="Grid-Unit" transform="translate(240.000000, 240.000000)">
                    <rect x="0" y="0" width="40" height="40"></rect>
                    <circle id="Dot" fill="#000000" cx="3" cy="3" r="3"></circle>
                </g>
                <g id="Grid-Unit" transform="translate(240.000000, 200.000000)">
                    <rect x="0" y="0" width="40" height="40"></rect>
                    <circle id="Dot" fill="#000000" cx="3" cy="3" r="3"></circle>
                </g>
                <g id="Grid-Unit" transform="translate(240.000000, 160.000000)">
                    <rect x="0" y="0" width="40" height="40"></rect>
                    <circle id="Dot" fill="#000000" cx="3" cy="3" r="3"></circle>
                </g>
                <g id="Grid-Unit" transform="translate(240.000000, 120.000000)">
                    <rect x="0" y="0" width="40" height="40"></rect>
                    <circle id="Dot" fill="#000000" cx="3" cy="3" r="3"></circle>
                </g>
                <g id="Grid-Unit" transform="translate(240.000000, 80.000000)">
                    <rect x="0" y="0" width="40" height="40"></rect>
                    <circle id="Dot" fill="#000000" cx="3" cy="3" r="3"></circle>
                </g>
                <g id="Grid-Unit" transform="translate(240.000000, 40.000000)">
                    <rect x="0" y="0" width="40" height="40"></rect>
                    <circle id="Dot" fill="#000000" cx="3" cy="3" r="3"></circle>
                </g>
                <g id="Grid-Unit" transform="translate(240.000000, 0.000000)">
                    <rect x="0" y="0" width="40" height="40"></rect>
                    <circle id="Dot" fill="#000000" cx="3" cy="3" r="3"></circle>
                </g>
                <g id="Grid-Unit" transform="translate(200.000000, 520.000000)">
                    <rect x="0" y="0" width="40" height="40"></rect>
                    <circle id="Dot" fill="#000000" cx="3" cy="3" r="3"></circle>
                </g>
                <g id="Grid-Unit" transform="translate(200.000000, 480.000000)">
                    <rect x="0" y="0" width="40" height="40"></rect>
                    <circle id="Dot" fill="#000000" cx="3" cy="3" r="3"></circle>
                </g>
                <g id="Grid-Unit" transform="translate(200.000000, 440.000000)">
                    <rect x="0" y="0" width="40" height="40"></rect>
                    <circle id="Dot" fill="#000000" cx="3" cy="3" r="3"></circle>
                </g>
                <g id="Grid-Unit" transform="translate(200.000000, 400.000000)">
                    <rect x="0" y="0" width="40" height="40"></rect>
                    <circle id="Dot" fill="#000000" cx="3" cy="3" r="3"></circle>
                </g>
                <g id="Grid-Unit" transform="translate(200.000000, 360.000000)">
                    <rect x="0" y="0" width="40" height="40"></rect>
                    <circle id="Dot" fill="#000000" cx="3" cy="3" r="3"></circle>
                </g>
                <g id="Grid-Unit" transform="translate(200.000000, 320.000000)">
                    <rect x="0" y="0" width="40" height="40"></rect>
                    <circle id="Dot" fill="#000000" cx="3" cy="3" r="3"></circle>
                </g>
                <g id="Grid-Unit" transform="translate(200.000000, 280.000000)">
                    <rect x="0" y="0" width="40" height="40"></rect>
                    <circle id="Dot" fill="#000000" cx="3" cy="3" r="3"></circle>
                </g>
                <g id="Grid-Unit" transform="translate(200.000000, 240.000000)">
                    <rect x="0" y="0" width="40" height="40"></rect>
                    <circle id="Dot" fill="#000000" cx="3" cy="3" r="3"></circle>
                </g>
                <g id="Grid-Unit" transform="translate(200.000000, 200.000000)">
                    <rect x="0" y="0" width="40" height="40"></rect>
                    <circle id="Dot" fill="#000000" cx="3" cy="3" r="3"></circle>
                </g>
                <g id="Grid-Unit" transform="translate(200.000000, 160.000000)">
                    <rect x="0" y="0" width="40" height="40"></rect>
                    <circle id="Dot" fill="#000000" cx="3" cy="3" r="3"></circle>
                </g>
                <g id="Grid-Unit" transform="translate(200.000000, 120.000000)">
                    <rect x="0" y="0" width="40" height="40"></rect>
                    <circle id="Dot" fill="#000000" cx="3" cy="3" r="3"></circle>
                </g>
                <g id="Grid-Unit" transform="translate(200.000000, 80.000000)">
                    <rect x="0" y="0" width="40" height="40"></rect>
                    <circle id="Dot" fill="#000000" cx="3" cy="3" r="3"></circle>
                </g>
                <g id="Grid-Unit" transform="translate(200.000000, 40.000000)">
                    <rect x="0" y="0" width="40" height="40"></rect>
                    <circle id="Dot" fill="#000000" cx="3" cy="3" r="3"></circle>
                </g>
                <g id="Grid-Unit" transform="translate(200.000000, 0.000000)">
                    <rect x="0" y="0" width="40" height="40"></rect>
                    <circle id="Dot" fill="#000000" cx="3" cy="3" r="3"></circle>
                </g>
                <g id="Grid-Unit" transform="translate(160.000000, 520.000000)">
                    <rect x="0" y="0" width="40" height="40"></rect>
                    <circle id="Dot" fill="#000000" cx="3" cy="3" r="3"></circle>
                </g>
                <g id="Grid-Unit" transform="translate(160.000000, 480.000000)">
                    <rect x="0" y="0" width="40" height="40"></rect>
                    <circle id="Dot" fill="#000000" cx="3" cy="3" r="3"></circle>
                </g>
                <g id="Grid-Unit" transform="translate(160.000000, 440.000000)">
                    <rect x="0" y="0" width="40" height="40"></rect>
                    <circle id="Dot" fill="#000000" cx="3" cy="3" r="3"></circle>
                </g>
                <g id="Grid-Unit" transform="translate(160.000000, 400.000000)">
                    <rect x="0" y="0" width="40" height="40"></rect>
                    <circle id="Dot" fill="#000000" cx="3" cy="3" r="3"></circle>
                </g>
                <g id="Grid-Unit" transform="translate(160.000000, 360.000000)">
                    <rect x="0" y="0" width="40" height="40"></rect>
                    <circle id="Dot" fill="#000000" cx="3" cy="3" r="3"></circle>
                </g>
                <g id="Grid-Unit" transform="translate(160.000000, 320.000000)">
                    <rect x="0" y="0" width="40" height="40"></rect>
                    <circle id="Dot" fill="#000000" cx="3" cy="3" r="3"></circle>
                </g>
                <g id="Grid-Unit" transform="translate(160.000000, 280.000000)">
                    <rect x="0" y="0" width="40" height="40"></rect>
                    <circle id="Dot" fill="#000000" cx="3" cy="3" r="3"></circle>
                </g>
                <g id="Grid-Unit" transform="translate(160.000000, 240.000000)">
                    <rect x="0" y="0" width="40" height="40"></rect>
                    <circle id="Dot" fill="#000000" cx="3" cy="3" r="3"></circle>
                </g>
                <g id="Grid-Unit" transform="translate(160.000000, 200.000000)">
                    <rect x="0" y="0" width="40" height="40"></rect>
                    <circle id="Dot" fill="#000000" cx="3" cy="3" r="3"></circle>
                </g>
                <g id="Grid-Unit" transform="translate(160.000000, 160.000000)">
                    <rect x="0" y="0" width="40" height="40"></rect>
                    <circle id="Dot" fill="#000000" cx="3" cy="3" r="3"></circle>
                </g>
                <g id="Grid-Unit" transform="translate(160.000000, 120.000000)">
                    <rect x="0" y="0" width="40" height="40"></rect>
                    <circle id="Dot" fill="#000000" cx="3" cy="3" r="3"></circle>
                </g>
                <g id="Grid-Unit" transform="translate(160.000000, 80.000000)">
                    <rect x="0" y="0" width="40" height="40"></rect>
                    <circle id="Dot" fill="#000000" cx="3" cy="3" r="3"></circle>
                </g>
                <g id="Grid-Unit" transform="translate(160.000000, 40.000000)">
                    <rect x="0" y="0" width="40" height="40"></rect>
                    <circle id="Dot" fill="#000000" cx="3" cy="3" r="3"></circle>
                </g>
                <g id="Grid-Unit" transform="translate(160.000000, 0.000000)">
                    <rect x="0" y="0" width="40" height="40"></rect>
                    <circle id="Dot" fill="#000000" cx="3" cy="3" r="3"></circle>
                </g>
                <g id="Grid-Unit" transform="translate(120.000000, 520.000000)">
                    <rect x="0" y="0" width="40" height="40"></rect>
                    <circle id="Dot" fill="#000000" cx="3" cy="3" r="3"></circle>
                </g>
                <g id="Grid-Unit" transform="translate(120.000000, 480.000000)">
                    <rect x="0" y="0" width="40" height="40"></rect>
                    <circle id="Dot" fill="#000000" cx="3" cy="3" r="3"></circle>
                </g>
                <g id="Grid-Unit" transform="translate(120.000000, 440.000000)">
                    <rect x="0" y="0" width="40" height="40"></rect>
                    <circle id="Dot" fill="#000000" cx="3" cy="3" r="3"></circle>
                </g>
                <g id="Grid-Unit" transform="translate(120.000000, 400.000000)">
                    <rect x="0" y="0" width="40" height="40"></rect>
                    <circle id="Dot" fill="#000000" cx="3" cy="3" r="3"></circle>
                </g>
                <g id="Grid-Unit" transform="translate(120.000000, 360.000000)">
                    <rect x="0" y="0" width="40" height="40"></rect>
                    <circle id="Dot" fill="#000000" cx="3" cy="3" r="3"></circle>
                </g>
                <g id="Grid-Unit" transform="translate(120.000000, 320.000000)">
                    <rect x="0" y="0" width="40" height="40"></rect>
                    <circle id="Dot" fill="#000000" cx="3" cy="3" r="3"></circle>
                </g>
                <g id="Grid-Unit" transform="translate(120.000000, 280.000000)">
                    <rect x="0" y="0" width="40" height="40"></rect>
                    <circle id="Dot" fill="#000000" cx="3" cy="3" r="3"></circle>
                </g>
                <g id="Grid-Unit" transform="translate(120.000000, 240.000000)">
                    <rect x="0" y="0" width="40" height="40"></rect>
                    <circle id="Dot" fill="#000000" cx="3" cy="3" r="3"></circle>
                </g>
                <g id="Grid-Unit" transform="translate(120.000000, 200.000000)">
                    <rect x="0" y="0" width="40" height="40"></rect>
                    <circle id="Dot" fill="#000000" cx="3" cy="3" r="3"></circle>
                </g>
                <g id="Grid-Unit" transform="translate(120.000000, 160.000000)">
                    <rect x="0" y="0" width="40" height="40"></rect>
                    <circle id="Dot" fill="#000000" cx="3" cy="3" r="3"></circle>
                </g>
                <g id="Grid-Unit" transform="translate(120.000000, 120.000000)">
                    <rect x="0" y="0" width="40" height="40"></rect>
                    <circle id="Dot" fill="#000000" cx="3" cy="3" r="3"></circle>
                </g>
                <g id="Grid-Unit" transform="translate(120.000000, 80.000000)">
                    <rect x="0" y="0" width="40" height="40"></rect>
                    <circle id="Dot" fill="#000000" cx="3" cy="3" r="3"></circle>
                </g>
                <g id="Grid-Unit" transform="translate(120.000000, 40.000000)">
                    <rect x="0" y="0" width="40" height="40"></rect>
                    <circle id="Dot" fill="#000000" cx="3" cy="3" r="3"></circle>
                </g>
                <g id="Grid-Unit" transform="translate(120.000000, 0.000000)">
                    <rect x="0" y="0" width="40" height="40"></rect>
                    <circle id="Dot" fill="#000000" cx="3" cy="3" r="3"></circle>
                </g>
                <g id="Grid-Unit" transform="translate(80.000000, 520.000000)">
                    <rect x="0" y="0" width="40" height="40"></rect>
                    <circle id="Dot" fill="#000000" cx="3" cy="3" r="3"></circle>
                </g>
                <g id="Grid-Unit" transform="translate(80.000000, 480.000000)">
                    <rect x="0" y="0" width="40" height="40"></rect>
                    <circle id="Dot" fill="#000000" cx="3" cy="3" r="3"></circle>
                </g>
                <g id="Grid-Unit" transform="translate(80.000000, 440.000000)">
                    <rect x="0" y="0" width="40" height="40"></rect>
                    <circle id="Dot" fill="#000000" cx="3" cy="3" r="3"></circle>
                </g>
                <g id="Grid-Unit" transform="translate(80.000000, 400.000000)">
                    <rect x="0" y="0" width="40" height="40"></rect>
                    <circle id="Dot" fill="#000000" cx="3" cy="3" r="3"></circle>
                </g>
                <g id="Grid-Unit" transform="translate(80.000000, 360.000000)">
                    <rect x="0" y="0" width="40" height="40"></rect>
                    <circle id="Dot" fill="#000000" cx="3" cy="3" r="3"></circle>
                </g>
                <g id="Grid-Unit" transform="translate(80.000000, 320.000000)">
                    <rect x="0" y="0" width="40" height="40"></rect>
                    <circle id="Dot" fill="#000000" cx="3" cy="3" r="3"></circle>
                </g>
                <g id="Grid-Unit" transform="translate(80.000000, 280.000000)">
                    <rect x="0" y="0" width="40" height="40"></rect>
                    <circle id="Dot" fill="#000000" cx="3" cy="3" r="3"></circle>
                </g>
                <g id="Grid-Unit" transform="translate(80.000000, 240.000000)">
                    <rect x="0" y="0" width="40" height="40"></rect>
                    <circle id="Dot" fill="#000000" cx="3" cy="3" r="3"></circle>
                </g>
                <g id="Grid-Unit" transform="translate(80.000000, 200.000000)">
                    <rect x="0" y="0" width="40" height="40"></rect>
                    <circle id="Dot" fill="#000000" cx="3" cy="3" r="3"></circle>
                </g>
                <g id="Grid-Unit" transform="translate(80.000000, 160.000000)">
                    <rect x="0" y="0" width="40" height="40"></rect>
                    <circle id="Dot" fill="#000000" cx="3" cy="3" r="3"></circle>
                </g>
                <g id="Grid-Unit" transform="translate(80.000000, 120.000000)">
                    <rect x="0" y="0" width="40" height="40"></rect>
                    <circle id="Dot" fill="#000000" cx="3" cy="3" r="3"></circle>
                </g>
                <g id="Grid-Unit" transform="translate(80.000000, 80.000000)">
                    <rect x="0" y="0" width="40" height="40"></rect>
                    <circle id="Dot" fill="#000000" cx="3" cy="3" r="3"></circle>
                </g>
                <g id="Grid-Unit" transform="translate(80.000000, 40.000000)">
                    <rect x="0" y="0" width="40" height="40"></rect>
                    <circle id="Dot" fill="#000000" cx="3" cy="3" r="3"></circle>
                </g>
                <g id="Grid-Unit" transform="translate(80.000000, 0.000000)">
                    <rect x="0" y="0" width="40" height="40"></rect>
                    <circle id="Dot" fill="#000000" cx="3" cy="3" r="3"></circle>
                </g>
                <g id="Grid-Unit" transform="translate(40.000000, 520.000000)">
                    <rect x="0" y="0" width="40" height="40"></rect>
                    <circle id="Dot" fill="#000000" cx="3" cy="3" r="3"></circle>
                </g>
                <g id="Grid-Unit" transform="translate(40.000000, 480.000000)">
                    <rect x="0" y="0" width="40" height="40"></rect>
                    <circle id="Dot" fill="#000000" cx="3" cy="3" r="3"></circle>
                </g>
                <g id="Grid-Unit" transform="translate(40.000000, 440.000000)">
                    <rect x="0" y="0" width="40" height="40"></rect>
                    <circle id="Dot" fill="#000000" cx="3" cy="3" r="3"></circle>
                </g>
                <g id="Grid-Unit" transform="translate(40.000000, 400.000000)">
                    <rect x="0" y="0" width="40" height="40"></rect>
                    <circle id="Dot" fill="#000000" cx="3" cy="3" r="3"></circle>
                </g>
                <g id="Grid-Unit" transform="translate(40.000000, 360.000000)">
                    <rect x="0" y="0" width="40" height="40"></rect>
                    <circle id="Dot" fill="#000000" cx="3" cy="3" r="3"></circle>
                </g>
                <g id="Grid-Unit" transform="translate(40.000000, 320.000000)">
                    <rect x="0" y="0" width="40" height="40"></rect>
                    <circle id="Dot" fill="#000000" cx="3" cy="3" r="3"></circle>
                </g>
                <g id="Grid-Unit" transform="translate(40.000000, 280.000000)">
                    <rect x="0" y="0" width="40" height="40"></rect>
                    <circle id="Dot" fill="#000000" cx="3" cy="3" r="3"></circle>
                </g>
                <g id="Grid-Unit" transform="translate(40.000000, 240.000000)">
                    <rect x="0" y="0" width="40" height="40"></rect>
                    <circle id="Dot" fill="#000000" cx="3" cy="3" r="3"></circle>
                </g>
                <g id="Grid-Unit" transform="translate(40.000000, 200.000000)">
                    <rect x="0" y="0" width="40" height="40"></rect>
                    <circle id="Dot" fill="#000000" cx="3" cy="3" r="3"></circle>
                </g>
                <g id="Grid-Unit" transform="translate(40.000000, 160.000000)">
                    <rect x="0" y="0" width="40" height="40"></rect>
                    <circle id="Dot" fill="#000000" cx="3" cy="3" r="3"></circle>
                </g>
                <g id="Grid-Unit" transform="translate(40.000000, 120.000000)">
                    <rect x="0" y="0" width="40" height="40"></rect>
                    <circle id="Dot" fill="#000000" cx="3" cy="3" r="3"></circle>
                </g>
                <g id="Grid-Unit" transform="translate(40.000000, 80.000000)">
                    <rect x="0" y="0" width="40" height="40"></rect>
                    <circle id="Dot" fill="#000000" cx="3" cy="3" r="3"></circle>
                </g>
                <g id="Grid-Unit" transform="translate(40.000000, 40.000000)">
                    <rect x="0" y="0" width="40" height="40"></rect>
                    <circle id="Dot" fill="#000000" cx="3" cy="3" r="3"></circle>
                </g>
                <g id="Grid-Unit" transform="translate(40.000000, 0.000000)">
                    <rect x="0" y="0" width="40" height="40"></rect>
                    <circle id="Dot" fill="#000000" cx="3" cy="3" r="3"></circle>
                </g>
                <g id="Grid-Unit" transform="translate(0.000000, 520.000000)">
                    <rect x="0" y="0" width="40" height="40"></rect>
                    <circle id="Dot" fill="#000000" cx="3" cy="3" r="3"></circle>
                </g>
                <g id="Grid-Unit" transform="translate(0.000000, 480.000000)">
                    <rect x="0" y="0" width="40" height="40"></rect>
                    <circle id="Dot" fill="#000000" cx="3" cy="3" r="3"></circle>
                </g>
                <g id="Grid-Unit" transform="translate(0.000000, 440.000000)">
                    <rect x="0" y="0" width="40" height="40"></rect>
                    <circle id="Dot" fill="#000000" cx="3" cy="3" r="3"></circle>
                </g>
                <g id="Grid-Unit" transform="translate(0.000000, 400.000000)">
                    <rect x="0" y="0" width="40" height="40"></rect>
                    <circle id="Dot" fill="#000000" cx="3" cy="3" r="3"></circle>
                </g>
                <g id="Grid-Unit" transform="translate(0.000000, 360.000000)">
                    <rect x="0" y="0" width="40" height="40"></rect>
                    <circle id="Dot" fill="#000000" cx="3" cy="3" r="3"></circle>
                </g>
                <g id="Grid-Unit" transform="translate(0.000000, 320.000000)">
                    <rect x="0" y="0" width="40" height="40"></rect>
                    <circle id="Dot" fill="#000000" cx="3" cy="3" r="3"></circle>
                </g>
                <g id="Grid-Unit" transform="translate(0.000000, 280.000000)">
                    <rect x="0" y="0" width="40" height="40"></rect>
                    <circle id="Dot" fill="#000000" cx="3" cy="3" r="3"></circle>
                </g>
                <g id="Grid-Unit" transform="translate(0.000000, 240.000000)">
                    <rect x="0" y="0" width="40" height="40"></rect>
                    <circle id="Dot" fill="#000000" cx="3" cy="3" r="3"></circle>
                </g>
                <g id="Grid-Unit" transform="translate(0.000000, 200.000000)">
                    <rect x="0" y="0" width="40" height="40"></rect>
                    <circle id="Dot" fill="#000000" cx="3" cy="3" r="3"></circle>
                </g>
                <g id="Grid-Unit" transform="translate(0.000000, 160.000000)">
                    <rect x="0" y="0" width="40" height="40"></rect>
                    <circle id="Dot" fill="#000000" cx="3" cy="3" r="3"></circle>
                </g>
                <g id="Grid-Unit" transform="translate(0.000000, 120.000000)">
                    <rect x="0" y="0" width="40" height="40"></rect>
                    <circle id="Dot" fill="#000000" cx="3" cy="3" r="3"></circle>
                </g>
                <g id="Grid-Unit" transform="translate(0.000000, 80.000000)">
                    <rect x="0" y="0" width="40" height="40"></rect>
                    <circle id="Dot" fill="#000000" cx="3" cy="3" r="3"></circle>
                </g>
                <g id="Grid-Unit" transform="translate(0.000000, 40.000000)">
                    <rect x="0" y="0" width="40" height="40"></rect>
                    <circle id="Dot" fill="#000000" cx="3" cy="3" r="3"></circle>
                </g>
            </g>
            <g id="Logo-Setion" transform="translate(52.000000, 248.000000)">
                <rect id="Logo-Padding" fill="#FFFFFF" x="0" y="0" width="218" height="105"></rect>
                <g id="Logo" transform="translate(18.000000, 24.000000)" fill="#000000">
                    <path d="M2.92057217,2.6973582 L2.92057217,8.82435073 L0,8.82435073 L0,12.5897318 L2.92057217,12.5897318 L2.92057217,24.8096819 L7.66153438,24.8096819 L7.66153438,12.5897318 L11.029012,12.5897318 L11.029012,8.82435073 L7.66153438,8.82435073 L7.66153438,2.6973582 L2.92057217,2.6973582" id="Fill-1"></path>
                    <path d="M18.7233148,24.8089873 L13.9474925,24.8089873 L13.9474925,0.130842222 L18.7233148,0.130842222 L18.7233148,11.3227967 C19.3758943,9.33765393 21.7129098,8.48122248 23.2244401,8.48122248 C27.4508684,8.48122248 29.6491411,11.2894563 29.6491411,16.1154788 L29.6491411,24.8089873 L24.8733188,24.8089873 L24.8733188,16.2863483 C24.8733188,14.198406 23.3617885,13.1037296 21.9185839,13.1037296 C20.4070535,13.1037296 18.7233148,13.9240423 18.7233148,16.3551129 L18.7233148,24.8089873" id="Fill-4"></path>
                    <path d="M48.5795243,21.9000377 C46.9648084,24.2956841 43.9759106,25.151421 41.2617097,25.151421 C36.6573987,25.151421 32.8778758,21.7972381 32.8778758,16.7656165 C32.8778758,11.7333004 36.6573987,8.48191707 41.2617097,8.48191707 C45.8311606,8.48191707 49.4726379,11.8708295 49.4726379,16.9024511 C49.4726379,17.3136493 49.4384751,17.9630925 49.4043123,18.3742907 L37.653698,18.3742907 C37.8942321,20.2225989 39.9209935,21.0443008 41.6047323,21.0443008 C42.9105885,21.0443008 44.3189331,20.5650326 45.1095583,19.5384262 L48.5795243,21.9000377 L48.5795243,21.9000377 Z M44.6626529,15.3958819 C44.4221188,13.4454687 42.6358915,12.6578018 41.2958725,12.6578018 C39.9558535,12.6578018 38.1347662,13.3767041 37.7227208,15.3958819 L44.6626529,15.3958819 L44.6626529,15.3958819 Z" id="Fill-5"></path>
                    <path d="M2.94079098,39.6162911 L7.68175319,39.6162911 L7.68175319,55.6009277 L2.94079098,55.6009277 L2.94079098,39.6162911 Z" id="Fill-6"></path>
                    <path d="M15.7399946,55.6009277 L10.9641723,55.6009277 L10.9641723,39.6155965 L15.7399946,39.6155965 L15.7399946,41.943173 C16.5989454,40.3344988 18.4890554,39.2731629 20.3784683,39.2731629 C23.9857828,39.2731629 26.2537755,41.4979398 26.2537755,46.0509877 L26.2537755,55.6009277 L21.4779532,55.6009277 L21.4779532,47.0775941 C21.4779532,44.9556168 20.3094455,43.8949754 18.6947295,43.8949754 C17.011688,43.8949754 15.7399946,44.7159827 15.7399946,47.1463587 L15.7399946,55.6009277" id="Fill-7"></path>
                    <path d="M30.8755164,33.4892986 L30.8755164,39.6162911 L27.9549443,39.6162911 L27.9549443,43.3809776 L30.8755164,43.3809776 L30.8755164,55.6009277 L35.6164787,55.6009277 L35.6164787,43.3809776 L38.9839562,43.3809776 L38.9839562,39.6162911 L35.6164787,39.6162911 L35.6164787,33.4892986 L30.8755164,33.4892986" id="Fill-8"></path>
                    <path d="M55.2872887,52.6919781 C53.6725727,55.0876245 50.6836749,55.9433614 47.969474,55.9433614 C43.3651631,55.9433614 39.5856401,52.5891785 39.5856401,47.5568623 C39.5856401,42.5252408 43.3651631,39.2738575 47.969474,39.2738575 C52.538925,39.2738575 56.1804023,42.6627699 56.1804023,47.6943915 C56.1804023,48.1055897 56.1462395,48.7550328 56.1120767,49.1662311 L44.3614624,49.1662311 C44.6019965,51.0145393 46.629455,51.8362412 48.3124966,51.8362412 C49.6183528,51.8362412 51.0266975,51.356973 51.8173226,50.3303666 L55.2872887,52.6919781 L55.2872887,52.6919781 Z M51.3704172,46.1878223 C51.1298831,44.2374091 49.3436559,43.4497422 48.0036369,43.4497422 C46.6636178,43.4497422 44.8425306,44.1686445 44.4304852,46.1878223 L51.3704172,46.1878223 L51.3704172,46.1878223 Z" id="Fill-10"></path>
                    <path d="M63.1042987,55.6009277 L58.3284765,55.6009277 L58.3284765,39.6155965 L63.1042987,39.6155965 L63.1042987,43.4837772 C63.9290867,40.5053684 65.9907081,39.2731629 67.6395868,39.2731629 C68.7732346,39.2731629 69.6328826,39.478762 70.3886477,39.8559252 L69.5289997,44.1339149 C68.6700489,43.7234113 67.8459581,43.6546467 67.090193,43.6546467 C64.3411321,43.6546467 63.1042987,45.8113536 63.1042987,50.0212733 L63.1042987,55.6009277" id="Fill-12"></path>
                    <path d="M86.726143,47.1463587 L86.726143,55.6009277 L81.9503207,55.6009277 L81.9503207,46.9754892 C81.9161579,44.9556168 80.6793245,43.8949754 79.3044455,43.8949754 C77.861938,43.8949754 76.521919,44.7159827 76.521919,47.1463587 L76.521919,55.6009277 L71.7460968,55.6009277 L71.7460968,39.6155965 L76.521919,39.6155965 L76.521919,41.943173 C77.2776842,40.2664289 78.9955858,39.3071979 80.7134874,39.3071979 C83.256177,39.3071979 84.9740786,40.2664289 85.8671922,42.1147371 C87.4128853,39.6155965 89.5435295,39.2731629 90.6771772,39.2731629 C94.490863,39.2731629 96.8620413,41.7042335 96.8620413,46.5302559 L96.8620413,55.6009277 L92.1203819,55.6009277 L92.1203819,47.0775941 C92.1203819,44.9896518 90.8835485,43.8949754 89.4745067,43.8949754 C87.9629764,43.8949754 86.726143,44.8187822 86.726143,47.1463587" id="Fill-13"></path>
                    <path d="M99.9701604,39.6162911 L104.71182,39.6162911 L104.71182,55.6009277 L99.9701604,55.6009277 L99.9701604,39.6162911 Z" id="Fill-14"></path>
                    <path d="M112.150947,49.0293965 C107.340962,47.7284265 107.306799,45.298745 107.340962,43.8262108 C107.375125,41.4645994 110.226674,39.2738575 113.594152,39.2738575 C116.789421,39.2738575 120.156201,40.6769325 120.190364,44.5798427 L115.689936,44.5798427 C115.655773,43.3809776 114.624614,43.1760731 113.868849,43.1760731 C112.838387,43.1760731 112.150947,43.6553413 112.18511,44.3742436 C112.21997,44.8535118 112.632015,45.33278 113.594152,45.5717195 L116.308353,46.2913164 C120.190364,47.3519578 120.67213,49.9191684 120.67213,50.9457748 C120.67213,54.3346872 117.098978,55.9440559 113.7315,55.9440559 C110.467208,55.9440559 107.066265,53.9922535 107.032102,50.4324716 L111.498368,50.4324716 C111.532531,51.356973 112.562993,52.2807798 113.868849,52.2807798 C114.934171,52.2467448 115.827285,51.7674766 115.827285,50.9457748 C115.827285,50.261602 115.415239,49.8851334 114.246731,49.5767347 L112.150947,49.0293965" id="Fill-16"></path>
                    <path d="M127.080098,49.0293965 C122.270113,47.7284265 122.23595,45.298745 122.270113,43.8262108 C122.304276,41.4645994 125.155825,39.2738575 128.523303,39.2738575 C131.718572,39.2738575 135.085352,40.6769325 135.119515,44.5798427 L130.619087,44.5798427 C130.584924,43.3809776 129.553765,43.1760731 128.797999,43.1760731 C127.767537,43.1760731 127.080098,43.6553413 127.114958,44.3742436 C127.149121,44.8535118 127.561166,45.33278 128.523303,45.5717195 L131.237503,46.2913164 C135.119515,47.3519578 135.60128,49.9191684 135.60128,50.9457748 C135.60128,54.3346872 132.028129,55.9440559 128.660651,55.9440559 C125.396359,55.9440559 121.995416,53.9922535 121.961253,50.4324716 L126.427518,50.4324716 C126.461681,51.356973 127.492143,52.2807798 128.797999,52.2807798 C129.863322,52.2467448 130.756435,51.7674766 130.756435,50.9457748 C130.756435,50.261602 130.34439,49.8851334 129.175882,49.5767347 L127.080098,49.0293965" id="Fill-17"></path>
                    <path d="M137.85254,39.6162911 L142.593502,39.6162911 L142.593502,55.6009277 L137.85254,55.6009277 L137.85254,39.6162911 Z" id="Fill-19"></path>
                    <path d="M145.258202,47.5568623 C145.258202,42.5252408 149.037028,39.2731629 153.573013,39.2731629 C158.108301,39.2731629 161.921987,42.5252408 161.921987,47.5568623 C161.921987,52.5884839 158.108301,55.8752914 153.573013,55.8752914 C149.037028,55.8752914 145.258202,52.5884839 145.258202,47.5568623 M157.21449,47.5568623 C157.21449,45.4001554 155.565612,43.9290104 153.573013,43.9290104 C151.614577,43.9290104 149.965001,45.4001554 149.965001,47.5568623 C149.965001,49.7816392 151.614577,51.2194439 153.573013,51.2194439 C155.565612,51.2194439 157.21449,49.7816392 157.21449,47.5568623" id="Fill-20"></path>
                    <path d="M169.361812,55.6009277 L164.585989,55.6009277 L164.585989,39.6155965 L169.361812,39.6155965 L169.361812,41.943173 C170.220762,40.3344988 172.110873,39.2731629 174.000285,39.2731629 C177.6076,39.2731629 179.875593,41.4979398 179.875593,46.0509877 L179.875593,55.6009277 L175.09977,55.6009277 L175.09977,47.0775941 C175.09977,44.9556168 173.93196,43.8949754 172.316547,43.8949754 C170.632808,43.8949754 169.361812,44.7159827 169.361812,47.1463587 L169.361812,55.6009277" id="Fill-21"></path>
                </g>
            </g>
            <g id="Shapes" transform="translate(40.000000, 39.000000)">
                <path d="M151.950828,118.610173 L209.654532,118.610173 L209.654532,4.61017306 L151.950828,4.61017306 L151.950828,118.610173 Z" id="Fill-4" fill="#64BDB1" style="mix-blend-mode: darken;" transform="translate(180.802680, 61.610173) rotate(-315.000000) translate(-180.802680, -61.610173) "></path>
                <path d="M0,82 L0,162 L80,162 L0,82 Z" id="Fill-9" fill="#FDD319" style="mix-blend-mode: darken;"></path>
                <path d="M160,522 L240,522 L240,401 L160,401 L160,522 Z" id="Fill-1" fill="#7ABDE0" style="mix-blend-mode: darken;"></path>
                <path d="M0,522 L40,522 L40,482 L0,482 L0,522 Z" id="Fill-5" fill="#F48051" style="mix-blend-mode: darken;"></path>
                <path d="M200,401 C200,378.908889 182.091111,361 160,361 C137.908889,361 120,378.908889 120,401 C120,423.091111 137.908889,441 160,441 C182.091111,441 200,423.091111 200,401" id="Fill-14" fill="#EF4962" style="mix-blend-mode: multiply;"></path>
            </g>
        </g>
    </g>
</svg>