<?xml version="1.0" encoding="UTF-8" standalone="no"?>
<svg width="1440px" height="878px" viewBox="0 0 1440 878" version="1.1" xmlns="http://www.w3.org/2000/svg" xmlns:xlink="http://www.w3.org/1999/xlink">
    <!-- Generator: Sketch 3.6.1 (26313) - http://www.bohemiancoding.com/sketch -->
    <title>Split Shapes Copy 2</title>
    <desc>Created with Sketch.</desc>
    <defs></defs>
    <g id="Page-1" stroke="none" stroke-width="1" fill="none" fill-rule="evenodd">
        <g id="Split-Shapes-Copy-2">
            <g id="Shapes" transform="translate(238.000000, 438.000000)">
                <path d="M23.9619408,137.778175 L137.961941,137.778175 L137.961941,23.7781746 L23.9619408,23.7781746 L23.9619408,137.778175 Z" id="Fill-4" fill="#64BDB1" style="mix-blend-mode: darken;" transform="translate(80.961941, 80.778175) rotate(-315.000000) translate(-80.961941, -80.778175) "></path>
                <path d="M961,241 L1041,241 L1041,81 L961,81 L961,241 Z" id="Fill-1" fill="#7ABDE0" style="mix-blend-mode: darken;"></path>
                <path d="M441,201 L441,321 L561,321 L441,201 Z" id="Fill-3" fill="#FDD319" style="mix-blend-mode: darken;"></path>
            </g>
            <path d="M1239,679 C1239,656.908889 1221.09111,639 1199,639 C1176.90889,639 1159,656.908889 1159,679 C1159,701.091111 1176.90889,719 1199,719 C1221.09111,719 1239,701.091111 1239,679" id="Fill-5" fill="#EF4962"></path>
        </g>
    </g>
</svg>