<?xml version="1.0" encoding="UTF-8" standalone="no"?>
<svg width="1326px" height="606px" viewBox="0 0 1326 606" version="1.1" xmlns="http://www.w3.org/2000/svg" xmlns:xlink="http://www.w3.org/1999/xlink">
    <!-- Generator: Sketch 3.6.1 (26313) - http://www.bohemiancoding.com/sketch -->
    <title>Artboard</title>
    <desc>Created with Sketch.</desc>
    <defs></defs>
    <g id="Page-1" stroke="none" stroke-width="1" fill="none" fill-rule="evenodd">
        <g id="Artboard">
            <g id="Group">
                <circle id="Dot" fill="#F5804A" cx="1323" cy="563" r="3"></circle>
                <circle id="Dot" fill="#FFFFFF" cx="1323" cy="603" r="3"></circle>
                <circle id="Dot" fill="#F5804A" cx="1323" cy="523" r="3"></circle>
                <circle id="Dot" fill="#FFFFFF" cx="1323" cy="483" r="3"></circle>
                <circle id="Dot" fill="#FFFFFF" cx="1323" cy="443" r="3"></circle>
                <circle id="Dot" fill="#F5804A" cx="1323" cy="363" r="3"></circle>
                <circle id="Dot" fill="#35BDFF" cx="1323" cy="323" r="3"></circle>
                <circle id="Dot" fill="#FFFFFF" cx="1323" cy="283" r="3"></circle>
                <circle id="Dot" fill="#FFFFFF" cx="1323" cy="243" r="3"></circle>
                <circle id="Dot" fill="#FED800" cx="1323" cy="203" r="3"></circle>
                <circle id="Dot" fill="#FFFFFF" cx="1323" cy="123" r="3"></circle>
                <circle id="Dot" fill="#FFFFFF" cx="1323" cy="83" r="3"></circle>
                <circle id="Dot" fill="#FFFFFF" cx="1323" cy="43" r="3"></circle>
                <circle id="Dot" fill="#F5804A" cx="1323" cy="3" r="3"></circle>
                <circle id="Dot" fill="#F5804A" cx="1283" cy="603" r="3"></circle>
                <circle id="Dot" fill="#FFFFFF" cx="1283" cy="523" r="3"></circle>
                <circle id="Dot" fill="#35BDFF" cx="1283" cy="483" r="3"></circle>
                <circle id="Dot" fill="#FFFFFF" cx="1283" cy="443" r="3"></circle>
                <circle id="Dot" fill="#FED800" cx="1283" cy="363" r="3"></circle>
                <circle id="Dot" fill="#F0485F" cx="1283" cy="323" r="3"></circle>
                <circle id="Dot" fill="#F0485F" cx="1283" cy="283" r="3"></circle>
                <circle id="Dot" fill="#F5804A" cx="1283" cy="243" r="3"></circle>
                <circle id="Dot" fill="#F0485F" cx="1283" cy="163" r="3"></circle>
                <circle id="Dot" fill="#FFFFFF" cx="1283" cy="123" r="3"></circle>
                <circle id="Dot" fill="#FED800" cx="1283" cy="83" r="3"></circle>
                <circle id="Dot" fill="#F5804A" cx="1283" cy="3" r="3"></circle>
                <circle id="Dot" fill="#F0485F" cx="1243" cy="563" r="3"></circle>
                <circle id="Dot" fill="#35BDFF" cx="1243" cy="603" r="3"></circle>
                <circle id="Dot" fill="#FFFFFF" cx="1243" cy="523" r="3"></circle>
                <circle id="Dot" fill="#FFFFFF" cx="1243" cy="483" r="3"></circle>
                <circle id="Dot" fill="#F5804A" cx="1243" cy="443" r="3"></circle>
                <circle id="Dot" fill="#F5804A" cx="1243" cy="363" r="3"></circle>
                <circle id="Dot" fill="#35BDFF" cx="1243" cy="323" r="3"></circle>
                <circle id="Dot" fill="#FED800" cx="1243" cy="243" r="3"></circle>
                <circle id="Dot" fill="#F5804A" cx="1243" cy="203" r="3"></circle>
                <circle id="Dot" fill="#F0485F" cx="1243" cy="163" r="3"></circle>
                <circle id="Dot" fill="#F0485F" cx="1243" cy="123" r="3"></circle>
                <circle id="Dot" fill="#F5804A" cx="1243" cy="43" r="3"></circle>
                <circle id="Dot" fill="#FFFFFF" cx="1203" cy="563" r="3"></circle>
                <circle id="Dot" fill="#F0485F" cx="1203" cy="523" r="3"></circle>
                <circle id="Dot" fill="#FFFFFF" cx="1203" cy="403" r="3"></circle>
                <circle id="Dot" fill="#FFFFFF" cx="1203" cy="283" r="3"></circle>
                <circle id="Dot" fill="#35BDFF" cx="1203" cy="243" r="3"></circle>
                <circle id="Dot" fill="#FED800" cx="1203" cy="203" r="3"></circle>
                <circle id="Dot" fill="#F5804A" cx="1203" cy="163" r="3"></circle>
                <circle id="Dot" fill="#FFFFFF" cx="1203" cy="123" r="3"></circle>
                <circle id="Dot" fill="#F5804A" cx="1203" cy="83" r="3"></circle>
                <circle id="Dot" fill="#F0485F" cx="1203" cy="43" r="3"></circle>
                <circle id="Dot" fill="#F0485F" cx="1203" cy="3" r="3"></circle>
                <circle id="Dot" fill="#F0485F" cx="1163" cy="563" r="3"></circle>
                <circle id="Dot" fill="#F0485F" cx="1163" cy="523" r="3"></circle>
                <circle id="Dot" fill="#FED800" cx="1163" cy="443" r="3"></circle>
                <circle id="Dot" fill="#FFFFFF" cx="1163" cy="83" r="3"></circle>
                <circle id="Dot" fill="#F0485F" cx="1163" cy="3" r="3"></circle>
                <circle id="Dot" fill="#35BDFF" cx="1123" cy="563" r="3"></circle>
                <circle id="Dot" fill="#F5804A" cx="1123" cy="603" r="3"></circle>
                <circle id="Dot" fill="#FFFFFF" cx="1123" cy="523" r="3"></circle>
                <circle id="Dot" fill="#35BDFF" cx="1123" cy="443" r="3"></circle>
                <circle id="Dot" fill="#FFFFFF" cx="1123" cy="123" r="3"></circle>
                <circle id="Dot" fill="#F0485F" cx="1123" cy="83" r="3"></circle>
                <circle id="Dot" fill="#FFFFFF" cx="1123" cy="3" r="3"></circle>
                <circle id="Dot" fill="#F5804A" cx="1083" cy="563" r="3"></circle>
                <circle id="Dot" fill="#FED800" cx="1083" cy="603" r="3"></circle>
                <circle id="Dot" fill="#F0485F" cx="1083" cy="483" r="3"></circle>
                <circle id="Dot" fill="#FFFFFF" cx="1083" cy="443" r="3"></circle>
                <circle id="Dot" fill="#F5804A" cx="1083" cy="123" r="3"></circle>
                <circle id="Dot" fill="#F0485F" cx="1083" cy="83" r="3"></circle>
                <circle id="Dot" fill="#F0485F" cx="1083" cy="43" r="3"></circle>
                <circle id="Dot" fill="#F0485F" cx="1043" cy="603" r="3"></circle>
                <circle id="Dot" fill="#35BDFF" cx="1043" cy="523" r="3"></circle>
                <circle id="Dot" fill="#FFFFFF" cx="1043" cy="483" r="3"></circle>
                <circle id="Dot" fill="#35BDFF" cx="1043" cy="123" r="3"></circle>
                <circle id="Dot" fill="#FFFFFF" cx="1043" cy="43" r="3"></circle>
                <circle id="Dot" fill="#FED800" cx="1043" cy="3" r="3"></circle>
                <circle id="Dot" fill="#35BDFF" cx="1003" cy="603" r="3"></circle>
                <circle id="Dot" fill="#F5804A" cx="1003" cy="523" r="3"></circle>
                <circle id="Dot" fill="#FED800" cx="1003" cy="483" r="3"></circle>
                <circle id="Dot" fill="#FED800" cx="1003" cy="443" r="3"></circle>
                <circle id="Dot" fill="#F0485F" cx="1003" cy="123" r="3"></circle>
                <circle id="Dot" fill="#FFFFFF" cx="1003" cy="83" r="3"></circle>
                <circle id="Dot" fill="#F5804A" cx="1003" cy="3" r="3"></circle>
                <circle id="Dot" fill="#FED800" cx="963" cy="563" r="3"></circle>
                <circle id="Dot" fill="#F0485F" cx="963" cy="603" r="3"></circle>
                <circle id="Dot" fill="#F5804A" cx="963" cy="483" r="3"></circle>
                <circle id="Dot" fill="#F5804A" cx="963" cy="443" r="3"></circle>
                <circle id="Dot" fill="#FFFFFF" cx="963" cy="123" r="3"></circle>
                <circle id="Dot" fill="#FFFFFF" cx="963" cy="43" r="3"></circle>
                <circle id="Dot" fill="#F0485F" cx="923" cy="563" r="3"></circle>
                <circle id="Dot" fill="#FFFFFF" cx="923" cy="603" r="3"></circle>
                <circle id="Dot" fill="#F5804A" cx="923" cy="123" r="3"></circle>
                <circle id="Dot" fill="#FFFFFF" cx="923" cy="43" r="3"></circle>
                <circle id="Dot" fill="#FFFFFF" cx="883" cy="603" r="3"></circle>
                <circle id="Dot" fill="#FFFFFF" cx="883" cy="523" r="3"></circle>
                <circle id="Dot" fill="#F5804A" cx="883" cy="483" r="3"></circle>
                <circle id="Dot" fill="#35BDFF" cx="883" cy="123" r="3"></circle>
                <circle id="Dot" fill="#35BDFF" cx="883" cy="83" r="3"></circle>
                <circle id="Dot" fill="#FFFFFF" cx="883" cy="43" r="3"></circle>
                <circle id="Dot" fill="#FED800" cx="843" cy="603" r="3"></circle>
                <circle id="Dot" fill="#FFFFFF" cx="843" cy="483" r="3"></circle>
                <circle id="Dot" fill="#FED800" cx="843" cy="443" r="3"></circle>
                <circle id="Dot" fill="#FFFFFF" cx="843" cy="123" r="3"></circle>
                <circle id="Dot" fill="#F5804A" cx="843" cy="83" r="3"></circle>
                <circle id="Dot" fill="#F0485F" cx="843" cy="43" r="3"></circle>
                <circle id="Dot" fill="#FFFFFF" cx="803" cy="603" r="3"></circle>
                <circle id="Dot" fill="#F5804A" cx="803" cy="443" r="3"></circle>
                <circle id="Dot" fill="#FFFFFF" cx="803" cy="123" r="3"></circle>
                <circle id="Dot" fill="#F5804A" cx="803" cy="83" r="3"></circle>
                <circle id="Dot" fill="#FFFFFF" cx="803" cy="3" r="3"></circle>
                <circle id="Dot" fill="#FFFFFF" cx="763" cy="603" r="3"></circle>
                <circle id="Dot" fill="#FFFFFF" cx="763" cy="483" r="3"></circle>
                <circle id="Dot" fill="#F5804A" cx="763" cy="123" r="3"></circle>
                <circle id="Dot" fill="#FFFFFF" cx="763" cy="83" r="3"></circle>
                <circle id="Dot" fill="#FFFFFF" cx="763" cy="43" r="3"></circle>
                <circle id="Dot" fill="#F0485F" cx="763" cy="3" r="3"></circle>
                <circle id="Dot" fill="#F5804A" cx="723" cy="443" r="3"></circle>
                <circle id="Dot" fill="#35BDFF" cx="723" cy="83" r="3"></circle>
                <circle id="Dot" fill="#35BDFF" cx="723" cy="3" r="3"></circle>
                <circle id="Dot" fill="#F0485F" cx="683" cy="603" r="3"></circle>
                <circle id="Dot" fill="#FFFFFF" cx="683" cy="83" r="3"></circle>
                <circle id="Dot" fill="#FED800" cx="683" cy="43" r="3"></circle>
                <circle id="Dot" fill="#F5804A" cx="683" cy="3" r="3"></circle>
                <circle id="Dot" fill="#F5804A" cx="643" cy="603" r="3"></circle>
                <circle id="Dot" fill="#008B78" cx="1243" cy="403" r="3"></circle>
                <circle id="Dot" fill="#FFFFFF" cx="1243" cy="283" r="3"></circle>
                <circle id="Dot" fill="#008B78" cx="1243" cy="83" r="3"></circle>
                <circle id="Dot" fill="#F0485F" cx="1203" cy="363" r="3"></circle>
                <circle id="Dot" fill="#008B78" cx="1123" cy="483" r="3"></circle>
                <circle id="Dot" fill="#008B78" cx="1043" cy="563" r="3"></circle>
                <circle id="Dot" fill="#F0485F" cx="963" cy="83" r="3"></circle>
                <circle id="Dot" fill="#008B78" cx="923" cy="523" r="3"></circle>
                <circle id="Dot" fill="#008B78" cx="883" cy="563" r="3"></circle>
                <circle id="Dot" fill="#008B78" cx="843" cy="563" r="3"></circle>
                <circle id="Dot-Copy" fill="#FFFFFF" cx="803" cy="563" r="3"></circle>
                <circle id="Dot" fill="#FFFFFF" cx="843" cy="3" r="3"></circle>
                <circle id="Dot" fill="#008B78" cx="723" cy="483" r="3"></circle>
                <circle id="Dot" fill="#008B78" cx="683" cy="123" r="3"></circle>
                <circle id="Dot" fill="#008B78" cx="643" cy="483" r="3"></circle>
                <circle id="Dot" fill="#FFFFFF" cx="643" cy="123" r="3"></circle>
                <circle id="Dot" fill="#F0485F" cx="643" cy="83" r="3"></circle>
                <circle id="Dot" fill="#FFFFFF" cx="643" cy="43" r="3"></circle>
                <circle id="Dot" fill="#F0485F" cx="603" cy="603" r="3"></circle>
                <circle id="Dot" fill="#FFFFFF" cx="603" cy="483" r="3"></circle>
                <circle id="Dot" fill="#35BDFF" cx="603" cy="123" r="3"></circle>
                <circle id="Dot" fill="#F5804A" cx="603" cy="83" r="3"></circle>
                <circle id="Dot" fill="#35BDFF" cx="603" cy="43" r="3"></circle>
                <circle id="Dot" fill="#F5804A" cx="603" cy="3" r="3"></circle>
                <circle id="Dot" fill="#FED800" cx="563" cy="603" r="3"></circle>
                <circle id="Dot" fill="#FFFFFF" cx="563" cy="443" r="3"></circle>
                <circle id="Dot" fill="#F5804A" cx="563" cy="123" r="3"></circle>
                <circle id="Dot" fill="#F0485F" cx="563" cy="83" r="3"></circle>
                <circle id="Dot" fill="#FFFFFF" cx="563" cy="3" r="3"></circle>
                <circle id="Dot" fill="#FFFFFF" cx="523" cy="563" r="3"></circle>
                <circle id="Dot" fill="#F0485F" cx="523" cy="603" r="3"></circle>
                <circle id="Dot" fill="#FED800" cx="523" cy="523" r="3"></circle>
                <circle id="Dot" fill="#FFFFFF" cx="523" cy="483" r="3"></circle>
                <circle id="Dot" fill="#F0485F" cx="523" cy="443" r="3"></circle>
                <circle id="Dot" fill="#FFFFFF" cx="523" cy="123" r="3"></circle>
                <circle id="Dot" fill="#008B78" cx="523" cy="83" r="3"></circle>
                <circle id="Dot" fill="#F5804A" cx="523" cy="43" r="3"></circle>
                <circle id="Dot" fill="#FFFFFF" cx="523" cy="3" r="3"></circle>
                <circle id="Dot" fill="#FFFFFF" cx="483" cy="563" r="3"></circle>
                <circle id="Dot" fill="#FFFFFF" cx="483" cy="603" r="3"></circle>
                <circle id="Dot" fill="#008B78" cx="483" cy="483" r="3"></circle>
                <circle id="Dot" fill="#FED800" cx="483" cy="443" r="3"></circle>
                <circle id="Dot" fill="#FFFFFF" cx="483" cy="123" r="3"></circle>
                <circle id="Dot" fill="#FFFFFF" cx="483" cy="83" r="3"></circle>
                <circle id="Dot" fill="#F0485F" cx="483" cy="43" r="3"></circle>
                <circle id="Dot" fill="#008B78" cx="443" cy="563" r="3"></circle>
                <circle id="Dot" fill="#35BDFF" cx="443" cy="603" r="3"></circle>
                <circle id="Dot" fill="#35BDFF" cx="443" cy="483" r="3"></circle>
                <circle id="Dot" fill="#FFFFFF" cx="443" cy="123" r="3"></circle>
                <circle id="Dot" fill="#F5804A" cx="443" cy="43" r="3"></circle>
                <circle id="Dot" fill="#FFFFFF" cx="403" cy="563" r="3"></circle>
                <circle id="Dot" fill="#008B78" cx="403" cy="603" r="3"></circle>
                <circle id="Dot" fill="#F5804A" cx="403" cy="523" r="3"></circle>
                <circle id="Dot" fill="#F0485F" cx="403" cy="483" r="3"></circle>
                <circle id="Dot" fill="#35BDFF" cx="403" cy="443" r="3"></circle>
                <circle id="Dot" fill="#FED800" cx="403" cy="123" r="3"></circle>
                <circle id="Dot" fill="#FFFFFF" cx="403" cy="83" r="3"></circle>
                <circle id="Dot" fill="#F5804A" cx="403" cy="3" r="3"></circle>
                <circle id="Dot" fill="#FFFFFF" cx="363" cy="603" r="3"></circle>
                <circle id="Dot" fill="#FFFFFF" cx="363" cy="523" r="3"></circle>
                <circle id="Dot" fill="#FFFFFF" cx="363" cy="443" r="3"></circle>
                <circle id="Dot" fill="#F0485F" cx="363" cy="123" r="3"></circle>
                <circle id="Dot" fill="#FFFFFF" cx="363" cy="83" r="3"></circle>
                <circle id="Dot" fill="#F5804A" cx="363" cy="43" r="3"></circle>
                <circle id="Dot" fill="#FFFFFF" cx="363" cy="3" r="3"></circle>
                <circle id="Dot" fill="#FFFFFF" cx="323" cy="603" r="3"></circle>
                <circle id="Dot" fill="#008B78" cx="323" cy="523" r="3"></circle>
                <circle id="Dot" fill="#F5804A" cx="323" cy="483" r="3"></circle>
                <circle id="Dot" fill="#F0485F" cx="323" cy="443" r="3"></circle>
                <circle id="Dot" fill="#FED800" cx="323" cy="83" r="3"></circle>
                <circle id="Dot" fill="#FFFFFF" cx="323" cy="43" r="3"></circle>
                <circle id="Dot" fill="#FFFFFF" cx="283" cy="563" r="3"></circle>
                <circle id="Dot" fill="#F0485F" cx="283" cy="603" r="3"></circle>
                <circle id="Dot" fill="#FFFFFF" cx="283" cy="523" r="3"></circle>
                <circle id="Dot" fill="#FFFFFF" cx="283" cy="123" r="3"></circle>
                <circle id="Dot" fill="#35BDFF" cx="283" cy="43" r="3"></circle>
                <circle id="Dot" fill="#FFFFFF" cx="283" cy="3" r="3"></circle>
                <circle id="Dot" fill="#FED800" cx="243" cy="563" r="3"></circle>
                <circle id="Dot" fill="#F5804A" cx="243" cy="523" r="3"></circle>
                <circle id="Dot" fill="#F0485F" cx="243" cy="483" r="3"></circle>
                <circle id="Dot" fill="#008B78" cx="243" cy="123" r="3"></circle>
                <circle id="Dot" fill="#FFFFFF" cx="243" cy="43" r="3"></circle>
                <circle id="Dot" fill="#35BDFF" cx="203" cy="563" r="3"></circle>
                <circle id="Dot" fill="#F5804A" cx="203" cy="603" r="3"></circle>
                <circle id="Dot" fill="#F0485F" cx="203" cy="523" r="3"></circle>
                <circle id="Dot" fill="#008B78" cx="203" cy="483" r="3"></circle>
                <circle id="Dot" fill="#FED800" cx="203" cy="443" r="3"></circle>
                <circle id="Dot" fill="#FFFFFF" cx="203" cy="123" r="3"></circle>
                <circle id="Dot" fill="#FED800" cx="203" cy="43" r="3"></circle>
                <circle id="Dot" fill="#F5804A" cx="203" cy="3" r="3"></circle>
                <circle id="Dot" fill="#F0485F" cx="163" cy="603" r="3"></circle>
                <circle id="Dot" fill="#F5804A" cx="163" cy="523" r="3"></circle>
                <circle id="Dot" fill="#FFFFFF" cx="163" cy="483" r="3"></circle>
                <circle id="Dot" fill="#35BDFF" cx="163" cy="123" r="3"></circle>
                <circle id="Dot" fill="#F5804A" cx="163" cy="43" r="3"></circle>
                <circle id="Dot" fill="#FFFFFF" cx="123" cy="563" r="3"></circle>
                <circle id="Dot" fill="#FFFFFF" cx="123" cy="603" r="3"></circle>
                <circle id="Dot" fill="#FFFFFF" cx="123" cy="483" r="3"></circle>
                <circle id="Dot" fill="#008B78" cx="123" cy="443" r="3"></circle>
                <circle id="Dot" fill="#F0485F" cx="163" cy="403" r="3"></circle>
                <circle id="Dot" fill="#FED800" cx="203" cy="403" r="3"></circle>
                <circle id="Dot" fill="#F0485F" cx="1163" cy="403" r="3"></circle>
                <circle id="Dot" fill="#FFFFFF" cx="163" cy="363" r="3"></circle>
                <circle id="Dot" fill="#F0485F" cx="203" cy="363" r="3"></circle>
                <circle id="Dot" fill="#F5804A" cx="1123" cy="363" r="3"></circle>
                <circle id="Dot" fill="#008B78" cx="1123" cy="403" r="3"></circle>
                <circle id="Dot" fill="#F5804A" cx="1083" cy="403" r="3"></circle>
                <circle id="Dot" fill="#F0485F" cx="123" cy="323" r="3"></circle>
                <circle id="Dot" fill="#FED800" cx="163" cy="323" r="3"></circle>
                <circle id="Dot" fill="#FFFFFF" cx="203" cy="323" r="3"></circle>
                <circle id="Dot" fill="#008B78" cx="1163" cy="323" r="3"></circle>
                <circle id="Dot" fill="#F0485F" cx="1123" cy="323" r="3"></circle>
                <circle id="Dot" fill="#FED800" cx="1323" cy="403" r="3"></circle>
                <circle id="Dot" fill="#FFFFFF" cx="1323" cy="163" r="3"></circle>
                <circle id="Dot" fill="#008B78" cx="1283" cy="563" r="3"></circle>
                <circle id="Dot" fill="#FED800" cx="1283" cy="403" r="3"></circle>
                <circle id="Dot" fill="#FED800" cx="1283" cy="203" r="3"></circle>
                <circle id="Dot" fill="#F5804A" cx="1283" cy="43" r="3"></circle>
                <circle id="Dot" fill="#35BDFF" cx="1243" cy="3" r="3"></circle>
                <circle id="Dot" fill="#FFFFFF" cx="1203" cy="603" r="3"></circle>
                <circle id="Dot" fill="#F0485F" cx="1203" cy="483" r="3"></circle>
                <circle id="Dot" fill="#35BDFF" cx="1203" cy="443" r="3"></circle>
                <circle id="Dot" fill="#FED800" cx="1203" cy="323" r="3"></circle>
                <circle id="Dot" fill="#F5804A" cx="1163" cy="603" r="3"></circle>
                <circle id="Dot" fill="#FFFFFF" cx="1163" cy="483" r="3"></circle>
                <circle id="Dot" fill="#35BDFF" cx="1163" cy="123" r="3"></circle>
                <circle id="Dot" fill="#F5804A" cx="1163" cy="43" r="3"></circle>
                <circle id="Dot" fill="#FFFFFF" cx="1123" cy="43" r="3"></circle>
                <circle id="Dot" fill="#F0485F" cx="1083" cy="523" r="3"></circle>
                <circle id="Dot" fill="#F0485F" cx="1083" cy="3" r="3"></circle>
                <circle id="Dot" fill="#FFFFFF" cx="1043" cy="443" r="3"></circle>
                <circle id="Dot" fill="#FFFFFF" cx="1043" cy="83" r="3"></circle>
                <circle id="Dot" fill="#FED800" cx="1003" cy="563" r="3"></circle>
                <circle id="Dot" fill="#008B78" cx="1003" cy="43" r="3"></circle>
                <circle id="Dot" fill="#F5804A" cx="963" cy="523" r="3"></circle>
                <circle id="Dot" fill="#FFFFFF" cx="963" cy="3" r="3"></circle>
                <circle id="Dot" fill="#FFFFFF" cx="923" cy="483" r="3"></circle>
                <circle id="Dot" fill="#F5804A" cx="923" cy="443" r="3"></circle>
                <circle id="Dot" fill="#FED800" cx="923" cy="83" r="3"></circle>
                <circle id="Dot" fill="#FED800" cx="923" cy="3" r="3"></circle>
                <circle id="Dot" fill="#FFFFFF" cx="883" cy="443" r="3"></circle>
                <circle id="Dot" fill="#F0485F" cx="883" cy="3" r="3"></circle>
                <circle id="Dot" fill="#008B78" cx="843" cy="523" r="3"></circle>
                <circle id="Dot-Copy-2" fill="#008B78" cx="803" cy="523" r="3"></circle>
                <circle id="Dot" fill="#F0485F" cx="803" cy="483" r="3"></circle>
                <circle id="Dot" fill="#FFFFFF" cx="803" cy="43" r="3"></circle>
                <circle id="Dot" fill="#FED800" cx="763" cy="443" r="3"></circle>
                <circle id="Dot" fill="#008B78" cx="723" cy="603" r="3"></circle>
                <circle id="Dot" fill="#FED800" cx="723" cy="123" r="3"></circle>
                <circle id="Dot" fill="#FED800" cx="723" cy="43" r="3"></circle>
                <circle id="Dot" fill="#008B78" cx="683" cy="483" r="3"></circle>
                <circle id="Dot" fill="#FED800" cx="683" cy="443" r="3"></circle>
                <circle id="Dot" fill="#F5804A" cx="643" cy="443" r="3"></circle>
                <circle id="Dot" fill="#008B78" cx="643" cy="3" r="3"></circle>
                <circle id="Dot" fill="#F0485F" cx="603" cy="443" r="3"></circle>
                <circle id="Dot" fill="#F0485F" cx="563" cy="43" r="3"></circle>
                <circle id="Dot" fill="#008B78" cx="483" cy="523" r="3"></circle>
                <circle id="Dot" fill="#35BDFF" cx="483" cy="3" r="3"></circle>
                <circle id="Dot" fill="#FFFFFF" cx="443" cy="523" r="3"></circle>
                <circle id="Dot" fill="#FFFFFF" cx="443" cy="443" r="3"></circle>
                <circle id="Dot" fill="#FFFFFF" cx="443" cy="83" r="3"></circle>
                <circle id="Dot" fill="#F0485F" cx="443" cy="3" r="3"></circle>
                <circle id="Dot" fill="#FFFFFF" cx="403" cy="43" r="3"></circle>
                <circle id="Dot" fill="#F5804A" cx="363" cy="563" r="3"></circle>
                <circle id="Dot" fill="#35BDFF" cx="363" cy="483" r="3"></circle>
                <circle id="Dot" fill="#F5804A" cx="323" cy="563" r="3"></circle>
                <circle id="Dot" fill="#FED800" cx="323" cy="123" r="3"></circle>
                <circle id="Dot" fill="#008B78" cx="323" cy="3" r="3"></circle>
                <circle id="Dot" fill="#FED800" cx="283" cy="483" r="3"></circle>
                <circle id="Dot" fill="#F5804A" cx="283" cy="443" r="3"></circle>
                <circle id="Dot" fill="#FFFFFF" cx="283" cy="83" r="3"></circle>
                <circle id="Dot" fill="#35BDFF" cx="243" cy="603" r="3"></circle>
                <circle id="Dot" fill="#FFFFFF" cx="243" cy="443" r="3"></circle>
                <circle id="Dot" fill="#FFFFFF" cx="243" cy="83" r="3"></circle>
                <circle id="Dot" fill="#35BDFF" cx="243" cy="3" r="3"></circle>
                <circle id="Dot" fill="#35BDFF" cx="203" cy="83" r="3"></circle>
                <circle id="Dot" fill="#FFFFFF" cx="563" cy="483" r="3"></circle>
                <circle id="Dot" fill="#FED800" cx="163" cy="563" r="3"></circle>
                <circle id="Dot" fill="#FFFFFF" cx="163" cy="443" r="3"></circle>
                <circle id="Dot" fill="#FED800" cx="163" cy="83" r="3"></circle>
                <circle id="Dot" fill="#F5804A" cx="163" cy="3" r="3"></circle>
                <circle id="Dot" fill="#35BDFF" cx="123" cy="523" r="3"></circle>
                <circle id="Dot" fill="#F0485F" cx="123" cy="403" r="3"></circle>
                <circle id="Dot" fill="#FED800" cx="123" cy="363" r="3"></circle>
                <circle id="Dot" fill="#FFFFFF" cx="1163" cy="363" r="3"></circle>
                <circle id="Dot" fill="#FFFFFF" cx="1083" cy="363" r="3"></circle>
                <circle id="Dot" fill="#008B78" cx="1083" cy="323" r="3"></circle>
                <circle id="Dot" fill="#008B78" cx="123" cy="283" r="3"></circle>
                <circle id="Dot" fill="#FED800" cx="163" cy="283" r="3"></circle>
                <circle id="Dot" fill="#008B78" cx="203" cy="283" r="3"></circle>
                <circle id="Dot" fill="#FFFFFF" cx="1163" cy="283" r="3"></circle>
                <circle id="Dot" fill="#FED800" cx="1123" cy="283" r="3"></circle>
                <circle id="Dot" fill="#FFFFFF" cx="1083" cy="283" r="3"></circle>
                <circle id="Dot" fill="#FED800" cx="123" cy="243" r="3"></circle>
                <circle id="Dot" fill="#FFFFFF" cx="163" cy="243" r="3"></circle>
                <circle id="Dot" fill="#F5804A" cx="203" cy="243" r="3"></circle>
                <circle id="Dot" fill="#35BDFF" cx="1163" cy="243" r="3"></circle>
                <circle id="Dot" fill="#35BDFF" cx="1123" cy="243" r="3"></circle>
                <circle id="Dot" fill="#F0485F" cx="1083" cy="243" r="3"></circle>
                <circle id="Dot" fill="#FFFFFF" cx="123" cy="203" r="3"></circle>
                <circle id="Dot" fill="#F0485F" cx="163" cy="203" r="3"></circle>
                <circle id="Dot" fill="#FED800" cx="203" cy="203" r="3"></circle>
                <circle id="Dot" fill="#F5804A" cx="1163" cy="203" r="3"></circle>
                <circle id="Dot" fill="#FFFFFF" cx="1123" cy="203" r="3"></circle>
                <circle id="Dot" fill="#008B78" cx="1083" cy="203" r="3"></circle>
                <circle id="Dot" fill="#FED800" cx="123" cy="163" r="3"></circle>
                <circle id="Dot" fill="#F5804A" cx="163" cy="163" r="3"></circle>
                <circle id="Dot" fill="#35BDFF" cx="203" cy="163" r="3"></circle>
                <circle id="Dot" fill="#FED800" cx="1163" cy="163" r="3"></circle>
                <circle id="Dot" fill="#FFFFFF" cx="1123" cy="163" r="3"></circle>
                <circle id="Dot" fill="#008B78" cx="1083" cy="163" r="3"></circle>
                <circle id="Dot" fill="#FFFFFF" cx="123" cy="123" r="3"></circle>
                <circle id="Dot" fill="#008B78" cx="123" cy="83" r="3"></circle>
                <circle id="Dot" fill="#F0485F" cx="123" cy="43" r="3"></circle>
                <circle id="Dot" fill="#FED800" cx="123" cy="3" r="3"></circle>
                <circle id="Dot" fill="#FFFFFF" cx="83" cy="563" r="3"></circle>
                <circle id="Dot" fill="#008B78" cx="83" cy="603" r="3"></circle>
                <circle id="Dot" fill="#F5804A" cx="83" cy="523" r="3"></circle>
                <circle id="Dot" fill="#35BDFF" cx="83" cy="483" r="3"></circle>
                <circle id="Dot" fill="#008B78" cx="83" cy="443" r="3"></circle>
                <circle id="Dot" fill="#35BDFF" cx="83" cy="403" r="3"></circle>
                <circle id="Dot" fill="#FFFFFF" cx="83" cy="363" r="3"></circle>
                <circle id="Dot" fill="#FED800" cx="83" cy="323" r="3"></circle>
                <circle id="Dot" fill="#FED800" cx="83" cy="283" r="3"></circle>
                <circle id="Dot" fill="#35BDFF" cx="83" cy="243" r="3"></circle>
                <circle id="Dot" fill="#F0485F" cx="83" cy="203" r="3"></circle>
                <circle id="Dot" fill="#FED800" cx="83" cy="163" r="3"></circle>
                <circle id="Dot" fill="#FFFFFF" cx="83" cy="123" r="3"></circle>
                <circle id="Dot" fill="#F0485F" cx="83" cy="83" r="3"></circle>
                <circle id="Dot" fill="#FFFFFF" cx="83" cy="43" r="3"></circle>
                <circle id="Dot" fill="#FED800" cx="83" cy="3" r="3"></circle>
                <circle id="Dot" fill="#008B78" cx="43" cy="563" r="3"></circle>
                <circle id="Dot" fill="#FFFFFF" cx="43" cy="603" r="3"></circle>
                <circle id="Dot" fill="#FFFFFF" cx="43" cy="523" r="3"></circle>
                <circle id="Dot" fill="#008B78" cx="43" cy="483" r="3"></circle>
                <circle id="Dot" fill="#FFFFFF" cx="43" cy="443" r="3"></circle>
                <circle id="Dot" fill="#35BDFF" cx="43" cy="403" r="3"></circle>
                <circle id="Dot" fill="#FED800" cx="43" cy="363" r="3"></circle>
                <circle id="Dot" fill="#F5804A" cx="43" cy="323" r="3"></circle>
                <circle id="Dot" fill="#F5804A" cx="43" cy="283" r="3"></circle>
                <circle id="Dot" fill="#FFFFFF" cx="43" cy="243" r="3"></circle>
                <circle id="Dot" fill="#FFFFFF" cx="43" cy="203" r="3"></circle>
                <circle id="Dot" fill="#F0485F" cx="43" cy="163" r="3"></circle>
                <circle id="Dot" fill="#35BDFF" cx="43" cy="123" r="3"></circle>
                <circle id="Dot" fill="#F5804A" cx="43" cy="83" r="3"></circle>
                <circle id="Dot" fill="#FFFFFF" cx="43" cy="43" r="3"></circle>
                <circle id="Dot" fill="#FFFFFF" cx="43" cy="3" r="3"></circle>
                <circle id="Dot" fill="#FED800" cx="3" cy="563" r="3"></circle>
                <circle id="Dot" fill="#FFFFFF" cx="3" cy="603" r="3"></circle>
                <circle id="Dot" fill="#FFFFFF" cx="3" cy="523" r="3"></circle>
                <circle id="Dot" fill="#35BDFF" cx="3" cy="483" r="3"></circle>
                <circle id="Dot" fill="#F0485F" cx="3" cy="443" r="3"></circle>
                <circle id="Dot" fill="#FFFFFF" cx="3" cy="403" r="3"></circle>
                <circle id="Dot" fill="#35BDFF" cx="3" cy="363" r="3"></circle>
                <circle id="Dot" fill="#FFFFFF" cx="3" cy="323" r="3"></circle>
                <circle id="Dot" fill="#F5804A" cx="3" cy="283" r="3"></circle>
                <circle id="Dot" fill="#FED800" cx="3" cy="243" r="3"></circle>
                <circle id="Dot" fill="#FFFFFF" cx="3" cy="203" r="3"></circle>
                <circle id="Dot" fill="#008B78" cx="3" cy="163" r="3"></circle>
                <circle id="Dot" fill="#008B78" cx="3" cy="123" r="3"></circle>
                <circle id="Dot" fill="#35BDFF" cx="3" cy="83" r="3"></circle>
                <circle id="Dot" fill="#FED800" cx="3" cy="43" r="3"></circle>
                <circle id="Dot" fill="#F0485F" cx="3" cy="3" r="3"></circle>
            </g>
        </g>
    </g>
</svg>