<?xml version="1.0" encoding="UTF-8" standalone="no"?>
<svg width="126px" height="126px" viewBox="0 0 126 126" version="1.1" xmlns="http://www.w3.org/2000/svg" xmlns:xlink="http://www.w3.org/1999/xlink">
    <!-- Generator: Sketch 3.6.1 (26313) - http://www.bohemiancoding.com/sketch -->
    <title>Interactive</title>
    <desc>Created with Sketch.</desc>
    <defs></defs>
    <g id="Page-1" stroke="none" stroke-width="1" fill="none" fill-rule="evenodd">
        <g id="Interactive">
            <path d="M3,123 L83,123 L83,3 L3,3 L3,123 Z" id="Fill-1-Copy" fill="#FDD319" style="mix-blend-mode: darken;"></path>
            <path d="M43,123 L123,43 L43,43 L43,123 Z" id="Fill-5" fill="#7ABDE0" style="mix-blend-mode: screen;" transform="translate(83.000000, 83.000000) rotate(-90.000000) translate(-83.000000, -83.000000) "></path>
            <g id="Group">
                <g id="Grid-Unit">
                    <rect x="0" y="0" width="40" height="40"></rect>
                    <circle id="Dot" fill="#000000" cx="3" cy="3" r="3"></circle>
                </g>
                <g id="Grid-Unit" transform="translate(120.000000, 120.000000)">
                    <rect x="0" y="0" width="40" height="40"></rect>
                    <circle id="Dot" fill="#000000" cx="3" cy="3" r="3"></circle>
                </g>
                <g id="Grid-Unit" transform="translate(120.000000, 80.000000)">
                    <rect x="0" y="0" width="40" height="40"></rect>
                    <circle id="Dot" fill="#000000" cx="3" cy="3" r="3"></circle>
                </g>
                <g id="Grid-Unit" transform="translate(120.000000, 40.000000)">
                    <rect x="0" y="0" width="40" height="40"></rect>
                    <circle id="Dot" fill="#000000" cx="3" cy="3" r="3"></circle>
                </g>
                <g id="Grid-Unit" transform="translate(120.000000, 0.000000)">
                    <rect x="0" y="0" width="40" height="40"></rect>
                    <circle id="Dot" fill="#000000" cx="3" cy="3" r="3"></circle>
                </g>
                <g id="Grid-Unit" transform="translate(80.000000, 120.000000)">
                    <rect x="0" y="0" width="40" height="40"></rect>
                    <circle id="Dot" fill="#000000" cx="3" cy="3" r="3"></circle>
                </g>
                <g id="Grid-Unit" transform="translate(80.000000, 80.000000)">
                    <rect x="0" y="0" width="40" height="40"></rect>
                    <circle id="Dot" fill="#000000" cx="3" cy="3" r="3"></circle>
                </g>
                <g id="Grid-Unit" transform="translate(80.000000, 40.000000)">
                    <rect x="0" y="0" width="40" height="40"></rect>
                    <circle id="Dot" fill="#000000" cx="3" cy="3" r="3"></circle>
                </g>
                <g id="Grid-Unit" transform="translate(80.000000, 0.000000)">
                    <rect x="0" y="0" width="40" height="40"></rect>
                    <circle id="Dot" fill="#000000" cx="3" cy="3" r="3"></circle>
                </g>
                <g id="Grid-Unit" transform="translate(40.000000, 120.000000)">
                    <rect x="0" y="0" width="40" height="40"></rect>
                    <circle id="Dot" fill="#000000" cx="3" cy="3" r="3"></circle>
                </g>
                <g id="Grid-Unit" transform="translate(40.000000, 80.000000)">
                    <rect x="0" y="0" width="40" height="40"></rect>
                    <circle id="Dot" fill="#000000" cx="3" cy="3" r="3"></circle>
                </g>
                <g id="Grid-Unit" transform="translate(40.000000, 40.000000)">
                    <rect x="0" y="0" width="40" height="40"></rect>
                    <circle id="Dot" fill="#000000" cx="3" cy="3" r="3"></circle>
                </g>
                <g id="Grid-Unit" transform="translate(40.000000, 0.000000)">
                    <rect x="0" y="0" width="40" height="40"></rect>
                    <circle id="Dot" fill="#000000" cx="3" cy="3" r="3"></circle>
                </g>
                <g id="Grid-Unit" transform="translate(0.000000, 120.000000)">
                    <rect x="0" y="0" width="40" height="40"></rect>
                    <circle id="Dot" fill="#000000" cx="3" cy="3" r="3"></circle>
                </g>
                <g id="Grid-Unit" transform="translate(0.000000, 80.000000)">
                    <rect x="0" y="0" width="40" height="40"></rect>
                    <circle id="Dot" fill="#000000" cx="3" cy="3" r="3"></circle>
                </g>
                <g id="Grid-Unit" transform="translate(0.000000, 40.000000)">
                    <rect x="0" y="0" width="40" height="40"></rect>
                    <circle id="Dot" fill="#000000" cx="3" cy="3" r="3"></circle>
                </g>
            </g>
        </g>
    </g>
</svg>