<?xml version="1.0" encoding="UTF-8" standalone="no"?>
<svg width="126px" height="126px" viewBox="0 0 126 126" version="1.1" xmlns="http://www.w3.org/2000/svg" xmlns:xlink="http://www.w3.org/1999/xlink">
    <!-- Generator: Sketch 3.6.1 (26313) - http://www.bohemiancoding.com/sketch -->
    <title>Physical Design</title>
    <desc>Created with Sketch.</desc>
    <defs></defs>
    <g id="Page-1" stroke="none" stroke-width="1" fill="none" fill-rule="evenodd">
        <g id="Physical-Design">
            <path d="M103,83 C91.9544444,83 83,91.9544444 83,103 C83,114.045556 91.9544444,123 103,123 C114.045556,123 123,114.045556 123,103 C123,91.9544444 114.045556,83 103,83 Z" id="Fill-14" fill="#EF4962" style="mix-blend-mode: multiply;"></path>
            <path d="M3,83 L123,83 L123,43 L3,43 L3,83 Z" id="Fill-1" fill="#50E3C2" style="mix-blend-mode: darken;"></path>
            <path d="M3,83 L83,3 L3,3 L3,83 Z" id="Fill-5" fill="#FDD319" style="mix-blend-mode: screen;"></path>
            <g id="Group">
                <g id="Grid-Unit">
                    <rect x="0" y="0" width="40" height="40"></rect>
                    <circle id="Dot" fill="#000000" cx="3" cy="3" r="3"></circle>
                </g>
                <g id="Grid-Unit" transform="translate(120.000000, 120.000000)">
                    <rect x="0" y="0" width="40" height="40"></rect>
                    <circle id="Dot" fill="#000000" cx="3" cy="3" r="3"></circle>
                </g>
                <g id="Grid-Unit" transform="translate(120.000000, 80.000000)">
                    <rect x="0" y="0" width="40" height="40"></rect>
                    <circle id="Dot" fill="#000000" cx="3" cy="3" r="3"></circle>
                </g>
                <g id="Grid-Unit" transform="translate(120.000000, 40.000000)">
                    <rect x="0" y="0" width="40" height="40"></rect>
                    <circle id="Dot" fill="#000000" cx="3" cy="3" r="3"></circle>
                </g>
                <g id="Grid-Unit" transform="translate(120.000000, 0.000000)">
                    <rect x="0" y="0" width="40" height="40"></rect>
                    <circle id="Dot" fill="#000000" cx="3" cy="3" r="3"></circle>
                </g>
                <g id="Grid-Unit" transform="translate(80.000000, 120.000000)">
                    <rect x="0" y="0" width="40" height="40"></rect>
                    <circle id="Dot" fill="#000000" cx="3" cy="3" r="3"></circle>
                </g>
                <g id="Grid-Unit" transform="translate(80.000000, 80.000000)">
                    <rect x="0" y="0" width="40" height="40"></rect>
                    <circle id="Dot" fill="#000000" cx="3" cy="3" r="3"></circle>
                </g>
                <g id="Grid-Unit" transform="translate(80.000000, 40.000000)">
                    <rect x="0" y="0" width="40" height="40"></rect>
                    <circle id="Dot" fill="#000000" cx="3" cy="3" r="3"></circle>
                </g>
                <g id="Grid-Unit" transform="translate(80.000000, 0.000000)">
                    <rect x="0" y="0" width="40" height="40"></rect>
                    <circle id="Dot" fill="#000000" cx="3" cy="3" r="3"></circle>
                </g>
                <g id="Grid-Unit" transform="translate(40.000000, 120.000000)">
                    <rect x="0" y="0" width="40" height="40"></rect>
                    <circle id="Dot" fill="#000000" cx="3" cy="3" r="3"></circle>
                </g>
                <g id="Grid-Unit" transform="translate(40.000000, 80.000000)">
                    <rect x="0" y="0" width="40" height="40"></rect>
                    <circle id="Dot" fill="#000000" cx="3" cy="3" r="3"></circle>
                </g>
                <g id="Grid-Unit" transform="translate(40.000000, 40.000000)">
                    <rect x="0" y="0" width="40" height="40"></rect>
                    <circle id="Dot" fill="#000000" cx="3" cy="3" r="3"></circle>
                </g>
                <g id="Grid-Unit" transform="translate(40.000000, 0.000000)">
                    <rect x="0" y="0" width="40" height="40"></rect>
                    <circle id="Dot" fill="#000000" cx="3" cy="3" r="3"></circle>
                </g>
                <g id="Grid-Unit" transform="translate(0.000000, 120.000000)">
                    <rect x="0" y="0" width="40" height="40"></rect>
                    <circle id="Dot" fill="#000000" cx="3" cy="3" r="3"></circle>
                </g>
                <g id="Grid-Unit" transform="translate(0.000000, 80.000000)">
                    <rect x="0" y="0" width="40" height="40"></rect>
                    <circle id="Dot" fill="#000000" cx="3" cy="3" r="3"></circle>
                </g>
                <g id="Grid-Unit" transform="translate(0.000000, 40.000000)">
                    <rect x="0" y="0" width="40" height="40"></rect>
                    <circle id="Dot" fill="#000000" cx="3" cy="3" r="3"></circle>
                </g>
            </g>
        </g>
    </g>
</svg>