<?xml version="1.0" encoding="UTF-8" standalone="no"?>
<svg width="1440px" height="878px" viewBox="0 0 1440 878" version="1.1" xmlns="http://www.w3.org/2000/svg" xmlns:xlink="http://www.w3.org/1999/xlink">
    <!-- Generator: Sketch 3.6.1 (26313) - http://www.bohemiancoding.com/sketch -->
    <title>Split Shapes Copy</title>
    <desc>Created with Sketch.</desc>
    <defs></defs>
    <g id="Page-1" stroke="none" stroke-width="1" fill="none" fill-rule="evenodd">
        <g id="Split-Shapes-Copy">
            <g id="Shapes" transform="translate(119.000000, 160.000000)">
                <path d="M840,639 L920,639 L920,559 L840,559 L840,639 Z" id="Fill-2" fill="#F48051" style="mix-blend-mode: darken;"></path>
                <path d="M0,119 L40,119 L40,79 L0,79 L0,119 Z" id="Fill-5" fill="#F48051" style="mix-blend-mode: darken;"></path>
                <path d="M80,559 L0,559 L0,599 L80,599 L80,559 Z" id="Fill-6" fill="#7ABDE0" style="mix-blend-mode: darken;"></path>
                <path d="M40,0 L40,120 L160,120 L40,0 Z" id="Fill-9" fill="#FDD319" style="mix-blend-mode: darken;"></path>
            </g>
            <path d="M520,119 C520,96.3566111 501.643389,78 479,78 C456.356611,78 438,96.3566111 438,119 C438,141.643389 456.356611,160 479,160 C501.643389,160 520,141.643389 520,119" id="Fill-14" fill="#EF4962"></path>
        </g>
    </g>
</svg>