<?xml version="1.0" encoding="UTF-8" standalone="no"?>
<svg width="1440px" height="878px" viewBox="0 0 1440 878" version="1.1" xmlns="http://www.w3.org/2000/svg" xmlns:xlink="http://www.w3.org/1999/xlink">
    <!-- Generator: Sketch 3.6.1 (26313) - http://www.bohemiancoding.com/sketch -->
    <title>Desktop Home Grid Copy 3</title>
    <desc>Created with Sketch.</desc>
    <defs></defs>
    <g id="Page-1" stroke="none" stroke-width="1" fill="none" fill-rule="evenodd">
        <g id="Desktop-Home-Grid-Copy-3">
            <g id="Shapes" transform="translate(119.000000, 78.000000)">
                <path d="M840,721 L920,721 L920,641 L840,641 L840,721 Z" id="Fill-2" fill="#F48051" style="mix-blend-mode: darken;"></path>
                <path d="M142.961941,497.778175 L256.961941,497.778175 L256.961941,383.778175 L142.961941,383.778175 L142.961941,497.778175 Z" id="Fill-4" fill="#64BDB1" style="mix-blend-mode: darken;" transform="translate(199.961941, 440.778175) rotate(-315.000000) translate(-199.961941, -440.778175) "></path>
                <path d="M0,201 L40,201 L40,161 L0,161 L0,201 Z" id="Fill-5" fill="#F48051" style="mix-blend-mode: darken;"></path>
                <path d="M80,641 L0,641 L0,681 L80,681 L80,641 Z" id="Fill-6" fill="#7ABDE0" style="mix-blend-mode: darken;"></path>
                <path d="M1160,121 L920,121 L920,366 L1160,121 Z" id="Fill-7" fill="#FDD319" style="mix-blend-mode: darken;"></path>
                <path d="M40,82 L40,202 L160,202 L40,82 Z" id="Fill-9" fill="#FDD319" style="mix-blend-mode: darken;"></path>
                <path d="M1160,241 L1040,241 L1040,361 L1160,241 Z" id="Fill-11" fill="#FDD319" style="mix-blend-mode: darken;"></path>
                <path d="M401,41 C401,18.3566111 382.643389,0 360,0 C337.356611,0 319,18.3566111 319,41 C319,63.6433889 337.356611,82 360,82 C382.643389,82 401,63.6433889 401,41" id="Fill-14" fill="#EF4962"></path>
                <path d="M1120,601 C1120,578.908889 1102.09111,561 1080,561 C1057.90889,561 1040,578.908889 1040,601 C1040,623.091111 1057.90889,641 1080,641 C1102.09111,641 1120,623.091111 1120,601" id="Fill-5" fill="#EF4962"></path>
                <path d="M1080,601 L1160,601 L1160,441 L1080,441 L1080,601 Z" id="Fill-1" fill="#7ABDE0" style="mix-blend-mode: screen;"></path>
                <path d="M560,561 L560,681 L680,681 L560,561 Z" id="Fill-3" fill="#FDD319" style="mix-blend-mode: darken;"></path>
            </g>
        </g>
    </g>
</svg>