<?xml version="1.0" encoding="UTF-8" standalone="no"?>
<svg width="126px" height="126px" viewBox="0 0 126 126" version="1.1" xmlns="http://www.w3.org/2000/svg" xmlns:xlink="http://www.w3.org/1999/xlink">
    <!-- Generator: Sketch 3.6.1 (26313) - http://www.bohemiancoding.com/sketch -->
    <title>Communication Design</title>
    <desc>Created with Sketch.</desc>
    <defs></defs>
    <g id="Page-1" stroke="none" stroke-width="1" fill="none" fill-rule="evenodd">
        <g id="Communication-Design">
            <path d="M3,124 L123,124 L123,83 L3,83 L3,124 Z" id="Fill-1" fill="#7ABDE0" style="mix-blend-mode: darken;"></path>
            <path d="M83,43 L123,43 L123,3 L83,3 L83,43 Z" id="Fill-5" fill="#FDD319" style="mix-blend-mode: darken;"></path>
            <path d="M43,43 C20.9088889,43 3,60.9088889 3,83 C3,105.091111 20.9088889,123 43,123 C65.0911111,123 83,105.091111 83,83 C83,60.9088889 65.0911111,43 43,43 Z" id="Fill-14" fill="#EF4962"></path>
            <path d="M83,83 L3,83 C3,105.091111 20.9088889,123 43,123 C65.0911111,123 83,105.091111 83,83 Z" id="Combined-Shape" fill="#7ABDE0" style="mix-blend-mode: screen;"></path>
            <g id="Group">
                <g id="Grid-Unit">
                    <rect x="0" y="0" width="40" height="40"></rect>
                    <circle id="Dot" fill="#000000" cx="3" cy="3" r="3"></circle>
                </g>
                <g id="Grid-Unit" transform="translate(120.000000, 120.000000)">
                    <rect x="0" y="0" width="40" height="40"></rect>
                    <circle id="Dot" fill="#000000" cx="3" cy="3" r="3"></circle>
                </g>
                <g id="Grid-Unit" transform="translate(120.000000, 80.000000)">
                    <rect x="0" y="0" width="40" height="40"></rect>
                    <circle id="Dot" fill="#000000" cx="3" cy="3" r="3"></circle>
                </g>
                <g id="Grid-Unit" transform="translate(120.000000, 40.000000)">
                    <rect x="0" y="0" width="40" height="40"></rect>
                    <circle id="Dot" fill="#000000" cx="3" cy="3" r="3"></circle>
                </g>
                <g id="Grid-Unit" transform="translate(120.000000, 0.000000)">
                    <rect x="0" y="0" width="40" height="40"></rect>
                    <circle id="Dot" fill="#000000" cx="3" cy="3" r="3"></circle>
                </g>
                <g id="Grid-Unit" transform="translate(80.000000, 120.000000)">
                    <rect x="0" y="0" width="40" height="40"></rect>
                    <circle id="Dot" fill="#000000" cx="3" cy="3" r="3"></circle>
                </g>
                <g id="Grid-Unit" transform="translate(80.000000, 80.000000)">
                    <rect x="0" y="0" width="40" height="40"></rect>
                    <circle id="Dot" fill="#000000" cx="3" cy="3" r="3"></circle>
                </g>
                <g id="Grid-Unit" transform="translate(80.000000, 40.000000)">
                    <rect x="0" y="0" width="40" height="40"></rect>
                    <circle id="Dot" fill="#000000" cx="3" cy="3" r="3"></circle>
                </g>
                <g id="Grid-Unit" transform="translate(80.000000, 0.000000)">
                    <rect x="0" y="0" width="40" height="40"></rect>
                    <circle id="Dot" fill="#000000" cx="3" cy="3" r="3"></circle>
                </g>
                <g id="Grid-Unit" transform="translate(40.000000, 120.000000)">
                    <rect x="0" y="0" width="40" height="40"></rect>
                    <circle id="Dot" fill="#000000" cx="3" cy="3" r="3"></circle>
                </g>
                <g id="Grid-Unit" transform="translate(40.000000, 80.000000)">
                    <rect x="0" y="0" width="40" height="40"></rect>
                    <circle id="Dot" fill="#000000" cx="3" cy="3" r="3"></circle>
                </g>
                <g id="Grid-Unit" transform="translate(40.000000, 40.000000)">
                    <rect x="0" y="0" width="40" height="40"></rect>
                    <circle id="Dot" fill="#000000" cx="3" cy="3" r="3"></circle>
                </g>
                <g id="Grid-Unit" transform="translate(40.000000, 0.000000)">
                    <rect x="0" y="0" width="40" height="40"></rect>
                    <circle id="Dot" fill="#000000" cx="3" cy="3" r="3"></circle>
                </g>
                <g id="Grid-Unit" transform="translate(0.000000, 120.000000)">
                    <rect x="0" y="0" width="40" height="40"></rect>
                    <circle id="Dot" fill="#000000" cx="3" cy="3" r="3"></circle>
                </g>
                <g id="Grid-Unit" transform="translate(0.000000, 80.000000)">
                    <rect x="0" y="0" width="40" height="40"></rect>
                    <circle id="Dot" fill="#000000" cx="3" cy="3" r="3"></circle>
                </g>
                <g id="Grid-Unit" transform="translate(0.000000, 40.000000)">
                    <rect x="0" y="0" width="40" height="40"></rect>
                    <circle id="Dot" fill="#000000" cx="3" cy="3" r="3"></circle>
                </g>
            </g>
        </g>
    </g>
</svg>