<?xml version="1.0" encoding="UTF-8" standalone="no"?>
<svg width="244px" height="144px" viewBox="0 0 244 144" version="1.1" xmlns="http://www.w3.org/2000/svg" xmlns:xlink="http://www.w3.org/1999/xlink">
    <!-- Generator: Sketch 3.6.1 (26313) - http://www.bohemiancoding.com/sketch -->
    <title>information-mobile</title>
    <desc>Created with Sketch.</desc>
    <defs></defs>
    <g id="Page-1-Copy" stroke="none" stroke-width="1" fill="none" fill-rule="evenodd">
        <g id="information-mobile">
            <g id="Dot-Copy-932" transform="translate(240.500000, 140.500000)">
                <rect id="Grid-Unit" x="0" y="0" width="20" height="20"></rect>
                <circle id="Dot" fill="#000000" cx="1.5" cy="1.5" r="1.5"></circle>
            </g>
            <g id="Dot-Copy-931" transform="translate(220.500000, 140.500000)">
                <rect id="Grid-Unit" x="0" y="0" width="20" height="20"></rect>
                <circle id="Dot" fill="#000000" cx="1.5" cy="1.5" r="1.5"></circle>
            </g>
            <g id="Dot-Copy-930" transform="translate(200.500000, 140.500000)">
                <rect id="Grid-Unit" x="0" y="0" width="20" height="20"></rect>
                <circle id="Dot" fill="#000000" cx="1.5" cy="1.5" r="1.5"></circle>
            </g>
            <g id="Dot-Copy-929" transform="translate(180.500000, 140.500000)">
                <rect id="Grid-Unit" x="0" y="0" width="20" height="20"></rect>
                <circle id="Dot" fill="#000000" cx="1.5" cy="1.5" r="1.5"></circle>
            </g>
            <g id="Dot-Copy-928" transform="translate(160.500000, 140.500000)">
                <rect id="Grid-Unit" x="0" y="0" width="20" height="20"></rect>
                <circle id="Dot" fill="#000000" cx="1.5" cy="1.5" r="1.5"></circle>
            </g>
            <g id="Dot-Copy-927" transform="translate(140.500000, 140.500000)">
                <rect id="Grid-Unit" x="0" y="0" width="20" height="20"></rect>
                <circle id="Dot" fill="#000000" cx="1.5" cy="1.5" r="1.5"></circle>
            </g>
            <g id="Dot-Copy-926" transform="translate(120.500000, 140.500000)">
                <rect id="Grid-Unit" x="0" y="0" width="20" height="20"></rect>
                <circle id="Dot" fill="#000000" cx="1.5" cy="1.5" r="1.5"></circle>
            </g>
            <g id="Dot-Copy-925" transform="translate(100.500000, 140.500000)">
                <rect id="Grid-Unit" x="0" y="0" width="20" height="20"></rect>
                <circle id="Dot" fill="#000000" cx="1.5" cy="1.5" r="1.5"></circle>
            </g>
            <g id="Dot-Copy-924" transform="translate(80.500000, 140.500000)">
                <rect id="Grid-Unit" x="0" y="0" width="20" height="20"></rect>
                <circle id="Dot" fill="#000000" cx="1.5" cy="1.5" r="1.5"></circle>
            </g>
            <g id="Dot-Copy-923" transform="translate(60.500000, 140.500000)">
                <rect id="Grid-Unit" x="0" y="0" width="20" height="20"></rect>
                <circle id="Dot" fill="#000000" cx="1.5" cy="1.5" r="1.5"></circle>
            </g>
            <g id="Dot-Copy-922" transform="translate(40.500000, 140.500000)">
                <rect id="Grid-Unit" x="0" y="0" width="20" height="20"></rect>
                <circle id="Dot" fill="#000000" cx="1.5" cy="1.5" r="1.5"></circle>
            </g>
            <g id="Dot-Copy-921" transform="translate(20.500000, 140.500000)">
                <rect id="Grid-Unit" x="0" y="0" width="20" height="20"></rect>
                <circle id="Dot" fill="#000000" cx="1.5" cy="1.5" r="1.5"></circle>
            </g>
            <g id="Dot-Copy-920" transform="translate(0.500000, 140.500000)">
                <rect id="Grid-Unit" x="0" y="0" width="20" height="20"></rect>
                <circle id="Dot" fill="#000000" cx="1.5" cy="1.5" r="1.5"></circle>
            </g>
            <g id="Dot-Copy-918" transform="translate(240.500000, 120.500000)">
                <rect id="Grid-Unit" x="0" y="0" width="20" height="20"></rect>
                <circle id="Dot" fill="#000000" cx="1.5" cy="1.5" r="1.5"></circle>
            </g>
            <g id="Dot-Copy-917" transform="translate(220.500000, 120.500000)">
                <rect id="Grid-Unit" x="0" y="0" width="20" height="20"></rect>
                <circle id="Dot" fill="#000000" cx="1.5" cy="1.5" r="1.5"></circle>
            </g>
            <g id="Dot-Copy-916" transform="translate(200.500000, 120.500000)">
                <rect id="Grid-Unit" x="0" y="0" width="20" height="20"></rect>
                <circle id="Dot" fill="#000000" cx="1.5" cy="1.5" r="1.5"></circle>
            </g>
            <g id="Dot-Copy-915" transform="translate(180.500000, 120.500000)">
                <rect id="Grid-Unit" x="0" y="0" width="20" height="20"></rect>
                <circle id="Dot" fill="#000000" cx="1.5" cy="1.5" r="1.5"></circle>
            </g>
            <g id="Dot-Copy-914" transform="translate(160.500000, 120.500000)">
                <rect id="Grid-Unit" x="0" y="0" width="20" height="20"></rect>
                <circle id="Dot" fill="#000000" cx="1.5" cy="1.5" r="1.5"></circle>
            </g>
            <g id="Dot-Copy-913" transform="translate(140.500000, 120.500000)">
                <rect id="Grid-Unit" x="0" y="0" width="20" height="20"></rect>
                <circle id="Dot" fill="#000000" cx="1.5" cy="1.5" r="1.5"></circle>
            </g>
            <g id="Dot-Copy-912" transform="translate(120.500000, 120.500000)">
                <rect id="Grid-Unit" x="0" y="0" width="20" height="20"></rect>
                <circle id="Dot" fill="#000000" cx="1.5" cy="1.5" r="1.5"></circle>
            </g>
            <g id="Dot-Copy-911" transform="translate(100.500000, 120.500000)">
                <rect id="Grid-Unit" x="0" y="0" width="20" height="20"></rect>
                <circle id="Dot" fill="#000000" cx="1.5" cy="1.5" r="1.5"></circle>
            </g>
            <g id="Dot-Copy-910" transform="translate(80.500000, 120.500000)">
                <rect id="Grid-Unit" x="0" y="0" width="20" height="20"></rect>
                <circle id="Dot" fill="#000000" cx="1.5" cy="1.5" r="1.5"></circle>
            </g>
            <g id="Dot-Copy-909" transform="translate(60.500000, 120.500000)">
                <rect id="Grid-Unit" x="0" y="0" width="20" height="20"></rect>
                <circle id="Dot" fill="#000000" cx="1.5" cy="1.5" r="1.5"></circle>
            </g>
            <g id="Dot-Copy-908" transform="translate(40.500000, 120.500000)">
                <rect id="Grid-Unit" x="0" y="0" width="20" height="20"></rect>
                <circle id="Dot" fill="#000000" cx="1.5" cy="1.5" r="1.5"></circle>
            </g>
            <g id="Dot-Copy-907" transform="translate(20.500000, 120.500000)">
                <rect id="Grid-Unit" x="0" y="0" width="20" height="20"></rect>
                <circle id="Dot" fill="#000000" cx="1.5" cy="1.5" r="1.5"></circle>
            </g>
            <g id="Dot-Copy-906" transform="translate(0.500000, 120.500000)">
                <rect id="Grid-Unit" x="0" y="0" width="20" height="20"></rect>
                <circle id="Dot" fill="#000000" cx="1.5" cy="1.5" r="1.5"></circle>
            </g>
            <g id="Dot-Copy-904" transform="translate(240.500000, 100.500000)">
                <rect id="Grid-Unit" x="0" y="0" width="20" height="20"></rect>
                <circle id="Dot" fill="#000000" cx="1.5" cy="1.5" r="1.5"></circle>
            </g>
            <g id="Dot-Copy-903" transform="translate(220.500000, 100.500000)">
                <rect id="Grid-Unit" x="0" y="0" width="20" height="20"></rect>
                <circle id="Dot" fill="#000000" cx="1.5" cy="1.5" r="1.5"></circle>
            </g>
            <g id="Dot-Copy-902" transform="translate(200.500000, 100.500000)">
                <rect id="Grid-Unit" x="0" y="0" width="20" height="20"></rect>
                <circle id="Dot" fill="#000000" cx="1.5" cy="1.5" r="1.5"></circle>
            </g>
            <g id="Dot-Copy-901" transform="translate(180.500000, 100.500000)">
                <rect id="Grid-Unit" x="0" y="0" width="20" height="20"></rect>
                <circle id="Dot" fill="#000000" cx="1.5" cy="1.5" r="1.5"></circle>
            </g>
            <g id="Dot-Copy-900" transform="translate(160.500000, 100.500000)">
                <rect id="Grid-Unit" x="0" y="0" width="20" height="20"></rect>
                <circle id="Dot" fill="#000000" cx="1.5" cy="1.5" r="1.5"></circle>
            </g>
            <g id="Dot-Copy-899" transform="translate(140.500000, 100.500000)">
                <rect id="Grid-Unit" x="0" y="0" width="20" height="20"></rect>
                <circle id="Dot" fill="#000000" cx="1.5" cy="1.5" r="1.5"></circle>
            </g>
            <g id="Dot-Copy-898" transform="translate(120.500000, 100.500000)">
                <rect id="Grid-Unit" x="0" y="0" width="20" height="20"></rect>
                <circle id="Dot" fill="#000000" cx="1.5" cy="1.5" r="1.5"></circle>
            </g>
            <g id="Dot-Copy-897" transform="translate(100.500000, 100.500000)">
                <rect id="Grid-Unit" x="0" y="0" width="20" height="20"></rect>
                <circle id="Dot" fill="#000000" cx="1.5" cy="1.5" r="1.5"></circle>
            </g>
            <g id="Dot-Copy-896" transform="translate(80.500000, 100.500000)">
                <rect id="Grid-Unit" x="0" y="0" width="20" height="20"></rect>
                <circle id="Dot" fill="#000000" cx="1.5" cy="1.5" r="1.5"></circle>
            </g>
            <g id="Dot-Copy-895" transform="translate(60.500000, 100.500000)">
                <rect id="Grid-Unit" x="0" y="0" width="20" height="20"></rect>
                <circle id="Dot" fill="#000000" cx="1.5" cy="1.5" r="1.5"></circle>
            </g>
            <g id="Dot-Copy-894" transform="translate(40.500000, 100.500000)">
                <rect id="Grid-Unit" x="0" y="0" width="20" height="20"></rect>
                <circle id="Dot" fill="#000000" cx="1.5" cy="1.5" r="1.5"></circle>
            </g>
            <g id="Dot-Copy-893" transform="translate(20.500000, 100.500000)">
                <rect id="Grid-Unit" x="0" y="0" width="20" height="20"></rect>
                <circle id="Dot" fill="#000000" cx="1.5" cy="1.5" r="1.5"></circle>
            </g>
            <g id="Dot-Copy-892" transform="translate(0.500000, 100.500000)">
                <rect id="Grid-Unit" x="0" y="0" width="20" height="20"></rect>
                <circle id="Dot" fill="#000000" cx="1.5" cy="1.5" r="1.5"></circle>
            </g>
            <g id="Dot-Copy-890" transform="translate(240.500000, 80.500000)">
                <rect id="Grid-Unit" x="0" y="0" width="20" height="20"></rect>
                <circle id="Dot" fill="#000000" cx="1.5" cy="1.5" r="1.5"></circle>
            </g>
            <g id="Dot-Copy-889" transform="translate(220.500000, 80.500000)">
                <rect id="Grid-Unit" x="0" y="0" width="20" height="20"></rect>
                <circle id="Dot" fill="#000000" cx="1.5" cy="1.5" r="1.5"></circle>
            </g>
            <g id="Dot-Copy-888" transform="translate(200.500000, 80.500000)">
                <rect id="Grid-Unit" x="0" y="0" width="20" height="20"></rect>
                <circle id="Dot" fill="#000000" cx="1.5" cy="1.5" r="1.5"></circle>
            </g>
            <g id="Dot-Copy-887" transform="translate(180.500000, 80.500000)">
                <rect id="Grid-Unit" x="0" y="0" width="20" height="20"></rect>
                <circle id="Dot" fill="#000000" cx="1.5" cy="1.5" r="1.5"></circle>
            </g>
            <g id="Dot-Copy-886" transform="translate(160.500000, 80.500000)">
                <rect id="Grid-Unit" x="0" y="0" width="20" height="20"></rect>
                <circle id="Dot" fill="#000000" cx="1.5" cy="1.5" r="1.5"></circle>
            </g>
            <g id="Dot-Copy-885" transform="translate(140.500000, 80.500000)">
                <rect id="Grid-Unit" x="0" y="0" width="20" height="20"></rect>
                <circle id="Dot" fill="#000000" cx="1.5" cy="1.5" r="1.5"></circle>
            </g>
            <g id="Dot-Copy-884" transform="translate(120.500000, 80.500000)">
                <rect id="Grid-Unit" x="0" y="0" width="20" height="20"></rect>
                <circle id="Dot" fill="#000000" cx="1.5" cy="1.5" r="1.5"></circle>
            </g>
            <g id="Dot-Copy-883" transform="translate(100.500000, 80.500000)">
                <rect id="Grid-Unit" x="0" y="0" width="20" height="20"></rect>
                <circle id="Dot" fill="#000000" cx="1.5" cy="1.5" r="1.5"></circle>
            </g>
            <g id="Dot-Copy-882" transform="translate(80.500000, 80.500000)">
                <rect id="Grid-Unit" x="0" y="0" width="20" height="20"></rect>
                <circle id="Dot" fill="#000000" cx="1.5" cy="1.5" r="1.5"></circle>
            </g>
            <g id="Dot-Copy-881" transform="translate(60.500000, 80.500000)">
                <rect id="Grid-Unit" x="0" y="0" width="20" height="20"></rect>
                <circle id="Dot" fill="#000000" cx="1.5" cy="1.5" r="1.5"></circle>
            </g>
            <g id="Dot-Copy-880" transform="translate(40.500000, 80.500000)">
                <rect id="Grid-Unit" x="0" y="0" width="20" height="20"></rect>
                <circle id="Dot" fill="#000000" cx="1.5" cy="1.5" r="1.5"></circle>
            </g>
            <g id="Dot-Copy-879" transform="translate(20.500000, 80.500000)">
                <rect id="Grid-Unit" x="0" y="0" width="20" height="20"></rect>
                <circle id="Dot" fill="#000000" cx="1.5" cy="1.5" r="1.5"></circle>
            </g>
            <g id="Dot-Copy-878" transform="translate(0.500000, 80.500000)">
                <rect id="Grid-Unit" x="0" y="0" width="20" height="20"></rect>
                <circle id="Dot" fill="#000000" cx="1.5" cy="1.5" r="1.5"></circle>
            </g>
            <g id="Dot-Copy-876" transform="translate(240.500000, 60.500000)">
                <rect id="Grid-Unit" x="0" y="0" width="20" height="20"></rect>
                <circle id="Dot" fill="#000000" cx="1.5" cy="1.5" r="1.5"></circle>
            </g>
            <g id="Dot-Copy-875" transform="translate(220.500000, 60.500000)">
                <rect id="Grid-Unit" x="0" y="0" width="20" height="20"></rect>
                <circle id="Dot" fill="#000000" cx="1.5" cy="1.5" r="1.5"></circle>
            </g>
            <g id="Dot-Copy-874" transform="translate(200.500000, 60.500000)">
                <rect id="Grid-Unit" x="0" y="0" width="20" height="20"></rect>
                <circle id="Dot" fill="#000000" cx="1.5" cy="1.5" r="1.5"></circle>
            </g>
            <g id="Dot-Copy-873" transform="translate(180.500000, 60.500000)">
                <rect id="Grid-Unit" x="0" y="0" width="20" height="20"></rect>
                <circle id="Dot" fill="#000000" cx="1.5" cy="1.5" r="1.5"></circle>
            </g>
            <g id="Dot-Copy-872" transform="translate(160.500000, 60.500000)">
                <rect id="Grid-Unit" x="0" y="0" width="20" height="20"></rect>
                <circle id="Dot" fill="#000000" cx="1.5" cy="1.5" r="1.5"></circle>
            </g>
            <g id="Dot-Copy-871" transform="translate(140.500000, 60.500000)">
                <rect id="Grid-Unit" x="0" y="0" width="20" height="20"></rect>
                <circle id="Dot" fill="#000000" cx="1.5" cy="1.5" r="1.5"></circle>
            </g>
            <g id="Dot-Copy-870" transform="translate(120.500000, 60.500000)">
                <rect id="Grid-Unit" x="0" y="0" width="20" height="20"></rect>
                <circle id="Dot" fill="#000000" cx="1.5" cy="1.5" r="1.5"></circle>
            </g>
            <g id="Dot-Copy-869" transform="translate(100.500000, 60.500000)">
                <rect id="Grid-Unit" x="0" y="0" width="20" height="20"></rect>
                <circle id="Dot" fill="#000000" cx="1.5" cy="1.5" r="1.5"></circle>
            </g>
            <g id="Dot-Copy-868" transform="translate(80.500000, 60.500000)">
                <rect id="Grid-Unit" x="0" y="0" width="20" height="20"></rect>
                <circle id="Dot" fill="#000000" cx="1.5" cy="1.5" r="1.5"></circle>
            </g>
            <g id="Dot-Copy-867" transform="translate(60.500000, 60.500000)">
                <rect id="Grid-Unit" x="0" y="0" width="20" height="20"></rect>
                <circle id="Dot" fill="#000000" cx="1.5" cy="1.5" r="1.5"></circle>
            </g>
            <g id="Dot-Copy-866" transform="translate(40.500000, 60.500000)">
                <rect id="Grid-Unit" x="0" y="0" width="20" height="20"></rect>
                <circle id="Dot" fill="#000000" cx="1.5" cy="1.5" r="1.5"></circle>
            </g>
            <g id="Dot-Copy-865" transform="translate(20.500000, 60.500000)">
                <rect id="Grid-Unit" x="0" y="0" width="20" height="20"></rect>
                <circle id="Dot" fill="#000000" cx="1.5" cy="1.5" r="1.5"></circle>
            </g>
            <g id="Dot-Copy-864" transform="translate(0.500000, 60.500000)">
                <rect id="Grid-Unit" x="0" y="0" width="20" height="20"></rect>
                <circle id="Dot" fill="#000000" cx="1.5" cy="1.5" r="1.5"></circle>
            </g>
            <g id="Dot-Copy-862" transform="translate(240.500000, 40.500000)">
                <rect id="Grid-Unit" x="0" y="0" width="20" height="20"></rect>
                <circle id="Dot" fill="#000000" cx="1.5" cy="1.5" r="1.5"></circle>
            </g>
            <g id="Dot-Copy-861" transform="translate(220.500000, 40.500000)">
                <rect id="Grid-Unit" x="0" y="0" width="20" height="20"></rect>
                <circle id="Dot" fill="#000000" cx="1.5" cy="1.5" r="1.5"></circle>
            </g>
            <g id="Dot-Copy-860" transform="translate(200.500000, 40.500000)">
                <rect id="Grid-Unit" x="0" y="0" width="20" height="20"></rect>
                <circle id="Dot" fill="#000000" cx="1.5" cy="1.5" r="1.5"></circle>
            </g>
            <g id="Dot-Copy-859" transform="translate(180.500000, 40.500000)">
                <rect id="Grid-Unit" x="0" y="0" width="20" height="20"></rect>
                <circle id="Dot" fill="#000000" cx="1.5" cy="1.5" r="1.5"></circle>
            </g>
            <g id="Dot-Copy-858" transform="translate(160.500000, 40.500000)">
                <rect id="Grid-Unit" x="0" y="0" width="20" height="20"></rect>
                <circle id="Dot" fill="#000000" cx="1.5" cy="1.5" r="1.5"></circle>
            </g>
            <g id="Dot-Copy-857" transform="translate(140.500000, 40.500000)">
                <rect id="Grid-Unit" x="0" y="0" width="20" height="20"></rect>
                <circle id="Dot" fill="#000000" cx="1.5" cy="1.5" r="1.5"></circle>
            </g>
            <g id="Dot-Copy-856" transform="translate(120.500000, 40.500000)">
                <rect id="Grid-Unit" x="0" y="0" width="20" height="20"></rect>
                <circle id="Dot" fill="#000000" cx="1.5" cy="1.5" r="1.5"></circle>
            </g>
            <g id="Dot-Copy-855" transform="translate(100.500000, 40.500000)">
                <rect id="Grid-Unit" x="0" y="0" width="20" height="20"></rect>
                <circle id="Dot" fill="#000000" cx="1.5" cy="1.5" r="1.5"></circle>
            </g>
            <g id="Dot-Copy-854" transform="translate(80.500000, 40.500000)">
                <rect id="Grid-Unit" x="0" y="0" width="20" height="20"></rect>
                <circle id="Dot" fill="#000000" cx="1.5" cy="1.5" r="1.5"></circle>
            </g>
            <g id="Dot-Copy-853" transform="translate(60.500000, 40.500000)">
                <rect id="Grid-Unit" x="0" y="0" width="20" height="20"></rect>
                <circle id="Dot" fill="#000000" cx="1.5" cy="1.5" r="1.5"></circle>
            </g>
            <g id="Dot-Copy-852" transform="translate(40.500000, 40.500000)">
                <rect id="Grid-Unit" x="0" y="0" width="20" height="20"></rect>
                <circle id="Dot" fill="#000000" cx="1.5" cy="1.5" r="1.5"></circle>
            </g>
            <g id="Dot-Copy-851" transform="translate(20.500000, 40.500000)">
                <rect id="Grid-Unit" x="0" y="0" width="20" height="20"></rect>
                <circle id="Dot" fill="#000000" cx="1.5" cy="1.5" r="1.5"></circle>
            </g>
            <g id="Dot-Copy-850" transform="translate(0.500000, 40.500000)">
                <rect id="Grid-Unit" x="0" y="0" width="20" height="20"></rect>
                <circle id="Dot" fill="#000000" cx="1.5" cy="1.5" r="1.5"></circle>
            </g>
            <g id="Dot-Copy-848" transform="translate(240.500000, 20.500000)">
                <rect id="Grid-Unit" x="0" y="0" width="20" height="20"></rect>
                <circle id="Dot" fill="#000000" cx="1.5" cy="1.5" r="1.5"></circle>
            </g>
            <g id="Dot-Copy-847" transform="translate(220.500000, 20.500000)">
                <rect id="Grid-Unit" x="0" y="0" width="20" height="20"></rect>
                <circle id="Dot" fill="#000000" cx="1.5" cy="1.5" r="1.5"></circle>
            </g>
            <g id="Dot-Copy-846" transform="translate(200.500000, 20.500000)">
                <rect id="Grid-Unit" x="0" y="0" width="20" height="20"></rect>
                <circle id="Dot" fill="#000000" cx="1.5" cy="1.5" r="1.5"></circle>
            </g>
            <g id="Dot-Copy-845" transform="translate(180.500000, 20.500000)">
                <rect id="Grid-Unit" x="0" y="0" width="20" height="20"></rect>
                <circle id="Dot" fill="#000000" cx="1.5" cy="1.5" r="1.5"></circle>
            </g>
            <g id="Dot-Copy-844" transform="translate(160.500000, 20.500000)">
                <rect id="Grid-Unit" x="0" y="0" width="20" height="20"></rect>
                <circle id="Dot" fill="#000000" cx="1.5" cy="1.5" r="1.5"></circle>
            </g>
            <g id="Dot-Copy-843" transform="translate(140.500000, 20.500000)">
                <rect id="Grid-Unit" x="0" y="0" width="20" height="20"></rect>
                <circle id="Dot" fill="#000000" cx="1.5" cy="1.5" r="1.5"></circle>
            </g>
            <g id="Dot-Copy-842" transform="translate(120.500000, 20.500000)">
                <rect id="Grid-Unit" x="0" y="0" width="20" height="20"></rect>
                <circle id="Dot" fill="#000000" cx="1.5" cy="1.5" r="1.5"></circle>
            </g>
            <g id="Dot-Copy-841" transform="translate(100.500000, 20.500000)">
                <rect id="Grid-Unit" x="0" y="0" width="20" height="20"></rect>
                <circle id="Dot" fill="#000000" cx="1.5" cy="1.5" r="1.5"></circle>
            </g>
            <g id="Dot-Copy-840" transform="translate(80.500000, 20.500000)">
                <rect id="Grid-Unit" x="0" y="0" width="20" height="20"></rect>
                <circle id="Dot" fill="#000000" cx="1.5" cy="1.5" r="1.5"></circle>
            </g>
            <g id="Dot-Copy-839" transform="translate(60.500000, 20.500000)">
                <rect id="Grid-Unit" x="0" y="0" width="20" height="20"></rect>
                <circle id="Dot" fill="#000000" cx="1.5" cy="1.5" r="1.5"></circle>
            </g>
            <g id="Dot-Copy-838" transform="translate(40.500000, 20.500000)">
                <rect id="Grid-Unit" x="0" y="0" width="20" height="20"></rect>
                <circle id="Dot" fill="#000000" cx="1.5" cy="1.5" r="1.5"></circle>
            </g>
            <g id="Dot-Copy-837" transform="translate(20.500000, 20.500000)">
                <rect id="Grid-Unit" x="0" y="0" width="20" height="20"></rect>
                <circle id="Dot" fill="#000000" cx="1.5" cy="1.5" r="1.5"></circle>
            </g>
            <g id="Dot-Copy-836" transform="translate(0.500000, 20.500000)">
                <rect id="Grid-Unit" x="0" y="0" width="20" height="20"></rect>
                <circle id="Dot" fill="#000000" cx="1.5" cy="1.5" r="1.5"></circle>
            </g>
            <g id="Dot-Copy-834" transform="translate(240.500000, 0.500000)">
                <rect id="Grid-Unit" x="0" y="0" width="20" height="20"></rect>
                <circle id="Dot" fill="#000000" cx="1.5" cy="1.5" r="1.5"></circle>
            </g>
            <g id="Dot-Copy-833" transform="translate(220.500000, 0.500000)">
                <rect id="Grid-Unit" x="0" y="0" width="20" height="20"></rect>
                <circle id="Dot" fill="#000000" cx="1.5" cy="1.5" r="1.5"></circle>
            </g>
            <g id="Dot-Copy-832" transform="translate(200.500000, 0.500000)">
                <rect id="Grid-Unit" x="0" y="0" width="20" height="20"></rect>
                <circle id="Dot" fill="#000000" cx="1.5" cy="1.5" r="1.5"></circle>
            </g>
            <g id="Dot-Copy-831" transform="translate(180.500000, 0.500000)">
                <rect id="Grid-Unit" x="0" y="0" width="20" height="20"></rect>
                <circle id="Dot" fill="#000000" cx="1.5" cy="1.5" r="1.5"></circle>
            </g>
            <g id="Dot-Copy-830" transform="translate(160.500000, 0.500000)">
                <rect id="Grid-Unit" x="0" y="0" width="20" height="20"></rect>
                <circle id="Dot" fill="#000000" cx="1.5" cy="1.5" r="1.5"></circle>
            </g>
            <g id="Dot-Copy-829" transform="translate(140.500000, 0.500000)">
                <rect id="Grid-Unit" x="0" y="0" width="20" height="20"></rect>
                <circle id="Dot" fill="#000000" cx="1.5" cy="1.5" r="1.5"></circle>
            </g>
            <g id="Dot-Copy-828" transform="translate(120.500000, 0.500000)">
                <rect id="Grid-Unit" x="0" y="0" width="20" height="20"></rect>
                <circle id="Dot" fill="#000000" cx="1.5" cy="1.5" r="1.5"></circle>
            </g>
            <g id="Dot-Copy-827" transform="translate(100.500000, 0.500000)">
                <rect id="Grid-Unit" x="0" y="0" width="20" height="20"></rect>
                <circle id="Dot" fill="#000000" cx="1.5" cy="1.5" r="1.5"></circle>
            </g>
            <g id="Dot-Copy-826" transform="translate(80.500000, 0.500000)">
                <rect id="Grid-Unit" x="0" y="0" width="20" height="20"></rect>
                <circle id="Dot" fill="#000000" cx="1.5" cy="1.5" r="1.5"></circle>
            </g>
            <g id="Dot-Copy-825" transform="translate(60.500000, 0.500000)">
                <rect id="Grid-Unit" x="0" y="0" width="20" height="20"></rect>
                <circle id="Dot" fill="#000000" cx="1.5" cy="1.5" r="1.5"></circle>
            </g>
            <g id="Dot-Copy-824" transform="translate(40.500000, 0.500000)">
                <rect id="Grid-Unit" x="0" y="0" width="20" height="20"></rect>
                <circle id="Dot" fill="#000000" cx="1.5" cy="1.5" r="1.5"></circle>
            </g>
            <g id="Dot-Copy-823" transform="translate(20.500000, 0.500000)">
                <rect id="Grid-Unit" x="0" y="0" width="20" height="20"></rect>
                <circle id="Dot" fill="#000000" cx="1.5" cy="1.5" r="1.5"></circle>
            </g>
            <g id="Dot-Copy-822" transform="translate(0.500000, 0.500000)">
                <rect id="Grid-Unit" x="0" y="0" width="20" height="20"></rect>
                <circle id="Dot" fill="#000000" cx="1.5" cy="1.5" r="1.5"></circle>
            </g>
            <g id="information-copy" transform="translate(14.000000, 22.000000)">
                <rect id="Rectangle-843" fill="#FFFFFF" x="0.5" y="50" width="140" height="47.5"></rect>
                <path d="M6.064,61.464 L6.064,78 L9.112,78 L9.112,61.464 L6.064,61.464 Z M15.6,78 L15.6,72.024 C15.6,70.08 16.728,69.408 18.048,69.408 C19.32,69.408 20.184,70.272 20.184,71.904 L20.184,78 L23.112,78 L23.112,71.376 C23.112,68.208 21.552,66.552 18.936,66.552 C17.64,66.552 16.224,67.248 15.6,68.448 L15.6,66.792 L12.672,66.792 L12.672,78 L15.6,78 Z M33.152,63.504 L33.152,60.696 L31.928,60.696 C28.784,60.696 27.152,62.64 27.152,65.904 L27.152,66.792 L25.016,66.792 L25.016,69.144 L27.152,69.144 L27.152,78 L30.104,78 L30.104,69.144 L32.48,69.144 L32.48,66.792 L30.104,66.792 L30.104,65.904 C30.104,64.536 30.56,63.504 31.928,63.504 L33.152,63.504 Z M39.52,78.216 C42.688,78.216 45.352,75.888 45.352,72.36 C45.352,68.832 42.688,66.552 39.52,66.552 C36.328,66.552 33.688,68.832 33.688,72.36 C33.688,75.888 36.328,78.216 39.52,78.216 L39.52,78.216 Z M39.52,75.36 C37.912,75.36 36.592,74.184 36.592,72.36 C36.592,70.584 37.912,69.432 39.52,69.432 C41.128,69.432 42.448,70.584 42.448,72.36 C42.448,74.184 41.128,75.36 39.52,75.36 L39.52,75.36 Z M50.736,74.04 C50.736,71.064 51.552,69.288 53.544,69.288 C53.832,69.288 54.552,69.288 55.248,69.6 L55.752,66.96 C55.296,66.72 54.696,66.552 53.904,66.552 C52.632,66.552 51.312,67.392 50.736,69.432 L50.736,66.792 L47.808,66.792 L47.808,78 L50.736,78 L50.736,74.04 Z M70.064,69.408 C71.264,69.408 72.176,70.296 72.176,71.904 L72.176,78 L75.08,78 L75.08,71.592 C75.08,68.304 73.472,66.552 70.76,66.552 C69.872,66.552 68.288,66.816 67.232,68.664 C66.608,67.296 65.432,66.672 63.656,66.576 C62.6,66.576 61.064,67.08 60.44,68.448 L60.44,66.792 L57.512,66.792 L57.512,78 L60.44,78 L60.44,72.024 C60.44,70.104 61.592,69.408 62.792,69.408 C63.944,69.408 64.832,70.272 64.856,71.832 L64.856,78 L67.784,78 L67.784,72.024 C67.784,70.32 68.744,69.408 70.064,69.408 L70.064,69.408 Z M77.848,68.856 L79.576,70.512 C80.368,69.48 81.688,69.12 82.576,69.12 C84.112,69.12 85,70.128 85,71.352 L85,71.784 C84.28,71.304 82.84,71.04 82.144,71.04 C78.592,71.04 77.296,72.6 77.296,74.568 C77.296,76.872 79.024,78.24 81.64,78.24 C82.552,78.24 84.16,77.88 85,76.848 L85,78 L87.88,78 L87.88,71.352 C87.88,68.208 85.936,66.552 82.744,66.552 C81.28,66.552 79.24,66.888 77.848,68.856 L77.848,68.856 Z M81.856,75.672 C80.776,75.672 80.2,75.048 80.2,74.376 C80.2,73.896 80.464,73.128 82.192,73.128 C82.744,73.128 84.256,73.32 84.976,73.824 L84.976,74.352 C84.304,75.264 82.696,75.672 81.856,75.672 L81.856,75.672 Z M94.728,66.792 L94.728,62.52 L91.824,62.52 L91.824,66.792 L89.784,66.792 L89.784,69.144 L91.824,69.144 L91.824,78 L94.728,78 L94.728,69.144 L97.104,69.144 L97.104,66.792 L94.728,66.792 Z M98.72,62.448 C98.72,63.456 99.584,64.224 100.616,64.224 C101.624,64.224 102.464,63.456 102.464,62.448 C102.464,61.464 101.624,60.696 100.616,60.696 C99.584,60.696 98.72,61.464 98.72,62.448 L98.72,62.448 Z M102.056,78 L102.056,66.792 L99.152,66.792 L99.152,78 L102.056,78 Z M110.344,78.216 C113.512,78.216 116.176,75.888 116.176,72.36 C116.176,68.832 113.512,66.552 110.344,66.552 C107.152,66.552 104.512,68.832 104.512,72.36 C104.512,75.888 107.152,78.216 110.344,78.216 L110.344,78.216 Z M110.344,75.36 C108.736,75.36 107.416,74.184 107.416,72.36 C107.416,70.584 108.736,69.432 110.344,69.432 C111.952,69.432 113.272,70.584 113.272,72.36 C113.272,74.184 111.952,75.36 110.344,75.36 L110.344,75.36 Z M121.56,78 L121.56,72.024 C121.56,70.08 122.688,69.408 124.008,69.408 C125.28,69.408 126.144,70.272 126.144,71.904 L126.144,78 L129.072,78 L129.072,71.376 C129.072,68.208 127.512,66.552 124.896,66.552 C123.6,66.552 122.184,67.248 121.56,68.448 L121.56,66.792 L118.632,66.792 L118.632,78 L121.56,78 Z" id="Information" fill="#182226"></path>
                <path d="M28,0 C16.9544444,0 8,8.95444444 8,20 C8,31.0455556 16.9544444,40 28,40 C39.0455556,40 48,31.0455556 48,20 C48,8.95444444 39.0455556,0 28,0 Z" id="Fill-14" fill="#5AC2B3" style="mix-blend-mode: darken;"></path>
                <g id="Group" transform="translate(108.000000, 0.000000)">
                    <path d="M120,41 L120,120.999996 L40,121 L120,41 Z" id="Shape-Copy-25" fill="#EE4A62" style="mix-blend-mode: darken;" transform="translate(80.000000, 81.000000) scale(-1, 1) rotate(-270.000000) translate(-80.000000, -81.000000) "></path>
                    <path d="M40,40 L80,40 L80,80 L40,79.9999991 L40,40 Z" id="Rectangle-path-Copy-22" fill="#7CBDDF" style="mix-blend-mode: darken;"></path>
                    <path d="M0,0 L40,0 L40,40 L0,39.9999991 L0,0 Z" id="Rectangle-path-Copy-22" fill="#7CBDDF" style="mix-blend-mode: darken;"></path>
                </g>
            </g>
        </g>
    </g>
</svg>