<?xml version="1.0" encoding="UTF-8" standalone="no"?>
<svg width="290px" height="128px" viewBox="0 0 290 128" version="1.1" xmlns="http://www.w3.org/2000/svg" xmlns:xlink="http://www.w3.org/1999/xlink">
    <!-- Generator: Sketch 3.6.1 (26313) - http://www.bohemiancoding.com/sketch -->
    <title>information-mobile</title>
    <desc>Created with Sketch.</desc>
    <defs></defs>
    <g id="Page-1" stroke="none" stroke-width="1" fill="none" fill-rule="evenodd">
        <g id="information-mobile">
            <g id="Communication-Banner-Copy-2" transform="translate(1.000000, 1.000000)">
                <g id="Block" stroke="#000000" stroke-width="2" fill="#000000">
                    <ellipse id="Oval" cx="89.9070536" cy="90.5079621" rx="0.455061009" ry="0.458102484"></ellipse>
                    <ellipse id="Oval" cx="89.9070536" cy="72.5110788" rx="0.455061009" ry="0.458102484"></ellipse>
                    <ellipse id="Oval" cx="89.9070536" cy="54.5141956" rx="0.455061009" ry="0.458102484"></ellipse>
                    <ellipse id="Oval" cx="89.9070536" cy="36.5173123" rx="0.455061009" ry="0.458102484"></ellipse>
                    <ellipse id="Oval" cx="89.9070536" cy="18.520429" rx="0.455061009" ry="0.458102484"></ellipse>
                    <ellipse id="Oval" cx="89.9070536" cy="0.458102484" rx="0.455061009" ry="0.458102484"></ellipse>
                    <ellipse id="Oval" cx="71.9646481" cy="90.5079621" rx="0.455061009" ry="0.458102484"></ellipse>
                    <ellipse id="Oval" cx="71.9646481" cy="72.5110788" rx="0.455061009" ry="0.458102484"></ellipse>
                    <ellipse id="Oval" cx="71.9646481" cy="54.5141956" rx="0.455061009" ry="0.458102484"></ellipse>
                    <ellipse id="Oval" cx="71.9646481" cy="36.5173123" rx="0.455061009" ry="0.458102484"></ellipse>
                    <ellipse id="Oval" cx="71.9646481" cy="18.520429" rx="0.455061009" ry="0.458102484"></ellipse>
                    <ellipse id="Oval" cx="71.9646481" cy="0.458102484" rx="0.455061009" ry="0.458102484"></ellipse>
                    <ellipse id="Oval" cx="54.0872513" cy="90.5079621" rx="0.455061009" ry="0.458102484"></ellipse>
                    <ellipse id="Oval" cx="54.0872513" cy="72.5110788" rx="0.455061009" ry="0.458102484"></ellipse>
                    <ellipse id="Oval" cx="54.0872513" cy="54.5141956" rx="0.455061009" ry="0.458102484"></ellipse>
                    <ellipse id="Oval" cx="54.0872513" cy="36.5173123" rx="0.455061009" ry="0.458102484"></ellipse>
                    <ellipse id="Oval" cx="54.0872513" cy="18.520429" rx="0.455061009" ry="0.458102484"></ellipse>
                    <ellipse id="Oval" cx="54.0872513" cy="0.458102484" rx="0.455061009" ry="0.458102484"></ellipse>
                    <ellipse id="Oval" cx="36.2098546" cy="90.5079621" rx="0.455061009" ry="0.458102484"></ellipse>
                    <ellipse id="Oval" cx="36.2098546" cy="72.5110788" rx="0.455061009" ry="0.458102484"></ellipse>
                    <ellipse id="Oval" cx="36.2098546" cy="54.5141956" rx="0.455061009" ry="0.458102484"></ellipse>
                    <ellipse id="Oval" cx="36.2098546" cy="36.5173123" rx="0.455061009" ry="0.458102484"></ellipse>
                    <ellipse id="Oval" cx="36.2098546" cy="18.520429" rx="0.455061009" ry="0.458102484"></ellipse>
                    <ellipse id="Oval" cx="36.2098546" cy="0.458102484" rx="0.455061009" ry="0.458102484"></ellipse>
                    <ellipse id="Oval" cx="18.3324578" cy="90.5079621" rx="0.455061009" ry="0.458102484"></ellipse>
                    <ellipse id="Oval" cx="18.3324578" cy="72.5110788" rx="0.455061009" ry="0.458102484"></ellipse>
                    <ellipse id="Oval" cx="18.3324578" cy="54.5141956" rx="0.455061009" ry="0.458102484"></ellipse>
                    <ellipse id="Oval" cx="18.3324578" cy="36.5173123" rx="0.455061009" ry="0.458102484"></ellipse>
                    <ellipse id="Oval" cx="18.3324578" cy="18.520429" rx="0.455061009" ry="0.458102484"></ellipse>
                    <ellipse id="Oval" cx="18.3324578" cy="0.458102484" rx="0.455061009" ry="0.458102484"></ellipse>
                    <ellipse id="Oval" cx="0.455061009" cy="90.5079621" rx="0.455061009" ry="0.458102484"></ellipse>
                    <ellipse id="Oval" cx="0.455061009" cy="72.5110788" rx="0.455061009" ry="0.458102484"></ellipse>
                    <ellipse id="Oval" cx="0.455061009" cy="54.5141956" rx="0.455061009" ry="0.458102484"></ellipse>
                    <ellipse id="Oval" cx="0.455061009" cy="36.5173123" rx="0.455061009" ry="0.458102484"></ellipse>
                    <ellipse id="Oval" cx="0.455061009" cy="18.520429" rx="0.455061009" ry="0.458102484"></ellipse>
                    <ellipse id="Oval" cx="0.455061009" cy="0.458102484" rx="0.455061009" ry="0.458102484"></ellipse>
                    <ellipse id="Oval" cx="198.373319" cy="90.5079621" rx="0.455061009" ry="0.458102484"></ellipse>
                    <ellipse id="Oval" cx="198.373319" cy="72.5110788" rx="0.455061009" ry="0.458102484"></ellipse>
                    <ellipse id="Oval" cx="198.373319" cy="54.5141956" rx="0.455061009" ry="0.458102484"></ellipse>
                    <ellipse id="Oval" cx="198.373319" cy="36.5173123" rx="0.455061009" ry="0.458102484"></ellipse>
                    <ellipse id="Oval" cx="198.373319" cy="18.520429" rx="0.455061009" ry="0.458102484"></ellipse>
                    <ellipse id="Oval" cx="198.373319" cy="0.458102484" rx="0.455061009" ry="0.458102484"></ellipse>
                    <ellipse id="Oval" cx="215.769293" cy="90.5079621" rx="0.455061009" ry="0.458102484"></ellipse>
                    <ellipse id="Oval" cx="215.769293" cy="72.5110788" rx="0.455061009" ry="0.458102484"></ellipse>
                    <ellipse id="Oval" cx="215.769293" cy="54.5141956" rx="0.455061009" ry="0.458102484"></ellipse>
                    <ellipse id="Oval" cx="215.769293" cy="36.5173123" rx="0.455061009" ry="0.458102484"></ellipse>
                    <ellipse id="Oval" cx="215.769293" cy="18.520429" rx="0.455061009" ry="0.458102484"></ellipse>
                    <ellipse id="Oval" cx="215.769293" cy="0.458102484" rx="0.455061009" ry="0.458102484"></ellipse>
                    <ellipse id="Oval" cx="233.165266" cy="90.5079621" rx="0.455061009" ry="0.458102484"></ellipse>
                    <ellipse id="Oval" cx="233.165266" cy="72.5110788" rx="0.455061009" ry="0.458102484"></ellipse>
                    <ellipse id="Oval" cx="233.165266" cy="54.5141956" rx="0.455061009" ry="0.458102484"></ellipse>
                    <ellipse id="Oval" cx="233.165266" cy="36.5173123" rx="0.455061009" ry="0.458102484"></ellipse>
                    <ellipse id="Oval" cx="233.165266" cy="18.520429" rx="0.455061009" ry="0.458102484"></ellipse>
                    <ellipse id="Oval" cx="233.165266" cy="0.458102484" rx="0.455061009" ry="0.458102484"></ellipse>
                    <ellipse id="Oval" cx="250.561239" cy="90.5079621" rx="0.455061009" ry="0.458102484"></ellipse>
                    <ellipse id="Oval" cx="250.561239" cy="72.5110788" rx="0.455061009" ry="0.458102484"></ellipse>
                    <ellipse id="Oval" cx="250.561239" cy="54.5141956" rx="0.455061009" ry="0.458102484"></ellipse>
                    <ellipse id="Oval" cx="250.561239" cy="36.5173123" rx="0.455061009" ry="0.458102484"></ellipse>
                    <ellipse id="Oval" cx="250.561239" cy="18.520429" rx="0.455061009" ry="0.458102484"></ellipse>
                    <ellipse id="Oval" cx="250.561239" cy="0.458102484" rx="0.455061009" ry="0.458102484"></ellipse>
                    <ellipse id="Oval" cx="267.957212" cy="90.5079621" rx="0.455061009" ry="0.458102484"></ellipse>
                    <ellipse id="Oval" cx="267.957212" cy="72.5110788" rx="0.455061009" ry="0.458102484"></ellipse>
                    <ellipse id="Oval" cx="267.957212" cy="54.5141956" rx="0.455061009" ry="0.458102484"></ellipse>
                    <ellipse id="Oval" cx="267.957212" cy="36.5173123" rx="0.455061009" ry="0.458102484"></ellipse>
                    <ellipse id="Oval" cx="267.957212" cy="18.520429" rx="0.455061009" ry="0.458102484"></ellipse>
                    <ellipse id="Oval" cx="267.957212" cy="0.458102484" rx="0.455061009" ry="0.458102484"></ellipse>
                    <ellipse id="Oval" cx="287.286071" cy="90.5079621" rx="0.455061009" ry="0.458102484"></ellipse>
                    <ellipse id="Oval" cx="287.286071" cy="72.5110788" rx="0.455061009" ry="0.458102484"></ellipse>
                    <ellipse id="Oval" cx="287.286071" cy="54.5141956" rx="0.455061009" ry="0.458102484"></ellipse>
                    <ellipse id="Oval" cx="287.286071" cy="36.5173123" rx="0.455061009" ry="0.458102484"></ellipse>
                    <ellipse id="Oval" cx="287.286071" cy="18.520429" rx="0.455061009" ry="0.458102484"></ellipse>
                    <ellipse id="Oval" cx="287.286071" cy="0.458102484" rx="0.455061009" ry="0.458102484"></ellipse>
                    <ellipse id="Oval" cx="180.430914" cy="90.5079621" rx="0.455061009" ry="0.458102484"></ellipse>
                    <ellipse id="Oval" cx="180.430914" cy="72.5110788" rx="0.455061009" ry="0.458102484"></ellipse>
                    <ellipse id="Oval" cx="180.430914" cy="54.5141956" rx="0.455061009" ry="0.458102484"></ellipse>
                    <ellipse id="Oval" cx="180.430914" cy="36.5173123" rx="0.455061009" ry="0.458102484"></ellipse>
                    <ellipse id="Oval" cx="180.430914" cy="18.520429" rx="0.455061009" ry="0.458102484"></ellipse>
                    <ellipse id="Oval" cx="180.430914" cy="0.458102484" rx="0.455061009" ry="0.458102484"></ellipse>
                    <ellipse id="Oval" cx="162.553517" cy="90.5079621" rx="0.455061009" ry="0.458102484"></ellipse>
                    <ellipse id="Oval" cx="162.553517" cy="72.5110788" rx="0.455061009" ry="0.458102484"></ellipse>
                    <ellipse id="Oval" cx="162.553517" cy="54.5141956" rx="0.455061009" ry="0.458102484"></ellipse>
                    <ellipse id="Oval" cx="162.553517" cy="36.5173123" rx="0.455061009" ry="0.458102484"></ellipse>
                    <ellipse id="Oval" cx="162.553517" cy="18.520429" rx="0.455061009" ry="0.458102484"></ellipse>
                    <ellipse id="Oval" cx="162.553517" cy="0.458102484" rx="0.455061009" ry="0.458102484"></ellipse>
                    <ellipse id="Oval" cx="144.67612" cy="90.5079621" rx="0.455061009" ry="0.458102484"></ellipse>
                    <ellipse id="Oval" cx="144.67612" cy="72.5110788" rx="0.455061009" ry="0.458102484"></ellipse>
                    <ellipse id="Oval" cx="144.67612" cy="54.5141956" rx="0.455061009" ry="0.458102484"></ellipse>
                    <ellipse id="Oval" cx="144.67612" cy="36.5173123" rx="0.455061009" ry="0.458102484"></ellipse>
                    <ellipse id="Oval" cx="144.67612" cy="18.520429" rx="0.455061009" ry="0.458102484"></ellipse>
                    <ellipse id="Oval" cx="144.67612" cy="0.458102484" rx="0.455061009" ry="0.458102484"></ellipse>
                    <ellipse id="Oval" cx="126.798724" cy="90.5079621" rx="0.455061009" ry="0.458102484"></ellipse>
                    <ellipse id="Oval" cx="126.798724" cy="72.5110788" rx="0.455061009" ry="0.458102484"></ellipse>
                    <ellipse id="Oval" cx="126.798724" cy="54.5141956" rx="0.455061009" ry="0.458102484"></ellipse>
                    <ellipse id="Oval" cx="126.798724" cy="36.5173123" rx="0.455061009" ry="0.458102484"></ellipse>
                    <ellipse id="Oval" cx="126.798724" cy="18.520429" rx="0.455061009" ry="0.458102484"></ellipse>
                    <ellipse id="Oval" cx="126.798724" cy="0.458102484" rx="0.455061009" ry="0.458102484"></ellipse>
                    <ellipse id="Oval" cx="108.921327" cy="90.5079621" rx="0.455061009" ry="0.458102484"></ellipse>
                    <ellipse id="Oval" cx="89.9070536" cy="108.021476" rx="0.455061009" ry="0.458102484"></ellipse>
                    <ellipse id="Oval" cx="71.9646481" cy="108.021476" rx="0.455061009" ry="0.458102484"></ellipse>
                    <ellipse id="Oval" cx="54.0872513" cy="108.021476" rx="0.455061009" ry="0.458102484"></ellipse>
                    <ellipse id="Oval" cx="36.2098546" cy="108.021476" rx="0.455061009" ry="0.458102484"></ellipse>
                    <ellipse id="Oval" cx="18.3324578" cy="108.021476" rx="0.455061009" ry="0.458102484"></ellipse>
                    <ellipse id="Oval" cx="0.455061009" cy="108.021476" rx="0.455061009" ry="0.458102484"></ellipse>
                    <ellipse id="Oval" cx="198.373319" cy="108.021476" rx="0.455061009" ry="0.458102484"></ellipse>
                    <ellipse id="Oval" cx="215.769293" cy="108.021476" rx="0.455061009" ry="0.458102484"></ellipse>
                    <ellipse id="Oval" cx="233.165266" cy="108.021476" rx="0.455061009" ry="0.458102484"></ellipse>
                    <ellipse id="Oval" cx="250.561239" cy="108.021476" rx="0.455061009" ry="0.458102484"></ellipse>
                    <ellipse id="Oval" cx="267.957212" cy="108.021476" rx="0.455061009" ry="0.458102484"></ellipse>
                    <ellipse id="Oval" cx="287.286071" cy="108.021476" rx="0.455061009" ry="0.458102484"></ellipse>
                    <ellipse id="Oval" cx="180.430914" cy="108.021476" rx="0.455061009" ry="0.458102484"></ellipse>
                    <ellipse id="Oval" cx="162.553517" cy="108.021476" rx="0.455061009" ry="0.458102484"></ellipse>
                    <ellipse id="Oval" cx="144.67612" cy="108.021476" rx="0.455061009" ry="0.458102484"></ellipse>
                    <ellipse id="Oval" cx="126.798724" cy="108.021476" rx="0.455061009" ry="0.458102484"></ellipse>
                    <ellipse id="Oval" cx="108.921327" cy="108.021476" rx="0.455061009" ry="0.458102484"></ellipse>
                    <ellipse id="Oval" cx="89.9070536" cy="125.534989" rx="0.455061009" ry="0.458102484"></ellipse>
                    <ellipse id="Oval" cx="71.9646481" cy="125.534989" rx="0.455061009" ry="0.458102484"></ellipse>
                    <ellipse id="Oval" cx="54.0872513" cy="125.534989" rx="0.455061009" ry="0.458102484"></ellipse>
                    <ellipse id="Oval" cx="36.2098546" cy="125.534989" rx="0.455061009" ry="0.458102484"></ellipse>
                    <ellipse id="Oval" cx="18.3324578" cy="125.534989" rx="0.455061009" ry="0.458102484"></ellipse>
                    <ellipse id="Oval" cx="0.455061009" cy="125.534989" rx="0.455061009" ry="0.458102484"></ellipse>
                    <ellipse id="Oval" cx="198.373319" cy="125.534989" rx="0.455061009" ry="0.458102484"></ellipse>
                    <ellipse id="Oval" cx="215.769293" cy="125.534989" rx="0.455061009" ry="0.458102484"></ellipse>
                    <ellipse id="Oval" cx="233.165266" cy="125.534989" rx="0.455061009" ry="0.458102484"></ellipse>
                    <ellipse id="Oval" cx="250.561239" cy="125.534989" rx="0.455061009" ry="0.458102484"></ellipse>
                    <ellipse id="Oval" cx="267.957212" cy="125.534989" rx="0.455061009" ry="0.458102484"></ellipse>
                    <ellipse id="Oval" cx="287.286071" cy="125.534989" rx="0.455061009" ry="0.458102484"></ellipse>
                    <ellipse id="Oval" cx="180.430914" cy="125.534989" rx="0.455061009" ry="0.458102484"></ellipse>
                    <ellipse id="Oval" cx="162.553517" cy="125.534989" rx="0.455061009" ry="0.458102484"></ellipse>
                    <ellipse id="Oval" cx="144.67612" cy="125.534989" rx="0.455061009" ry="0.458102484"></ellipse>
                    <ellipse id="Oval" cx="126.798724" cy="125.534989" rx="0.455061009" ry="0.458102484"></ellipse>
                    <ellipse id="Oval" cx="108.921327" cy="125.534989" rx="0.455061009" ry="0.458102484"></ellipse>
                    <ellipse id="Oval" cx="108.921327" cy="72.5110788" rx="0.455061009" ry="0.458102484"></ellipse>
                    <ellipse id="Oval" cx="108.921327" cy="54.5141956" rx="0.455061009" ry="0.458102484"></ellipse>
                    <ellipse id="Oval" cx="108.921327" cy="36.5173123" rx="0.455061009" ry="0.458102484"></ellipse>
                    <ellipse id="Oval" cx="108.921327" cy="18.520429" rx="0.455061009" ry="0.458102484"></ellipse>
                    <ellipse id="Oval" cx="108.921327" cy="0.458102484" rx="0.455061009" ry="0.458102484"></ellipse>
                </g>
                <rect id="Rectangle-886" fill="#FFFFFF" x="2.35135135" y="74.9189189" width="153.648649" height="31.1351351"></rect>
                <text id="Information" font-family="Sofia, Avenir, Helvetica Neue, Arial, sans-serif" font-size="24" font-weight="bold" line-spacing="32" fill="#182226">
                    <tspan x="12.0810811" y="98.8918919">Information</tspan>
                </text>
                <path d="M197.5,108.137792 L250.637789,108.137792 L250.637792,55 L197.5,108.137792 Z" id="Shape-Copy-25" fill="#EE4A62" style="mix-blend-mode: darken;"></path>
                <path d="M215.5,72 L233,72 L233,89.5 L215.5,89.4999996 L215.5,72 Z" id="Rectangle-path-Copy-22" fill="#7CBDDF" style="mix-blend-mode: darken;"></path>
                <path d="M198,54.5 L215.5,54.5 L215.5,72 L198,71.9999996 L198,54.5 Z" id="Rectangle-path-Copy-22" fill="#7CBDDF" style="mix-blend-mode: darken;"></path>
                <path d="M99.4390678,36 C94.2260804,36 90,40.2260804 90,45.4390678 C90,50.6520551 94.2260804,54.8781355 99.4390678,54.8781355 C104.652055,54.8781355 108.878136,50.6520551 108.878136,45.4390678 C108.878136,40.2260804 104.652055,36 99.4390678,36 Z" id="Fill-14" fill="#5AC2B3" style="mix-blend-mode: darken;"></path>
            </g>
        </g>
    </g>
</svg>