<?xml version="1.0" encoding="UTF-8" standalone="no"?>
<svg width="331px" height="133px" viewBox="0 0 331 133" version="1.1" xmlns="http://www.w3.org/2000/svg" xmlns:xlink="http://www.w3.org/1999/xlink">
    <!-- Generator: Sketch 3.6.1 (26313) - http://www.bohemiancoding.com/sketch -->
    <title>information-mobile</title>
    <desc>Created with Sketch.</desc>
    <defs></defs>
    <g id="Page-1" stroke="none" stroke-width="1" fill="none" fill-rule="evenodd">
        <g id="Work-Index/Work-Index-Masonry/Information-Copy-3" transform="translate(-536.000000, -795.000000)">
            <g id="information-mobile" transform="translate(537.000000, 795.000000)">
                <g id="Background-(Grid)" transform="translate(1.000000, 1.000000)" stroke-width="2.2" stroke="#000000" fill="#000000">
                    <g id="Block">
                        <ellipse id="Oval" cx="109.15423" cy="1.34295538" rx="0.552479835" ry="0.55343506"></ellipse>
                        <ellipse id="Oval" cx="87.3707396" cy="1.34295538" rx="0.552479835" ry="0.55343506"></ellipse>
                        <ellipse id="Oval" cx="65.6661747" cy="1.34295538" rx="0.552479835" ry="0.55343506"></ellipse>
                        <ellipse id="Oval" cx="43.9616097" cy="1.34295538" rx="0.552479835" ry="0.55343506"></ellipse>
                        <ellipse id="Oval" cx="22.2570448" cy="1.34295538" rx="0.552479835" ry="0.55343506"></ellipse>
                        <ellipse id="Oval" cx="0.552479835" cy="1.34295538" rx="0.552479835" ry="0.55343506"></ellipse>
                        <ellipse id="Oval" cx="240.840803" cy="1.34295538" rx="0.552479835" ry="0.55343506"></ellipse>
                        <ellipse id="Oval" cx="219.057312" cy="1.34295538" rx="0.552479835" ry="0.55343506"></ellipse>
                        <ellipse id="Oval" cx="197.352747" cy="1.34295538" rx="0.552479835" ry="0.55343506"></ellipse>
                        <ellipse id="Oval" cx="175.648182" cy="1.34295538" rx="0.552479835" ry="0.55343506"></ellipse>
                        <ellipse id="Oval" cx="153.943617" cy="1.34295538" rx="0.552479835" ry="0.55343506"></ellipse>
                        <ellipse id="Oval" cx="132.239053" cy="1.34295538" rx="0.552479835" ry="0.55343506"></ellipse>
                    </g>
                    <g id="Block" transform="translate(0.000000, 20.201717)">
                        <ellipse id="Oval" cx="109.15423" cy="109.342955" rx="0.552479835" ry="0.55343506"></ellipse>
                        <ellipse id="Oval" cx="109.15423" cy="87.6008637" rx="0.552479835" ry="0.55343506"></ellipse>
                        <ellipse id="Oval" cx="109.15423" cy="65.8587721" rx="0.552479835" ry="0.55343506"></ellipse>
                        <ellipse id="Oval" cx="109.15423" cy="44.1166805" rx="0.552479835" ry="0.55343506"></ellipse>
                        <ellipse id="Oval" cx="109.15423" cy="22.3745888" rx="0.552479835" ry="0.55343506"></ellipse>
                        <ellipse id="Oval" cx="109.15423" cy="0.55343506" rx="0.552479835" ry="0.55343506"></ellipse>
                        <ellipse id="Oval" cx="87.3707396" cy="109.342955" rx="0.552479835" ry="0.55343506"></ellipse>
                        <ellipse id="Oval" cx="87.3707396" cy="87.6008637" rx="0.552479835" ry="0.55343506"></ellipse>
                        <ellipse id="Oval" cx="87.3707396" cy="65.8587721" rx="0.552479835" ry="0.55343506"></ellipse>
                        <ellipse id="Oval" cx="87.3707396" cy="44.1166805" rx="0.552479835" ry="0.55343506"></ellipse>
                        <ellipse id="Oval" cx="87.3707396" cy="22.3745888" rx="0.552479835" ry="0.55343506"></ellipse>
                        <ellipse id="Oval" cx="87.3707396" cy="0.55343506" rx="0.552479835" ry="0.55343506"></ellipse>
                        <ellipse id="Oval" cx="65.6661747" cy="109.342955" rx="0.552479835" ry="0.55343506"></ellipse>
                        <ellipse id="Oval" cx="65.6661747" cy="87.6008637" rx="0.552479835" ry="0.55343506"></ellipse>
                        <ellipse id="Oval" cx="65.6661747" cy="65.8587721" rx="0.552479835" ry="0.55343506"></ellipse>
                        <ellipse id="Oval" cx="65.6661747" cy="44.1166805" rx="0.552479835" ry="0.55343506"></ellipse>
                        <ellipse id="Oval" cx="65.6661747" cy="22.3745888" rx="0.552479835" ry="0.55343506"></ellipse>
                        <ellipse id="Oval" cx="65.6661747" cy="0.55343506" rx="0.552479835" ry="0.55343506"></ellipse>
                        <ellipse id="Oval" cx="43.9616097" cy="109.342955" rx="0.552479835" ry="0.55343506"></ellipse>
                        <ellipse id="Oval" cx="43.9616097" cy="87.6008637" rx="0.552479835" ry="0.55343506"></ellipse>
                        <ellipse id="Oval" cx="43.9616097" cy="65.8587721" rx="0.552479835" ry="0.55343506"></ellipse>
                        <ellipse id="Oval" cx="43.9616097" cy="44.1166805" rx="0.552479835" ry="0.55343506"></ellipse>
                        <ellipse id="Oval" cx="43.9616097" cy="22.3745888" rx="0.552479835" ry="0.55343506"></ellipse>
                        <ellipse id="Oval" cx="43.9616097" cy="0.55343506" rx="0.552479835" ry="0.55343506"></ellipse>
                        <ellipse id="Oval" cx="22.2570448" cy="109.342955" rx="0.552479835" ry="0.55343506"></ellipse>
                        <ellipse id="Oval" cx="22.2570448" cy="87.6008637" rx="0.552479835" ry="0.55343506"></ellipse>
                        <ellipse id="Oval" cx="22.2570448" cy="65.8587721" rx="0.552479835" ry="0.55343506"></ellipse>
                        <ellipse id="Oval" cx="22.2570448" cy="44.1166805" rx="0.552479835" ry="0.55343506"></ellipse>
                        <ellipse id="Oval" cx="22.2570448" cy="22.3745888" rx="0.552479835" ry="0.55343506"></ellipse>
                        <ellipse id="Oval" cx="22.2570448" cy="0.55343506" rx="0.552479835" ry="0.55343506"></ellipse>
                        <ellipse id="Oval" cx="0.552479835" cy="109.342955" rx="0.552479835" ry="0.55343506"></ellipse>
                        <ellipse id="Oval" cx="0.552479835" cy="87.6008637" rx="0.552479835" ry="0.55343506"></ellipse>
                        <ellipse id="Oval" cx="0.552479835" cy="65.8587721" rx="0.552479835" ry="0.55343506"></ellipse>
                        <ellipse id="Oval" cx="0.552479835" cy="44.1166805" rx="0.552479835" ry="0.55343506"></ellipse>
                        <ellipse id="Oval" cx="0.552479835" cy="22.3745888" rx="0.552479835" ry="0.55343506"></ellipse>
                        <ellipse id="Oval" cx="0.552479835" cy="0.55343506" rx="0.552479835" ry="0.55343506"></ellipse>
                        <ellipse id="Oval" cx="240.840803" cy="109.342955" rx="0.552479835" ry="0.55343506"></ellipse>
                        <ellipse id="Oval" cx="240.840803" cy="87.6008637" rx="0.552479835" ry="0.55343506"></ellipse>
                        <ellipse id="Oval" cx="240.840803" cy="65.8587721" rx="0.552479835" ry="0.55343506"></ellipse>
                        <ellipse id="Oval" cx="240.840803" cy="44.1166805" rx="0.552479835" ry="0.55343506"></ellipse>
                        <ellipse id="Oval" cx="240.840803" cy="22.3745888" rx="0.552479835" ry="0.55343506"></ellipse>
                        <ellipse id="Oval" cx="240.840803" cy="0.55343506" rx="0.552479835" ry="0.55343506"></ellipse>
                        <ellipse id="Oval" cx="219.057312" cy="109.342955" rx="0.552479835" ry="0.55343506"></ellipse>
                        <ellipse id="Oval" cx="219.057312" cy="87.6008637" rx="0.552479835" ry="0.55343506"></ellipse>
                        <ellipse id="Oval" cx="219.057312" cy="65.8587721" rx="0.552479835" ry="0.55343506"></ellipse>
                        <ellipse id="Oval" cx="219.057312" cy="44.1166805" rx="0.552479835" ry="0.55343506"></ellipse>
                        <ellipse id="Oval" cx="219.057312" cy="22.3745888" rx="0.552479835" ry="0.55343506"></ellipse>
                        <ellipse id="Oval" cx="219.057312" cy="0.55343506" rx="0.552479835" ry="0.55343506"></ellipse>
                        <ellipse id="Oval" cx="197.352747" cy="109.342955" rx="0.552479835" ry="0.55343506"></ellipse>
                        <ellipse id="Oval" cx="197.352747" cy="87.6008637" rx="0.552479835" ry="0.55343506"></ellipse>
                        <ellipse id="Oval" cx="197.352747" cy="65.8587721" rx="0.552479835" ry="0.55343506"></ellipse>
                        <ellipse id="Oval" cx="197.352747" cy="44.1166805" rx="0.552479835" ry="0.55343506"></ellipse>
                        <ellipse id="Oval" cx="197.352747" cy="22.3745888" rx="0.552479835" ry="0.55343506"></ellipse>
                        <ellipse id="Oval" cx="197.352747" cy="0.55343506" rx="0.552479835" ry="0.55343506"></ellipse>
                        <ellipse id="Oval" cx="175.648182" cy="109.342955" rx="0.552479835" ry="0.55343506"></ellipse>
                        <ellipse id="Oval" cx="175.648182" cy="87.6008637" rx="0.552479835" ry="0.55343506"></ellipse>
                        <ellipse id="Oval" cx="175.648182" cy="65.8587721" rx="0.552479835" ry="0.55343506"></ellipse>
                        <ellipse id="Oval" cx="175.648182" cy="44.1166805" rx="0.552479835" ry="0.55343506"></ellipse>
                        <ellipse id="Oval" cx="175.648182" cy="22.3745888" rx="0.552479835" ry="0.55343506"></ellipse>
                        <ellipse id="Oval" cx="175.648182" cy="0.55343506" rx="0.552479835" ry="0.55343506"></ellipse>
                        <ellipse id="Oval" cx="153.943617" cy="109.342955" rx="0.552479835" ry="0.55343506"></ellipse>
                        <ellipse id="Oval" cx="153.943617" cy="87.6008637" rx="0.552479835" ry="0.55343506"></ellipse>
                        <ellipse id="Oval" cx="153.943617" cy="65.8587721" rx="0.552479835" ry="0.55343506"></ellipse>
                        <ellipse id="Oval" cx="153.943617" cy="44.1166805" rx="0.552479835" ry="0.55343506"></ellipse>
                        <ellipse id="Oval" cx="153.943617" cy="22.3745888" rx="0.552479835" ry="0.55343506"></ellipse>
                        <ellipse id="Oval" cx="153.943617" cy="0.55343506" rx="0.552479835" ry="0.55343506"></ellipse>
                        <ellipse id="Oval" cx="132.239053" cy="109.342955" rx="0.552479835" ry="0.55343506"></ellipse>
                        <ellipse id="Oval" cx="132.239053" cy="87.6008637" rx="0.552479835" ry="0.55343506"></ellipse>
                        <ellipse id="Oval" cx="132.239053" cy="65.8587721" rx="0.552479835" ry="0.55343506"></ellipse>
                        <ellipse id="Oval" cx="132.239053" cy="44.1166805" rx="0.552479835" ry="0.55343506"></ellipse>
                        <ellipse id="Oval" cx="132.239053" cy="22.3745888" rx="0.552479835" ry="0.55343506"></ellipse>
                        <ellipse id="Oval" cx="132.239053" cy="0.55343506" rx="0.552479835" ry="0.55343506"></ellipse>
                    </g>
                    <g id="Block" transform="translate(261.552594, 0.000000)">
                        <ellipse id="Oval" cx="65.6661747" cy="1.34295538" rx="0.552479835" ry="0.55343506"></ellipse>
                        <ellipse id="Oval" cx="43.9616097" cy="1.34295538" rx="0.552479835" ry="0.55343506"></ellipse>
                        <ellipse id="Oval" cx="22.2570448" cy="1.34295538" rx="0.552479835" ry="0.55343506"></ellipse>
                        <ellipse id="Oval" cx="0.552479835" cy="1.34295538" rx="0.552479835" ry="0.55343506"></ellipse>
                    </g>
                    <g id="Block" transform="translate(261.552594, 20.201717)">
                        <ellipse id="Oval" cx="65.6661747" cy="109.342955" rx="0.552479835" ry="0.55343506"></ellipse>
                        <ellipse id="Oval" cx="65.6661747" cy="87.6008637" rx="0.552479835" ry="0.55343506"></ellipse>
                        <ellipse id="Oval" cx="65.6661747" cy="65.8587721" rx="0.552479835" ry="0.55343506"></ellipse>
                        <ellipse id="Oval" cx="65.6661747" cy="44.1166805" rx="0.552479835" ry="0.55343506"></ellipse>
                        <ellipse id="Oval" cx="65.6661747" cy="22.3745888" rx="0.552479835" ry="0.55343506"></ellipse>
                        <ellipse id="Oval" cx="65.6661747" cy="0.55343506" rx="0.552479835" ry="0.55343506"></ellipse>
                        <ellipse id="Oval" cx="43.9616097" cy="109.342955" rx="0.552479835" ry="0.55343506"></ellipse>
                        <ellipse id="Oval" cx="43.9616097" cy="87.6008637" rx="0.552479835" ry="0.55343506"></ellipse>
                        <ellipse id="Oval" cx="43.9616097" cy="65.8587721" rx="0.552479835" ry="0.55343506"></ellipse>
                        <ellipse id="Oval" cx="43.9616097" cy="44.1166805" rx="0.552479835" ry="0.55343506"></ellipse>
                        <ellipse id="Oval" cx="43.9616097" cy="22.3745888" rx="0.552479835" ry="0.55343506"></ellipse>
                        <ellipse id="Oval" cx="43.9616097" cy="0.55343506" rx="0.552479835" ry="0.55343506"></ellipse>
                        <ellipse id="Oval" cx="22.2570448" cy="109.342955" rx="0.552479835" ry="0.55343506"></ellipse>
                        <ellipse id="Oval" cx="22.2570448" cy="87.6008637" rx="0.552479835" ry="0.55343506"></ellipse>
                        <ellipse id="Oval" cx="22.2570448" cy="65.8587721" rx="0.552479835" ry="0.55343506"></ellipse>
                        <ellipse id="Oval" cx="22.2570448" cy="44.1166805" rx="0.552479835" ry="0.55343506"></ellipse>
                        <ellipse id="Oval" cx="22.2570448" cy="22.3745888" rx="0.552479835" ry="0.55343506"></ellipse>
                        <ellipse id="Oval" cx="22.2570448" cy="0.55343506" rx="0.552479835" ry="0.55343506"></ellipse>
                        <ellipse id="Oval" cx="0.552479835" cy="109.342955" rx="0.552479835" ry="0.55343506"></ellipse>
                        <ellipse id="Oval" cx="0.552479835" cy="87.6008637" rx="0.552479835" ry="0.55343506"></ellipse>
                        <ellipse id="Oval" cx="0.552479835" cy="65.8587721" rx="0.552479835" ry="0.55343506"></ellipse>
                        <ellipse id="Oval" cx="0.552479835" cy="44.1166805" rx="0.552479835" ry="0.55343506"></ellipse>
                        <ellipse id="Oval" cx="0.552479835" cy="22.3745888" rx="0.552479835" ry="0.55343506"></ellipse>
                        <ellipse id="Oval" cx="0.552479835" cy="0.55343506" rx="0.552479835" ry="0.55343506"></ellipse>
                    </g>
                </g>
                <g id="Group">
                    <path d="M45.1354613,86.5101467 L45.1354613,130.815123 L0.559560901,130.815125 L45.1354613,86.5101467 Z" id="Shape-Copy-25" fill="#EE4A62" style="mix-blend-mode: darken;" transform="translate(22.847511, 108.662636) scale(-1, 1) rotate(-270.000000) translate(-22.847511, -108.662636) "></path>
                    <path d="M329.134529,65.1345288 L329.134529,109.134527 L284.865471,109.134529 L329.134529,65.1345288 Z" id="Shape-Copy-26" fill="#EE4A62" style="mix-blend-mode: darken;" transform="translate(307.000000, 87.134529) scale(-1, 1) rotate(-90.000000) translate(-307.000000, -87.134529) "></path>
                    <path d="M306,22 L327.591743,22 L327.591743,43.4605133 L306,43.4605128 L306,22 Z" id="Rectangle-path-Copy-22" fill="#7CBDDF" style="mix-blend-mode: darken;"></path>
                    <path d="M285,0 L305.991972,0 L305.991972,21.4605133 L285,21.4605128 L285,0 Z" id="Rectangle-path-Copy-22" fill="#7CBDDF" style="mix-blend-mode: darken;"></path>
                    <path d="M24,22 L44.9919725,22 L44.9919725,43.4605133 L24,43.4605128 L24,22 Z" id="Rectangle-path-Copy-23" fill="#7CBDDF" style="mix-blend-mode: darken;"></path>
                    <path d="M199,109 L219.991972,109 L219.991972,130.460513 L199,130.460513 L199,109 Z" id="Rectangle-path-Copy-24" fill="#7CBDDF" style="mix-blend-mode: darken;"></path>
                </g>
                <rect id="Rectangle-843" fill="#FFFFFF" x="59" y="33" width="214" height="66.69933"></rect>
                <path d="M79.196,51.2371491 L79.196,74.6631491 L82.358,74.6631491 L82.358,51.2371491 L79.196,51.2371491 Z M91.232,66.0951491 C91.232,62.7291491 93.476,61.4711491 95.72,61.4711491 C97.896,61.4711491 99.222,63.0351491 99.222,65.6871491 L99.222,74.6631491 L102.316,74.6631491 L102.316,65.4831491 C102.316,61.0291491 100.14,58.4451491 96.196,58.4451491 C94.462,58.4451491 92.184,59.2611491 91.232,61.1651491 L91.232,58.7851491 L88.138,58.7851491 L88.138,74.6631491 L91.232,74.6631491 L91.232,66.0951491 Z M116.494,50.1491491 L114.76,50.1491491 C110.476,50.1491491 108.674,53.0051491 108.674,57.1871491 L108.674,58.7851491 L105.614,58.7851491 L105.614,61.4031491 L108.674,61.4031491 L108.674,74.6631491 L111.802,74.6631491 L111.802,61.4031491 L115.474,61.4031491 L115.474,58.7851491 L111.802,58.7851491 L111.802,57.1871491 C111.768,55.1471491 112.21,53.1071491 114.76,53.1071491 L116.494,53.1071491 L116.494,50.1491491 Z M126.184,75.0031491 C130.706,75.0031491 134.514,71.7051491 134.514,66.6731491 C134.514,61.6411491 130.706,58.4451491 126.184,58.4451491 C121.662,58.4451491 117.888,61.6411491 117.888,66.6731491 C117.888,71.7051491 121.662,75.0031491 126.184,75.0031491 L126.184,75.0031491 Z M126.184,72.0111491 C123.328,72.0111491 120.948,69.9031491 120.948,66.6731491 C120.948,63.4771491 123.328,61.4711491 126.184,61.4711491 C129.04,61.4711491 131.42,63.4771491 131.42,66.6731491 C131.42,69.9031491 129.04,72.0111491 126.184,72.0111491 L126.184,72.0111491 Z M141.722,68.8831491 C141.722,64.6671491 143.014,61.4031491 146.074,61.4031491 C146.72,61.4031491 147.57,61.5391491 148.42,61.9471491 L148.896,59.0571491 C148.454,58.7511491 147.264,58.4451491 146.142,58.4451491 C144.068,58.4451491 142.538,59.5671491 141.722,62.3551491 L141.722,58.7851491 L138.628,58.7851491 L138.628,74.6631491 L141.722,74.6631491 L141.722,68.8831491 Z M170.316,61.4711491 C172.594,61.4711491 173.954,63.0691491 173.954,65.6871491 L173.954,74.6631491 L177.048,74.6631491 L177.048,65.4831491 C177.048,61.0291491 174.906,58.4451491 170.928,58.4451491 C169.364,58.4451491 166.882,58.8871491 165.42,61.7091491 C164.672,59.9751491 163.278,58.9211491 161.272,58.6151491 C160.728,58.5131491 160.15,58.4791491 159.538,58.5131491 C158.246,58.6151491 156.002,59.3971491 155.152,61.1651491 L155.152,58.7851491 L152.058,58.7851491 L152.058,74.6631491 L155.152,74.6631491 L155.152,66.0951491 C155.152,62.7631491 157.362,61.4711491 159.572,61.4711491 C161.646,61.4711491 163.006,63.0351491 163.006,65.6531491 L163.006,74.6631491 L166.1,74.6631491 L166.1,66.0951491 C166.1,63.4431491 167.698,61.4371491 170.316,61.4711491 L170.316,61.4711491 Z M186.84,72.2491491 C184.698,72.2491491 183.712,71.2631491 183.712,70.0731491 C183.712,69.0191491 184.324,67.5911491 187.588,67.5911491 C188.574,67.5911491 190.648,67.8291491 192.314,68.4071491 L192.314,69.5631491 C191.192,71.3991491 188.472,72.2491491 186.84,72.2491491 L186.84,72.2491491 Z M192.348,72.6231491 L192.348,74.6631491 L195.408,74.6631491 L195.408,65.1091491 C195.408,60.7231491 192.688,58.4451491 188.166,58.4451491 C186.092,58.4451491 183.27,59.0231491 181.57,61.4371491 L183.474,63.2731491 C184.596,61.9811491 186.398,61.2331491 187.928,61.2331491 C190.75,61.2331491 192.348,62.7971491 192.348,65.1091491 L192.348,65.9251491 C190.512,65.3471491 189.05,65.0751491 187.588,65.0751491 C182.624,65.0751491 180.788,67.3531491 180.788,70.0731491 C180.788,73.1671491 183.168,75.0031491 186.772,75.0031491 C188.744,75.0031491 191.192,74.2551491 192.348,72.6231491 L192.348,72.6231491 Z M204.656,58.7851491 L204.656,52.8011491 L201.562,52.8011491 L201.562,58.7851491 L198.706,58.7851491 L198.706,61.4031491 L201.562,61.4031491 L201.562,74.6631491 L204.656,74.6631491 L204.656,61.4031491 L208.022,61.4031491 L208.022,58.7851491 L204.656,58.7851491 Z M210.912,52.9371491 C210.912,54.0931491 211.898,54.9431491 213.054,54.9431491 C214.244,54.9431491 215.196,54.0931491 215.196,52.9371491 C215.196,51.7811491 214.244,50.9311491 213.054,50.9311491 C211.898,50.9311491 210.912,51.7811491 210.912,52.9371491 L210.912,52.9371491 Z M214.584,58.7851491 L211.524,58.7851491 L211.524,74.6631491 L214.584,74.6631491 L214.584,58.7851491 Z M226.994,75.0031491 C231.516,75.0031491 235.324,71.7051491 235.324,66.6731491 C235.324,61.6411491 231.516,58.4451491 226.994,58.4451491 C222.472,58.4451491 218.698,61.6411491 218.698,66.6731491 C218.698,71.7051491 222.472,75.0031491 226.994,75.0031491 L226.994,75.0031491 Z M226.994,72.0111491 C224.138,72.0111491 221.758,69.9031491 221.758,66.6731491 C221.758,63.4771491 224.138,61.4711491 226.994,61.4711491 C229.85,61.4711491 232.23,63.4771491 232.23,66.6731491 C232.23,69.9031491 229.85,72.0111491 226.994,72.0111491 L226.994,72.0111491 Z M242.532,66.0951491 C242.532,62.7291491 244.776,61.4711491 247.02,61.4711491 C249.196,61.4711491 250.522,63.0351491 250.522,65.6871491 L250.522,74.6631491 L253.616,74.6631491 L253.616,65.4831491 C253.616,61.0291491 251.44,58.4451491 247.496,58.4451491 C245.762,58.4451491 243.484,59.2611491 242.532,61.1651491 L242.532,58.7851491 L239.438,58.7851491 L239.438,74.6631491 L242.532,74.6631491 L242.532,66.0951491 Z" id="Information" fill="#182226"></path>
            </g>
        </g>
    </g>
</svg>