<?xml version="1.0" encoding="UTF-8" standalone="no"?>
<svg width="244px" height="164px" viewBox="0 0 244 164" version="1.1" xmlns="http://www.w3.org/2000/svg" xmlns:xlink="http://www.w3.org/1999/xlink">
    <!-- Generator: Sketch 3.6.1 (26313) - http://www.bohemiancoding.com/sketch -->
    <title>interactive-mobile</title>
    <desc>Created with Sketch.</desc>
    <defs></defs>
    <g id="Page-1-Copy" stroke="none" stroke-width="1" fill="none" fill-rule="evenodd">
        <g id="interactive-mobile">
            <g id="Group-5">
                <g id="Group-12-Copy-3" transform="translate(0.500000, 0.500000)">
                    <g id="Dot-Copy-946" transform="translate(240.000000, 160.000000)">
                        <rect id="Grid-Unit" x="0" y="0" width="20" height="20"></rect>
                        <circle id="Dot" fill="#000000" cx="1.5" cy="1.5" r="1.25"></circle>
                    </g>
                    <g id="Dot-Copy-945" transform="translate(220.000000, 160.000000)">
                        <rect id="Grid-Unit" x="0" y="0" width="20" height="20"></rect>
                        <circle id="Dot" fill="#000000" cx="1.5" cy="1.5" r="1.25"></circle>
                    </g>
                    <g id="Dot-Copy-944" transform="translate(200.000000, 160.000000)">
                        <rect id="Grid-Unit" x="0" y="0" width="20" height="20"></rect>
                        <circle id="Dot" fill="#000000" cx="1.5" cy="1.5" r="1.25"></circle>
                    </g>
                    <g id="Dot-Copy-943" transform="translate(180.000000, 160.000000)">
                        <rect id="Grid-Unit" x="0" y="0" width="20" height="20"></rect>
                        <circle id="Dot" fill="#000000" cx="1.5" cy="1.5" r="1.25"></circle>
                    </g>
                    <g id="Dot-Copy-942" transform="translate(160.000000, 160.000000)">
                        <rect id="Grid-Unit" x="0" y="0" width="20" height="20"></rect>
                        <circle id="Dot" fill="#000000" cx="1.5" cy="1.5" r="1.25"></circle>
                    </g>
                    <g id="Dot-Copy-941" transform="translate(140.000000, 160.000000)">
                        <rect id="Grid-Unit" x="0" y="0" width="20" height="20"></rect>
                        <circle id="Dot" fill="#000000" cx="1.5" cy="1.5" r="1.25"></circle>
                    </g>
                    <g id="Dot-Copy-940" transform="translate(120.000000, 160.000000)">
                        <rect id="Grid-Unit" x="0" y="0" width="20" height="20"></rect>
                        <circle id="Dot" fill="#000000" cx="1.5" cy="1.5" r="1.25"></circle>
                    </g>
                    <g id="Dot-Copy-939" transform="translate(100.000000, 160.000000)">
                        <rect id="Grid-Unit" x="0" y="0" width="20" height="20"></rect>
                        <circle id="Dot" fill="#000000" cx="1.5" cy="1.5" r="1.25"></circle>
                    </g>
                    <g id="Dot-Copy-938" transform="translate(80.000000, 160.000000)">
                        <rect id="Grid-Unit" x="0" y="0" width="20" height="20"></rect>
                        <circle id="Dot" fill="#000000" cx="1.5" cy="1.5" r="1.25"></circle>
                    </g>
                    <g id="Dot-Copy-937" transform="translate(60.000000, 160.000000)">
                        <rect id="Grid-Unit" x="0" y="0" width="20" height="20"></rect>
                        <circle id="Dot" fill="#000000" cx="1.5" cy="1.5" r="1.25"></circle>
                    </g>
                    <g id="Dot-Copy-936" transform="translate(40.000000, 160.000000)">
                        <rect id="Grid-Unit" x="0" y="0" width="20" height="20"></rect>
                        <circle id="Dot" fill="#000000" cx="1.5" cy="1.5" r="1.25"></circle>
                    </g>
                    <g id="Dot-Copy-935" transform="translate(20.000000, 160.000000)">
                        <rect id="Grid-Unit" x="0" y="0" width="20" height="20"></rect>
                        <circle id="Dot" fill="#000000" cx="1.5" cy="1.5" r="1.25"></circle>
                    </g>
                    <g id="Dot-Copy-934" transform="translate(0.000000, 160.000000)">
                        <rect id="Grid-Unit" x="0" y="0" width="20" height="20"></rect>
                        <circle id="Dot" fill="#000000" cx="1.5" cy="1.5" r="1.25"></circle>
                    </g>
                    <g id="Dot-Copy-932" transform="translate(240.000000, 140.000000)">
                        <rect id="Grid-Unit" x="0" y="0" width="20" height="20"></rect>
                        <circle id="Dot" fill="#000000" cx="1.5" cy="1.5" r="1.25"></circle>
                    </g>
                    <g id="Dot-Copy-931" transform="translate(220.000000, 140.000000)">
                        <rect id="Grid-Unit" x="0" y="0" width="20" height="20"></rect>
                        <circle id="Dot" fill="#000000" cx="1.5" cy="1.5" r="1.25"></circle>
                    </g>
                    <g id="Dot-Copy-930" transform="translate(200.000000, 140.000000)">
                        <rect id="Grid-Unit" x="0" y="0" width="20" height="20"></rect>
                        <circle id="Dot" fill="#000000" cx="1.5" cy="1.5" r="1.25"></circle>
                    </g>
                    <g id="Dot-Copy-929" transform="translate(180.000000, 140.000000)">
                        <rect id="Grid-Unit" x="0" y="0" width="20" height="20"></rect>
                        <circle id="Dot" fill="#000000" cx="1.5" cy="1.5" r="1.25"></circle>
                    </g>
                    <g id="Dot-Copy-928" transform="translate(160.000000, 140.000000)">
                        <rect id="Grid-Unit" x="0" y="0" width="20" height="20"></rect>
                        <circle id="Dot" fill="#000000" cx="1.5" cy="1.5" r="1.25"></circle>
                    </g>
                    <g id="Dot-Copy-927" transform="translate(140.000000, 140.000000)">
                        <rect id="Grid-Unit" x="0" y="0" width="20" height="20"></rect>
                        <circle id="Dot" fill="#000000" cx="1.5" cy="1.5" r="1.25"></circle>
                    </g>
                    <g id="Dot-Copy-926" transform="translate(120.000000, 140.000000)">
                        <rect id="Grid-Unit" x="0" y="0" width="20" height="20"></rect>
                        <circle id="Dot" fill="#000000" cx="1.5" cy="1.5" r="1.25"></circle>
                    </g>
                    <g id="Dot-Copy-925" transform="translate(100.000000, 140.000000)">
                        <rect id="Grid-Unit" x="0" y="0" width="20" height="20"></rect>
                        <circle id="Dot" fill="#000000" cx="1.5" cy="1.5" r="1.25"></circle>
                    </g>
                    <g id="Dot-Copy-924" transform="translate(80.000000, 140.000000)">
                        <rect id="Grid-Unit" x="0" y="0" width="20" height="20"></rect>
                        <circle id="Dot" fill="#000000" cx="1.5" cy="1.5" r="1.25"></circle>
                    </g>
                    <g id="Dot-Copy-923" transform="translate(60.000000, 140.000000)">
                        <rect id="Grid-Unit" x="0" y="0" width="20" height="20"></rect>
                        <circle id="Dot" fill="#000000" cx="1.5" cy="1.5" r="1.25"></circle>
                    </g>
                    <g id="Dot-Copy-922" transform="translate(40.000000, 140.000000)">
                        <rect id="Grid-Unit" x="0" y="0" width="20" height="20"></rect>
                        <circle id="Dot" fill="#000000" cx="1.5" cy="1.5" r="1.25"></circle>
                    </g>
                    <g id="Dot-Copy-921" transform="translate(20.000000, 140.000000)">
                        <rect id="Grid-Unit" x="0" y="0" width="20" height="20"></rect>
                        <circle id="Dot" fill="#000000" cx="1.5" cy="1.5" r="1.25"></circle>
                    </g>
                    <g id="Dot-Copy-920" transform="translate(0.000000, 140.000000)">
                        <rect id="Grid-Unit" x="0" y="0" width="20" height="20"></rect>
                        <circle id="Dot" fill="#000000" cx="1.5" cy="1.5" r="1.25"></circle>
                    </g>
                    <g id="Dot-Copy-918" transform="translate(240.000000, 120.000000)">
                        <rect id="Grid-Unit" x="0" y="0" width="20" height="20"></rect>
                        <circle id="Dot" fill="#000000" cx="1.5" cy="1.5" r="1.25"></circle>
                    </g>
                    <g id="Dot-Copy-917" transform="translate(220.000000, 120.000000)">
                        <rect id="Grid-Unit" x="0" y="0" width="20" height="20"></rect>
                        <circle id="Dot" fill="#000000" cx="1.5" cy="1.5" r="1.25"></circle>
                    </g>
                    <g id="Dot-Copy-916" transform="translate(200.000000, 120.000000)">
                        <rect id="Grid-Unit" x="0" y="0" width="20" height="20"></rect>
                        <circle id="Dot" fill="#000000" cx="1.5" cy="1.5" r="1.25"></circle>
                    </g>
                    <g id="Dot-Copy-915" transform="translate(180.000000, 120.000000)">
                        <rect id="Grid-Unit" x="0" y="0" width="20" height="20"></rect>
                        <circle id="Dot" fill="#000000" cx="1.5" cy="1.5" r="1.25"></circle>
                    </g>
                    <g id="Dot-Copy-914" transform="translate(160.000000, 120.000000)">
                        <rect id="Grid-Unit" x="0" y="0" width="20" height="20"></rect>
                        <circle id="Dot" fill="#000000" cx="1.5" cy="1.5" r="1.25"></circle>
                    </g>
                    <g id="Dot-Copy-913" transform="translate(140.000000, 120.000000)">
                        <rect id="Grid-Unit" x="0" y="0" width="20" height="20"></rect>
                        <circle id="Dot" fill="#000000" cx="1.5" cy="1.5" r="1.25"></circle>
                    </g>
                    <g id="Dot-Copy-912" transform="translate(120.000000, 120.000000)">
                        <rect id="Grid-Unit" x="0" y="0" width="20" height="20"></rect>
                        <circle id="Dot" fill="#000000" cx="1.5" cy="1.5" r="1.25"></circle>
                    </g>
                    <g id="Dot-Copy-911" transform="translate(100.000000, 120.000000)">
                        <rect id="Grid-Unit" x="0" y="0" width="20" height="20"></rect>
                        <circle id="Dot" fill="#000000" cx="1.5" cy="1.5" r="1.25"></circle>
                    </g>
                    <g id="Dot-Copy-910" transform="translate(80.000000, 120.000000)">
                        <rect id="Grid-Unit" x="0" y="0" width="20" height="20"></rect>
                        <circle id="Dot" fill="#000000" cx="1.5" cy="1.5" r="1.25"></circle>
                    </g>
                    <g id="Dot-Copy-909" transform="translate(60.000000, 120.000000)">
                        <rect id="Grid-Unit" x="0" y="0" width="20" height="20"></rect>
                        <circle id="Dot" fill="#000000" cx="1.5" cy="1.5" r="1.25"></circle>
                    </g>
                    <g id="Dot-Copy-908" transform="translate(40.000000, 120.000000)">
                        <rect id="Grid-Unit" x="0" y="0" width="20" height="20"></rect>
                        <circle id="Dot" fill="#000000" cx="1.5" cy="1.5" r="1.25"></circle>
                    </g>
                    <g id="Dot-Copy-907" transform="translate(20.000000, 120.000000)">
                        <rect id="Grid-Unit" x="0" y="0" width="20" height="20"></rect>
                        <circle id="Dot" fill="#000000" cx="1.5" cy="1.5" r="1.25"></circle>
                    </g>
                    <g id="Dot-Copy-906" transform="translate(0.000000, 120.000000)">
                        <rect id="Grid-Unit" x="0" y="0" width="20" height="20"></rect>
                        <circle id="Dot" fill="#000000" cx="1.5" cy="1.5" r="1.25"></circle>
                    </g>
                    <g id="Dot-Copy-904" transform="translate(240.000000, 100.000000)">
                        <rect id="Grid-Unit" x="0" y="0" width="20" height="20"></rect>
                        <circle id="Dot" fill="#000000" cx="1.5" cy="1.5" r="1.25"></circle>
                    </g>
                    <g id="Dot-Copy-903" transform="translate(220.000000, 100.000000)">
                        <rect id="Grid-Unit" x="0" y="0" width="20" height="20"></rect>
                        <circle id="Dot" fill="#000000" cx="1.5" cy="1.5" r="1.25"></circle>
                    </g>
                    <g id="Dot-Copy-902" transform="translate(200.000000, 100.000000)">
                        <rect id="Grid-Unit" x="0" y="0" width="20" height="20"></rect>
                        <circle id="Dot" fill="#000000" cx="1.5" cy="1.5" r="1.25"></circle>
                    </g>
                    <g id="Dot-Copy-901" transform="translate(180.000000, 100.000000)">
                        <rect id="Grid-Unit" x="0" y="0" width="20" height="20"></rect>
                        <circle id="Dot" fill="#000000" cx="1.5" cy="1.5" r="1.25"></circle>
                    </g>
                    <g id="Dot-Copy-900" transform="translate(160.000000, 100.000000)">
                        <rect id="Grid-Unit" x="0" y="0" width="20" height="20"></rect>
                        <circle id="Dot" fill="#000000" cx="1.5" cy="1.5" r="1.25"></circle>
                    </g>
                    <g id="Dot-Copy-899" transform="translate(140.000000, 100.000000)">
                        <rect id="Grid-Unit" x="0" y="0" width="20" height="20"></rect>
                        <circle id="Dot" fill="#000000" cx="1.5" cy="1.5" r="1.25"></circle>
                    </g>
                    <g id="Dot-Copy-898" transform="translate(120.000000, 100.000000)">
                        <rect id="Grid-Unit" x="0" y="0" width="20" height="20"></rect>
                        <circle id="Dot" fill="#000000" cx="1.5" cy="1.5" r="1.25"></circle>
                    </g>
                    <g id="Dot-Copy-897" transform="translate(100.000000, 100.000000)">
                        <rect id="Grid-Unit" x="0" y="0" width="20" height="20"></rect>
                        <circle id="Dot" fill="#000000" cx="1.5" cy="1.5" r="1.25"></circle>
                    </g>
                    <g id="Dot-Copy-896" transform="translate(80.000000, 100.000000)">
                        <rect id="Grid-Unit" x="0" y="0" width="20" height="20"></rect>
                        <circle id="Dot" fill="#000000" cx="1.5" cy="1.5" r="1.25"></circle>
                    </g>
                    <g id="Dot-Copy-895" transform="translate(60.000000, 100.000000)">
                        <rect id="Grid-Unit" x="0" y="0" width="20" height="20"></rect>
                        <circle id="Dot" fill="#000000" cx="1.5" cy="1.5" r="1.25"></circle>
                    </g>
                    <g id="Dot-Copy-894" transform="translate(40.000000, 100.000000)">
                        <rect id="Grid-Unit" x="0" y="0" width="20" height="20"></rect>
                        <circle id="Dot" fill="#000000" cx="1.5" cy="1.5" r="1.25"></circle>
                    </g>
                    <g id="Dot-Copy-893" transform="translate(20.000000, 100.000000)">
                        <rect id="Grid-Unit" x="0" y="0" width="20" height="20"></rect>
                        <circle id="Dot" fill="#000000" cx="1.5" cy="1.5" r="1.25"></circle>
                    </g>
                    <g id="Dot-Copy-892" transform="translate(0.000000, 100.000000)">
                        <rect id="Grid-Unit" x="0" y="0" width="20" height="20"></rect>
                        <circle id="Dot" fill="#000000" cx="1.5" cy="1.5" r="1.25"></circle>
                    </g>
                    <g id="Dot-Copy-890" transform="translate(240.000000, 80.000000)">
                        <rect id="Grid-Unit" x="0" y="0" width="20" height="20"></rect>
                        <circle id="Dot" fill="#000000" cx="1.5" cy="1.5" r="1.25"></circle>
                    </g>
                    <g id="Dot-Copy-889" transform="translate(220.000000, 80.000000)">
                        <rect id="Grid-Unit" x="0" y="0" width="20" height="20"></rect>
                        <circle id="Dot" fill="#000000" cx="1.5" cy="1.5" r="1.25"></circle>
                    </g>
                    <g id="Dot-Copy-888" transform="translate(200.000000, 80.000000)">
                        <rect id="Grid-Unit" x="0" y="0" width="20" height="20"></rect>
                        <circle id="Dot" fill="#000000" cx="1.5" cy="1.5" r="1.25"></circle>
                    </g>
                    <g id="Dot-Copy-887" transform="translate(180.000000, 80.000000)">
                        <rect id="Grid-Unit" x="0" y="0" width="20" height="20"></rect>
                        <circle id="Dot" fill="#000000" cx="1.5" cy="1.5" r="1.25"></circle>
                    </g>
                    <g id="Dot-Copy-886" transform="translate(160.000000, 80.000000)">
                        <rect id="Grid-Unit" x="0" y="0" width="20" height="20"></rect>
                        <circle id="Dot" fill="#000000" cx="1.5" cy="1.5" r="1.25"></circle>
                    </g>
                    <g id="Dot-Copy-885" transform="translate(140.000000, 80.000000)">
                        <rect id="Grid-Unit" x="0" y="0" width="20" height="20"></rect>
                        <circle id="Dot" fill="#000000" cx="1.5" cy="1.5" r="1.25"></circle>
                    </g>
                    <g id="Dot-Copy-884" transform="translate(120.000000, 80.000000)">
                        <rect id="Grid-Unit" x="0" y="0" width="20" height="20"></rect>
                        <circle id="Dot" fill="#000000" cx="1.5" cy="1.5" r="1.25"></circle>
                    </g>
                    <g id="Dot-Copy-883" transform="translate(100.000000, 80.000000)">
                        <rect id="Grid-Unit" x="0" y="0" width="20" height="20"></rect>
                        <circle id="Dot" fill="#000000" cx="1.5" cy="1.5" r="1.25"></circle>
                    </g>
                    <g id="Dot-Copy-882" transform="translate(80.000000, 80.000000)">
                        <rect id="Grid-Unit" x="0" y="0" width="20" height="20"></rect>
                        <circle id="Dot" fill="#000000" cx="1.5" cy="1.5" r="1.25"></circle>
                    </g>
                    <g id="Dot-Copy-881" transform="translate(60.000000, 80.000000)">
                        <rect id="Grid-Unit" x="0" y="0" width="20" height="20"></rect>
                        <circle id="Dot" fill="#000000" cx="1.5" cy="1.5" r="1.25"></circle>
                    </g>
                    <g id="Dot-Copy-880" transform="translate(40.000000, 80.000000)">
                        <rect id="Grid-Unit" x="0" y="0" width="20" height="20"></rect>
                        <circle id="Dot" fill="#000000" cx="1.5" cy="1.5" r="1.25"></circle>
                    </g>
                    <g id="Dot-Copy-879" transform="translate(20.000000, 80.000000)">
                        <rect id="Grid-Unit" x="0" y="0" width="20" height="20"></rect>
                        <circle id="Dot" fill="#000000" cx="1.5" cy="1.5" r="1.25"></circle>
                    </g>
                    <g id="Dot-Copy-878" transform="translate(0.000000, 80.000000)">
                        <rect id="Grid-Unit" x="0" y="0" width="20" height="20"></rect>
                        <circle id="Dot" fill="#000000" cx="1.5" cy="1.5" r="1.25"></circle>
                    </g>
                    <g id="Dot-Copy-876" transform="translate(240.000000, 60.000000)">
                        <rect id="Grid-Unit" x="0" y="0" width="20" height="20"></rect>
                        <circle id="Dot" fill="#000000" cx="1.5" cy="1.5" r="1.25"></circle>
                    </g>
                    <g id="Dot-Copy-875" transform="translate(220.000000, 60.000000)">
                        <rect id="Grid-Unit" x="0" y="0" width="20" height="20"></rect>
                        <circle id="Dot" fill="#000000" cx="1.5" cy="1.5" r="1.25"></circle>
                    </g>
                    <g id="Dot-Copy-874" transform="translate(200.000000, 60.000000)">
                        <rect id="Grid-Unit" x="0" y="0" width="20" height="20"></rect>
                        <circle id="Dot" fill="#000000" cx="1.5" cy="1.5" r="1.25"></circle>
                    </g>
                    <g id="Dot-Copy-873" transform="translate(180.000000, 60.000000)">
                        <rect id="Grid-Unit" x="0" y="0" width="20" height="20"></rect>
                        <circle id="Dot" fill="#000000" cx="1.5" cy="1.5" r="1.25"></circle>
                    </g>
                    <g id="Dot-Copy-872" transform="translate(160.000000, 60.000000)">
                        <rect id="Grid-Unit" x="0" y="0" width="20" height="20"></rect>
                        <circle id="Dot" fill="#000000" cx="1.5" cy="1.5" r="1.25"></circle>
                    </g>
                    <g id="Dot-Copy-871" transform="translate(140.000000, 60.000000)">
                        <rect id="Grid-Unit" x="0" y="0" width="20" height="20"></rect>
                        <circle id="Dot" fill="#000000" cx="1.5" cy="1.5" r="1.25"></circle>
                    </g>
                    <g id="Dot-Copy-870" transform="translate(120.000000, 60.000000)">
                        <rect id="Grid-Unit" x="0" y="0" width="20" height="20"></rect>
                        <circle id="Dot" fill="#000000" cx="1.5" cy="1.5" r="1.25"></circle>
                    </g>
                    <g id="Dot-Copy-869" transform="translate(100.000000, 60.000000)">
                        <rect id="Grid-Unit" x="0" y="0" width="20" height="20"></rect>
                        <circle id="Dot" fill="#000000" cx="1.5" cy="1.5" r="1.25"></circle>
                    </g>
                    <g id="Dot-Copy-868" transform="translate(80.000000, 60.000000)">
                        <rect id="Grid-Unit" x="0" y="0" width="20" height="20"></rect>
                        <circle id="Dot" fill="#000000" cx="1.5" cy="1.5" r="1.25"></circle>
                    </g>
                    <g id="Dot-Copy-867" transform="translate(60.000000, 60.000000)">
                        <rect id="Grid-Unit" x="0" y="0" width="20" height="20"></rect>
                        <circle id="Dot" fill="#000000" cx="1.5" cy="1.5" r="1.25"></circle>
                    </g>
                    <g id="Dot-Copy-866" transform="translate(40.000000, 60.000000)">
                        <rect id="Grid-Unit" x="0" y="0" width="20" height="20"></rect>
                        <circle id="Dot" fill="#000000" cx="1.5" cy="1.5" r="1.25"></circle>
                    </g>
                    <g id="Dot-Copy-865" transform="translate(20.000000, 60.000000)">
                        <rect id="Grid-Unit" x="0" y="0" width="20" height="20"></rect>
                        <circle id="Dot" fill="#000000" cx="1.5" cy="1.5" r="1.25"></circle>
                    </g>
                    <g id="Dot-Copy-864" transform="translate(0.000000, 60.000000)">
                        <rect id="Grid-Unit" x="0" y="0" width="20" height="20"></rect>
                        <circle id="Dot" fill="#000000" cx="1.5" cy="1.5" r="1.25"></circle>
                    </g>
                    <g id="Dot-Copy-862" transform="translate(240.000000, 40.000000)">
                        <rect id="Grid-Unit" x="0" y="0" width="20" height="20"></rect>
                        <circle id="Dot" fill="#000000" cx="1.5" cy="1.5" r="1.25"></circle>
                    </g>
                    <g id="Dot-Copy-861" transform="translate(220.000000, 40.000000)">
                        <rect id="Grid-Unit" x="0" y="0" width="20" height="20"></rect>
                        <circle id="Dot" fill="#000000" cx="1.5" cy="1.5" r="1.25"></circle>
                    </g>
                    <g id="Dot-Copy-860" transform="translate(200.000000, 40.000000)">
                        <rect id="Grid-Unit" x="0" y="0" width="20" height="20"></rect>
                        <circle id="Dot" fill="#000000" cx="1.5" cy="1.5" r="1.25"></circle>
                    </g>
                    <g id="Dot-Copy-859" transform="translate(180.000000, 40.000000)">
                        <rect id="Grid-Unit" x="0" y="0" width="20" height="20"></rect>
                        <circle id="Dot" fill="#000000" cx="1.5" cy="1.5" r="1.25"></circle>
                    </g>
                    <g id="Dot-Copy-858" transform="translate(160.000000, 40.000000)">
                        <rect id="Grid-Unit" x="0" y="0" width="20" height="20"></rect>
                        <circle id="Dot" fill="#000000" cx="1.5" cy="1.5" r="1.25"></circle>
                    </g>
                    <g id="Dot-Copy-857" transform="translate(140.000000, 40.000000)">
                        <rect id="Grid-Unit" x="0" y="0" width="20" height="20"></rect>
                        <circle id="Dot" fill="#000000" cx="1.5" cy="1.5" r="1.25"></circle>
                    </g>
                    <g id="Dot-Copy-856" transform="translate(120.000000, 40.000000)">
                        <rect id="Grid-Unit" x="0" y="0" width="20" height="20"></rect>
                        <circle id="Dot" fill="#000000" cx="1.5" cy="1.5" r="1.25"></circle>
                    </g>
                    <g id="Dot-Copy-855" transform="translate(100.000000, 40.000000)">
                        <rect id="Grid-Unit" x="0" y="0" width="20" height="20"></rect>
                        <circle id="Dot" fill="#000000" cx="1.5" cy="1.5" r="1.25"></circle>
                    </g>
                    <g id="Dot-Copy-854" transform="translate(80.000000, 40.000000)">
                        <rect id="Grid-Unit" x="0" y="0" width="20" height="20"></rect>
                        <circle id="Dot" fill="#000000" cx="1.5" cy="1.5" r="1.25"></circle>
                    </g>
                    <g id="Dot-Copy-853" transform="translate(60.000000, 40.000000)">
                        <rect id="Grid-Unit" x="0" y="0" width="20" height="20"></rect>
                        <circle id="Dot" fill="#000000" cx="1.5" cy="1.5" r="1.25"></circle>
                    </g>
                    <g id="Dot-Copy-852" transform="translate(40.000000, 40.000000)">
                        <rect id="Grid-Unit" x="0" y="0" width="20" height="20"></rect>
                        <circle id="Dot" fill="#000000" cx="1.5" cy="1.5" r="1.25"></circle>
                    </g>
                    <g id="Dot-Copy-851" transform="translate(20.000000, 40.000000)">
                        <rect id="Grid-Unit" x="0" y="0" width="20" height="20"></rect>
                        <circle id="Dot" fill="#000000" cx="1.5" cy="1.5" r="1.25"></circle>
                    </g>
                    <g id="Dot-Copy-850" transform="translate(0.000000, 40.000000)">
                        <rect id="Grid-Unit" x="0" y="0" width="20" height="20"></rect>
                        <circle id="Dot" fill="#000000" cx="1.5" cy="1.5" r="1.25"></circle>
                    </g>
                    <g id="Dot-Copy-848" transform="translate(240.000000, 20.000000)">
                        <rect id="Grid-Unit" x="0" y="0" width="20" height="20"></rect>
                        <circle id="Dot" fill="#000000" cx="1.5" cy="1.5" r="1.25"></circle>
                    </g>
                    <g id="Dot-Copy-847" transform="translate(220.000000, 20.000000)">
                        <rect id="Grid-Unit" x="0" y="0" width="20" height="20"></rect>
                        <circle id="Dot" fill="#000000" cx="1.5" cy="1.5" r="1.25"></circle>
                    </g>
                    <g id="Dot-Copy-846" transform="translate(200.000000, 20.000000)">
                        <rect id="Grid-Unit" x="0" y="0" width="20" height="20"></rect>
                        <circle id="Dot" fill="#000000" cx="1.5" cy="1.5" r="1.25"></circle>
                    </g>
                    <g id="Dot-Copy-845" transform="translate(180.000000, 20.000000)">
                        <rect id="Grid-Unit" x="0" y="0" width="20" height="20"></rect>
                        <circle id="Dot" fill="#000000" cx="1.5" cy="1.5" r="1.25"></circle>
                    </g>
                    <g id="Dot-Copy-844" transform="translate(160.000000, 20.000000)">
                        <rect id="Grid-Unit" x="0" y="0" width="20" height="20"></rect>
                        <circle id="Dot" fill="#000000" cx="1.5" cy="1.5" r="1.25"></circle>
                    </g>
                    <g id="Dot-Copy-843" transform="translate(140.000000, 20.000000)">
                        <rect id="Grid-Unit" x="0" y="0" width="20" height="20"></rect>
                        <circle id="Dot" fill="#000000" cx="1.5" cy="1.5" r="1.25"></circle>
                    </g>
                    <g id="Dot-Copy-842" transform="translate(120.000000, 20.000000)">
                        <rect id="Grid-Unit" x="0" y="0" width="20" height="20"></rect>
                        <circle id="Dot" fill="#000000" cx="1.5" cy="1.5" r="1.25"></circle>
                    </g>
                    <g id="Dot-Copy-841" transform="translate(100.000000, 20.000000)">
                        <rect id="Grid-Unit" x="0" y="0" width="20" height="20"></rect>
                        <circle id="Dot" fill="#000000" cx="1.5" cy="1.5" r="1.25"></circle>
                    </g>
                    <g id="Dot-Copy-840" transform="translate(80.000000, 20.000000)">
                        <rect id="Grid-Unit" x="0" y="0" width="20" height="20"></rect>
                        <circle id="Dot" fill="#000000" cx="1.5" cy="1.5" r="1.25"></circle>
                    </g>
                    <g id="Dot-Copy-839" transform="translate(60.000000, 20.000000)">
                        <rect id="Grid-Unit" x="0" y="0" width="20" height="20"></rect>
                        <circle id="Dot" fill="#000000" cx="1.5" cy="1.5" r="1.25"></circle>
                    </g>
                    <g id="Dot-Copy-838" transform="translate(40.000000, 20.000000)">
                        <rect id="Grid-Unit" x="0" y="0" width="20" height="20"></rect>
                        <circle id="Dot" fill="#000000" cx="1.5" cy="1.5" r="1.25"></circle>
                    </g>
                    <g id="Dot-Copy-837" transform="translate(20.000000, 20.000000)">
                        <rect id="Grid-Unit" x="0" y="0" width="20" height="20"></rect>
                        <circle id="Dot" fill="#000000" cx="1.5" cy="1.5" r="1.25"></circle>
                    </g>
                    <g id="Dot-Copy-836" transform="translate(0.000000, 20.000000)">
                        <rect id="Grid-Unit" x="0" y="0" width="20" height="20"></rect>
                        <circle id="Dot" fill="#000000" cx="1.5" cy="1.5" r="1.25"></circle>
                    </g>
                    <g id="Dot-Copy-834" transform="translate(240.000000, 0.000000)">
                        <rect id="Grid-Unit" x="0" y="0" width="20" height="20"></rect>
                        <circle id="Dot" fill="#000000" cx="1.5" cy="1.5" r="1.25"></circle>
                    </g>
                    <g id="Dot-Copy-833" transform="translate(220.000000, 0.000000)">
                        <rect id="Grid-Unit" x="0" y="0" width="20" height="20"></rect>
                        <circle id="Dot" fill="#000000" cx="1.5" cy="1.5" r="1.25"></circle>
                    </g>
                    <g id="Dot-Copy-832" transform="translate(200.000000, 0.000000)">
                        <rect id="Grid-Unit" x="0" y="0" width="20" height="20"></rect>
                        <circle id="Dot" fill="#000000" cx="1.5" cy="1.5" r="1.25"></circle>
                    </g>
                    <g id="Dot-Copy-831" transform="translate(180.000000, 0.000000)">
                        <rect id="Grid-Unit" x="0" y="0" width="20" height="20"></rect>
                        <circle id="Dot" fill="#000000" cx="1.5" cy="1.5" r="1.25"></circle>
                    </g>
                    <g id="Dot-Copy-830" transform="translate(160.000000, 0.000000)">
                        <rect id="Grid-Unit" x="0" y="0" width="20" height="20"></rect>
                        <circle id="Dot" fill="#000000" cx="1.5" cy="1.5" r="1.25"></circle>
                    </g>
                    <g id="Dot-Copy-829" transform="translate(140.000000, 0.000000)">
                        <rect id="Grid-Unit" x="0" y="0" width="20" height="20"></rect>
                        <circle id="Dot" fill="#000000" cx="1.5" cy="1.5" r="1.25"></circle>
                    </g>
                    <g id="Dot-Copy-828" transform="translate(120.000000, 0.000000)">
                        <rect id="Grid-Unit" x="0" y="0" width="20" height="20"></rect>
                        <circle id="Dot" fill="#000000" cx="1.5" cy="1.5" r="1.25"></circle>
                    </g>
                    <g id="Dot-Copy-827" transform="translate(100.000000, 0.000000)">
                        <rect id="Grid-Unit" x="0" y="0" width="20" height="20"></rect>
                        <circle id="Dot" fill="#000000" cx="1.5" cy="1.5" r="1.25"></circle>
                    </g>
                    <g id="Dot-Copy-826" transform="translate(80.000000, 0.000000)">
                        <rect id="Grid-Unit" x="0" y="0" width="20" height="20"></rect>
                        <circle id="Dot" fill="#000000" cx="1.5" cy="1.5" r="1.25"></circle>
                    </g>
                    <g id="Dot-Copy-825" transform="translate(60.000000, 0.000000)">
                        <rect id="Grid-Unit" x="0" y="0" width="20" height="20"></rect>
                        <circle id="Dot" fill="#000000" cx="1.5" cy="1.5" r="1.25"></circle>
                    </g>
                    <g id="Dot-Copy-824" transform="translate(40.000000, 0.000000)">
                        <rect id="Grid-Unit" x="0" y="0" width="20" height="20"></rect>
                        <circle id="Dot" fill="#000000" cx="1.5" cy="1.5" r="1.25"></circle>
                    </g>
                    <g id="Dot-Copy-823" transform="translate(20.000000, 0.000000)">
                        <rect id="Grid-Unit" x="0" y="0" width="20" height="20"></rect>
                        <circle id="Dot" fill="#000000" cx="1.5" cy="1.5" r="1.25"></circle>
                    </g>
                    <g id="Dot-Copy-822">
                        <rect id="Grid-Unit" x="0" y="0" width="20" height="20"></rect>
                        <circle id="Dot" fill="#000000" cx="1.5" cy="1.5" r="1.25"></circle>
                    </g>
                </g>
                <g id="interactive-copy-2" transform="translate(2.000000, 15.000000)">
                    <rect id="Rectangle-843" fill="#FFFFFF" x="73.7243675" y="0" width="160.275632" height="62"></rect>
                    <path d="M83.9003462,5.464 L83.9003462,22 L86.4443462,22 L86.4443462,5.464 L83.9003462,5.464 Z M92.8043462,22 L92.8043462,15.976 C92.8043462,13.768 94.2203462,12.976 95.6843462,12.976 C97.1243462,12.976 98.0363462,13.984 98.0363462,15.76 L98.0363462,22 L100.508346,22 L100.508346,15.472 C100.508346,12.304 98.9483462,10.552 96.2363462,10.552 C94.9883462,10.552 93.4523462,11.176 92.8043462,12.472 L92.8043462,10.792 L90.3323462,10.792 L90.3323462,22 L92.8043462,22 Z M107.204346,10.792 L107.204346,6.544 L104.732346,6.544 L104.732346,10.792 L102.716346,10.792 L102.716346,12.832 L104.732346,12.832 L104.732346,22 L107.204346,22 L107.204346,12.832 L109.580346,12.832 L109.580346,10.792 L107.204346,10.792 Z M122.564346,16.36 C122.564346,12.808 120.140346,10.552 116.948346,10.552 C113.756346,10.552 111.188346,12.808 111.188346,16.36 C111.188346,19.912 113.756346,22.24 116.948346,22.24 C119.060346,22.24 121.148346,21.328 122.132346,19.36 C121.484346,19.072 120.740346,18.76 120.116346,18.472 C119.540346,19.504 118.316346,20.08 117.068346,20.08 C115.268346,20.08 113.876346,19 113.636346,17.272 L122.540346,17.272 C122.564346,17.032 122.564346,16.624 122.564346,16.36 L122.564346,16.36 Z M120.140346,15.472 L113.636346,15.472 C113.876346,13.744 115.220346,12.712 116.948346,12.712 C118.628346,12.712 119.900346,13.72 120.140346,15.472 L120.140346,15.472 Z M127.652346,17.968 C127.652346,14.992 128.540346,12.88 130.652346,12.88 C131.132346,12.88 131.684346,12.952 132.308346,13.264 L132.716346,10.984 C132.356346,10.744 131.516346,10.552 130.724346,10.552 C129.332346,10.552 128.228346,11.368 127.652346,13.36 L127.652346,10.792 L125.180346,10.792 L125.180346,22 L127.652346,22 L127.652346,17.968 Z M134.444346,12.808 L135.860346,14.32 C136.580346,13.36 137.876346,12.784 139.028346,12.784 C140.828346,12.784 141.860346,13.84 141.860346,15.304 L141.860346,15.808 C140.780346,15.304 139.748346,15.088 138.788346,15.088 C135.260346,15.088 133.964346,16.744 133.964346,18.688 C133.964346,20.92 135.668346,22.24 138.236346,22.24 C139.508346,22.24 140.972346,21.904 141.860346,20.776 L141.860346,22 L144.308346,22 L144.308346,15.304 C144.308346,12.184 142.388346,10.552 139.196346,10.552 C137.732346,10.552 135.716346,11.008 134.444346,12.808 L134.444346,12.808 Z M138.332346,19.984 C136.988346,19.984 136.388346,19.408 136.388346,18.688 C136.388346,18.064 136.772346,17.032 138.836346,17.032 C139.460346,17.032 140.660346,17.2 141.836346,17.68 L141.836346,18.52 C141.116346,19.696 139.292346,19.984 138.332346,19.984 L138.332346,19.984 Z M146.924346,16.36 C146.924346,19.912 149.684346,22.24 152.900346,22.24 C154.700346,22.24 156.308346,21.52 157.364346,20.272 L155.420346,18.76 C154.820346,19.456 153.884346,19.864 152.900346,19.864 C151.028346,19.864 149.372346,18.448 149.372346,16.36 C149.372346,14.272 151.028346,12.952 152.900346,12.952 C153.884346,12.952 154.820346,13.336 155.420346,14.032 L157.340346,12.496 C156.284346,11.248 154.676346,10.552 152.900346,10.552 C149.684346,10.552 146.924346,12.808 146.924346,16.36 L146.924346,16.36 Z M163.340346,10.792 L163.340346,6.544 L160.868346,6.544 L160.868346,10.792 L158.852346,10.792 L158.852346,12.832 L160.868346,12.832 L160.868346,22 L163.340346,22 L163.340346,12.832 L165.716346,12.832 L165.716346,10.792 L163.340346,10.792 Z M167.612346,6.256 C167.612346,5.368 168.380346,4.696 169.268346,4.696 C170.180346,4.696 170.900346,5.368 170.900346,6.256 C170.900346,7.144 170.180346,7.816 169.268346,7.816 C168.380346,7.816 167.612346,7.144 167.612346,6.256 L167.612346,6.256 Z M170.492346,10.792 L170.492346,22 L168.044346,22 L168.044346,10.792 L170.492346,10.792 Z M172.532346,10.792 L177.212346,22 L179.492346,22 L184.172346,10.792 L181.532346,10.792 L178.364346,18.856 L175.148346,10.792 L172.532346,10.792 Z M196.868346,16.36 C196.868346,12.808 194.444346,10.552 191.252346,10.552 C188.060346,10.552 185.492346,12.808 185.492346,16.36 C185.492346,19.912 188.060346,22.24 191.252346,22.24 C193.364346,22.24 195.452346,21.328 196.436346,19.36 C195.788346,19.072 195.044346,18.76 194.420346,18.472 C193.844346,19.504 192.620346,20.08 191.372346,20.08 C189.572346,20.08 188.180346,19 187.940346,17.272 L196.844346,17.272 C196.868346,17.032 196.868346,16.624 196.868346,16.36 L196.868346,16.36 Z M194.444346,15.472 L187.940346,15.472 C188.180346,13.744 189.524346,12.712 191.252346,12.712 C192.932346,12.712 194.204346,13.72 194.444346,15.472 L194.444346,15.472 Z M210.596346,22.24 C212.204346,22.24 213.884346,21.592 214.676346,20.392 C215.276346,21.64 216.692346,22.24 218.684346,22.24 L218.684346,20.008 C216.596346,20.008 216.236346,18.832 216.236346,17.008 L216.236346,13.936 L218.300346,13.936 L218.300346,11.944 L216.236346,11.944 L216.236346,9.856 L213.932346,9.856 L213.932346,11.944 L210.812346,11.944 C209.396346,11.944 208.748346,10.552 208.748346,9.664 C208.748346,8.608 209.564346,7.72 210.836346,7.72 C211.676346,7.72 212.372346,8.2 212.828346,8.896 L214.868346,7.648 C213.980346,6.256 212.468346,5.32 210.692346,5.344 C208.172346,5.392 206.252346,7.288 206.252346,9.592 C206.252346,10.888 206.804346,12.112 207.668346,12.76 C206.084346,13.624 205.148346,15.208 205.148346,17.08 C205.148346,20.008 207.404346,22.24 210.596346,22.24 L210.596346,22.24 Z M210.740346,13.936 L213.932346,13.936 L213.932346,15.976 C213.932346,18.28 212.924346,19.864 210.740346,19.864 C208.892346,19.864 207.692346,18.664 207.620346,17.008 C207.596346,15.568 208.724346,13.936 210.740346,13.936 L210.740346,13.936 Z M98.4683462,32.464 L92.8523462,44.248 L87.2363462,32.464 L84.9803462,32.464 L82.9643462,49 L85.5083462,49 L86.9243462,37.192 L91.7963462,47.152 L93.9563462,47.152 L98.8043462,37.192 L100.220346,49 L102.764346,49 L100.748346,32.464 L98.4683462,32.464 Z M110.828346,49.24 C114.020346,49.24 116.708346,46.912 116.708346,43.36 C116.708346,39.808 114.020346,37.552 110.828346,37.552 C107.660346,37.552 104.996346,39.808 104.996346,43.36 C104.996346,46.912 107.660346,49.24 110.828346,49.24 L110.828346,49.24 Z M110.828346,46.84 C108.980346,46.84 107.444346,45.472 107.444346,43.36 C107.444346,41.296 108.980346,39.976 110.828346,39.976 C112.700346,39.976 114.236346,41.296 114.236346,43.36 C114.236346,45.472 112.700346,46.84 110.828346,46.84 L110.828346,46.84 Z M122.804346,37.792 L122.804346,33.544 L120.332346,33.544 L120.332346,37.792 L118.316346,37.792 L118.316346,39.832 L120.332346,39.832 L120.332346,49 L122.804346,49 L122.804346,39.832 L125.180346,39.832 L125.180346,37.792 L122.804346,37.792 Z M127.076346,33.256 C127.076346,32.368 127.844346,31.696 128.732346,31.696 C129.644346,31.696 130.364346,32.368 130.364346,33.256 C130.364346,34.144 129.644346,34.816 128.732346,34.816 C127.844346,34.816 127.076346,34.144 127.076346,33.256 L127.076346,33.256 Z M129.956346,37.792 L129.956346,49 L127.508346,49 L127.508346,37.792 L129.956346,37.792 Z M138.524346,49.24 C141.716346,49.24 144.404346,46.912 144.404346,43.36 C144.404346,39.808 141.716346,37.552 138.524346,37.552 C135.356346,37.552 132.692346,39.808 132.692346,43.36 C132.692346,46.912 135.356346,49.24 138.524346,49.24 L138.524346,49.24 Z M138.524346,46.84 C136.676346,46.84 135.140346,45.472 135.140346,43.36 C135.140346,41.296 136.676346,39.976 138.524346,39.976 C140.396346,39.976 141.932346,41.296 141.932346,43.36 C141.932346,45.472 140.396346,46.84 138.524346,46.84 L138.524346,46.84 Z M149.612346,49 L149.612346,42.976 C149.612346,40.768 151.028346,39.976 152.492346,39.976 C153.932346,39.976 154.844346,40.984 154.844346,42.76 L154.844346,49 L157.316346,49 L157.316346,42.472 C157.316346,39.304 155.756346,37.552 153.044346,37.552 C151.796346,37.552 150.260346,38.176 149.612346,39.472 L149.612346,37.792 L147.140346,37.792 L147.140346,49 L149.612346,49 Z" id="Interactive-&amp;" fill="#182226"></path>
                    <path d="M120.106525,47 L120.106525,126.999996 L40,127 L120.106525,47 Z" id="Shape-Copy-25" fill="#7CBDDF" style="mix-blend-mode: darken;" transform="translate(80.053262, 87.000000) scale(-1, 1) translate(-80.053262, -87.000000) "></path>
                    <path d="M0,7 L60.0798935,7 L60.0798935,147 L0,146.999997 L0,7 Z" id="Rectangle-path-Copy-22" fill="#FCD315" style="mix-blend-mode: darken;"></path>
                    <path d="M150.013316,87 C144.483184,87 140,91.4772222 140,97 C140,102.522778 144.483184,107 150.013316,107 C155.543447,107 160.026631,102.522778 160.026631,97 C160.026631,91.4772222 155.543447,87 150.013316,87 Z" id="Fill-14" fill="#EE4A62" style="mix-blend-mode: darken;"></path>
                    <path d="M230.013316,107 C224.483184,107 220,111.477222 220,117 C220,122.522778 224.483184,127 230.013316,127 C235.543447,127 240.026631,122.522778 240.026631,117 C240.026631,111.477222 235.543447,107 230.013316,107 Z" id="Fill-14" fill="#EE4A62" style="mix-blend-mode: darken;"></path>
                </g>
            </g>
        </g>
    </g>
</svg>