<?xml version="1.0" encoding="UTF-8" standalone="no"?>
<svg width="875px" height="400px" viewBox="0 0 875 400" version="1.1" xmlns="http://www.w3.org/2000/svg" xmlns:xlink="http://www.w3.org/1999/xlink">
    <!-- Generator: Sketch 3.6.1 (26313) - http://www.bohemiancoding.com/sketch -->
    <title>interactive-tablet</title>
    <desc>Created with Sketch.</desc>
    <defs></defs>
    <g id="All-Screens" stroke="none" stroke-width="1" fill="none" fill-rule="evenodd">
        <g id="Work-Index/Work-Index-Masonry/Information-Copy-2" transform="translate(-93.000000, -1470.000000)">
            <g id="interactive-tablet" transform="translate(95.000000, 1472.000000)">
                <g id="Background-(Grid)" stroke-width="3" stroke="#000000" fill="#000000">
                    <g id="Block">
                        <ellipse id="Oval" cx="181.993286" cy="182.085758" rx="0.921151847" ry="0.92161989"></ellipse>
                        <ellipse id="Oval" cx="181.993286" cy="145.879263" rx="0.921151847" ry="0.92161989"></ellipse>
                        <ellipse id="Oval" cx="181.993286" cy="109.672767" rx="0.921151847" ry="0.92161989"></ellipse>
                        <ellipse id="Oval" cx="181.993286" cy="73.4662713" rx="0.921151847" ry="0.92161989"></ellipse>
                        <ellipse id="Oval" cx="181.993286" cy="37.2597756" rx="0.921151847" ry="0.92161989"></ellipse>
                        <ellipse id="Oval" cx="181.993286" cy="0.92161989" rx="0.921151847" ry="0.92161989"></ellipse>
                        <ellipse id="Oval" cx="145.673585" cy="182.085758" rx="0.921151847" ry="0.92161989"></ellipse>
                        <ellipse id="Oval" cx="145.673585" cy="145.879263" rx="0.921151847" ry="0.92161989"></ellipse>
                        <ellipse id="Oval" cx="145.673585" cy="109.672767" rx="0.921151847" ry="0.92161989"></ellipse>
                        <ellipse id="Oval" cx="145.673585" cy="73.4662713" rx="0.921151847" ry="0.92161989"></ellipse>
                        <ellipse id="Oval" cx="145.673585" cy="37.2597756" rx="0.921151847" ry="0.92161989"></ellipse>
                        <ellipse id="Oval" cx="145.673585" cy="0.92161989" rx="0.921151847" ry="0.92161989"></ellipse>
                        <ellipse id="Oval" cx="109.485477" cy="182.085758" rx="0.921151847" ry="0.92161989"></ellipse>
                        <ellipse id="Oval" cx="109.485477" cy="145.879263" rx="0.921151847" ry="0.92161989"></ellipse>
                        <ellipse id="Oval" cx="109.485477" cy="109.672767" rx="0.921151847" ry="0.92161989"></ellipse>
                        <ellipse id="Oval" cx="109.485477" cy="73.4662713" rx="0.921151847" ry="0.92161989"></ellipse>
                        <ellipse id="Oval" cx="109.485477" cy="37.2597756" rx="0.921151847" ry="0.92161989"></ellipse>
                        <ellipse id="Oval" cx="109.485477" cy="0.92161989" rx="0.921151847" ry="0.92161989"></ellipse>
                        <ellipse id="Oval" cx="73.2973684" cy="182.085758" rx="0.921151847" ry="0.92161989"></ellipse>
                        <ellipse id="Oval" cx="73.2973684" cy="145.879263" rx="0.921151847" ry="0.92161989"></ellipse>
                        <ellipse id="Oval" cx="73.2973684" cy="109.672767" rx="0.921151847" ry="0.92161989"></ellipse>
                        <ellipse id="Oval" cx="73.2973684" cy="73.4662713" rx="0.921151847" ry="0.92161989"></ellipse>
                        <ellipse id="Oval" cx="73.2973684" cy="37.2597756" rx="0.921151847" ry="0.92161989"></ellipse>
                        <ellipse id="Oval" cx="73.2973684" cy="0.92161989" rx="0.921151847" ry="0.92161989"></ellipse>
                        <ellipse id="Oval" cx="37.1092601" cy="182.085758" rx="0.921151847" ry="0.92161989"></ellipse>
                        <ellipse id="Oval" cx="37.1092601" cy="145.879263" rx="0.921151847" ry="0.92161989"></ellipse>
                        <ellipse id="Oval" cx="37.1092601" cy="109.672767" rx="0.921151847" ry="0.92161989"></ellipse>
                        <ellipse id="Oval" cx="37.1092601" cy="73.4662713" rx="0.921151847" ry="0.92161989"></ellipse>
                        <ellipse id="Oval" cx="37.1092601" cy="37.2597756" rx="0.921151847" ry="0.92161989"></ellipse>
                        <ellipse id="Oval" cx="37.1092601" cy="0.92161989" rx="0.921151847" ry="0.92161989"></ellipse>
                        <ellipse id="Oval" cx="0.921151847" cy="182.085758" rx="0.921151847" ry="0.92161989"></ellipse>
                        <ellipse id="Oval" cx="0.921151847" cy="145.879263" rx="0.921151847" ry="0.92161989"></ellipse>
                        <ellipse id="Oval" cx="0.921151847" cy="109.672767" rx="0.921151847" ry="0.92161989"></ellipse>
                        <ellipse id="Oval" cx="0.921151847" cy="73.4662713" rx="0.921151847" ry="0.92161989"></ellipse>
                        <ellipse id="Oval" cx="0.921151847" cy="37.2597756" rx="0.921151847" ry="0.92161989"></ellipse>
                        <ellipse id="Oval" cx="0.921151847" cy="0.92161989" rx="0.921151847" ry="0.92161989"></ellipse>
                        <ellipse id="Oval" cx="401.554838" cy="182.085758" rx="0.921151847" ry="0.92161989"></ellipse>
                        <ellipse id="Oval" cx="401.554838" cy="145.879263" rx="0.921151847" ry="0.92161989"></ellipse>
                        <ellipse id="Oval" cx="401.554838" cy="109.672767" rx="0.921151847" ry="0.92161989"></ellipse>
                        <ellipse id="Oval" cx="401.554838" cy="73.4662713" rx="0.921151847" ry="0.92161989"></ellipse>
                        <ellipse id="Oval" cx="401.554838" cy="37.2597756" rx="0.921151847" ry="0.92161989"></ellipse>
                        <ellipse id="Oval" cx="401.554838" cy="0.92161989" rx="0.921151847" ry="0.92161989"></ellipse>
                        <ellipse id="Oval" cx="365.235136" cy="182.085758" rx="0.921151847" ry="0.92161989"></ellipse>
                        <ellipse id="Oval" cx="365.235136" cy="145.879263" rx="0.921151847" ry="0.92161989"></ellipse>
                        <ellipse id="Oval" cx="365.235136" cy="109.672767" rx="0.921151847" ry="0.92161989"></ellipse>
                        <ellipse id="Oval" cx="365.235136" cy="73.4662713" rx="0.921151847" ry="0.92161989"></ellipse>
                        <ellipse id="Oval" cx="365.235136" cy="37.2597756" rx="0.921151847" ry="0.92161989"></ellipse>
                        <ellipse id="Oval" cx="365.235136" cy="0.92161989" rx="0.921151847" ry="0.92161989"></ellipse>
                        <ellipse id="Oval" cx="329.047028" cy="182.085758" rx="0.921151847" ry="0.92161989"></ellipse>
                        <ellipse id="Oval" cx="329.047028" cy="145.879263" rx="0.921151847" ry="0.92161989"></ellipse>
                        <ellipse id="Oval" cx="329.047028" cy="109.672767" rx="0.921151847" ry="0.92161989"></ellipse>
                        <ellipse id="Oval" cx="329.047028" cy="73.4662713" rx="0.921151847" ry="0.92161989"></ellipse>
                        <ellipse id="Oval" cx="329.047028" cy="37.2597756" rx="0.921151847" ry="0.92161989"></ellipse>
                        <ellipse id="Oval" cx="329.047028" cy="0.92161989" rx="0.921151847" ry="0.92161989"></ellipse>
                        <ellipse id="Oval" cx="292.85892" cy="182.085758" rx="0.921151847" ry="0.92161989"></ellipse>
                        <ellipse id="Oval" cx="292.85892" cy="145.879263" rx="0.921151847" ry="0.92161989"></ellipse>
                        <ellipse id="Oval" cx="292.85892" cy="109.672767" rx="0.921151847" ry="0.92161989"></ellipse>
                        <ellipse id="Oval" cx="292.85892" cy="73.4662713" rx="0.921151847" ry="0.92161989"></ellipse>
                        <ellipse id="Oval" cx="292.85892" cy="37.2597756" rx="0.921151847" ry="0.92161989"></ellipse>
                        <ellipse id="Oval" cx="292.85892" cy="0.92161989" rx="0.921151847" ry="0.92161989"></ellipse>
                        <ellipse id="Oval" cx="256.670812" cy="182.085758" rx="0.921151847" ry="0.92161989"></ellipse>
                        <ellipse id="Oval" cx="256.670812" cy="145.879263" rx="0.921151847" ry="0.92161989"></ellipse>
                        <ellipse id="Oval" cx="256.670812" cy="109.672767" rx="0.921151847" ry="0.92161989"></ellipse>
                        <ellipse id="Oval" cx="256.670812" cy="73.4662713" rx="0.921151847" ry="0.92161989"></ellipse>
                        <ellipse id="Oval" cx="256.670812" cy="37.2597756" rx="0.921151847" ry="0.92161989"></ellipse>
                        <ellipse id="Oval" cx="256.670812" cy="0.92161989" rx="0.921151847" ry="0.92161989"></ellipse>
                        <ellipse id="Oval" cx="220.482703" cy="182.085758" rx="0.921151847" ry="0.92161989"></ellipse>
                        <ellipse id="Oval" cx="220.482703" cy="145.879263" rx="0.921151847" ry="0.92161989"></ellipse>
                        <ellipse id="Oval" cx="220.482703" cy="109.672767" rx="0.921151847" ry="0.92161989"></ellipse>
                        <ellipse id="Oval" cx="220.482703" cy="73.4662713" rx="0.921151847" ry="0.92161989"></ellipse>
                        <ellipse id="Oval" cx="220.482703" cy="37.2597756" rx="0.921151847" ry="0.92161989"></ellipse>
                        <ellipse id="Oval" cx="220.482703" cy="0.92161989" rx="0.921151847" ry="0.92161989"></ellipse>
                    </g>
                    <g id="Block" transform="translate(0.000000, 213.490725)">
                        <ellipse id="Oval" cx="181.993286" cy="182.085758" rx="0.921151847" ry="0.92161989"></ellipse>
                        <ellipse id="Oval" cx="181.993286" cy="145.879263" rx="0.921151847" ry="0.92161989"></ellipse>
                        <ellipse id="Oval" cx="181.993286" cy="109.672767" rx="0.921151847" ry="0.92161989"></ellipse>
                        <ellipse id="Oval" cx="181.993286" cy="73.4662713" rx="0.921151847" ry="0.92161989"></ellipse>
                        <ellipse id="Oval" cx="181.993286" cy="37.2597756" rx="0.921151847" ry="0.92161989"></ellipse>
                        <ellipse id="Oval" cx="181.993286" cy="0.92161989" rx="0.921151847" ry="0.92161989"></ellipse>
                        <ellipse id="Oval" cx="145.673585" cy="182.085758" rx="0.921151847" ry="0.92161989"></ellipse>
                        <ellipse id="Oval" cx="145.673585" cy="145.879263" rx="0.921151847" ry="0.92161989"></ellipse>
                        <ellipse id="Oval" cx="145.673585" cy="109.672767" rx="0.921151847" ry="0.92161989"></ellipse>
                        <ellipse id="Oval" cx="145.673585" cy="73.4662713" rx="0.921151847" ry="0.92161989"></ellipse>
                        <ellipse id="Oval" cx="145.673585" cy="37.2597756" rx="0.921151847" ry="0.92161989"></ellipse>
                        <ellipse id="Oval" cx="145.673585" cy="0.92161989" rx="0.921151847" ry="0.92161989"></ellipse>
                        <ellipse id="Oval" cx="109.485477" cy="182.085758" rx="0.921151847" ry="0.92161989"></ellipse>
                        <ellipse id="Oval" cx="109.485477" cy="145.879263" rx="0.921151847" ry="0.92161989"></ellipse>
                        <ellipse id="Oval" cx="109.485477" cy="109.672767" rx="0.921151847" ry="0.92161989"></ellipse>
                        <ellipse id="Oval" cx="109.485477" cy="73.4662713" rx="0.921151847" ry="0.92161989"></ellipse>
                        <ellipse id="Oval" cx="109.485477" cy="37.2597756" rx="0.921151847" ry="0.92161989"></ellipse>
                        <ellipse id="Oval" cx="109.485477" cy="0.92161989" rx="0.921151847" ry="0.92161989"></ellipse>
                        <ellipse id="Oval" cx="73.2973684" cy="182.085758" rx="0.921151847" ry="0.92161989"></ellipse>
                        <ellipse id="Oval" cx="73.2973684" cy="145.879263" rx="0.921151847" ry="0.92161989"></ellipse>
                        <ellipse id="Oval" cx="73.2973684" cy="109.672767" rx="0.921151847" ry="0.92161989"></ellipse>
                        <ellipse id="Oval" cx="73.2973684" cy="73.4662713" rx="0.921151847" ry="0.92161989"></ellipse>
                        <ellipse id="Oval" cx="73.2973684" cy="37.2597756" rx="0.921151847" ry="0.92161989"></ellipse>
                        <ellipse id="Oval" cx="73.2973684" cy="0.92161989" rx="0.921151847" ry="0.92161989"></ellipse>
                        <ellipse id="Oval" cx="37.1092601" cy="182.085758" rx="0.921151847" ry="0.92161989"></ellipse>
                        <ellipse id="Oval" cx="37.1092601" cy="145.879263" rx="0.921151847" ry="0.92161989"></ellipse>
                        <ellipse id="Oval" cx="37.1092601" cy="109.672767" rx="0.921151847" ry="0.92161989"></ellipse>
                        <ellipse id="Oval" cx="37.1092601" cy="73.4662713" rx="0.921151847" ry="0.92161989"></ellipse>
                        <ellipse id="Oval" cx="37.1092601" cy="37.2597756" rx="0.921151847" ry="0.92161989"></ellipse>
                        <ellipse id="Oval" cx="37.1092601" cy="0.92161989" rx="0.921151847" ry="0.92161989"></ellipse>
                        <ellipse id="Oval" cx="0.921151847" cy="182.085758" rx="0.921151847" ry="0.92161989"></ellipse>
                        <ellipse id="Oval" cx="0.921151847" cy="145.879263" rx="0.921151847" ry="0.92161989"></ellipse>
                        <ellipse id="Oval" cx="0.921151847" cy="109.672767" rx="0.921151847" ry="0.92161989"></ellipse>
                        <ellipse id="Oval" cx="0.921151847" cy="73.4662713" rx="0.921151847" ry="0.92161989"></ellipse>
                        <ellipse id="Oval" cx="0.921151847" cy="37.2597756" rx="0.921151847" ry="0.92161989"></ellipse>
                        <ellipse id="Oval" cx="0.921151847" cy="0.92161989" rx="0.921151847" ry="0.92161989"></ellipse>
                        <ellipse id="Oval" cx="401.554838" cy="182.085758" rx="0.921151847" ry="0.92161989"></ellipse>
                        <ellipse id="Oval" cx="401.554838" cy="145.879263" rx="0.921151847" ry="0.92161989"></ellipse>
                        <ellipse id="Oval" cx="401.554838" cy="109.672767" rx="0.921151847" ry="0.92161989"></ellipse>
                        <ellipse id="Oval" cx="401.554838" cy="73.4662713" rx="0.921151847" ry="0.92161989"></ellipse>
                        <ellipse id="Oval" cx="401.554838" cy="37.2597756" rx="0.921151847" ry="0.92161989"></ellipse>
                        <ellipse id="Oval" cx="401.554838" cy="0.92161989" rx="0.921151847" ry="0.92161989"></ellipse>
                        <ellipse id="Oval" cx="365.235136" cy="182.085758" rx="0.921151847" ry="0.92161989"></ellipse>
                        <ellipse id="Oval" cx="365.235136" cy="145.879263" rx="0.921151847" ry="0.92161989"></ellipse>
                        <ellipse id="Oval" cx="365.235136" cy="109.672767" rx="0.921151847" ry="0.92161989"></ellipse>
                        <ellipse id="Oval" cx="365.235136" cy="73.4662713" rx="0.921151847" ry="0.92161989"></ellipse>
                        <ellipse id="Oval" cx="365.235136" cy="37.2597756" rx="0.921151847" ry="0.92161989"></ellipse>
                        <ellipse id="Oval" cx="365.235136" cy="0.92161989" rx="0.921151847" ry="0.92161989"></ellipse>
                        <ellipse id="Oval" cx="329.047028" cy="182.085758" rx="0.921151847" ry="0.92161989"></ellipse>
                        <ellipse id="Oval" cx="329.047028" cy="145.879263" rx="0.921151847" ry="0.92161989"></ellipse>
                        <ellipse id="Oval" cx="329.047028" cy="109.672767" rx="0.921151847" ry="0.92161989"></ellipse>
                        <ellipse id="Oval" cx="329.047028" cy="73.4662713" rx="0.921151847" ry="0.92161989"></ellipse>
                        <ellipse id="Oval" cx="329.047028" cy="37.2597756" rx="0.921151847" ry="0.92161989"></ellipse>
                        <ellipse id="Oval" cx="329.047028" cy="0.92161989" rx="0.921151847" ry="0.92161989"></ellipse>
                        <ellipse id="Oval" cx="292.85892" cy="182.085758" rx="0.921151847" ry="0.92161989"></ellipse>
                        <ellipse id="Oval" cx="292.85892" cy="145.879263" rx="0.921151847" ry="0.92161989"></ellipse>
                        <ellipse id="Oval" cx="292.85892" cy="109.672767" rx="0.921151847" ry="0.92161989"></ellipse>
                        <ellipse id="Oval" cx="292.85892" cy="73.4662713" rx="0.921151847" ry="0.92161989"></ellipse>
                        <ellipse id="Oval" cx="292.85892" cy="37.2597756" rx="0.921151847" ry="0.92161989"></ellipse>
                        <ellipse id="Oval" cx="292.85892" cy="0.92161989" rx="0.921151847" ry="0.92161989"></ellipse>
                        <ellipse id="Oval" cx="256.670812" cy="182.085758" rx="0.921151847" ry="0.92161989"></ellipse>
                        <ellipse id="Oval" cx="256.670812" cy="145.879263" rx="0.921151847" ry="0.92161989"></ellipse>
                        <ellipse id="Oval" cx="256.670812" cy="109.672767" rx="0.921151847" ry="0.92161989"></ellipse>
                        <ellipse id="Oval" cx="256.670812" cy="73.4662713" rx="0.921151847" ry="0.92161989"></ellipse>
                        <ellipse id="Oval" cx="256.670812" cy="37.2597756" rx="0.921151847" ry="0.92161989"></ellipse>
                        <ellipse id="Oval" cx="256.670812" cy="0.92161989" rx="0.921151847" ry="0.92161989"></ellipse>
                        <ellipse id="Oval" cx="220.482703" cy="182.085758" rx="0.921151847" ry="0.92161989"></ellipse>
                        <ellipse id="Oval" cx="220.482703" cy="145.879263" rx="0.921151847" ry="0.92161989"></ellipse>
                        <ellipse id="Oval" cx="220.482703" cy="109.672767" rx="0.921151847" ry="0.92161989"></ellipse>
                        <ellipse id="Oval" cx="220.482703" cy="73.4662713" rx="0.921151847" ry="0.92161989"></ellipse>
                        <ellipse id="Oval" cx="220.482703" cy="37.2597756" rx="0.921151847" ry="0.92161989"></ellipse>
                        <ellipse id="Oval" cx="220.482703" cy="0.92161989" rx="0.921151847" ry="0.92161989"></ellipse>
                    </g>
                    <g id="Block" transform="translate(436.087690, 0.000000)">
                        <ellipse id="Oval" cx="181.993286" cy="182.085758" rx="0.921151847" ry="0.92161989"></ellipse>
                        <ellipse id="Oval" cx="181.993286" cy="145.879263" rx="0.921151847" ry="0.92161989"></ellipse>
                        <ellipse id="Oval" cx="181.993286" cy="109.672767" rx="0.921151847" ry="0.92161989"></ellipse>
                        <ellipse id="Oval" cx="181.993286" cy="73.4662713" rx="0.921151847" ry="0.92161989"></ellipse>
                        <ellipse id="Oval" cx="181.993286" cy="37.2597756" rx="0.921151847" ry="0.92161989"></ellipse>
                        <ellipse id="Oval" cx="181.993286" cy="0.92161989" rx="0.921151847" ry="0.92161989"></ellipse>
                        <ellipse id="Oval" cx="145.673585" cy="182.085758" rx="0.921151847" ry="0.92161989"></ellipse>
                        <ellipse id="Oval" cx="145.673585" cy="145.879263" rx="0.921151847" ry="0.92161989"></ellipse>
                        <ellipse id="Oval" cx="145.673585" cy="109.672767" rx="0.921151847" ry="0.92161989"></ellipse>
                        <ellipse id="Oval" cx="145.673585" cy="73.4662713" rx="0.921151847" ry="0.92161989"></ellipse>
                        <ellipse id="Oval" cx="145.673585" cy="37.2597756" rx="0.921151847" ry="0.92161989"></ellipse>
                        <ellipse id="Oval" cx="145.673585" cy="0.92161989" rx="0.921151847" ry="0.92161989"></ellipse>
                        <ellipse id="Oval" cx="109.485477" cy="182.085758" rx="0.921151847" ry="0.92161989"></ellipse>
                        <ellipse id="Oval" cx="109.485477" cy="145.879263" rx="0.921151847" ry="0.92161989"></ellipse>
                        <ellipse id="Oval" cx="109.485477" cy="109.672767" rx="0.921151847" ry="0.92161989"></ellipse>
                        <ellipse id="Oval" cx="109.485477" cy="73.4662713" rx="0.921151847" ry="0.92161989"></ellipse>
                        <ellipse id="Oval" cx="109.485477" cy="37.2597756" rx="0.921151847" ry="0.92161989"></ellipse>
                        <ellipse id="Oval" cx="109.485477" cy="0.92161989" rx="0.921151847" ry="0.92161989"></ellipse>
                        <ellipse id="Oval" cx="73.2973684" cy="182.085758" rx="0.921151847" ry="0.92161989"></ellipse>
                        <ellipse id="Oval" cx="73.2973684" cy="145.879263" rx="0.921151847" ry="0.92161989"></ellipse>
                        <ellipse id="Oval" cx="73.2973684" cy="109.672767" rx="0.921151847" ry="0.92161989"></ellipse>
                        <ellipse id="Oval" cx="73.2973684" cy="73.4662713" rx="0.921151847" ry="0.92161989"></ellipse>
                        <ellipse id="Oval" cx="73.2973684" cy="37.2597756" rx="0.921151847" ry="0.92161989"></ellipse>
                        <ellipse id="Oval" cx="73.2973684" cy="0.92161989" rx="0.921151847" ry="0.92161989"></ellipse>
                        <ellipse id="Oval" cx="37.1092601" cy="182.085758" rx="0.921151847" ry="0.92161989"></ellipse>
                        <ellipse id="Oval" cx="37.1092601" cy="145.879263" rx="0.921151847" ry="0.92161989"></ellipse>
                        <ellipse id="Oval" cx="37.1092601" cy="109.672767" rx="0.921151847" ry="0.92161989"></ellipse>
                        <ellipse id="Oval" cx="37.1092601" cy="73.4662713" rx="0.921151847" ry="0.92161989"></ellipse>
                        <ellipse id="Oval" cx="37.1092601" cy="37.2597756" rx="0.921151847" ry="0.92161989"></ellipse>
                        <ellipse id="Oval" cx="37.1092601" cy="0.92161989" rx="0.921151847" ry="0.92161989"></ellipse>
                        <ellipse id="Oval" cx="0.921151847" cy="182.085758" rx="0.921151847" ry="0.92161989"></ellipse>
                        <ellipse id="Oval" cx="0.921151847" cy="145.879263" rx="0.921151847" ry="0.92161989"></ellipse>
                        <ellipse id="Oval" cx="0.921151847" cy="109.672767" rx="0.921151847" ry="0.92161989"></ellipse>
                        <ellipse id="Oval" cx="0.921151847" cy="73.4662713" rx="0.921151847" ry="0.92161989"></ellipse>
                        <ellipse id="Oval" cx="0.921151847" cy="37.2597756" rx="0.921151847" ry="0.92161989"></ellipse>
                        <ellipse id="Oval" cx="0.921151847" cy="0.92161989" rx="0.921151847" ry="0.92161989"></ellipse>
                        <ellipse id="Oval" cx="401.554838" cy="182.085758" rx="0.921151847" ry="0.92161989"></ellipse>
                        <ellipse id="Oval" cx="401.554838" cy="145.879263" rx="0.921151847" ry="0.92161989"></ellipse>
                        <ellipse id="Oval" cx="401.554838" cy="109.672767" rx="0.921151847" ry="0.92161989"></ellipse>
                        <ellipse id="Oval" cx="401.554838" cy="73.4662713" rx="0.921151847" ry="0.92161989"></ellipse>
                        <ellipse id="Oval" cx="401.554838" cy="37.2597756" rx="0.921151847" ry="0.92161989"></ellipse>
                        <ellipse id="Oval" cx="401.554838" cy="0.92161989" rx="0.921151847" ry="0.92161989"></ellipse>
                        <ellipse id="Oval" cx="365.235136" cy="182.085758" rx="0.921151847" ry="0.92161989"></ellipse>
                        <ellipse id="Oval" cx="365.235136" cy="145.879263" rx="0.921151847" ry="0.92161989"></ellipse>
                        <ellipse id="Oval" cx="365.235136" cy="109.672767" rx="0.921151847" ry="0.92161989"></ellipse>
                        <ellipse id="Oval" cx="365.235136" cy="73.4662713" rx="0.921151847" ry="0.92161989"></ellipse>
                        <ellipse id="Oval" cx="365.235136" cy="37.2597756" rx="0.921151847" ry="0.92161989"></ellipse>
                        <ellipse id="Oval" cx="365.235136" cy="0.92161989" rx="0.921151847" ry="0.92161989"></ellipse>
                        <ellipse id="Oval" cx="329.047028" cy="182.085758" rx="0.921151847" ry="0.92161989"></ellipse>
                        <ellipse id="Oval" cx="329.047028" cy="145.879263" rx="0.921151847" ry="0.92161989"></ellipse>
                        <ellipse id="Oval" cx="329.047028" cy="109.672767" rx="0.921151847" ry="0.92161989"></ellipse>
                        <ellipse id="Oval" cx="329.047028" cy="73.4662713" rx="0.921151847" ry="0.92161989"></ellipse>
                        <ellipse id="Oval" cx="329.047028" cy="37.2597756" rx="0.921151847" ry="0.92161989"></ellipse>
                        <ellipse id="Oval" cx="329.047028" cy="0.92161989" rx="0.921151847" ry="0.92161989"></ellipse>
                        <ellipse id="Oval" cx="292.85892" cy="182.085758" rx="0.921151847" ry="0.92161989"></ellipse>
                        <ellipse id="Oval" cx="292.85892" cy="145.879263" rx="0.921151847" ry="0.92161989"></ellipse>
                        <ellipse id="Oval" cx="292.85892" cy="109.672767" rx="0.921151847" ry="0.92161989"></ellipse>
                        <ellipse id="Oval" cx="292.85892" cy="73.4662713" rx="0.921151847" ry="0.92161989"></ellipse>
                        <ellipse id="Oval" cx="292.85892" cy="37.2597756" rx="0.921151847" ry="0.92161989"></ellipse>
                        <ellipse id="Oval" cx="292.85892" cy="0.92161989" rx="0.921151847" ry="0.92161989"></ellipse>
                        <ellipse id="Oval" cx="256.670812" cy="182.085758" rx="0.921151847" ry="0.92161989"></ellipse>
                        <ellipse id="Oval" cx="256.670812" cy="145.879263" rx="0.921151847" ry="0.92161989"></ellipse>
                        <ellipse id="Oval" cx="256.670812" cy="109.672767" rx="0.921151847" ry="0.92161989"></ellipse>
                        <ellipse id="Oval" cx="256.670812" cy="73.4662713" rx="0.921151847" ry="0.92161989"></ellipse>
                        <ellipse id="Oval" cx="256.670812" cy="37.2597756" rx="0.921151847" ry="0.92161989"></ellipse>
                        <ellipse id="Oval" cx="256.670812" cy="0.92161989" rx="0.921151847" ry="0.92161989"></ellipse>
                        <ellipse id="Oval" cx="220.482703" cy="182.085758" rx="0.921151847" ry="0.92161989"></ellipse>
                        <ellipse id="Oval" cx="220.482703" cy="145.879263" rx="0.921151847" ry="0.92161989"></ellipse>
                        <ellipse id="Oval" cx="220.482703" cy="109.672767" rx="0.921151847" ry="0.92161989"></ellipse>
                        <ellipse id="Oval" cx="220.482703" cy="73.4662713" rx="0.921151847" ry="0.92161989"></ellipse>
                        <ellipse id="Oval" cx="220.482703" cy="37.2597756" rx="0.921151847" ry="0.92161989"></ellipse>
                        <ellipse id="Oval" cx="220.482703" cy="0.92161989" rx="0.921151847" ry="0.92161989"></ellipse>
                    </g>
                    <g id="Block" transform="translate(436.087690, 213.490725)">
                        <ellipse id="Oval" cx="181.993286" cy="182.085758" rx="0.921151847" ry="0.92161989"></ellipse>
                        <ellipse id="Oval" cx="181.993286" cy="145.879263" rx="0.921151847" ry="0.92161989"></ellipse>
                        <ellipse id="Oval" cx="181.993286" cy="109.672767" rx="0.921151847" ry="0.92161989"></ellipse>
                        <ellipse id="Oval" cx="181.993286" cy="73.4662713" rx="0.921151847" ry="0.92161989"></ellipse>
                        <ellipse id="Oval" cx="181.993286" cy="37.2597756" rx="0.921151847" ry="0.92161989"></ellipse>
                        <ellipse id="Oval" cx="181.993286" cy="0.92161989" rx="0.921151847" ry="0.92161989"></ellipse>
                        <ellipse id="Oval" cx="145.673585" cy="182.085758" rx="0.921151847" ry="0.92161989"></ellipse>
                        <ellipse id="Oval" cx="145.673585" cy="145.879263" rx="0.921151847" ry="0.92161989"></ellipse>
                        <ellipse id="Oval" cx="145.673585" cy="109.672767" rx="0.921151847" ry="0.92161989"></ellipse>
                        <ellipse id="Oval" cx="145.673585" cy="73.4662713" rx="0.921151847" ry="0.92161989"></ellipse>
                        <ellipse id="Oval" cx="145.673585" cy="37.2597756" rx="0.921151847" ry="0.92161989"></ellipse>
                        <ellipse id="Oval" cx="145.673585" cy="0.92161989" rx="0.921151847" ry="0.92161989"></ellipse>
                        <ellipse id="Oval" cx="109.485477" cy="182.085758" rx="0.921151847" ry="0.92161989"></ellipse>
                        <ellipse id="Oval" cx="109.485477" cy="145.879263" rx="0.921151847" ry="0.92161989"></ellipse>
                        <ellipse id="Oval" cx="109.485477" cy="109.672767" rx="0.921151847" ry="0.92161989"></ellipse>
                        <ellipse id="Oval" cx="109.485477" cy="73.4662713" rx="0.921151847" ry="0.92161989"></ellipse>
                        <ellipse id="Oval" cx="109.485477" cy="37.2597756" rx="0.921151847" ry="0.92161989"></ellipse>
                        <ellipse id="Oval" cx="109.485477" cy="0.92161989" rx="0.921151847" ry="0.92161989"></ellipse>
                        <ellipse id="Oval" cx="73.2973684" cy="182.085758" rx="0.921151847" ry="0.92161989"></ellipse>
                        <ellipse id="Oval" cx="73.2973684" cy="145.879263" rx="0.921151847" ry="0.92161989"></ellipse>
                        <ellipse id="Oval" cx="73.2973684" cy="109.672767" rx="0.921151847" ry="0.92161989"></ellipse>
                        <ellipse id="Oval" cx="73.2973684" cy="73.4662713" rx="0.921151847" ry="0.92161989"></ellipse>
                        <ellipse id="Oval" cx="73.2973684" cy="37.2597756" rx="0.921151847" ry="0.92161989"></ellipse>
                        <ellipse id="Oval" cx="73.2973684" cy="0.92161989" rx="0.921151847" ry="0.92161989"></ellipse>
                        <ellipse id="Oval" cx="37.1092601" cy="182.085758" rx="0.921151847" ry="0.92161989"></ellipse>
                        <ellipse id="Oval" cx="37.1092601" cy="145.879263" rx="0.921151847" ry="0.92161989"></ellipse>
                        <ellipse id="Oval" cx="37.1092601" cy="109.672767" rx="0.921151847" ry="0.92161989"></ellipse>
                        <ellipse id="Oval" cx="37.1092601" cy="73.4662713" rx="0.921151847" ry="0.92161989"></ellipse>
                        <ellipse id="Oval" cx="37.1092601" cy="37.2597756" rx="0.921151847" ry="0.92161989"></ellipse>
                        <ellipse id="Oval" cx="37.1092601" cy="0.92161989" rx="0.921151847" ry="0.92161989"></ellipse>
                        <ellipse id="Oval" cx="0.921151847" cy="182.085758" rx="0.921151847" ry="0.92161989"></ellipse>
                        <ellipse id="Oval" cx="0.921151847" cy="145.879263" rx="0.921151847" ry="0.92161989"></ellipse>
                        <ellipse id="Oval" cx="0.921151847" cy="109.672767" rx="0.921151847" ry="0.92161989"></ellipse>
                        <ellipse id="Oval" cx="0.921151847" cy="73.4662713" rx="0.921151847" ry="0.92161989"></ellipse>
                        <ellipse id="Oval" cx="0.921151847" cy="37.2597756" rx="0.921151847" ry="0.92161989"></ellipse>
                        <ellipse id="Oval" cx="0.921151847" cy="0.92161989" rx="0.921151847" ry="0.92161989"></ellipse>
                        <ellipse id="Oval" cx="401.554838" cy="182.085758" rx="0.921151847" ry="0.92161989"></ellipse>
                        <ellipse id="Oval" cx="401.554838" cy="145.879263" rx="0.921151847" ry="0.92161989"></ellipse>
                        <ellipse id="Oval" cx="401.554838" cy="109.672767" rx="0.921151847" ry="0.92161989"></ellipse>
                        <ellipse id="Oval" cx="401.554838" cy="73.4662713" rx="0.921151847" ry="0.92161989"></ellipse>
                        <ellipse id="Oval" cx="401.554838" cy="37.2597756" rx="0.921151847" ry="0.92161989"></ellipse>
                        <ellipse id="Oval" cx="401.554838" cy="0.92161989" rx="0.921151847" ry="0.92161989"></ellipse>
                        <ellipse id="Oval" cx="365.235136" cy="182.085758" rx="0.921151847" ry="0.92161989"></ellipse>
                        <ellipse id="Oval" cx="365.235136" cy="145.879263" rx="0.921151847" ry="0.92161989"></ellipse>
                        <ellipse id="Oval" cx="365.235136" cy="109.672767" rx="0.921151847" ry="0.92161989"></ellipse>
                        <ellipse id="Oval" cx="365.235136" cy="73.4662713" rx="0.921151847" ry="0.92161989"></ellipse>
                        <ellipse id="Oval" cx="365.235136" cy="37.2597756" rx="0.921151847" ry="0.92161989"></ellipse>
                        <ellipse id="Oval" cx="365.235136" cy="0.92161989" rx="0.921151847" ry="0.92161989"></ellipse>
                        <ellipse id="Oval" cx="329.047028" cy="182.085758" rx="0.921151847" ry="0.92161989"></ellipse>
                        <ellipse id="Oval" cx="329.047028" cy="145.879263" rx="0.921151847" ry="0.92161989"></ellipse>
                        <ellipse id="Oval" cx="329.047028" cy="109.672767" rx="0.921151847" ry="0.92161989"></ellipse>
                        <ellipse id="Oval" cx="329.047028" cy="73.4662713" rx="0.921151847" ry="0.92161989"></ellipse>
                        <ellipse id="Oval" cx="329.047028" cy="37.2597756" rx="0.921151847" ry="0.92161989"></ellipse>
                        <ellipse id="Oval" cx="329.047028" cy="0.92161989" rx="0.921151847" ry="0.92161989"></ellipse>
                        <ellipse id="Oval" cx="292.85892" cy="182.085758" rx="0.921151847" ry="0.92161989"></ellipse>
                        <ellipse id="Oval" cx="292.85892" cy="145.879263" rx="0.921151847" ry="0.92161989"></ellipse>
                        <ellipse id="Oval" cx="292.85892" cy="109.672767" rx="0.921151847" ry="0.92161989"></ellipse>
                        <ellipse id="Oval" cx="292.85892" cy="73.4662713" rx="0.921151847" ry="0.92161989"></ellipse>
                        <ellipse id="Oval" cx="292.85892" cy="37.2597756" rx="0.921151847" ry="0.92161989"></ellipse>
                        <ellipse id="Oval" cx="292.85892" cy="0.92161989" rx="0.921151847" ry="0.92161989"></ellipse>
                        <ellipse id="Oval" cx="256.670812" cy="182.085758" rx="0.921151847" ry="0.92161989"></ellipse>
                        <ellipse id="Oval" cx="256.670812" cy="145.879263" rx="0.921151847" ry="0.92161989"></ellipse>
                        <ellipse id="Oval" cx="256.670812" cy="109.672767" rx="0.921151847" ry="0.92161989"></ellipse>
                        <ellipse id="Oval" cx="256.670812" cy="73.4662713" rx="0.921151847" ry="0.92161989"></ellipse>
                        <ellipse id="Oval" cx="256.670812" cy="37.2597756" rx="0.921151847" ry="0.92161989"></ellipse>
                        <ellipse id="Oval" cx="256.670812" cy="0.92161989" rx="0.921151847" ry="0.92161989"></ellipse>
                        <ellipse id="Oval" cx="220.482703" cy="182.085758" rx="0.921151847" ry="0.92161989"></ellipse>
                        <ellipse id="Oval" cx="220.482703" cy="145.879263" rx="0.921151847" ry="0.92161989"></ellipse>
                        <ellipse id="Oval" cx="220.482703" cy="109.672767" rx="0.921151847" ry="0.92161989"></ellipse>
                        <ellipse id="Oval" cx="220.482703" cy="73.4662713" rx="0.921151847" ry="0.92161989"></ellipse>
                        <ellipse id="Oval" cx="220.482703" cy="37.2597756" rx="0.921151847" ry="0.92161989"></ellipse>
                        <ellipse id="Oval" cx="220.482703" cy="0.92161989" rx="0.921151847" ry="0.92161989"></ellipse>
                    </g>
                    <g id="Block" transform="translate(869.139966, 0.000000)">
                        <ellipse id="Oval" cx="0.921151847" cy="182.085758" rx="0.921151847" ry="0.92161989"></ellipse>
                        <ellipse id="Oval" cx="0.921151847" cy="145.879263" rx="0.921151847" ry="0.92161989"></ellipse>
                        <ellipse id="Oval" cx="0.921151847" cy="109.672767" rx="0.921151847" ry="0.92161989"></ellipse>
                        <ellipse id="Oval" cx="0.921151847" cy="73.4662713" rx="0.921151847" ry="0.92161989"></ellipse>
                        <ellipse id="Oval" cx="0.921151847" cy="37.2597756" rx="0.921151847" ry="0.92161989"></ellipse>
                        <ellipse id="Oval" cx="0.921151847" cy="0.92161989" rx="0.921151847" ry="0.92161989"></ellipse>
                    </g>
                    <g id="Block" transform="translate(869.139966, 213.490725)">
                        <ellipse id="Oval" cx="0.921151847" cy="182.085758" rx="0.921151847" ry="0.92161989"></ellipse>
                        <ellipse id="Oval" cx="0.921151847" cy="145.879263" rx="0.921151847" ry="0.92161989"></ellipse>
                        <ellipse id="Oval" cx="0.921151847" cy="109.672767" rx="0.921151847" ry="0.92161989"></ellipse>
                        <ellipse id="Oval" cx="0.921151847" cy="73.4662713" rx="0.921151847" ry="0.92161989"></ellipse>
                        <ellipse id="Oval" cx="0.921151847" cy="37.2597756" rx="0.921151847" ry="0.92161989"></ellipse>
                        <ellipse id="Oval" cx="0.921151847" cy="0.92161989" rx="0.921151847" ry="0.92161989"></ellipse>
                    </g>
                </g>
                <path d="M517,182 L517,322.999994 L365,323 L517,182 Z" id="Shape-Copy-25" fill="#7CBDDF" style="mix-blend-mode: darken;" transform="translate(441.000000, 252.500000) scale(-1, 1) translate(-441.000000, -252.500000) "></path>
                <path d="M293,110 L402,110 L402,359 L293,358.999995 L293,110 Z" id="Rectangle-path-Copy-22" fill="#FCD315" style="mix-blend-mode: darken;"></path>
                <rect id="Rectangle-843" fill="#FFFFFF" x="441" y="43" width="414" height="154"></rect>
                <text id="Interactive-&amp;" font-family="Sofia, Avenir, Helvetica Neue, Arial, sans-serif" font-size="60" font-weight="bold" line-spacing="72" fill="#182226">
                    <tspan x="470" y="112">Interactive &amp;</tspan>
                    <tspan x="470" y="184">Motion</tspan>
                </text>
                <path d="M56,217 C46.059,217 38,225.059 38,235 C38,244.941 46.059,253 56,253 C65.941,253 74,244.941 74,235 C74,225.059 65.941,217 56,217 Z" id="Fill-14" fill="#EE4A62" style="mix-blend-mode: darken;"></path>
                <path d="M201,146 C191.059,146 183,154.059 183,164 C183,173.941 191.059,182 201,182 C210.941,182 219,173.941 219,164 C219,154.059 210.941,146 201,146 Z" id="Fill-14" fill="#EE4A62" style="mix-blend-mode: darken;"></path>
            </g>
        </g>
    </g>
</svg>