<?xml version="1.0" encoding="UTF-8" standalone="no"?>
<svg width="290px" height="128px" viewBox="0 0 290 128" version="1.1" xmlns="http://www.w3.org/2000/svg" xmlns:xlink="http://www.w3.org/1999/xlink">
    <!-- Generator: Sketch 3.6.1 (26313) - http://www.bohemiancoding.com/sketch -->
    <title>interactive-mobile</title>
    <desc>Created with Sketch.</desc>
    <defs></defs>
    <g id="Page-1" stroke="none" stroke-width="1" fill="none" fill-rule="evenodd">
        <g id="interactive-mobile">
            <g id="Communication-Banner-Copy-5" transform="translate(1.000000, 1.000000)">
                <g id="Block" stroke="#000000" stroke-width="2" fill="#000000">
                    <ellipse id="Oval" cx="89.9070536" cy="90.5079621" rx="0.455061009" ry="0.458102484"></ellipse>
                    <ellipse id="Oval" cx="89.9070536" cy="72.5110788" rx="0.455061009" ry="0.458102484"></ellipse>
                    <ellipse id="Oval" cx="89.9070536" cy="54.5141956" rx="0.455061009" ry="0.458102484"></ellipse>
                    <ellipse id="Oval" cx="89.9070536" cy="36.5173123" rx="0.455061009" ry="0.458102484"></ellipse>
                    <ellipse id="Oval" cx="89.9070536" cy="18.520429" rx="0.455061009" ry="0.458102484"></ellipse>
                    <ellipse id="Oval" cx="89.9070536" cy="0.458102484" rx="0.455061009" ry="0.458102484"></ellipse>
                    <ellipse id="Oval" cx="71.9646481" cy="90.5079621" rx="0.455061009" ry="0.458102484"></ellipse>
                    <ellipse id="Oval" cx="71.9646481" cy="72.5110788" rx="0.455061009" ry="0.458102484"></ellipse>
                    <ellipse id="Oval" cx="71.9646481" cy="54.5141956" rx="0.455061009" ry="0.458102484"></ellipse>
                    <ellipse id="Oval" cx="71.9646481" cy="36.5173123" rx="0.455061009" ry="0.458102484"></ellipse>
                    <ellipse id="Oval" cx="71.9646481" cy="18.520429" rx="0.455061009" ry="0.458102484"></ellipse>
                    <ellipse id="Oval" cx="71.9646481" cy="0.458102484" rx="0.455061009" ry="0.458102484"></ellipse>
                    <ellipse id="Oval" cx="54.0872513" cy="90.5079621" rx="0.455061009" ry="0.458102484"></ellipse>
                    <ellipse id="Oval" cx="54.0872513" cy="72.5110788" rx="0.455061009" ry="0.458102484"></ellipse>
                    <ellipse id="Oval" cx="54.0872513" cy="54.5141956" rx="0.455061009" ry="0.458102484"></ellipse>
                    <ellipse id="Oval" cx="54.0872513" cy="36.5173123" rx="0.455061009" ry="0.458102484"></ellipse>
                    <ellipse id="Oval" cx="54.0872513" cy="18.520429" rx="0.455061009" ry="0.458102484"></ellipse>
                    <ellipse id="Oval" cx="54.0872513" cy="0.458102484" rx="0.455061009" ry="0.458102484"></ellipse>
                    <ellipse id="Oval" cx="36.2098546" cy="90.5079621" rx="0.455061009" ry="0.458102484"></ellipse>
                    <ellipse id="Oval" cx="36.2098546" cy="72.5110788" rx="0.455061009" ry="0.458102484"></ellipse>
                    <ellipse id="Oval" cx="36.2098546" cy="54.5141956" rx="0.455061009" ry="0.458102484"></ellipse>
                    <ellipse id="Oval" cx="36.2098546" cy="36.5173123" rx="0.455061009" ry="0.458102484"></ellipse>
                    <ellipse id="Oval" cx="36.2098546" cy="18.520429" rx="0.455061009" ry="0.458102484"></ellipse>
                    <ellipse id="Oval" cx="36.2098546" cy="0.458102484" rx="0.455061009" ry="0.458102484"></ellipse>
                    <ellipse id="Oval" cx="18.3324578" cy="90.5079621" rx="0.455061009" ry="0.458102484"></ellipse>
                    <ellipse id="Oval" cx="18.3324578" cy="72.5110788" rx="0.455061009" ry="0.458102484"></ellipse>
                    <ellipse id="Oval" cx="18.3324578" cy="54.5141956" rx="0.455061009" ry="0.458102484"></ellipse>
                    <ellipse id="Oval" cx="18.3324578" cy="36.5173123" rx="0.455061009" ry="0.458102484"></ellipse>
                    <ellipse id="Oval" cx="18.3324578" cy="18.520429" rx="0.455061009" ry="0.458102484"></ellipse>
                    <ellipse id="Oval" cx="18.3324578" cy="0.458102484" rx="0.455061009" ry="0.458102484"></ellipse>
                    <ellipse id="Oval" cx="0.455061009" cy="90.5079621" rx="0.455061009" ry="0.458102484"></ellipse>
                    <ellipse id="Oval" cx="0.455061009" cy="72.5110788" rx="0.455061009" ry="0.458102484"></ellipse>
                    <ellipse id="Oval" cx="0.455061009" cy="54.5141956" rx="0.455061009" ry="0.458102484"></ellipse>
                    <ellipse id="Oval" cx="0.455061009" cy="36.5173123" rx="0.455061009" ry="0.458102484"></ellipse>
                    <ellipse id="Oval" cx="0.455061009" cy="18.520429" rx="0.455061009" ry="0.458102484"></ellipse>
                    <ellipse id="Oval" cx="0.455061009" cy="0.458102484" rx="0.455061009" ry="0.458102484"></ellipse>
                    <ellipse id="Oval" cx="198.373319" cy="90.5079621" rx="0.455061009" ry="0.458102484"></ellipse>
                    <ellipse id="Oval" cx="198.373319" cy="72.5110788" rx="0.455061009" ry="0.458102484"></ellipse>
                    <ellipse id="Oval" cx="198.373319" cy="54.5141956" rx="0.455061009" ry="0.458102484"></ellipse>
                    <ellipse id="Oval" cx="198.373319" cy="36.5173123" rx="0.455061009" ry="0.458102484"></ellipse>
                    <ellipse id="Oval" cx="198.373319" cy="18.520429" rx="0.455061009" ry="0.458102484"></ellipse>
                    <ellipse id="Oval" cx="198.373319" cy="0.458102484" rx="0.455061009" ry="0.458102484"></ellipse>
                    <ellipse id="Oval" cx="215.769293" cy="90.5079621" rx="0.455061009" ry="0.458102484"></ellipse>
                    <ellipse id="Oval" cx="215.769293" cy="72.5110788" rx="0.455061009" ry="0.458102484"></ellipse>
                    <ellipse id="Oval" cx="215.769293" cy="54.5141956" rx="0.455061009" ry="0.458102484"></ellipse>
                    <ellipse id="Oval" cx="215.769293" cy="36.5173123" rx="0.455061009" ry="0.458102484"></ellipse>
                    <ellipse id="Oval" cx="215.769293" cy="18.520429" rx="0.455061009" ry="0.458102484"></ellipse>
                    <ellipse id="Oval" cx="215.769293" cy="0.458102484" rx="0.455061009" ry="0.458102484"></ellipse>
                    <ellipse id="Oval" cx="233.165266" cy="90.5079621" rx="0.455061009" ry="0.458102484"></ellipse>
                    <ellipse id="Oval" cx="233.165266" cy="72.5110788" rx="0.455061009" ry="0.458102484"></ellipse>
                    <ellipse id="Oval" cx="233.165266" cy="54.5141956" rx="0.455061009" ry="0.458102484"></ellipse>
                    <ellipse id="Oval" cx="233.165266" cy="36.5173123" rx="0.455061009" ry="0.458102484"></ellipse>
                    <ellipse id="Oval" cx="233.165266" cy="18.520429" rx="0.455061009" ry="0.458102484"></ellipse>
                    <ellipse id="Oval" cx="233.165266" cy="0.458102484" rx="0.455061009" ry="0.458102484"></ellipse>
                    <ellipse id="Oval" cx="250.561239" cy="90.5079621" rx="0.455061009" ry="0.458102484"></ellipse>
                    <ellipse id="Oval" cx="250.561239" cy="72.5110788" rx="0.455061009" ry="0.458102484"></ellipse>
                    <ellipse id="Oval" cx="250.561239" cy="54.5141956" rx="0.455061009" ry="0.458102484"></ellipse>
                    <ellipse id="Oval" cx="250.561239" cy="36.5173123" rx="0.455061009" ry="0.458102484"></ellipse>
                    <ellipse id="Oval" cx="250.561239" cy="18.520429" rx="0.455061009" ry="0.458102484"></ellipse>
                    <ellipse id="Oval" cx="250.561239" cy="0.458102484" rx="0.455061009" ry="0.458102484"></ellipse>
                    <ellipse id="Oval" cx="267.957212" cy="90.5079621" rx="0.455061009" ry="0.458102484"></ellipse>
                    <ellipse id="Oval" cx="267.957212" cy="72.5110788" rx="0.455061009" ry="0.458102484"></ellipse>
                    <ellipse id="Oval" cx="267.957212" cy="54.5141956" rx="0.455061009" ry="0.458102484"></ellipse>
                    <ellipse id="Oval" cx="267.957212" cy="36.5173123" rx="0.455061009" ry="0.458102484"></ellipse>
                    <ellipse id="Oval" cx="267.957212" cy="18.520429" rx="0.455061009" ry="0.458102484"></ellipse>
                    <ellipse id="Oval" cx="267.957212" cy="0.458102484" rx="0.455061009" ry="0.458102484"></ellipse>
                    <ellipse id="Oval" cx="287.286071" cy="90.5079621" rx="0.455061009" ry="0.458102484"></ellipse>
                    <ellipse id="Oval" cx="287.286071" cy="72.5110788" rx="0.455061009" ry="0.458102484"></ellipse>
                    <ellipse id="Oval" cx="287.286071" cy="54.5141956" rx="0.455061009" ry="0.458102484"></ellipse>
                    <ellipse id="Oval" cx="287.286071" cy="36.5173123" rx="0.455061009" ry="0.458102484"></ellipse>
                    <ellipse id="Oval" cx="287.286071" cy="18.520429" rx="0.455061009" ry="0.458102484"></ellipse>
                    <ellipse id="Oval" cx="287.286071" cy="0.458102484" rx="0.455061009" ry="0.458102484"></ellipse>
                    <ellipse id="Oval" cx="180.430914" cy="90.5079621" rx="0.455061009" ry="0.458102484"></ellipse>
                    <ellipse id="Oval" cx="180.430914" cy="72.5110788" rx="0.455061009" ry="0.458102484"></ellipse>
                    <ellipse id="Oval" cx="180.430914" cy="54.5141956" rx="0.455061009" ry="0.458102484"></ellipse>
                    <ellipse id="Oval" cx="180.430914" cy="36.5173123" rx="0.455061009" ry="0.458102484"></ellipse>
                    <ellipse id="Oval" cx="180.430914" cy="18.520429" rx="0.455061009" ry="0.458102484"></ellipse>
                    <ellipse id="Oval" cx="180.430914" cy="0.458102484" rx="0.455061009" ry="0.458102484"></ellipse>
                    <ellipse id="Oval" cx="162.553517" cy="90.5079621" rx="0.455061009" ry="0.458102484"></ellipse>
                    <ellipse id="Oval" cx="162.553517" cy="72.5110788" rx="0.455061009" ry="0.458102484"></ellipse>
                    <ellipse id="Oval" cx="162.553517" cy="54.5141956" rx="0.455061009" ry="0.458102484"></ellipse>
                    <ellipse id="Oval" cx="162.553517" cy="36.5173123" rx="0.455061009" ry="0.458102484"></ellipse>
                    <ellipse id="Oval" cx="162.553517" cy="18.520429" rx="0.455061009" ry="0.458102484"></ellipse>
                    <ellipse id="Oval" cx="162.553517" cy="0.458102484" rx="0.455061009" ry="0.458102484"></ellipse>
                    <ellipse id="Oval" cx="144.67612" cy="90.5079621" rx="0.455061009" ry="0.458102484"></ellipse>
                    <ellipse id="Oval" cx="144.67612" cy="72.5110788" rx="0.455061009" ry="0.458102484"></ellipse>
                    <ellipse id="Oval" cx="144.67612" cy="54.5141956" rx="0.455061009" ry="0.458102484"></ellipse>
                    <ellipse id="Oval" cx="144.67612" cy="36.5173123" rx="0.455061009" ry="0.458102484"></ellipse>
                    <ellipse id="Oval" cx="144.67612" cy="18.520429" rx="0.455061009" ry="0.458102484"></ellipse>
                    <ellipse id="Oval" cx="144.67612" cy="0.458102484" rx="0.455061009" ry="0.458102484"></ellipse>
                    <ellipse id="Oval" cx="126.798724" cy="90.5079621" rx="0.455061009" ry="0.458102484"></ellipse>
                    <ellipse id="Oval" cx="126.798724" cy="72.5110788" rx="0.455061009" ry="0.458102484"></ellipse>
                    <ellipse id="Oval" cx="126.798724" cy="54.5141956" rx="0.455061009" ry="0.458102484"></ellipse>
                    <ellipse id="Oval" cx="126.798724" cy="36.5173123" rx="0.455061009" ry="0.458102484"></ellipse>
                    <ellipse id="Oval" cx="126.798724" cy="18.520429" rx="0.455061009" ry="0.458102484"></ellipse>
                    <ellipse id="Oval" cx="126.798724" cy="0.458102484" rx="0.455061009" ry="0.458102484"></ellipse>
                    <ellipse id="Oval" cx="108.921327" cy="90.5079621" rx="0.455061009" ry="0.458102484"></ellipse>
                    <ellipse id="Oval" cx="89.9070536" cy="108.021476" rx="0.455061009" ry="0.458102484"></ellipse>
                    <ellipse id="Oval" cx="71.9646481" cy="108.021476" rx="0.455061009" ry="0.458102484"></ellipse>
                    <ellipse id="Oval" cx="54.0872513" cy="108.021476" rx="0.455061009" ry="0.458102484"></ellipse>
                    <ellipse id="Oval" cx="36.2098546" cy="108.021476" rx="0.455061009" ry="0.458102484"></ellipse>
                    <ellipse id="Oval" cx="18.3324578" cy="108.021476" rx="0.455061009" ry="0.458102484"></ellipse>
                    <ellipse id="Oval" cx="0.455061009" cy="108.021476" rx="0.455061009" ry="0.458102484"></ellipse>
                    <ellipse id="Oval" cx="198.373319" cy="108.021476" rx="0.455061009" ry="0.458102484"></ellipse>
                    <ellipse id="Oval" cx="215.769293" cy="108.021476" rx="0.455061009" ry="0.458102484"></ellipse>
                    <ellipse id="Oval" cx="233.165266" cy="108.021476" rx="0.455061009" ry="0.458102484"></ellipse>
                    <ellipse id="Oval" cx="250.561239" cy="108.021476" rx="0.455061009" ry="0.458102484"></ellipse>
                    <ellipse id="Oval" cx="267.957212" cy="108.021476" rx="0.455061009" ry="0.458102484"></ellipse>
                    <ellipse id="Oval" cx="287.286071" cy="108.021476" rx="0.455061009" ry="0.458102484"></ellipse>
                    <ellipse id="Oval" cx="180.430914" cy="108.021476" rx="0.455061009" ry="0.458102484"></ellipse>
                    <ellipse id="Oval" cx="162.553517" cy="108.021476" rx="0.455061009" ry="0.458102484"></ellipse>
                    <ellipse id="Oval" cx="144.67612" cy="108.021476" rx="0.455061009" ry="0.458102484"></ellipse>
                    <ellipse id="Oval" cx="126.798724" cy="108.021476" rx="0.455061009" ry="0.458102484"></ellipse>
                    <ellipse id="Oval" cx="108.921327" cy="108.021476" rx="0.455061009" ry="0.458102484"></ellipse>
                    <ellipse id="Oval" cx="89.9070536" cy="125.534989" rx="0.455061009" ry="0.458102484"></ellipse>
                    <ellipse id="Oval" cx="71.9646481" cy="125.534989" rx="0.455061009" ry="0.458102484"></ellipse>
                    <ellipse id="Oval" cx="54.0872513" cy="125.534989" rx="0.455061009" ry="0.458102484"></ellipse>
                    <ellipse id="Oval" cx="36.2098546" cy="125.534989" rx="0.455061009" ry="0.458102484"></ellipse>
                    <ellipse id="Oval" cx="18.3324578" cy="125.534989" rx="0.455061009" ry="0.458102484"></ellipse>
                    <ellipse id="Oval" cx="0.455061009" cy="125.534989" rx="0.455061009" ry="0.458102484"></ellipse>
                    <ellipse id="Oval" cx="198.373319" cy="125.534989" rx="0.455061009" ry="0.458102484"></ellipse>
                    <ellipse id="Oval" cx="215.769293" cy="125.534989" rx="0.455061009" ry="0.458102484"></ellipse>
                    <ellipse id="Oval" cx="233.165266" cy="125.534989" rx="0.455061009" ry="0.458102484"></ellipse>
                    <ellipse id="Oval" cx="250.561239" cy="125.534989" rx="0.455061009" ry="0.458102484"></ellipse>
                    <ellipse id="Oval" cx="267.957212" cy="125.534989" rx="0.455061009" ry="0.458102484"></ellipse>
                    <ellipse id="Oval" cx="287.286071" cy="125.534989" rx="0.455061009" ry="0.458102484"></ellipse>
                    <ellipse id="Oval" cx="180.430914" cy="125.534989" rx="0.455061009" ry="0.458102484"></ellipse>
                    <ellipse id="Oval" cx="162.553517" cy="125.534989" rx="0.455061009" ry="0.458102484"></ellipse>
                    <ellipse id="Oval" cx="144.67612" cy="125.534989" rx="0.455061009" ry="0.458102484"></ellipse>
                    <ellipse id="Oval" cx="126.798724" cy="125.534989" rx="0.455061009" ry="0.458102484"></ellipse>
                    <ellipse id="Oval" cx="108.921327" cy="125.534989" rx="0.455061009" ry="0.458102484"></ellipse>
                    <ellipse id="Oval" cx="108.921327" cy="72.5110788" rx="0.455061009" ry="0.458102484"></ellipse>
                    <ellipse id="Oval" cx="108.921327" cy="54.5141956" rx="0.455061009" ry="0.458102484"></ellipse>
                    <ellipse id="Oval" cx="108.921327" cy="36.5173123" rx="0.455061009" ry="0.458102484"></ellipse>
                    <ellipse id="Oval" cx="108.921327" cy="18.520429" rx="0.455061009" ry="0.458102484"></ellipse>
                    <ellipse id="Oval" cx="108.921327" cy="0.458102484" rx="0.455061009" ry="0.458102484"></ellipse>
                </g>
                <rect id="Rectangle-886" fill="#FFFFFF" x="2.35135135" y="74.9189189" width="239.648649" height="31.1351351"></rect>
                <text id="Interactive-&amp;-Motion" font-family="Sofia, Avenir, Helvetica Neue, Arial, sans-serif" font-size="24" font-weight="bold" line-spacing="32" fill="#182226">
                    <tspan x="12.0810811" y="98.8918919">Interactive &amp; Motion</tspan>
                </text>
                <path d="M216,18.5 L216,54.4999984 L252,54.5 L216,18.5 Z" id="Shape-Copy-25" fill="#7CBDDF" style="mix-blend-mode: darken;"></path>
                <path d="M198,0.435171881 L232.748772,0.435171881 L232.748772,72.5965076 L198,72.596506 L198,0.435171881 Z" id="Rectangle-path-Copy-22" fill="#FCD315" style="mix-blend-mode: darken;"></path>
                <path d="M81,19 C76.0295,19 72,23.0295 72,28 C72,32.9705 76.0295,37 81,37 C85.9705,37 90,32.9705 90,28 C90,23.0295 85.9705,19 81,19 Z" id="Fill-14" fill="#EE4A62" style="mix-blend-mode: darken;"></path>
                <path d="M153.5,0 C148.5295,0 144.5,4.0295 144.5,9 C144.5,13.9705 148.5295,18 153.5,18 C158.4705,18 162.5,13.9705 162.5,9 C162.5,4.0295 158.4705,0 153.5,0 Z" id="Fill-14" fill="#EE4A62" style="mix-blend-mode: darken;"></path>
            </g>
        </g>
    </g>
</svg>