<?xml version="1.0" encoding="UTF-8" standalone="no"?>
<svg width="331px" height="133px" viewBox="0 0 331 133" version="1.1" xmlns="http://www.w3.org/2000/svg" xmlns:xlink="http://www.w3.org/1999/xlink">
    <!-- Generator: Sketch 3.6.1 (26313) - http://www.bohemiancoding.com/sketch -->
    <title>interactive-mobile</title>
    <desc>Created with Sketch.</desc>
    <defs></defs>
    <g id="Page-1" stroke="none" stroke-width="1" fill="none" fill-rule="evenodd">
        <g id="Work-Index/Work-Index-Masonry/Information-Copy-3" transform="translate(-536.000000, -1052.000000)">
            <g id="interactive-mobile" transform="translate(538.000000, 1053.000000)">
                <g id="Background-(Grid)" stroke-width="2.2" stroke="#000000" fill="#000000">
                    <g id="Block">
                        <ellipse id="Oval" cx="109.15423" cy="1.34295538" rx="0.552479835" ry="0.55343506"></ellipse>
                        <ellipse id="Oval" cx="87.3707396" cy="1.34295538" rx="0.552479835" ry="0.55343506"></ellipse>
                        <ellipse id="Oval" cx="65.6661747" cy="1.34295538" rx="0.552479835" ry="0.55343506"></ellipse>
                        <ellipse id="Oval" cx="43.9616097" cy="1.34295538" rx="0.552479835" ry="0.55343506"></ellipse>
                        <ellipse id="Oval" cx="22.2570448" cy="1.34295538" rx="0.552479835" ry="0.55343506"></ellipse>
                        <ellipse id="Oval" cx="0.552479835" cy="1.34295538" rx="0.552479835" ry="0.55343506"></ellipse>
                        <ellipse id="Oval" cx="240.840803" cy="1.34295538" rx="0.552479835" ry="0.55343506"></ellipse>
                        <ellipse id="Oval" cx="219.057312" cy="1.34295538" rx="0.552479835" ry="0.55343506"></ellipse>
                        <ellipse id="Oval" cx="197.352747" cy="1.34295538" rx="0.552479835" ry="0.55343506"></ellipse>
                        <ellipse id="Oval" cx="175.648182" cy="1.34295538" rx="0.552479835" ry="0.55343506"></ellipse>
                        <ellipse id="Oval" cx="153.943617" cy="1.34295538" rx="0.552479835" ry="0.55343506"></ellipse>
                        <ellipse id="Oval" cx="132.239053" cy="1.34295538" rx="0.552479835" ry="0.55343506"></ellipse>
                    </g>
                    <g id="Block" transform="translate(0.000000, 20.201717)">
                        <ellipse id="Oval" cx="109.15423" cy="109.342955" rx="0.552479835" ry="0.55343506"></ellipse>
                        <ellipse id="Oval" cx="109.15423" cy="87.6008637" rx="0.552479835" ry="0.55343506"></ellipse>
                        <ellipse id="Oval" cx="109.15423" cy="65.8587721" rx="0.552479835" ry="0.55343506"></ellipse>
                        <ellipse id="Oval" cx="109.15423" cy="44.1166805" rx="0.552479835" ry="0.55343506"></ellipse>
                        <ellipse id="Oval" cx="109.15423" cy="22.3745888" rx="0.552479835" ry="0.55343506"></ellipse>
                        <ellipse id="Oval" cx="109.15423" cy="0.55343506" rx="0.552479835" ry="0.55343506"></ellipse>
                        <ellipse id="Oval" cx="87.3707396" cy="109.342955" rx="0.552479835" ry="0.55343506"></ellipse>
                        <ellipse id="Oval" cx="87.3707396" cy="87.6008637" rx="0.552479835" ry="0.55343506"></ellipse>
                        <ellipse id="Oval" cx="87.3707396" cy="65.8587721" rx="0.552479835" ry="0.55343506"></ellipse>
                        <ellipse id="Oval" cx="87.3707396" cy="44.1166805" rx="0.552479835" ry="0.55343506"></ellipse>
                        <ellipse id="Oval" cx="87.3707396" cy="22.3745888" rx="0.552479835" ry="0.55343506"></ellipse>
                        <ellipse id="Oval" cx="87.3707396" cy="0.55343506" rx="0.552479835" ry="0.55343506"></ellipse>
                        <ellipse id="Oval" cx="65.6661747" cy="109.342955" rx="0.552479835" ry="0.55343506"></ellipse>
                        <ellipse id="Oval" cx="65.6661747" cy="87.6008637" rx="0.552479835" ry="0.55343506"></ellipse>
                        <ellipse id="Oval" cx="65.6661747" cy="65.8587721" rx="0.552479835" ry="0.55343506"></ellipse>
                        <ellipse id="Oval" cx="65.6661747" cy="44.1166805" rx="0.552479835" ry="0.55343506"></ellipse>
                        <ellipse id="Oval" cx="65.6661747" cy="22.3745888" rx="0.552479835" ry="0.55343506"></ellipse>
                        <ellipse id="Oval" cx="65.6661747" cy="0.55343506" rx="0.552479835" ry="0.55343506"></ellipse>
                        <ellipse id="Oval" cx="43.9616097" cy="109.342955" rx="0.552479835" ry="0.55343506"></ellipse>
                        <ellipse id="Oval" cx="43.9616097" cy="87.6008637" rx="0.552479835" ry="0.55343506"></ellipse>
                        <ellipse id="Oval" cx="43.9616097" cy="65.8587721" rx="0.552479835" ry="0.55343506"></ellipse>
                        <ellipse id="Oval" cx="43.9616097" cy="44.1166805" rx="0.552479835" ry="0.55343506"></ellipse>
                        <ellipse id="Oval" cx="43.9616097" cy="22.3745888" rx="0.552479835" ry="0.55343506"></ellipse>
                        <ellipse id="Oval" cx="43.9616097" cy="0.55343506" rx="0.552479835" ry="0.55343506"></ellipse>
                        <ellipse id="Oval" cx="22.2570448" cy="109.342955" rx="0.552479835" ry="0.55343506"></ellipse>
                        <ellipse id="Oval" cx="22.2570448" cy="87.6008637" rx="0.552479835" ry="0.55343506"></ellipse>
                        <ellipse id="Oval" cx="22.2570448" cy="65.8587721" rx="0.552479835" ry="0.55343506"></ellipse>
                        <ellipse id="Oval" cx="22.2570448" cy="44.1166805" rx="0.552479835" ry="0.55343506"></ellipse>
                        <ellipse id="Oval" cx="22.2570448" cy="22.3745888" rx="0.552479835" ry="0.55343506"></ellipse>
                        <ellipse id="Oval" cx="22.2570448" cy="0.55343506" rx="0.552479835" ry="0.55343506"></ellipse>
                        <ellipse id="Oval" cx="0.552479835" cy="109.342955" rx="0.552479835" ry="0.55343506"></ellipse>
                        <ellipse id="Oval" cx="0.552479835" cy="87.6008637" rx="0.552479835" ry="0.55343506"></ellipse>
                        <ellipse id="Oval" cx="0.552479835" cy="65.8587721" rx="0.552479835" ry="0.55343506"></ellipse>
                        <ellipse id="Oval" cx="0.552479835" cy="44.1166805" rx="0.552479835" ry="0.55343506"></ellipse>
                        <ellipse id="Oval" cx="0.552479835" cy="22.3745888" rx="0.552479835" ry="0.55343506"></ellipse>
                        <ellipse id="Oval" cx="0.552479835" cy="0.55343506" rx="0.552479835" ry="0.55343506"></ellipse>
                        <ellipse id="Oval" cx="240.840803" cy="109.342955" rx="0.552479835" ry="0.55343506"></ellipse>
                        <ellipse id="Oval" cx="240.840803" cy="87.6008637" rx="0.552479835" ry="0.55343506"></ellipse>
                        <ellipse id="Oval" cx="240.840803" cy="65.8587721" rx="0.552479835" ry="0.55343506"></ellipse>
                        <ellipse id="Oval" cx="240.840803" cy="44.1166805" rx="0.552479835" ry="0.55343506"></ellipse>
                        <ellipse id="Oval" cx="240.840803" cy="22.3745888" rx="0.552479835" ry="0.55343506"></ellipse>
                        <ellipse id="Oval" cx="240.840803" cy="0.55343506" rx="0.552479835" ry="0.55343506"></ellipse>
                        <ellipse id="Oval" cx="219.057312" cy="109.342955" rx="0.552479835" ry="0.55343506"></ellipse>
                        <ellipse id="Oval" cx="219.057312" cy="87.6008637" rx="0.552479835" ry="0.55343506"></ellipse>
                        <ellipse id="Oval" cx="219.057312" cy="65.8587721" rx="0.552479835" ry="0.55343506"></ellipse>
                        <ellipse id="Oval" cx="219.057312" cy="44.1166805" rx="0.552479835" ry="0.55343506"></ellipse>
                        <ellipse id="Oval" cx="219.057312" cy="22.3745888" rx="0.552479835" ry="0.55343506"></ellipse>
                        <ellipse id="Oval" cx="219.057312" cy="0.55343506" rx="0.552479835" ry="0.55343506"></ellipse>
                        <ellipse id="Oval" cx="197.352747" cy="109.342955" rx="0.552479835" ry="0.55343506"></ellipse>
                        <ellipse id="Oval" cx="197.352747" cy="87.6008637" rx="0.552479835" ry="0.55343506"></ellipse>
                        <ellipse id="Oval" cx="197.352747" cy="65.8587721" rx="0.552479835" ry="0.55343506"></ellipse>
                        <ellipse id="Oval" cx="197.352747" cy="44.1166805" rx="0.552479835" ry="0.55343506"></ellipse>
                        <ellipse id="Oval" cx="197.352747" cy="22.3745888" rx="0.552479835" ry="0.55343506"></ellipse>
                        <ellipse id="Oval" cx="197.352747" cy="0.55343506" rx="0.552479835" ry="0.55343506"></ellipse>
                        <ellipse id="Oval" cx="175.648182" cy="109.342955" rx="0.552479835" ry="0.55343506"></ellipse>
                        <ellipse id="Oval" cx="175.648182" cy="87.6008637" rx="0.552479835" ry="0.55343506"></ellipse>
                        <ellipse id="Oval" cx="175.648182" cy="65.8587721" rx="0.552479835" ry="0.55343506"></ellipse>
                        <ellipse id="Oval" cx="175.648182" cy="44.1166805" rx="0.552479835" ry="0.55343506"></ellipse>
                        <ellipse id="Oval" cx="175.648182" cy="22.3745888" rx="0.552479835" ry="0.55343506"></ellipse>
                        <ellipse id="Oval" cx="175.648182" cy="0.55343506" rx="0.552479835" ry="0.55343506"></ellipse>
                        <ellipse id="Oval" cx="153.943617" cy="109.342955" rx="0.552479835" ry="0.55343506"></ellipse>
                        <ellipse id="Oval" cx="153.943617" cy="87.6008637" rx="0.552479835" ry="0.55343506"></ellipse>
                        <ellipse id="Oval" cx="153.943617" cy="65.8587721" rx="0.552479835" ry="0.55343506"></ellipse>
                        <ellipse id="Oval" cx="153.943617" cy="44.1166805" rx="0.552479835" ry="0.55343506"></ellipse>
                        <ellipse id="Oval" cx="153.943617" cy="22.3745888" rx="0.552479835" ry="0.55343506"></ellipse>
                        <ellipse id="Oval" cx="153.943617" cy="0.55343506" rx="0.552479835" ry="0.55343506"></ellipse>
                        <ellipse id="Oval" cx="132.239053" cy="109.342955" rx="0.552479835" ry="0.55343506"></ellipse>
                        <ellipse id="Oval" cx="132.239053" cy="87.6008637" rx="0.552479835" ry="0.55343506"></ellipse>
                        <ellipse id="Oval" cx="132.239053" cy="65.8587721" rx="0.552479835" ry="0.55343506"></ellipse>
                        <ellipse id="Oval" cx="132.239053" cy="44.1166805" rx="0.552479835" ry="0.55343506"></ellipse>
                        <ellipse id="Oval" cx="132.239053" cy="22.3745888" rx="0.552479835" ry="0.55343506"></ellipse>
                        <ellipse id="Oval" cx="132.239053" cy="0.55343506" rx="0.552479835" ry="0.55343506"></ellipse>
                    </g>
                    <g id="Block" transform="translate(261.552594, 0.000000)">
                        <ellipse id="Oval" cx="65.6661747" cy="1.34295538" rx="0.552479835" ry="0.55343506"></ellipse>
                        <ellipse id="Oval" cx="43.9616097" cy="1.34295538" rx="0.552479835" ry="0.55343506"></ellipse>
                        <ellipse id="Oval" cx="22.2570448" cy="1.34295538" rx="0.552479835" ry="0.55343506"></ellipse>
                        <ellipse id="Oval" cx="0.552479835" cy="1.34295538" rx="0.552479835" ry="0.55343506"></ellipse>
                    </g>
                    <g id="Block" transform="translate(261.552594, 20.201717)">
                        <ellipse id="Oval" cx="65.6661747" cy="109.342955" rx="0.552479835" ry="0.55343506"></ellipse>
                        <ellipse id="Oval" cx="65.6661747" cy="87.6008637" rx="0.552479835" ry="0.55343506"></ellipse>
                        <ellipse id="Oval" cx="65.6661747" cy="65.8587721" rx="0.552479835" ry="0.55343506"></ellipse>
                        <ellipse id="Oval" cx="65.6661747" cy="44.1166805" rx="0.552479835" ry="0.55343506"></ellipse>
                        <ellipse id="Oval" cx="65.6661747" cy="22.3745888" rx="0.552479835" ry="0.55343506"></ellipse>
                        <ellipse id="Oval" cx="65.6661747" cy="0.55343506" rx="0.552479835" ry="0.55343506"></ellipse>
                        <ellipse id="Oval" cx="43.9616097" cy="109.342955" rx="0.552479835" ry="0.55343506"></ellipse>
                        <ellipse id="Oval" cx="43.9616097" cy="87.6008637" rx="0.552479835" ry="0.55343506"></ellipse>
                        <ellipse id="Oval" cx="43.9616097" cy="65.8587721" rx="0.552479835" ry="0.55343506"></ellipse>
                        <ellipse id="Oval" cx="43.9616097" cy="44.1166805" rx="0.552479835" ry="0.55343506"></ellipse>
                        <ellipse id="Oval" cx="43.9616097" cy="22.3745888" rx="0.552479835" ry="0.55343506"></ellipse>
                        <ellipse id="Oval" cx="43.9616097" cy="0.55343506" rx="0.552479835" ry="0.55343506"></ellipse>
                        <ellipse id="Oval" cx="22.2570448" cy="109.342955" rx="0.552479835" ry="0.55343506"></ellipse>
                        <ellipse id="Oval" cx="22.2570448" cy="87.6008637" rx="0.552479835" ry="0.55343506"></ellipse>
                        <ellipse id="Oval" cx="22.2570448" cy="65.8587721" rx="0.552479835" ry="0.55343506"></ellipse>
                        <ellipse id="Oval" cx="22.2570448" cy="44.1166805" rx="0.552479835" ry="0.55343506"></ellipse>
                        <ellipse id="Oval" cx="22.2570448" cy="22.3745888" rx="0.552479835" ry="0.55343506"></ellipse>
                        <ellipse id="Oval" cx="22.2570448" cy="0.55343506" rx="0.552479835" ry="0.55343506"></ellipse>
                        <ellipse id="Oval" cx="0.552479835" cy="109.342955" rx="0.552479835" ry="0.55343506"></ellipse>
                        <ellipse id="Oval" cx="0.552479835" cy="87.6008637" rx="0.552479835" ry="0.55343506"></ellipse>
                        <ellipse id="Oval" cx="0.552479835" cy="65.8587721" rx="0.552479835" ry="0.55343506"></ellipse>
                        <ellipse id="Oval" cx="0.552479835" cy="44.1166805" rx="0.552479835" ry="0.55343506"></ellipse>
                        <ellipse id="Oval" cx="0.552479835" cy="22.3745888" rx="0.552479835" ry="0.55343506"></ellipse>
                        <ellipse id="Oval" cx="0.552479835" cy="0.55343506" rx="0.552479835" ry="0.55343506"></ellipse>
                    </g>
                </g>
                <rect id="Rectangle-843" fill="#FFFFFF" x="57" y="28.0800018" width="218.5" height="78"></rect>
                <path d="M80.4,36.33 L80.4,57 L83.19,57 L83.19,36.33 L80.4,36.33 Z M91.02,49.44 C91.02,46.47 93,45.36 94.98,45.36 C96.9,45.36 98.07,46.74 98.07,49.08 L98.07,57 L100.8,57 L100.8,48.9 C100.8,44.97 98.88,42.69 95.4,42.69 C93.87,42.69 91.86,43.41 91.02,45.09 L91.02,42.99 L88.29,42.99 L88.29,57 L91.02,57 L91.02,49.44 Z M108.96,42.99 L108.96,37.71 L106.23,37.71 L106.23,42.99 L103.71,42.99 L103.71,45.3 L106.23,45.3 L106.23,57 L108.96,57 L108.96,45.3 L111.93,45.3 L111.93,42.99 L108.96,42.99 Z M128.22,49.95 C128.22,45.51 125.25,42.69 121.26,42.69 C117.27,42.69 114.09,45.51 114.09,49.95 C114.09,54.39 117.27,57.3 121.26,57.3 C123.96,57.3 126.51,56.04 127.71,53.58 C126.96,53.28 126.09,52.98 125.37,52.68 C124.59,54.06 123.03,54.84 121.35,54.84 C118.98,54.84 117.15,53.37 116.82,51.03 L128.19,51.03 C128.22,50.73 128.22,50.28 128.22,49.95 L128.22,49.95 Z M116.82,48.9 C117.15,46.56 118.95,45.15 121.26,45.15 C123.51,45.15 125.19,46.56 125.52,48.9 L116.82,48.9 Z M134.43,51.9 C134.43,48.18 135.57,45.3 138.27,45.3 C138.84,45.3 139.59,45.42 140.34,45.78 L140.76,43.23 C140.37,42.96 139.32,42.69 138.33,42.69 C136.5,42.69 135.15,43.68 134.43,46.14 L134.43,42.99 L131.7,42.99 L131.7,57 L134.43,57 L134.43,51.9 Z M147.81,54.87 C145.92,54.87 145.05,54 145.05,52.95 C145.05,52.02 145.59,50.76 148.47,50.76 C149.34,50.76 151.17,50.97 152.64,51.48 L152.64,52.5 C151.65,54.12 149.25,54.87 147.81,54.87 L147.81,54.87 Z M152.67,55.2 L152.67,57 L155.37,57 L155.37,48.57 C155.37,44.7 152.97,42.69 148.98,42.69 C147.15,42.69 144.66,43.2 143.16,45.33 L144.84,46.95 C145.83,45.81 147.42,45.15 148.77,45.15 C151.26,45.15 152.67,46.53 152.67,48.57 L152.67,49.29 C151.05,48.78 149.76,48.54 148.47,48.54 C144.09,48.54 142.47,50.55 142.47,52.95 C142.47,55.68 144.57,57.3 147.75,57.3 C149.49,57.3 151.65,56.64 152.67,55.2 L152.67,55.2 Z M158.82,49.95 C158.82,54.39 162.24,57.3 166.23,57.3 C168.39,57.3 170.34,56.46 171.66,55.02 L169.56,53.28 C168.72,54.15 167.52,54.66 166.23,54.66 C163.71,54.66 161.52,52.77 161.52,49.95 C161.52,47.13 163.71,45.36 166.23,45.36 C167.52,45.36 168.72,45.84 169.56,46.68 L171.63,44.94 C170.31,43.5 168.36,42.69 166.23,42.69 C162.24,42.69 158.82,45.51 158.82,49.95 L158.82,49.95 Z M178.89,42.99 L178.89,37.71 L176.16,37.71 L176.16,42.99 L173.64,42.99 L173.64,45.3 L176.16,45.3 L176.16,57 L178.89,57 L178.89,45.3 L181.86,45.3 L181.86,42.99 L178.89,42.99 Z M184.41,37.83 C184.41,38.85 185.28,39.6 186.3,39.6 C187.35,39.6 188.19,38.85 188.19,37.83 C188.19,36.81 187.35,36.06 186.3,36.06 C185.28,36.06 184.41,36.81 184.41,37.83 L184.41,37.83 Z M187.65,42.99 L184.95,42.99 L184.95,57 L187.65,57 L187.65,42.99 Z M198.87,57 L204.72,42.99 L201.81,42.99 L197.58,53.52 L193.32,42.99 L190.44,42.99 L196.26,57 L198.87,57 Z M220.71,49.95 C220.71,45.51 217.74,42.69 213.75,42.69 C209.76,42.69 206.58,45.51 206.58,49.95 C206.58,54.39 209.76,57.3 213.75,57.3 C216.45,57.3 219,56.04 220.2,53.58 C219.45,53.28 218.58,52.98 217.86,52.68 C217.08,54.06 215.52,54.84 213.84,54.84 C211.47,54.84 209.64,53.37 209.31,51.03 L220.68,51.03 C220.71,50.73 220.71,50.28 220.71,49.95 L220.71,49.95 Z M209.31,48.9 C209.64,46.56 211.44,45.15 213.75,45.15 C216,45.15 217.68,46.56 218.01,48.9 L209.31,48.9 Z M238.2,44.34 C236.64,44.34 235.56,42.93 235.56,41.49 C235.56,40.02 236.73,38.94 238.32,38.94 C239.46,38.94 240.48,39.63 241.08,40.65 L243.3,39.27 C242.28,37.53 240.42,36.33 238.32,36.33 C235.29,36.33 232.95,38.64 232.95,41.49 C232.95,42.93 233.46,44.31 234.42,45.21 C232.53,46.41 231.36,48.42 231.36,50.67 C231.36,54.36 234.12,57.27 238.11,57.27 C240.18,57.27 242.16,56.49 243.21,55.05 C243.99,56.34 245.7,57.27 247.95,57.27 L247.95,54.75 C245.25,54.75 244.83,52.92 244.83,50.67 L244.83,46.56 L247.44,46.56 L247.44,44.37 L244.83,44.37 L244.83,41.67 L242.25,41.67 L242.25,44.34 L238.2,44.34 Z M242.25,46.56 L242.25,50.85 C242.16,53.01 240.48,54.66 238.11,54.66 C235.62,54.66 233.97,52.92 233.97,50.67 C233.97,48.54 235.74,46.56 238.14,46.56 L242.25,46.56 Z M129.135,86.51 L121.845,71.33 L119.295,71.33 L116.775,92 L119.535,92 L121.425,76.46 L127.935,89.72 L130.395,89.72 L136.845,76.46 L138.735,92 L141.495,92 L138.975,71.33 L136.425,71.33 L129.135,86.51 Z M151.815,92.3 C155.805,92.3 159.165,89.39 159.165,84.95 C159.165,80.51 155.805,77.69 151.815,77.69 C147.825,77.69 144.495,80.51 144.495,84.95 C144.495,89.39 147.825,92.3 151.815,92.3 L151.815,92.3 Z M151.815,89.66 C149.295,89.66 147.195,87.8 147.195,84.95 C147.195,82.13 149.295,80.36 151.815,80.36 C154.335,80.36 156.435,82.13 156.435,84.95 C156.435,87.8 154.335,89.66 151.815,89.66 L151.815,89.66 Z M166.575,77.99 L166.575,72.71 L163.845,72.71 L163.845,77.99 L161.325,77.99 L161.325,80.3 L163.845,80.3 L163.845,92 L166.575,92 L166.575,80.3 L169.545,80.3 L169.545,77.99 L166.575,77.99 Z M172.095,72.83 C172.095,73.85 172.965,74.6 173.985,74.6 C175.035,74.6 175.875,73.85 175.875,72.83 C175.875,71.81 175.035,71.06 173.985,71.06 C172.965,71.06 172.095,71.81 172.095,72.83 L172.095,72.83 Z M175.335,77.99 L172.635,77.99 L172.635,92 L175.335,92 L175.335,77.99 Z M186.285,92.3 C190.275,92.3 193.635,89.39 193.635,84.95 C193.635,80.51 190.275,77.69 186.285,77.69 C182.295,77.69 178.965,80.51 178.965,84.95 C178.965,89.39 182.295,92.3 186.285,92.3 L186.285,92.3 Z M186.285,89.66 C183.765,89.66 181.665,87.8 181.665,84.95 C181.665,82.13 183.765,80.36 186.285,80.36 C188.805,80.36 190.905,82.13 190.905,84.95 C190.905,87.8 188.805,89.66 186.285,89.66 L186.285,89.66 Z M199.995,84.44 C199.995,81.47 201.975,80.36 203.955,80.36 C205.875,80.36 207.045,81.74 207.045,84.08 L207.045,92 L209.775,92 L209.775,83.9 C209.775,79.97 207.855,77.69 204.375,77.69 C202.845,77.69 200.835,78.41 199.995,80.09 L199.995,77.99 L197.265,77.99 L197.265,92 L199.995,92 L199.995,84.44 Z" id="Interactive-&amp;" fill="#182226"></path>
                <path d="M98.587156,0.309045226 C92.624836,0.309045226 87.7912844,5.14849497 87.7912844,11.1180905 C87.7912844,17.0876859 92.624836,21.9271357 98.587156,21.9271357 C104.549476,21.9271357 109.383028,17.0876859 109.383028,11.1180905 C109.383028,5.14849497 104.549476,0.309045226 98.587156,0.309045226 Z" id="Fill-14" fill="#EE4A62" style="mix-blend-mode: darken;"></path>
                <path d="M208.795872,108 C202.833552,108 198,112.83945 198,118.809045 C198,124.778641 202.833552,129.61809 208.795872,129.61809 C214.758192,129.61809 219.591743,124.778641 219.591743,118.809045 C219.591743,112.83945 214.758192,108 208.795872,108 Z" id="Fill-14" fill="#EE4A62" style="mix-blend-mode: darken;"></path>
                <g id="Group-2" transform="translate(0.000000, 20.000000)">
                    <path d="M21.8444444,42.94 L21.8444444,87.9999979 L66,88 L21.8444444,42.94 Z" id="Shape-Copy-25" fill="#7CBDDF" style="mix-blend-mode: darken;"></path>
                    <path d="M283,0 L283,45.0599979 L327.155556,45.06 L283,0 Z" id="Shape-Copy-27" fill="#7CBDDF" style="mix-blend-mode: darken;" transform="translate(305.077778, 22.530000) rotate(-180.000000) translate(-305.077778, -22.530000) "></path>
                    <path d="M0,23 L44.1555556,23 L44.1555556,109.724573 L0,109.724571 L0,23 Z" id="Rectangle-path-Copy-22" fill="#FCD315" style="mix-blend-mode: darken;"></path>
                </g>
            </g>
        </g>
    </g>
</svg>