<?xml version="1.0" encoding="UTF-8" standalone="no"?>
<svg width="244px" height="144px" viewBox="0 0 244 144" version="1.1" xmlns="http://www.w3.org/2000/svg" xmlns:xlink="http://www.w3.org/1999/xlink">
    <!-- Generator: Sketch 3.6.1 (26313) - http://www.bohemiancoding.com/sketch -->
    <title>interactive-mobile</title>
    <desc>Created with Sketch.</desc>
    <defs></defs>
    <g id="Page-1-Copy" stroke="none" stroke-width="1" fill="none" fill-rule="evenodd">
        <g id="interactive-mobile">
            <g id="Dot-Copy-932" transform="translate(240.500000, 140.500000)">
                <rect id="Grid-Unit" x="0" y="0" width="20" height="20"></rect>
                <circle id="Dot" fill="#000000" cx="1.5" cy="1.5" r="1.5"></circle>
            </g>
            <g id="Dot-Copy-931" transform="translate(220.500000, 140.500000)">
                <rect id="Grid-Unit" x="0" y="0" width="20" height="20"></rect>
                <circle id="Dot" fill="#000000" cx="1.5" cy="1.5" r="1.5"></circle>
            </g>
            <g id="Dot-Copy-930" transform="translate(200.500000, 140.500000)">
                <rect id="Grid-Unit" x="0" y="0" width="20" height="20"></rect>
                <circle id="Dot" fill="#000000" cx="1.5" cy="1.5" r="1.5"></circle>
            </g>
            <g id="Dot-Copy-929" transform="translate(180.500000, 140.500000)">
                <rect id="Grid-Unit" x="0" y="0" width="20" height="20"></rect>
                <circle id="Dot" fill="#000000" cx="1.5" cy="1.5" r="1.5"></circle>
            </g>
            <g id="Dot-Copy-928" transform="translate(160.500000, 140.500000)">
                <rect id="Grid-Unit" x="0" y="0" width="20" height="20"></rect>
                <circle id="Dot" fill="#000000" cx="1.5" cy="1.5" r="1.5"></circle>
            </g>
            <g id="Dot-Copy-927" transform="translate(140.500000, 140.500000)">
                <rect id="Grid-Unit" x="0" y="0" width="20" height="20"></rect>
                <circle id="Dot" fill="#000000" cx="1.5" cy="1.5" r="1.5"></circle>
            </g>
            <g id="Dot-Copy-926" transform="translate(120.500000, 140.500000)">
                <rect id="Grid-Unit" x="0" y="0" width="20" height="20"></rect>
                <circle id="Dot" fill="#000000" cx="1.5" cy="1.5" r="1.5"></circle>
            </g>
            <g id="Dot-Copy-925" transform="translate(100.500000, 140.500000)">
                <rect id="Grid-Unit" x="0" y="0" width="20" height="20"></rect>
                <circle id="Dot" fill="#000000" cx="1.5" cy="1.5" r="1.5"></circle>
            </g>
            <g id="Dot-Copy-924" transform="translate(80.500000, 140.500000)">
                <rect id="Grid-Unit" x="0" y="0" width="20" height="20"></rect>
                <circle id="Dot" fill="#000000" cx="1.5" cy="1.5" r="1.5"></circle>
            </g>
            <g id="Dot-Copy-923" transform="translate(60.500000, 140.500000)">
                <rect id="Grid-Unit" x="0" y="0" width="20" height="20"></rect>
                <circle id="Dot" fill="#000000" cx="1.5" cy="1.5" r="1.5"></circle>
            </g>
            <g id="Dot-Copy-922" transform="translate(40.500000, 140.500000)">
                <rect id="Grid-Unit" x="0" y="0" width="20" height="20"></rect>
                <circle id="Dot" fill="#000000" cx="1.5" cy="1.5" r="1.5"></circle>
            </g>
            <g id="Dot-Copy-921" transform="translate(20.500000, 140.500000)">
                <rect id="Grid-Unit" x="0" y="0" width="20" height="20"></rect>
                <circle id="Dot" fill="#000000" cx="1.5" cy="1.5" r="1.5"></circle>
            </g>
            <g id="Dot-Copy-920" transform="translate(0.500000, 140.500000)">
                <rect id="Grid-Unit" x="0" y="0" width="20" height="20"></rect>
                <circle id="Dot" fill="#000000" cx="1.5" cy="1.5" r="1.5"></circle>
            </g>
            <g id="Dot-Copy-918" transform="translate(240.500000, 120.500000)">
                <rect id="Grid-Unit" x="0" y="0" width="20" height="20"></rect>
                <circle id="Dot" fill="#000000" cx="1.5" cy="1.5" r="1.5"></circle>
            </g>
            <g id="Dot-Copy-917" transform="translate(220.500000, 120.500000)">
                <rect id="Grid-Unit" x="0" y="0" width="20" height="20"></rect>
                <circle id="Dot" fill="#000000" cx="1.5" cy="1.5" r="1.5"></circle>
            </g>
            <g id="Dot-Copy-916" transform="translate(200.500000, 120.500000)">
                <rect id="Grid-Unit" x="0" y="0" width="20" height="20"></rect>
                <circle id="Dot" fill="#000000" cx="1.5" cy="1.5" r="1.5"></circle>
            </g>
            <g id="Dot-Copy-915" transform="translate(180.500000, 120.500000)">
                <rect id="Grid-Unit" x="0" y="0" width="20" height="20"></rect>
                <circle id="Dot" fill="#000000" cx="1.5" cy="1.5" r="1.5"></circle>
            </g>
            <g id="Dot-Copy-914" transform="translate(160.500000, 120.500000)">
                <rect id="Grid-Unit" x="0" y="0" width="20" height="20"></rect>
                <circle id="Dot" fill="#000000" cx="1.5" cy="1.5" r="1.5"></circle>
            </g>
            <g id="Dot-Copy-913" transform="translate(140.500000, 120.500000)">
                <rect id="Grid-Unit" x="0" y="0" width="20" height="20"></rect>
                <circle id="Dot" fill="#000000" cx="1.5" cy="1.5" r="1.5"></circle>
            </g>
            <g id="Dot-Copy-912" transform="translate(120.500000, 120.500000)">
                <rect id="Grid-Unit" x="0" y="0" width="20" height="20"></rect>
                <circle id="Dot" fill="#000000" cx="1.5" cy="1.5" r="1.5"></circle>
            </g>
            <g id="Dot-Copy-911" transform="translate(100.500000, 120.500000)">
                <rect id="Grid-Unit" x="0" y="0" width="20" height="20"></rect>
                <circle id="Dot" fill="#000000" cx="1.5" cy="1.5" r="1.5"></circle>
            </g>
            <g id="Dot-Copy-910" transform="translate(80.500000, 120.500000)">
                <rect id="Grid-Unit" x="0" y="0" width="20" height="20"></rect>
                <circle id="Dot" fill="#000000" cx="1.5" cy="1.5" r="1.5"></circle>
            </g>
            <g id="Dot-Copy-909" transform="translate(60.500000, 120.500000)">
                <rect id="Grid-Unit" x="0" y="0" width="20" height="20"></rect>
                <circle id="Dot" fill="#000000" cx="1.5" cy="1.5" r="1.5"></circle>
            </g>
            <g id="Dot-Copy-908" transform="translate(40.500000, 120.500000)">
                <rect id="Grid-Unit" x="0" y="0" width="20" height="20"></rect>
                <circle id="Dot" fill="#000000" cx="1.5" cy="1.5" r="1.5"></circle>
            </g>
            <g id="Dot-Copy-907" transform="translate(20.500000, 120.500000)">
                <rect id="Grid-Unit" x="0" y="0" width="20" height="20"></rect>
                <circle id="Dot" fill="#000000" cx="1.5" cy="1.5" r="1.5"></circle>
            </g>
            <g id="Dot-Copy-906" transform="translate(0.500000, 120.500000)">
                <rect id="Grid-Unit" x="0" y="0" width="20" height="20"></rect>
                <circle id="Dot" fill="#000000" cx="1.5" cy="1.5" r="1.5"></circle>
            </g>
            <g id="Dot-Copy-904" transform="translate(240.500000, 100.500000)">
                <rect id="Grid-Unit" x="0" y="0" width="20" height="20"></rect>
                <circle id="Dot" fill="#000000" cx="1.5" cy="1.5" r="1.5"></circle>
            </g>
            <g id="Dot-Copy-903" transform="translate(220.500000, 100.500000)">
                <rect id="Grid-Unit" x="0" y="0" width="20" height="20"></rect>
                <circle id="Dot" fill="#000000" cx="1.5" cy="1.5" r="1.5"></circle>
            </g>
            <g id="Dot-Copy-902" transform="translate(200.500000, 100.500000)">
                <rect id="Grid-Unit" x="0" y="0" width="20" height="20"></rect>
                <circle id="Dot" fill="#000000" cx="1.5" cy="1.5" r="1.5"></circle>
            </g>
            <g id="Dot-Copy-901" transform="translate(180.500000, 100.500000)">
                <rect id="Grid-Unit" x="0" y="0" width="20" height="20"></rect>
                <circle id="Dot" fill="#000000" cx="1.5" cy="1.5" r="1.5"></circle>
            </g>
            <g id="Dot-Copy-900" transform="translate(160.500000, 100.500000)">
                <rect id="Grid-Unit" x="0" y="0" width="20" height="20"></rect>
                <circle id="Dot" fill="#000000" cx="1.5" cy="1.5" r="1.5"></circle>
            </g>
            <g id="Dot-Copy-899" transform="translate(140.500000, 100.500000)">
                <rect id="Grid-Unit" x="0" y="0" width="20" height="20"></rect>
                <circle id="Dot" fill="#000000" cx="1.5" cy="1.5" r="1.5"></circle>
            </g>
            <g id="Dot-Copy-898" transform="translate(120.500000, 100.500000)">
                <rect id="Grid-Unit" x="0" y="0" width="20" height="20"></rect>
                <circle id="Dot" fill="#000000" cx="1.5" cy="1.5" r="1.5"></circle>
            </g>
            <g id="Dot-Copy-897" transform="translate(100.500000, 100.500000)">
                <rect id="Grid-Unit" x="0" y="0" width="20" height="20"></rect>
                <circle id="Dot" fill="#000000" cx="1.5" cy="1.5" r="1.5"></circle>
            </g>
            <g id="Dot-Copy-896" transform="translate(80.500000, 100.500000)">
                <rect id="Grid-Unit" x="0" y="0" width="20" height="20"></rect>
                <circle id="Dot" fill="#000000" cx="1.5" cy="1.5" r="1.5"></circle>
            </g>
            <g id="Dot-Copy-895" transform="translate(60.500000, 100.500000)">
                <rect id="Grid-Unit" x="0" y="0" width="20" height="20"></rect>
                <circle id="Dot" fill="#000000" cx="1.5" cy="1.5" r="1.5"></circle>
            </g>
            <g id="Dot-Copy-894" transform="translate(40.500000, 100.500000)">
                <rect id="Grid-Unit" x="0" y="0" width="20" height="20"></rect>
                <circle id="Dot" fill="#000000" cx="1.5" cy="1.5" r="1.5"></circle>
            </g>
            <g id="Dot-Copy-893" transform="translate(20.500000, 100.500000)">
                <rect id="Grid-Unit" x="0" y="0" width="20" height="20"></rect>
                <circle id="Dot" fill="#000000" cx="1.5" cy="1.5" r="1.5"></circle>
            </g>
            <g id="Dot-Copy-892" transform="translate(0.500000, 100.500000)">
                <rect id="Grid-Unit" x="0" y="0" width="20" height="20"></rect>
                <circle id="Dot" fill="#000000" cx="1.5" cy="1.5" r="1.5"></circle>
            </g>
            <g id="Dot-Copy-890" transform="translate(240.500000, 80.500000)">
                <rect id="Grid-Unit" x="0" y="0" width="20" height="20"></rect>
                <circle id="Dot" fill="#000000" cx="1.5" cy="1.5" r="1.5"></circle>
            </g>
            <g id="Dot-Copy-889" transform="translate(220.500000, 80.500000)">
                <rect id="Grid-Unit" x="0" y="0" width="20" height="20"></rect>
                <circle id="Dot" fill="#000000" cx="1.5" cy="1.5" r="1.5"></circle>
            </g>
            <g id="Dot-Copy-888" transform="translate(200.500000, 80.500000)">
                <rect id="Grid-Unit" x="0" y="0" width="20" height="20"></rect>
                <circle id="Dot" fill="#000000" cx="1.5" cy="1.5" r="1.5"></circle>
            </g>
            <g id="Dot-Copy-887" transform="translate(180.500000, 80.500000)">
                <rect id="Grid-Unit" x="0" y="0" width="20" height="20"></rect>
                <circle id="Dot" fill="#000000" cx="1.5" cy="1.5" r="1.5"></circle>
            </g>
            <g id="Dot-Copy-886" transform="translate(160.500000, 80.500000)">
                <rect id="Grid-Unit" x="0" y="0" width="20" height="20"></rect>
                <circle id="Dot" fill="#000000" cx="1.5" cy="1.5" r="1.5"></circle>
            </g>
            <g id="Dot-Copy-885" transform="translate(140.500000, 80.500000)">
                <rect id="Grid-Unit" x="0" y="0" width="20" height="20"></rect>
                <circle id="Dot" fill="#000000" cx="1.5" cy="1.5" r="1.5"></circle>
            </g>
            <g id="Dot-Copy-884" transform="translate(120.500000, 80.500000)">
                <rect id="Grid-Unit" x="0" y="0" width="20" height="20"></rect>
                <circle id="Dot" fill="#000000" cx="1.5" cy="1.5" r="1.5"></circle>
            </g>
            <g id="Dot-Copy-883" transform="translate(100.500000, 80.500000)">
                <rect id="Grid-Unit" x="0" y="0" width="20" height="20"></rect>
                <circle id="Dot" fill="#000000" cx="1.5" cy="1.5" r="1.5"></circle>
            </g>
            <g id="Dot-Copy-882" transform="translate(80.500000, 80.500000)">
                <rect id="Grid-Unit" x="0" y="0" width="20" height="20"></rect>
                <circle id="Dot" fill="#000000" cx="1.5" cy="1.5" r="1.5"></circle>
            </g>
            <g id="Dot-Copy-881" transform="translate(60.500000, 80.500000)">
                <rect id="Grid-Unit" x="0" y="0" width="20" height="20"></rect>
                <circle id="Dot" fill="#000000" cx="1.5" cy="1.5" r="1.5"></circle>
            </g>
            <g id="Dot-Copy-880" transform="translate(40.500000, 80.500000)">
                <rect id="Grid-Unit" x="0" y="0" width="20" height="20"></rect>
                <circle id="Dot" fill="#000000" cx="1.5" cy="1.5" r="1.5"></circle>
            </g>
            <g id="Dot-Copy-879" transform="translate(20.500000, 80.500000)">
                <rect id="Grid-Unit" x="0" y="0" width="20" height="20"></rect>
                <circle id="Dot" fill="#000000" cx="1.5" cy="1.5" r="1.5"></circle>
            </g>
            <g id="Dot-Copy-878" transform="translate(0.500000, 80.500000)">
                <rect id="Grid-Unit" x="0" y="0" width="20" height="20"></rect>
                <circle id="Dot" fill="#000000" cx="1.5" cy="1.5" r="1.5"></circle>
            </g>
            <g id="Dot-Copy-876" transform="translate(240.500000, 60.500000)">
                <rect id="Grid-Unit" x="0" y="0" width="20" height="20"></rect>
                <circle id="Dot" fill="#000000" cx="1.5" cy="1.5" r="1.5"></circle>
            </g>
            <g id="Dot-Copy-875" transform="translate(220.500000, 60.500000)">
                <rect id="Grid-Unit" x="0" y="0" width="20" height="20"></rect>
                <circle id="Dot" fill="#000000" cx="1.5" cy="1.5" r="1.5"></circle>
            </g>
            <g id="Dot-Copy-874" transform="translate(200.500000, 60.500000)">
                <rect id="Grid-Unit" x="0" y="0" width="20" height="20"></rect>
                <circle id="Dot" fill="#000000" cx="1.5" cy="1.5" r="1.5"></circle>
            </g>
            <g id="Dot-Copy-873" transform="translate(180.500000, 60.500000)">
                <rect id="Grid-Unit" x="0" y="0" width="20" height="20"></rect>
                <circle id="Dot" fill="#000000" cx="1.5" cy="1.5" r="1.5"></circle>
            </g>
            <g id="Dot-Copy-872" transform="translate(160.500000, 60.500000)">
                <rect id="Grid-Unit" x="0" y="0" width="20" height="20"></rect>
                <circle id="Dot" fill="#000000" cx="1.5" cy="1.5" r="1.5"></circle>
            </g>
            <g id="Dot-Copy-871" transform="translate(140.500000, 60.500000)">
                <rect id="Grid-Unit" x="0" y="0" width="20" height="20"></rect>
                <circle id="Dot" fill="#000000" cx="1.5" cy="1.5" r="1.5"></circle>
            </g>
            <g id="Dot-Copy-870" transform="translate(120.500000, 60.500000)">
                <rect id="Grid-Unit" x="0" y="0" width="20" height="20"></rect>
                <circle id="Dot" fill="#000000" cx="1.5" cy="1.5" r="1.5"></circle>
            </g>
            <g id="Dot-Copy-869" transform="translate(100.500000, 60.500000)">
                <rect id="Grid-Unit" x="0" y="0" width="20" height="20"></rect>
                <circle id="Dot" fill="#000000" cx="1.5" cy="1.5" r="1.5"></circle>
            </g>
            <g id="Dot-Copy-868" transform="translate(80.500000, 60.500000)">
                <rect id="Grid-Unit" x="0" y="0" width="20" height="20"></rect>
                <circle id="Dot" fill="#000000" cx="1.5" cy="1.5" r="1.5"></circle>
            </g>
            <g id="Dot-Copy-867" transform="translate(60.500000, 60.500000)">
                <rect id="Grid-Unit" x="0" y="0" width="20" height="20"></rect>
                <circle id="Dot" fill="#000000" cx="1.5" cy="1.5" r="1.5"></circle>
            </g>
            <g id="Dot-Copy-866" transform="translate(40.500000, 60.500000)">
                <rect id="Grid-Unit" x="0" y="0" width="20" height="20"></rect>
                <circle id="Dot" fill="#000000" cx="1.5" cy="1.5" r="1.5"></circle>
            </g>
            <g id="Dot-Copy-865" transform="translate(20.500000, 60.500000)">
                <rect id="Grid-Unit" x="0" y="0" width="20" height="20"></rect>
                <circle id="Dot" fill="#000000" cx="1.5" cy="1.5" r="1.5"></circle>
            </g>
            <g id="Dot-Copy-864" transform="translate(0.500000, 60.500000)">
                <rect id="Grid-Unit" x="0" y="0" width="20" height="20"></rect>
                <circle id="Dot" fill="#000000" cx="1.5" cy="1.5" r="1.5"></circle>
            </g>
            <g id="Dot-Copy-862" transform="translate(240.500000, 40.500000)">
                <rect id="Grid-Unit" x="0" y="0" width="20" height="20"></rect>
                <circle id="Dot" fill="#000000" cx="1.5" cy="1.5" r="1.5"></circle>
            </g>
            <g id="Dot-Copy-861" transform="translate(220.500000, 40.500000)">
                <rect id="Grid-Unit" x="0" y="0" width="20" height="20"></rect>
                <circle id="Dot" fill="#000000" cx="1.5" cy="1.5" r="1.5"></circle>
            </g>
            <g id="Dot-Copy-860" transform="translate(200.500000, 40.500000)">
                <rect id="Grid-Unit" x="0" y="0" width="20" height="20"></rect>
                <circle id="Dot" fill="#000000" cx="1.5" cy="1.5" r="1.5"></circle>
            </g>
            <g id="Dot-Copy-859" transform="translate(180.500000, 40.500000)">
                <rect id="Grid-Unit" x="0" y="0" width="20" height="20"></rect>
                <circle id="Dot" fill="#000000" cx="1.5" cy="1.5" r="1.5"></circle>
            </g>
            <g id="Dot-Copy-858" transform="translate(160.500000, 40.500000)">
                <rect id="Grid-Unit" x="0" y="0" width="20" height="20"></rect>
                <circle id="Dot" fill="#000000" cx="1.5" cy="1.5" r="1.5"></circle>
            </g>
            <g id="Dot-Copy-857" transform="translate(140.500000, 40.500000)">
                <rect id="Grid-Unit" x="0" y="0" width="20" height="20"></rect>
                <circle id="Dot" fill="#000000" cx="1.5" cy="1.5" r="1.5"></circle>
            </g>
            <g id="Dot-Copy-856" transform="translate(120.500000, 40.500000)">
                <rect id="Grid-Unit" x="0" y="0" width="20" height="20"></rect>
                <circle id="Dot" fill="#000000" cx="1.5" cy="1.5" r="1.5"></circle>
            </g>
            <g id="Dot-Copy-855" transform="translate(100.500000, 40.500000)">
                <rect id="Grid-Unit" x="0" y="0" width="20" height="20"></rect>
                <circle id="Dot" fill="#000000" cx="1.5" cy="1.5" r="1.5"></circle>
            </g>
            <g id="Dot-Copy-854" transform="translate(80.500000, 40.500000)">
                <rect id="Grid-Unit" x="0" y="0" width="20" height="20"></rect>
                <circle id="Dot" fill="#000000" cx="1.5" cy="1.5" r="1.5"></circle>
            </g>
            <g id="Dot-Copy-853" transform="translate(60.500000, 40.500000)">
                <rect id="Grid-Unit" x="0" y="0" width="20" height="20"></rect>
                <circle id="Dot" fill="#000000" cx="1.5" cy="1.5" r="1.5"></circle>
            </g>
            <g id="Dot-Copy-852" transform="translate(40.500000, 40.500000)">
                <rect id="Grid-Unit" x="0" y="0" width="20" height="20"></rect>
                <circle id="Dot" fill="#000000" cx="1.5" cy="1.5" r="1.5"></circle>
            </g>
            <g id="Dot-Copy-851" transform="translate(20.500000, 40.500000)">
                <rect id="Grid-Unit" x="0" y="0" width="20" height="20"></rect>
                <circle id="Dot" fill="#000000" cx="1.5" cy="1.5" r="1.5"></circle>
            </g>
            <g id="Dot-Copy-850" transform="translate(0.500000, 40.500000)">
                <rect id="Grid-Unit" x="0" y="0" width="20" height="20"></rect>
                <circle id="Dot" fill="#000000" cx="1.5" cy="1.5" r="1.5"></circle>
            </g>
            <g id="Dot-Copy-848" transform="translate(240.500000, 20.500000)">
                <rect id="Grid-Unit" x="0" y="0" width="20" height="20"></rect>
                <circle id="Dot" fill="#000000" cx="1.5" cy="1.5" r="1.5"></circle>
            </g>
            <g id="Dot-Copy-847" transform="translate(220.500000, 20.500000)">
                <rect id="Grid-Unit" x="0" y="0" width="20" height="20"></rect>
                <circle id="Dot" fill="#000000" cx="1.5" cy="1.5" r="1.5"></circle>
            </g>
            <g id="Dot-Copy-846" transform="translate(200.500000, 20.500000)">
                <rect id="Grid-Unit" x="0" y="0" width="20" height="20"></rect>
                <circle id="Dot" fill="#000000" cx="1.5" cy="1.5" r="1.5"></circle>
            </g>
            <g id="Dot-Copy-845" transform="translate(180.500000, 20.500000)">
                <rect id="Grid-Unit" x="0" y="0" width="20" height="20"></rect>
                <circle id="Dot" fill="#000000" cx="1.5" cy="1.5" r="1.5"></circle>
            </g>
            <g id="Dot-Copy-844" transform="translate(160.500000, 20.500000)">
                <rect id="Grid-Unit" x="0" y="0" width="20" height="20"></rect>
                <circle id="Dot" fill="#000000" cx="1.5" cy="1.5" r="1.5"></circle>
            </g>
            <g id="Dot-Copy-843" transform="translate(140.500000, 20.500000)">
                <rect id="Grid-Unit" x="0" y="0" width="20" height="20"></rect>
                <circle id="Dot" fill="#000000" cx="1.5" cy="1.5" r="1.5"></circle>
            </g>
            <g id="Dot-Copy-842" transform="translate(120.500000, 20.500000)">
                <rect id="Grid-Unit" x="0" y="0" width="20" height="20"></rect>
                <circle id="Dot" fill="#000000" cx="1.5" cy="1.5" r="1.5"></circle>
            </g>
            <g id="Dot-Copy-841" transform="translate(100.500000, 20.500000)">
                <rect id="Grid-Unit" x="0" y="0" width="20" height="20"></rect>
                <circle id="Dot" fill="#000000" cx="1.5" cy="1.5" r="1.5"></circle>
            </g>
            <g id="Dot-Copy-840" transform="translate(80.500000, 20.500000)">
                <rect id="Grid-Unit" x="0" y="0" width="20" height="20"></rect>
                <circle id="Dot" fill="#000000" cx="1.5" cy="1.5" r="1.5"></circle>
            </g>
            <g id="Dot-Copy-839" transform="translate(60.500000, 20.500000)">
                <rect id="Grid-Unit" x="0" y="0" width="20" height="20"></rect>
                <circle id="Dot" fill="#000000" cx="1.5" cy="1.5" r="1.5"></circle>
            </g>
            <g id="Dot-Copy-838" transform="translate(40.500000, 20.500000)">
                <rect id="Grid-Unit" x="0" y="0" width="20" height="20"></rect>
                <circle id="Dot" fill="#000000" cx="1.5" cy="1.5" r="1.5"></circle>
            </g>
            <g id="Dot-Copy-837" transform="translate(20.500000, 20.500000)">
                <rect id="Grid-Unit" x="0" y="0" width="20" height="20"></rect>
                <circle id="Dot" fill="#000000" cx="1.5" cy="1.5" r="1.5"></circle>
            </g>
            <g id="Dot-Copy-836" transform="translate(0.500000, 20.500000)">
                <rect id="Grid-Unit" x="0" y="0" width="20" height="20"></rect>
                <circle id="Dot" fill="#000000" cx="1.5" cy="1.5" r="1.5"></circle>
            </g>
            <g id="Dot-Copy-834" transform="translate(240.500000, 0.500000)">
                <rect id="Grid-Unit" x="0" y="0" width="20" height="20"></rect>
                <circle id="Dot" fill="#000000" cx="1.5" cy="1.5" r="1.5"></circle>
            </g>
            <g id="Dot-Copy-833" transform="translate(220.500000, 0.500000)">
                <rect id="Grid-Unit" x="0" y="0" width="20" height="20"></rect>
                <circle id="Dot" fill="#000000" cx="1.5" cy="1.5" r="1.5"></circle>
            </g>
            <g id="Dot-Copy-832" transform="translate(200.500000, 0.500000)">
                <rect id="Grid-Unit" x="0" y="0" width="20" height="20"></rect>
                <circle id="Dot" fill="#000000" cx="1.5" cy="1.5" r="1.5"></circle>
            </g>
            <g id="Dot-Copy-831" transform="translate(180.500000, 0.500000)">
                <rect id="Grid-Unit" x="0" y="0" width="20" height="20"></rect>
                <circle id="Dot" fill="#000000" cx="1.5" cy="1.5" r="1.5"></circle>
            </g>
            <g id="Dot-Copy-830" transform="translate(160.500000, 0.500000)">
                <rect id="Grid-Unit" x="0" y="0" width="20" height="20"></rect>
                <circle id="Dot" fill="#000000" cx="1.5" cy="1.5" r="1.5"></circle>
            </g>
            <g id="Dot-Copy-829" transform="translate(140.500000, 0.500000)">
                <rect id="Grid-Unit" x="0" y="0" width="20" height="20"></rect>
                <circle id="Dot" fill="#000000" cx="1.5" cy="1.5" r="1.5"></circle>
            </g>
            <g id="Dot-Copy-828" transform="translate(120.500000, 0.500000)">
                <rect id="Grid-Unit" x="0" y="0" width="20" height="20"></rect>
                <circle id="Dot" fill="#000000" cx="1.5" cy="1.5" r="1.5"></circle>
            </g>
            <g id="Dot-Copy-827" transform="translate(100.500000, 0.500000)">
                <rect id="Grid-Unit" x="0" y="0" width="20" height="20"></rect>
                <circle id="Dot" fill="#000000" cx="1.5" cy="1.5" r="1.5"></circle>
            </g>
            <g id="Dot-Copy-826" transform="translate(80.500000, 0.500000)">
                <rect id="Grid-Unit" x="0" y="0" width="20" height="20"></rect>
                <circle id="Dot" fill="#000000" cx="1.5" cy="1.5" r="1.5"></circle>
            </g>
            <g id="Dot-Copy-825" transform="translate(60.500000, 0.500000)">
                <rect id="Grid-Unit" x="0" y="0" width="20" height="20"></rect>
                <circle id="Dot" fill="#000000" cx="1.5" cy="1.5" r="1.5"></circle>
            </g>
            <g id="Dot-Copy-824" transform="translate(40.500000, 0.500000)">
                <rect id="Grid-Unit" x="0" y="0" width="20" height="20"></rect>
                <circle id="Dot" fill="#000000" cx="1.5" cy="1.5" r="1.5"></circle>
            </g>
            <g id="Dot-Copy-823" transform="translate(20.500000, 0.500000)">
                <rect id="Grid-Unit" x="0" y="0" width="20" height="20"></rect>
                <circle id="Dot" fill="#000000" cx="1.5" cy="1.5" r="1.5"></circle>
            </g>
            <g id="Dot-Copy-822" transform="translate(0.500000, 0.500000)">
                <rect id="Grid-Unit" x="0" y="0" width="20" height="20"></rect>
                <circle id="Dot" fill="#000000" cx="1.5" cy="1.5" r="1.5"></circle>
            </g>
            <g id="interactive-copy-2" transform="translate(2.000000, 15.000000)">
                <rect id="Rectangle-843" fill="#FFFFFF" x="73.7243675" y="0" width="160.275632" height="62"></rect>
                <path d="M84.064,5.464 L84.064,22 L87.112,22 L87.112,5.464 L84.064,5.464 Z M93.6,22 L93.6,16.024 C93.6,14.08 94.728,13.408 96.048,13.408 C97.32,13.408 98.184,14.272 98.184,15.904 L98.184,22 L101.112,22 L101.112,15.376 C101.112,12.208 99.552,10.552 96.936,10.552 C95.64,10.552 94.224,11.248 93.6,12.448 L93.6,10.792 L90.672,10.792 L90.672,22 L93.6,22 Z M107.96,10.792 L107.96,6.52 L105.056,6.52 L105.056,10.792 L103.016,10.792 L103.016,13.144 L105.056,13.144 L105.056,22 L107.96,22 L107.96,13.144 L110.336,13.144 L110.336,10.792 L107.96,10.792 Z M123.04,16.36 C123.04,12.832 120.544,10.552 117.352,10.552 C114.16,10.552 111.544,12.832 111.544,16.36 C111.544,19.888 114.16,22.24 117.352,22.24 C119.416,22.24 121.576,21.448 122.584,19.528 C121.864,19.144 121.048,18.712 120.352,18.328 C119.824,19.288 118.672,19.768 117.544,19.768 C115.888,19.768 114.64,18.856 114.448,17.368 L122.992,17.368 C123.016,17.104 123.04,16.648 123.04,16.36 L123.04,16.36 Z M120.184,15.376 L114.424,15.376 C114.64,13.864 115.84,13 117.376,13 C118.816,13 119.968,13.84 120.184,15.376 L120.184,15.376 Z M128.28,18.04 C128.28,15.064 129.096,13.288 131.088,13.288 C131.376,13.288 132.096,13.288 132.792,13.6 L133.296,10.96 C132.84,10.72 132.24,10.552 131.448,10.552 C130.176,10.552 128.856,11.392 128.28,13.432 L128.28,10.792 L125.352,10.792 L125.352,22 L128.28,22 L128.28,18.04 Z M134.624,12.856 L136.352,14.512 C137.144,13.48 138.464,13.12 139.352,13.12 C140.888,13.12 141.776,14.128 141.776,15.352 L141.776,15.784 C141.056,15.304 139.616,15.04 138.92,15.04 C135.368,15.04 134.072,16.6 134.072,18.568 C134.072,20.872 135.8,22.24 138.416,22.24 C139.328,22.24 140.936,21.88 141.776,20.848 L141.776,22 L144.656,22 L144.656,15.352 C144.656,12.208 142.712,10.552 139.52,10.552 C138.056,10.552 136.016,10.888 134.624,12.856 L134.624,12.856 Z M138.632,19.672 C137.552,19.672 136.976,19.048 136.976,18.376 C136.976,17.896 137.24,17.128 138.968,17.128 C139.52,17.128 141.032,17.32 141.752,17.824 L141.752,18.352 C141.08,19.264 139.472,19.672 138.632,19.672 L138.632,19.672 Z M146.944,16.36 C146.944,19.888 149.776,22.24 152.992,22.24 C154.888,22.24 156.616,21.424 157.672,20.032 L155.32,18.304 C154.792,19.024 153.904,19.432 152.992,19.432 C151.36,19.432 149.848,18.184 149.848,16.36 C149.848,14.536 151.36,13.384 152.992,13.384 C153.904,13.384 154.792,13.768 155.32,14.488 L157.648,12.736 C156.592,11.344 154.864,10.552 152.992,10.552 C149.776,10.552 146.944,12.832 146.944,16.36 L146.944,16.36 Z M163.824,10.792 L163.824,6.52 L160.92,6.52 L160.92,10.792 L158.88,10.792 L158.88,13.144 L160.92,13.144 L160.92,22 L163.824,22 L163.824,13.144 L166.2,13.144 L166.2,10.792 L163.824,10.792 Z M167.816,6.448 C167.816,7.456 168.68,8.224 169.712,8.224 C170.72,8.224 171.56,7.456 171.56,6.448 C171.56,5.464 170.72,4.696 169.712,4.696 C168.68,4.696 167.816,5.464 167.816,6.448 L167.816,6.448 Z M171.152,22 L171.152,10.792 L168.248,10.792 L168.248,22 L171.152,22 Z M172.864,10.792 L177.568,22 L180.16,22 L184.888,10.792 L181.744,10.792 L178.864,18.256 L175.984,10.792 L172.864,10.792 Z M197.136,16.36 C197.136,12.832 194.64,10.552 191.448,10.552 C188.256,10.552 185.64,12.832 185.64,16.36 C185.64,19.888 188.256,22.24 191.448,22.24 C193.512,22.24 195.672,21.448 196.68,19.528 C195.96,19.144 195.144,18.712 194.448,18.328 C193.92,19.288 192.768,19.768 191.64,19.768 C189.984,19.768 188.736,18.856 188.544,17.368 L197.088,17.368 C197.112,17.104 197.136,16.648 197.136,16.36 L197.136,16.36 Z M194.28,15.376 L188.52,15.376 C188.736,13.864 189.936,13 191.472,13 C192.912,13 194.064,13.84 194.28,15.376 L194.28,15.376 Z M210.376,22.24 C211.864,22.24 213.712,21.544 214.432,20.272 C215.008,21.808 216.472,22.216 218.776,22.24 L218.776,19.648 C216.808,19.648 216.448,18.928 216.448,17.08 L216.448,14.344 L218.44,14.344 L218.44,11.968 L216.448,11.968 L216.448,10 L213.712,10 L213.712,11.968 L210.808,11.968 C209.128,11.968 208.816,10.408 208.816,9.952 C208.816,9.064 209.464,8.176 210.688,8.176 C211.432,8.176 211.96,8.56 212.344,9.064 L214.816,7.552 C213.856,6.184 212.248,5.272 210.328,5.344 C207.64,5.44 205.696,7.456 205.696,9.784 C205.696,11.296 206.44,12.472 207.472,12.976 C205.768,13.72 204.832,15.256 204.832,17.248 C204.832,20.128 207.184,22.24 210.376,22.24 L210.376,22.24 Z M210.712,14.344 L213.712,14.344 L213.712,16 C213.712,18.304 212.224,19.384 210.712,19.384 C209.104,19.384 208.096,18.472 207.928,17.08 C207.832,16.024 208.552,14.344 210.712,14.344 L210.712,14.344 Z M98.272,32.464 L93.016,43.648 L87.736,32.464 L85.144,32.464 L83.104,49 L86.176,49 L87.472,37.984 L91.816,47.128 L94.264,47.128 L98.584,37.984 L99.856,49 L102.928,49 L100.912,32.464 L98.272,32.464 Z M110.544,49.216 C113.712,49.216 116.376,46.888 116.376,43.36 C116.376,39.832 113.712,37.552 110.544,37.552 C107.352,37.552 104.712,39.832 104.712,43.36 C104.712,46.888 107.352,49.216 110.544,49.216 L110.544,49.216 Z M110.544,46.36 C108.936,46.36 107.616,45.184 107.616,43.36 C107.616,41.584 108.936,40.432 110.544,40.432 C112.152,40.432 113.472,41.584 113.472,43.36 C113.472,45.184 112.152,46.36 110.544,46.36 L110.544,46.36 Z M122.552,37.792 L122.552,33.52 L119.648,33.52 L119.648,37.792 L117.608,37.792 L117.608,40.144 L119.648,40.144 L119.648,49 L122.552,49 L122.552,40.144 L124.928,40.144 L124.928,37.792 L122.552,37.792 Z M126.544,33.448 C126.544,34.456 127.408,35.224 128.44,35.224 C129.448,35.224 130.288,34.456 130.288,33.448 C130.288,32.464 129.448,31.696 128.44,31.696 C127.408,31.696 126.544,32.464 126.544,33.448 L126.544,33.448 Z M129.88,49 L129.88,37.792 L126.976,37.792 L126.976,49 L129.88,49 Z M138.168,49.216 C141.336,49.216 144,46.888 144,43.36 C144,39.832 141.336,37.552 138.168,37.552 C134.976,37.552 132.336,39.832 132.336,43.36 C132.336,46.888 134.976,49.216 138.168,49.216 L138.168,49.216 Z M138.168,46.36 C136.56,46.36 135.24,45.184 135.24,43.36 C135.24,41.584 136.56,40.432 138.168,40.432 C139.776,40.432 141.096,41.584 141.096,43.36 C141.096,45.184 139.776,46.36 138.168,46.36 L138.168,46.36 Z M149.384,49 L149.384,43.024 C149.384,41.08 150.512,40.408 151.832,40.408 C153.104,40.408 153.968,41.272 153.968,42.904 L153.968,49 L156.896,49 L156.896,42.376 C156.896,39.208 155.336,37.552 152.72,37.552 C151.424,37.552 150.008,38.248 149.384,39.448 L149.384,37.792 L146.456,37.792 L146.456,49 L149.384,49 Z" id="Interactive-&amp;" fill="#182226"></path>
                <path d="M120.106525,27 L120.106525,106.999996 L40,107 L120.106525,27 Z" id="Shape-Copy-25" fill="#7CBDDF" style="mix-blend-mode: darken;" transform="translate(80.053262, 67.000000) scale(-1, 1) translate(-80.053262, -67.000000) "></path>
                <path d="M0,7 L60.0798935,7 L60.0798935,127 L0,126.999997 L0,7 Z" id="Rectangle-path-Copy-22" fill="#FCD315" style="mix-blend-mode: darken;"></path>
                <path d="M150.013316,67 C144.483184,67 140,71.4772222 140,77 C140,82.5227778 144.483184,87 150.013316,87 C155.543447,87 160.026631,82.5227778 160.026631,77 C160.026631,71.4772222 155.543447,67 150.013316,67 Z" id="Fill-14" fill="#EE4A62" style="mix-blend-mode: darken;"></path>
                <path d="M230.013316,87 C224.483184,87 220,91.4772222 220,97 C220,102.522778 224.483184,107 230.013316,107 C235.543447,107 240.026631,102.522778 240.026631,97 C240.026631,91.4772222 235.543447,87 230.013316,87 Z" id="Fill-14" fill="#EE4A62" style="mix-blend-mode: darken;"></path>
            </g>
        </g>
    </g>
</svg>