<?xml version="1.0" encoding="UTF-8" standalone="no"?>
<svg width="48px" height="48px" viewBox="0 0 48 48" version="1.1" xmlns="http://www.w3.org/2000/svg" xmlns:xlink="http://www.w3.org/1999/xlink" xmlns:sketch="http://www.bohemiancoding.com/sketch/ns">
    <!-- Generator: Sketch 3.5.2 (25235) - http://www.bohemiancoding.com/sketch -->
    <title>marker</title>
    <desc>Created with Sketch.</desc>
    <defs></defs>
    <g id="Page-1" stroke="none" stroke-width="1" fill="none" fill-rule="evenodd" sketch:type="MSPage">
        <g id="marker" sketch:type="MSArtboardGroup" fill="#EF4862">
            <path d="M12,18 C12,20.125 12.5416667,22.1666667 13.5416667,23.875 L23.3333333,41.625 C23.4583333,41.8333333 23.7083333,42 24,42 C24.25,42 24.5416667,41.8333333 24.6666667,41.625 L34.4583333,23.875 C35.4166667,22.1666667 36,20.125 36,18 C36,11.375 30.625,6 24,6 C17.375,6 12,11.375 12,18 Z M24,22.5 C21.5,22.5 19.5,20.5 19.5,18 C19.5,15.5 21.5,13.5 24,13.5 C26.5,13.5 28.5,15.5 28.5,18 C28.5,20.5 26.5,22.5 24,22.5 L24,22.5 Z" id="location" sketch:type="MSShapeGroup"></path>
        </g>
    </g>
</svg>
