<?xml version="1.0" encoding="UTF-8" standalone="no"?>
<svg width="40px" height="40px" viewBox="0 0 40 40" version="1.1" xmlns="http://www.w3.org/2000/svg" xmlns:xlink="http://www.w3.org/1999/xlink">
    <!-- Generator: Sketch 3.6 (26304) - http://www.bohemiancoding.com/sketch -->
    <title>new-window</title>
    <desc>Created with Sketch.</desc>
    <defs></defs>
    <g id="Page-1" stroke="none" stroke-width="1" fill="none" fill-rule="evenodd">
        <g id="new-window" fill="#FFFFFF">
            <path d="M18.969203,19.1672938 C18.4545429,19.681954 18.4537975,20.5184771 18.9692896,21.0339692 C19.4837328,21.5484123 20.3205207,21.5495 20.8359649,21.0340558 L29.6,12.2700207 L29.6,16.7009483 C29.6,17.3617639 30.1372583,17.9 30.8,17.9 C31.4613931,17.9 32,17.3631663 32,16.7009483 L32,9.19905167 C32,8.86880147 31.8658135,8.56916692 31.6488388,8.35203079 C31.4315338,8.13452306 31.1318991,8 30.8009483,8 L23.2990517,8 C22.6382361,8 22.1,8.5372583 22.1,9.2 C22.1,9.86139314 22.6368337,10.4 23.2990517,10.4 L27.7364968,10.4 L18.969203,19.1672938 Z M32,16.6955452 L32,29.0089096 C32,30.6608432 30.8098363,32 29.339881,32 L10.6601191,32 C9.19097588,32 8,30.6582294 8,29.0089096 L8,10.9910904 C8,9.3391568 9.19016372,8 10.6601191,8 L23.4699405,8 L16.4,8 C17.0627417,8 17.6,8.5372583 17.6,9.2 C17.6,9.8627417 17.0627417,10.4 16.4,10.4 L11.0833382,10.4 C10.7015862,10.4 10.4,10.758421 10.4,11.2005557 L10.4,28.7994443 C10.4,29.2335991 10.7059409,29.6 11.0833382,29.6 L28.9166618,29.6 C29.2984138,29.6 29.6,29.241579 29.6,28.7994443 L29.6,23.6 C29.6,22.9372583 30.1372583,22.4 30.8,22.4 C31.4627417,22.4 32,22.9372583 32,23.6 L32,16.6955452 Z" id="Shape"></path>
        </g>
    </g>
</svg>
