<?xml version="1.0" encoding="UTF-8" standalone="no"?>
<svg width="244px" height="144px" viewBox="0 0 244 144" version="1.1" xmlns="http://www.w3.org/2000/svg" xmlns:xlink="http://www.w3.org/1999/xlink">
    <!-- Generator: Sketch 3.6.1 (26313) - http://www.bohemiancoding.com/sketch -->
    <title>physical-mobile</title>
    <desc>Created with Sketch.</desc>
    <defs></defs>
    <g id="Page-1-Copy" stroke="none" stroke-width="1" fill="none" fill-rule="evenodd">
        <g id="physical-mobile">
            <g id="Dot-Copy-932" transform="translate(240.500000, 140.500000)">
                <rect id="Grid-Unit" x="0" y="0" width="20" height="20"></rect>
                <circle id="Dot" fill="#000000" cx="1.5" cy="1.5" r="1.5"></circle>
            </g>
            <g id="Dot-Copy-931" transform="translate(220.500000, 140.500000)">
                <rect id="Grid-Unit" x="0" y="0" width="20" height="20"></rect>
                <circle id="Dot" fill="#000000" cx="1.5" cy="1.5" r="1.5"></circle>
            </g>
            <g id="Dot-Copy-930" transform="translate(200.500000, 140.500000)">
                <rect id="Grid-Unit" x="0" y="0" width="20" height="20"></rect>
                <circle id="Dot" fill="#000000" cx="1.5" cy="1.5" r="1.5"></circle>
            </g>
            <g id="Dot-Copy-929" transform="translate(180.500000, 140.500000)">
                <rect id="Grid-Unit" x="0" y="0" width="20" height="20"></rect>
                <circle id="Dot" fill="#000000" cx="1.5" cy="1.5" r="1.5"></circle>
            </g>
            <g id="Dot-Copy-928" transform="translate(160.500000, 140.500000)">
                <rect id="Grid-Unit" x="0" y="0" width="20" height="20"></rect>
                <circle id="Dot" fill="#000000" cx="1.5" cy="1.5" r="1.5"></circle>
            </g>
            <g id="Dot-Copy-927" transform="translate(140.500000, 140.500000)">
                <rect id="Grid-Unit" x="0" y="0" width="20" height="20"></rect>
                <circle id="Dot" fill="#000000" cx="1.5" cy="1.5" r="1.5"></circle>
            </g>
            <g id="Dot-Copy-926" transform="translate(120.500000, 140.500000)">
                <rect id="Grid-Unit" x="0" y="0" width="20" height="20"></rect>
                <circle id="Dot" fill="#000000" cx="1.5" cy="1.5" r="1.5"></circle>
            </g>
            <g id="Dot-Copy-925" transform="translate(100.500000, 140.500000)">
                <rect id="Grid-Unit" x="0" y="0" width="20" height="20"></rect>
                <circle id="Dot" fill="#000000" cx="1.5" cy="1.5" r="1.5"></circle>
            </g>
            <g id="Dot-Copy-924" transform="translate(80.500000, 140.500000)">
                <rect id="Grid-Unit" x="0" y="0" width="20" height="20"></rect>
                <circle id="Dot" fill="#000000" cx="1.5" cy="1.5" r="1.5"></circle>
            </g>
            <g id="Dot-Copy-923" transform="translate(60.500000, 140.500000)">
                <rect id="Grid-Unit" x="0" y="0" width="20" height="20"></rect>
                <circle id="Dot" fill="#000000" cx="1.5" cy="1.5" r="1.5"></circle>
            </g>
            <g id="Dot-Copy-922" transform="translate(40.500000, 140.500000)">
                <rect id="Grid-Unit" x="0" y="0" width="20" height="20"></rect>
                <circle id="Dot" fill="#000000" cx="1.5" cy="1.5" r="1.5"></circle>
            </g>
            <g id="Dot-Copy-921" transform="translate(20.500000, 140.500000)">
                <rect id="Grid-Unit" x="0" y="0" width="20" height="20"></rect>
                <circle id="Dot" fill="#000000" cx="1.5" cy="1.5" r="1.5"></circle>
            </g>
            <g id="Dot-Copy-920" transform="translate(0.500000, 140.500000)">
                <rect id="Grid-Unit" x="0" y="0" width="20" height="20"></rect>
                <circle id="Dot" fill="#000000" cx="1.5" cy="1.5" r="1.5"></circle>
            </g>
            <g id="Dot-Copy-918" transform="translate(240.500000, 120.500000)">
                <rect id="Grid-Unit" x="0" y="0" width="20" height="20"></rect>
                <circle id="Dot" fill="#000000" cx="1.5" cy="1.5" r="1.5"></circle>
            </g>
            <g id="Dot-Copy-917" transform="translate(220.500000, 120.500000)">
                <rect id="Grid-Unit" x="0" y="0" width="20" height="20"></rect>
                <circle id="Dot" fill="#000000" cx="1.5" cy="1.5" r="1.5"></circle>
            </g>
            <g id="Dot-Copy-916" transform="translate(200.500000, 120.500000)">
                <rect id="Grid-Unit" x="0" y="0" width="20" height="20"></rect>
                <circle id="Dot" fill="#000000" cx="1.5" cy="1.5" r="1.5"></circle>
            </g>
            <g id="Dot-Copy-915" transform="translate(180.500000, 120.500000)">
                <rect id="Grid-Unit" x="0" y="0" width="20" height="20"></rect>
                <circle id="Dot" fill="#000000" cx="1.5" cy="1.5" r="1.5"></circle>
            </g>
            <g id="Dot-Copy-914" transform="translate(160.500000, 120.500000)">
                <rect id="Grid-Unit" x="0" y="0" width="20" height="20"></rect>
                <circle id="Dot" fill="#000000" cx="1.5" cy="1.5" r="1.5"></circle>
            </g>
            <g id="Dot-Copy-913" transform="translate(140.500000, 120.500000)">
                <rect id="Grid-Unit" x="0" y="0" width="20" height="20"></rect>
                <circle id="Dot" fill="#000000" cx="1.5" cy="1.5" r="1.5"></circle>
            </g>
            <g id="Dot-Copy-912" transform="translate(120.500000, 120.500000)">
                <rect id="Grid-Unit" x="0" y="0" width="20" height="20"></rect>
                <circle id="Dot" fill="#000000" cx="1.5" cy="1.5" r="1.5"></circle>
            </g>
            <g id="Dot-Copy-911" transform="translate(100.500000, 120.500000)">
                <rect id="Grid-Unit" x="0" y="0" width="20" height="20"></rect>
                <circle id="Dot" fill="#000000" cx="1.5" cy="1.5" r="1.5"></circle>
            </g>
            <g id="Dot-Copy-910" transform="translate(80.500000, 120.500000)">
                <rect id="Grid-Unit" x="0" y="0" width="20" height="20"></rect>
                <circle id="Dot" fill="#000000" cx="1.5" cy="1.5" r="1.5"></circle>
            </g>
            <g id="Dot-Copy-909" transform="translate(60.500000, 120.500000)">
                <rect id="Grid-Unit" x="0" y="0" width="20" height="20"></rect>
                <circle id="Dot" fill="#000000" cx="1.5" cy="1.5" r="1.5"></circle>
            </g>
            <g id="Dot-Copy-908" transform="translate(40.500000, 120.500000)">
                <rect id="Grid-Unit" x="0" y="0" width="20" height="20"></rect>
                <circle id="Dot" fill="#000000" cx="1.5" cy="1.5" r="1.5"></circle>
            </g>
            <g id="Dot-Copy-907" transform="translate(20.500000, 120.500000)">
                <rect id="Grid-Unit" x="0" y="0" width="20" height="20"></rect>
                <circle id="Dot" fill="#000000" cx="1.5" cy="1.5" r="1.5"></circle>
            </g>
            <g id="Dot-Copy-906" transform="translate(0.500000, 120.500000)">
                <rect id="Grid-Unit" x="0" y="0" width="20" height="20"></rect>
                <circle id="Dot" fill="#000000" cx="1.5" cy="1.5" r="1.5"></circle>
            </g>
            <g id="Dot-Copy-904" transform="translate(240.500000, 100.500000)">
                <rect id="Grid-Unit" x="0" y="0" width="20" height="20"></rect>
                <circle id="Dot" fill="#000000" cx="1.5" cy="1.5" r="1.5"></circle>
            </g>
            <g id="Dot-Copy-903" transform="translate(220.500000, 100.500000)">
                <rect id="Grid-Unit" x="0" y="0" width="20" height="20"></rect>
                <circle id="Dot" fill="#000000" cx="1.5" cy="1.5" r="1.5"></circle>
            </g>
            <g id="Dot-Copy-902" transform="translate(200.500000, 100.500000)">
                <rect id="Grid-Unit" x="0" y="0" width="20" height="20"></rect>
                <circle id="Dot" fill="#000000" cx="1.5" cy="1.5" r="1.5"></circle>
            </g>
            <g id="Dot-Copy-901" transform="translate(180.500000, 100.500000)">
                <rect id="Grid-Unit" x="0" y="0" width="20" height="20"></rect>
                <circle id="Dot" fill="#000000" cx="1.5" cy="1.5" r="1.5"></circle>
            </g>
            <g id="Dot-Copy-900" transform="translate(160.500000, 100.500000)">
                <rect id="Grid-Unit" x="0" y="0" width="20" height="20"></rect>
                <circle id="Dot" fill="#000000" cx="1.5" cy="1.5" r="1.5"></circle>
            </g>
            <g id="Dot-Copy-899" transform="translate(140.500000, 100.500000)">
                <rect id="Grid-Unit" x="0" y="0" width="20" height="20"></rect>
                <circle id="Dot" fill="#000000" cx="1.5" cy="1.5" r="1.5"></circle>
            </g>
            <g id="Dot-Copy-898" transform="translate(120.500000, 100.500000)">
                <rect id="Grid-Unit" x="0" y="0" width="20" height="20"></rect>
                <circle id="Dot" fill="#000000" cx="1.5" cy="1.5" r="1.5"></circle>
            </g>
            <g id="Dot-Copy-897" transform="translate(100.500000, 100.500000)">
                <rect id="Grid-Unit" x="0" y="0" width="20" height="20"></rect>
                <circle id="Dot" fill="#000000" cx="1.5" cy="1.5" r="1.5"></circle>
            </g>
            <g id="Dot-Copy-896" transform="translate(80.500000, 100.500000)">
                <rect id="Grid-Unit" x="0" y="0" width="20" height="20"></rect>
                <circle id="Dot" fill="#000000" cx="1.5" cy="1.5" r="1.5"></circle>
            </g>
            <g id="Dot-Copy-895" transform="translate(60.500000, 100.500000)">
                <rect id="Grid-Unit" x="0" y="0" width="20" height="20"></rect>
                <circle id="Dot" fill="#000000" cx="1.5" cy="1.5" r="1.5"></circle>
            </g>
            <g id="Dot-Copy-894" transform="translate(40.500000, 100.500000)">
                <rect id="Grid-Unit" x="0" y="0" width="20" height="20"></rect>
                <circle id="Dot" fill="#000000" cx="1.5" cy="1.5" r="1.5"></circle>
            </g>
            <g id="Dot-Copy-893" transform="translate(20.500000, 100.500000)">
                <rect id="Grid-Unit" x="0" y="0" width="20" height="20"></rect>
                <circle id="Dot" fill="#000000" cx="1.5" cy="1.5" r="1.5"></circle>
            </g>
            <g id="Dot-Copy-892" transform="translate(0.500000, 100.500000)">
                <rect id="Grid-Unit" x="0" y="0" width="20" height="20"></rect>
                <circle id="Dot" fill="#000000" cx="1.5" cy="1.5" r="1.5"></circle>
            </g>
            <g id="Dot-Copy-890" transform="translate(240.500000, 80.500000)">
                <rect id="Grid-Unit" x="0" y="0" width="20" height="20"></rect>
                <circle id="Dot" fill="#000000" cx="1.5" cy="1.5" r="1.5"></circle>
            </g>
            <g id="Dot-Copy-889" transform="translate(220.500000, 80.500000)">
                <rect id="Grid-Unit" x="0" y="0" width="20" height="20"></rect>
                <circle id="Dot" fill="#000000" cx="1.5" cy="1.5" r="1.5"></circle>
            </g>
            <g id="Dot-Copy-888" transform="translate(200.500000, 80.500000)">
                <rect id="Grid-Unit" x="0" y="0" width="20" height="20"></rect>
                <circle id="Dot" fill="#000000" cx="1.5" cy="1.5" r="1.5"></circle>
            </g>
            <g id="Dot-Copy-887" transform="translate(180.500000, 80.500000)">
                <rect id="Grid-Unit" x="0" y="0" width="20" height="20"></rect>
                <circle id="Dot" fill="#000000" cx="1.5" cy="1.5" r="1.5"></circle>
            </g>
            <g id="Dot-Copy-886" transform="translate(160.500000, 80.500000)">
                <rect id="Grid-Unit" x="0" y="0" width="20" height="20"></rect>
                <circle id="Dot" fill="#000000" cx="1.5" cy="1.5" r="1.5"></circle>
            </g>
            <g id="Dot-Copy-885" transform="translate(140.500000, 80.500000)">
                <rect id="Grid-Unit" x="0" y="0" width="20" height="20"></rect>
                <circle id="Dot" fill="#000000" cx="1.5" cy="1.5" r="1.5"></circle>
            </g>
            <g id="Dot-Copy-884" transform="translate(120.500000, 80.500000)">
                <rect id="Grid-Unit" x="0" y="0" width="20" height="20"></rect>
                <circle id="Dot" fill="#000000" cx="1.5" cy="1.5" r="1.5"></circle>
            </g>
            <g id="Dot-Copy-883" transform="translate(100.500000, 80.500000)">
                <rect id="Grid-Unit" x="0" y="0" width="20" height="20"></rect>
                <circle id="Dot" fill="#000000" cx="1.5" cy="1.5" r="1.5"></circle>
            </g>
            <g id="Dot-Copy-882" transform="translate(80.500000, 80.500000)">
                <rect id="Grid-Unit" x="0" y="0" width="20" height="20"></rect>
                <circle id="Dot" fill="#000000" cx="1.5" cy="1.5" r="1.5"></circle>
            </g>
            <g id="Dot-Copy-881" transform="translate(60.500000, 80.500000)">
                <rect id="Grid-Unit" x="0" y="0" width="20" height="20"></rect>
                <circle id="Dot" fill="#000000" cx="1.5" cy="1.5" r="1.5"></circle>
            </g>
            <g id="Dot-Copy-880" transform="translate(40.500000, 80.500000)">
                <rect id="Grid-Unit" x="0" y="0" width="20" height="20"></rect>
                <circle id="Dot" fill="#000000" cx="1.5" cy="1.5" r="1.5"></circle>
            </g>
            <g id="Dot-Copy-879" transform="translate(20.500000, 80.500000)">
                <rect id="Grid-Unit" x="0" y="0" width="20" height="20"></rect>
                <circle id="Dot" fill="#000000" cx="1.5" cy="1.5" r="1.5"></circle>
            </g>
            <g id="Dot-Copy-878" transform="translate(0.500000, 80.500000)">
                <rect id="Grid-Unit" x="0" y="0" width="20" height="20"></rect>
                <circle id="Dot" fill="#000000" cx="1.5" cy="1.5" r="1.5"></circle>
            </g>
            <g id="Dot-Copy-876" transform="translate(240.500000, 60.500000)">
                <rect id="Grid-Unit" x="0" y="0" width="20" height="20"></rect>
                <circle id="Dot" fill="#000000" cx="1.5" cy="1.5" r="1.5"></circle>
            </g>
            <g id="Dot-Copy-875" transform="translate(220.500000, 60.500000)">
                <rect id="Grid-Unit" x="0" y="0" width="20" height="20"></rect>
                <circle id="Dot" fill="#000000" cx="1.5" cy="1.5" r="1.5"></circle>
            </g>
            <g id="Dot-Copy-874" transform="translate(200.500000, 60.500000)">
                <rect id="Grid-Unit" x="0" y="0" width="20" height="20"></rect>
                <circle id="Dot" fill="#000000" cx="1.5" cy="1.5" r="1.5"></circle>
            </g>
            <g id="Dot-Copy-873" transform="translate(180.500000, 60.500000)">
                <rect id="Grid-Unit" x="0" y="0" width="20" height="20"></rect>
                <circle id="Dot" fill="#000000" cx="1.5" cy="1.5" r="1.5"></circle>
            </g>
            <g id="Dot-Copy-872" transform="translate(160.500000, 60.500000)">
                <rect id="Grid-Unit" x="0" y="0" width="20" height="20"></rect>
                <circle id="Dot" fill="#000000" cx="1.5" cy="1.5" r="1.5"></circle>
            </g>
            <g id="Dot-Copy-871" transform="translate(140.500000, 60.500000)">
                <rect id="Grid-Unit" x="0" y="0" width="20" height="20"></rect>
                <circle id="Dot" fill="#000000" cx="1.5" cy="1.5" r="1.5"></circle>
            </g>
            <g id="Dot-Copy-870" transform="translate(120.500000, 60.500000)">
                <rect id="Grid-Unit" x="0" y="0" width="20" height="20"></rect>
                <circle id="Dot" fill="#000000" cx="1.5" cy="1.5" r="1.5"></circle>
            </g>
            <g id="Dot-Copy-869" transform="translate(100.500000, 60.500000)">
                <rect id="Grid-Unit" x="0" y="0" width="20" height="20"></rect>
                <circle id="Dot" fill="#000000" cx="1.5" cy="1.5" r="1.5"></circle>
            </g>
            <g id="Dot-Copy-868" transform="translate(80.500000, 60.500000)">
                <rect id="Grid-Unit" x="0" y="0" width="20" height="20"></rect>
                <circle id="Dot" fill="#000000" cx="1.5" cy="1.5" r="1.5"></circle>
            </g>
            <g id="Dot-Copy-867" transform="translate(60.500000, 60.500000)">
                <rect id="Grid-Unit" x="0" y="0" width="20" height="20"></rect>
                <circle id="Dot" fill="#000000" cx="1.5" cy="1.5" r="1.5"></circle>
            </g>
            <g id="Dot-Copy-866" transform="translate(40.500000, 60.500000)">
                <rect id="Grid-Unit" x="0" y="0" width="20" height="20"></rect>
                <circle id="Dot" fill="#000000" cx="1.5" cy="1.5" r="1.5"></circle>
            </g>
            <g id="Dot-Copy-865" transform="translate(20.500000, 60.500000)">
                <rect id="Grid-Unit" x="0" y="0" width="20" height="20"></rect>
                <circle id="Dot" fill="#000000" cx="1.5" cy="1.5" r="1.5"></circle>
            </g>
            <g id="Dot-Copy-864" transform="translate(0.500000, 60.500000)">
                <rect id="Grid-Unit" x="0" y="0" width="20" height="20"></rect>
                <circle id="Dot" fill="#000000" cx="1.5" cy="1.5" r="1.5"></circle>
            </g>
            <g id="Dot-Copy-862" transform="translate(240.500000, 40.500000)">
                <rect id="Grid-Unit" x="0" y="0" width="20" height="20"></rect>
                <circle id="Dot" fill="#000000" cx="1.5" cy="1.5" r="1.5"></circle>
            </g>
            <g id="Dot-Copy-861" transform="translate(220.500000, 40.500000)">
                <rect id="Grid-Unit" x="0" y="0" width="20" height="20"></rect>
                <circle id="Dot" fill="#000000" cx="1.5" cy="1.5" r="1.5"></circle>
            </g>
            <g id="Dot-Copy-860" transform="translate(200.500000, 40.500000)">
                <rect id="Grid-Unit" x="0" y="0" width="20" height="20"></rect>
                <circle id="Dot" fill="#000000" cx="1.5" cy="1.5" r="1.5"></circle>
            </g>
            <g id="Dot-Copy-859" transform="translate(180.500000, 40.500000)">
                <rect id="Grid-Unit" x="0" y="0" width="20" height="20"></rect>
                <circle id="Dot" fill="#000000" cx="1.5" cy="1.5" r="1.5"></circle>
            </g>
            <g id="Dot-Copy-858" transform="translate(160.500000, 40.500000)">
                <rect id="Grid-Unit" x="0" y="0" width="20" height="20"></rect>
                <circle id="Dot" fill="#000000" cx="1.5" cy="1.5" r="1.5"></circle>
            </g>
            <g id="Dot-Copy-857" transform="translate(140.500000, 40.500000)">
                <rect id="Grid-Unit" x="0" y="0" width="20" height="20"></rect>
                <circle id="Dot" fill="#000000" cx="1.5" cy="1.5" r="1.5"></circle>
            </g>
            <g id="Dot-Copy-856" transform="translate(120.500000, 40.500000)">
                <rect id="Grid-Unit" x="0" y="0" width="20" height="20"></rect>
                <circle id="Dot" fill="#000000" cx="1.5" cy="1.5" r="1.5"></circle>
            </g>
            <g id="Dot-Copy-855" transform="translate(100.500000, 40.500000)">
                <rect id="Grid-Unit" x="0" y="0" width="20" height="20"></rect>
                <circle id="Dot" fill="#000000" cx="1.5" cy="1.5" r="1.5"></circle>
            </g>
            <g id="Dot-Copy-854" transform="translate(80.500000, 40.500000)">
                <rect id="Grid-Unit" x="0" y="0" width="20" height="20"></rect>
                <circle id="Dot" fill="#000000" cx="1.5" cy="1.5" r="1.5"></circle>
            </g>
            <g id="Dot-Copy-853" transform="translate(60.500000, 40.500000)">
                <rect id="Grid-Unit" x="0" y="0" width="20" height="20"></rect>
                <circle id="Dot" fill="#000000" cx="1.5" cy="1.5" r="1.5"></circle>
            </g>
            <g id="Dot-Copy-852" transform="translate(40.500000, 40.500000)">
                <rect id="Grid-Unit" x="0" y="0" width="20" height="20"></rect>
                <circle id="Dot" fill="#000000" cx="1.5" cy="1.5" r="1.5"></circle>
            </g>
            <g id="Dot-Copy-851" transform="translate(20.500000, 40.500000)">
                <rect id="Grid-Unit" x="0" y="0" width="20" height="20"></rect>
                <circle id="Dot" fill="#000000" cx="1.5" cy="1.5" r="1.5"></circle>
            </g>
            <g id="Dot-Copy-850" transform="translate(0.500000, 40.500000)">
                <rect id="Grid-Unit" x="0" y="0" width="20" height="20"></rect>
                <circle id="Dot" fill="#000000" cx="1.5" cy="1.5" r="1.5"></circle>
            </g>
            <g id="Dot-Copy-848" transform="translate(240.500000, 20.500000)">
                <rect id="Grid-Unit" x="0" y="0" width="20" height="20"></rect>
                <circle id="Dot" fill="#000000" cx="1.5" cy="1.5" r="1.5"></circle>
            </g>
            <g id="Dot-Copy-847" transform="translate(220.500000, 20.500000)">
                <rect id="Grid-Unit" x="0" y="0" width="20" height="20"></rect>
                <circle id="Dot" fill="#000000" cx="1.5" cy="1.5" r="1.5"></circle>
            </g>
            <g id="Dot-Copy-846" transform="translate(200.500000, 20.500000)">
                <rect id="Grid-Unit" x="0" y="0" width="20" height="20"></rect>
                <circle id="Dot" fill="#000000" cx="1.5" cy="1.5" r="1.5"></circle>
            </g>
            <g id="Dot-Copy-845" transform="translate(180.500000, 20.500000)">
                <rect id="Grid-Unit" x="0" y="0" width="20" height="20"></rect>
                <circle id="Dot" fill="#000000" cx="1.5" cy="1.5" r="1.5"></circle>
            </g>
            <g id="Dot-Copy-844" transform="translate(160.500000, 20.500000)">
                <rect id="Grid-Unit" x="0" y="0" width="20" height="20"></rect>
                <circle id="Dot" fill="#000000" cx="1.5" cy="1.5" r="1.5"></circle>
            </g>
            <g id="Dot-Copy-843" transform="translate(140.500000, 20.500000)">
                <rect id="Grid-Unit" x="0" y="0" width="20" height="20"></rect>
                <circle id="Dot" fill="#000000" cx="1.5" cy="1.5" r="1.5"></circle>
            </g>
            <g id="Dot-Copy-842" transform="translate(120.500000, 20.500000)">
                <rect id="Grid-Unit" x="0" y="0" width="20" height="20"></rect>
                <circle id="Dot" fill="#000000" cx="1.5" cy="1.5" r="1.5"></circle>
            </g>
            <g id="Dot-Copy-841" transform="translate(100.500000, 20.500000)">
                <rect id="Grid-Unit" x="0" y="0" width="20" height="20"></rect>
                <circle id="Dot" fill="#000000" cx="1.5" cy="1.5" r="1.5"></circle>
            </g>
            <g id="Dot-Copy-840" transform="translate(80.500000, 20.500000)">
                <rect id="Grid-Unit" x="0" y="0" width="20" height="20"></rect>
                <circle id="Dot" fill="#000000" cx="1.5" cy="1.5" r="1.5"></circle>
            </g>
            <g id="Dot-Copy-839" transform="translate(60.500000, 20.500000)">
                <rect id="Grid-Unit" x="0" y="0" width="20" height="20"></rect>
                <circle id="Dot" fill="#000000" cx="1.5" cy="1.5" r="1.5"></circle>
            </g>
            <g id="Dot-Copy-838" transform="translate(40.500000, 20.500000)">
                <rect id="Grid-Unit" x="0" y="0" width="20" height="20"></rect>
                <circle id="Dot" fill="#000000" cx="1.5" cy="1.5" r="1.5"></circle>
            </g>
            <g id="Dot-Copy-837" transform="translate(20.500000, 20.500000)">
                <rect id="Grid-Unit" x="0" y="0" width="20" height="20"></rect>
                <circle id="Dot" fill="#000000" cx="1.5" cy="1.5" r="1.5"></circle>
            </g>
            <g id="Dot-Copy-836" transform="translate(0.500000, 20.500000)">
                <rect id="Grid-Unit" x="0" y="0" width="20" height="20"></rect>
                <circle id="Dot" fill="#000000" cx="1.5" cy="1.5" r="1.5"></circle>
            </g>
            <g id="Dot-Copy-834" transform="translate(240.500000, 0.500000)">
                <rect id="Grid-Unit" x="0" y="0" width="20" height="20"></rect>
                <circle id="Dot" fill="#000000" cx="1.5" cy="1.5" r="1.5"></circle>
            </g>
            <g id="Dot-Copy-833" transform="translate(220.500000, 0.500000)">
                <rect id="Grid-Unit" x="0" y="0" width="20" height="20"></rect>
                <circle id="Dot" fill="#000000" cx="1.5" cy="1.5" r="1.5"></circle>
            </g>
            <g id="Dot-Copy-832" transform="translate(200.500000, 0.500000)">
                <rect id="Grid-Unit" x="0" y="0" width="20" height="20"></rect>
                <circle id="Dot" fill="#000000" cx="1.5" cy="1.5" r="1.5"></circle>
            </g>
            <g id="Dot-Copy-831" transform="translate(180.500000, 0.500000)">
                <rect id="Grid-Unit" x="0" y="0" width="20" height="20"></rect>
                <circle id="Dot" fill="#000000" cx="1.5" cy="1.5" r="1.5"></circle>
            </g>
            <g id="Dot-Copy-830" transform="translate(160.500000, 0.500000)">
                <rect id="Grid-Unit" x="0" y="0" width="20" height="20"></rect>
                <circle id="Dot" fill="#000000" cx="1.5" cy="1.5" r="1.5"></circle>
            </g>
            <g id="Dot-Copy-829" transform="translate(140.500000, 0.500000)">
                <rect id="Grid-Unit" x="0" y="0" width="20" height="20"></rect>
                <circle id="Dot" fill="#000000" cx="1.5" cy="1.5" r="1.5"></circle>
            </g>
            <g id="Dot-Copy-828" transform="translate(120.500000, 0.500000)">
                <rect id="Grid-Unit" x="0" y="0" width="20" height="20"></rect>
                <circle id="Dot" fill="#000000" cx="1.5" cy="1.5" r="1.5"></circle>
            </g>
            <g id="Dot-Copy-827" transform="translate(100.500000, 0.500000)">
                <rect id="Grid-Unit" x="0" y="0" width="20" height="20"></rect>
                <circle id="Dot" fill="#000000" cx="1.5" cy="1.5" r="1.5"></circle>
            </g>
            <g id="Dot-Copy-826" transform="translate(80.500000, 0.500000)">
                <rect id="Grid-Unit" x="0" y="0" width="20" height="20"></rect>
                <circle id="Dot" fill="#000000" cx="1.5" cy="1.5" r="1.5"></circle>
            </g>
            <g id="Dot-Copy-825" transform="translate(60.500000, 0.500000)">
                <rect id="Grid-Unit" x="0" y="0" width="20" height="20"></rect>
                <circle id="Dot" fill="#000000" cx="1.5" cy="1.5" r="1.5"></circle>
            </g>
            <g id="Dot-Copy-824" transform="translate(40.500000, 0.500000)">
                <rect id="Grid-Unit" x="0" y="0" width="20" height="20"></rect>
                <circle id="Dot" fill="#000000" cx="1.5" cy="1.5" r="1.5"></circle>
            </g>
            <g id="Dot-Copy-823" transform="translate(20.500000, 0.500000)">
                <rect id="Grid-Unit" x="0" y="0" width="20" height="20"></rect>
                <circle id="Dot" fill="#000000" cx="1.5" cy="1.5" r="1.5"></circle>
            </g>
            <g id="Dot-Copy-822" transform="translate(0.500000, 0.500000)">
                <rect id="Grid-Unit" x="0" y="0" width="20" height="20"></rect>
                <circle id="Dot" fill="#000000" cx="1.5" cy="1.5" r="1.5"></circle>
            </g>
            <g id="physical-copy" transform="translate(2.000000, -38.000000)">
                <rect id="Rectangle-843" fill="#FFFFFF" x="127" y="113.5" width="105" height="36"></rect>
                <path d="M17.6040764,17.6040764 L102.604076,102.604076 L17.6040764,102.604076 L17.6040764,17.6040764 Z" id="Rectangle-2837" fill="#EE4A62" style="mix-blend-mode: darken;" transform="translate(60.104076, 60.104076) rotate(-45.000000) translate(-60.104076, -60.104076) "></path>
                <rect id="Rectangle-2837" fill="#5AC2B3" style="mix-blend-mode: darken;" x="0" y="100" width="120" height="60"></rect>
                <path d="M210,160 C204.477222,160 200,164.477222 200,170 C200,175.522778 204.477222,180 210,180 C215.522778,180 220,175.522778 220,170 C220,164.477222 215.522778,160 210,160 Z" id="Fill-14" fill="#F47F50" style="mix-blend-mode: darken;"></path>
                <path d="M220,40 L200,40 L200,100 L220,100 L220,40 Z" id="Fill-6" fill="#7CBDDF" style="mix-blend-mode: darken;"></path>
            </g>
            <path d="M143.064,83.464 L143.064,100 L146.136,100 L146.136,94.12 L149.784,94.12 C153.456,94.12 155.04,91.504 155.04,88.816 C155.04,86.128 153.456,83.464 149.784,83.464 L143.064,83.464 Z M146.136,86.2 L149.736,86.2 C151.272,86.2 151.968,87.616 151.968,88.816 C151.968,90.04 151.224,91.384 149.64,91.384 L146.136,91.384 L146.136,86.2 Z M160.112,100 L160.112,94.024 C160.112,92.08 161.576,91.408 162.8,91.408 C164,91.408 165.176,92.296 165.176,93.904 L165.176,100 L168.104,100 L168.104,93.76 C168.104,90.472 166.496,88.552 163.592,88.552 C162.488,88.552 160.64,89.152 160.112,90.52 L160.112,82.696 L157.184,82.696 L157.184,100 L160.112,100 Z M174.4,105.472 L181.336,88.792 L178.216,88.792 L175.408,95.776 L172.624,88.792 L169.504,88.792 L173.872,99.136 L171.304,105.472 L174.4,105.472 Z M185.616,95.32 L187.152,95.704 C187.968,95.896 188.4,96.184 188.376,96.76 C188.376,97.408 187.728,97.864 186.912,97.888 C185.832,97.936 184.92,97.264 184.848,96.472 L182.112,96.472 C182.16,98.896 184.416,100.24 186.624,100.24 C188.952,100.24 191.208,99.064 191.208,96.784 C191.208,95.896 190.872,94.096 188.28,93.424 L186.408,92.968 C185.76,92.8 185.232,92.488 185.232,92.032 C185.232,91.192 185.928,90.928 186.648,90.928 C187.296,90.928 188.112,91.24 188.16,92.08 L190.944,92.08 C190.848,89.512 188.688,88.552 186.576,88.552 C184.344,88.552 182.448,90.088 182.448,91.888 C182.448,93.208 182.712,94.528 185.616,95.32 L185.616,95.32 Z M193.208,84.448 C193.208,85.456 194.072,86.224 195.104,86.224 C196.112,86.224 196.952,85.456 196.952,84.448 C196.952,83.464 196.112,82.696 195.104,82.696 C194.072,82.696 193.208,83.464 193.208,84.448 L193.208,84.448 Z M196.544,100 L196.544,88.792 L193.64,88.792 L193.64,100 L196.544,100 Z M198.976,94.36 C198.976,97.888 201.808,100.24 205.024,100.24 C206.92,100.24 208.648,99.424 209.704,98.032 L207.352,96.304 C206.824,97.024 205.936,97.432 205.024,97.432 C203.392,97.432 201.88,96.184 201.88,94.36 C201.88,92.536 203.392,91.384 205.024,91.384 C205.936,91.384 206.824,91.768 207.352,92.488 L209.68,90.736 C208.624,89.344 206.896,88.552 205.024,88.552 C201.808,88.552 198.976,90.832 198.976,94.36 L198.976,94.36 Z M211.776,90.856 L213.504,92.512 C214.296,91.48 215.616,91.12 216.504,91.12 C218.04,91.12 218.928,92.128 218.928,93.352 L218.928,93.784 C218.208,93.304 216.768,93.04 216.072,93.04 C212.52,93.04 211.224,94.6 211.224,96.568 C211.224,98.872 212.952,100.24 215.568,100.24 C216.48,100.24 218.088,99.88 218.928,98.848 L218.928,100 L221.808,100 L221.808,93.352 C221.808,90.208 219.864,88.552 216.672,88.552 C215.208,88.552 213.168,88.888 211.776,90.856 L211.776,90.856 Z M215.784,97.672 C214.704,97.672 214.128,97.048 214.128,96.376 C214.128,95.896 214.392,95.128 216.12,95.128 C216.672,95.128 218.184,95.32 218.904,95.824 L218.904,96.352 C218.232,97.264 216.624,97.672 215.784,97.672 L215.784,97.672 Z M224.816,82.696 L224.816,100 L227.744,100 L227.744,82.696 L224.816,82.696 Z" id="Physical" fill="#182226"></path>
        </g>
    </g>
</svg>