<?xml version="1.0" encoding="UTF-8" standalone="no"?>
<svg width="875px" height="400px" viewBox="0 0 875 400" version="1.1" xmlns="http://www.w3.org/2000/svg" xmlns:xlink="http://www.w3.org/1999/xlink">
    <!-- Generator: Sketch 3.6.1 (26313) - http://www.bohemiancoding.com/sketch -->
    <title>physical-tablet</title>
    <desc>Created with Sketch.</desc>
    <defs></defs>
    <g id="All-Screens" stroke="none" stroke-width="1" fill="none" fill-rule="evenodd">
        <g id="Work-Index/Work-Index-Masonry/Information-Copy-2" transform="translate(-93.000000, -1899.000000)">
            <g id="physical-tablet" transform="translate(95.000000, 1901.000000)">
                <g id="Background-(Grid)" stroke-width="3" stroke="#000000" fill="#000000">
                    <g id="Block">
                        <ellipse id="Oval" cx="181.993286" cy="182.085758" rx="0.921151847" ry="0.92161989"></ellipse>
                        <ellipse id="Oval" cx="181.993286" cy="145.879263" rx="0.921151847" ry="0.92161989"></ellipse>
                        <ellipse id="Oval" cx="181.993286" cy="109.672767" rx="0.921151847" ry="0.92161989"></ellipse>
                        <ellipse id="Oval" cx="181.993286" cy="73.4662713" rx="0.921151847" ry="0.92161989"></ellipse>
                        <ellipse id="Oval" cx="181.993286" cy="37.2597756" rx="0.921151847" ry="0.92161989"></ellipse>
                        <ellipse id="Oval" cx="181.993286" cy="0.92161989" rx="0.921151847" ry="0.92161989"></ellipse>
                        <ellipse id="Oval" cx="145.673585" cy="182.085758" rx="0.921151847" ry="0.92161989"></ellipse>
                        <ellipse id="Oval" cx="145.673585" cy="145.879263" rx="0.921151847" ry="0.92161989"></ellipse>
                        <ellipse id="Oval" cx="145.673585" cy="109.672767" rx="0.921151847" ry="0.92161989"></ellipse>
                        <ellipse id="Oval" cx="145.673585" cy="73.4662713" rx="0.921151847" ry="0.92161989"></ellipse>
                        <ellipse id="Oval" cx="145.673585" cy="37.2597756" rx="0.921151847" ry="0.92161989"></ellipse>
                        <ellipse id="Oval" cx="145.673585" cy="0.92161989" rx="0.921151847" ry="0.92161989"></ellipse>
                        <ellipse id="Oval" cx="109.485477" cy="182.085758" rx="0.921151847" ry="0.92161989"></ellipse>
                        <ellipse id="Oval" cx="109.485477" cy="145.879263" rx="0.921151847" ry="0.92161989"></ellipse>
                        <ellipse id="Oval" cx="109.485477" cy="109.672767" rx="0.921151847" ry="0.92161989"></ellipse>
                        <ellipse id="Oval" cx="109.485477" cy="73.4662713" rx="0.921151847" ry="0.92161989"></ellipse>
                        <ellipse id="Oval" cx="109.485477" cy="37.2597756" rx="0.921151847" ry="0.92161989"></ellipse>
                        <ellipse id="Oval" cx="109.485477" cy="0.92161989" rx="0.921151847" ry="0.92161989"></ellipse>
                        <ellipse id="Oval" cx="73.2973684" cy="182.085758" rx="0.921151847" ry="0.92161989"></ellipse>
                        <ellipse id="Oval" cx="73.2973684" cy="145.879263" rx="0.921151847" ry="0.92161989"></ellipse>
                        <ellipse id="Oval" cx="73.2973684" cy="109.672767" rx="0.921151847" ry="0.92161989"></ellipse>
                        <ellipse id="Oval" cx="73.2973684" cy="73.4662713" rx="0.921151847" ry="0.92161989"></ellipse>
                        <ellipse id="Oval" cx="73.2973684" cy="37.2597756" rx="0.921151847" ry="0.92161989"></ellipse>
                        <ellipse id="Oval" cx="73.2973684" cy="0.92161989" rx="0.921151847" ry="0.92161989"></ellipse>
                        <ellipse id="Oval" cx="37.1092601" cy="182.085758" rx="0.921151847" ry="0.92161989"></ellipse>
                        <ellipse id="Oval" cx="37.1092601" cy="145.879263" rx="0.921151847" ry="0.92161989"></ellipse>
                        <ellipse id="Oval" cx="37.1092601" cy="109.672767" rx="0.921151847" ry="0.92161989"></ellipse>
                        <ellipse id="Oval" cx="37.1092601" cy="73.4662713" rx="0.921151847" ry="0.92161989"></ellipse>
                        <ellipse id="Oval" cx="37.1092601" cy="37.2597756" rx="0.921151847" ry="0.92161989"></ellipse>
                        <ellipse id="Oval" cx="37.1092601" cy="0.92161989" rx="0.921151847" ry="0.92161989"></ellipse>
                        <ellipse id="Oval" cx="0.921151847" cy="182.085758" rx="0.921151847" ry="0.92161989"></ellipse>
                        <ellipse id="Oval" cx="0.921151847" cy="145.879263" rx="0.921151847" ry="0.92161989"></ellipse>
                        <ellipse id="Oval" cx="0.921151847" cy="109.672767" rx="0.921151847" ry="0.92161989"></ellipse>
                        <ellipse id="Oval" cx="0.921151847" cy="73.4662713" rx="0.921151847" ry="0.92161989"></ellipse>
                        <ellipse id="Oval" cx="0.921151847" cy="37.2597756" rx="0.921151847" ry="0.92161989"></ellipse>
                        <ellipse id="Oval" cx="0.921151847" cy="0.92161989" rx="0.921151847" ry="0.92161989"></ellipse>
                        <ellipse id="Oval" cx="401.554838" cy="182.085758" rx="0.921151847" ry="0.92161989"></ellipse>
                        <ellipse id="Oval" cx="401.554838" cy="145.879263" rx="0.921151847" ry="0.92161989"></ellipse>
                        <ellipse id="Oval" cx="401.554838" cy="109.672767" rx="0.921151847" ry="0.92161989"></ellipse>
                        <ellipse id="Oval" cx="401.554838" cy="73.4662713" rx="0.921151847" ry="0.92161989"></ellipse>
                        <ellipse id="Oval" cx="401.554838" cy="37.2597756" rx="0.921151847" ry="0.92161989"></ellipse>
                        <ellipse id="Oval" cx="401.554838" cy="0.92161989" rx="0.921151847" ry="0.92161989"></ellipse>
                        <ellipse id="Oval" cx="365.235136" cy="182.085758" rx="0.921151847" ry="0.92161989"></ellipse>
                        <ellipse id="Oval" cx="365.235136" cy="145.879263" rx="0.921151847" ry="0.92161989"></ellipse>
                        <ellipse id="Oval" cx="365.235136" cy="109.672767" rx="0.921151847" ry="0.92161989"></ellipse>
                        <ellipse id="Oval" cx="365.235136" cy="73.4662713" rx="0.921151847" ry="0.92161989"></ellipse>
                        <ellipse id="Oval" cx="365.235136" cy="37.2597756" rx="0.921151847" ry="0.92161989"></ellipse>
                        <ellipse id="Oval" cx="365.235136" cy="0.92161989" rx="0.921151847" ry="0.92161989"></ellipse>
                        <ellipse id="Oval" cx="329.047028" cy="182.085758" rx="0.921151847" ry="0.92161989"></ellipse>
                        <ellipse id="Oval" cx="329.047028" cy="145.879263" rx="0.921151847" ry="0.92161989"></ellipse>
                        <ellipse id="Oval" cx="329.047028" cy="109.672767" rx="0.921151847" ry="0.92161989"></ellipse>
                        <ellipse id="Oval" cx="329.047028" cy="73.4662713" rx="0.921151847" ry="0.92161989"></ellipse>
                        <ellipse id="Oval" cx="329.047028" cy="37.2597756" rx="0.921151847" ry="0.92161989"></ellipse>
                        <ellipse id="Oval" cx="329.047028" cy="0.92161989" rx="0.921151847" ry="0.92161989"></ellipse>
                        <ellipse id="Oval" cx="292.85892" cy="182.085758" rx="0.921151847" ry="0.92161989"></ellipse>
                        <ellipse id="Oval" cx="292.85892" cy="145.879263" rx="0.921151847" ry="0.92161989"></ellipse>
                        <ellipse id="Oval" cx="292.85892" cy="109.672767" rx="0.921151847" ry="0.92161989"></ellipse>
                        <ellipse id="Oval" cx="292.85892" cy="73.4662713" rx="0.921151847" ry="0.92161989"></ellipse>
                        <ellipse id="Oval" cx="292.85892" cy="37.2597756" rx="0.921151847" ry="0.92161989"></ellipse>
                        <ellipse id="Oval" cx="292.85892" cy="0.92161989" rx="0.921151847" ry="0.92161989"></ellipse>
                        <ellipse id="Oval" cx="256.670812" cy="182.085758" rx="0.921151847" ry="0.92161989"></ellipse>
                        <ellipse id="Oval" cx="256.670812" cy="145.879263" rx="0.921151847" ry="0.92161989"></ellipse>
                        <ellipse id="Oval" cx="256.670812" cy="109.672767" rx="0.921151847" ry="0.92161989"></ellipse>
                        <ellipse id="Oval" cx="256.670812" cy="73.4662713" rx="0.921151847" ry="0.92161989"></ellipse>
                        <ellipse id="Oval" cx="256.670812" cy="37.2597756" rx="0.921151847" ry="0.92161989"></ellipse>
                        <ellipse id="Oval" cx="256.670812" cy="0.92161989" rx="0.921151847" ry="0.92161989"></ellipse>
                        <ellipse id="Oval" cx="220.482703" cy="182.085758" rx="0.921151847" ry="0.92161989"></ellipse>
                        <ellipse id="Oval" cx="220.482703" cy="145.879263" rx="0.921151847" ry="0.92161989"></ellipse>
                        <ellipse id="Oval" cx="220.482703" cy="109.672767" rx="0.921151847" ry="0.92161989"></ellipse>
                        <ellipse id="Oval" cx="220.482703" cy="73.4662713" rx="0.921151847" ry="0.92161989"></ellipse>
                        <ellipse id="Oval" cx="220.482703" cy="37.2597756" rx="0.921151847" ry="0.92161989"></ellipse>
                        <ellipse id="Oval" cx="220.482703" cy="0.92161989" rx="0.921151847" ry="0.92161989"></ellipse>
                    </g>
                    <g id="Block" transform="translate(0.000000, 213.490725)">
                        <ellipse id="Oval" cx="181.993286" cy="182.085758" rx="0.921151847" ry="0.92161989"></ellipse>
                        <ellipse id="Oval" cx="181.993286" cy="145.879263" rx="0.921151847" ry="0.92161989"></ellipse>
                        <ellipse id="Oval" cx="181.993286" cy="109.672767" rx="0.921151847" ry="0.92161989"></ellipse>
                        <ellipse id="Oval" cx="181.993286" cy="73.4662713" rx="0.921151847" ry="0.92161989"></ellipse>
                        <ellipse id="Oval" cx="181.993286" cy="37.2597756" rx="0.921151847" ry="0.92161989"></ellipse>
                        <ellipse id="Oval" cx="181.993286" cy="0.92161989" rx="0.921151847" ry="0.92161989"></ellipse>
                        <ellipse id="Oval" cx="145.673585" cy="182.085758" rx="0.921151847" ry="0.92161989"></ellipse>
                        <ellipse id="Oval" cx="145.673585" cy="145.879263" rx="0.921151847" ry="0.92161989"></ellipse>
                        <ellipse id="Oval" cx="145.673585" cy="109.672767" rx="0.921151847" ry="0.92161989"></ellipse>
                        <ellipse id="Oval" cx="145.673585" cy="73.4662713" rx="0.921151847" ry="0.92161989"></ellipse>
                        <ellipse id="Oval" cx="145.673585" cy="37.2597756" rx="0.921151847" ry="0.92161989"></ellipse>
                        <ellipse id="Oval" cx="145.673585" cy="0.92161989" rx="0.921151847" ry="0.92161989"></ellipse>
                        <ellipse id="Oval" cx="109.485477" cy="182.085758" rx="0.921151847" ry="0.92161989"></ellipse>
                        <ellipse id="Oval" cx="109.485477" cy="145.879263" rx="0.921151847" ry="0.92161989"></ellipse>
                        <ellipse id="Oval" cx="109.485477" cy="109.672767" rx="0.921151847" ry="0.92161989"></ellipse>
                        <ellipse id="Oval" cx="109.485477" cy="73.4662713" rx="0.921151847" ry="0.92161989"></ellipse>
                        <ellipse id="Oval" cx="109.485477" cy="37.2597756" rx="0.921151847" ry="0.92161989"></ellipse>
                        <ellipse id="Oval" cx="109.485477" cy="0.92161989" rx="0.921151847" ry="0.92161989"></ellipse>
                        <ellipse id="Oval" cx="73.2973684" cy="182.085758" rx="0.921151847" ry="0.92161989"></ellipse>
                        <ellipse id="Oval" cx="73.2973684" cy="145.879263" rx="0.921151847" ry="0.92161989"></ellipse>
                        <ellipse id="Oval" cx="73.2973684" cy="109.672767" rx="0.921151847" ry="0.92161989"></ellipse>
                        <ellipse id="Oval" cx="73.2973684" cy="73.4662713" rx="0.921151847" ry="0.92161989"></ellipse>
                        <ellipse id="Oval" cx="73.2973684" cy="37.2597756" rx="0.921151847" ry="0.92161989"></ellipse>
                        <ellipse id="Oval" cx="73.2973684" cy="0.92161989" rx="0.921151847" ry="0.92161989"></ellipse>
                        <ellipse id="Oval" cx="37.1092601" cy="182.085758" rx="0.921151847" ry="0.92161989"></ellipse>
                        <ellipse id="Oval" cx="37.1092601" cy="145.879263" rx="0.921151847" ry="0.92161989"></ellipse>
                        <ellipse id="Oval" cx="37.1092601" cy="109.672767" rx="0.921151847" ry="0.92161989"></ellipse>
                        <ellipse id="Oval" cx="37.1092601" cy="73.4662713" rx="0.921151847" ry="0.92161989"></ellipse>
                        <ellipse id="Oval" cx="37.1092601" cy="37.2597756" rx="0.921151847" ry="0.92161989"></ellipse>
                        <ellipse id="Oval" cx="37.1092601" cy="0.92161989" rx="0.921151847" ry="0.92161989"></ellipse>
                        <ellipse id="Oval" cx="0.921151847" cy="182.085758" rx="0.921151847" ry="0.92161989"></ellipse>
                        <ellipse id="Oval" cx="0.921151847" cy="145.879263" rx="0.921151847" ry="0.92161989"></ellipse>
                        <ellipse id="Oval" cx="0.921151847" cy="109.672767" rx="0.921151847" ry="0.92161989"></ellipse>
                        <ellipse id="Oval" cx="0.921151847" cy="73.4662713" rx="0.921151847" ry="0.92161989"></ellipse>
                        <ellipse id="Oval" cx="0.921151847" cy="37.2597756" rx="0.921151847" ry="0.92161989"></ellipse>
                        <ellipse id="Oval" cx="0.921151847" cy="0.92161989" rx="0.921151847" ry="0.92161989"></ellipse>
                        <ellipse id="Oval" cx="401.554838" cy="182.085758" rx="0.921151847" ry="0.92161989"></ellipse>
                        <ellipse id="Oval" cx="401.554838" cy="145.879263" rx="0.921151847" ry="0.92161989"></ellipse>
                        <ellipse id="Oval" cx="401.554838" cy="109.672767" rx="0.921151847" ry="0.92161989"></ellipse>
                        <ellipse id="Oval" cx="401.554838" cy="73.4662713" rx="0.921151847" ry="0.92161989"></ellipse>
                        <ellipse id="Oval" cx="401.554838" cy="37.2597756" rx="0.921151847" ry="0.92161989"></ellipse>
                        <ellipse id="Oval" cx="401.554838" cy="0.92161989" rx="0.921151847" ry="0.92161989"></ellipse>
                        <ellipse id="Oval" cx="365.235136" cy="182.085758" rx="0.921151847" ry="0.92161989"></ellipse>
                        <ellipse id="Oval" cx="365.235136" cy="145.879263" rx="0.921151847" ry="0.92161989"></ellipse>
                        <ellipse id="Oval" cx="365.235136" cy="109.672767" rx="0.921151847" ry="0.92161989"></ellipse>
                        <ellipse id="Oval" cx="365.235136" cy="73.4662713" rx="0.921151847" ry="0.92161989"></ellipse>
                        <ellipse id="Oval" cx="365.235136" cy="37.2597756" rx="0.921151847" ry="0.92161989"></ellipse>
                        <ellipse id="Oval" cx="365.235136" cy="0.92161989" rx="0.921151847" ry="0.92161989"></ellipse>
                        <ellipse id="Oval" cx="329.047028" cy="182.085758" rx="0.921151847" ry="0.92161989"></ellipse>
                        <ellipse id="Oval" cx="329.047028" cy="145.879263" rx="0.921151847" ry="0.92161989"></ellipse>
                        <ellipse id="Oval" cx="329.047028" cy="109.672767" rx="0.921151847" ry="0.92161989"></ellipse>
                        <ellipse id="Oval" cx="329.047028" cy="73.4662713" rx="0.921151847" ry="0.92161989"></ellipse>
                        <ellipse id="Oval" cx="329.047028" cy="37.2597756" rx="0.921151847" ry="0.92161989"></ellipse>
                        <ellipse id="Oval" cx="329.047028" cy="0.92161989" rx="0.921151847" ry="0.92161989"></ellipse>
                        <ellipse id="Oval" cx="292.85892" cy="182.085758" rx="0.921151847" ry="0.92161989"></ellipse>
                        <ellipse id="Oval" cx="292.85892" cy="145.879263" rx="0.921151847" ry="0.92161989"></ellipse>
                        <ellipse id="Oval" cx="292.85892" cy="109.672767" rx="0.921151847" ry="0.92161989"></ellipse>
                        <ellipse id="Oval" cx="292.85892" cy="73.4662713" rx="0.921151847" ry="0.92161989"></ellipse>
                        <ellipse id="Oval" cx="292.85892" cy="37.2597756" rx="0.921151847" ry="0.92161989"></ellipse>
                        <ellipse id="Oval" cx="292.85892" cy="0.92161989" rx="0.921151847" ry="0.92161989"></ellipse>
                        <ellipse id="Oval" cx="256.670812" cy="182.085758" rx="0.921151847" ry="0.92161989"></ellipse>
                        <ellipse id="Oval" cx="256.670812" cy="145.879263" rx="0.921151847" ry="0.92161989"></ellipse>
                        <ellipse id="Oval" cx="256.670812" cy="109.672767" rx="0.921151847" ry="0.92161989"></ellipse>
                        <ellipse id="Oval" cx="256.670812" cy="73.4662713" rx="0.921151847" ry="0.92161989"></ellipse>
                        <ellipse id="Oval" cx="256.670812" cy="37.2597756" rx="0.921151847" ry="0.92161989"></ellipse>
                        <ellipse id="Oval" cx="256.670812" cy="0.92161989" rx="0.921151847" ry="0.92161989"></ellipse>
                        <ellipse id="Oval" cx="220.482703" cy="182.085758" rx="0.921151847" ry="0.92161989"></ellipse>
                        <ellipse id="Oval" cx="220.482703" cy="145.879263" rx="0.921151847" ry="0.92161989"></ellipse>
                        <ellipse id="Oval" cx="220.482703" cy="109.672767" rx="0.921151847" ry="0.92161989"></ellipse>
                        <ellipse id="Oval" cx="220.482703" cy="73.4662713" rx="0.921151847" ry="0.92161989"></ellipse>
                        <ellipse id="Oval" cx="220.482703" cy="37.2597756" rx="0.921151847" ry="0.92161989"></ellipse>
                        <ellipse id="Oval" cx="220.482703" cy="0.92161989" rx="0.921151847" ry="0.92161989"></ellipse>
                    </g>
                    <g id="Block" transform="translate(436.087690, 0.000000)">
                        <ellipse id="Oval" cx="181.993286" cy="182.085758" rx="0.921151847" ry="0.92161989"></ellipse>
                        <ellipse id="Oval" cx="181.993286" cy="145.879263" rx="0.921151847" ry="0.92161989"></ellipse>
                        <ellipse id="Oval" cx="181.993286" cy="109.672767" rx="0.921151847" ry="0.92161989"></ellipse>
                        <ellipse id="Oval" cx="181.993286" cy="73.4662713" rx="0.921151847" ry="0.92161989"></ellipse>
                        <ellipse id="Oval" cx="181.993286" cy="37.2597756" rx="0.921151847" ry="0.92161989"></ellipse>
                        <ellipse id="Oval" cx="181.993286" cy="0.92161989" rx="0.921151847" ry="0.92161989"></ellipse>
                        <ellipse id="Oval" cx="145.673585" cy="182.085758" rx="0.921151847" ry="0.92161989"></ellipse>
                        <ellipse id="Oval" cx="145.673585" cy="145.879263" rx="0.921151847" ry="0.92161989"></ellipse>
                        <ellipse id="Oval" cx="145.673585" cy="109.672767" rx="0.921151847" ry="0.92161989"></ellipse>
                        <ellipse id="Oval" cx="145.673585" cy="73.4662713" rx="0.921151847" ry="0.92161989"></ellipse>
                        <ellipse id="Oval" cx="145.673585" cy="37.2597756" rx="0.921151847" ry="0.92161989"></ellipse>
                        <ellipse id="Oval" cx="145.673585" cy="0.92161989" rx="0.921151847" ry="0.92161989"></ellipse>
                        <ellipse id="Oval" cx="109.485477" cy="182.085758" rx="0.921151847" ry="0.92161989"></ellipse>
                        <ellipse id="Oval" cx="109.485477" cy="145.879263" rx="0.921151847" ry="0.92161989"></ellipse>
                        <ellipse id="Oval" cx="109.485477" cy="109.672767" rx="0.921151847" ry="0.92161989"></ellipse>
                        <ellipse id="Oval" cx="109.485477" cy="73.4662713" rx="0.921151847" ry="0.92161989"></ellipse>
                        <ellipse id="Oval" cx="109.485477" cy="37.2597756" rx="0.921151847" ry="0.92161989"></ellipse>
                        <ellipse id="Oval" cx="109.485477" cy="0.92161989" rx="0.921151847" ry="0.92161989"></ellipse>
                        <ellipse id="Oval" cx="73.2973684" cy="182.085758" rx="0.921151847" ry="0.92161989"></ellipse>
                        <ellipse id="Oval" cx="73.2973684" cy="145.879263" rx="0.921151847" ry="0.92161989"></ellipse>
                        <ellipse id="Oval" cx="73.2973684" cy="109.672767" rx="0.921151847" ry="0.92161989"></ellipse>
                        <ellipse id="Oval" cx="73.2973684" cy="73.4662713" rx="0.921151847" ry="0.92161989"></ellipse>
                        <ellipse id="Oval" cx="73.2973684" cy="37.2597756" rx="0.921151847" ry="0.92161989"></ellipse>
                        <ellipse id="Oval" cx="73.2973684" cy="0.92161989" rx="0.921151847" ry="0.92161989"></ellipse>
                        <ellipse id="Oval" cx="37.1092601" cy="182.085758" rx="0.921151847" ry="0.92161989"></ellipse>
                        <ellipse id="Oval" cx="37.1092601" cy="145.879263" rx="0.921151847" ry="0.92161989"></ellipse>
                        <ellipse id="Oval" cx="37.1092601" cy="109.672767" rx="0.921151847" ry="0.92161989"></ellipse>
                        <ellipse id="Oval" cx="37.1092601" cy="73.4662713" rx="0.921151847" ry="0.92161989"></ellipse>
                        <ellipse id="Oval" cx="37.1092601" cy="37.2597756" rx="0.921151847" ry="0.92161989"></ellipse>
                        <ellipse id="Oval" cx="37.1092601" cy="0.92161989" rx="0.921151847" ry="0.92161989"></ellipse>
                        <ellipse id="Oval" cx="0.921151847" cy="182.085758" rx="0.921151847" ry="0.92161989"></ellipse>
                        <ellipse id="Oval" cx="0.921151847" cy="145.879263" rx="0.921151847" ry="0.92161989"></ellipse>
                        <ellipse id="Oval" cx="0.921151847" cy="109.672767" rx="0.921151847" ry="0.92161989"></ellipse>
                        <ellipse id="Oval" cx="0.921151847" cy="73.4662713" rx="0.921151847" ry="0.92161989"></ellipse>
                        <ellipse id="Oval" cx="0.921151847" cy="37.2597756" rx="0.921151847" ry="0.92161989"></ellipse>
                        <ellipse id="Oval" cx="0.921151847" cy="0.92161989" rx="0.921151847" ry="0.92161989"></ellipse>
                        <ellipse id="Oval" cx="401.554838" cy="182.085758" rx="0.921151847" ry="0.92161989"></ellipse>
                        <ellipse id="Oval" cx="401.554838" cy="145.879263" rx="0.921151847" ry="0.92161989"></ellipse>
                        <ellipse id="Oval" cx="401.554838" cy="109.672767" rx="0.921151847" ry="0.92161989"></ellipse>
                        <ellipse id="Oval" cx="401.554838" cy="73.4662713" rx="0.921151847" ry="0.92161989"></ellipse>
                        <ellipse id="Oval" cx="401.554838" cy="37.2597756" rx="0.921151847" ry="0.92161989"></ellipse>
                        <ellipse id="Oval" cx="401.554838" cy="0.92161989" rx="0.921151847" ry="0.92161989"></ellipse>
                        <ellipse id="Oval" cx="365.235136" cy="182.085758" rx="0.921151847" ry="0.92161989"></ellipse>
                        <ellipse id="Oval" cx="365.235136" cy="145.879263" rx="0.921151847" ry="0.92161989"></ellipse>
                        <ellipse id="Oval" cx="365.235136" cy="109.672767" rx="0.921151847" ry="0.92161989"></ellipse>
                        <ellipse id="Oval" cx="365.235136" cy="73.4662713" rx="0.921151847" ry="0.92161989"></ellipse>
                        <ellipse id="Oval" cx="365.235136" cy="37.2597756" rx="0.921151847" ry="0.92161989"></ellipse>
                        <ellipse id="Oval" cx="365.235136" cy="0.92161989" rx="0.921151847" ry="0.92161989"></ellipse>
                        <ellipse id="Oval" cx="329.047028" cy="182.085758" rx="0.921151847" ry="0.92161989"></ellipse>
                        <ellipse id="Oval" cx="329.047028" cy="145.879263" rx="0.921151847" ry="0.92161989"></ellipse>
                        <ellipse id="Oval" cx="329.047028" cy="109.672767" rx="0.921151847" ry="0.92161989"></ellipse>
                        <ellipse id="Oval" cx="329.047028" cy="73.4662713" rx="0.921151847" ry="0.92161989"></ellipse>
                        <ellipse id="Oval" cx="329.047028" cy="37.2597756" rx="0.921151847" ry="0.92161989"></ellipse>
                        <ellipse id="Oval" cx="329.047028" cy="0.92161989" rx="0.921151847" ry="0.92161989"></ellipse>
                        <ellipse id="Oval" cx="292.85892" cy="182.085758" rx="0.921151847" ry="0.92161989"></ellipse>
                        <ellipse id="Oval" cx="292.85892" cy="145.879263" rx="0.921151847" ry="0.92161989"></ellipse>
                        <ellipse id="Oval" cx="292.85892" cy="109.672767" rx="0.921151847" ry="0.92161989"></ellipse>
                        <ellipse id="Oval" cx="292.85892" cy="73.4662713" rx="0.921151847" ry="0.92161989"></ellipse>
                        <ellipse id="Oval" cx="292.85892" cy="37.2597756" rx="0.921151847" ry="0.92161989"></ellipse>
                        <ellipse id="Oval" cx="292.85892" cy="0.92161989" rx="0.921151847" ry="0.92161989"></ellipse>
                        <ellipse id="Oval" cx="256.670812" cy="182.085758" rx="0.921151847" ry="0.92161989"></ellipse>
                        <ellipse id="Oval" cx="256.670812" cy="145.879263" rx="0.921151847" ry="0.92161989"></ellipse>
                        <ellipse id="Oval" cx="256.670812" cy="109.672767" rx="0.921151847" ry="0.92161989"></ellipse>
                        <ellipse id="Oval" cx="256.670812" cy="73.4662713" rx="0.921151847" ry="0.92161989"></ellipse>
                        <ellipse id="Oval" cx="256.670812" cy="37.2597756" rx="0.921151847" ry="0.92161989"></ellipse>
                        <ellipse id="Oval" cx="256.670812" cy="0.92161989" rx="0.921151847" ry="0.92161989"></ellipse>
                        <ellipse id="Oval" cx="220.482703" cy="182.085758" rx="0.921151847" ry="0.92161989"></ellipse>
                        <ellipse id="Oval" cx="220.482703" cy="145.879263" rx="0.921151847" ry="0.92161989"></ellipse>
                        <ellipse id="Oval" cx="220.482703" cy="109.672767" rx="0.921151847" ry="0.92161989"></ellipse>
                        <ellipse id="Oval" cx="220.482703" cy="73.4662713" rx="0.921151847" ry="0.92161989"></ellipse>
                        <ellipse id="Oval" cx="220.482703" cy="37.2597756" rx="0.921151847" ry="0.92161989"></ellipse>
                        <ellipse id="Oval" cx="220.482703" cy="0.92161989" rx="0.921151847" ry="0.92161989"></ellipse>
                    </g>
                    <g id="Block" transform="translate(436.087690, 213.490725)">
                        <ellipse id="Oval" cx="181.993286" cy="182.085758" rx="0.921151847" ry="0.92161989"></ellipse>
                        <ellipse id="Oval" cx="181.993286" cy="145.879263" rx="0.921151847" ry="0.92161989"></ellipse>
                        <ellipse id="Oval" cx="181.993286" cy="109.672767" rx="0.921151847" ry="0.92161989"></ellipse>
                        <ellipse id="Oval" cx="181.993286" cy="73.4662713" rx="0.921151847" ry="0.92161989"></ellipse>
                        <ellipse id="Oval" cx="181.993286" cy="37.2597756" rx="0.921151847" ry="0.92161989"></ellipse>
                        <ellipse id="Oval" cx="181.993286" cy="0.92161989" rx="0.921151847" ry="0.92161989"></ellipse>
                        <ellipse id="Oval" cx="145.673585" cy="182.085758" rx="0.921151847" ry="0.92161989"></ellipse>
                        <ellipse id="Oval" cx="145.673585" cy="145.879263" rx="0.921151847" ry="0.92161989"></ellipse>
                        <ellipse id="Oval" cx="145.673585" cy="109.672767" rx="0.921151847" ry="0.92161989"></ellipse>
                        <ellipse id="Oval" cx="145.673585" cy="73.4662713" rx="0.921151847" ry="0.92161989"></ellipse>
                        <ellipse id="Oval" cx="145.673585" cy="37.2597756" rx="0.921151847" ry="0.92161989"></ellipse>
                        <ellipse id="Oval" cx="145.673585" cy="0.92161989" rx="0.921151847" ry="0.92161989"></ellipse>
                        <ellipse id="Oval" cx="109.485477" cy="182.085758" rx="0.921151847" ry="0.92161989"></ellipse>
                        <ellipse id="Oval" cx="109.485477" cy="145.879263" rx="0.921151847" ry="0.92161989"></ellipse>
                        <ellipse id="Oval" cx="109.485477" cy="109.672767" rx="0.921151847" ry="0.92161989"></ellipse>
                        <ellipse id="Oval" cx="109.485477" cy="73.4662713" rx="0.921151847" ry="0.92161989"></ellipse>
                        <ellipse id="Oval" cx="109.485477" cy="37.2597756" rx="0.921151847" ry="0.92161989"></ellipse>
                        <ellipse id="Oval" cx="109.485477" cy="0.92161989" rx="0.921151847" ry="0.92161989"></ellipse>
                        <ellipse id="Oval" cx="73.2973684" cy="182.085758" rx="0.921151847" ry="0.92161989"></ellipse>
                        <ellipse id="Oval" cx="73.2973684" cy="145.879263" rx="0.921151847" ry="0.92161989"></ellipse>
                        <ellipse id="Oval" cx="73.2973684" cy="109.672767" rx="0.921151847" ry="0.92161989"></ellipse>
                        <ellipse id="Oval" cx="73.2973684" cy="73.4662713" rx="0.921151847" ry="0.92161989"></ellipse>
                        <ellipse id="Oval" cx="73.2973684" cy="37.2597756" rx="0.921151847" ry="0.92161989"></ellipse>
                        <ellipse id="Oval" cx="73.2973684" cy="0.92161989" rx="0.921151847" ry="0.92161989"></ellipse>
                        <ellipse id="Oval" cx="37.1092601" cy="182.085758" rx="0.921151847" ry="0.92161989"></ellipse>
                        <ellipse id="Oval" cx="37.1092601" cy="145.879263" rx="0.921151847" ry="0.92161989"></ellipse>
                        <ellipse id="Oval" cx="37.1092601" cy="109.672767" rx="0.921151847" ry="0.92161989"></ellipse>
                        <ellipse id="Oval" cx="37.1092601" cy="73.4662713" rx="0.921151847" ry="0.92161989"></ellipse>
                        <ellipse id="Oval" cx="37.1092601" cy="37.2597756" rx="0.921151847" ry="0.92161989"></ellipse>
                        <ellipse id="Oval" cx="37.1092601" cy="0.92161989" rx="0.921151847" ry="0.92161989"></ellipse>
                        <ellipse id="Oval" cx="0.921151847" cy="182.085758" rx="0.921151847" ry="0.92161989"></ellipse>
                        <ellipse id="Oval" cx="0.921151847" cy="145.879263" rx="0.921151847" ry="0.92161989"></ellipse>
                        <ellipse id="Oval" cx="0.921151847" cy="109.672767" rx="0.921151847" ry="0.92161989"></ellipse>
                        <ellipse id="Oval" cx="0.921151847" cy="73.4662713" rx="0.921151847" ry="0.92161989"></ellipse>
                        <ellipse id="Oval" cx="0.921151847" cy="37.2597756" rx="0.921151847" ry="0.92161989"></ellipse>
                        <ellipse id="Oval" cx="0.921151847" cy="0.92161989" rx="0.921151847" ry="0.92161989"></ellipse>
                        <ellipse id="Oval" cx="401.554838" cy="182.085758" rx="0.921151847" ry="0.92161989"></ellipse>
                        <ellipse id="Oval" cx="401.554838" cy="145.879263" rx="0.921151847" ry="0.92161989"></ellipse>
                        <ellipse id="Oval" cx="401.554838" cy="109.672767" rx="0.921151847" ry="0.92161989"></ellipse>
                        <ellipse id="Oval" cx="401.554838" cy="73.4662713" rx="0.921151847" ry="0.92161989"></ellipse>
                        <ellipse id="Oval" cx="401.554838" cy="37.2597756" rx="0.921151847" ry="0.92161989"></ellipse>
                        <ellipse id="Oval" cx="401.554838" cy="0.92161989" rx="0.921151847" ry="0.92161989"></ellipse>
                        <ellipse id="Oval" cx="365.235136" cy="182.085758" rx="0.921151847" ry="0.92161989"></ellipse>
                        <ellipse id="Oval" cx="365.235136" cy="145.879263" rx="0.921151847" ry="0.92161989"></ellipse>
                        <ellipse id="Oval" cx="365.235136" cy="109.672767" rx="0.921151847" ry="0.92161989"></ellipse>
                        <ellipse id="Oval" cx="365.235136" cy="73.4662713" rx="0.921151847" ry="0.92161989"></ellipse>
                        <ellipse id="Oval" cx="365.235136" cy="37.2597756" rx="0.921151847" ry="0.92161989"></ellipse>
                        <ellipse id="Oval" cx="365.235136" cy="0.92161989" rx="0.921151847" ry="0.92161989"></ellipse>
                        <ellipse id="Oval" cx="329.047028" cy="182.085758" rx="0.921151847" ry="0.92161989"></ellipse>
                        <ellipse id="Oval" cx="329.047028" cy="145.879263" rx="0.921151847" ry="0.92161989"></ellipse>
                        <ellipse id="Oval" cx="329.047028" cy="109.672767" rx="0.921151847" ry="0.92161989"></ellipse>
                        <ellipse id="Oval" cx="329.047028" cy="73.4662713" rx="0.921151847" ry="0.92161989"></ellipse>
                        <ellipse id="Oval" cx="329.047028" cy="37.2597756" rx="0.921151847" ry="0.92161989"></ellipse>
                        <ellipse id="Oval" cx="329.047028" cy="0.92161989" rx="0.921151847" ry="0.92161989"></ellipse>
                        <ellipse id="Oval" cx="292.85892" cy="182.085758" rx="0.921151847" ry="0.92161989"></ellipse>
                        <ellipse id="Oval" cx="292.85892" cy="145.879263" rx="0.921151847" ry="0.92161989"></ellipse>
                        <ellipse id="Oval" cx="292.85892" cy="109.672767" rx="0.921151847" ry="0.92161989"></ellipse>
                        <ellipse id="Oval" cx="292.85892" cy="73.4662713" rx="0.921151847" ry="0.92161989"></ellipse>
                        <ellipse id="Oval" cx="292.85892" cy="37.2597756" rx="0.921151847" ry="0.92161989"></ellipse>
                        <ellipse id="Oval" cx="292.85892" cy="0.92161989" rx="0.921151847" ry="0.92161989"></ellipse>
                        <ellipse id="Oval" cx="256.670812" cy="182.085758" rx="0.921151847" ry="0.92161989"></ellipse>
                        <ellipse id="Oval" cx="256.670812" cy="145.879263" rx="0.921151847" ry="0.92161989"></ellipse>
                        <ellipse id="Oval" cx="256.670812" cy="109.672767" rx="0.921151847" ry="0.92161989"></ellipse>
                        <ellipse id="Oval" cx="256.670812" cy="73.4662713" rx="0.921151847" ry="0.92161989"></ellipse>
                        <ellipse id="Oval" cx="256.670812" cy="37.2597756" rx="0.921151847" ry="0.92161989"></ellipse>
                        <ellipse id="Oval" cx="256.670812" cy="0.92161989" rx="0.921151847" ry="0.92161989"></ellipse>
                        <ellipse id="Oval" cx="220.482703" cy="182.085758" rx="0.921151847" ry="0.92161989"></ellipse>
                        <ellipse id="Oval" cx="220.482703" cy="145.879263" rx="0.921151847" ry="0.92161989"></ellipse>
                        <ellipse id="Oval" cx="220.482703" cy="109.672767" rx="0.921151847" ry="0.92161989"></ellipse>
                        <ellipse id="Oval" cx="220.482703" cy="73.4662713" rx="0.921151847" ry="0.92161989"></ellipse>
                        <ellipse id="Oval" cx="220.482703" cy="37.2597756" rx="0.921151847" ry="0.92161989"></ellipse>
                        <ellipse id="Oval" cx="220.482703" cy="0.92161989" rx="0.921151847" ry="0.92161989"></ellipse>
                    </g>
                    <g id="Block" transform="translate(869.139966, 0.000000)">
                        <ellipse id="Oval" cx="0.921151847" cy="182.085758" rx="0.921151847" ry="0.92161989"></ellipse>
                        <ellipse id="Oval" cx="0.921151847" cy="145.879263" rx="0.921151847" ry="0.92161989"></ellipse>
                        <ellipse id="Oval" cx="0.921151847" cy="109.672767" rx="0.921151847" ry="0.92161989"></ellipse>
                        <ellipse id="Oval" cx="0.921151847" cy="73.4662713" rx="0.921151847" ry="0.92161989"></ellipse>
                        <ellipse id="Oval" cx="0.921151847" cy="37.2597756" rx="0.921151847" ry="0.92161989"></ellipse>
                        <ellipse id="Oval" cx="0.921151847" cy="0.92161989" rx="0.921151847" ry="0.92161989"></ellipse>
                    </g>
                    <g id="Block" transform="translate(869.139966, 213.490725)">
                        <ellipse id="Oval" cx="0.921151847" cy="182.085758" rx="0.921151847" ry="0.92161989"></ellipse>
                        <ellipse id="Oval" cx="0.921151847" cy="145.879263" rx="0.921151847" ry="0.92161989"></ellipse>
                        <ellipse id="Oval" cx="0.921151847" cy="109.672767" rx="0.921151847" ry="0.92161989"></ellipse>
                        <ellipse id="Oval" cx="0.921151847" cy="73.4662713" rx="0.921151847" ry="0.92161989"></ellipse>
                        <ellipse id="Oval" cx="0.921151847" cy="37.2597756" rx="0.921151847" ry="0.92161989"></ellipse>
                        <ellipse id="Oval" cx="0.921151847" cy="0.92161989" rx="0.921151847" ry="0.92161989"></ellipse>
                    </g>
                </g>
                <rect id="Rectangle-843" fill="#FFFFFF" x="560" y="275" width="274" height="72"></rect>
                <text id="Information" font-family="Sofia, Avenir, Helvetica Neue, Arial, sans-serif" font-size="60" font-weight="bold" line-spacing="72" fill="#182226">
                    <tspan x="582" y="338">Physical</tspan>
                </text>
                <path d="M444.47548,36.9392653 L440.706522,185.390587 L288.697142,182.204916 L444.47548,36.9392653 Z" id="Shape-Copy-25" fill="#EE4A62" style="mix-blend-mode: darken;" transform="translate(366.586311, 111.164926) scale(-1, 1) rotate(-317.000000) translate(-366.586311, -111.164926) "></path>
                <path d="M313.5,127.5 L418,127.5 L418,342 L313.5,341.999995 L313.5,127.5 Z" id="Rectangle-path-Copy-22" fill="#5AC2B3" style="mix-blend-mode: darken;" transform="translate(365.750000, 234.750000) rotate(-270.000000) translate(-365.750000, -234.750000) "></path>
                <path d="M127,214 C117.059,214 109,222.059 109,232 C109,241.941 117.059,250 127,250 C136.941,250 145,241.941 145,232 C145,222.059 136.941,214 127,214 Z" id="Fill-14" fill="#F47F50" style="mix-blend-mode: darken;"></path>
                <path d="M800,75 L766,75 L766,182 L800,182 L800,75 Z" id="Fill-6" fill="#7CBDDF" style="mix-blend-mode: darken;"></path>
            </g>
        </g>
    </g>
</svg>