<?xml version="1.0" encoding="UTF-8" standalone="no"?>
<svg width="244px" height="144px" viewBox="0 0 244 144" version="1.1" xmlns="http://www.w3.org/2000/svg" xmlns:xlink="http://www.w3.org/1999/xlink">
    <!-- Generator: Sketch 3.6.1 (26313) - http://www.bohemiancoding.com/sketch -->
    <title>physical-mobile</title>
    <desc>Created with Sketch.</desc>
    <defs></defs>
    <g id="Page-1-Copy" stroke="none" stroke-width="1" fill="none" fill-rule="evenodd">
        <g id="physical-mobile">
            <g id="Dot-Copy-932" transform="translate(240.500000, 140.500000)">
                <rect id="Grid-Unit" x="0" y="0" width="20" height="20"></rect>
                <circle id="Dot" fill="#000000" cx="1.5" cy="1.5" r="1.5"></circle>
            </g>
            <g id="Dot-Copy-931" transform="translate(220.500000, 140.500000)">
                <rect id="Grid-Unit" x="0" y="0" width="20" height="20"></rect>
                <circle id="Dot" fill="#000000" cx="1.5" cy="1.5" r="1.5"></circle>
            </g>
            <g id="Dot-Copy-930" transform="translate(200.500000, 140.500000)">
                <rect id="Grid-Unit" x="0" y="0" width="20" height="20"></rect>
                <circle id="Dot" fill="#000000" cx="1.5" cy="1.5" r="1.5"></circle>
            </g>
            <g id="Dot-Copy-929" transform="translate(180.500000, 140.500000)">
                <rect id="Grid-Unit" x="0" y="0" width="20" height="20"></rect>
                <circle id="Dot" fill="#000000" cx="1.5" cy="1.5" r="1.5"></circle>
            </g>
            <g id="Dot-Copy-928" transform="translate(160.500000, 140.500000)">
                <rect id="Grid-Unit" x="0" y="0" width="20" height="20"></rect>
                <circle id="Dot" fill="#000000" cx="1.5" cy="1.5" r="1.5"></circle>
            </g>
            <g id="Dot-Copy-927" transform="translate(140.500000, 140.500000)">
                <rect id="Grid-Unit" x="0" y="0" width="20" height="20"></rect>
                <circle id="Dot" fill="#000000" cx="1.5" cy="1.5" r="1.5"></circle>
            </g>
            <g id="Dot-Copy-926" transform="translate(120.500000, 140.500000)">
                <rect id="Grid-Unit" x="0" y="0" width="20" height="20"></rect>
                <circle id="Dot" fill="#000000" cx="1.5" cy="1.5" r="1.5"></circle>
            </g>
            <g id="Dot-Copy-925" transform="translate(100.500000, 140.500000)">
                <rect id="Grid-Unit" x="0" y="0" width="20" height="20"></rect>
                <circle id="Dot" fill="#000000" cx="1.5" cy="1.5" r="1.5"></circle>
            </g>
            <g id="Dot-Copy-924" transform="translate(80.500000, 140.500000)">
                <rect id="Grid-Unit" x="0" y="0" width="20" height="20"></rect>
                <circle id="Dot" fill="#000000" cx="1.5" cy="1.5" r="1.5"></circle>
            </g>
            <g id="Dot-Copy-923" transform="translate(60.500000, 140.500000)">
                <rect id="Grid-Unit" x="0" y="0" width="20" height="20"></rect>
                <circle id="Dot" fill="#000000" cx="1.5" cy="1.5" r="1.5"></circle>
            </g>
            <g id="Dot-Copy-922" transform="translate(40.500000, 140.500000)">
                <rect id="Grid-Unit" x="0" y="0" width="20" height="20"></rect>
                <circle id="Dot" fill="#000000" cx="1.5" cy="1.5" r="1.5"></circle>
            </g>
            <g id="Dot-Copy-921" transform="translate(20.500000, 140.500000)">
                <rect id="Grid-Unit" x="0" y="0" width="20" height="20"></rect>
                <circle id="Dot" fill="#000000" cx="1.5" cy="1.5" r="1.5"></circle>
            </g>
            <g id="Dot-Copy-920" transform="translate(0.500000, 140.500000)">
                <rect id="Grid-Unit" x="0" y="0" width="20" height="20"></rect>
                <circle id="Dot" fill="#000000" cx="1.5" cy="1.5" r="1.5"></circle>
            </g>
            <g id="Dot-Copy-918" transform="translate(240.500000, 120.500000)">
                <rect id="Grid-Unit" x="0" y="0" width="20" height="20"></rect>
                <circle id="Dot" fill="#000000" cx="1.5" cy="1.5" r="1.5"></circle>
            </g>
            <g id="Dot-Copy-917" transform="translate(220.500000, 120.500000)">
                <rect id="Grid-Unit" x="0" y="0" width="20" height="20"></rect>
                <circle id="Dot" fill="#000000" cx="1.5" cy="1.5" r="1.5"></circle>
            </g>
            <g id="Dot-Copy-916" transform="translate(200.500000, 120.500000)">
                <rect id="Grid-Unit" x="0" y="0" width="20" height="20"></rect>
                <circle id="Dot" fill="#000000" cx="1.5" cy="1.5" r="1.5"></circle>
            </g>
            <g id="Dot-Copy-915" transform="translate(180.500000, 120.500000)">
                <rect id="Grid-Unit" x="0" y="0" width="20" height="20"></rect>
                <circle id="Dot" fill="#000000" cx="1.5" cy="1.5" r="1.5"></circle>
            </g>
            <g id="Dot-Copy-914" transform="translate(160.500000, 120.500000)">
                <rect id="Grid-Unit" x="0" y="0" width="20" height="20"></rect>
                <circle id="Dot" fill="#000000" cx="1.5" cy="1.5" r="1.5"></circle>
            </g>
            <g id="Dot-Copy-913" transform="translate(140.500000, 120.500000)">
                <rect id="Grid-Unit" x="0" y="0" width="20" height="20"></rect>
                <circle id="Dot" fill="#000000" cx="1.5" cy="1.5" r="1.5"></circle>
            </g>
            <g id="Dot-Copy-912" transform="translate(120.500000, 120.500000)">
                <rect id="Grid-Unit" x="0" y="0" width="20" height="20"></rect>
                <circle id="Dot" fill="#000000" cx="1.5" cy="1.5" r="1.5"></circle>
            </g>
            <g id="Dot-Copy-911" transform="translate(100.500000, 120.500000)">
                <rect id="Grid-Unit" x="0" y="0" width="20" height="20"></rect>
                <circle id="Dot" fill="#000000" cx="1.5" cy="1.5" r="1.5"></circle>
            </g>
            <g id="Dot-Copy-910" transform="translate(80.500000, 120.500000)">
                <rect id="Grid-Unit" x="0" y="0" width="20" height="20"></rect>
                <circle id="Dot" fill="#000000" cx="1.5" cy="1.5" r="1.5"></circle>
            </g>
            <g id="Dot-Copy-909" transform="translate(60.500000, 120.500000)">
                <rect id="Grid-Unit" x="0" y="0" width="20" height="20"></rect>
                <circle id="Dot" fill="#000000" cx="1.5" cy="1.5" r="1.5"></circle>
            </g>
            <g id="Dot-Copy-908" transform="translate(40.500000, 120.500000)">
                <rect id="Grid-Unit" x="0" y="0" width="20" height="20"></rect>
                <circle id="Dot" fill="#000000" cx="1.5" cy="1.5" r="1.5"></circle>
            </g>
            <g id="Dot-Copy-907" transform="translate(20.500000, 120.500000)">
                <rect id="Grid-Unit" x="0" y="0" width="20" height="20"></rect>
                <circle id="Dot" fill="#000000" cx="1.5" cy="1.5" r="1.5"></circle>
            </g>
            <g id="Dot-Copy-906" transform="translate(0.500000, 120.500000)">
                <rect id="Grid-Unit" x="0" y="0" width="20" height="20"></rect>
                <circle id="Dot" fill="#000000" cx="1.5" cy="1.5" r="1.5"></circle>
            </g>
            <g id="Dot-Copy-904" transform="translate(240.500000, 100.500000)">
                <rect id="Grid-Unit" x="0" y="0" width="20" height="20"></rect>
                <circle id="Dot" fill="#000000" cx="1.5" cy="1.5" r="1.5"></circle>
            </g>
            <g id="Dot-Copy-903" transform="translate(220.500000, 100.500000)">
                <rect id="Grid-Unit" x="0" y="0" width="20" height="20"></rect>
                <circle id="Dot" fill="#000000" cx="1.5" cy="1.5" r="1.5"></circle>
            </g>
            <g id="Dot-Copy-902" transform="translate(200.500000, 100.500000)">
                <rect id="Grid-Unit" x="0" y="0" width="20" height="20"></rect>
                <circle id="Dot" fill="#000000" cx="1.5" cy="1.5" r="1.5"></circle>
            </g>
            <g id="Dot-Copy-901" transform="translate(180.500000, 100.500000)">
                <rect id="Grid-Unit" x="0" y="0" width="20" height="20"></rect>
                <circle id="Dot" fill="#000000" cx="1.5" cy="1.5" r="1.5"></circle>
            </g>
            <g id="Dot-Copy-900" transform="translate(160.500000, 100.500000)">
                <rect id="Grid-Unit" x="0" y="0" width="20" height="20"></rect>
                <circle id="Dot" fill="#000000" cx="1.5" cy="1.5" r="1.5"></circle>
            </g>
            <g id="Dot-Copy-899" transform="translate(140.500000, 100.500000)">
                <rect id="Grid-Unit" x="0" y="0" width="20" height="20"></rect>
                <circle id="Dot" fill="#000000" cx="1.5" cy="1.5" r="1.5"></circle>
            </g>
            <g id="Dot-Copy-898" transform="translate(120.500000, 100.500000)">
                <rect id="Grid-Unit" x="0" y="0" width="20" height="20"></rect>
                <circle id="Dot" fill="#000000" cx="1.5" cy="1.5" r="1.5"></circle>
            </g>
            <g id="Dot-Copy-897" transform="translate(100.500000, 100.500000)">
                <rect id="Grid-Unit" x="0" y="0" width="20" height="20"></rect>
                <circle id="Dot" fill="#000000" cx="1.5" cy="1.5" r="1.5"></circle>
            </g>
            <g id="Dot-Copy-896" transform="translate(80.500000, 100.500000)">
                <rect id="Grid-Unit" x="0" y="0" width="20" height="20"></rect>
                <circle id="Dot" fill="#000000" cx="1.5" cy="1.5" r="1.5"></circle>
            </g>
            <g id="Dot-Copy-895" transform="translate(60.500000, 100.500000)">
                <rect id="Grid-Unit" x="0" y="0" width="20" height="20"></rect>
                <circle id="Dot" fill="#000000" cx="1.5" cy="1.5" r="1.5"></circle>
            </g>
            <g id="Dot-Copy-894" transform="translate(40.500000, 100.500000)">
                <rect id="Grid-Unit" x="0" y="0" width="20" height="20"></rect>
                <circle id="Dot" fill="#000000" cx="1.5" cy="1.5" r="1.5"></circle>
            </g>
            <g id="Dot-Copy-893" transform="translate(20.500000, 100.500000)">
                <rect id="Grid-Unit" x="0" y="0" width="20" height="20"></rect>
                <circle id="Dot" fill="#000000" cx="1.5" cy="1.5" r="1.5"></circle>
            </g>
            <g id="Dot-Copy-892" transform="translate(0.500000, 100.500000)">
                <rect id="Grid-Unit" x="0" y="0" width="20" height="20"></rect>
                <circle id="Dot" fill="#000000" cx="1.5" cy="1.5" r="1.5"></circle>
            </g>
            <g id="Dot-Copy-890" transform="translate(240.500000, 80.500000)">
                <rect id="Grid-Unit" x="0" y="0" width="20" height="20"></rect>
                <circle id="Dot" fill="#000000" cx="1.5" cy="1.5" r="1.5"></circle>
            </g>
            <g id="Dot-Copy-889" transform="translate(220.500000, 80.500000)">
                <rect id="Grid-Unit" x="0" y="0" width="20" height="20"></rect>
                <circle id="Dot" fill="#000000" cx="1.5" cy="1.5" r="1.5"></circle>
            </g>
            <g id="Dot-Copy-888" transform="translate(200.500000, 80.500000)">
                <rect id="Grid-Unit" x="0" y="0" width="20" height="20"></rect>
                <circle id="Dot" fill="#000000" cx="1.5" cy="1.5" r="1.5"></circle>
            </g>
            <g id="Dot-Copy-887" transform="translate(180.500000, 80.500000)">
                <rect id="Grid-Unit" x="0" y="0" width="20" height="20"></rect>
                <circle id="Dot" fill="#000000" cx="1.5" cy="1.5" r="1.5"></circle>
            </g>
            <g id="Dot-Copy-886" transform="translate(160.500000, 80.500000)">
                <rect id="Grid-Unit" x="0" y="0" width="20" height="20"></rect>
                <circle id="Dot" fill="#000000" cx="1.5" cy="1.5" r="1.5"></circle>
            </g>
            <g id="Dot-Copy-885" transform="translate(140.500000, 80.500000)">
                <rect id="Grid-Unit" x="0" y="0" width="20" height="20"></rect>
                <circle id="Dot" fill="#000000" cx="1.5" cy="1.5" r="1.5"></circle>
            </g>
            <g id="Dot-Copy-884" transform="translate(120.500000, 80.500000)">
                <rect id="Grid-Unit" x="0" y="0" width="20" height="20"></rect>
                <circle id="Dot" fill="#000000" cx="1.5" cy="1.5" r="1.5"></circle>
            </g>
            <g id="Dot-Copy-883" transform="translate(100.500000, 80.500000)">
                <rect id="Grid-Unit" x="0" y="0" width="20" height="20"></rect>
                <circle id="Dot" fill="#000000" cx="1.5" cy="1.5" r="1.5"></circle>
            </g>
            <g id="Dot-Copy-882" transform="translate(80.500000, 80.500000)">
                <rect id="Grid-Unit" x="0" y="0" width="20" height="20"></rect>
                <circle id="Dot" fill="#000000" cx="1.5" cy="1.5" r="1.5"></circle>
            </g>
            <g id="Dot-Copy-881" transform="translate(60.500000, 80.500000)">
                <rect id="Grid-Unit" x="0" y="0" width="20" height="20"></rect>
                <circle id="Dot" fill="#000000" cx="1.5" cy="1.5" r="1.5"></circle>
            </g>
            <g id="Dot-Copy-880" transform="translate(40.500000, 80.500000)">
                <rect id="Grid-Unit" x="0" y="0" width="20" height="20"></rect>
                <circle id="Dot" fill="#000000" cx="1.5" cy="1.5" r="1.5"></circle>
            </g>
            <g id="Dot-Copy-879" transform="translate(20.500000, 80.500000)">
                <rect id="Grid-Unit" x="0" y="0" width="20" height="20"></rect>
                <circle id="Dot" fill="#000000" cx="1.5" cy="1.5" r="1.5"></circle>
            </g>
            <g id="Dot-Copy-878" transform="translate(0.500000, 80.500000)">
                <rect id="Grid-Unit" x="0" y="0" width="20" height="20"></rect>
                <circle id="Dot" fill="#000000" cx="1.5" cy="1.5" r="1.5"></circle>
            </g>
            <g id="Dot-Copy-876" transform="translate(240.500000, 60.500000)">
                <rect id="Grid-Unit" x="0" y="0" width="20" height="20"></rect>
                <circle id="Dot" fill="#000000" cx="1.5" cy="1.5" r="1.5"></circle>
            </g>
            <g id="Dot-Copy-875" transform="translate(220.500000, 60.500000)">
                <rect id="Grid-Unit" x="0" y="0" width="20" height="20"></rect>
                <circle id="Dot" fill="#000000" cx="1.5" cy="1.5" r="1.5"></circle>
            </g>
            <g id="Dot-Copy-874" transform="translate(200.500000, 60.500000)">
                <rect id="Grid-Unit" x="0" y="0" width="20" height="20"></rect>
                <circle id="Dot" fill="#000000" cx="1.5" cy="1.5" r="1.5"></circle>
            </g>
            <g id="Dot-Copy-873" transform="translate(180.500000, 60.500000)">
                <rect id="Grid-Unit" x="0" y="0" width="20" height="20"></rect>
                <circle id="Dot" fill="#000000" cx="1.5" cy="1.5" r="1.5"></circle>
            </g>
            <g id="Dot-Copy-872" transform="translate(160.500000, 60.500000)">
                <rect id="Grid-Unit" x="0" y="0" width="20" height="20"></rect>
                <circle id="Dot" fill="#000000" cx="1.5" cy="1.5" r="1.5"></circle>
            </g>
            <g id="Dot-Copy-871" transform="translate(140.500000, 60.500000)">
                <rect id="Grid-Unit" x="0" y="0" width="20" height="20"></rect>
                <circle id="Dot" fill="#000000" cx="1.5" cy="1.5" r="1.5"></circle>
            </g>
            <g id="Dot-Copy-870" transform="translate(120.500000, 60.500000)">
                <rect id="Grid-Unit" x="0" y="0" width="20" height="20"></rect>
                <circle id="Dot" fill="#000000" cx="1.5" cy="1.5" r="1.5"></circle>
            </g>
            <g id="Dot-Copy-869" transform="translate(100.500000, 60.500000)">
                <rect id="Grid-Unit" x="0" y="0" width="20" height="20"></rect>
                <circle id="Dot" fill="#000000" cx="1.5" cy="1.5" r="1.5"></circle>
            </g>
            <g id="Dot-Copy-868" transform="translate(80.500000, 60.500000)">
                <rect id="Grid-Unit" x="0" y="0" width="20" height="20"></rect>
                <circle id="Dot" fill="#000000" cx="1.5" cy="1.5" r="1.5"></circle>
            </g>
            <g id="Dot-Copy-867" transform="translate(60.500000, 60.500000)">
                <rect id="Grid-Unit" x="0" y="0" width="20" height="20"></rect>
                <circle id="Dot" fill="#000000" cx="1.5" cy="1.5" r="1.5"></circle>
            </g>
            <g id="Dot-Copy-866" transform="translate(40.500000, 60.500000)">
                <rect id="Grid-Unit" x="0" y="0" width="20" height="20"></rect>
                <circle id="Dot" fill="#000000" cx="1.5" cy="1.5" r="1.5"></circle>
            </g>
            <g id="Dot-Copy-865" transform="translate(20.500000, 60.500000)">
                <rect id="Grid-Unit" x="0" y="0" width="20" height="20"></rect>
                <circle id="Dot" fill="#000000" cx="1.5" cy="1.5" r="1.5"></circle>
            </g>
            <g id="Dot-Copy-864" transform="translate(0.500000, 60.500000)">
                <rect id="Grid-Unit" x="0" y="0" width="20" height="20"></rect>
                <circle id="Dot" fill="#000000" cx="1.5" cy="1.5" r="1.5"></circle>
            </g>
            <g id="Dot-Copy-862" transform="translate(240.500000, 40.500000)">
                <rect id="Grid-Unit" x="0" y="0" width="20" height="20"></rect>
                <circle id="Dot" fill="#000000" cx="1.5" cy="1.5" r="1.5"></circle>
            </g>
            <g id="Dot-Copy-861" transform="translate(220.500000, 40.500000)">
                <rect id="Grid-Unit" x="0" y="0" width="20" height="20"></rect>
                <circle id="Dot" fill="#000000" cx="1.5" cy="1.5" r="1.5"></circle>
            </g>
            <g id="Dot-Copy-860" transform="translate(200.500000, 40.500000)">
                <rect id="Grid-Unit" x="0" y="0" width="20" height="20"></rect>
                <circle id="Dot" fill="#000000" cx="1.5" cy="1.5" r="1.5"></circle>
            </g>
            <g id="Dot-Copy-859" transform="translate(180.500000, 40.500000)">
                <rect id="Grid-Unit" x="0" y="0" width="20" height="20"></rect>
                <circle id="Dot" fill="#000000" cx="1.5" cy="1.5" r="1.5"></circle>
            </g>
            <g id="Dot-Copy-858" transform="translate(160.500000, 40.500000)">
                <rect id="Grid-Unit" x="0" y="0" width="20" height="20"></rect>
                <circle id="Dot" fill="#000000" cx="1.5" cy="1.5" r="1.5"></circle>
            </g>
            <g id="Dot-Copy-857" transform="translate(140.500000, 40.500000)">
                <rect id="Grid-Unit" x="0" y="0" width="20" height="20"></rect>
                <circle id="Dot" fill="#000000" cx="1.5" cy="1.5" r="1.5"></circle>
            </g>
            <g id="Dot-Copy-856" transform="translate(120.500000, 40.500000)">
                <rect id="Grid-Unit" x="0" y="0" width="20" height="20"></rect>
                <circle id="Dot" fill="#000000" cx="1.5" cy="1.5" r="1.5"></circle>
            </g>
            <g id="Dot-Copy-855" transform="translate(100.500000, 40.500000)">
                <rect id="Grid-Unit" x="0" y="0" width="20" height="20"></rect>
                <circle id="Dot" fill="#000000" cx="1.5" cy="1.5" r="1.5"></circle>
            </g>
            <g id="Dot-Copy-854" transform="translate(80.500000, 40.500000)">
                <rect id="Grid-Unit" x="0" y="0" width="20" height="20"></rect>
                <circle id="Dot" fill="#000000" cx="1.5" cy="1.5" r="1.5"></circle>
            </g>
            <g id="Dot-Copy-853" transform="translate(60.500000, 40.500000)">
                <rect id="Grid-Unit" x="0" y="0" width="20" height="20"></rect>
                <circle id="Dot" fill="#000000" cx="1.5" cy="1.5" r="1.5"></circle>
            </g>
            <g id="Dot-Copy-852" transform="translate(40.500000, 40.500000)">
                <rect id="Grid-Unit" x="0" y="0" width="20" height="20"></rect>
                <circle id="Dot" fill="#000000" cx="1.5" cy="1.5" r="1.5"></circle>
            </g>
            <g id="Dot-Copy-851" transform="translate(20.500000, 40.500000)">
                <rect id="Grid-Unit" x="0" y="0" width="20" height="20"></rect>
                <circle id="Dot" fill="#000000" cx="1.5" cy="1.5" r="1.5"></circle>
            </g>
            <g id="Dot-Copy-850" transform="translate(0.500000, 40.500000)">
                <rect id="Grid-Unit" x="0" y="0" width="20" height="20"></rect>
                <circle id="Dot" fill="#000000" cx="1.5" cy="1.5" r="1.5"></circle>
            </g>
            <g id="Dot-Copy-848" transform="translate(240.500000, 20.500000)">
                <rect id="Grid-Unit" x="0" y="0" width="20" height="20"></rect>
                <circle id="Dot" fill="#000000" cx="1.5" cy="1.5" r="1.5"></circle>
            </g>
            <g id="Dot-Copy-847" transform="translate(220.500000, 20.500000)">
                <rect id="Grid-Unit" x="0" y="0" width="20" height="20"></rect>
                <circle id="Dot" fill="#000000" cx="1.5" cy="1.5" r="1.5"></circle>
            </g>
            <g id="Dot-Copy-846" transform="translate(200.500000, 20.500000)">
                <rect id="Grid-Unit" x="0" y="0" width="20" height="20"></rect>
                <circle id="Dot" fill="#000000" cx="1.5" cy="1.5" r="1.5"></circle>
            </g>
            <g id="Dot-Copy-845" transform="translate(180.500000, 20.500000)">
                <rect id="Grid-Unit" x="0" y="0" width="20" height="20"></rect>
                <circle id="Dot" fill="#000000" cx="1.5" cy="1.5" r="1.5"></circle>
            </g>
            <g id="Dot-Copy-844" transform="translate(160.500000, 20.500000)">
                <rect id="Grid-Unit" x="0" y="0" width="20" height="20"></rect>
                <circle id="Dot" fill="#000000" cx="1.5" cy="1.5" r="1.5"></circle>
            </g>
            <g id="Dot-Copy-843" transform="translate(140.500000, 20.500000)">
                <rect id="Grid-Unit" x="0" y="0" width="20" height="20"></rect>
                <circle id="Dot" fill="#000000" cx="1.5" cy="1.5" r="1.5"></circle>
            </g>
            <g id="Dot-Copy-842" transform="translate(120.500000, 20.500000)">
                <rect id="Grid-Unit" x="0" y="0" width="20" height="20"></rect>
                <circle id="Dot" fill="#000000" cx="1.5" cy="1.5" r="1.5"></circle>
            </g>
            <g id="Dot-Copy-841" transform="translate(100.500000, 20.500000)">
                <rect id="Grid-Unit" x="0" y="0" width="20" height="20"></rect>
                <circle id="Dot" fill="#000000" cx="1.5" cy="1.5" r="1.5"></circle>
            </g>
            <g id="Dot-Copy-840" transform="translate(80.500000, 20.500000)">
                <rect id="Grid-Unit" x="0" y="0" width="20" height="20"></rect>
                <circle id="Dot" fill="#000000" cx="1.5" cy="1.5" r="1.5"></circle>
            </g>
            <g id="Dot-Copy-839" transform="translate(60.500000, 20.500000)">
                <rect id="Grid-Unit" x="0" y="0" width="20" height="20"></rect>
                <circle id="Dot" fill="#000000" cx="1.5" cy="1.5" r="1.5"></circle>
            </g>
            <g id="Dot-Copy-838" transform="translate(40.500000, 20.500000)">
                <rect id="Grid-Unit" x="0" y="0" width="20" height="20"></rect>
                <circle id="Dot" fill="#000000" cx="1.5" cy="1.5" r="1.5"></circle>
            </g>
            <g id="Dot-Copy-837" transform="translate(20.500000, 20.500000)">
                <rect id="Grid-Unit" x="0" y="0" width="20" height="20"></rect>
                <circle id="Dot" fill="#000000" cx="1.5" cy="1.5" r="1.5"></circle>
            </g>
            <g id="Dot-Copy-836" transform="translate(0.500000, 20.500000)">
                <rect id="Grid-Unit" x="0" y="0" width="20" height="20"></rect>
                <circle id="Dot" fill="#000000" cx="1.5" cy="1.5" r="1.5"></circle>
            </g>
            <g id="Dot-Copy-834" transform="translate(240.500000, 0.500000)">
                <rect id="Grid-Unit" x="0" y="0" width="20" height="20"></rect>
                <circle id="Dot" fill="#000000" cx="1.5" cy="1.5" r="1.5"></circle>
            </g>
            <g id="Dot-Copy-833" transform="translate(220.500000, 0.500000)">
                <rect id="Grid-Unit" x="0" y="0" width="20" height="20"></rect>
                <circle id="Dot" fill="#000000" cx="1.5" cy="1.5" r="1.5"></circle>
            </g>
            <g id="Dot-Copy-832" transform="translate(200.500000, 0.500000)">
                <rect id="Grid-Unit" x="0" y="0" width="20" height="20"></rect>
                <circle id="Dot" fill="#000000" cx="1.5" cy="1.5" r="1.5"></circle>
            </g>
            <g id="Dot-Copy-831" transform="translate(180.500000, 0.500000)">
                <rect id="Grid-Unit" x="0" y="0" width="20" height="20"></rect>
                <circle id="Dot" fill="#000000" cx="1.5" cy="1.5" r="1.5"></circle>
            </g>
            <g id="Dot-Copy-830" transform="translate(160.500000, 0.500000)">
                <rect id="Grid-Unit" x="0" y="0" width="20" height="20"></rect>
                <circle id="Dot" fill="#000000" cx="1.5" cy="1.5" r="1.5"></circle>
            </g>
            <g id="Dot-Copy-829" transform="translate(140.500000, 0.500000)">
                <rect id="Grid-Unit" x="0" y="0" width="20" height="20"></rect>
                <circle id="Dot" fill="#000000" cx="1.5" cy="1.5" r="1.5"></circle>
            </g>
            <g id="Dot-Copy-828" transform="translate(120.500000, 0.500000)">
                <rect id="Grid-Unit" x="0" y="0" width="20" height="20"></rect>
                <circle id="Dot" fill="#000000" cx="1.5" cy="1.5" r="1.5"></circle>
            </g>
            <g id="Dot-Copy-827" transform="translate(100.500000, 0.500000)">
                <rect id="Grid-Unit" x="0" y="0" width="20" height="20"></rect>
                <circle id="Dot" fill="#000000" cx="1.5" cy="1.5" r="1.5"></circle>
            </g>
            <g id="Dot-Copy-826" transform="translate(80.500000, 0.500000)">
                <rect id="Grid-Unit" x="0" y="0" width="20" height="20"></rect>
                <circle id="Dot" fill="#000000" cx="1.5" cy="1.5" r="1.5"></circle>
            </g>
            <g id="Dot-Copy-825" transform="translate(60.500000, 0.500000)">
                <rect id="Grid-Unit" x="0" y="0" width="20" height="20"></rect>
                <circle id="Dot" fill="#000000" cx="1.5" cy="1.5" r="1.5"></circle>
            </g>
            <g id="Dot-Copy-824" transform="translate(40.500000, 0.500000)">
                <rect id="Grid-Unit" x="0" y="0" width="20" height="20"></rect>
                <circle id="Dot" fill="#000000" cx="1.5" cy="1.5" r="1.5"></circle>
            </g>
            <g id="Dot-Copy-823" transform="translate(20.500000, 0.500000)">
                <rect id="Grid-Unit" x="0" y="0" width="20" height="20"></rect>
                <circle id="Dot" fill="#000000" cx="1.5" cy="1.5" r="1.5"></circle>
            </g>
            <g id="Dot-Copy-822" transform="translate(0.500000, 0.500000)">
                <rect id="Grid-Unit" x="0" y="0" width="20" height="20"></rect>
                <circle id="Dot" fill="#000000" cx="1.5" cy="1.5" r="1.5"></circle>
            </g>
            <g id="physical-copy" transform="translate(2.000000, -38.000000)">
                <rect id="Rectangle-843" fill="#FFFFFF" x="127" y="113.5" width="105" height="36"></rect>
                <path d="M137.66,121.464 L137.66,138 L140.228,138 L140.228,131.928 L144.308,131.928 C147.884,131.928 149.348,129.36 149.348,126.72 C149.348,124.08 147.884,121.464 144.308,121.464 L137.66,121.464 Z M140.228,123.816 L144.26,123.816 C146.036,123.816 146.804,125.328 146.804,126.72 C146.804,128.136 146.012,129.6 144.164,129.6 L140.228,129.6 L140.228,123.816 Z M154.268,138 L154.268,131.976 C154.268,129.768 155.972,128.976 157.388,128.976 C158.78,128.976 159.884,130.008 159.884,131.76 L159.884,138 L162.356,138 L162.356,131.616 C162.356,128.424 160.676,126.552 157.82,126.552 C156.644,126.552 154.892,127.128 154.268,128.496 L154.268,120.696 L151.796,120.696 L151.796,138 L154.268,138 Z M168.86,143.472 L175.796,126.792 L173.156,126.792 L170.012,134.472 L166.892,126.792 L164.252,126.792 L168.692,137.472 L166.268,143.472 L168.86,143.472 Z M180.452,133.152 L181.964,133.512 C182.78,133.704 183.524,134.112 183.524,134.832 C183.524,135.672 182.66,136.176 181.532,136.176 C180.236,136.176 179.444,135.528 179.324,134.568 L177.044,134.568 C177.092,136.92 179.252,138.24 181.34,138.24 C183.908,138.24 185.804,137.016 185.804,134.856 C185.804,133.728 185.3,132.192 182.876,131.592 L181.148,131.16 C180.548,130.992 179.924,130.728 179.78,130.296 C179.66,129.96 179.684,129.6 179.876,129.288 C180.116,128.904 180.836,128.664 181.46,128.664 C182.228,128.664 182.996,129.024 183.092,129.864 L185.444,129.864 C185.3,127.464 183.356,126.552 181.364,126.552 C179.3,126.552 177.5,127.848 177.356,129.504 C177.212,131.304 178.076,132.504 180.452,133.152 L180.452,133.152 Z M188.06,122.256 C188.06,121.368 188.828,120.696 189.716,120.696 C190.628,120.696 191.348,121.368 191.348,122.256 C191.348,123.144 190.628,123.816 189.716,123.816 C188.828,123.816 188.06,123.144 188.06,122.256 L188.06,122.256 Z M190.94,126.792 L190.94,138 L188.492,138 L188.492,126.792 L190.94,126.792 Z M193.676,132.36 C193.676,135.912 196.436,138.24 199.652,138.24 C201.452,138.24 203.06,137.52 204.116,136.272 L202.172,134.76 C201.572,135.456 200.636,135.864 199.652,135.864 C197.78,135.864 196.124,134.448 196.124,132.36 C196.124,130.272 197.78,128.952 199.652,128.952 C200.636,128.952 201.572,129.336 202.172,130.032 L204.092,128.496 C203.036,127.248 201.428,126.552 199.652,126.552 C196.436,126.552 193.676,128.808 193.676,132.36 L193.676,132.36 Z M206.42,128.808 L207.836,130.32 C208.556,129.36 209.852,128.784 211.004,128.784 C212.804,128.784 213.836,129.84 213.836,131.304 L213.836,131.808 C212.756,131.304 211.724,131.088 210.764,131.088 C207.236,131.088 205.94,132.744 205.94,134.688 C205.94,136.92 207.644,138.24 210.212,138.24 C211.484,138.24 212.948,137.904 213.836,136.776 L213.836,138 L216.284,138 L216.284,131.304 C216.284,128.184 214.364,126.552 211.172,126.552 C209.708,126.552 207.692,127.008 206.42,128.808 L206.42,128.808 Z M210.308,135.984 C208.964,135.984 208.364,135.408 208.364,134.688 C208.364,134.064 208.748,133.032 210.812,133.032 C211.436,133.032 212.636,133.2 213.812,133.68 L213.812,134.52 C213.092,135.696 211.268,135.984 210.308,135.984 L210.308,135.984 Z M219.62,120.696 L219.62,138 L222.092,138 L222.092,120.696 L219.62,120.696 Z" id="Information" fill="#182226"></path>
                <path d="M17.6040764,17.6040764 L102.604076,102.604076 L17.6040764,102.604076 L17.6040764,17.6040764 Z" id="Rectangle-2837" fill="#EE4A62" style="mix-blend-mode: darken;" transform="translate(60.104076, 60.104076) rotate(-45.000000) translate(-60.104076, -60.104076) "></path>
                <rect id="Rectangle-2837" fill="#5AC2B3" style="mix-blend-mode: darken;" x="0" y="100" width="120" height="60"></rect>
                <path d="M210,160 C204.477222,160 200,164.477222 200,170 C200,175.522778 204.477222,180 210,180 C215.522778,180 220,175.522778 220,170 C220,164.477222 215.522778,160 210,160 Z" id="Fill-14" fill="#F47F50" style="mix-blend-mode: darken;"></path>
                <path d="M220,40 L200,40 L200,100 L220,100 L220,40 Z" id="Fill-6" fill="#7CBDDF" style="mix-blend-mode: darken;"></path>
            </g>
        </g>
    </g>
</svg>