<?xml version="1.0" encoding="UTF-8" standalone="no"?>
<svg width="330px" height="131px" viewBox="0 0 330 131" version="1.1" xmlns="http://www.w3.org/2000/svg" xmlns:xlink="http://www.w3.org/1999/xlink">
    <!-- Generator: Sketch 3.6.1 (26313) - http://www.bohemiancoding.com/sketch -->
    <title>physical-mobile</title>
    <desc>Created with Sketch.</desc>
    <defs>
        <rect id="path-1" x="0" y="0" width="329.700012" height="131"></rect>
    </defs>
    <g id="Page-1" stroke="none" stroke-width="1" fill="none" fill-rule="evenodd">
        <g id="Work-Index/Work-Index-Masonry/Information-Copy-3" transform="translate(-536.000000, -1310.000000)">
            <g id="physical-mobile" transform="translate(536.000000, 1310.000000)">
                <mask id="mask-2" fill="white">
                    <use xlink:href="#path-1"></use>
                </mask>
                <use id="Mask" xlink:href="#path-1"></use>
                <g id="Group-3" mask="url(#mask-2)">
                    <g transform="translate(1.000000, 0.199951)">
                        <g id="Background-(Grid)" stroke-width="1" fill="none">
                            <g id="Block" stroke="#000000" stroke-width="2.2" fill="#000000">
                                <ellipse id="Oval" cx="109.15423" cy="1.34295538" rx="0.552479835" ry="0.55343506"></ellipse>
                                <ellipse id="Oval" cx="87.3707396" cy="1.34295538" rx="0.552479835" ry="0.55343506"></ellipse>
                                <ellipse id="Oval" cx="65.6661747" cy="1.34295538" rx="0.552479835" ry="0.55343506"></ellipse>
                                <ellipse id="Oval" cx="43.9616097" cy="1.34295538" rx="0.552479835" ry="0.55343506"></ellipse>
                                <ellipse id="Oval" cx="22.2570448" cy="1.34295538" rx="0.552479835" ry="0.55343506"></ellipse>
                                <ellipse id="Oval" cx="0.552479835" cy="1.34295538" rx="0.552479835" ry="0.55343506"></ellipse>
                                <ellipse id="Oval" cx="240.840803" cy="1.34295538" rx="0.552479835" ry="0.55343506"></ellipse>
                                <ellipse id="Oval" cx="219.057312" cy="1.34295538" rx="0.552479835" ry="0.55343506"></ellipse>
                                <ellipse id="Oval" cx="197.352747" cy="1.34295538" rx="0.552479835" ry="0.55343506"></ellipse>
                                <ellipse id="Oval" cx="175.648182" cy="1.34295538" rx="0.552479835" ry="0.55343506"></ellipse>
                                <ellipse id="Oval" cx="153.943617" cy="1.34295538" rx="0.552479835" ry="0.55343506"></ellipse>
                                <ellipse id="Oval" cx="132.239053" cy="1.34295538" rx="0.552479835" ry="0.55343506"></ellipse>
                            </g>
                            <g id="Block" transform="translate(0.000000, 20.201717)" stroke="#000000" stroke-width="2.2" fill="#000000">
                                <ellipse id="Oval" cx="109.15423" cy="109.342955" rx="0.552479835" ry="0.55343506"></ellipse>
                                <ellipse id="Oval" cx="109.15423" cy="87.6008637" rx="0.552479835" ry="0.55343506"></ellipse>
                                <ellipse id="Oval" cx="109.15423" cy="65.8587721" rx="0.552479835" ry="0.55343506"></ellipse>
                                <ellipse id="Oval" cx="109.15423" cy="44.1166805" rx="0.552479835" ry="0.55343506"></ellipse>
                                <ellipse id="Oval" cx="109.15423" cy="22.3745888" rx="0.552479835" ry="0.55343506"></ellipse>
                                <ellipse id="Oval" cx="109.15423" cy="0.55343506" rx="0.552479835" ry="0.55343506"></ellipse>
                                <ellipse id="Oval" cx="87.3707396" cy="109.342955" rx="0.552479835" ry="0.55343506"></ellipse>
                                <ellipse id="Oval" cx="87.3707396" cy="87.6008637" rx="0.552479835" ry="0.55343506"></ellipse>
                                <ellipse id="Oval" cx="87.3707396" cy="65.8587721" rx="0.552479835" ry="0.55343506"></ellipse>
                                <ellipse id="Oval" cx="87.3707396" cy="44.1166805" rx="0.552479835" ry="0.55343506"></ellipse>
                                <ellipse id="Oval" cx="87.3707396" cy="22.3745888" rx="0.552479835" ry="0.55343506"></ellipse>
                                <ellipse id="Oval" cx="87.3707396" cy="0.55343506" rx="0.552479835" ry="0.55343506"></ellipse>
                                <ellipse id="Oval" cx="65.6661747" cy="109.342955" rx="0.552479835" ry="0.55343506"></ellipse>
                                <ellipse id="Oval" cx="65.6661747" cy="87.6008637" rx="0.552479835" ry="0.55343506"></ellipse>
                                <ellipse id="Oval" cx="65.6661747" cy="65.8587721" rx="0.552479835" ry="0.55343506"></ellipse>
                                <ellipse id="Oval" cx="65.6661747" cy="44.1166805" rx="0.552479835" ry="0.55343506"></ellipse>
                                <ellipse id="Oval" cx="65.6661747" cy="22.3745888" rx="0.552479835" ry="0.55343506"></ellipse>
                                <ellipse id="Oval" cx="65.6661747" cy="0.55343506" rx="0.552479835" ry="0.55343506"></ellipse>
                                <ellipse id="Oval" cx="43.9616097" cy="109.342955" rx="0.552479835" ry="0.55343506"></ellipse>
                                <ellipse id="Oval" cx="43.9616097" cy="87.6008637" rx="0.552479835" ry="0.55343506"></ellipse>
                                <ellipse id="Oval" cx="43.9616097" cy="65.8587721" rx="0.552479835" ry="0.55343506"></ellipse>
                                <ellipse id="Oval" cx="43.9616097" cy="44.1166805" rx="0.552479835" ry="0.55343506"></ellipse>
                                <ellipse id="Oval" cx="43.9616097" cy="22.3745888" rx="0.552479835" ry="0.55343506"></ellipse>
                                <ellipse id="Oval" cx="43.9616097" cy="0.55343506" rx="0.552479835" ry="0.55343506"></ellipse>
                                <ellipse id="Oval" cx="22.2570448" cy="109.342955" rx="0.552479835" ry="0.55343506"></ellipse>
                                <ellipse id="Oval" cx="22.2570448" cy="87.6008637" rx="0.552479835" ry="0.55343506"></ellipse>
                                <ellipse id="Oval" cx="22.2570448" cy="65.8587721" rx="0.552479835" ry="0.55343506"></ellipse>
                                <ellipse id="Oval" cx="22.2570448" cy="44.1166805" rx="0.552479835" ry="0.55343506"></ellipse>
                                <ellipse id="Oval" cx="22.2570448" cy="22.3745888" rx="0.552479835" ry="0.55343506"></ellipse>
                                <ellipse id="Oval" cx="22.2570448" cy="0.55343506" rx="0.552479835" ry="0.55343506"></ellipse>
                                <ellipse id="Oval" cx="0.552479835" cy="109.342955" rx="0.552479835" ry="0.55343506"></ellipse>
                                <ellipse id="Oval" cx="0.552479835" cy="87.6008637" rx="0.552479835" ry="0.55343506"></ellipse>
                                <ellipse id="Oval" cx="0.552479835" cy="65.8587721" rx="0.552479835" ry="0.55343506"></ellipse>
                                <ellipse id="Oval" cx="0.552479835" cy="44.1166805" rx="0.552479835" ry="0.55343506"></ellipse>
                                <ellipse id="Oval" cx="0.552479835" cy="22.3745888" rx="0.552479835" ry="0.55343506"></ellipse>
                                <ellipse id="Oval" cx="0.552479835" cy="0.55343506" rx="0.552479835" ry="0.55343506"></ellipse>
                                <ellipse id="Oval" cx="240.840803" cy="109.342955" rx="0.552479835" ry="0.55343506"></ellipse>
                                <ellipse id="Oval" cx="240.840803" cy="87.6008637" rx="0.552479835" ry="0.55343506"></ellipse>
                                <ellipse id="Oval" cx="240.840803" cy="65.8587721" rx="0.552479835" ry="0.55343506"></ellipse>
                                <ellipse id="Oval" cx="240.840803" cy="44.1166805" rx="0.552479835" ry="0.55343506"></ellipse>
                                <ellipse id="Oval" cx="240.840803" cy="22.3745888" rx="0.552479835" ry="0.55343506"></ellipse>
                                <ellipse id="Oval" cx="240.840803" cy="0.55343506" rx="0.552479835" ry="0.55343506"></ellipse>
                                <ellipse id="Oval" cx="219.057312" cy="109.342955" rx="0.552479835" ry="0.55343506"></ellipse>
                                <ellipse id="Oval" cx="219.057312" cy="87.6008637" rx="0.552479835" ry="0.55343506"></ellipse>
                                <ellipse id="Oval" cx="219.057312" cy="65.8587721" rx="0.552479835" ry="0.55343506"></ellipse>
                                <ellipse id="Oval" cx="219.057312" cy="44.1166805" rx="0.552479835" ry="0.55343506"></ellipse>
                                <ellipse id="Oval" cx="219.057312" cy="22.3745888" rx="0.552479835" ry="0.55343506"></ellipse>
                                <ellipse id="Oval" cx="219.057312" cy="0.55343506" rx="0.552479835" ry="0.55343506"></ellipse>
                                <ellipse id="Oval" cx="197.352747" cy="109.342955" rx="0.552479835" ry="0.55343506"></ellipse>
                                <ellipse id="Oval" cx="197.352747" cy="87.6008637" rx="0.552479835" ry="0.55343506"></ellipse>
                                <ellipse id="Oval" cx="197.352747" cy="65.8587721" rx="0.552479835" ry="0.55343506"></ellipse>
                                <ellipse id="Oval" cx="197.352747" cy="44.1166805" rx="0.552479835" ry="0.55343506"></ellipse>
                                <ellipse id="Oval" cx="197.352747" cy="22.3745888" rx="0.552479835" ry="0.55343506"></ellipse>
                                <ellipse id="Oval" cx="197.352747" cy="0.55343506" rx="0.552479835" ry="0.55343506"></ellipse>
                                <ellipse id="Oval" cx="175.648182" cy="109.342955" rx="0.552479835" ry="0.55343506"></ellipse>
                                <ellipse id="Oval" cx="175.648182" cy="87.6008637" rx="0.552479835" ry="0.55343506"></ellipse>
                                <ellipse id="Oval" cx="175.648182" cy="65.8587721" rx="0.552479835" ry="0.55343506"></ellipse>
                                <ellipse id="Oval" cx="175.648182" cy="44.1166805" rx="0.552479835" ry="0.55343506"></ellipse>
                                <ellipse id="Oval" cx="175.648182" cy="22.3745888" rx="0.552479835" ry="0.55343506"></ellipse>
                                <ellipse id="Oval" cx="175.648182" cy="0.55343506" rx="0.552479835" ry="0.55343506"></ellipse>
                                <ellipse id="Oval" cx="153.943617" cy="109.342955" rx="0.552479835" ry="0.55343506"></ellipse>
                                <ellipse id="Oval" cx="153.943617" cy="87.6008637" rx="0.552479835" ry="0.55343506"></ellipse>
                                <ellipse id="Oval" cx="153.943617" cy="65.8587721" rx="0.552479835" ry="0.55343506"></ellipse>
                                <ellipse id="Oval" cx="153.943617" cy="44.1166805" rx="0.552479835" ry="0.55343506"></ellipse>
                                <ellipse id="Oval" cx="153.943617" cy="22.3745888" rx="0.552479835" ry="0.55343506"></ellipse>
                                <ellipse id="Oval" cx="153.943617" cy="0.55343506" rx="0.552479835" ry="0.55343506"></ellipse>
                                <ellipse id="Oval" cx="132.239053" cy="109.342955" rx="0.552479835" ry="0.55343506"></ellipse>
                                <ellipse id="Oval" cx="132.239053" cy="87.6008637" rx="0.552479835" ry="0.55343506"></ellipse>
                                <ellipse id="Oval" cx="132.239053" cy="65.8587721" rx="0.552479835" ry="0.55343506"></ellipse>
                                <ellipse id="Oval" cx="132.239053" cy="44.1166805" rx="0.552479835" ry="0.55343506"></ellipse>
                                <ellipse id="Oval" cx="132.239053" cy="22.3745888" rx="0.552479835" ry="0.55343506"></ellipse>
                                <ellipse id="Oval" cx="132.239053" cy="0.55343506" rx="0.552479835" ry="0.55343506"></ellipse>
                            </g>
                            <g id="Block" transform="translate(261.552594, 0.000000)" stroke="#000000" stroke-width="2.2" fill="#000000">
                                <ellipse id="Oval" cx="65.6661747" cy="1.34295538" rx="0.552479835" ry="0.55343506"></ellipse>
                                <ellipse id="Oval" cx="43.9616097" cy="1.34295538" rx="0.552479835" ry="0.55343506"></ellipse>
                                <ellipse id="Oval" cx="22.2570448" cy="1.34295538" rx="0.552479835" ry="0.55343506"></ellipse>
                                <ellipse id="Oval" cx="0.552479835" cy="1.34295538" rx="0.552479835" ry="0.55343506"></ellipse>
                            </g>
                            <g id="Block" transform="translate(261.552594, 20.201717)" stroke="#000000" stroke-width="2.2" fill="#000000">
                                <ellipse id="Oval" cx="65.6661747" cy="109.342955" rx="0.552479835" ry="0.55343506"></ellipse>
                                <ellipse id="Oval" cx="65.6661747" cy="87.6008637" rx="0.552479835" ry="0.55343506"></ellipse>
                                <ellipse id="Oval" cx="65.6661747" cy="65.8587721" rx="0.552479835" ry="0.55343506"></ellipse>
                                <ellipse id="Oval" cx="65.6661747" cy="44.1166805" rx="0.552479835" ry="0.55343506"></ellipse>
                                <ellipse id="Oval" cx="65.6661747" cy="22.3745888" rx="0.552479835" ry="0.55343506"></ellipse>
                                <ellipse id="Oval" cx="65.6661747" cy="0.55343506" rx="0.552479835" ry="0.55343506"></ellipse>
                                <ellipse id="Oval" cx="43.9616097" cy="109.342955" rx="0.552479835" ry="0.55343506"></ellipse>
                                <ellipse id="Oval" cx="43.9616097" cy="87.6008637" rx="0.552479835" ry="0.55343506"></ellipse>
                                <ellipse id="Oval" cx="43.9616097" cy="65.8587721" rx="0.552479835" ry="0.55343506"></ellipse>
                                <ellipse id="Oval" cx="43.9616097" cy="44.1166805" rx="0.552479835" ry="0.55343506"></ellipse>
                                <ellipse id="Oval" cx="43.9616097" cy="22.3745888" rx="0.552479835" ry="0.55343506"></ellipse>
                                <ellipse id="Oval" cx="43.9616097" cy="0.55343506" rx="0.552479835" ry="0.55343506"></ellipse>
                                <ellipse id="Oval" cx="22.2570448" cy="109.342955" rx="0.552479835" ry="0.55343506"></ellipse>
                                <ellipse id="Oval" cx="22.2570448" cy="87.6008637" rx="0.552479835" ry="0.55343506"></ellipse>
                                <ellipse id="Oval" cx="22.2570448" cy="65.8587721" rx="0.552479835" ry="0.55343506"></ellipse>
                                <ellipse id="Oval" cx="22.2570448" cy="44.1166805" rx="0.552479835" ry="0.55343506"></ellipse>
                                <ellipse id="Oval" cx="22.2570448" cy="22.3745888" rx="0.552479835" ry="0.55343506"></ellipse>
                                <ellipse id="Oval" cx="22.2570448" cy="0.55343506" rx="0.552479835" ry="0.55343506"></ellipse>
                                <ellipse id="Oval" cx="0.552479835" cy="109.342955" rx="0.552479835" ry="0.55343506"></ellipse>
                                <ellipse id="Oval" cx="0.552479835" cy="87.6008637" rx="0.552479835" ry="0.55343506"></ellipse>
                                <ellipse id="Oval" cx="0.552479835" cy="65.8587721" rx="0.552479835" ry="0.55343506"></ellipse>
                                <ellipse id="Oval" cx="0.552479835" cy="44.1166805" rx="0.552479835" ry="0.55343506"></ellipse>
                                <ellipse id="Oval" cx="0.552479835" cy="22.3745888" rx="0.552479835" ry="0.55343506"></ellipse>
                                <ellipse id="Oval" cx="0.552479835" cy="0.55343506" rx="0.552479835" ry="0.55343506"></ellipse>
                            </g>
                        </g>
                        <rect id="Rectangle-843" fill="#FFFFFF" x="82" y="32" width="170.779999" height="64.2537688"></rect>
                        <path d="M100.384,52.396 L100.384,77.2 L103.768,77.2 L103.768,67.912 L110.284,67.912 C115.54,67.912 117.664,64.096 117.664,60.172 C117.664,56.284 115.54,52.396 110.284,52.396 L100.384,52.396 Z M110.248,55.528 C113.128,55.528 114.316,57.904 114.316,60.172 C114.316,62.476 113.092,64.78 110.068,64.78 L103.768,64.78 L103.768,55.528 L110.248,55.528 Z M124.828,68.128 C124.828,64.528 127.636,63.232 129.94,63.232 C132.244,63.232 133.9,64.924 133.9,67.696 L133.9,77.2 L137.176,77.2 L137.176,67.48 C137.212,62.764 134.584,60.028 130.372,60.028 C128.536,60.028 125.836,60.892 124.828,62.908 L124.828,51.244 L121.552,51.244 L121.552,77.2 L124.828,77.2 L124.828,68.128 Z M146.968,85.372 L157.408,60.388 L153.916,60.388 L148.876,72.556 L143.836,60.388 L140.344,60.388 L147.076,76.696 L143.548,85.372 L146.968,85.372 Z M164.572,69.784 L166.876,70.324 C168.1,70.612 169.144,71.224 169.108,72.448 C169.072,73.672 168.064,74.536 166.552,74.644 C165.472,74.716 164.608,74.5 163.888,74.068 C163.096,73.672 162.628,72.88 162.52,72.16 L159.532,72.16 C159.64,75.616 162.772,77.56 165.796,77.56 C169.288,77.56 172.312,75.652 172.312,72.52 C172.312,70.612 171.448,68.488 167.956,67.624 L165.472,67.012 C164.608,66.76 163.816,66.4 163.492,65.716 C163.312,65.32 163.312,64.924 163.456,64.384 C163.708,63.484 164.752,62.872 165.976,62.872 C167.272,62.872 168.424,63.52 168.604,64.78 L171.736,64.78 C171.448,61.36 168.748,60.028 165.904,60.028 C162.916,60.028 160.324,61.864 160.072,64.312 C159.784,67.408 161.512,68.956 164.572,69.784 L164.572,69.784 Z M175.912,54.196 C175.912,55.42 176.956,56.32 178.18,56.32 C179.44,56.32 180.448,55.42 180.448,54.196 C180.448,52.972 179.44,52.072 178.18,52.072 C176.956,52.072 175.912,52.972 175.912,54.196 L175.912,54.196 Z M179.8,60.388 L176.56,60.388 L176.56,77.2 L179.8,77.2 L179.8,60.388 Z M184.156,68.74 C184.156,74.068 188.26,77.56 193.048,77.56 C195.64,77.56 197.98,76.552 199.564,74.824 L197.044,72.736 C196.036,73.78 194.596,74.392 193.048,74.392 C190.024,74.392 187.396,72.124 187.396,68.74 C187.396,65.356 190.024,63.232 193.048,63.232 C194.596,63.232 196.036,63.808 197.044,64.816 L199.528,62.728 C197.944,61 195.604,60.028 193.048,60.028 C188.26,60.028 184.156,63.412 184.156,68.74 L184.156,68.74 Z M208.816,74.644 C206.548,74.644 205.504,73.6 205.504,72.34 C205.504,71.224 206.152,69.712 209.608,69.712 C210.652,69.712 212.848,69.964 214.612,70.576 L214.612,71.8 C213.424,73.744 210.544,74.644 208.816,74.644 L208.816,74.644 Z M214.648,75.04 L214.648,77.2 L217.888,77.2 L217.888,67.084 C217.888,62.44 215.008,60.028 210.22,60.028 C208.024,60.028 205.036,60.64 203.236,63.196 L205.252,65.14 C206.44,63.772 208.348,62.98 209.968,62.98 C212.956,62.98 214.648,64.636 214.648,67.084 L214.648,67.948 C212.704,67.336 211.156,67.048 209.608,67.048 C204.352,67.048 202.408,69.46 202.408,72.34 C202.408,75.616 204.928,77.56 208.744,77.56 C210.832,77.56 213.424,76.768 214.648,75.04 L214.648,75.04 Z M223.144,51.244 L223.144,77.2 L226.42,77.2 L226.42,51.244 L223.144,51.244 Z" id="Information" fill="#182226"></path>
                        <path d="M318.409143,42.0665361 L317.267234,87.0988379 L271.211804,86.1324732 L318.409143,42.0665361 Z" id="Shape-Copy-25" fill="#EE4A62" style="mix-blend-mode: darken;" transform="translate(294.810474, 64.582687) scale(-1, 1) rotate(-317.000000) translate(-294.810474, -64.582687) "></path>
                        <path d="M272.626884,74.3731156 L318.626884,74.3731156 L318.626884,141.626884 L272.626884,141.626883 L272.626884,74.3731156 Z" id="Rectangle-path-Copy-22" fill="#5AC2B3" style="mix-blend-mode: darken;" transform="translate(295.626884, 108.000000) rotate(-270.000000) translate(-295.626884, -108.000000) "></path>
                        <path d="M32.7958716,108 C26.8335516,108 22,112.83945 22,118.809045 C22,124.778641 26.8335516,129.61809 32.7958716,129.61809 C38.7581915,129.61809 43.5917431,124.778641 43.5917431,118.809045 C43.5917431,112.83945 38.7581915,108 32.7958716,108 Z" id="Fill-14" fill="#F47F50" style="mix-blend-mode: darken;"></path>
                        <path d="M65,1 L44.6077982,1 L44.6077982,65.2537688 L65,65.2537688 L65,1 Z" id="Fill-6" fill="#7CBDDF" style="mix-blend-mode: darken;"></path>
                    </g>
                </g>
            </g>
        </g>
    </g>
</svg>