<?xml version="1.0" encoding="UTF-8" standalone="no"?>
<svg width="244px" height="164px" viewBox="0 0 244 164" version="1.1" xmlns="http://www.w3.org/2000/svg" xmlns:xlink="http://www.w3.org/1999/xlink">
    <!-- Generator: Sketch 3.6.1 (26313) - http://www.bohemiancoding.com/sketch -->
    <title>physical-mobile</title>
    <desc>Created with Sketch.</desc>
    <defs></defs>
    <g id="Page-1-Copy" stroke="none" stroke-width="1" fill="none" fill-rule="evenodd">
        <g id="physical-mobile">
            <g id="Group-6" transform="translate(0.000000, -18.000000)">
                <g id="Group-12-Copy-4" transform="translate(0.500000, 18.500000)">
                    <g id="Dot-Copy-946" transform="translate(240.000000, 160.000000)">
                        <rect id="Grid-Unit" x="0" y="0" width="20" height="20"></rect>
                        <circle id="Dot" fill="#000000" cx="1.5" cy="1.5" r="1.25"></circle>
                    </g>
                    <g id="Dot-Copy-945" transform="translate(220.000000, 160.000000)">
                        <rect id="Grid-Unit" x="0" y="0" width="20" height="20"></rect>
                        <circle id="Dot" fill="#000000" cx="1.5" cy="1.5" r="1.25"></circle>
                    </g>
                    <g id="Dot-Copy-944" transform="translate(200.000000, 160.000000)">
                        <rect id="Grid-Unit" x="0" y="0" width="20" height="20"></rect>
                        <circle id="Dot" fill="#000000" cx="1.5" cy="1.5" r="1.25"></circle>
                    </g>
                    <g id="Dot-Copy-943" transform="translate(180.000000, 160.000000)">
                        <rect id="Grid-Unit" x="0" y="0" width="20" height="20"></rect>
                        <circle id="Dot" fill="#000000" cx="1.5" cy="1.5" r="1.25"></circle>
                    </g>
                    <g id="Dot-Copy-942" transform="translate(160.000000, 160.000000)">
                        <rect id="Grid-Unit" x="0" y="0" width="20" height="20"></rect>
                        <circle id="Dot" fill="#000000" cx="1.5" cy="1.5" r="1.25"></circle>
                    </g>
                    <g id="Dot-Copy-941" transform="translate(140.000000, 160.000000)">
                        <rect id="Grid-Unit" x="0" y="0" width="20" height="20"></rect>
                        <circle id="Dot" fill="#000000" cx="1.5" cy="1.5" r="1.25"></circle>
                    </g>
                    <g id="Dot-Copy-940" transform="translate(120.000000, 160.000000)">
                        <rect id="Grid-Unit" x="0" y="0" width="20" height="20"></rect>
                        <circle id="Dot" fill="#000000" cx="1.5" cy="1.5" r="1.25"></circle>
                    </g>
                    <g id="Dot-Copy-939" transform="translate(100.000000, 160.000000)">
                        <rect id="Grid-Unit" x="0" y="0" width="20" height="20"></rect>
                        <circle id="Dot" fill="#000000" cx="1.5" cy="1.5" r="1.25"></circle>
                    </g>
                    <g id="Dot-Copy-938" transform="translate(80.000000, 160.000000)">
                        <rect id="Grid-Unit" x="0" y="0" width="20" height="20"></rect>
                        <circle id="Dot" fill="#000000" cx="1.5" cy="1.5" r="1.25"></circle>
                    </g>
                    <g id="Dot-Copy-937" transform="translate(60.000000, 160.000000)">
                        <rect id="Grid-Unit" x="0" y="0" width="20" height="20"></rect>
                        <circle id="Dot" fill="#000000" cx="1.5" cy="1.5" r="1.25"></circle>
                    </g>
                    <g id="Dot-Copy-936" transform="translate(40.000000, 160.000000)">
                        <rect id="Grid-Unit" x="0" y="0" width="20" height="20"></rect>
                        <circle id="Dot" fill="#000000" cx="1.5" cy="1.5" r="1.25"></circle>
                    </g>
                    <g id="Dot-Copy-935" transform="translate(20.000000, 160.000000)">
                        <rect id="Grid-Unit" x="0" y="0" width="20" height="20"></rect>
                        <circle id="Dot" fill="#000000" cx="1.5" cy="1.5" r="1.25"></circle>
                    </g>
                    <g id="Dot-Copy-934" transform="translate(0.000000, 160.000000)">
                        <rect id="Grid-Unit" x="0" y="0" width="20" height="20"></rect>
                        <circle id="Dot" fill="#000000" cx="1.5" cy="1.5" r="1.25"></circle>
                    </g>
                    <g id="Dot-Copy-932" transform="translate(240.000000, 140.000000)">
                        <rect id="Grid-Unit" x="0" y="0" width="20" height="20"></rect>
                        <circle id="Dot" fill="#000000" cx="1.5" cy="1.5" r="1.25"></circle>
                    </g>
                    <g id="Dot-Copy-931" transform="translate(220.000000, 140.000000)">
                        <rect id="Grid-Unit" x="0" y="0" width="20" height="20"></rect>
                        <circle id="Dot" fill="#000000" cx="1.5" cy="1.5" r="1.25"></circle>
                    </g>
                    <g id="Dot-Copy-930" transform="translate(200.000000, 140.000000)">
                        <rect id="Grid-Unit" x="0" y="0" width="20" height="20"></rect>
                        <circle id="Dot" fill="#000000" cx="1.5" cy="1.5" r="1.25"></circle>
                    </g>
                    <g id="Dot-Copy-929" transform="translate(180.000000, 140.000000)">
                        <rect id="Grid-Unit" x="0" y="0" width="20" height="20"></rect>
                        <circle id="Dot" fill="#000000" cx="1.5" cy="1.5" r="1.25"></circle>
                    </g>
                    <g id="Dot-Copy-928" transform="translate(160.000000, 140.000000)">
                        <rect id="Grid-Unit" x="0" y="0" width="20" height="20"></rect>
                        <circle id="Dot" fill="#000000" cx="1.5" cy="1.5" r="1.25"></circle>
                    </g>
                    <g id="Dot-Copy-927" transform="translate(140.000000, 140.000000)">
                        <rect id="Grid-Unit" x="0" y="0" width="20" height="20"></rect>
                        <circle id="Dot" fill="#000000" cx="1.5" cy="1.5" r="1.25"></circle>
                    </g>
                    <g id="Dot-Copy-926" transform="translate(120.000000, 140.000000)">
                        <rect id="Grid-Unit" x="0" y="0" width="20" height="20"></rect>
                        <circle id="Dot" fill="#000000" cx="1.5" cy="1.5" r="1.25"></circle>
                    </g>
                    <g id="Dot-Copy-925" transform="translate(100.000000, 140.000000)">
                        <rect id="Grid-Unit" x="0" y="0" width="20" height="20"></rect>
                        <circle id="Dot" fill="#000000" cx="1.5" cy="1.5" r="1.25"></circle>
                    </g>
                    <g id="Dot-Copy-924" transform="translate(80.000000, 140.000000)">
                        <rect id="Grid-Unit" x="0" y="0" width="20" height="20"></rect>
                        <circle id="Dot" fill="#000000" cx="1.5" cy="1.5" r="1.25"></circle>
                    </g>
                    <g id="Dot-Copy-923" transform="translate(60.000000, 140.000000)">
                        <rect id="Grid-Unit" x="0" y="0" width="20" height="20"></rect>
                        <circle id="Dot" fill="#000000" cx="1.5" cy="1.5" r="1.25"></circle>
                    </g>
                    <g id="Dot-Copy-922" transform="translate(40.000000, 140.000000)">
                        <rect id="Grid-Unit" x="0" y="0" width="20" height="20"></rect>
                        <circle id="Dot" fill="#000000" cx="1.5" cy="1.5" r="1.25"></circle>
                    </g>
                    <g id="Dot-Copy-921" transform="translate(20.000000, 140.000000)">
                        <rect id="Grid-Unit" x="0" y="0" width="20" height="20"></rect>
                        <circle id="Dot" fill="#000000" cx="1.5" cy="1.5" r="1.25"></circle>
                    </g>
                    <g id="Dot-Copy-920" transform="translate(0.000000, 140.000000)">
                        <rect id="Grid-Unit" x="0" y="0" width="20" height="20"></rect>
                        <circle id="Dot" fill="#000000" cx="1.5" cy="1.5" r="1.25"></circle>
                    </g>
                    <g id="Dot-Copy-918" transform="translate(240.000000, 120.000000)">
                        <rect id="Grid-Unit" x="0" y="0" width="20" height="20"></rect>
                        <circle id="Dot" fill="#000000" cx="1.5" cy="1.5" r="1.25"></circle>
                    </g>
                    <g id="Dot-Copy-917" transform="translate(220.000000, 120.000000)">
                        <rect id="Grid-Unit" x="0" y="0" width="20" height="20"></rect>
                        <circle id="Dot" fill="#000000" cx="1.5" cy="1.5" r="1.25"></circle>
                    </g>
                    <g id="Dot-Copy-916" transform="translate(200.000000, 120.000000)">
                        <rect id="Grid-Unit" x="0" y="0" width="20" height="20"></rect>
                        <circle id="Dot" fill="#000000" cx="1.5" cy="1.5" r="1.25"></circle>
                    </g>
                    <g id="Dot-Copy-915" transform="translate(180.000000, 120.000000)">
                        <rect id="Grid-Unit" x="0" y="0" width="20" height="20"></rect>
                        <circle id="Dot" fill="#000000" cx="1.5" cy="1.5" r="1.25"></circle>
                    </g>
                    <g id="Dot-Copy-914" transform="translate(160.000000, 120.000000)">
                        <rect id="Grid-Unit" x="0" y="0" width="20" height="20"></rect>
                        <circle id="Dot" fill="#000000" cx="1.5" cy="1.5" r="1.25"></circle>
                    </g>
                    <g id="Dot-Copy-913" transform="translate(140.000000, 120.000000)">
                        <rect id="Grid-Unit" x="0" y="0" width="20" height="20"></rect>
                        <circle id="Dot" fill="#000000" cx="1.5" cy="1.5" r="1.25"></circle>
                    </g>
                    <g id="Dot-Copy-912" transform="translate(120.000000, 120.000000)">
                        <rect id="Grid-Unit" x="0" y="0" width="20" height="20"></rect>
                        <circle id="Dot" fill="#000000" cx="1.5" cy="1.5" r="1.25"></circle>
                    </g>
                    <g id="Dot-Copy-911" transform="translate(100.000000, 120.000000)">
                        <rect id="Grid-Unit" x="0" y="0" width="20" height="20"></rect>
                        <circle id="Dot" fill="#000000" cx="1.5" cy="1.5" r="1.25"></circle>
                    </g>
                    <g id="Dot-Copy-910" transform="translate(80.000000, 120.000000)">
                        <rect id="Grid-Unit" x="0" y="0" width="20" height="20"></rect>
                        <circle id="Dot" fill="#000000" cx="1.5" cy="1.5" r="1.25"></circle>
                    </g>
                    <g id="Dot-Copy-909" transform="translate(60.000000, 120.000000)">
                        <rect id="Grid-Unit" x="0" y="0" width="20" height="20"></rect>
                        <circle id="Dot" fill="#000000" cx="1.5" cy="1.5" r="1.25"></circle>
                    </g>
                    <g id="Dot-Copy-908" transform="translate(40.000000, 120.000000)">
                        <rect id="Grid-Unit" x="0" y="0" width="20" height="20"></rect>
                        <circle id="Dot" fill="#000000" cx="1.5" cy="1.5" r="1.25"></circle>
                    </g>
                    <g id="Dot-Copy-907" transform="translate(20.000000, 120.000000)">
                        <rect id="Grid-Unit" x="0" y="0" width="20" height="20"></rect>
                        <circle id="Dot" fill="#000000" cx="1.5" cy="1.5" r="1.25"></circle>
                    </g>
                    <g id="Dot-Copy-906" transform="translate(0.000000, 120.000000)">
                        <rect id="Grid-Unit" x="0" y="0" width="20" height="20"></rect>
                        <circle id="Dot" fill="#000000" cx="1.5" cy="1.5" r="1.25"></circle>
                    </g>
                    <g id="Dot-Copy-904" transform="translate(240.000000, 100.000000)">
                        <rect id="Grid-Unit" x="0" y="0" width="20" height="20"></rect>
                        <circle id="Dot" fill="#000000" cx="1.5" cy="1.5" r="1.25"></circle>
                    </g>
                    <g id="Dot-Copy-903" transform="translate(220.000000, 100.000000)">
                        <rect id="Grid-Unit" x="0" y="0" width="20" height="20"></rect>
                        <circle id="Dot" fill="#000000" cx="1.5" cy="1.5" r="1.25"></circle>
                    </g>
                    <g id="Dot-Copy-902" transform="translate(200.000000, 100.000000)">
                        <rect id="Grid-Unit" x="0" y="0" width="20" height="20"></rect>
                        <circle id="Dot" fill="#000000" cx="1.5" cy="1.5" r="1.25"></circle>
                    </g>
                    <g id="Dot-Copy-901" transform="translate(180.000000, 100.000000)">
                        <rect id="Grid-Unit" x="0" y="0" width="20" height="20"></rect>
                        <circle id="Dot" fill="#000000" cx="1.5" cy="1.5" r="1.25"></circle>
                    </g>
                    <g id="Dot-Copy-900" transform="translate(160.000000, 100.000000)">
                        <rect id="Grid-Unit" x="0" y="0" width="20" height="20"></rect>
                        <circle id="Dot" fill="#000000" cx="1.5" cy="1.5" r="1.25"></circle>
                    </g>
                    <g id="Dot-Copy-899" transform="translate(140.000000, 100.000000)">
                        <rect id="Grid-Unit" x="0" y="0" width="20" height="20"></rect>
                        <circle id="Dot" fill="#000000" cx="1.5" cy="1.5" r="1.25"></circle>
                    </g>
                    <g id="Dot-Copy-898" transform="translate(120.000000, 100.000000)">
                        <rect id="Grid-Unit" x="0" y="0" width="20" height="20"></rect>
                        <circle id="Dot" fill="#000000" cx="1.5" cy="1.5" r="1.25"></circle>
                    </g>
                    <g id="Dot-Copy-897" transform="translate(100.000000, 100.000000)">
                        <rect id="Grid-Unit" x="0" y="0" width="20" height="20"></rect>
                        <circle id="Dot" fill="#000000" cx="1.5" cy="1.5" r="1.25"></circle>
                    </g>
                    <g id="Dot-Copy-896" transform="translate(80.000000, 100.000000)">
                        <rect id="Grid-Unit" x="0" y="0" width="20" height="20"></rect>
                        <circle id="Dot" fill="#000000" cx="1.5" cy="1.5" r="1.25"></circle>
                    </g>
                    <g id="Dot-Copy-895" transform="translate(60.000000, 100.000000)">
                        <rect id="Grid-Unit" x="0" y="0" width="20" height="20"></rect>
                        <circle id="Dot" fill="#000000" cx="1.5" cy="1.5" r="1.25"></circle>
                    </g>
                    <g id="Dot-Copy-894" transform="translate(40.000000, 100.000000)">
                        <rect id="Grid-Unit" x="0" y="0" width="20" height="20"></rect>
                        <circle id="Dot" fill="#000000" cx="1.5" cy="1.5" r="1.25"></circle>
                    </g>
                    <g id="Dot-Copy-893" transform="translate(20.000000, 100.000000)">
                        <rect id="Grid-Unit" x="0" y="0" width="20" height="20"></rect>
                        <circle id="Dot" fill="#000000" cx="1.5" cy="1.5" r="1.25"></circle>
                    </g>
                    <g id="Dot-Copy-892" transform="translate(0.000000, 100.000000)">
                        <rect id="Grid-Unit" x="0" y="0" width="20" height="20"></rect>
                        <circle id="Dot" fill="#000000" cx="1.5" cy="1.5" r="1.25"></circle>
                    </g>
                    <g id="Dot-Copy-890" transform="translate(240.000000, 80.000000)">
                        <rect id="Grid-Unit" x="0" y="0" width="20" height="20"></rect>
                        <circle id="Dot" fill="#000000" cx="1.5" cy="1.5" r="1.25"></circle>
                    </g>
                    <g id="Dot-Copy-889" transform="translate(220.000000, 80.000000)">
                        <rect id="Grid-Unit" x="0" y="0" width="20" height="20"></rect>
                        <circle id="Dot" fill="#000000" cx="1.5" cy="1.5" r="1.25"></circle>
                    </g>
                    <g id="Dot-Copy-888" transform="translate(200.000000, 80.000000)">
                        <rect id="Grid-Unit" x="0" y="0" width="20" height="20"></rect>
                        <circle id="Dot" fill="#000000" cx="1.5" cy="1.5" r="1.25"></circle>
                    </g>
                    <g id="Dot-Copy-887" transform="translate(180.000000, 80.000000)">
                        <rect id="Grid-Unit" x="0" y="0" width="20" height="20"></rect>
                        <circle id="Dot" fill="#000000" cx="1.5" cy="1.5" r="1.25"></circle>
                    </g>
                    <g id="Dot-Copy-886" transform="translate(160.000000, 80.000000)">
                        <rect id="Grid-Unit" x="0" y="0" width="20" height="20"></rect>
                        <circle id="Dot" fill="#000000" cx="1.5" cy="1.5" r="1.25"></circle>
                    </g>
                    <g id="Dot-Copy-885" transform="translate(140.000000, 80.000000)">
                        <rect id="Grid-Unit" x="0" y="0" width="20" height="20"></rect>
                        <circle id="Dot" fill="#000000" cx="1.5" cy="1.5" r="1.25"></circle>
                    </g>
                    <g id="Dot-Copy-884" transform="translate(120.000000, 80.000000)">
                        <rect id="Grid-Unit" x="0" y="0" width="20" height="20"></rect>
                        <circle id="Dot" fill="#000000" cx="1.5" cy="1.5" r="1.25"></circle>
                    </g>
                    <g id="Dot-Copy-883" transform="translate(100.000000, 80.000000)">
                        <rect id="Grid-Unit" x="0" y="0" width="20" height="20"></rect>
                        <circle id="Dot" fill="#000000" cx="1.5" cy="1.5" r="1.25"></circle>
                    </g>
                    <g id="Dot-Copy-882" transform="translate(80.000000, 80.000000)">
                        <rect id="Grid-Unit" x="0" y="0" width="20" height="20"></rect>
                        <circle id="Dot" fill="#000000" cx="1.5" cy="1.5" r="1.25"></circle>
                    </g>
                    <g id="Dot-Copy-881" transform="translate(60.000000, 80.000000)">
                        <rect id="Grid-Unit" x="0" y="0" width="20" height="20"></rect>
                        <circle id="Dot" fill="#000000" cx="1.5" cy="1.5" r="1.25"></circle>
                    </g>
                    <g id="Dot-Copy-880" transform="translate(40.000000, 80.000000)">
                        <rect id="Grid-Unit" x="0" y="0" width="20" height="20"></rect>
                        <circle id="Dot" fill="#000000" cx="1.5" cy="1.5" r="1.25"></circle>
                    </g>
                    <g id="Dot-Copy-879" transform="translate(20.000000, 80.000000)">
                        <rect id="Grid-Unit" x="0" y="0" width="20" height="20"></rect>
                        <circle id="Dot" fill="#000000" cx="1.5" cy="1.5" r="1.25"></circle>
                    </g>
                    <g id="Dot-Copy-878" transform="translate(0.000000, 80.000000)">
                        <rect id="Grid-Unit" x="0" y="0" width="20" height="20"></rect>
                        <circle id="Dot" fill="#000000" cx="1.5" cy="1.5" r="1.25"></circle>
                    </g>
                    <g id="Dot-Copy-876" transform="translate(240.000000, 60.000000)">
                        <rect id="Grid-Unit" x="0" y="0" width="20" height="20"></rect>
                        <circle id="Dot" fill="#000000" cx="1.5" cy="1.5" r="1.25"></circle>
                    </g>
                    <g id="Dot-Copy-875" transform="translate(220.000000, 60.000000)">
                        <rect id="Grid-Unit" x="0" y="0" width="20" height="20"></rect>
                        <circle id="Dot" fill="#000000" cx="1.5" cy="1.5" r="1.25"></circle>
                    </g>
                    <g id="Dot-Copy-874" transform="translate(200.000000, 60.000000)">
                        <rect id="Grid-Unit" x="0" y="0" width="20" height="20"></rect>
                        <circle id="Dot" fill="#000000" cx="1.5" cy="1.5" r="1.25"></circle>
                    </g>
                    <g id="Dot-Copy-873" transform="translate(180.000000, 60.000000)">
                        <rect id="Grid-Unit" x="0" y="0" width="20" height="20"></rect>
                        <circle id="Dot" fill="#000000" cx="1.5" cy="1.5" r="1.25"></circle>
                    </g>
                    <g id="Dot-Copy-872" transform="translate(160.000000, 60.000000)">
                        <rect id="Grid-Unit" x="0" y="0" width="20" height="20"></rect>
                        <circle id="Dot" fill="#000000" cx="1.5" cy="1.5" r="1.25"></circle>
                    </g>
                    <g id="Dot-Copy-871" transform="translate(140.000000, 60.000000)">
                        <rect id="Grid-Unit" x="0" y="0" width="20" height="20"></rect>
                        <circle id="Dot" fill="#000000" cx="1.5" cy="1.5" r="1.25"></circle>
                    </g>
                    <g id="Dot-Copy-870" transform="translate(120.000000, 60.000000)">
                        <rect id="Grid-Unit" x="0" y="0" width="20" height="20"></rect>
                        <circle id="Dot" fill="#000000" cx="1.5" cy="1.5" r="1.25"></circle>
                    </g>
                    <g id="Dot-Copy-869" transform="translate(100.000000, 60.000000)">
                        <rect id="Grid-Unit" x="0" y="0" width="20" height="20"></rect>
                        <circle id="Dot" fill="#000000" cx="1.5" cy="1.5" r="1.25"></circle>
                    </g>
                    <g id="Dot-Copy-868" transform="translate(80.000000, 60.000000)">
                        <rect id="Grid-Unit" x="0" y="0" width="20" height="20"></rect>
                        <circle id="Dot" fill="#000000" cx="1.5" cy="1.5" r="1.25"></circle>
                    </g>
                    <g id="Dot-Copy-867" transform="translate(60.000000, 60.000000)">
                        <rect id="Grid-Unit" x="0" y="0" width="20" height="20"></rect>
                        <circle id="Dot" fill="#000000" cx="1.5" cy="1.5" r="1.25"></circle>
                    </g>
                    <g id="Dot-Copy-866" transform="translate(40.000000, 60.000000)">
                        <rect id="Grid-Unit" x="0" y="0" width="20" height="20"></rect>
                        <circle id="Dot" fill="#000000" cx="1.5" cy="1.5" r="1.25"></circle>
                    </g>
                    <g id="Dot-Copy-865" transform="translate(20.000000, 60.000000)">
                        <rect id="Grid-Unit" x="0" y="0" width="20" height="20"></rect>
                        <circle id="Dot" fill="#000000" cx="1.5" cy="1.5" r="1.25"></circle>
                    </g>
                    <g id="Dot-Copy-864" transform="translate(0.000000, 60.000000)">
                        <rect id="Grid-Unit" x="0" y="0" width="20" height="20"></rect>
                        <circle id="Dot" fill="#000000" cx="1.5" cy="1.5" r="1.25"></circle>
                    </g>
                    <g id="Dot-Copy-862" transform="translate(240.000000, 40.000000)">
                        <rect id="Grid-Unit" x="0" y="0" width="20" height="20"></rect>
                        <circle id="Dot" fill="#000000" cx="1.5" cy="1.5" r="1.25"></circle>
                    </g>
                    <g id="Dot-Copy-861" transform="translate(220.000000, 40.000000)">
                        <rect id="Grid-Unit" x="0" y="0" width="20" height="20"></rect>
                        <circle id="Dot" fill="#000000" cx="1.5" cy="1.5" r="1.25"></circle>
                    </g>
                    <g id="Dot-Copy-860" transform="translate(200.000000, 40.000000)">
                        <rect id="Grid-Unit" x="0" y="0" width="20" height="20"></rect>
                        <circle id="Dot" fill="#000000" cx="1.5" cy="1.5" r="1.25"></circle>
                    </g>
                    <g id="Dot-Copy-859" transform="translate(180.000000, 40.000000)">
                        <rect id="Grid-Unit" x="0" y="0" width="20" height="20"></rect>
                        <circle id="Dot" fill="#000000" cx="1.5" cy="1.5" r="1.25"></circle>
                    </g>
                    <g id="Dot-Copy-858" transform="translate(160.000000, 40.000000)">
                        <rect id="Grid-Unit" x="0" y="0" width="20" height="20"></rect>
                        <circle id="Dot" fill="#000000" cx="1.5" cy="1.5" r="1.25"></circle>
                    </g>
                    <g id="Dot-Copy-857" transform="translate(140.000000, 40.000000)">
                        <rect id="Grid-Unit" x="0" y="0" width="20" height="20"></rect>
                        <circle id="Dot" fill="#000000" cx="1.5" cy="1.5" r="1.25"></circle>
                    </g>
                    <g id="Dot-Copy-856" transform="translate(120.000000, 40.000000)">
                        <rect id="Grid-Unit" x="0" y="0" width="20" height="20"></rect>
                        <circle id="Dot" fill="#000000" cx="1.5" cy="1.5" r="1.25"></circle>
                    </g>
                    <g id="Dot-Copy-855" transform="translate(100.000000, 40.000000)">
                        <rect id="Grid-Unit" x="0" y="0" width="20" height="20"></rect>
                        <circle id="Dot" fill="#000000" cx="1.5" cy="1.5" r="1.25"></circle>
                    </g>
                    <g id="Dot-Copy-854" transform="translate(80.000000, 40.000000)">
                        <rect id="Grid-Unit" x="0" y="0" width="20" height="20"></rect>
                        <circle id="Dot" fill="#000000" cx="1.5" cy="1.5" r="1.25"></circle>
                    </g>
                    <g id="Dot-Copy-853" transform="translate(60.000000, 40.000000)">
                        <rect id="Grid-Unit" x="0" y="0" width="20" height="20"></rect>
                        <circle id="Dot" fill="#000000" cx="1.5" cy="1.5" r="1.25"></circle>
                    </g>
                    <g id="Dot-Copy-852" transform="translate(40.000000, 40.000000)">
                        <rect id="Grid-Unit" x="0" y="0" width="20" height="20"></rect>
                        <circle id="Dot" fill="#000000" cx="1.5" cy="1.5" r="1.25"></circle>
                    </g>
                    <g id="Dot-Copy-851" transform="translate(20.000000, 40.000000)">
                        <rect id="Grid-Unit" x="0" y="0" width="20" height="20"></rect>
                        <circle id="Dot" fill="#000000" cx="1.5" cy="1.5" r="1.25"></circle>
                    </g>
                    <g id="Dot-Copy-850" transform="translate(0.000000, 40.000000)">
                        <rect id="Grid-Unit" x="0" y="0" width="20" height="20"></rect>
                        <circle id="Dot" fill="#000000" cx="1.5" cy="1.5" r="1.25"></circle>
                    </g>
                    <g id="Dot-Copy-848" transform="translate(240.000000, 20.000000)">
                        <rect id="Grid-Unit" x="0" y="0" width="20" height="20"></rect>
                        <circle id="Dot" fill="#000000" cx="1.5" cy="1.5" r="1.25"></circle>
                    </g>
                    <g id="Dot-Copy-847" transform="translate(220.000000, 20.000000)">
                        <rect id="Grid-Unit" x="0" y="0" width="20" height="20"></rect>
                        <circle id="Dot" fill="#000000" cx="1.5" cy="1.5" r="1.25"></circle>
                    </g>
                    <g id="Dot-Copy-846" transform="translate(200.000000, 20.000000)">
                        <rect id="Grid-Unit" x="0" y="0" width="20" height="20"></rect>
                        <circle id="Dot" fill="#000000" cx="1.5" cy="1.5" r="1.25"></circle>
                    </g>
                    <g id="Dot-Copy-845" transform="translate(180.000000, 20.000000)">
                        <rect id="Grid-Unit" x="0" y="0" width="20" height="20"></rect>
                        <circle id="Dot" fill="#000000" cx="1.5" cy="1.5" r="1.25"></circle>
                    </g>
                    <g id="Dot-Copy-844" transform="translate(160.000000, 20.000000)">
                        <rect id="Grid-Unit" x="0" y="0" width="20" height="20"></rect>
                        <circle id="Dot" fill="#000000" cx="1.5" cy="1.5" r="1.25"></circle>
                    </g>
                    <g id="Dot-Copy-843" transform="translate(140.000000, 20.000000)">
                        <rect id="Grid-Unit" x="0" y="0" width="20" height="20"></rect>
                        <circle id="Dot" fill="#000000" cx="1.5" cy="1.5" r="1.25"></circle>
                    </g>
                    <g id="Dot-Copy-842" transform="translate(120.000000, 20.000000)">
                        <rect id="Grid-Unit" x="0" y="0" width="20" height="20"></rect>
                        <circle id="Dot" fill="#000000" cx="1.5" cy="1.5" r="1.25"></circle>
                    </g>
                    <g id="Dot-Copy-841" transform="translate(100.000000, 20.000000)">
                        <rect id="Grid-Unit" x="0" y="0" width="20" height="20"></rect>
                        <circle id="Dot" fill="#000000" cx="1.5" cy="1.5" r="1.25"></circle>
                    </g>
                    <g id="Dot-Copy-840" transform="translate(80.000000, 20.000000)">
                        <rect id="Grid-Unit" x="0" y="0" width="20" height="20"></rect>
                        <circle id="Dot" fill="#000000" cx="1.5" cy="1.5" r="1.25"></circle>
                    </g>
                    <g id="Dot-Copy-839" transform="translate(60.000000, 20.000000)">
                        <rect id="Grid-Unit" x="0" y="0" width="20" height="20"></rect>
                        <circle id="Dot" fill="#000000" cx="1.5" cy="1.5" r="1.25"></circle>
                    </g>
                    <g id="Dot-Copy-838" transform="translate(40.000000, 20.000000)">
                        <rect id="Grid-Unit" x="0" y="0" width="20" height="20"></rect>
                        <circle id="Dot" fill="#000000" cx="1.5" cy="1.5" r="1.25"></circle>
                    </g>
                    <g id="Dot-Copy-837" transform="translate(20.000000, 20.000000)">
                        <rect id="Grid-Unit" x="0" y="0" width="20" height="20"></rect>
                        <circle id="Dot" fill="#000000" cx="1.5" cy="1.5" r="1.25"></circle>
                    </g>
                    <g id="Dot-Copy-836" transform="translate(0.000000, 20.000000)">
                        <rect id="Grid-Unit" x="0" y="0" width="20" height="20"></rect>
                        <circle id="Dot" fill="#000000" cx="1.5" cy="1.5" r="1.25"></circle>
                    </g>
                    <g id="Dot-Copy-834" transform="translate(240.000000, 0.000000)">
                        <rect id="Grid-Unit" x="0" y="0" width="20" height="20"></rect>
                        <circle id="Dot" fill="#000000" cx="1.5" cy="1.5" r="1.25"></circle>
                    </g>
                    <g id="Dot-Copy-833" transform="translate(220.000000, 0.000000)">
                        <rect id="Grid-Unit" x="0" y="0" width="20" height="20"></rect>
                        <circle id="Dot" fill="#000000" cx="1.5" cy="1.5" r="1.25"></circle>
                    </g>
                    <g id="Dot-Copy-832" transform="translate(200.000000, 0.000000)">
                        <rect id="Grid-Unit" x="0" y="0" width="20" height="20"></rect>
                        <circle id="Dot" fill="#000000" cx="1.5" cy="1.5" r="1.25"></circle>
                    </g>
                    <g id="Dot-Copy-831" transform="translate(180.000000, 0.000000)">
                        <rect id="Grid-Unit" x="0" y="0" width="20" height="20"></rect>
                        <circle id="Dot" fill="#000000" cx="1.5" cy="1.5" r="1.25"></circle>
                    </g>
                    <g id="Dot-Copy-830" transform="translate(160.000000, 0.000000)">
                        <rect id="Grid-Unit" x="0" y="0" width="20" height="20"></rect>
                        <circle id="Dot" fill="#000000" cx="1.5" cy="1.5" r="1.25"></circle>
                    </g>
                    <g id="Dot-Copy-829" transform="translate(140.000000, 0.000000)">
                        <rect id="Grid-Unit" x="0" y="0" width="20" height="20"></rect>
                        <circle id="Dot" fill="#000000" cx="1.5" cy="1.5" r="1.25"></circle>
                    </g>
                    <g id="Dot-Copy-828" transform="translate(120.000000, 0.000000)">
                        <rect id="Grid-Unit" x="0" y="0" width="20" height="20"></rect>
                        <circle id="Dot" fill="#000000" cx="1.5" cy="1.5" r="1.25"></circle>
                    </g>
                    <g id="Dot-Copy-827" transform="translate(100.000000, 0.000000)">
                        <rect id="Grid-Unit" x="0" y="0" width="20" height="20"></rect>
                        <circle id="Dot" fill="#000000" cx="1.5" cy="1.5" r="1.25"></circle>
                    </g>
                    <g id="Dot-Copy-826" transform="translate(80.000000, 0.000000)">
                        <rect id="Grid-Unit" x="0" y="0" width="20" height="20"></rect>
                        <circle id="Dot" fill="#000000" cx="1.5" cy="1.5" r="1.25"></circle>
                    </g>
                    <g id="Dot-Copy-825" transform="translate(60.000000, 0.000000)">
                        <rect id="Grid-Unit" x="0" y="0" width="20" height="20"></rect>
                        <circle id="Dot" fill="#000000" cx="1.5" cy="1.5" r="1.25"></circle>
                    </g>
                    <g id="Dot-Copy-824" transform="translate(40.000000, 0.000000)">
                        <rect id="Grid-Unit" x="0" y="0" width="20" height="20"></rect>
                        <circle id="Dot" fill="#000000" cx="1.5" cy="1.5" r="1.25"></circle>
                    </g>
                    <g id="Dot-Copy-823" transform="translate(20.000000, 0.000000)">
                        <rect id="Grid-Unit" x="0" y="0" width="20" height="20"></rect>
                        <circle id="Dot" fill="#000000" cx="1.5" cy="1.5" r="1.25"></circle>
                    </g>
                    <g id="Dot-Copy-822">
                        <rect id="Grid-Unit" x="0" y="0" width="20" height="20"></rect>
                        <circle id="Dot" fill="#000000" cx="1.5" cy="1.5" r="1.25"></circle>
                    </g>
                </g>
                <g id="physical-copy" transform="translate(2.000000, 0.000000)">
                    <rect id="Rectangle-843" fill="#FFFFFF" x="127" y="114.5" width="105" height="36"></rect>
                    <path d="M137.66,122.464 L137.66,139 L140.228,139 L140.228,132.928 L144.308,132.928 C147.884,132.928 149.348,130.36 149.348,127.72 C149.348,125.08 147.884,122.464 144.308,122.464 L137.66,122.464 Z M140.228,124.816 L144.26,124.816 C146.036,124.816 146.804,126.328 146.804,127.72 C146.804,129.136 146.012,130.6 144.164,130.6 L140.228,130.6 L140.228,124.816 Z M154.268,139 L154.268,132.976 C154.268,130.768 155.972,129.976 157.388,129.976 C158.78,129.976 159.884,131.008 159.884,132.76 L159.884,139 L162.356,139 L162.356,132.616 C162.356,129.424 160.676,127.552 157.82,127.552 C156.644,127.552 154.892,128.128 154.268,129.496 L154.268,121.696 L151.796,121.696 L151.796,139 L154.268,139 Z M168.86,144.472 L175.796,127.792 L173.156,127.792 L170.012,135.472 L166.892,127.792 L164.252,127.792 L168.692,138.472 L166.268,144.472 L168.86,144.472 Z M180.452,134.152 L181.964,134.512 C182.78,134.704 183.524,135.112 183.524,135.832 C183.524,136.672 182.66,137.176 181.532,137.176 C180.236,137.176 179.444,136.528 179.324,135.568 L177.044,135.568 C177.092,137.92 179.252,139.24 181.34,139.24 C183.908,139.24 185.804,138.016 185.804,135.856 C185.804,134.728 185.3,133.192 182.876,132.592 L181.148,132.16 C180.548,131.992 179.924,131.728 179.78,131.296 C179.66,130.96 179.684,130.6 179.876,130.288 C180.116,129.904 180.836,129.664 181.46,129.664 C182.228,129.664 182.996,130.024 183.092,130.864 L185.444,130.864 C185.3,128.464 183.356,127.552 181.364,127.552 C179.3,127.552 177.5,128.848 177.356,130.504 C177.212,132.304 178.076,133.504 180.452,134.152 L180.452,134.152 Z M188.06,123.256 C188.06,122.368 188.828,121.696 189.716,121.696 C190.628,121.696 191.348,122.368 191.348,123.256 C191.348,124.144 190.628,124.816 189.716,124.816 C188.828,124.816 188.06,124.144 188.06,123.256 L188.06,123.256 Z M190.94,127.792 L190.94,139 L188.492,139 L188.492,127.792 L190.94,127.792 Z M193.676,133.36 C193.676,136.912 196.436,139.24 199.652,139.24 C201.452,139.24 203.06,138.52 204.116,137.272 L202.172,135.76 C201.572,136.456 200.636,136.864 199.652,136.864 C197.78,136.864 196.124,135.448 196.124,133.36 C196.124,131.272 197.78,129.952 199.652,129.952 C200.636,129.952 201.572,130.336 202.172,131.032 L204.092,129.496 C203.036,128.248 201.428,127.552 199.652,127.552 C196.436,127.552 193.676,129.808 193.676,133.36 L193.676,133.36 Z M206.42,129.808 L207.836,131.32 C208.556,130.36 209.852,129.784 211.004,129.784 C212.804,129.784 213.836,130.84 213.836,132.304 L213.836,132.808 C212.756,132.304 211.724,132.088 210.764,132.088 C207.236,132.088 205.94,133.744 205.94,135.688 C205.94,137.92 207.644,139.24 210.212,139.24 C211.484,139.24 212.948,138.904 213.836,137.776 L213.836,139 L216.284,139 L216.284,132.304 C216.284,129.184 214.364,127.552 211.172,127.552 C209.708,127.552 207.692,128.008 206.42,129.808 L206.42,129.808 Z M210.308,136.984 C208.964,136.984 208.364,136.408 208.364,135.688 C208.364,135.064 208.748,134.032 210.812,134.032 C211.436,134.032 212.636,134.2 213.812,134.68 L213.812,135.52 C213.092,136.696 211.268,136.984 210.308,136.984 L210.308,136.984 Z M219.62,121.696 L219.62,139 L222.092,139 L222.092,121.696 L219.62,121.696 Z" id="Information" fill="#182226"></path>
                    <path d="M17.6040764,17.6040764 L102.604076,102.604076 L17.6040764,102.604076 L17.6040764,17.6040764 Z" id="Rectangle-2837" fill="#EE4A62" style="mix-blend-mode: darken;" transform="translate(60.104076, 60.104076) rotate(-45.000000) translate(-60.104076, -60.104076) "></path>
                    <rect id="Rectangle-2837" fill="#5AC2B3" style="mix-blend-mode: darken;" x="0" y="100" width="120" height="60"></rect>
                    <path d="M210,160 C204.477222,160 200,164.477222 200,170 C200,175.522778 204.477222,180 210,180 C215.522778,180 220,175.522778 220,170 C220,164.477222 215.522778,160 210,160 Z" id="Fill-14" fill="#F47F50" style="mix-blend-mode: darken;"></path>
                    <path d="M220,20 L200,20 L200,80 L220,80 L220,20 Z" id="Fill-6" fill="#7CBDDF" style="mix-blend-mode: darken;"></path>
                </g>
            </g>
        </g>
    </g>
</svg>