<?xml version="1.0" encoding="UTF-8" standalone="no"?>
<svg width="290px" height="128px" viewBox="0 0 290 128" version="1.1" xmlns="http://www.w3.org/2000/svg" xmlns:xlink="http://www.w3.org/1999/xlink">
    <!-- Generator: Sketch 3.6.1 (26313) - http://www.bohemiancoding.com/sketch -->
    <title>physical-mobile</title>
    <desc>Created with Sketch.</desc>
    <defs></defs>
    <g id="Page-1" stroke="none" stroke-width="1" fill="none" fill-rule="evenodd">
        <g id="physical-mobile">
            <g id="Communication-Banner-Copy-5" transform="translate(1.000000, 1.000000)">
                <g id="Block" stroke="#000000" stroke-width="2" fill="#000000">
                    <ellipse id="Oval" cx="89.9070536" cy="90.5079621" rx="0.455061009" ry="0.458102484"></ellipse>
                    <ellipse id="Oval" cx="89.9070536" cy="72.5110788" rx="0.455061009" ry="0.458102484"></ellipse>
                    <ellipse id="Oval" cx="89.9070536" cy="54.5141956" rx="0.455061009" ry="0.458102484"></ellipse>
                    <ellipse id="Oval" cx="89.9070536" cy="36.5173123" rx="0.455061009" ry="0.458102484"></ellipse>
                    <ellipse id="Oval" cx="89.9070536" cy="18.520429" rx="0.455061009" ry="0.458102484"></ellipse>
                    <ellipse id="Oval" cx="89.9070536" cy="0.458102484" rx="0.455061009" ry="0.458102484"></ellipse>
                    <ellipse id="Oval" cx="71.9646481" cy="90.5079621" rx="0.455061009" ry="0.458102484"></ellipse>
                    <ellipse id="Oval" cx="71.9646481" cy="72.5110788" rx="0.455061009" ry="0.458102484"></ellipse>
                    <ellipse id="Oval" cx="71.9646481" cy="54.5141956" rx="0.455061009" ry="0.458102484"></ellipse>
                    <ellipse id="Oval" cx="71.9646481" cy="36.5173123" rx="0.455061009" ry="0.458102484"></ellipse>
                    <ellipse id="Oval" cx="71.9646481" cy="18.520429" rx="0.455061009" ry="0.458102484"></ellipse>
                    <ellipse id="Oval" cx="71.9646481" cy="0.458102484" rx="0.455061009" ry="0.458102484"></ellipse>
                    <ellipse id="Oval" cx="54.0872513" cy="90.5079621" rx="0.455061009" ry="0.458102484"></ellipse>
                    <ellipse id="Oval" cx="54.0872513" cy="72.5110788" rx="0.455061009" ry="0.458102484"></ellipse>
                    <ellipse id="Oval" cx="54.0872513" cy="54.5141956" rx="0.455061009" ry="0.458102484"></ellipse>
                    <ellipse id="Oval" cx="54.0872513" cy="36.5173123" rx="0.455061009" ry="0.458102484"></ellipse>
                    <ellipse id="Oval" cx="54.0872513" cy="18.520429" rx="0.455061009" ry="0.458102484"></ellipse>
                    <ellipse id="Oval" cx="54.0872513" cy="0.458102484" rx="0.455061009" ry="0.458102484"></ellipse>
                    <ellipse id="Oval" cx="36.2098546" cy="90.5079621" rx="0.455061009" ry="0.458102484"></ellipse>
                    <ellipse id="Oval" cx="36.2098546" cy="72.5110788" rx="0.455061009" ry="0.458102484"></ellipse>
                    <ellipse id="Oval" cx="36.2098546" cy="54.5141956" rx="0.455061009" ry="0.458102484"></ellipse>
                    <ellipse id="Oval" cx="36.2098546" cy="36.5173123" rx="0.455061009" ry="0.458102484"></ellipse>
                    <ellipse id="Oval" cx="36.2098546" cy="18.520429" rx="0.455061009" ry="0.458102484"></ellipse>
                    <ellipse id="Oval" cx="36.2098546" cy="0.458102484" rx="0.455061009" ry="0.458102484"></ellipse>
                    <ellipse id="Oval" cx="18.3324578" cy="90.5079621" rx="0.455061009" ry="0.458102484"></ellipse>
                    <ellipse id="Oval" cx="18.3324578" cy="72.5110788" rx="0.455061009" ry="0.458102484"></ellipse>
                    <ellipse id="Oval" cx="18.3324578" cy="54.5141956" rx="0.455061009" ry="0.458102484"></ellipse>
                    <ellipse id="Oval" cx="18.3324578" cy="36.5173123" rx="0.455061009" ry="0.458102484"></ellipse>
                    <ellipse id="Oval" cx="18.3324578" cy="18.520429" rx="0.455061009" ry="0.458102484"></ellipse>
                    <ellipse id="Oval" cx="18.3324578" cy="0.458102484" rx="0.455061009" ry="0.458102484"></ellipse>
                    <ellipse id="Oval" cx="0.455061009" cy="90.5079621" rx="0.455061009" ry="0.458102484"></ellipse>
                    <ellipse id="Oval" cx="0.455061009" cy="72.5110788" rx="0.455061009" ry="0.458102484"></ellipse>
                    <ellipse id="Oval" cx="0.455061009" cy="54.5141956" rx="0.455061009" ry="0.458102484"></ellipse>
                    <ellipse id="Oval" cx="0.455061009" cy="36.5173123" rx="0.455061009" ry="0.458102484"></ellipse>
                    <ellipse id="Oval" cx="0.455061009" cy="18.520429" rx="0.455061009" ry="0.458102484"></ellipse>
                    <ellipse id="Oval" cx="0.455061009" cy="0.458102484" rx="0.455061009" ry="0.458102484"></ellipse>
                    <ellipse id="Oval" cx="198.373319" cy="90.5079621" rx="0.455061009" ry="0.458102484"></ellipse>
                    <ellipse id="Oval" cx="198.373319" cy="72.5110788" rx="0.455061009" ry="0.458102484"></ellipse>
                    <ellipse id="Oval" cx="198.373319" cy="54.5141956" rx="0.455061009" ry="0.458102484"></ellipse>
                    <ellipse id="Oval" cx="198.373319" cy="36.5173123" rx="0.455061009" ry="0.458102484"></ellipse>
                    <ellipse id="Oval" cx="198.373319" cy="18.520429" rx="0.455061009" ry="0.458102484"></ellipse>
                    <ellipse id="Oval" cx="198.373319" cy="0.458102484" rx="0.455061009" ry="0.458102484"></ellipse>
                    <ellipse id="Oval" cx="215.769293" cy="90.5079621" rx="0.455061009" ry="0.458102484"></ellipse>
                    <ellipse id="Oval" cx="215.769293" cy="72.5110788" rx="0.455061009" ry="0.458102484"></ellipse>
                    <ellipse id="Oval" cx="215.769293" cy="54.5141956" rx="0.455061009" ry="0.458102484"></ellipse>
                    <ellipse id="Oval" cx="215.769293" cy="36.5173123" rx="0.455061009" ry="0.458102484"></ellipse>
                    <ellipse id="Oval" cx="215.769293" cy="18.520429" rx="0.455061009" ry="0.458102484"></ellipse>
                    <ellipse id="Oval" cx="215.769293" cy="0.458102484" rx="0.455061009" ry="0.458102484"></ellipse>
                    <ellipse id="Oval" cx="233.165266" cy="90.5079621" rx="0.455061009" ry="0.458102484"></ellipse>
                    <ellipse id="Oval" cx="233.165266" cy="72.5110788" rx="0.455061009" ry="0.458102484"></ellipse>
                    <ellipse id="Oval" cx="233.165266" cy="54.5141956" rx="0.455061009" ry="0.458102484"></ellipse>
                    <ellipse id="Oval" cx="233.165266" cy="36.5173123" rx="0.455061009" ry="0.458102484"></ellipse>
                    <ellipse id="Oval" cx="233.165266" cy="18.520429" rx="0.455061009" ry="0.458102484"></ellipse>
                    <ellipse id="Oval" cx="233.165266" cy="0.458102484" rx="0.455061009" ry="0.458102484"></ellipse>
                    <ellipse id="Oval" cx="250.561239" cy="90.5079621" rx="0.455061009" ry="0.458102484"></ellipse>
                    <ellipse id="Oval" cx="250.561239" cy="72.5110788" rx="0.455061009" ry="0.458102484"></ellipse>
                    <ellipse id="Oval" cx="250.561239" cy="54.5141956" rx="0.455061009" ry="0.458102484"></ellipse>
                    <ellipse id="Oval" cx="250.561239" cy="36.5173123" rx="0.455061009" ry="0.458102484"></ellipse>
                    <ellipse id="Oval" cx="250.561239" cy="18.520429" rx="0.455061009" ry="0.458102484"></ellipse>
                    <ellipse id="Oval" cx="250.561239" cy="0.458102484" rx="0.455061009" ry="0.458102484"></ellipse>
                    <ellipse id="Oval" cx="267.957212" cy="90.5079621" rx="0.455061009" ry="0.458102484"></ellipse>
                    <ellipse id="Oval" cx="267.957212" cy="72.5110788" rx="0.455061009" ry="0.458102484"></ellipse>
                    <ellipse id="Oval" cx="267.957212" cy="54.5141956" rx="0.455061009" ry="0.458102484"></ellipse>
                    <ellipse id="Oval" cx="267.957212" cy="36.5173123" rx="0.455061009" ry="0.458102484"></ellipse>
                    <ellipse id="Oval" cx="267.957212" cy="18.520429" rx="0.455061009" ry="0.458102484"></ellipse>
                    <ellipse id="Oval" cx="267.957212" cy="0.458102484" rx="0.455061009" ry="0.458102484"></ellipse>
                    <ellipse id="Oval" cx="287.286071" cy="90.5079621" rx="0.455061009" ry="0.458102484"></ellipse>
                    <ellipse id="Oval" cx="287.286071" cy="72.5110788" rx="0.455061009" ry="0.458102484"></ellipse>
                    <ellipse id="Oval" cx="287.286071" cy="54.5141956" rx="0.455061009" ry="0.458102484"></ellipse>
                    <ellipse id="Oval" cx="287.286071" cy="36.5173123" rx="0.455061009" ry="0.458102484"></ellipse>
                    <ellipse id="Oval" cx="287.286071" cy="18.520429" rx="0.455061009" ry="0.458102484"></ellipse>
                    <ellipse id="Oval" cx="287.286071" cy="0.458102484" rx="0.455061009" ry="0.458102484"></ellipse>
                    <ellipse id="Oval" cx="180.430914" cy="90.5079621" rx="0.455061009" ry="0.458102484"></ellipse>
                    <ellipse id="Oval" cx="180.430914" cy="72.5110788" rx="0.455061009" ry="0.458102484"></ellipse>
                    <ellipse id="Oval" cx="180.430914" cy="54.5141956" rx="0.455061009" ry="0.458102484"></ellipse>
                    <ellipse id="Oval" cx="180.430914" cy="36.5173123" rx="0.455061009" ry="0.458102484"></ellipse>
                    <ellipse id="Oval" cx="180.430914" cy="18.520429" rx="0.455061009" ry="0.458102484"></ellipse>
                    <ellipse id="Oval" cx="180.430914" cy="0.458102484" rx="0.455061009" ry="0.458102484"></ellipse>
                    <ellipse id="Oval" cx="162.553517" cy="90.5079621" rx="0.455061009" ry="0.458102484"></ellipse>
                    <ellipse id="Oval" cx="162.553517" cy="72.5110788" rx="0.455061009" ry="0.458102484"></ellipse>
                    <ellipse id="Oval" cx="162.553517" cy="54.5141956" rx="0.455061009" ry="0.458102484"></ellipse>
                    <ellipse id="Oval" cx="162.553517" cy="36.5173123" rx="0.455061009" ry="0.458102484"></ellipse>
                    <ellipse id="Oval" cx="162.553517" cy="18.520429" rx="0.455061009" ry="0.458102484"></ellipse>
                    <ellipse id="Oval" cx="162.553517" cy="0.458102484" rx="0.455061009" ry="0.458102484"></ellipse>
                    <ellipse id="Oval" cx="144.67612" cy="90.5079621" rx="0.455061009" ry="0.458102484"></ellipse>
                    <ellipse id="Oval" cx="144.67612" cy="72.5110788" rx="0.455061009" ry="0.458102484"></ellipse>
                    <ellipse id="Oval" cx="144.67612" cy="54.5141956" rx="0.455061009" ry="0.458102484"></ellipse>
                    <ellipse id="Oval" cx="144.67612" cy="36.5173123" rx="0.455061009" ry="0.458102484"></ellipse>
                    <ellipse id="Oval" cx="144.67612" cy="18.520429" rx="0.455061009" ry="0.458102484"></ellipse>
                    <ellipse id="Oval" cx="144.67612" cy="0.458102484" rx="0.455061009" ry="0.458102484"></ellipse>
                    <ellipse id="Oval" cx="126.798724" cy="90.5079621" rx="0.455061009" ry="0.458102484"></ellipse>
                    <ellipse id="Oval" cx="126.798724" cy="72.5110788" rx="0.455061009" ry="0.458102484"></ellipse>
                    <ellipse id="Oval" cx="126.798724" cy="54.5141956" rx="0.455061009" ry="0.458102484"></ellipse>
                    <ellipse id="Oval" cx="126.798724" cy="36.5173123" rx="0.455061009" ry="0.458102484"></ellipse>
                    <ellipse id="Oval" cx="126.798724" cy="18.520429" rx="0.455061009" ry="0.458102484"></ellipse>
                    <ellipse id="Oval" cx="126.798724" cy="0.458102484" rx="0.455061009" ry="0.458102484"></ellipse>
                    <ellipse id="Oval" cx="108.921327" cy="90.5079621" rx="0.455061009" ry="0.458102484"></ellipse>
                    <ellipse id="Oval" cx="89.9070536" cy="108.021476" rx="0.455061009" ry="0.458102484"></ellipse>
                    <ellipse id="Oval" cx="71.9646481" cy="108.021476" rx="0.455061009" ry="0.458102484"></ellipse>
                    <ellipse id="Oval" cx="54.0872513" cy="108.021476" rx="0.455061009" ry="0.458102484"></ellipse>
                    <ellipse id="Oval" cx="36.2098546" cy="108.021476" rx="0.455061009" ry="0.458102484"></ellipse>
                    <ellipse id="Oval" cx="18.3324578" cy="108.021476" rx="0.455061009" ry="0.458102484"></ellipse>
                    <ellipse id="Oval" cx="0.455061009" cy="108.021476" rx="0.455061009" ry="0.458102484"></ellipse>
                    <ellipse id="Oval" cx="198.373319" cy="108.021476" rx="0.455061009" ry="0.458102484"></ellipse>
                    <ellipse id="Oval" cx="215.769293" cy="108.021476" rx="0.455061009" ry="0.458102484"></ellipse>
                    <ellipse id="Oval" cx="233.165266" cy="108.021476" rx="0.455061009" ry="0.458102484"></ellipse>
                    <ellipse id="Oval" cx="250.561239" cy="108.021476" rx="0.455061009" ry="0.458102484"></ellipse>
                    <ellipse id="Oval" cx="267.957212" cy="108.021476" rx="0.455061009" ry="0.458102484"></ellipse>
                    <ellipse id="Oval" cx="287.286071" cy="108.021476" rx="0.455061009" ry="0.458102484"></ellipse>
                    <ellipse id="Oval" cx="180.430914" cy="108.021476" rx="0.455061009" ry="0.458102484"></ellipse>
                    <ellipse id="Oval" cx="162.553517" cy="108.021476" rx="0.455061009" ry="0.458102484"></ellipse>
                    <ellipse id="Oval" cx="144.67612" cy="108.021476" rx="0.455061009" ry="0.458102484"></ellipse>
                    <ellipse id="Oval" cx="126.798724" cy="108.021476" rx="0.455061009" ry="0.458102484"></ellipse>
                    <ellipse id="Oval" cx="108.921327" cy="108.021476" rx="0.455061009" ry="0.458102484"></ellipse>
                    <ellipse id="Oval" cx="89.9070536" cy="125.534989" rx="0.455061009" ry="0.458102484"></ellipse>
                    <ellipse id="Oval" cx="71.9646481" cy="125.534989" rx="0.455061009" ry="0.458102484"></ellipse>
                    <ellipse id="Oval" cx="54.0872513" cy="125.534989" rx="0.455061009" ry="0.458102484"></ellipse>
                    <ellipse id="Oval" cx="36.2098546" cy="125.534989" rx="0.455061009" ry="0.458102484"></ellipse>
                    <ellipse id="Oval" cx="18.3324578" cy="125.534989" rx="0.455061009" ry="0.458102484"></ellipse>
                    <ellipse id="Oval" cx="0.455061009" cy="125.534989" rx="0.455061009" ry="0.458102484"></ellipse>
                    <ellipse id="Oval" cx="198.373319" cy="125.534989" rx="0.455061009" ry="0.458102484"></ellipse>
                    <ellipse id="Oval" cx="215.769293" cy="125.534989" rx="0.455061009" ry="0.458102484"></ellipse>
                    <ellipse id="Oval" cx="233.165266" cy="125.534989" rx="0.455061009" ry="0.458102484"></ellipse>
                    <ellipse id="Oval" cx="250.561239" cy="125.534989" rx="0.455061009" ry="0.458102484"></ellipse>
                    <ellipse id="Oval" cx="267.957212" cy="125.534989" rx="0.455061009" ry="0.458102484"></ellipse>
                    <ellipse id="Oval" cx="287.286071" cy="125.534989" rx="0.455061009" ry="0.458102484"></ellipse>
                    <ellipse id="Oval" cx="180.430914" cy="125.534989" rx="0.455061009" ry="0.458102484"></ellipse>
                    <ellipse id="Oval" cx="162.553517" cy="125.534989" rx="0.455061009" ry="0.458102484"></ellipse>
                    <ellipse id="Oval" cx="144.67612" cy="125.534989" rx="0.455061009" ry="0.458102484"></ellipse>
                    <ellipse id="Oval" cx="126.798724" cy="125.534989" rx="0.455061009" ry="0.458102484"></ellipse>
                    <ellipse id="Oval" cx="108.921327" cy="125.534989" rx="0.455061009" ry="0.458102484"></ellipse>
                    <ellipse id="Oval" cx="108.921327" cy="72.5110788" rx="0.455061009" ry="0.458102484"></ellipse>
                    <ellipse id="Oval" cx="108.921327" cy="54.5141956" rx="0.455061009" ry="0.458102484"></ellipse>
                    <ellipse id="Oval" cx="108.921327" cy="36.5173123" rx="0.455061009" ry="0.458102484"></ellipse>
                    <ellipse id="Oval" cx="108.921327" cy="18.520429" rx="0.455061009" ry="0.458102484"></ellipse>
                    <ellipse id="Oval" cx="108.921327" cy="0.458102484" rx="0.455061009" ry="0.458102484"></ellipse>
                </g>
                <rect id="Rectangle-886" fill="#FFFFFF" x="2.35135135" y="74.9189189" width="97.7297297" height="31.1351351"></rect>
                <text id="Physical" font-family="SofiaProRegular, Sofia Pro" font-size="24" font-weight="normal" line-spacing="32" fill="#182226">
                    <tspan x="12.0810811" y="98.8918919">Physical</tspan>
                </text>
            </g>
            <path d="M191.302216,-6 L190.011541,44.2104952 L137.956122,43.1330099 L191.302216,-6 Z" id="Shape-Copy-28" fill="#EE4A62" style="mix-blend-mode: darken;" transform="translate(164.629169, 19.105248) scale(-1, 1) rotate(-317.000000) translate(-164.629169, -19.105248) "></path>
            <path d="M145.305266,36.2481915 L181.694734,36.2481915 L181.694734,109.248191 L145.305266,109.24819 L145.305266,36.2481915 Z" id="Rectangle-path-Copy-25" fill="#5AC2B3" style="mix-blend-mode: darken;" transform="translate(163.500000, 72.748191) rotate(-270.000000) translate(-163.500000, -72.748191) "></path>
            <path d="M81,36.5534576 C76.0295,36.5534576 72,40.5829576 72,45.5534576 C72,50.5239576 76.0295,54.5534576 81,54.5534576 C85.9705,54.5534576 90,50.5239576 90,45.5534576 C90,40.5829576 85.9705,36.5534576 81,36.5534576 Z" id="Fill-14-Copy" fill="#F47F50" style="mix-blend-mode: darken;"></path>
            <path d="M269,18.5534576 L251,18.5534576 L251,55.5534576 L269,55.5534576 L269,18.5534576 Z" id="Fill-6-Copy-2" fill="#7CBDDF" style="mix-blend-mode: darken;"></path>
        </g>
    </g>
</svg>