<?xml version="1.0" encoding="UTF-8" standalone="no"?>
<svg width="438px" height="221px" viewBox="0 0 438 221" version="1.1" xmlns="http://www.w3.org/2000/svg" xmlns:xlink="http://www.w3.org/1999/xlink">
    <!-- Generator: Sketch 3.6.1 (26313) - http://www.bohemiancoding.com/sketch -->
    <title>grid/b</title>
    <desc>Created with Sketch.</desc>
    <defs></defs>
    <g id="Page-1" stroke="none" stroke-width="1" fill="none" fill-rule="evenodd">
        <g id="grid/b">
            <ellipse id="Oval" stroke="#F2E9E9" stroke-width="3" fill="#F2E9E9" cx="199.870031" cy="199.961424" rx="0.910405076" ry="0.910867658"></ellipse>
            <ellipse id="Oval" stroke="#F2E9E9" stroke-width="3" fill="#F2E9E9" cx="199.870031" cy="164.177338" rx="0.910405076" ry="0.910867658"></ellipse>
            <ellipse id="Oval" stroke="#F2E9E9" stroke-width="3" fill="#F2E9E9" cx="199.870031" cy="128.393251" rx="0.910405076" ry="0.910867658"></ellipse>
            <ellipse id="Oval" stroke="#F2E9E9" stroke-width="3" fill="#F2E9E9" cx="199.870031" cy="92.6091648" rx="0.910405076" ry="0.910867658"></ellipse>
            <ellipse id="Oval" stroke="#F2E9E9" stroke-width="3" fill="#F2E9E9" cx="199.870031" cy="56.8250782" rx="0.910405076" ry="0.910867658"></ellipse>
            <ellipse id="Oval" stroke="#F2E9E9" stroke-width="3" fill="#F2E9E9" cx="199.870031" cy="20.9108677" rx="0.910405076" ry="0.910867658"></ellipse>
            <ellipse id="Oval" stroke="#F2E9E9" stroke-width="3" fill="#F2E9E9" cx="163.97406" cy="199.961424" rx="0.910405076" ry="0.910867658"></ellipse>
            <ellipse id="Oval" stroke="#F2E9E9" stroke-width="3" fill="#F2E9E9" cx="163.97406" cy="164.177338" rx="0.910405076" ry="0.910867658"></ellipse>
            <ellipse id="Oval" stroke="#F2E9E9" stroke-width="3" fill="#F2E9E9" cx="163.97406" cy="128.393251" rx="0.910405076" ry="0.910867658"></ellipse>
            <ellipse id="Oval" stroke="#F2E9E9" stroke-width="3" fill="#F2E9E9" cx="163.97406" cy="92.6091648" rx="0.910405076" ry="0.910867658"></ellipse>
            <ellipse id="Oval" stroke="#F2E9E9" stroke-width="3" fill="#F2E9E9" cx="163.97406" cy="56.8250782" rx="0.910405076" ry="0.910867658"></ellipse>
            <ellipse id="Oval" stroke="#F2E9E9" stroke-width="3" fill="#F2E9E9" cx="163.97406" cy="20.9108677" rx="0.910405076" ry="0.910867658"></ellipse>
            <ellipse id="Oval" stroke="#F2E9E9" stroke-width="3" fill="#F2E9E9" cx="128.208146" cy="199.961424" rx="0.910405076" ry="0.910867658"></ellipse>
            <ellipse id="Oval" stroke="#F2E9E9" stroke-width="3" fill="#F2E9E9" cx="128.208146" cy="164.177338" rx="0.910405076" ry="0.910867658"></ellipse>
            <ellipse id="Oval" stroke="#F2E9E9" stroke-width="3" fill="#F2E9E9" cx="128.208146" cy="128.393251" rx="0.910405076" ry="0.910867658"></ellipse>
            <ellipse id="Oval" stroke="#F2E9E9" stroke-width="3" fill="#F2E9E9" cx="128.208146" cy="92.6091648" rx="0.910405076" ry="0.910867658"></ellipse>
            <ellipse id="Oval" stroke="#F2E9E9" stroke-width="3" fill="#F2E9E9" cx="128.208146" cy="56.8250782" rx="0.910405076" ry="0.910867658"></ellipse>
            <ellipse id="Oval" stroke="#F2E9E9" stroke-width="3" fill="#F2E9E9" cx="128.208146" cy="20.9108677" rx="0.910405076" ry="0.910867658"></ellipse>
            <ellipse id="Oval" stroke="#F2E9E9" stroke-width="3" fill="#F2E9E9" cx="92.4422324" cy="199.961424" rx="0.910405076" ry="0.910867658"></ellipse>
            <ellipse id="Oval" stroke="#F2E9E9" stroke-width="3" fill="#F2E9E9" cx="92.4422324" cy="164.177338" rx="0.910405076" ry="0.910867658"></ellipse>
            <ellipse id="Oval" stroke="#F2E9E9" stroke-width="3" fill="#F2E9E9" cx="92.4422324" cy="128.393251" rx="0.910405076" ry="0.910867658"></ellipse>
            <ellipse id="Oval" stroke="#F2E9E9" stroke-width="3" fill="#F2E9E9" cx="92.4422324" cy="92.6091648" rx="0.910405076" ry="0.910867658"></ellipse>
            <ellipse id="Oval" stroke="#F2E9E9" stroke-width="3" fill="#F2E9E9" cx="92.4422324" cy="56.8250782" rx="0.910405076" ry="0.910867658"></ellipse>
            <ellipse id="Oval" stroke="#F2E9E9" stroke-width="3" fill="#F2E9E9" cx="92.4422324" cy="20.9108677" rx="0.910405076" ry="0.910867658"></ellipse>
            <ellipse id="Oval" stroke="#F2E9E9" stroke-width="3" fill="#F2E9E9" cx="56.6763188" cy="199.961424" rx="0.910405076" ry="0.910867658"></ellipse>
            <ellipse id="Oval" stroke="#F2E9E9" stroke-width="3" fill="#F2E9E9" cx="56.6763188" cy="164.177338" rx="0.910405076" ry="0.910867658"></ellipse>
            <ellipse id="Oval" stroke="#F2E9E9" stroke-width="3" fill="#F2E9E9" cx="56.6763188" cy="128.393251" rx="0.910405076" ry="0.910867658"></ellipse>
            <ellipse id="Oval" stroke="#F2E9E9" stroke-width="3" fill="#F2E9E9" cx="56.6763188" cy="92.6091648" rx="0.910405076" ry="0.910867658"></ellipse>
            <ellipse id="Oval" stroke="#F2E9E9" stroke-width="3" fill="#F2E9E9" cx="56.6763188" cy="56.8250782" rx="0.910405076" ry="0.910867658"></ellipse>
            <ellipse id="Oval" stroke="#F2E9E9" stroke-width="3" fill="#F2E9E9" cx="56.6763188" cy="20.9108677" rx="0.910405076" ry="0.910867658"></ellipse>
            <ellipse id="Oval" stroke="#F2E9E9" stroke-width="3" fill="#F2E9E9" cx="20.9104051" cy="199.961424" rx="0.910405076" ry="0.910867658"></ellipse>
            <ellipse id="Oval" stroke="#F2E9E9" stroke-width="3" fill="#F2E9E9" cx="20.9104051" cy="164.177338" rx="0.910405076" ry="0.910867658"></ellipse>
            <ellipse id="Oval" stroke="#F2E9E9" stroke-width="3" fill="#F2E9E9" cx="20.9104051" cy="128.393251" rx="0.910405076" ry="0.910867658"></ellipse>
            <ellipse id="Oval" stroke="#F2E9E9" stroke-width="3" fill="#F2E9E9" cx="20.9104051" cy="92.6091648" rx="0.910405076" ry="0.910867658"></ellipse>
            <ellipse id="Oval" stroke="#F2E9E9" stroke-width="3" fill="#F2E9E9" cx="20.9104051" cy="56.8250782" rx="0.910405076" ry="0.910867658"></ellipse>
            <ellipse id="Oval" stroke="#F2E9E9" stroke-width="3" fill="#F2E9E9" cx="20.9104051" cy="20.9108677" rx="0.910405076" ry="0.910867658"></ellipse>
            <ellipse id="Oval" stroke="#F2E9E9" stroke-width="3" fill="#F2E9E9" cx="416.870031" cy="199.961424" rx="0.910405076" ry="0.910867658"></ellipse>
            <ellipse id="Oval" stroke="#F2E9E9" stroke-width="3" fill="#F2E9E9" cx="416.870031" cy="164.177338" rx="0.910405076" ry="0.910867658"></ellipse>
            <ellipse id="Oval" stroke="#F2E9E9" stroke-width="3" fill="#F2E9E9" cx="416.870031" cy="128.393251" rx="0.910405076" ry="0.910867658"></ellipse>
            <ellipse id="Oval" stroke="#F2E9E9" stroke-width="3" fill="#F2E9E9" cx="416.870031" cy="92.6091648" rx="0.910405076" ry="0.910867658"></ellipse>
            <ellipse id="Oval" stroke="#F2E9E9" stroke-width="3" fill="#F2E9E9" cx="416.870031" cy="56.8250782" rx="0.910405076" ry="0.910867658"></ellipse>
            <ellipse id="Oval" stroke="#F2E9E9" stroke-width="3" fill="#F2E9E9" cx="416.870031" cy="20.9108677" rx="0.910405076" ry="0.910867658"></ellipse>
            <ellipse id="Oval" stroke="#F2E9E9" stroke-width="3" fill="#F2E9E9" cx="380.97406" cy="199.961424" rx="0.910405076" ry="0.910867658"></ellipse>
            <ellipse id="Oval" stroke="#F2E9E9" stroke-width="3" fill="#F2E9E9" cx="380.97406" cy="164.177338" rx="0.910405076" ry="0.910867658"></ellipse>
            <ellipse id="Oval" stroke="#F2E9E9" stroke-width="3" fill="#F2E9E9" cx="380.97406" cy="128.393251" rx="0.910405076" ry="0.910867658"></ellipse>
            <ellipse id="Oval" stroke="#F2E9E9" stroke-width="3" fill="#F2E9E9" cx="380.97406" cy="92.6091648" rx="0.910405076" ry="0.910867658"></ellipse>
            <ellipse id="Oval" stroke="#F2E9E9" stroke-width="3" fill="#F2E9E9" cx="380.97406" cy="56.8250782" rx="0.910405076" ry="0.910867658"></ellipse>
            <ellipse id="Oval" stroke="#F2E9E9" stroke-width="3" fill="#F2E9E9" cx="380.97406" cy="20.9108677" rx="0.910405076" ry="0.910867658"></ellipse>
            <ellipse id="Oval" stroke="#F2E9E9" stroke-width="3" fill="#F2E9E9" cx="345.208146" cy="199.961424" rx="0.910405076" ry="0.910867658"></ellipse>
            <ellipse id="Oval" stroke="#F2E9E9" stroke-width="3" fill="#F2E9E9" cx="345.208146" cy="164.177338" rx="0.910405076" ry="0.910867658"></ellipse>
            <ellipse id="Oval" stroke="#F2E9E9" stroke-width="3" fill="#F2E9E9" cx="345.208146" cy="128.393251" rx="0.910405076" ry="0.910867658"></ellipse>
            <ellipse id="Oval" stroke="#F2E9E9" stroke-width="3" fill="#F2E9E9" cx="345.208146" cy="92.6091648" rx="0.910405076" ry="0.910867658"></ellipse>
            <ellipse id="Oval" stroke="#F2E9E9" stroke-width="3" fill="#F2E9E9" cx="345.208146" cy="56.8250782" rx="0.910405076" ry="0.910867658"></ellipse>
            <ellipse id="Oval" stroke="#F2E9E9" stroke-width="3" fill="#F2E9E9" cx="345.208146" cy="20.9108677" rx="0.910405076" ry="0.910867658"></ellipse>
            <ellipse id="Oval" stroke="#F2E9E9" stroke-width="3" fill="#F2E9E9" cx="309.442232" cy="199.961424" rx="0.910405076" ry="0.910867658"></ellipse>
            <ellipse id="Oval" stroke="#F2E9E9" stroke-width="3" fill="#F2E9E9" cx="309.442232" cy="164.177338" rx="0.910405076" ry="0.910867658"></ellipse>
            <ellipse id="Oval" stroke="#F2E9E9" stroke-width="3" fill="#F2E9E9" cx="309.442232" cy="128.393251" rx="0.910405076" ry="0.910867658"></ellipse>
            <ellipse id="Oval" stroke="#F2E9E9" stroke-width="3" fill="#F2E9E9" cx="309.442232" cy="92.6091648" rx="0.910405076" ry="0.910867658"></ellipse>
            <ellipse id="Oval" stroke="#F2E9E9" stroke-width="3" fill="#F2E9E9" cx="309.442232" cy="56.8250782" rx="0.910405076" ry="0.910867658"></ellipse>
            <ellipse id="Oval" stroke="#F2E9E9" stroke-width="3" fill="#F2E9E9" cx="309.442232" cy="20.9108677" rx="0.910405076" ry="0.910867658"></ellipse>
            <ellipse id="Oval" stroke="#F2E9E9" stroke-width="3" fill="#F2E9E9" cx="273.676319" cy="199.961424" rx="0.910405076" ry="0.910867658"></ellipse>
            <ellipse id="Oval" stroke="#F2E9E9" stroke-width="3" fill="#F2E9E9" cx="273.676319" cy="164.177338" rx="0.910405076" ry="0.910867658"></ellipse>
            <ellipse id="Oval" stroke="#F2E9E9" stroke-width="3" fill="#F2E9E9" cx="273.676319" cy="128.393251" rx="0.910405076" ry="0.910867658"></ellipse>
            <ellipse id="Oval" stroke="#F2E9E9" stroke-width="3" fill="#F2E9E9" cx="273.676319" cy="92.6091648" rx="0.910405076" ry="0.910867658"></ellipse>
            <ellipse id="Oval" stroke="#F2E9E9" stroke-width="3" fill="#F2E9E9" cx="273.676319" cy="56.8250782" rx="0.910405076" ry="0.910867658"></ellipse>
            <ellipse id="Oval" stroke="#F2E9E9" stroke-width="3" fill="#F2E9E9" cx="273.676319" cy="20.9108677" rx="0.910405076" ry="0.910867658"></ellipse>
            <ellipse id="Oval" stroke="#F2E9E9" stroke-width="3" fill="#F2E9E9" cx="237.910405" cy="199.961424" rx="0.910405076" ry="0.910867658"></ellipse>
            <ellipse id="Oval" stroke="#F2E9E9" stroke-width="3" fill="#F2E9E9" cx="237.910405" cy="164.177338" rx="0.910405076" ry="0.910867658"></ellipse>
            <ellipse id="Oval" stroke="#F2E9E9" stroke-width="3" fill="#F2E9E9" cx="237.910405" cy="128.393251" rx="0.910405076" ry="0.910867658"></ellipse>
            <ellipse id="Oval" stroke="#F2E9E9" stroke-width="3" fill="#F2E9E9" cx="237.910405" cy="92.6091648" rx="0.910405076" ry="0.910867658"></ellipse>
            <ellipse id="Oval" stroke="#F2E9E9" stroke-width="3" fill="#F2E9E9" cx="237.910405" cy="56.8250782" rx="0.910405076" ry="0.910867658"></ellipse>
            <ellipse id="Oval" stroke="#F2E9E9" stroke-width="3" fill="#F2E9E9" cx="237.910405" cy="20.9108677" rx="0.910405076" ry="0.910867658"></ellipse>
            <ellipse id="Oval-Copy-9" fill="#FED418" style="mix-blend-mode: overlay;" cx="128.75" cy="128.25" rx="36.25" ry="36.25"></ellipse>
            <path d="M92.5,128.5 L128.5,128.5 L128.5,164.5 L92.5,164.499999 L92.5,128.5 Z" id="Rectangle-path-Copy-24" fill="#F47F50" style="mix-blend-mode: screen;"></path>
            <path d="M273.5,57 L309.5,57 L309.5,93 L273.5,92.9999992 L273.5,57 Z" id="Rectangle-path-Copy-23" fill="#EF4862" style="mix-blend-mode: screen;"></path>
        </g>
    </g>
</svg>