<?xml version="1.0" encoding="UTF-8" standalone="no"?>
<svg width="188px" height="328px" viewBox="0 0 188 328" version="1.1" xmlns="http://www.w3.org/2000/svg" xmlns:xlink="http://www.w3.org/1999/xlink">
    <!-- Generator: Sketch 3.6.1 (26313) - http://www.bohemiancoding.com/sketch -->
    <title>grid/h</title>
    <desc>Created with Sketch.</desc>
    <defs></defs>
    <g id="Page-1" stroke="none" stroke-width="1" fill="none" fill-rule="evenodd">
        <g id="grid/h">
            <rect id="Rectangle-9" fill="#7ABEE0" style="mix-blend-mode: screen;" transform="translate(111.133427, 253.633427) rotate(-315.000000) translate(-111.133427, -253.633427) " x="60.0207358" y="227.482785" width="102.225383" height="52.3012848"></rect>
            <g id="Group" transform="translate(20.000000, 20.000000)" stroke="#141414" stroke-width="3" fill="#141414">
                <ellipse id="Oval" cx="36.7312152" cy="179.961424" rx="0.910405076" ry="0.910867658"></ellipse>
                <ellipse id="Oval" cx="36.7312152" cy="144.177338" rx="0.910405076" ry="0.910867658"></ellipse>
                <ellipse id="Oval" cx="36.7312152" cy="108.393251" rx="0.910405076" ry="0.910867658"></ellipse>
                <ellipse id="Oval" cx="36.7312152" cy="72.6091648" rx="0.910405076" ry="0.910867658"></ellipse>
                <ellipse id="Oval" cx="36.7312152" cy="36.8250782" rx="0.910405076" ry="0.910867658"></ellipse>
                <ellipse id="Oval" cx="36.7312152" cy="0.910867658" rx="0.910405076" ry="0.910867658"></ellipse>
                <ellipse id="Oval" cx="0.910405076" cy="179.961424" rx="0.910405076" ry="0.910867658"></ellipse>
                <ellipse id="Oval" cx="0.910405076" cy="144.177338" rx="0.910405076" ry="0.910867658"></ellipse>
                <ellipse id="Oval" cx="0.910405076" cy="108.393251" rx="0.910405076" ry="0.910867658"></ellipse>
                <ellipse id="Oval" cx="0.910405076" cy="72.6091648" rx="0.910405076" ry="0.910867658"></ellipse>
                <ellipse id="Oval" cx="0.910405076" cy="36.8250782" rx="0.910405076" ry="0.910867658"></ellipse>
                <ellipse id="Oval" cx="0.910405076" cy="0.910867658" rx="0.910405076" ry="0.910867658"></ellipse>
                <ellipse id="Oval" cx="146.158992" cy="179.961424" rx="0.910405076" ry="0.910867658"></ellipse>
                <ellipse id="Oval" cx="146.158992" cy="144.177338" rx="0.910405076" ry="0.910867658"></ellipse>
                <ellipse id="Oval" cx="146.158992" cy="108.393251" rx="0.910405076" ry="0.910867658"></ellipse>
                <ellipse id="Oval" cx="146.158992" cy="72.6091648" rx="0.910405076" ry="0.910867658"></ellipse>
                <ellipse id="Oval" cx="146.158992" cy="36.8250782" rx="0.910405076" ry="0.910867658"></ellipse>
                <ellipse id="Oval" cx="146.158992" cy="0.910867658" rx="0.910405076" ry="0.910867658"></ellipse>
                <ellipse id="Oval" cx="108.372836" cy="179.961424" rx="0.910405076" ry="0.910867658"></ellipse>
                <ellipse id="Oval" cx="108.372836" cy="144.177338" rx="0.910405076" ry="0.910867658"></ellipse>
                <ellipse id="Oval" cx="108.372836" cy="108.393251" rx="0.910405076" ry="0.910867658"></ellipse>
                <ellipse id="Oval" cx="108.372836" cy="72.6091648" rx="0.910405076" ry="0.910867658"></ellipse>
                <ellipse id="Oval" cx="108.372836" cy="36.8250782" rx="0.910405076" ry="0.910867658"></ellipse>
                <ellipse id="Oval" cx="108.372836" cy="0.910867658" rx="0.910405076" ry="0.910867658"></ellipse>
                <ellipse id="Oval" cx="72.5520254" cy="179.961424" rx="0.910405076" ry="0.910867658"></ellipse>
                <ellipse id="Oval" cx="72.5520254" cy="144.177338" rx="0.910405076" ry="0.910867658"></ellipse>
                <ellipse id="Oval" cx="72.5520254" cy="108.393251" rx="0.910405076" ry="0.910867658"></ellipse>
                <ellipse id="Oval" cx="72.5520254" cy="72.6091648" rx="0.910405076" ry="0.910867658"></ellipse>
                <ellipse id="Oval" cx="72.5520254" cy="36.8250782" rx="0.910405076" ry="0.910867658"></ellipse>
                <ellipse id="Oval" cx="72.5520254" cy="0.910867658" rx="0.910405076" ry="0.910867658"></ellipse>
                <ellipse id="Oval" cx="36.7312152" cy="286.609165" rx="0.910405076" ry="0.910867658"></ellipse>
                <ellipse id="Oval" cx="36.7312152" cy="250.825078" rx="0.910405076" ry="0.910867658"></ellipse>
                <ellipse id="Oval" cx="36.7312152" cy="214.910868" rx="0.910405076" ry="0.910867658"></ellipse>
                <ellipse id="Oval" cx="0.910405076" cy="286.609165" rx="0.910405076" ry="0.910867658"></ellipse>
                <ellipse id="Oval" cx="0.910405076" cy="250.825078" rx="0.910405076" ry="0.910867658"></ellipse>
                <ellipse id="Oval" cx="0.910405076" cy="214.910868" rx="0.910405076" ry="0.910867658"></ellipse>
                <ellipse id="Oval" cx="146.158992" cy="286.609165" rx="0.910405076" ry="0.910867658"></ellipse>
                <ellipse id="Oval" cx="146.158992" cy="250.825078" rx="0.910405076" ry="0.910867658"></ellipse>
                <ellipse id="Oval" cx="146.158992" cy="214.910868" rx="0.910405076" ry="0.910867658"></ellipse>
                <ellipse id="Oval" cx="108.372836" cy="286.609165" rx="0.910405076" ry="0.910867658"></ellipse>
                <ellipse id="Oval" cx="108.372836" cy="250.825078" rx="0.910405076" ry="0.910867658"></ellipse>
                <ellipse id="Oval" cx="108.372836" cy="214.910868" rx="0.910405076" ry="0.910867658"></ellipse>
                <ellipse id="Oval" cx="72.5520254" cy="286.609165" rx="0.910405076" ry="0.910867658"></ellipse>
                <ellipse id="Oval" cx="72.5520254" cy="250.825078" rx="0.910405076" ry="0.910867658"></ellipse>
                <ellipse id="Oval" cx="72.5520254" cy="214.910868" rx="0.910405076" ry="0.910867658"></ellipse>
            </g>
        </g>
    </g>
</svg>