<?xml version="1.0" encoding="UTF-8" standalone="no"?>
<svg width="223px" height="221px" viewBox="0 0 223 221" version="1.1" xmlns="http://www.w3.org/2000/svg" xmlns:xlink="http://www.w3.org/1999/xlink">
    <!-- Generator: Sketch 3.6.1 (26313) - http://www.bohemiancoding.com/sketch -->
    <title>grid/j</title>
    <desc>Created with Sketch.</desc>
    <defs></defs>
    <g id="Page-1" stroke="none" stroke-width="1" fill="none" fill-rule="evenodd">
        <g id="grid/j">
            <ellipse id="Oval" stroke="#141414" stroke-width="3" fill="#141414" cx="94.5173715" cy="199.961424" rx="0.910405076" ry="0.910867658"></ellipse>
            <ellipse id="Oval" stroke="#141414" stroke-width="3" fill="#141414" cx="94.5173715" cy="164.177338" rx="0.910405076" ry="0.910867658"></ellipse>
            <ellipse id="Oval" stroke="#141414" stroke-width="3" fill="#141414" cx="94.5173715" cy="128.393251" rx="0.910405076" ry="0.910867658"></ellipse>
            <ellipse id="Oval" stroke="#141414" stroke-width="3" fill="#141414" cx="94.5173715" cy="92.6091648" rx="0.910405076" ry="0.910867658"></ellipse>
            <ellipse id="Oval" stroke="#141414" stroke-width="3" fill="#141414" cx="94.5173715" cy="56.8250782" rx="0.910405076" ry="0.910867658"></ellipse>
            <ellipse id="Oval" stroke="#141414" stroke-width="3" fill="#141414" cx="94.5173715" cy="20.9108677" rx="0.910405076" ry="0.910867658"></ellipse>
            <ellipse id="Oval" stroke="#141414" stroke-width="3" fill="#141414" cx="131.517372" cy="199.961424" rx="0.910405076" ry="0.910867658"></ellipse>
            <ellipse id="Oval" stroke="#141414" stroke-width="3" fill="#141414" cx="131.517372" cy="164.177338" rx="0.910405076" ry="0.910867658"></ellipse>
            <ellipse id="Oval" stroke="#141414" stroke-width="3" fill="#141414" cx="131.517372" cy="128.393251" rx="0.910405076" ry="0.910867658"></ellipse>
            <ellipse id="Oval" stroke="#141414" stroke-width="3" fill="#141414" cx="131.517372" cy="92.6091648" rx="0.910405076" ry="0.910867658"></ellipse>
            <ellipse id="Oval" stroke="#141414" stroke-width="3" fill="#141414" cx="131.517372" cy="56.8250782" rx="0.910405076" ry="0.910867658"></ellipse>
            <ellipse id="Oval" stroke="#141414" stroke-width="3" fill="#141414" cx="131.517372" cy="20.9108677" rx="0.910405076" ry="0.910867658"></ellipse>
            <ellipse id="Oval" stroke="#141414" stroke-width="3" fill="#141414" cx="166.517372" cy="199.961424" rx="0.910405076" ry="0.910867658"></ellipse>
            <ellipse id="Oval" stroke="#141414" stroke-width="3" fill="#141414" cx="166.517372" cy="164.177338" rx="0.910405076" ry="0.910867658"></ellipse>
            <ellipse id="Oval" stroke="#141414" stroke-width="3" fill="#141414" cx="166.517372" cy="128.393251" rx="0.910405076" ry="0.910867658"></ellipse>
            <ellipse id="Oval" stroke="#141414" stroke-width="3" fill="#141414" cx="166.517372" cy="92.6091648" rx="0.910405076" ry="0.910867658"></ellipse>
            <ellipse id="Oval" stroke="#141414" stroke-width="3" fill="#141414" cx="166.517372" cy="56.8250782" rx="0.910405076" ry="0.910867658"></ellipse>
            <ellipse id="Oval" stroke="#141414" stroke-width="3" fill="#141414" cx="166.517372" cy="20.9108677" rx="0.910405076" ry="0.910867658"></ellipse>
            <ellipse id="Oval" stroke="#141414" stroke-width="3" fill="#141414" cx="201.517372" cy="199.961424" rx="0.910405076" ry="0.910867658"></ellipse>
            <ellipse id="Oval" stroke="#141414" stroke-width="3" fill="#141414" cx="201.517372" cy="164.177338" rx="0.910405076" ry="0.910867658"></ellipse>
            <ellipse id="Oval" stroke="#141414" stroke-width="3" fill="#141414" cx="201.517372" cy="128.393251" rx="0.910405076" ry="0.910867658"></ellipse>
            <ellipse id="Oval" stroke="#141414" stroke-width="3" fill="#141414" cx="201.517372" cy="92.6091648" rx="0.910405076" ry="0.910867658"></ellipse>
            <ellipse id="Oval" stroke="#141414" stroke-width="3" fill="#141414" cx="201.517372" cy="56.8250782" rx="0.910405076" ry="0.910867658"></ellipse>
            <ellipse id="Oval" stroke="#141414" stroke-width="3" fill="#141414" cx="201.517372" cy="20.9108677" rx="0.910405076" ry="0.910867658"></ellipse>
            <ellipse id="Oval" stroke="#141414" stroke-width="3" fill="#141414" cx="56.7312152" cy="199.961424" rx="0.910405076" ry="0.910867658"></ellipse>
            <ellipse id="Oval" stroke="#141414" stroke-width="3" fill="#141414" cx="56.7312152" cy="164.177338" rx="0.910405076" ry="0.910867658"></ellipse>
            <ellipse id="Oval" stroke="#141414" stroke-width="3" fill="#141414" cx="56.7312152" cy="128.393251" rx="0.910405076" ry="0.910867658"></ellipse>
            <ellipse id="Oval" stroke="#141414" stroke-width="3" fill="#141414" cx="56.7312152" cy="92.6091648" rx="0.910405076" ry="0.910867658"></ellipse>
            <ellipse id="Oval" stroke="#141414" stroke-width="3" fill="#141414" cx="56.7312152" cy="56.8250782" rx="0.910405076" ry="0.910867658"></ellipse>
            <ellipse id="Oval" stroke="#141414" stroke-width="3" fill="#141414" cx="56.7312152" cy="20.9108677" rx="0.910405076" ry="0.910867658"></ellipse>
            <ellipse id="Oval" stroke="#141414" stroke-width="3" fill="#141414" cx="20.9104051" cy="199.961424" rx="0.910405076" ry="0.910867658"></ellipse>
            <ellipse id="Oval" stroke="#141414" stroke-width="3" fill="#141414" cx="20.9104051" cy="164.177338" rx="0.910405076" ry="0.910867658"></ellipse>
            <ellipse id="Oval" stroke="#141414" stroke-width="3" fill="#141414" cx="20.9104051" cy="128.393251" rx="0.910405076" ry="0.910867658"></ellipse>
            <ellipse id="Oval" stroke="#141414" stroke-width="3" fill="#141414" cx="20.9104051" cy="92.6091648" rx="0.910405076" ry="0.910867658"></ellipse>
            <ellipse id="Oval" stroke="#141414" stroke-width="3" fill="#141414" cx="20.9104051" cy="56.8250782" rx="0.910405076" ry="0.910867658"></ellipse>
            <ellipse id="Oval" stroke="#141414" stroke-width="3" fill="#141414" cx="20.9104051" cy="20.9108677" rx="0.910405076" ry="0.910867658"></ellipse>
            <path d="M129.34868,142.481095 C129.252987,156.551819 117.816945,167.928744 103.72368,167.928744 C89.6304155,167.928744 78.1943738,156.551819 78.0986804,142.481095 L129.34868,142.481095 Z" id="Combined-Shape" fill="#EF4862" style="mix-blend-mode: screen;" transform="translate(103.723680, 155.204920) rotate(45.000000) translate(-103.723680, -155.204920) "></path>
        </g>
    </g>
</svg>